G04 #@! TF.GenerationSoftware,KiCad,Pcbnew,(5.1.9)-1*
G04 #@! TF.CreationDate,2021-04-22T16:11:50-07:00*
G04 #@! TF.ProjectId,euclid36,6575636c-6964-4333-962e-6b696361645f,1.2*
G04 #@! TF.SameCoordinates,PX2faf080PY2faf080*
G04 #@! TF.FileFunction,Copper,L1,Top*
G04 #@! TF.FilePolarity,Positive*
%FSLAX46Y46*%
G04 Gerber Fmt 4.6, Leading zero omitted, Abs format (unit mm)*
G04 Created by KiCad (PCBNEW (5.1.9)-1) date 2021-04-22 16:11:50*
%MOMM*%
%LPD*%
G01*
G04 APERTURE LIST*
G04 #@! TA.AperFunction,ComponentPad*
%ADD10O,1.000000X2.100000*%
G04 #@! TD*
G04 #@! TA.AperFunction,ComponentPad*
%ADD11O,1.000000X1.600000*%
G04 #@! TD*
G04 #@! TA.AperFunction,ComponentPad*
%ADD12C,0.100000*%
G04 #@! TD*
G04 #@! TA.AperFunction,ComponentPad*
%ADD13C,2.000000*%
G04 #@! TD*
G04 #@! TA.AperFunction,WasherPad*
%ADD14C,0.100000*%
G04 #@! TD*
G04 #@! TA.AperFunction,ComponentPad*
%ADD15C,1.397000*%
G04 #@! TD*
G04 #@! TA.AperFunction,SMDPad,CuDef*
%ADD16R,1.500000X1.000000*%
G04 #@! TD*
G04 #@! TA.AperFunction,ViaPad*
%ADD17C,0.900000*%
G04 #@! TD*
G04 #@! TA.AperFunction,Conductor*
%ADD18C,0.254000*%
G04 #@! TD*
G04 #@! TA.AperFunction,Conductor*
%ADD19C,0.381000*%
G04 #@! TD*
G04 APERTURE END LIST*
D10*
X96340000Y19240000D03*
X104980000Y19240000D03*
D11*
X96340000Y23420000D03*
X104980000Y23420000D03*
G04 #@! TA.AperFunction,ComponentPad*
D12*
G36*
X177581794Y-52186320D02*
G01*
X177064156Y-50254468D01*
X178996008Y-49736830D01*
X179513646Y-51668682D01*
X177581794Y-52186320D01*
G37*
G04 #@! TD.AperFunction*
D13*
X178935948Y-53376390D03*
X179582996Y-55791204D03*
G04 #@! TA.AperFunction,WasherPad*
D14*
G36*
X183444343Y-47406098D02*
G01*
X182926705Y-45474247D01*
X186017667Y-44646026D01*
X186535305Y-46577877D01*
X183444343Y-47406098D01*
G37*
G04 #@! TD.AperFunction*
G04 #@! TA.AperFunction,WasherPad*
G36*
X186343117Y-58224468D02*
G01*
X185825479Y-56292617D01*
X188916441Y-55464396D01*
X189434079Y-57396247D01*
X186343117Y-58224468D01*
G37*
G04 #@! TD.AperFunction*
D13*
X192294825Y-47208699D03*
X193588920Y-52038328D03*
G04 #@! TA.AperFunction,ComponentPad*
D12*
G36*
X22873345Y-55084097D02*
G01*
X22355707Y-57015949D01*
X20423855Y-56498311D01*
X20941493Y-54566459D01*
X22873345Y-55084097D01*
G37*
G04 #@! TD.AperFunction*
D13*
X22295648Y-53376390D03*
X22942695Y-50961575D03*
G04 #@! TA.AperFunction,WasherPad*
D14*
G36*
X15406117Y-56292617D02*
G01*
X14888479Y-58224468D01*
X11797517Y-57396247D01*
X12315155Y-55464396D01*
X15406117Y-56292617D01*
G37*
G04 #@! TD.AperFunction*
G04 #@! TA.AperFunction,WasherPad*
G36*
X18304891Y-45474247D02*
G01*
X17787253Y-47406098D01*
X14696291Y-46577877D01*
X15213929Y-44646026D01*
X18304891Y-45474247D01*
G37*
G04 #@! TD.AperFunction*
D13*
X7642676Y-52038328D03*
X8936771Y-47208699D03*
D15*
X118340000Y21870000D03*
X118340000Y19330000D03*
X118340000Y16790000D03*
X118340000Y14250000D03*
D13*
X78512500Y20155000D03*
X85012500Y20155000D03*
D16*
X98150000Y-20631250D03*
X98150000Y-23831250D03*
X103050000Y-20631250D03*
X103050000Y-23831250D03*
X88181250Y-47643750D03*
X88181250Y-44443750D03*
X83281250Y-47643750D03*
X83281250Y-44443750D03*
X112650000Y-44443750D03*
X112650000Y-47643750D03*
X117550000Y-44443750D03*
X117550000Y-47643750D03*
D17*
X7120000Y240000D03*
X28590000Y5210000D03*
X47300000Y5210000D03*
X64790000Y-4910000D03*
X87303000Y-10170000D03*
X81470000Y-10170000D03*
X91743000Y-4600000D03*
X87303000Y-2663000D03*
X86176001Y-28760000D03*
X5080000Y-15250000D03*
X23690000Y-14060000D03*
X42830000Y-14060000D03*
X60610000Y-22690000D03*
X76170000Y-28760000D03*
X90749852Y-5377000D03*
X86526000Y-3750000D03*
X-2260000Y-37110000D03*
X-2100578Y-49270578D03*
X3999422Y-55370578D03*
X37310000Y-32580000D03*
X55595000Y-42575000D03*
X73330000Y-48370000D03*
X79250000Y-48370000D03*
X91450000Y-6320000D03*
X86053000Y-5397458D03*
X18440000Y-32580000D03*
X210120000Y3770000D03*
X167820000Y2790000D03*
X151545000Y-1715000D03*
X134545000Y-9015000D03*
X186990000Y2790000D03*
X109690000Y-5510000D03*
X182190000Y2790000D03*
X119420000Y-30630000D03*
X215000000Y-15790000D03*
X190020000Y-12670000D03*
X174980000Y-12670000D03*
X157600000Y-20700000D03*
X139450000Y-26510000D03*
X110418575Y-6334126D03*
X117865578Y-11514422D03*
X195340000Y-30390000D03*
X196870000Y-34710000D03*
X219760000Y-32810000D03*
X179640000Y-31880000D03*
X163130000Y-40470000D03*
X146070000Y-47920000D03*
X111300000Y-7111126D03*
X117018985Y-12216764D03*
X122250000Y-47850000D03*
X109700000Y-12290500D03*
X109730000Y-14060000D03*
X109200000Y-97900000D03*
X170860000Y-72250000D03*
X42670000Y-76810000D03*
X64250000Y-88000000D03*
X80595000Y-96965000D03*
X132820000Y-91470000D03*
X153700000Y-80670000D03*
X94000000Y-3450000D03*
X90340000Y17190000D03*
X101540000Y-98960000D03*
X221560000Y-37870000D03*
X205230000Y22060000D03*
X131180000Y22050000D03*
X177500000Y22060000D03*
X202200000Y-23970000D03*
X217853029Y-18396971D03*
X174600000Y-70799500D03*
X64820000Y-89730000D03*
X-19900000Y-38090000D03*
X-5380000Y21699500D03*
X23105000Y-69345000D03*
X-6950000Y-21820000D03*
X-16399499Y-20149499D03*
X9759500Y21699500D03*
X53009500Y21699500D03*
X92390501Y-44330501D03*
X89821010Y-20658990D03*
X121330000Y-73560000D03*
X101540000Y-74120000D03*
X-6390000Y22540000D03*
X-19930000Y-39590000D03*
X222550000Y-38960000D03*
X206950000Y21870000D03*
X89240000Y22580000D03*
X100550000Y-100060000D03*
X206690000Y-18380000D03*
X217850000Y-17150000D03*
X191460000Y22980000D03*
X180945000Y-67955000D03*
X77520000Y-65360000D03*
X91550000Y-65070000D03*
X30670000Y-75970000D03*
X-840000Y-16250000D03*
X-17240000Y-16180000D03*
X18490000Y7500000D03*
X24370000Y7500000D03*
X22030000Y22540000D03*
X91550000Y-47590000D03*
X91550000Y-50230000D03*
X134850000Y-92790000D03*
X140080000Y22980000D03*
X60450000Y22540000D03*
X88980510Y-25780000D03*
X28170000Y-53740000D03*
X109260000Y23300000D03*
X106140000Y-23900000D03*
X111730000Y-23930000D03*
X103780000Y-63900000D03*
X34700000Y-56000000D03*
X9750000Y-42330000D03*
X124970000Y-42330000D03*
X103820000Y-42310000D03*
X102910000Y-63020000D03*
X60350000Y-62880000D03*
X-17930000Y-33640000D03*
X149190000Y-56010000D03*
X102140000Y-62070000D03*
X6270000Y-40513000D03*
X79960000Y-62070000D03*
X165710000Y-54270000D03*
X101200000Y-61060000D03*
X182790000Y-40060000D03*
X133210000Y-54240000D03*
X22840000Y-39736000D03*
X100350000Y-60040000D03*
X203310000Y-39470000D03*
X38640000Y-52260000D03*
X154100000Y-53250000D03*
X99670000Y-59080000D03*
X56910000Y-54100000D03*
X114660000Y-59190000D03*
X189620000Y-38505999D03*
X91580000Y17910000D03*
X88180000Y-42770500D03*
X88140010Y-24020000D03*
X93231001Y-46670000D03*
X90680000Y-31800000D03*
X87403000Y-31620000D03*
X88080000Y11960000D03*
X62590000Y11930000D03*
X57780000Y7400000D03*
X19410000Y6659500D03*
X-6485676Y-48025676D03*
X27514324Y-72565676D03*
X25658746Y-69611254D03*
X66730000Y-89300000D03*
X73450000Y-66070000D03*
X126260000Y-66530000D03*
X123860000Y-65560000D03*
X174050000Y-56810000D03*
X172860000Y-33270000D03*
X206248484Y-24810500D03*
X184570000Y9780000D03*
X141200000Y9960000D03*
X106720000Y-350000D03*
X123780000Y4970000D03*
X107612296Y427000D03*
X122820000Y5747000D03*
X113887000Y-57340000D03*
X30750000Y-43350000D03*
X113110000Y-58320000D03*
X29370000Y-42830000D03*
X115070000Y-55430000D03*
X174840000Y-42010000D03*
X114572245Y-56479509D03*
X173637000Y-43160000D03*
X173800000Y-55230000D03*
X98979500Y-6870000D03*
X104800000Y-5710000D03*
X97365426Y-11194074D03*
X96350000Y13220000D03*
X108030000Y11300000D03*
X101270000Y11270000D03*
X104090000Y16640000D03*
X93230500Y-12648093D03*
X92590000Y8510000D03*
X93297000Y-11300000D03*
X93297000Y7607729D03*
X109040000Y16350000D03*
X102188420Y16142736D03*
X100633000Y16240000D03*
X100930000Y21160000D03*
X98560000Y21120000D03*
X107220000Y17560000D03*
D18*
X57420000Y-4910000D02*
X47300000Y5210000D01*
X17460000Y240000D02*
X7120000Y240000D01*
X22430000Y5210000D02*
X17460000Y240000D01*
X28590000Y5210000D02*
X22430000Y5210000D01*
X47300000Y5210000D02*
X28590000Y5210000D01*
X64790000Y-4910000D02*
X57420000Y-4910000D01*
X66620000Y-4910000D02*
X64790000Y-4910000D01*
X71120000Y-9410000D02*
X66620000Y-4910000D01*
X80690000Y-9410000D02*
X71120000Y-9410000D01*
X81450000Y-10170000D02*
X80690000Y-9410000D01*
X87303000Y-10170000D02*
X81470000Y-10170000D01*
X81470000Y-10170000D02*
X81450000Y-10170000D01*
X89240000Y-4600000D02*
X87303000Y-2663000D01*
X91743000Y-4600000D02*
X89240000Y-4600000D01*
X74520000Y-28760000D02*
X73570000Y-27810000D01*
X73570000Y-27810000D02*
X67220000Y-27810000D01*
X67220000Y-27810000D02*
X62100000Y-22690000D01*
X53870000Y-22690000D02*
X49190000Y-18010000D01*
X49190000Y-18010000D02*
X46780000Y-18010000D01*
X46780000Y-18010000D02*
X42830000Y-14060000D01*
X6270000Y-14060000D02*
X5080000Y-15250000D01*
X23690000Y-14060000D02*
X6270000Y-14060000D01*
X42830000Y-14060000D02*
X23690000Y-14060000D01*
X60610000Y-22690000D02*
X53870000Y-22690000D01*
X62100000Y-22690000D02*
X60610000Y-22690000D01*
X76170000Y-28760000D02*
X74520000Y-28760000D01*
X86176001Y-28760000D02*
X76170000Y-28760000D01*
X88153000Y-5377000D02*
X86526000Y-3750000D01*
X90749852Y-5377000D02*
X88153000Y-5377000D01*
X68680000Y-48370000D02*
X66710000Y-46400000D01*
X66710000Y-46400000D02*
X59420000Y-46400000D01*
X53350000Y-40330000D02*
X45060000Y-40330000D01*
X45060000Y-40330000D02*
X37310000Y-32580000D01*
X37310000Y-32580000D02*
X18440000Y-32580000D01*
X13910000Y-37110000D02*
X-2260000Y-37110000D01*
X18440000Y-32580000D02*
X13910000Y-37110000D01*
X-2100578Y-49270578D02*
X3999422Y-55370578D01*
X55595000Y-42575000D02*
X53350000Y-40330000D01*
X59420000Y-46400000D02*
X55595000Y-42575000D01*
X73330000Y-48370000D02*
X68680000Y-48370000D01*
X79250000Y-48370000D02*
X73330000Y-48370000D01*
X86975542Y-6320000D02*
X86053000Y-5397458D01*
X91450000Y-6320000D02*
X86975542Y-6320000D01*
X140360000Y-3200000D02*
X150060000Y-3200000D01*
X156050000Y2790000D02*
X155945000Y2685000D01*
X197850000Y1020000D02*
X196080000Y2790000D01*
X207370000Y1020000D02*
X197850000Y1020000D01*
X210120000Y3770000D02*
X207370000Y1020000D01*
X167820000Y2790000D02*
X156050000Y2790000D01*
X151545000Y-1715000D02*
X155945000Y2685000D01*
X150060000Y-3200000D02*
X151545000Y-1715000D01*
X134545000Y-9015000D02*
X140360000Y-3200000D01*
X134000000Y-9560000D02*
X134545000Y-9015000D01*
X196080000Y2790000D02*
X186990000Y2790000D01*
X109690000Y-5510000D02*
X113570000Y-5510000D01*
X117620000Y-9560000D02*
X117700000Y-9560000D01*
X113570000Y-5510000D02*
X117620000Y-9560000D01*
X117700000Y-9560000D02*
X134000000Y-9560000D01*
X182190000Y2790000D02*
X167820000Y2790000D01*
X186990000Y2790000D02*
X182190000Y2790000D01*
X119420000Y-30630000D02*
X135330000Y-30630000D01*
X135330000Y-30630000D02*
X139450000Y-26510000D01*
X139450000Y-26510000D02*
X146840000Y-26510000D01*
X146840000Y-26510000D02*
X152650000Y-20700000D01*
X152650000Y-20700000D02*
X157600000Y-20700000D01*
X157600000Y-20700000D02*
X165630000Y-12670000D01*
X194250000Y-15790000D02*
X215000000Y-15790000D01*
X191130000Y-12670000D02*
X194250000Y-15790000D01*
X190020000Y-12670000D02*
X191130000Y-12670000D01*
X174980000Y-12670000D02*
X190020000Y-12670000D01*
X165630000Y-12670000D02*
X174980000Y-12670000D01*
X113174126Y-6334126D02*
X110418575Y-6334126D01*
X117150000Y-10310000D02*
X113174126Y-6334126D01*
X117150000Y-10798844D02*
X117150000Y-10310000D01*
X117865578Y-11514422D02*
X117150000Y-10798844D01*
X135180000Y-47920000D02*
X146070000Y-47920000D01*
X146070000Y-47920000D02*
X152210000Y-41780000D01*
X152210000Y-41780000D02*
X161820000Y-41780000D01*
X193850000Y-31880000D02*
X195340000Y-30390000D01*
X217860000Y-34710000D02*
X219760000Y-32810000D01*
X196870000Y-34710000D02*
X217860000Y-34710000D01*
X179640000Y-31880000D02*
X193850000Y-31880000D01*
X171720000Y-31880000D02*
X179640000Y-31880000D01*
X163130000Y-40470000D02*
X171720000Y-31880000D01*
X161820000Y-41780000D02*
X163130000Y-40470000D01*
X111300000Y-7111126D02*
X112951126Y-7111126D01*
X112951126Y-7111126D02*
X115442999Y-9602999D01*
X115442999Y-10744782D02*
X116131666Y-11433449D01*
X115442999Y-9602999D02*
X115442999Y-10744782D01*
X116235670Y-11433449D02*
X116131666Y-11433449D01*
X117018985Y-12216764D02*
X116235670Y-11433449D01*
X122320000Y-47920000D02*
X122250000Y-47850000D01*
X135180000Y-47920000D02*
X122320000Y-47920000D01*
X109700000Y-14030000D02*
X109730000Y-14060000D01*
X109700000Y-12290500D02*
X109700000Y-14030000D01*
X109200000Y-97900000D02*
X118340000Y-97900000D01*
X118340000Y-97900000D02*
X124770000Y-91470000D01*
X133190000Y-91470000D02*
X138110000Y-86550000D01*
X138110000Y-86550000D02*
X143310000Y-86550000D01*
X143310000Y-86550000D02*
X145060000Y-84800000D01*
X145060000Y-84800000D02*
X149570000Y-84800000D01*
X149570000Y-84800000D02*
X153700000Y-80670000D01*
X153700000Y-80670000D02*
X157250000Y-80670000D01*
X157250000Y-80670000D02*
X162380000Y-75540000D01*
X167570000Y-75540000D02*
X170860000Y-72250000D01*
X162380000Y-75540000D02*
X167570000Y-75540000D01*
X109200000Y-97900000D02*
X97920000Y-97900000D01*
X97920000Y-97900000D02*
X96490000Y-99330000D01*
X96490000Y-99330000D02*
X82960000Y-99330000D01*
X77880000Y-94250000D02*
X73840000Y-94250000D01*
X73840000Y-94250000D02*
X67590000Y-88000000D01*
X60610000Y-88000000D02*
X54280000Y-81670000D01*
X54280000Y-81670000D02*
X47530000Y-81670000D01*
X47530000Y-81670000D02*
X42670000Y-76810000D01*
X64250000Y-88000000D02*
X60610000Y-88000000D01*
X67590000Y-88000000D02*
X64250000Y-88000000D01*
X80595000Y-96965000D02*
X77880000Y-94250000D01*
X82960000Y-99330000D02*
X80595000Y-96965000D01*
X132820000Y-91470000D02*
X133190000Y-91470000D01*
X124770000Y-91470000D02*
X132820000Y-91470000D01*
X103061250Y-20620000D02*
X103050000Y-20631250D01*
X103050000Y-20631250D02*
X101978750Y-19560000D01*
X96588425Y-6038425D02*
X94000000Y-3450000D01*
X96588425Y-14169675D02*
X96588425Y-6038425D01*
X101978750Y-19560000D02*
X96588425Y-14169675D01*
D19*
X101540000Y-98960000D02*
X118770000Y-98960000D01*
X118770000Y-98960000D02*
X124960000Y-92770000D01*
X124960000Y-92770000D02*
X133420000Y-92770000D01*
X133420000Y-92770000D02*
X138590000Y-87600000D01*
X138590000Y-87600000D02*
X143680000Y-87600000D01*
X143680000Y-87600000D02*
X145610000Y-85670000D01*
X145610000Y-85670000D02*
X149890000Y-85670000D01*
X149890000Y-85670000D02*
X154030000Y-81530000D01*
X154030000Y-81530000D02*
X157870000Y-81530000D01*
X162860000Y-76540000D02*
X167980000Y-76540000D01*
X157870000Y-81530000D02*
X162860000Y-76540000D01*
X167980000Y-76540000D02*
X173660000Y-70860000D01*
X173660000Y-70860000D02*
X176950000Y-70860000D01*
X176950000Y-70706058D02*
X185516058Y-62140000D01*
X176950000Y-70860000D02*
X176950000Y-70706058D01*
X185516058Y-62140000D02*
X189850000Y-62140000D01*
X189850000Y-62140000D02*
X199320000Y-52670000D01*
X199320000Y-52670000D02*
X202330000Y-52670000D01*
X202330000Y-52670000D02*
X213790000Y-41210000D01*
X213790000Y-41210000D02*
X217850000Y-41210000D01*
X221190000Y-37870000D02*
X221560000Y-37870000D01*
X217850000Y-41210000D02*
X221190000Y-37870000D01*
X131190000Y22060000D02*
X131180000Y22050000D01*
X177500000Y22060000D02*
X131190000Y22060000D01*
X205230000Y22060000D02*
X177500000Y22060000D01*
X202200000Y-23970000D02*
X206490000Y-23970000D01*
X212063029Y-18396971D02*
X217853029Y-18396971D01*
X206490000Y-23970000D02*
X212063029Y-18396971D01*
X64820000Y-89730000D02*
X59950000Y-89730000D01*
X59950000Y-89730000D02*
X53460000Y-83240000D01*
X53460000Y-83240000D02*
X46690000Y-83240000D01*
X46690000Y-83240000D02*
X41850000Y-78400000D01*
X41850000Y-78400000D02*
X35620000Y-78400000D01*
X32349499Y-75129499D02*
X28889499Y-75129499D01*
X35620000Y-78400000D02*
X32349499Y-75129499D01*
X19700000Y-65940000D02*
X15690000Y-65940000D01*
X15690000Y-65940000D02*
X7630000Y-57880000D01*
X7630000Y-57880000D02*
X4640000Y-57880000D01*
X4640000Y-57880000D02*
X-3990000Y-49250000D01*
X-3990000Y-49250000D02*
X-6450000Y-49250000D01*
X-6450000Y-49250000D02*
X-12060000Y-43640000D01*
X-14350000Y-43640000D02*
X-19900000Y-38090000D01*
X-12060000Y-43640000D02*
X-14350000Y-43640000D01*
X78650000Y17190000D02*
X90340000Y17190000D01*
X74140500Y21699500D02*
X78650000Y17190000D01*
X23105000Y-69345000D02*
X19700000Y-65940000D01*
X28889499Y-75129499D02*
X23105000Y-69345000D01*
X-8620501Y-20149499D02*
X-16399499Y-20149499D01*
X-6950000Y-21820000D02*
X-8620501Y-20149499D01*
X-5380000Y21699500D02*
X9759500Y21699500D01*
X53009500Y21699500D02*
X74140500Y21699500D01*
X9759500Y21699500D02*
X53009500Y21699500D01*
X92503750Y-44443750D02*
X92390501Y-44330501D01*
X112650000Y-44443750D02*
X92503750Y-44443750D01*
X92390501Y-44330501D02*
X92390501Y-43260501D01*
X92390501Y-43260501D02*
X91060000Y-41930000D01*
X91060000Y-41930000D02*
X83840000Y-41930000D01*
X83281250Y-42488750D02*
X83281250Y-44443750D01*
X83840000Y-41930000D02*
X83281250Y-42488750D01*
X89848750Y-20631250D02*
X89821010Y-20658990D01*
X98150000Y-20631250D02*
X89848750Y-20631250D01*
X120770000Y-74120000D02*
X101540000Y-74120000D01*
X121330000Y-73560000D02*
X120770000Y-74120000D01*
X118340000Y19330000D02*
X121090000Y22080000D01*
X131150000Y22080000D02*
X131180000Y22050000D01*
X121090000Y22080000D02*
X131150000Y22080000D01*
X80937500Y22580000D02*
X78512500Y20155000D01*
X89240000Y22580000D02*
X80937500Y22580000D01*
X78512500Y20155000D02*
X76925000Y20155000D01*
X76925000Y20155000D02*
X74540000Y22540000D01*
X-19930000Y-39590000D02*
X-15180000Y-44340000D01*
X-15180000Y-44340000D02*
X-12530000Y-44340000D01*
X-12530000Y-44340000D02*
X-6700000Y-50170000D01*
X-6700000Y-50170000D02*
X-4110000Y-50170000D01*
X-4110000Y-50170000D02*
X4250000Y-58530000D01*
X4250000Y-58530000D02*
X7110000Y-58530000D01*
X7110000Y-58530000D02*
X15340000Y-66760000D01*
X15340000Y-66760000D02*
X19150000Y-66760000D01*
X19150000Y-66760000D02*
X28360000Y-75970000D01*
X31840000Y-75970000D02*
X35070000Y-79200000D01*
X35070000Y-79200000D02*
X41000000Y-79200000D01*
X41000000Y-79200000D02*
X45960000Y-84160000D01*
X45960000Y-84160000D02*
X53390000Y-84160000D01*
X53390000Y-84160000D02*
X59850000Y-90620000D01*
X59850000Y-90620000D02*
X66000000Y-90620000D01*
X66000000Y-90620000D02*
X71400000Y-96020000D01*
X71400000Y-96020000D02*
X78160000Y-96020000D01*
X78160000Y-96020000D02*
X82200000Y-100060000D01*
X118820000Y-100060000D02*
X125210000Y-93670000D01*
X125210000Y-93670000D02*
X133970000Y-93670000D01*
X139260000Y-88380000D02*
X143820000Y-88380000D01*
X143820000Y-88380000D02*
X145940000Y-86260000D01*
X145940000Y-86260000D02*
X150280000Y-86260000D01*
X150280000Y-86260000D02*
X154290000Y-82250000D01*
X154290000Y-82250000D02*
X158390000Y-82250000D01*
X158390000Y-82250000D02*
X163180000Y-77460000D01*
X163180000Y-77460000D02*
X168240000Y-77460000D01*
X168240000Y-77460000D02*
X174060000Y-71640000D01*
X174060000Y-71640000D02*
X177260000Y-71640000D01*
X185970000Y-62930000D02*
X190200000Y-62930000D01*
X190200000Y-62930000D02*
X199560000Y-53570000D01*
X199560000Y-53570000D02*
X202730000Y-53570000D01*
X202730000Y-53570000D02*
X214180000Y-42120000D01*
X214180000Y-42120000D02*
X218170000Y-42120000D01*
X221330000Y-38960000D02*
X222550000Y-38960000D01*
X218170000Y-42120000D02*
X221330000Y-38960000D01*
X206950000Y21870000D02*
X205840000Y22980000D01*
X89240000Y22580000D02*
X89240000Y22580000D01*
X100550000Y-100060000D02*
X118820000Y-100060000D01*
X82200000Y-100060000D02*
X100550000Y-100060000D01*
X207920000Y-17150000D02*
X217850000Y-17150000D01*
X206690000Y-18380000D02*
X207920000Y-17150000D01*
X205840000Y22980000D02*
X191460000Y22980000D01*
X180945000Y-67955000D02*
X185970000Y-62930000D01*
X177260000Y-71640000D02*
X180945000Y-67955000D01*
X91260000Y-65360000D02*
X91550000Y-65070000D01*
X77520000Y-65360000D02*
X91260000Y-65360000D01*
X30670000Y-75970000D02*
X31840000Y-75970000D01*
X28360000Y-75970000D02*
X30670000Y-75970000D01*
X-17170000Y-16250000D02*
X-17240000Y-16180000D01*
X-840000Y-16250000D02*
X-17170000Y-16250000D01*
X18490000Y7500000D02*
X24370000Y7500000D01*
X22030000Y22540000D02*
X-6390000Y22540000D01*
X88181250Y-47643750D02*
X91496250Y-47643750D01*
X91496250Y-47643750D02*
X91550000Y-47590000D01*
X117550000Y-47643750D02*
X117550000Y-49060000D01*
X116380000Y-50230000D02*
X91550000Y-50230000D01*
X117550000Y-49060000D02*
X116380000Y-50230000D01*
X134850000Y-92790000D02*
X139260000Y-88380000D01*
X133970000Y-93670000D02*
X134850000Y-92790000D01*
X140080000Y22980000D02*
X119220000Y22980000D01*
X191460000Y22980000D02*
X140080000Y22980000D01*
X60450000Y22540000D02*
X22030000Y22540000D01*
X74540000Y22540000D02*
X60450000Y22540000D01*
X103050000Y-23831250D02*
X103050000Y-25430000D01*
X102700000Y-25780000D02*
X88980510Y-25780000D01*
X103050000Y-25430000D02*
X102700000Y-25780000D01*
X22659258Y-53740000D02*
X22295648Y-53376390D01*
X28170000Y-53740000D02*
X22659258Y-53740000D01*
X118900000Y23300000D02*
X119220000Y22980000D01*
X109260000Y23300000D02*
X118900000Y23300000D01*
X119220000Y22750000D02*
X118340000Y21870000D01*
X119220000Y22980000D02*
X119220000Y22750000D01*
X103118750Y-23900000D02*
X103050000Y-23831250D01*
X106140000Y-23900000D02*
X103118750Y-23900000D01*
X106170000Y-23930000D02*
X106140000Y-23900000D01*
X111730000Y-23930000D02*
X106170000Y-23930000D01*
D18*
X103780000Y-63900000D02*
X68740000Y-63900000D01*
X68740000Y-63900000D02*
X63180000Y-63900000D01*
X63180000Y-63900000D02*
X59990000Y-63900000D01*
X59990000Y-63900000D02*
X54530000Y-58440000D01*
X54530000Y-58440000D02*
X38190000Y-58440000D01*
X35750000Y-56000000D02*
X34700000Y-56000000D01*
X38190000Y-58440000D02*
X35750000Y-56000000D01*
X34700000Y-56000000D02*
X34700000Y-52620000D01*
X24410000Y-42330000D02*
X9750000Y-42330000D01*
X34700000Y-52620000D02*
X24410000Y-42330000D01*
X103840000Y-42330000D02*
X103820000Y-42310000D01*
X124970000Y-42330000D02*
X103840000Y-42330000D01*
X60490000Y-63020000D02*
X60350000Y-62880000D01*
X102910000Y-63020000D02*
X60490000Y-63020000D01*
X60350000Y-62880000D02*
X55360000Y-57890000D01*
X55360000Y-57890000D02*
X38820000Y-57890000D01*
X38820000Y-57890000D02*
X35170000Y-54240000D01*
X35170000Y-52447933D02*
X24342067Y-41620000D01*
X35170000Y-54240000D02*
X35170000Y-52447933D01*
X24342067Y-41620000D02*
X24012067Y-41290000D01*
X-10280000Y-41290000D02*
X-17930000Y-33640000D01*
X24012067Y-41290000D02*
X-10280000Y-41290000D01*
X102910000Y-63020000D02*
X124960000Y-63020000D01*
X131970000Y-56010000D02*
X149190000Y-56010000D01*
X124960000Y-63020000D02*
X131970000Y-56010000D01*
X60990000Y-62070000D02*
X55760000Y-56840000D01*
X55760000Y-56840000D02*
X40720000Y-56840000D01*
X24393000Y-40513000D02*
X6270000Y-40513000D01*
X40720000Y-56840000D02*
X24393000Y-40513000D01*
X79960000Y-62070000D02*
X60990000Y-62070000D01*
X102140000Y-62070000D02*
X79960000Y-62070000D01*
X102140000Y-62070000D02*
X124710000Y-62070000D01*
X124710000Y-62070000D02*
X131650000Y-55130000D01*
X164850000Y-55130000D02*
X165710000Y-54270000D01*
X131650000Y-55130000D02*
X164850000Y-55130000D01*
X101200000Y-61060000D02*
X124480000Y-61060000D01*
X124480000Y-61060000D02*
X131300000Y-54240000D01*
X164200000Y-54240000D02*
X166540000Y-51900000D01*
X166540000Y-51900000D02*
X168480000Y-51900000D01*
X180320000Y-40060000D02*
X182790000Y-40060000D01*
X168480000Y-51900000D02*
X180320000Y-40060000D01*
X133210000Y-54240000D02*
X164200000Y-54240000D01*
X131300000Y-54240000D02*
X133210000Y-54240000D01*
X22840000Y-39736000D02*
X24846000Y-39736000D01*
X24846000Y-39736000D02*
X41180000Y-56070000D01*
X41180000Y-56070000D02*
X56150000Y-56070000D01*
X61140000Y-61060000D02*
X101200000Y-61060000D01*
X56150000Y-56070000D02*
X61140000Y-61060000D01*
X100350000Y-60040000D02*
X123940000Y-60040000D01*
X123940000Y-60040000D02*
X130730000Y-53250000D01*
X163980000Y-53250000D02*
X166010000Y-51220000D01*
X166010000Y-51220000D02*
X168130000Y-51220000D01*
X203122999Y-39282999D02*
X203310000Y-39470000D01*
X180067001Y-39282999D02*
X203122999Y-39282999D01*
X168130000Y-51220000D02*
X180067001Y-39282999D01*
X38640000Y-52260000D02*
X41560000Y-55180000D01*
X48310000Y-55180000D02*
X48320000Y-55190000D01*
X41560000Y-55180000D02*
X48310000Y-55180000D01*
X48320000Y-55190000D02*
X56400000Y-55190000D01*
X61250000Y-60040000D02*
X100350000Y-60040000D01*
X56400000Y-55190000D02*
X61250000Y-60040000D01*
X154100000Y-53250000D02*
X163980000Y-53250000D01*
X130730000Y-53250000D02*
X154100000Y-53250000D01*
X99670000Y-59080000D02*
X62020000Y-59080000D01*
X57040000Y-54100000D02*
X56910000Y-54100000D01*
X62020000Y-59080000D02*
X57040000Y-54100000D01*
X99780000Y-59190000D02*
X99670000Y-59080000D01*
X114660000Y-59190000D02*
X99780000Y-59190000D01*
X114660000Y-59190000D02*
X123660000Y-59190000D01*
X130377001Y-52472999D02*
X163817001Y-52472999D01*
X123660000Y-59190000D02*
X130377001Y-52472999D01*
X165717933Y-50870000D02*
X165987933Y-50600000D01*
X165420000Y-50870000D02*
X165717933Y-50870000D01*
X163817001Y-52472999D02*
X165420000Y-50870000D01*
X165987933Y-50600000D02*
X167790000Y-50600000D01*
X171700000Y-46690000D02*
X171700000Y-46380000D01*
X167790000Y-50600000D02*
X171700000Y-46690000D01*
X179574001Y-38505999D02*
X189620000Y-38505999D01*
X171700000Y-46380000D02*
X179574001Y-38505999D01*
X89335000Y20155000D02*
X85012500Y20155000D01*
X91580000Y17910000D02*
X89335000Y20155000D01*
X88181250Y-42771750D02*
X88180000Y-42770500D01*
X88181250Y-44443750D02*
X88181250Y-42771750D01*
X97961250Y-24020000D02*
X98150000Y-23831250D01*
X88140010Y-24020000D02*
X97961250Y-24020000D01*
X83281250Y-47643750D02*
X83736250Y-47643750D01*
X83736250Y-47643750D02*
X85520000Y-45860000D01*
X116133750Y-45860000D02*
X117550000Y-44443750D01*
X85520000Y-45860000D02*
X116133750Y-45860000D01*
X94204751Y-47643750D02*
X93231001Y-46670000D01*
X112650000Y-47643750D02*
X94204751Y-47643750D01*
X87583000Y-31800000D02*
X87403000Y-31620000D01*
X90680000Y-31800000D02*
X87583000Y-31800000D01*
X62620000Y11960000D02*
X62590000Y11930000D01*
X88080000Y11960000D02*
X62620000Y11960000D01*
X57039500Y6659500D02*
X19410000Y6659500D01*
X57780000Y7400000D02*
X57039500Y6659500D01*
X-6485676Y-48025676D02*
X-4444324Y-48025676D01*
X-4444324Y-48025676D02*
X4700000Y-57170000D01*
X4700000Y-57170000D02*
X7940000Y-57170000D01*
X16192490Y-65422490D02*
X19952490Y-65422490D01*
X7940000Y-57170000D02*
X16192490Y-65422490D01*
X23477961Y-68567999D02*
X23990000Y-69080038D01*
X23097999Y-68567999D02*
X23477961Y-68567999D01*
X19952490Y-65422490D02*
X23097999Y-68567999D01*
X24028686Y-69080038D02*
X27514324Y-72565676D01*
X23990000Y-69080038D02*
X24028686Y-69080038D01*
X25658746Y-69611254D02*
X28470000Y-72422508D01*
X28470000Y-72422508D02*
X28470000Y-73640000D01*
X28470000Y-73640000D02*
X29260000Y-74430000D01*
X29260000Y-74430000D02*
X32870000Y-74430000D01*
X32870000Y-74430000D02*
X36130000Y-77690000D01*
X36130000Y-77690000D02*
X42150000Y-77690000D01*
X47182490Y-82722490D02*
X54072490Y-82722490D01*
X42150000Y-77690000D02*
X47182490Y-82722490D01*
X54072490Y-82722490D02*
X60200000Y-88850000D01*
X60200000Y-88850000D02*
X66140000Y-88850000D01*
X66590000Y-89300000D02*
X66730000Y-89300000D01*
X66140000Y-88850000D02*
X66590000Y-89300000D01*
X73910000Y-66530000D02*
X126260000Y-66530000D01*
X73450000Y-66070000D02*
X73910000Y-66530000D01*
X132610000Y-56810000D02*
X174050000Y-56810000D01*
X123860000Y-65560000D02*
X132610000Y-56810000D01*
X172860000Y-33270000D02*
X194180000Y-33270000D01*
X202639500Y-24810500D02*
X206248484Y-24810500D01*
X194180000Y-33270000D02*
X202639500Y-24810500D01*
X184570000Y9780000D02*
X182270000Y7480000D01*
X182270000Y7480000D02*
X147880000Y7480000D01*
X145400000Y9960000D02*
X141200000Y9960000D01*
X147880000Y7480000D02*
X145400000Y9960000D01*
X106720000Y-350000D02*
X110480000Y-350000D01*
X115800000Y4970000D02*
X123780000Y4970000D01*
X110480000Y-350000D02*
X115800000Y4970000D01*
X107612296Y427000D02*
X110117000Y427000D01*
X111540000Y1850000D02*
X111560000Y1850000D01*
X110117000Y427000D02*
X111540000Y1850000D01*
X115457000Y5747000D02*
X122820000Y5747000D01*
X111560000Y1850000D02*
X115457000Y5747000D01*
X113887000Y-57340000D02*
X62450000Y-57340000D01*
X62450000Y-57340000D02*
X56030000Y-50920000D01*
X38320000Y-50920000D02*
X30750000Y-43350000D01*
X56030000Y-50920000D02*
X38320000Y-50920000D01*
X112660001Y-57870001D02*
X61920001Y-57870001D01*
X113110000Y-58320000D02*
X112660001Y-57870001D01*
X55532999Y-51482999D02*
X37772999Y-51482999D01*
X61920001Y-57870001D02*
X55532999Y-51482999D01*
X29370000Y-43080000D02*
X29370000Y-42830000D01*
X37772999Y-51482999D02*
X29370000Y-43080000D01*
X115070000Y-55430000D02*
X125900000Y-55430000D01*
X125900000Y-55430000D02*
X129860000Y-51470000D01*
X129860000Y-51470000D02*
X163390000Y-51470000D01*
X172850000Y-42010000D02*
X174840000Y-42010000D01*
X163390000Y-51470000D02*
X172850000Y-42010000D01*
X163628945Y-52018989D02*
X165807934Y-49840000D01*
X130188944Y-52018989D02*
X163628945Y-52018989D01*
X125728424Y-56479509D02*
X130188944Y-52018989D01*
X114572245Y-56479509D02*
X125728424Y-56479509D01*
X166957000Y-49840000D02*
X173637000Y-43160000D01*
X165807934Y-49840000D02*
X166957000Y-49840000D01*
X174361204Y-55791204D02*
X179582996Y-55791204D01*
X173800000Y-55230000D02*
X174361204Y-55791204D01*
X103640000Y-6870000D02*
X104800000Y-5710000D01*
X98979500Y-6870000D02*
X103640000Y-6870000D01*
X98979500Y-9580000D02*
X98979500Y-6870000D01*
X97365426Y-11194074D02*
X98979500Y-9580000D01*
D19*
X96350000Y13220000D02*
X98300000Y11270000D01*
X108000000Y11270000D02*
X108030000Y11300000D01*
X101270000Y11270000D02*
X108000000Y11270000D01*
X98300000Y11270000D02*
X101270000Y11270000D01*
X108086058Y16640000D02*
X108836058Y17390000D01*
X104090000Y16640000D02*
X108086058Y16640000D01*
X108836058Y17390000D02*
X109860000Y17390000D01*
X109860000Y17390000D02*
X111300000Y15950000D01*
X111300000Y15950000D02*
X111300000Y12880000D01*
X109720000Y11300000D02*
X108030000Y11300000D01*
X111300000Y12880000D02*
X109720000Y11300000D01*
D18*
X93230500Y-12648093D02*
X92520000Y-11937593D01*
X92520000Y8440000D02*
X92590000Y8510000D01*
X92520000Y-11937593D02*
X92520000Y8440000D01*
X93297000Y-11300000D02*
X92974010Y-10977010D01*
X92974010Y7284739D02*
X93297000Y7607729D01*
X92974010Y-10977010D02*
X92974010Y7284739D01*
X102188420Y15231580D02*
X102188420Y16142736D01*
X103150000Y14270000D02*
X102188420Y15231580D01*
X106960000Y14270000D02*
X103150000Y14270000D01*
X109040000Y16350000D02*
X106960000Y14270000D01*
X100772500Y16379500D02*
X100633000Y16240000D01*
X98600000Y21160000D02*
X98560000Y21120000D01*
X100930000Y21160000D02*
X98600000Y21160000D01*
X100640000Y16240000D02*
X100633000Y16240000D01*
X101953000Y17560000D02*
X100633000Y16240000D01*
X107220000Y17560000D02*
X101953000Y17560000D01*
M02*
