G04 #@! TF.GenerationSoftware,KiCad,Pcbnew,(5.1.9)-1*
G04 #@! TF.CreationDate,2021-04-22T14:04:21-07:00*
G04 #@! TF.ProjectId,euclid36,6575636c-6964-4333-962e-6b696361645f,1.2*
G04 #@! TF.SameCoordinates,PX2faf080PY2faf080*
G04 #@! TF.FileFunction,Soldermask,Bot*
G04 #@! TF.FilePolarity,Negative*
%FSLAX46Y46*%
G04 Gerber Fmt 4.6, Leading zero omitted, Abs format (unit mm)*
G04 Created by KiCad (PCBNEW (5.1.9)-1) date 2021-04-22 14:04:21*
%MOMM*%
%LPD*%
G01*
G04 APERTURE LIST*
%ADD10C,0.750000*%
%ADD11O,1.100000X2.200000*%
%ADD12O,1.100000X1.700000*%
%ADD13C,2.102000*%
%ADD14C,1.499000*%
%ADD15C,3.102000*%
%ADD16C,4.089800*%
%ADD17C,1.852000*%
%ADD18C,1.002000*%
%ADD19C,0.100000*%
G04 APERTURE END LIST*
G36*
G01*
X196902173Y-46914859D02*
X195743062Y-47225442D01*
G75*
G02*
X195680600Y-47189380I-13200J49262D01*
G01*
X195447663Y-46320047D01*
G75*
G02*
X195483725Y-46257585I49262J13200D01*
G01*
X196642836Y-45947002D01*
G75*
G02*
X196705298Y-45983064I13200J-49262D01*
G01*
X196938235Y-46852397D01*
G75*
G02*
X196902173Y-46914859I-49262J-13200D01*
G01*
G37*
G36*
G01*
X197756275Y-50102415D02*
X196597164Y-50412998D01*
G75*
G02*
X196534702Y-50376936I-13200J49262D01*
G01*
X196301765Y-49507603D01*
G75*
G02*
X196337827Y-49445141I49262J13200D01*
G01*
X197496938Y-49134558D01*
G75*
G02*
X197559400Y-49170620I13200J-49262D01*
G01*
X197792337Y-50039953D01*
G75*
G02*
X197756275Y-50102415I-49262J-13200D01*
G01*
G37*
G36*
G01*
X102791000Y3870001D02*
X102791000Y2669999D01*
G75*
G02*
X102740001Y2619000I-50999J0D01*
G01*
X101339999Y2619000D01*
G75*
G02*
X101289000Y2669999I0J50999D01*
G01*
X101289000Y3870001D01*
G75*
G02*
X101339999Y3921000I50999J0D01*
G01*
X102740001Y3921000D01*
G75*
G02*
X102791000Y3870001I0J-50999D01*
G01*
G37*
G36*
G01*
X100591000Y3870001D02*
X100591000Y2669999D01*
G75*
G02*
X100540001Y2619000I-50999J0D01*
G01*
X99139999Y2619000D01*
G75*
G02*
X99089000Y2669999I0J50999D01*
G01*
X99089000Y3870001D01*
G75*
G02*
X99139999Y3921000I50999J0D01*
G01*
X100540001Y3921000D01*
G75*
G02*
X100591000Y3870001I0J-50999D01*
G01*
G37*
G36*
G01*
X100591000Y2170001D02*
X100591000Y969999D01*
G75*
G02*
X100540001Y919000I-50999J0D01*
G01*
X99139999Y919000D01*
G75*
G02*
X99089000Y969999I0J50999D01*
G01*
X99089000Y2170001D01*
G75*
G02*
X99139999Y2221000I50999J0D01*
G01*
X100540001Y2221000D01*
G75*
G02*
X100591000Y2170001I0J-50999D01*
G01*
G37*
G36*
G01*
X102791000Y2170001D02*
X102791000Y969999D01*
G75*
G02*
X102740001Y919000I-50999J0D01*
G01*
X101339999Y919000D01*
G75*
G02*
X101289000Y969999I0J50999D01*
G01*
X101289000Y2170001D01*
G75*
G02*
X101339999Y2221000I50999J0D01*
G01*
X102740001Y2221000D01*
G75*
G02*
X102791000Y2170001I0J-50999D01*
G01*
G37*
G36*
G01*
X103535000Y17600000D02*
X103535000Y19050000D01*
G75*
G02*
X103585000Y19100000I50000J0D01*
G01*
X104185000Y19100000D01*
G75*
G02*
X104235000Y19050000I0J-50000D01*
G01*
X104235000Y17600000D01*
G75*
G02*
X104185000Y17550000I-50000J0D01*
G01*
X103585000Y17550000D01*
G75*
G02*
X103535000Y17600000I0J50000D01*
G01*
G37*
G36*
G01*
X97085000Y17600000D02*
X97085000Y19050000D01*
G75*
G02*
X97135000Y19100000I50000J0D01*
G01*
X97735000Y19100000D01*
G75*
G02*
X97785000Y19050000I0J-50000D01*
G01*
X97785000Y17600000D01*
G75*
G02*
X97735000Y17550000I-50000J0D01*
G01*
X97135000Y17550000D01*
G75*
G02*
X97085000Y17600000I0J50000D01*
G01*
G37*
G36*
G01*
X102760000Y17600000D02*
X102760000Y19050000D01*
G75*
G02*
X102810000Y19100000I50000J0D01*
G01*
X103410000Y19100000D01*
G75*
G02*
X103460000Y19050000I0J-50000D01*
G01*
X103460000Y17600000D01*
G75*
G02*
X103410000Y17550000I-50000J0D01*
G01*
X102810000Y17550000D01*
G75*
G02*
X102760000Y17600000I0J50000D01*
G01*
G37*
G36*
G01*
X97860000Y17600000D02*
X97860000Y19050000D01*
G75*
G02*
X97910000Y19100000I50000J0D01*
G01*
X98510000Y19100000D01*
G75*
G02*
X98560000Y19050000I0J-50000D01*
G01*
X98560000Y17600000D01*
G75*
G02*
X98510000Y17550000I-50000J0D01*
G01*
X97910000Y17550000D01*
G75*
G02*
X97860000Y17600000I0J50000D01*
G01*
G37*
G36*
G01*
X98710000Y17600000D02*
X98710000Y19050000D01*
G75*
G02*
X98760000Y19100000I50000J0D01*
G01*
X99060000Y19100000D01*
G75*
G02*
X99110000Y19050000I0J-50000D01*
G01*
X99110000Y17600000D01*
G75*
G02*
X99060000Y17550000I-50000J0D01*
G01*
X98760000Y17550000D01*
G75*
G02*
X98710000Y17600000I0J50000D01*
G01*
G37*
G36*
G01*
X102210000Y17600000D02*
X102210000Y19050000D01*
G75*
G02*
X102260000Y19100000I50000J0D01*
G01*
X102560000Y19100000D01*
G75*
G02*
X102610000Y19050000I0J-50000D01*
G01*
X102610000Y17600000D01*
G75*
G02*
X102560000Y17550000I-50000J0D01*
G01*
X102260000Y17550000D01*
G75*
G02*
X102210000Y17600000I0J50000D01*
G01*
G37*
G36*
G01*
X99210000Y17600000D02*
X99210000Y19050000D01*
G75*
G02*
X99260000Y19100000I50000J0D01*
G01*
X99560000Y19100000D01*
G75*
G02*
X99610000Y19050000I0J-50000D01*
G01*
X99610000Y17600000D01*
G75*
G02*
X99560000Y17550000I-50000J0D01*
G01*
X99260000Y17550000D01*
G75*
G02*
X99210000Y17600000I0J50000D01*
G01*
G37*
G36*
G01*
X101710000Y17600000D02*
X101710000Y19050000D01*
G75*
G02*
X101760000Y19100000I50000J0D01*
G01*
X102060000Y19100000D01*
G75*
G02*
X102110000Y19050000I0J-50000D01*
G01*
X102110000Y17600000D01*
G75*
G02*
X102060000Y17550000I-50000J0D01*
G01*
X101760000Y17550000D01*
G75*
G02*
X101710000Y17600000I0J50000D01*
G01*
G37*
G36*
G01*
X99710000Y17600000D02*
X99710000Y19050000D01*
G75*
G02*
X99760000Y19100000I50000J0D01*
G01*
X100060000Y19100000D01*
G75*
G02*
X100110000Y19050000I0J-50000D01*
G01*
X100110000Y17600000D01*
G75*
G02*
X100060000Y17550000I-50000J0D01*
G01*
X99760000Y17550000D01*
G75*
G02*
X99710000Y17600000I0J50000D01*
G01*
G37*
G36*
G01*
X101210000Y17600000D02*
X101210000Y19050000D01*
G75*
G02*
X101260000Y19100000I50000J0D01*
G01*
X101560000Y19100000D01*
G75*
G02*
X101610000Y19050000I0J-50000D01*
G01*
X101610000Y17600000D01*
G75*
G02*
X101560000Y17550000I-50000J0D01*
G01*
X101260000Y17550000D01*
G75*
G02*
X101210000Y17600000I0J50000D01*
G01*
G37*
G36*
G01*
X100710000Y17600000D02*
X100710000Y19050000D01*
G75*
G02*
X100760000Y19100000I50000J0D01*
G01*
X101060000Y19100000D01*
G75*
G02*
X101110000Y19050000I0J-50000D01*
G01*
X101110000Y17600000D01*
G75*
G02*
X101060000Y17550000I-50000J0D01*
G01*
X100760000Y17550000D01*
G75*
G02*
X100710000Y17600000I0J50000D01*
G01*
G37*
G36*
G01*
X100210000Y17600000D02*
X100210000Y19050000D01*
G75*
G02*
X100260000Y19100000I50000J0D01*
G01*
X100560000Y19100000D01*
G75*
G02*
X100610000Y19050000I0J-50000D01*
G01*
X100610000Y17600000D01*
G75*
G02*
X100560000Y17550000I-50000J0D01*
G01*
X100260000Y17550000D01*
G75*
G02*
X100210000Y17600000I0J50000D01*
G01*
G37*
D10*
X103550000Y19770000D03*
X97770000Y19770000D03*
D11*
X96340000Y19240000D03*
X104980000Y19240000D03*
D12*
X96340000Y23420000D03*
X104980000Y23420000D03*
G36*
G01*
X96970000Y-15460000D02*
X96970000Y-13960000D01*
G75*
G02*
X97170000Y-13760000I200000J0D01*
G01*
X97670000Y-13760000D01*
G75*
G02*
X97870000Y-13960000I0J-200000D01*
G01*
X97870000Y-15460000D01*
G75*
G02*
X97670000Y-15660000I-200000J0D01*
G01*
X97170000Y-15660000D01*
G75*
G02*
X96970000Y-15460000I0J200000D01*
G01*
G37*
G36*
G01*
X97770000Y-15460000D02*
X97770000Y-13960000D01*
G75*
G02*
X97970000Y-13760000I200000J0D01*
G01*
X98470000Y-13760000D01*
G75*
G02*
X98670000Y-13960000I0J-200000D01*
G01*
X98670000Y-15460000D01*
G75*
G02*
X98470000Y-15660000I-200000J0D01*
G01*
X97970000Y-15660000D01*
G75*
G02*
X97770000Y-15460000I0J200000D01*
G01*
G37*
G36*
G01*
X98570000Y-15460000D02*
X98570000Y-13960000D01*
G75*
G02*
X98770000Y-13760000I200000J0D01*
G01*
X99270000Y-13760000D01*
G75*
G02*
X99470000Y-13960000I0J-200000D01*
G01*
X99470000Y-15460000D01*
G75*
G02*
X99270000Y-15660000I-200000J0D01*
G01*
X98770000Y-15660000D01*
G75*
G02*
X98570000Y-15460000I0J200000D01*
G01*
G37*
G36*
G01*
X99370000Y-15460000D02*
X99370000Y-13960000D01*
G75*
G02*
X99570000Y-13760000I200000J0D01*
G01*
X100070000Y-13760000D01*
G75*
G02*
X100270000Y-13960000I0J-200000D01*
G01*
X100270000Y-15460000D01*
G75*
G02*
X100070000Y-15660000I-200000J0D01*
G01*
X99570000Y-15660000D01*
G75*
G02*
X99370000Y-15460000I0J200000D01*
G01*
G37*
G36*
G01*
X100170000Y-15460000D02*
X100170000Y-13960000D01*
G75*
G02*
X100370000Y-13760000I200000J0D01*
G01*
X100870000Y-13760000D01*
G75*
G02*
X101070000Y-13960000I0J-200000D01*
G01*
X101070000Y-15460000D01*
G75*
G02*
X100870000Y-15660000I-200000J0D01*
G01*
X100370000Y-15660000D01*
G75*
G02*
X100170000Y-15460000I0J200000D01*
G01*
G37*
G36*
G01*
X100970000Y-15460000D02*
X100970000Y-13960000D01*
G75*
G02*
X101170000Y-13760000I200000J0D01*
G01*
X101670000Y-13760000D01*
G75*
G02*
X101870000Y-13960000I0J-200000D01*
G01*
X101870000Y-15460000D01*
G75*
G02*
X101670000Y-15660000I-200000J0D01*
G01*
X101170000Y-15660000D01*
G75*
G02*
X100970000Y-15460000I0J200000D01*
G01*
G37*
G36*
G01*
X101770000Y-15460000D02*
X101770000Y-13960000D01*
G75*
G02*
X101970000Y-13760000I200000J0D01*
G01*
X102470000Y-13760000D01*
G75*
G02*
X102670000Y-13960000I0J-200000D01*
G01*
X102670000Y-15460000D01*
G75*
G02*
X102470000Y-15660000I-200000J0D01*
G01*
X101970000Y-15660000D01*
G75*
G02*
X101770000Y-15460000I0J200000D01*
G01*
G37*
G36*
G01*
X102570000Y-15460000D02*
X102570000Y-13960000D01*
G75*
G02*
X102770000Y-13760000I200000J0D01*
G01*
X103270000Y-13760000D01*
G75*
G02*
X103470000Y-13960000I0J-200000D01*
G01*
X103470000Y-15460000D01*
G75*
G02*
X103270000Y-15660000I-200000J0D01*
G01*
X102770000Y-15660000D01*
G75*
G02*
X102570000Y-15460000I0J200000D01*
G01*
G37*
G36*
G01*
X103370000Y-15460000D02*
X103370000Y-13960000D01*
G75*
G02*
X103570000Y-13760000I200000J0D01*
G01*
X104070000Y-13760000D01*
G75*
G02*
X104270000Y-13960000I0J-200000D01*
G01*
X104270000Y-15460000D01*
G75*
G02*
X104070000Y-15660000I-200000J0D01*
G01*
X103570000Y-15660000D01*
G75*
G02*
X103370000Y-15460000I0J200000D01*
G01*
G37*
G36*
G01*
X104170000Y-15460000D02*
X104170000Y-13960000D01*
G75*
G02*
X104370000Y-13760000I200000J0D01*
G01*
X104870000Y-13760000D01*
G75*
G02*
X105070000Y-13960000I0J-200000D01*
G01*
X105070000Y-15460000D01*
G75*
G02*
X104870000Y-15660000I-200000J0D01*
G01*
X104370000Y-15660000D01*
G75*
G02*
X104170000Y-15460000I0J200000D01*
G01*
G37*
G36*
G01*
X104970000Y-15460000D02*
X104970000Y-13960000D01*
G75*
G02*
X105170000Y-13760000I200000J0D01*
G01*
X105670000Y-13760000D01*
G75*
G02*
X105870000Y-13960000I0J-200000D01*
G01*
X105870000Y-15460000D01*
G75*
G02*
X105670000Y-15660000I-200000J0D01*
G01*
X105170000Y-15660000D01*
G75*
G02*
X104970000Y-15460000I0J200000D01*
G01*
G37*
G36*
G01*
X106370000Y-13060000D02*
X106370000Y-12560000D01*
G75*
G02*
X106570000Y-12360000I200000J0D01*
G01*
X108070000Y-12360000D01*
G75*
G02*
X108270000Y-12560000I0J-200000D01*
G01*
X108270000Y-13060000D01*
G75*
G02*
X108070000Y-13260000I-200000J0D01*
G01*
X106570000Y-13260000D01*
G75*
G02*
X106370000Y-13060000I0J200000D01*
G01*
G37*
G36*
G01*
X106370000Y-12260000D02*
X106370000Y-11760000D01*
G75*
G02*
X106570000Y-11560000I200000J0D01*
G01*
X108070000Y-11560000D01*
G75*
G02*
X108270000Y-11760000I0J-200000D01*
G01*
X108270000Y-12260000D01*
G75*
G02*
X108070000Y-12460000I-200000J0D01*
G01*
X106570000Y-12460000D01*
G75*
G02*
X106370000Y-12260000I0J200000D01*
G01*
G37*
G36*
G01*
X106370000Y-11460000D02*
X106370000Y-10960000D01*
G75*
G02*
X106570000Y-10760000I200000J0D01*
G01*
X108070000Y-10760000D01*
G75*
G02*
X108270000Y-10960000I0J-200000D01*
G01*
X108270000Y-11460000D01*
G75*
G02*
X108070000Y-11660000I-200000J0D01*
G01*
X106570000Y-11660000D01*
G75*
G02*
X106370000Y-11460000I0J200000D01*
G01*
G37*
G36*
G01*
X106370000Y-10660000D02*
X106370000Y-10160000D01*
G75*
G02*
X106570000Y-9960000I200000J0D01*
G01*
X108070000Y-9960000D01*
G75*
G02*
X108270000Y-10160000I0J-200000D01*
G01*
X108270000Y-10660000D01*
G75*
G02*
X108070000Y-10860000I-200000J0D01*
G01*
X106570000Y-10860000D01*
G75*
G02*
X106370000Y-10660000I0J200000D01*
G01*
G37*
G36*
G01*
X106370000Y-9860000D02*
X106370000Y-9360000D01*
G75*
G02*
X106570000Y-9160000I200000J0D01*
G01*
X108070000Y-9160000D01*
G75*
G02*
X108270000Y-9360000I0J-200000D01*
G01*
X108270000Y-9860000D01*
G75*
G02*
X108070000Y-10060000I-200000J0D01*
G01*
X106570000Y-10060000D01*
G75*
G02*
X106370000Y-9860000I0J200000D01*
G01*
G37*
G36*
G01*
X106370000Y-9060000D02*
X106370000Y-8560000D01*
G75*
G02*
X106570000Y-8360000I200000J0D01*
G01*
X108070000Y-8360000D01*
G75*
G02*
X108270000Y-8560000I0J-200000D01*
G01*
X108270000Y-9060000D01*
G75*
G02*
X108070000Y-9260000I-200000J0D01*
G01*
X106570000Y-9260000D01*
G75*
G02*
X106370000Y-9060000I0J200000D01*
G01*
G37*
G36*
G01*
X106370000Y-8260000D02*
X106370000Y-7760000D01*
G75*
G02*
X106570000Y-7560000I200000J0D01*
G01*
X108070000Y-7560000D01*
G75*
G02*
X108270000Y-7760000I0J-200000D01*
G01*
X108270000Y-8260000D01*
G75*
G02*
X108070000Y-8460000I-200000J0D01*
G01*
X106570000Y-8460000D01*
G75*
G02*
X106370000Y-8260000I0J200000D01*
G01*
G37*
G36*
G01*
X106370000Y-7460000D02*
X106370000Y-6960000D01*
G75*
G02*
X106570000Y-6760000I200000J0D01*
G01*
X108070000Y-6760000D01*
G75*
G02*
X108270000Y-6960000I0J-200000D01*
G01*
X108270000Y-7460000D01*
G75*
G02*
X108070000Y-7660000I-200000J0D01*
G01*
X106570000Y-7660000D01*
G75*
G02*
X106370000Y-7460000I0J200000D01*
G01*
G37*
G36*
G01*
X106370000Y-6660000D02*
X106370000Y-6160000D01*
G75*
G02*
X106570000Y-5960000I200000J0D01*
G01*
X108070000Y-5960000D01*
G75*
G02*
X108270000Y-6160000I0J-200000D01*
G01*
X108270000Y-6660000D01*
G75*
G02*
X108070000Y-6860000I-200000J0D01*
G01*
X106570000Y-6860000D01*
G75*
G02*
X106370000Y-6660000I0J200000D01*
G01*
G37*
G36*
G01*
X106370000Y-5860000D02*
X106370000Y-5360000D01*
G75*
G02*
X106570000Y-5160000I200000J0D01*
G01*
X108070000Y-5160000D01*
G75*
G02*
X108270000Y-5360000I0J-200000D01*
G01*
X108270000Y-5860000D01*
G75*
G02*
X108070000Y-6060000I-200000J0D01*
G01*
X106570000Y-6060000D01*
G75*
G02*
X106370000Y-5860000I0J200000D01*
G01*
G37*
G36*
G01*
X106370000Y-5060000D02*
X106370000Y-4560000D01*
G75*
G02*
X106570000Y-4360000I200000J0D01*
G01*
X108070000Y-4360000D01*
G75*
G02*
X108270000Y-4560000I0J-200000D01*
G01*
X108270000Y-5060000D01*
G75*
G02*
X108070000Y-5260000I-200000J0D01*
G01*
X106570000Y-5260000D01*
G75*
G02*
X106370000Y-5060000I0J200000D01*
G01*
G37*
G36*
G01*
X104970000Y-3660000D02*
X104970000Y-2160000D01*
G75*
G02*
X105170000Y-1960000I200000J0D01*
G01*
X105670000Y-1960000D01*
G75*
G02*
X105870000Y-2160000I0J-200000D01*
G01*
X105870000Y-3660000D01*
G75*
G02*
X105670000Y-3860000I-200000J0D01*
G01*
X105170000Y-3860000D01*
G75*
G02*
X104970000Y-3660000I0J200000D01*
G01*
G37*
G36*
G01*
X104170000Y-3660000D02*
X104170000Y-2160000D01*
G75*
G02*
X104370000Y-1960000I200000J0D01*
G01*
X104870000Y-1960000D01*
G75*
G02*
X105070000Y-2160000I0J-200000D01*
G01*
X105070000Y-3660000D01*
G75*
G02*
X104870000Y-3860000I-200000J0D01*
G01*
X104370000Y-3860000D01*
G75*
G02*
X104170000Y-3660000I0J200000D01*
G01*
G37*
G36*
G01*
X103370000Y-3660000D02*
X103370000Y-2160000D01*
G75*
G02*
X103570000Y-1960000I200000J0D01*
G01*
X104070000Y-1960000D01*
G75*
G02*
X104270000Y-2160000I0J-200000D01*
G01*
X104270000Y-3660000D01*
G75*
G02*
X104070000Y-3860000I-200000J0D01*
G01*
X103570000Y-3860000D01*
G75*
G02*
X103370000Y-3660000I0J200000D01*
G01*
G37*
G36*
G01*
X102570000Y-3660000D02*
X102570000Y-2160000D01*
G75*
G02*
X102770000Y-1960000I200000J0D01*
G01*
X103270000Y-1960000D01*
G75*
G02*
X103470000Y-2160000I0J-200000D01*
G01*
X103470000Y-3660000D01*
G75*
G02*
X103270000Y-3860000I-200000J0D01*
G01*
X102770000Y-3860000D01*
G75*
G02*
X102570000Y-3660000I0J200000D01*
G01*
G37*
G36*
G01*
X101770000Y-3660000D02*
X101770000Y-2160000D01*
G75*
G02*
X101970000Y-1960000I200000J0D01*
G01*
X102470000Y-1960000D01*
G75*
G02*
X102670000Y-2160000I0J-200000D01*
G01*
X102670000Y-3660000D01*
G75*
G02*
X102470000Y-3860000I-200000J0D01*
G01*
X101970000Y-3860000D01*
G75*
G02*
X101770000Y-3660000I0J200000D01*
G01*
G37*
G36*
G01*
X100970000Y-3660000D02*
X100970000Y-2160000D01*
G75*
G02*
X101170000Y-1960000I200000J0D01*
G01*
X101670000Y-1960000D01*
G75*
G02*
X101870000Y-2160000I0J-200000D01*
G01*
X101870000Y-3660000D01*
G75*
G02*
X101670000Y-3860000I-200000J0D01*
G01*
X101170000Y-3860000D01*
G75*
G02*
X100970000Y-3660000I0J200000D01*
G01*
G37*
G36*
G01*
X100170000Y-3660000D02*
X100170000Y-2160000D01*
G75*
G02*
X100370000Y-1960000I200000J0D01*
G01*
X100870000Y-1960000D01*
G75*
G02*
X101070000Y-2160000I0J-200000D01*
G01*
X101070000Y-3660000D01*
G75*
G02*
X100870000Y-3860000I-200000J0D01*
G01*
X100370000Y-3860000D01*
G75*
G02*
X100170000Y-3660000I0J200000D01*
G01*
G37*
G36*
G01*
X99370000Y-3660000D02*
X99370000Y-2160000D01*
G75*
G02*
X99570000Y-1960000I200000J0D01*
G01*
X100070000Y-1960000D01*
G75*
G02*
X100270000Y-2160000I0J-200000D01*
G01*
X100270000Y-3660000D01*
G75*
G02*
X100070000Y-3860000I-200000J0D01*
G01*
X99570000Y-3860000D01*
G75*
G02*
X99370000Y-3660000I0J200000D01*
G01*
G37*
G36*
G01*
X98570000Y-3660000D02*
X98570000Y-2160000D01*
G75*
G02*
X98770000Y-1960000I200000J0D01*
G01*
X99270000Y-1960000D01*
G75*
G02*
X99470000Y-2160000I0J-200000D01*
G01*
X99470000Y-3660000D01*
G75*
G02*
X99270000Y-3860000I-200000J0D01*
G01*
X98770000Y-3860000D01*
G75*
G02*
X98570000Y-3660000I0J200000D01*
G01*
G37*
G36*
G01*
X97770000Y-3660000D02*
X97770000Y-2160000D01*
G75*
G02*
X97970000Y-1960000I200000J0D01*
G01*
X98470000Y-1960000D01*
G75*
G02*
X98670000Y-2160000I0J-200000D01*
G01*
X98670000Y-3660000D01*
G75*
G02*
X98470000Y-3860000I-200000J0D01*
G01*
X97970000Y-3860000D01*
G75*
G02*
X97770000Y-3660000I0J200000D01*
G01*
G37*
G36*
G01*
X96970000Y-3660000D02*
X96970000Y-2160000D01*
G75*
G02*
X97170000Y-1960000I200000J0D01*
G01*
X97670000Y-1960000D01*
G75*
G02*
X97870000Y-2160000I0J-200000D01*
G01*
X97870000Y-3660000D01*
G75*
G02*
X97670000Y-3860000I-200000J0D01*
G01*
X97170000Y-3860000D01*
G75*
G02*
X96970000Y-3660000I0J200000D01*
G01*
G37*
G36*
G01*
X94570000Y-5060000D02*
X94570000Y-4560000D01*
G75*
G02*
X94770000Y-4360000I200000J0D01*
G01*
X96270000Y-4360000D01*
G75*
G02*
X96470000Y-4560000I0J-200000D01*
G01*
X96470000Y-5060000D01*
G75*
G02*
X96270000Y-5260000I-200000J0D01*
G01*
X94770000Y-5260000D01*
G75*
G02*
X94570000Y-5060000I0J200000D01*
G01*
G37*
G36*
G01*
X94570000Y-5860000D02*
X94570000Y-5360000D01*
G75*
G02*
X94770000Y-5160000I200000J0D01*
G01*
X96270000Y-5160000D01*
G75*
G02*
X96470000Y-5360000I0J-200000D01*
G01*
X96470000Y-5860000D01*
G75*
G02*
X96270000Y-6060000I-200000J0D01*
G01*
X94770000Y-6060000D01*
G75*
G02*
X94570000Y-5860000I0J200000D01*
G01*
G37*
G36*
G01*
X94570000Y-6660000D02*
X94570000Y-6160000D01*
G75*
G02*
X94770000Y-5960000I200000J0D01*
G01*
X96270000Y-5960000D01*
G75*
G02*
X96470000Y-6160000I0J-200000D01*
G01*
X96470000Y-6660000D01*
G75*
G02*
X96270000Y-6860000I-200000J0D01*
G01*
X94770000Y-6860000D01*
G75*
G02*
X94570000Y-6660000I0J200000D01*
G01*
G37*
G36*
G01*
X94570000Y-7460000D02*
X94570000Y-6960000D01*
G75*
G02*
X94770000Y-6760000I200000J0D01*
G01*
X96270000Y-6760000D01*
G75*
G02*
X96470000Y-6960000I0J-200000D01*
G01*
X96470000Y-7460000D01*
G75*
G02*
X96270000Y-7660000I-200000J0D01*
G01*
X94770000Y-7660000D01*
G75*
G02*
X94570000Y-7460000I0J200000D01*
G01*
G37*
G36*
G01*
X94570000Y-8260000D02*
X94570000Y-7760000D01*
G75*
G02*
X94770000Y-7560000I200000J0D01*
G01*
X96270000Y-7560000D01*
G75*
G02*
X96470000Y-7760000I0J-200000D01*
G01*
X96470000Y-8260000D01*
G75*
G02*
X96270000Y-8460000I-200000J0D01*
G01*
X94770000Y-8460000D01*
G75*
G02*
X94570000Y-8260000I0J200000D01*
G01*
G37*
G36*
G01*
X94570000Y-9060000D02*
X94570000Y-8560000D01*
G75*
G02*
X94770000Y-8360000I200000J0D01*
G01*
X96270000Y-8360000D01*
G75*
G02*
X96470000Y-8560000I0J-200000D01*
G01*
X96470000Y-9060000D01*
G75*
G02*
X96270000Y-9260000I-200000J0D01*
G01*
X94770000Y-9260000D01*
G75*
G02*
X94570000Y-9060000I0J200000D01*
G01*
G37*
G36*
G01*
X94570000Y-9860000D02*
X94570000Y-9360000D01*
G75*
G02*
X94770000Y-9160000I200000J0D01*
G01*
X96270000Y-9160000D01*
G75*
G02*
X96470000Y-9360000I0J-200000D01*
G01*
X96470000Y-9860000D01*
G75*
G02*
X96270000Y-10060000I-200000J0D01*
G01*
X94770000Y-10060000D01*
G75*
G02*
X94570000Y-9860000I0J200000D01*
G01*
G37*
G36*
G01*
X94570000Y-10660000D02*
X94570000Y-10160000D01*
G75*
G02*
X94770000Y-9960000I200000J0D01*
G01*
X96270000Y-9960000D01*
G75*
G02*
X96470000Y-10160000I0J-200000D01*
G01*
X96470000Y-10660000D01*
G75*
G02*
X96270000Y-10860000I-200000J0D01*
G01*
X94770000Y-10860000D01*
G75*
G02*
X94570000Y-10660000I0J200000D01*
G01*
G37*
G36*
G01*
X94570000Y-11460000D02*
X94570000Y-10960000D01*
G75*
G02*
X94770000Y-10760000I200000J0D01*
G01*
X96270000Y-10760000D01*
G75*
G02*
X96470000Y-10960000I0J-200000D01*
G01*
X96470000Y-11460000D01*
G75*
G02*
X96270000Y-11660000I-200000J0D01*
G01*
X94770000Y-11660000D01*
G75*
G02*
X94570000Y-11460000I0J200000D01*
G01*
G37*
G36*
G01*
X94570000Y-12260000D02*
X94570000Y-11760000D01*
G75*
G02*
X94770000Y-11560000I200000J0D01*
G01*
X96270000Y-11560000D01*
G75*
G02*
X96470000Y-11760000I0J-200000D01*
G01*
X96470000Y-12260000D01*
G75*
G02*
X96270000Y-12460000I-200000J0D01*
G01*
X94770000Y-12460000D01*
G75*
G02*
X94570000Y-12260000I0J200000D01*
G01*
G37*
G36*
G01*
X94570000Y-13060000D02*
X94570000Y-12560000D01*
G75*
G02*
X94770000Y-12360000I200000J0D01*
G01*
X96270000Y-12360000D01*
G75*
G02*
X96470000Y-12560000I0J-200000D01*
G01*
X96470000Y-13060000D01*
G75*
G02*
X96270000Y-13260000I-200000J0D01*
G01*
X94770000Y-13260000D01*
G75*
G02*
X94570000Y-13060000I0J200000D01*
G01*
G37*
G36*
G01*
X107754999Y13411000D02*
X108405001Y13411000D01*
G75*
G02*
X108456000Y13360001I0J-50999D01*
G01*
X108456000Y12299999D01*
G75*
G02*
X108405001Y12249000I-50999J0D01*
G01*
X107754999Y12249000D01*
G75*
G02*
X107704000Y12299999I0J50999D01*
G01*
X107704000Y13360001D01*
G75*
G02*
X107754999Y13411000I50999J0D01*
G01*
G37*
G36*
G01*
X106804999Y13411000D02*
X107455001Y13411000D01*
G75*
G02*
X107506000Y13360001I0J-50999D01*
G01*
X107506000Y12299999D01*
G75*
G02*
X107455001Y12249000I-50999J0D01*
G01*
X106804999Y12249000D01*
G75*
G02*
X106754000Y12299999I0J50999D01*
G01*
X106754000Y13360001D01*
G75*
G02*
X106804999Y13411000I50999J0D01*
G01*
G37*
G36*
G01*
X108704999Y13411000D02*
X109355001Y13411000D01*
G75*
G02*
X109406000Y13360001I0J-50999D01*
G01*
X109406000Y12299999D01*
G75*
G02*
X109355001Y12249000I-50999J0D01*
G01*
X108704999Y12249000D01*
G75*
G02*
X108654000Y12299999I0J50999D01*
G01*
X108654000Y13360001D01*
G75*
G02*
X108704999Y13411000I50999J0D01*
G01*
G37*
G36*
G01*
X108704999Y15611000D02*
X109355001Y15611000D01*
G75*
G02*
X109406000Y15560001I0J-50999D01*
G01*
X109406000Y14499999D01*
G75*
G02*
X109355001Y14449000I-50999J0D01*
G01*
X108704999Y14449000D01*
G75*
G02*
X108654000Y14499999I0J50999D01*
G01*
X108654000Y15560001D01*
G75*
G02*
X108704999Y15611000I50999J0D01*
G01*
G37*
G36*
G01*
X107754999Y15611000D02*
X108405001Y15611000D01*
G75*
G02*
X108456000Y15560001I0J-50999D01*
G01*
X108456000Y14499999D01*
G75*
G02*
X108405001Y14449000I-50999J0D01*
G01*
X107754999Y14449000D01*
G75*
G02*
X107704000Y14499999I0J50999D01*
G01*
X107704000Y15560001D01*
G75*
G02*
X107754999Y15611000I50999J0D01*
G01*
G37*
G36*
G01*
X106804999Y15611000D02*
X107455001Y15611000D01*
G75*
G02*
X107506000Y15560001I0J-50999D01*
G01*
X107506000Y14499999D01*
G75*
G02*
X107455001Y14449000I-50999J0D01*
G01*
X106804999Y14449000D01*
G75*
G02*
X106754000Y14499999I0J50999D01*
G01*
X106754000Y15560001D01*
G75*
G02*
X106804999Y15611000I50999J0D01*
G01*
G37*
G36*
G01*
X177532532Y-52199520D02*
X177014894Y-50267668D01*
G75*
G02*
X177050956Y-50205206I49262J13200D01*
G01*
X178982808Y-49687568D01*
G75*
G02*
X179045270Y-49723630I13200J-49262D01*
G01*
X179562908Y-51655482D01*
G75*
G02*
X179526846Y-51717944I-49262J-13200D01*
G01*
X177594994Y-52235582D01*
G75*
G02*
X177532532Y-52199520I-13200J49262D01*
G01*
G37*
D13*
X178935948Y-53376390D03*
X179582996Y-55791204D03*
G36*
G01*
X183395081Y-47419298D02*
X182877443Y-45487447D01*
G75*
G02*
X182913505Y-45424985I49262J13200D01*
G01*
X186004467Y-44596764D01*
G75*
G02*
X186066929Y-44632826I13200J-49262D01*
G01*
X186584567Y-46564677D01*
G75*
G02*
X186548505Y-46627139I-49262J-13200D01*
G01*
X183457543Y-47455360D01*
G75*
G02*
X183395081Y-47419298I-13200J49262D01*
G01*
G37*
G36*
G01*
X186293855Y-58237668D02*
X185776217Y-56305817D01*
G75*
G02*
X185812279Y-56243355I49262J13200D01*
G01*
X188903241Y-55415134D01*
G75*
G02*
X188965703Y-55451196I13200J-49262D01*
G01*
X189483341Y-57383047D01*
G75*
G02*
X189447279Y-57445509I-49262J-13200D01*
G01*
X186356317Y-58273730D01*
G75*
G02*
X186293855Y-58237668I-13200J49262D01*
G01*
G37*
X192294825Y-47208699D03*
X193588920Y-52038328D03*
G36*
G01*
X22922607Y-55097297D02*
X22404969Y-57029149D01*
G75*
G02*
X22342507Y-57065211I-49262J13200D01*
G01*
X20410655Y-56547573D01*
G75*
G02*
X20374593Y-56485111I13200J49262D01*
G01*
X20892231Y-54553259D01*
G75*
G02*
X20954693Y-54517197I49262J-13200D01*
G01*
X22886545Y-55034835D01*
G75*
G02*
X22922607Y-55097297I-13200J-49262D01*
G01*
G37*
X22295648Y-53376390D03*
X22942695Y-50961575D03*
G36*
G01*
X15455379Y-56305817D02*
X14937741Y-58237668D01*
G75*
G02*
X14875279Y-58273730I-49262J13200D01*
G01*
X11784317Y-57445509D01*
G75*
G02*
X11748255Y-57383047I13200J49262D01*
G01*
X12265893Y-55451196D01*
G75*
G02*
X12328355Y-55415134I49262J-13200D01*
G01*
X15419317Y-56243355D01*
G75*
G02*
X15455379Y-56305817I-13200J-49262D01*
G01*
G37*
G36*
G01*
X18354153Y-45487447D02*
X17836515Y-47419298D01*
G75*
G02*
X17774053Y-47455360I-49262J13200D01*
G01*
X14683091Y-46627139D01*
G75*
G02*
X14647029Y-46564677I13200J49262D01*
G01*
X15164667Y-44632826D01*
G75*
G02*
X15227129Y-44596764I49262J-13200D01*
G01*
X18318091Y-45424985D01*
G75*
G02*
X18354153Y-45487447I-13200J-49262D01*
G01*
G37*
X7642676Y-52038328D03*
X8936771Y-47208699D03*
G36*
G01*
X101616124Y14289000D02*
X100663876Y14289000D01*
G75*
G02*
X100389000Y14563876I0J274876D01*
G01*
X100389000Y15141124D01*
G75*
G02*
X100663876Y15416000I274876J0D01*
G01*
X101616124Y15416000D01*
G75*
G02*
X101891000Y15141124I0J-274876D01*
G01*
X101891000Y14563876D01*
G75*
G02*
X101616124Y14289000I-274876J0D01*
G01*
G37*
G36*
G01*
X101616124Y12464000D02*
X100663876Y12464000D01*
G75*
G02*
X100389000Y12738876I0J274876D01*
G01*
X100389000Y13316124D01*
G75*
G02*
X100663876Y13591000I274876J0D01*
G01*
X101616124Y13591000D01*
G75*
G02*
X101891000Y13316124I0J-274876D01*
G01*
X101891000Y12738876D01*
G75*
G02*
X101616124Y12464000I-274876J0D01*
G01*
G37*
G36*
G01*
X104526124Y14279000D02*
X103573876Y14279000D01*
G75*
G02*
X103299000Y14553876I0J274876D01*
G01*
X103299000Y15131124D01*
G75*
G02*
X103573876Y15406000I274876J0D01*
G01*
X104526124Y15406000D01*
G75*
G02*
X104801000Y15131124I0J-274876D01*
G01*
X104801000Y14553876D01*
G75*
G02*
X104526124Y14279000I-274876J0D01*
G01*
G37*
G36*
G01*
X104526124Y12454000D02*
X103573876Y12454000D01*
G75*
G02*
X103299000Y12728876I0J274876D01*
G01*
X103299000Y13306124D01*
G75*
G02*
X103573876Y13581000I274876J0D01*
G01*
X104526124Y13581000D01*
G75*
G02*
X104801000Y13306124I0J-274876D01*
G01*
X104801000Y12728876D01*
G75*
G02*
X104526124Y12454000I-274876J0D01*
G01*
G37*
G36*
G01*
X99036124Y14289000D02*
X98083876Y14289000D01*
G75*
G02*
X97809000Y14563876I0J274876D01*
G01*
X97809000Y15141124D01*
G75*
G02*
X98083876Y15416000I274876J0D01*
G01*
X99036124Y15416000D01*
G75*
G02*
X99311000Y15141124I0J-274876D01*
G01*
X99311000Y14563876D01*
G75*
G02*
X99036124Y14289000I-274876J0D01*
G01*
G37*
G36*
G01*
X99036124Y12464000D02*
X98083876Y12464000D01*
G75*
G02*
X97809000Y12738876I0J274876D01*
G01*
X97809000Y13316124D01*
G75*
G02*
X98083876Y13591000I274876J0D01*
G01*
X99036124Y13591000D01*
G75*
G02*
X99311000Y13316124I0J-274876D01*
G01*
X99311000Y12738876D01*
G75*
G02*
X99036124Y12464000I-274876J0D01*
G01*
G37*
G36*
G01*
X110156124Y9649000D02*
X109203876Y9649000D01*
G75*
G02*
X108929000Y9923876I0J274876D01*
G01*
X108929000Y10501124D01*
G75*
G02*
X109203876Y10776000I274876J0D01*
G01*
X110156124Y10776000D01*
G75*
G02*
X110431000Y10501124I0J-274876D01*
G01*
X110431000Y9923876D01*
G75*
G02*
X110156124Y9649000I-274876J0D01*
G01*
G37*
G36*
G01*
X110156124Y7824000D02*
X109203876Y7824000D01*
G75*
G02*
X108929000Y8098876I0J274876D01*
G01*
X108929000Y8676124D01*
G75*
G02*
X109203876Y8951000I274876J0D01*
G01*
X110156124Y8951000D01*
G75*
G02*
X110431000Y8676124I0J-274876D01*
G01*
X110431000Y8098876D01*
G75*
G02*
X110156124Y7824000I-274876J0D01*
G01*
G37*
G36*
G01*
X106916124Y9669000D02*
X105963876Y9669000D01*
G75*
G02*
X105689000Y9943876I0J274876D01*
G01*
X105689000Y10521124D01*
G75*
G02*
X105963876Y10796000I274876J0D01*
G01*
X106916124Y10796000D01*
G75*
G02*
X107191000Y10521124I0J-274876D01*
G01*
X107191000Y9943876D01*
G75*
G02*
X106916124Y9669000I-274876J0D01*
G01*
G37*
G36*
G01*
X106916124Y7844000D02*
X105963876Y7844000D01*
G75*
G02*
X105689000Y8118876I0J274876D01*
G01*
X105689000Y8696124D01*
G75*
G02*
X105963876Y8971000I274876J0D01*
G01*
X106916124Y8971000D01*
G75*
G02*
X107191000Y8696124I0J-274876D01*
G01*
X107191000Y8118876D01*
G75*
G02*
X106916124Y7844000I-274876J0D01*
G01*
G37*
G36*
G01*
X108669000Y20513876D02*
X108669000Y21466124D01*
G75*
G02*
X108943876Y21741000I274876J0D01*
G01*
X109521124Y21741000D01*
G75*
G02*
X109796000Y21466124I0J-274876D01*
G01*
X109796000Y20513876D01*
G75*
G02*
X109521124Y20239000I-274876J0D01*
G01*
X108943876Y20239000D01*
G75*
G02*
X108669000Y20513876I0J274876D01*
G01*
G37*
G36*
G01*
X106844000Y20513876D02*
X106844000Y21466124D01*
G75*
G02*
X107118876Y21741000I274876J0D01*
G01*
X107696124Y21741000D01*
G75*
G02*
X107971000Y21466124I0J-274876D01*
G01*
X107971000Y20513876D01*
G75*
G02*
X107696124Y20239000I-274876J0D01*
G01*
X107118876Y20239000D01*
G75*
G02*
X106844000Y20513876I0J274876D01*
G01*
G37*
G36*
G01*
X92013876Y1761000D02*
X92966124Y1761000D01*
G75*
G02*
X93241000Y1486124I0J-274876D01*
G01*
X93241000Y908876D01*
G75*
G02*
X92966124Y634000I-274876J0D01*
G01*
X92013876Y634000D01*
G75*
G02*
X91739000Y908876I0J274876D01*
G01*
X91739000Y1486124D01*
G75*
G02*
X92013876Y1761000I274876J0D01*
G01*
G37*
G36*
G01*
X92013876Y3586000D02*
X92966124Y3586000D01*
G75*
G02*
X93241000Y3311124I0J-274876D01*
G01*
X93241000Y2733876D01*
G75*
G02*
X92966124Y2459000I-274876J0D01*
G01*
X92013876Y2459000D01*
G75*
G02*
X91739000Y2733876I0J274876D01*
G01*
X91739000Y3311124D01*
G75*
G02*
X92013876Y3586000I274876J0D01*
G01*
G37*
G36*
G01*
X112236124Y-13631000D02*
X111283876Y-13631000D01*
G75*
G02*
X111009000Y-13356124I0J274876D01*
G01*
X111009000Y-12778876D01*
G75*
G02*
X111283876Y-12504000I274876J0D01*
G01*
X112236124Y-12504000D01*
G75*
G02*
X112511000Y-12778876I0J-274876D01*
G01*
X112511000Y-13356124D01*
G75*
G02*
X112236124Y-13631000I-274876J0D01*
G01*
G37*
G36*
G01*
X112236124Y-15456000D02*
X111283876Y-15456000D01*
G75*
G02*
X111009000Y-15181124I0J274876D01*
G01*
X111009000Y-14603876D01*
G75*
G02*
X111283876Y-14329000I274876J0D01*
G01*
X112236124Y-14329000D01*
G75*
G02*
X112511000Y-14603876I0J-274876D01*
G01*
X112511000Y-15181124D01*
G75*
G02*
X112236124Y-15456000I-274876J0D01*
G01*
G37*
D14*
X118340000Y21870000D03*
X118340000Y19330000D03*
X118340000Y16790000D03*
X118340000Y14250000D03*
G36*
G01*
X5796938Y-47655442D02*
X4637827Y-47344859D01*
G75*
G02*
X4601765Y-47282397I13200J49262D01*
G01*
X4834702Y-46413064D01*
G75*
G02*
X4897164Y-46377002I49262J-13200D01*
G01*
X6056275Y-46687585D01*
G75*
G02*
X6092337Y-46750047I-13200J-49262D01*
G01*
X5859400Y-47619380D01*
G75*
G02*
X5796938Y-47655442I-49262J13200D01*
G01*
G37*
G36*
G01*
X4942836Y-50842998D02*
X3783725Y-50532415D01*
G75*
G02*
X3747663Y-50469953I13200J49262D01*
G01*
X3980600Y-49600620D01*
G75*
G02*
X4043062Y-49564558I49262J-13200D01*
G01*
X5202173Y-49875141D01*
G75*
G02*
X5238235Y-49937603I-13200J-49262D01*
G01*
X5005298Y-50806936D01*
G75*
G02*
X4942836Y-50842998I-49262J13200D01*
G01*
G37*
G36*
G01*
X94881000Y15480500D02*
X94881000Y14479500D01*
G75*
G02*
X94605500Y14204000I-275500J0D01*
G01*
X94054500Y14204000D01*
G75*
G02*
X93779000Y14479500I0J275500D01*
G01*
X93779000Y15480500D01*
G75*
G02*
X94054500Y15756000I275500J0D01*
G01*
X94605500Y15756000D01*
G75*
G02*
X94881000Y15480500I0J-275500D01*
G01*
G37*
G36*
G01*
X96781000Y15480500D02*
X96781000Y14479500D01*
G75*
G02*
X96505500Y14204000I-275500J0D01*
G01*
X95954500Y14204000D01*
G75*
G02*
X95679000Y14479500I0J275500D01*
G01*
X95679000Y15480500D01*
G75*
G02*
X95954500Y15756000I275500J0D01*
G01*
X96505500Y15756000D01*
G75*
G02*
X96781000Y15480500I0J-275500D01*
G01*
G37*
G36*
G01*
X96535702Y2081000D02*
X97544298Y2081000D01*
G75*
G02*
X97816000Y1809298I0J-271702D01*
G01*
X97816000Y1075702D01*
G75*
G02*
X97544298Y804000I-271702J0D01*
G01*
X96535702Y804000D01*
G75*
G02*
X96264000Y1075702I0J271702D01*
G01*
X96264000Y1809298D01*
G75*
G02*
X96535702Y2081000I271702J0D01*
G01*
G37*
G36*
G01*
X96535702Y4156000D02*
X97544298Y4156000D01*
G75*
G02*
X97816000Y3884298I0J-271702D01*
G01*
X97816000Y3150702D01*
G75*
G02*
X97544298Y2879000I-271702J0D01*
G01*
X96535702Y2879000D01*
G75*
G02*
X96264000Y3150702I0J271702D01*
G01*
X96264000Y3884298D01*
G75*
G02*
X96535702Y4156000I271702J0D01*
G01*
G37*
G36*
G01*
X105484298Y2989000D02*
X104475702Y2989000D01*
G75*
G02*
X104204000Y3260702I0J271702D01*
G01*
X104204000Y3994298D01*
G75*
G02*
X104475702Y4266000I271702J0D01*
G01*
X105484298Y4266000D01*
G75*
G02*
X105756000Y3994298I0J-271702D01*
G01*
X105756000Y3260702D01*
G75*
G02*
X105484298Y2989000I-271702J0D01*
G01*
G37*
G36*
G01*
X105484298Y914000D02*
X104475702Y914000D01*
G75*
G02*
X104204000Y1185702I0J271702D01*
G01*
X104204000Y1919298D01*
G75*
G02*
X104475702Y2191000I271702J0D01*
G01*
X105484298Y2191000D01*
G75*
G02*
X105756000Y1919298I0J-271702D01*
G01*
X105756000Y1185702D01*
G75*
G02*
X105484298Y914000I-271702J0D01*
G01*
G37*
G36*
G01*
X93441000Y22170500D02*
X93441000Y21169500D01*
G75*
G02*
X93165500Y20894000I-275500J0D01*
G01*
X92614500Y20894000D01*
G75*
G02*
X92339000Y21169500I0J275500D01*
G01*
X92339000Y22170500D01*
G75*
G02*
X92614500Y22446000I275500J0D01*
G01*
X93165500Y22446000D01*
G75*
G02*
X93441000Y22170500I0J-275500D01*
G01*
G37*
G36*
G01*
X95341000Y22170500D02*
X95341000Y21169500D01*
G75*
G02*
X95065500Y20894000I-275500J0D01*
G01*
X94514500Y20894000D01*
G75*
G02*
X94239000Y21169500I0J275500D01*
G01*
X94239000Y22170500D01*
G75*
G02*
X94514500Y22446000I275500J0D01*
G01*
X95065500Y22446000D01*
G75*
G02*
X95341000Y22170500I0J-275500D01*
G01*
G37*
G36*
G01*
X96949000Y-18384298D02*
X96949000Y-17375702D01*
G75*
G02*
X97220702Y-17104000I271702J0D01*
G01*
X97954298Y-17104000D01*
G75*
G02*
X98226000Y-17375702I0J-271702D01*
G01*
X98226000Y-18384298D01*
G75*
G02*
X97954298Y-18656000I-271702J0D01*
G01*
X97220702Y-18656000D01*
G75*
G02*
X96949000Y-18384298I0J271702D01*
G01*
G37*
G36*
G01*
X94874000Y-18384298D02*
X94874000Y-17375702D01*
G75*
G02*
X95145702Y-17104000I271702J0D01*
G01*
X95879298Y-17104000D01*
G75*
G02*
X96151000Y-17375702I0J-271702D01*
G01*
X96151000Y-18384298D01*
G75*
G02*
X95879298Y-18656000I-271702J0D01*
G01*
X95145702Y-18656000D01*
G75*
G02*
X94874000Y-18384298I0J271702D01*
G01*
G37*
G36*
G01*
X111064298Y-2261000D02*
X110055702Y-2261000D01*
G75*
G02*
X109784000Y-1989298I0J271702D01*
G01*
X109784000Y-1255702D01*
G75*
G02*
X110055702Y-984000I271702J0D01*
G01*
X111064298Y-984000D01*
G75*
G02*
X111336000Y-1255702I0J-271702D01*
G01*
X111336000Y-1989298D01*
G75*
G02*
X111064298Y-2261000I-271702J0D01*
G01*
G37*
G36*
G01*
X111064298Y-4336000D02*
X110055702Y-4336000D01*
G75*
G02*
X109784000Y-4064298I0J271702D01*
G01*
X109784000Y-3330702D01*
G75*
G02*
X110055702Y-3059000I271702J0D01*
G01*
X111064298Y-3059000D01*
G75*
G02*
X111336000Y-3330702I0J-271702D01*
G01*
X111336000Y-4064298D01*
G75*
G02*
X111064298Y-4336000I-271702J0D01*
G01*
G37*
G36*
G01*
X106671000Y-17385702D02*
X106671000Y-18394298D01*
G75*
G02*
X106399298Y-18666000I-271702J0D01*
G01*
X105665702Y-18666000D01*
G75*
G02*
X105394000Y-18394298I0J271702D01*
G01*
X105394000Y-17385702D01*
G75*
G02*
X105665702Y-17114000I271702J0D01*
G01*
X106399298Y-17114000D01*
G75*
G02*
X106671000Y-17385702I0J-271702D01*
G01*
G37*
G36*
G01*
X108746000Y-17385702D02*
X108746000Y-18394298D01*
G75*
G02*
X108474298Y-18666000I-271702J0D01*
G01*
X107740702Y-18666000D01*
G75*
G02*
X107469000Y-18394298I0J271702D01*
G01*
X107469000Y-17385702D01*
G75*
G02*
X107740702Y-17114000I271702J0D01*
G01*
X108474298Y-17114000D01*
G75*
G02*
X108746000Y-17385702I0J-271702D01*
G01*
G37*
G36*
G01*
X92894298Y-15371000D02*
X91885702Y-15371000D01*
G75*
G02*
X91614000Y-15099298I0J271702D01*
G01*
X91614000Y-14365702D01*
G75*
G02*
X91885702Y-14094000I271702J0D01*
G01*
X92894298Y-14094000D01*
G75*
G02*
X93166000Y-14365702I0J-271702D01*
G01*
X93166000Y-15099298D01*
G75*
G02*
X92894298Y-15371000I-271702J0D01*
G01*
G37*
G36*
G01*
X92894298Y-17446000D02*
X91885702Y-17446000D01*
G75*
G02*
X91614000Y-17174298I0J271702D01*
G01*
X91614000Y-16440702D01*
G75*
G02*
X91885702Y-16169000I271702J0D01*
G01*
X92894298Y-16169000D01*
G75*
G02*
X93166000Y-16440702I0J-271702D01*
G01*
X93166000Y-17174298D01*
G75*
G02*
X92894298Y-17446000I-271702J0D01*
G01*
G37*
G36*
G01*
X90745702Y-10059000D02*
X91754298Y-10059000D01*
G75*
G02*
X92026000Y-10330702I0J-271702D01*
G01*
X92026000Y-11064298D01*
G75*
G02*
X91754298Y-11336000I-271702J0D01*
G01*
X90745702Y-11336000D01*
G75*
G02*
X90474000Y-11064298I0J271702D01*
G01*
X90474000Y-10330702D01*
G75*
G02*
X90745702Y-10059000I271702J0D01*
G01*
G37*
G36*
G01*
X90745702Y-7984000D02*
X91754298Y-7984000D01*
G75*
G02*
X92026000Y-8255702I0J-271702D01*
G01*
X92026000Y-8989298D01*
G75*
G02*
X91754298Y-9261000I-271702J0D01*
G01*
X90745702Y-9261000D01*
G75*
G02*
X90474000Y-8989298I0J271702D01*
G01*
X90474000Y-8255702D01*
G75*
G02*
X90745702Y-7984000I271702J0D01*
G01*
G37*
G36*
G01*
X133639000Y9740000D02*
X133639000Y10740000D01*
G75*
G02*
X133690000Y10791000I51000J0D01*
G01*
X135190000Y10791000D01*
G75*
G02*
X135241000Y10740000I0J-51000D01*
G01*
X135241000Y9740000D01*
G75*
G02*
X135190000Y9689000I-51000J0D01*
G01*
X133690000Y9689000D01*
G75*
G02*
X133639000Y9740000I0J51000D01*
G01*
G37*
G36*
G01*
X133639000Y12940000D02*
X133639000Y13940000D01*
G75*
G02*
X133690000Y13991000I51000J0D01*
G01*
X135190000Y13991000D01*
G75*
G02*
X135241000Y13940000I0J-51000D01*
G01*
X135241000Y12940000D01*
G75*
G02*
X135190000Y12889000I-51000J0D01*
G01*
X133690000Y12889000D01*
G75*
G02*
X133639000Y12940000I0J51000D01*
G01*
G37*
G36*
G01*
X138539000Y9740000D02*
X138539000Y10740000D01*
G75*
G02*
X138590000Y10791000I51000J0D01*
G01*
X140090000Y10791000D01*
G75*
G02*
X140141000Y10740000I0J-51000D01*
G01*
X140141000Y9740000D01*
G75*
G02*
X140090000Y9689000I-51000J0D01*
G01*
X138590000Y9689000D01*
G75*
G02*
X138539000Y9740000I0J51000D01*
G01*
G37*
G36*
G01*
X138539000Y12940000D02*
X138539000Y13940000D01*
G75*
G02*
X138590000Y13991000I51000J0D01*
G01*
X140090000Y13991000D01*
G75*
G02*
X140141000Y13940000I0J-51000D01*
G01*
X140141000Y12940000D01*
G75*
G02*
X140090000Y12889000I-51000J0D01*
G01*
X138590000Y12889000D01*
G75*
G02*
X138539000Y12940000I0J51000D01*
G01*
G37*
G36*
G01*
X183789000Y4570000D02*
X183789000Y5570000D01*
G75*
G02*
X183840000Y5621000I51000J0D01*
G01*
X185340000Y5621000D01*
G75*
G02*
X185391000Y5570000I0J-51000D01*
G01*
X185391000Y4570000D01*
G75*
G02*
X185340000Y4519000I-51000J0D01*
G01*
X183840000Y4519000D01*
G75*
G02*
X183789000Y4570000I0J51000D01*
G01*
G37*
G36*
G01*
X183789000Y7770000D02*
X183789000Y8770000D01*
G75*
G02*
X183840000Y8821000I51000J0D01*
G01*
X185340000Y8821000D01*
G75*
G02*
X185391000Y8770000I0J-51000D01*
G01*
X185391000Y7770000D01*
G75*
G02*
X185340000Y7719000I-51000J0D01*
G01*
X183840000Y7719000D01*
G75*
G02*
X183789000Y7770000I0J51000D01*
G01*
G37*
G36*
G01*
X188689000Y4570000D02*
X188689000Y5570000D01*
G75*
G02*
X188740000Y5621000I51000J0D01*
G01*
X190240000Y5621000D01*
G75*
G02*
X190291000Y5570000I0J-51000D01*
G01*
X190291000Y4570000D01*
G75*
G02*
X190240000Y4519000I-51000J0D01*
G01*
X188740000Y4519000D01*
G75*
G02*
X188689000Y4570000I0J51000D01*
G01*
G37*
G36*
G01*
X188689000Y7770000D02*
X188689000Y8770000D01*
G75*
G02*
X188740000Y8821000I51000J0D01*
G01*
X190240000Y8821000D01*
G75*
G02*
X190291000Y8770000I0J-51000D01*
G01*
X190291000Y7770000D01*
G75*
G02*
X190240000Y7719000I-51000J0D01*
G01*
X188740000Y7719000D01*
G75*
G02*
X188689000Y7770000I0J51000D01*
G01*
G37*
D15*
X121202121Y-79595525D03*
D16*
X122035243Y-85213702D03*
D15*
X117457390Y-85318382D03*
D17*
X117873951Y-88127470D03*
X126196535Y-82299934D03*
G36*
G01*
X114405442Y-88981347D02*
X112971501Y-86933467D01*
G75*
G02*
X112984026Y-86862438I41777J29252D01*
G01*
X115072863Y-85399818D01*
G75*
G02*
X115143892Y-85412343I29252J-41777D01*
G01*
X116577833Y-87460223D01*
G75*
G02*
X116565308Y-87531252I-41777J-29252D01*
G01*
X114476471Y-88993872D01*
G75*
G02*
X114405442Y-88981347I-29252J41777D01*
G01*
G37*
G36*
G01*
X123537736Y-79486078D02*
X122103795Y-77438198D01*
G75*
G02*
X122116320Y-77367169I41777J29252D01*
G01*
X124205157Y-75904549D01*
G75*
G02*
X124276186Y-75917074I29252J-41777D01*
G01*
X125710127Y-77964954D01*
G75*
G02*
X125697602Y-78035983I-41777J-29252D01*
G01*
X123608765Y-79498603D01*
G75*
G02*
X123537736Y-79486078I-29252J41777D01*
G01*
G37*
D15*
X162319043Y-60870943D03*
D16*
X161180392Y-66435247D03*
D15*
X156842814Y-64967896D03*
D17*
X156273489Y-67750048D03*
X166087295Y-65120446D03*
G36*
G01*
X152722113Y-67366130D02*
X152075066Y-64951315D01*
G75*
G02*
X152111128Y-64888853I49262J13200D01*
G01*
X154574239Y-64228864D01*
G75*
G02*
X154636701Y-64264926I13200J-49262D01*
G01*
X155283748Y-66679741D01*
G75*
G02*
X155247686Y-66742203I-49262J-13200D01*
G01*
X152784575Y-67402192D01*
G75*
G02*
X152722113Y-67366130I-13200J49262D01*
G01*
G37*
G36*
G01*
X164551236Y-61566925D02*
X163904189Y-59152110D01*
G75*
G02*
X163940251Y-59089648I49262J13200D01*
G01*
X166403362Y-58429659D01*
G75*
G02*
X166465824Y-58465721I13200J-49262D01*
G01*
X167112871Y-60880536D01*
G75*
G02*
X167076809Y-60942998I-49262J-13200D01*
G01*
X164613698Y-61602987D01*
G75*
G02*
X164551236Y-61566925I-13200J49262D01*
G01*
G37*
D15*
X140887852Y-68741209D03*
D16*
X140732731Y-74418703D03*
D15*
X136206248Y-73726857D03*
D17*
X136128687Y-76565604D03*
X145336775Y-72271802D03*
G36*
G01*
X132564598Y-76804209D02*
X131508053Y-74538440D01*
G75*
G02*
X131532721Y-74470664I46222J21554D01*
G01*
X133843806Y-73392987D01*
G75*
G02*
X133911582Y-73417655I21554J-46222D01*
G01*
X134968127Y-75683424D01*
G75*
G02*
X134943459Y-75751200I-46222J-21554D01*
G01*
X132632374Y-76828877D01*
G75*
G02*
X132564598Y-76804209I-21554J46222D01*
G01*
G37*
G36*
G01*
X143206988Y-69039001D02*
X142150443Y-66773232D01*
G75*
G02*
X142175111Y-66705456I46222J21554D01*
G01*
X144486196Y-65627779D01*
G75*
G02*
X144553972Y-65652447I21554J-46222D01*
G01*
X145610517Y-67918216D01*
G75*
G02*
X145585849Y-67985992I-46222J-21554D01*
G01*
X143274764Y-69063669D01*
G75*
G02*
X143206988Y-69039001I-21554J46222D01*
G01*
G37*
D15*
X84190767Y-82509294D03*
D16*
X79196353Y-85213702D03*
D15*
X77532268Y-80947730D03*
D17*
X75035061Y-82299934D03*
X83357645Y-88127470D03*
G36*
G01*
X73046379Y-79332645D02*
X74480320Y-77284765D01*
G75*
G02*
X74551349Y-77272240I41777J-29252D01*
G01*
X76640186Y-78734860D01*
G75*
G02*
X76652711Y-78805889I-29252J-41777D01*
G01*
X75218770Y-80853769D01*
G75*
G02*
X75147741Y-80866294I-41777J29252D01*
G01*
X73058904Y-79403674D01*
G75*
G02*
X73046379Y-79332645I29252J41777D01*
G01*
G37*
G36*
G01*
X85092442Y-84666621D02*
X86526383Y-82618741D01*
G75*
G02*
X86597412Y-82606216I41777J-29252D01*
G01*
X88686249Y-84068836D01*
G75*
G02*
X88698774Y-84139865I-29252J-41777D01*
G01*
X87264833Y-86187745D01*
G75*
G02*
X87193804Y-86200270I-41777J29252D01*
G01*
X85104967Y-84737650D01*
G75*
G02*
X85092442Y-84666621I29252J41777D01*
G01*
G37*
D15*
X64947788Y-70888110D03*
D16*
X60498865Y-74418703D03*
D15*
X58119283Y-70506506D03*
D17*
X55894821Y-72271802D03*
X65102909Y-76565604D03*
G36*
G01*
X53421088Y-69694923D02*
X54477633Y-67429154D01*
G75*
G02*
X54545409Y-67404486I46222J-21554D01*
G01*
X56856494Y-68482163D01*
G75*
G02*
X56881162Y-68549939I-21554J-46222D01*
G01*
X55824617Y-70815708D01*
G75*
G02*
X55756841Y-70840376I-46222J21554D01*
G01*
X53445756Y-69762699D01*
G75*
G02*
X53421088Y-69694923I21554J46222D01*
G01*
G37*
G36*
G01*
X66210379Y-72856087D02*
X67266924Y-70590318D01*
G75*
G02*
X67334700Y-70565650I46222J-21554D01*
G01*
X69645785Y-71643327D01*
G75*
G02*
X69670453Y-71711103I-21554J-46222D01*
G01*
X68613908Y-73976872D01*
G75*
G02*
X68546132Y-74001540I-46222J21554D01*
G01*
X66235047Y-72923863D01*
G75*
G02*
X66210379Y-72856087I21554J46222D01*
G01*
G37*
D15*
X43819456Y-62185744D03*
D16*
X40051204Y-66435247D03*
D15*
X37028427Y-62995695D03*
D17*
X35144301Y-65120446D03*
X44958107Y-67750048D03*
G36*
G01*
X32260679Y-63012275D02*
X32907726Y-60597460D01*
G75*
G02*
X32970188Y-60561398I49262J-13200D01*
G01*
X35433299Y-61221387D01*
G75*
G02*
X35469361Y-61283849I-13200J-49262D01*
G01*
X34822314Y-63698664D01*
G75*
G02*
X34759852Y-63734726I-49262J13200D01*
G01*
X32296741Y-63074737D01*
G75*
G02*
X32260679Y-63012275I13200J49262D01*
G01*
G37*
G36*
G01*
X45404602Y-63904578D02*
X46051649Y-61489763D01*
G75*
G02*
X46114111Y-61453701I49262J-13200D01*
G01*
X48577222Y-62113690D01*
G75*
G02*
X48613284Y-62176152I-13200J-49262D01*
G01*
X47966237Y-64590967D01*
G75*
G02*
X47903775Y-64627029I-49262J13200D01*
G01*
X45440664Y-63967040D01*
G75*
G02*
X45404602Y-63904578I13200J49262D01*
G01*
G37*
D15*
X211933797Y-25225098D03*
D16*
X210795146Y-30789402D03*
D15*
X206457568Y-29322051D03*
D17*
X205888243Y-32104203D03*
X215702049Y-29474601D03*
G36*
G01*
X202336867Y-31720285D02*
X201689820Y-29305470D01*
G75*
G02*
X201725882Y-29243008I49262J13200D01*
G01*
X204188993Y-28583019D01*
G75*
G02*
X204251455Y-28619081I13200J-49262D01*
G01*
X204898502Y-31033896D01*
G75*
G02*
X204862440Y-31096358I-49262J-13200D01*
G01*
X202399329Y-31756347D01*
G75*
G02*
X202336867Y-31720285I-13200J49262D01*
G01*
G37*
G36*
G01*
X214165990Y-25921080D02*
X213518943Y-23506265D01*
G75*
G02*
X213555005Y-23443803I49262J13200D01*
G01*
X216018116Y-22783814D01*
G75*
G02*
X216080578Y-22819876I13200J-49262D01*
G01*
X216727625Y-25234691D01*
G75*
G02*
X216691563Y-25297153I-49262J-13200D01*
G01*
X214228452Y-25957142D01*
G75*
G02*
X214165990Y-25921080I-13200J49262D01*
G01*
G37*
D15*
X190903311Y-20341795D03*
D16*
X189764660Y-25906099D03*
D15*
X185427082Y-24438748D03*
D17*
X184857757Y-27220900D03*
X194671563Y-24591298D03*
G36*
G01*
X181306381Y-26836982D02*
X180659334Y-24422167D01*
G75*
G02*
X180695396Y-24359705I49262J13200D01*
G01*
X183158507Y-23699716D01*
G75*
G02*
X183220969Y-23735778I13200J-49262D01*
G01*
X183868016Y-26150593D01*
G75*
G02*
X183831954Y-26213055I-49262J-13200D01*
G01*
X181368843Y-26873044D01*
G75*
G02*
X181306381Y-26836982I-13200J49262D01*
G01*
G37*
G36*
G01*
X193135504Y-21037777D02*
X192488457Y-18622962D01*
G75*
G02*
X192524519Y-18560500I49262J13200D01*
G01*
X194987630Y-17900511D01*
G75*
G02*
X195050092Y-17936573I13200J-49262D01*
G01*
X195697139Y-20351388D01*
G75*
G02*
X195661077Y-20413850I-49262J-13200D01*
G01*
X193197966Y-21073839D01*
G75*
G02*
X193135504Y-21037777I-13200J49262D01*
G01*
G37*
D15*
X171187624Y-20365394D03*
D16*
X170048973Y-25929698D03*
D15*
X165711395Y-24462347D03*
D17*
X165142070Y-27244499D03*
X174955876Y-24614897D03*
G36*
G01*
X161590694Y-26860581D02*
X160943647Y-24445766D01*
G75*
G02*
X160979709Y-24383304I49262J13200D01*
G01*
X163442820Y-23723315D01*
G75*
G02*
X163505282Y-23759377I13200J-49262D01*
G01*
X164152329Y-26174192D01*
G75*
G02*
X164116267Y-26236654I-49262J-13200D01*
G01*
X161653156Y-26896643D01*
G75*
G02*
X161590694Y-26860581I-13200J49262D01*
G01*
G37*
G36*
G01*
X173419817Y-21061376D02*
X172772770Y-18646561D01*
G75*
G02*
X172808832Y-18584099I49262J13200D01*
G01*
X175271943Y-17924110D01*
G75*
G02*
X175334405Y-17960172I13200J-49262D01*
G01*
X175981452Y-20374987D01*
G75*
G02*
X175945390Y-20437449I-49262J-13200D01*
G01*
X173482279Y-21097438D01*
G75*
G02*
X173419817Y-21061376I-13200J49262D01*
G01*
G37*
D15*
X154101539Y-30202799D03*
D16*
X152962888Y-35767103D03*
D15*
X148625310Y-34299752D03*
D17*
X148055985Y-37081904D03*
X157869791Y-34452302D03*
G36*
G01*
X144504609Y-36697986D02*
X143857562Y-34283171D01*
G75*
G02*
X143893624Y-34220709I49262J13200D01*
G01*
X146356735Y-33560720D01*
G75*
G02*
X146419197Y-33596782I13200J-49262D01*
G01*
X147066244Y-36011597D01*
G75*
G02*
X147030182Y-36074059I-49262J-13200D01*
G01*
X144567071Y-36734048D01*
G75*
G02*
X144504609Y-36697986I-13200J49262D01*
G01*
G37*
G36*
G01*
X156333732Y-30898781D02*
X155686685Y-28483966D01*
G75*
G02*
X155722747Y-28421504I49262J13200D01*
G01*
X158185858Y-27761515D01*
G75*
G02*
X158248320Y-27797577I13200J-49262D01*
G01*
X158895367Y-30212392D01*
G75*
G02*
X158859305Y-30274854I-49262J-13200D01*
G01*
X156396194Y-30934843D01*
G75*
G02*
X156333732Y-30898781I-13200J49262D01*
G01*
G37*
D15*
X136358053Y-37586753D03*
D16*
X135219402Y-43151057D03*
D15*
X130881824Y-41683706D03*
D17*
X130312499Y-44465858D03*
X140126305Y-41836256D03*
G36*
G01*
X126761123Y-44081940D02*
X126114076Y-41667125D01*
G75*
G02*
X126150138Y-41604663I49262J13200D01*
G01*
X128613249Y-40944674D01*
G75*
G02*
X128675711Y-40980736I13200J-49262D01*
G01*
X129322758Y-43395551D01*
G75*
G02*
X129286696Y-43458013I-49262J-13200D01*
G01*
X126823585Y-44118002D01*
G75*
G02*
X126761123Y-44081940I-13200J49262D01*
G01*
G37*
G36*
G01*
X138590246Y-38282735D02*
X137943199Y-35867920D01*
G75*
G02*
X137979261Y-35805458I49262J13200D01*
G01*
X140442372Y-35145469D01*
G75*
G02*
X140504834Y-35181531I13200J-49262D01*
G01*
X141151881Y-37596346D01*
G75*
G02*
X141115819Y-37658808I-49262J-13200D01*
G01*
X138652708Y-38318797D01*
G75*
G02*
X138590246Y-38282735I-13200J49262D01*
G01*
G37*
D15*
X207003295Y-6824212D03*
D16*
X205864644Y-12388516D03*
D15*
X201527066Y-10921165D03*
D17*
X200957741Y-13703317D03*
X210771547Y-11073715D03*
G36*
G01*
X197406365Y-13319399D02*
X196759318Y-10904584D01*
G75*
G02*
X196795380Y-10842122I49262J13200D01*
G01*
X199258491Y-10182133D01*
G75*
G02*
X199320953Y-10218195I13200J-49262D01*
G01*
X199968000Y-12633010D01*
G75*
G02*
X199931938Y-12695472I-49262J-13200D01*
G01*
X197468827Y-13355461D01*
G75*
G02*
X197406365Y-13319399I-13200J49262D01*
G01*
G37*
G36*
G01*
X209235488Y-7520194D02*
X208588441Y-5105379D01*
G75*
G02*
X208624503Y-5042917I49262J13200D01*
G01*
X211087614Y-4382928D01*
G75*
G02*
X211150076Y-4418990I13200J-49262D01*
G01*
X211797123Y-6833805D01*
G75*
G02*
X211761061Y-6896267I-49262J-13200D01*
G01*
X209297950Y-7556256D01*
G75*
G02*
X209235488Y-7520194I-13200J49262D01*
G01*
G37*
D15*
X185972809Y-1940909D03*
D16*
X184834158Y-7505213D03*
D15*
X180496580Y-6037862D03*
D17*
X179927255Y-8820014D03*
X189741061Y-6190412D03*
G36*
G01*
X176375879Y-8436096D02*
X175728832Y-6021281D01*
G75*
G02*
X175764894Y-5958819I49262J13200D01*
G01*
X178228005Y-5298830D01*
G75*
G02*
X178290467Y-5334892I13200J-49262D01*
G01*
X178937514Y-7749707D01*
G75*
G02*
X178901452Y-7812169I-49262J-13200D01*
G01*
X176438341Y-8472158D01*
G75*
G02*
X176375879Y-8436096I-13200J49262D01*
G01*
G37*
G36*
G01*
X188205002Y-2636891D02*
X187557955Y-222076D01*
G75*
G02*
X187594017Y-159614I49262J13200D01*
G01*
X190057128Y500375D01*
G75*
G02*
X190119590Y464313I13200J-49262D01*
G01*
X190766637Y-1950502D01*
G75*
G02*
X190730575Y-2012964I-49262J-13200D01*
G01*
X188267464Y-2672953D01*
G75*
G02*
X188205002Y-2636891I-13200J49262D01*
G01*
G37*
D15*
X166257122Y-1964508D03*
D16*
X165118471Y-7528812D03*
D15*
X160780893Y-6061461D03*
D17*
X160211568Y-8843613D03*
X170025374Y-6214011D03*
G36*
G01*
X156660192Y-8459695D02*
X156013145Y-6044880D01*
G75*
G02*
X156049207Y-5982418I49262J13200D01*
G01*
X158512318Y-5322429D01*
G75*
G02*
X158574780Y-5358491I13200J-49262D01*
G01*
X159221827Y-7773306D01*
G75*
G02*
X159185765Y-7835768I-49262J-13200D01*
G01*
X156722654Y-8495757D01*
G75*
G02*
X156660192Y-8459695I-13200J49262D01*
G01*
G37*
G36*
G01*
X168489315Y-2660490D02*
X167842268Y-245675D01*
G75*
G02*
X167878330Y-183213I49262J13200D01*
G01*
X170341441Y476776D01*
G75*
G02*
X170403903Y440714I13200J-49262D01*
G01*
X171050950Y-1974101D01*
G75*
G02*
X171014888Y-2036563I-49262J-13200D01*
G01*
X168551777Y-2696552D01*
G75*
G02*
X168489315Y-2660490I-13200J49262D01*
G01*
G37*
D15*
X149171037Y-11801913D03*
D16*
X148032386Y-17366217D03*
D15*
X143694808Y-15898866D03*
D17*
X143125483Y-18681018D03*
X152939289Y-16051416D03*
G36*
G01*
X139574107Y-18297100D02*
X138927060Y-15882285D01*
G75*
G02*
X138963122Y-15819823I49262J13200D01*
G01*
X141426233Y-15159834D01*
G75*
G02*
X141488695Y-15195896I13200J-49262D01*
G01*
X142135742Y-17610711D01*
G75*
G02*
X142099680Y-17673173I-49262J-13200D01*
G01*
X139636569Y-18333162D01*
G75*
G02*
X139574107Y-18297100I-13200J49262D01*
G01*
G37*
G36*
G01*
X151403230Y-12497895D02*
X150756183Y-10083080D01*
G75*
G02*
X150792245Y-10020618I49262J13200D01*
G01*
X153255356Y-9360629D01*
G75*
G02*
X153317818Y-9396691I13200J-49262D01*
G01*
X153964865Y-11811506D01*
G75*
G02*
X153928803Y-11873968I-49262J-13200D01*
G01*
X151465692Y-12533957D01*
G75*
G02*
X151403230Y-12497895I-13200J49262D01*
G01*
G37*
D15*
X131427551Y-19185867D03*
D16*
X130288900Y-24750171D03*
D15*
X125951322Y-23282820D03*
D17*
X125381997Y-26064972D03*
X135195803Y-23435370D03*
G36*
G01*
X121830621Y-25681054D02*
X121183574Y-23266239D01*
G75*
G02*
X121219636Y-23203777I49262J13200D01*
G01*
X123682747Y-22543788D01*
G75*
G02*
X123745209Y-22579850I13200J-49262D01*
G01*
X124392256Y-24994665D01*
G75*
G02*
X124356194Y-25057127I-49262J-13200D01*
G01*
X121893083Y-25717116D01*
G75*
G02*
X121830621Y-25681054I-13200J49262D01*
G01*
G37*
G36*
G01*
X133659744Y-19881849D02*
X133012697Y-17467034D01*
G75*
G02*
X133048759Y-17404572I49262J13200D01*
G01*
X135511870Y-16744583D01*
G75*
G02*
X135574332Y-16780645I13200J-49262D01*
G01*
X136221379Y-19195460D01*
G75*
G02*
X136185317Y-19257922I-49262J-13200D01*
G01*
X133722206Y-19917911D01*
G75*
G02*
X133659744Y-19881849I-13200J49262D01*
G01*
G37*
D15*
X202072793Y11576674D03*
D16*
X200934142Y6012370D03*
D15*
X196596564Y7479721D03*
D17*
X196027239Y4697569D03*
X205841045Y7327171D03*
G36*
G01*
X192475863Y5081487D02*
X191828816Y7496302D01*
G75*
G02*
X191864878Y7558764I49262J13200D01*
G01*
X194327989Y8218753D01*
G75*
G02*
X194390451Y8182691I13200J-49262D01*
G01*
X195037498Y5767876D01*
G75*
G02*
X195001436Y5705414I-49262J-13200D01*
G01*
X192538325Y5045425D01*
G75*
G02*
X192475863Y5081487I-13200J49262D01*
G01*
G37*
G36*
G01*
X204304986Y10880692D02*
X203657939Y13295507D01*
G75*
G02*
X203694001Y13357969I49262J13200D01*
G01*
X206157112Y14017958D01*
G75*
G02*
X206219574Y13981896I13200J-49262D01*
G01*
X206866621Y11567081D01*
G75*
G02*
X206830559Y11504619I-49262J-13200D01*
G01*
X204367448Y10844630D01*
G75*
G02*
X204304986Y10880692I-13200J49262D01*
G01*
G37*
D15*
X181042307Y16459977D03*
D16*
X179903656Y10895673D03*
D15*
X175566078Y12363024D03*
D17*
X174996753Y9580872D03*
X184810559Y12210474D03*
G36*
G01*
X171445377Y9964790D02*
X170798330Y12379605D01*
G75*
G02*
X170834392Y12442067I49262J13200D01*
G01*
X173297503Y13102056D01*
G75*
G02*
X173359965Y13065994I13200J-49262D01*
G01*
X174007012Y10651179D01*
G75*
G02*
X173970950Y10588717I-49262J-13200D01*
G01*
X171507839Y9928728D01*
G75*
G02*
X171445377Y9964790I-13200J49262D01*
G01*
G37*
G36*
G01*
X183274500Y15763995D02*
X182627453Y18178810D01*
G75*
G02*
X182663515Y18241272I49262J13200D01*
G01*
X185126626Y18901261D01*
G75*
G02*
X185189088Y18865199I13200J-49262D01*
G01*
X185836135Y16450384D01*
G75*
G02*
X185800073Y16387922I-49262J-13200D01*
G01*
X183336962Y15727933D01*
G75*
G02*
X183274500Y15763995I-13200J49262D01*
G01*
G37*
D15*
X161326620Y16436378D03*
D16*
X160187969Y10872074D03*
D15*
X155850391Y12339425D03*
D17*
X155281066Y9557273D03*
X165094872Y12186875D03*
G36*
G01*
X151729690Y9941191D02*
X151082643Y12356006D01*
G75*
G02*
X151118705Y12418468I49262J13200D01*
G01*
X153581816Y13078457D01*
G75*
G02*
X153644278Y13042395I13200J-49262D01*
G01*
X154291325Y10627580D01*
G75*
G02*
X154255263Y10565118I-49262J-13200D01*
G01*
X151792152Y9905129D01*
G75*
G02*
X151729690Y9941191I-13200J49262D01*
G01*
G37*
G36*
G01*
X163558813Y15740396D02*
X162911766Y18155211D01*
G75*
G02*
X162947828Y18217673I49262J13200D01*
G01*
X165410939Y18877662D01*
G75*
G02*
X165473401Y18841600I13200J-49262D01*
G01*
X166120448Y16426785D01*
G75*
G02*
X166084386Y16364323I-49262J-13200D01*
G01*
X163621275Y15704334D01*
G75*
G02*
X163558813Y15740396I-13200J49262D01*
G01*
G37*
D15*
X144240535Y6598973D03*
D16*
X143101884Y1034669D03*
D15*
X138764306Y2502020D03*
D17*
X138194981Y-280132D03*
X148008787Y2349470D03*
G36*
G01*
X134643605Y103786D02*
X133996558Y2518601D01*
G75*
G02*
X134032620Y2581063I49262J13200D01*
G01*
X136495731Y3241052D01*
G75*
G02*
X136558193Y3204990I13200J-49262D01*
G01*
X137205240Y790175D01*
G75*
G02*
X137169178Y727713I-49262J-13200D01*
G01*
X134706067Y67724D01*
G75*
G02*
X134643605Y103786I-13200J49262D01*
G01*
G37*
G36*
G01*
X146472728Y5902991D02*
X145825681Y8317806D01*
G75*
G02*
X145861743Y8380268I49262J13200D01*
G01*
X148324854Y9040257D01*
G75*
G02*
X148387316Y9004195I13200J-49262D01*
G01*
X149034363Y6589380D01*
G75*
G02*
X148998301Y6526918I-49262J-13200D01*
G01*
X146535190Y5866929D01*
G75*
G02*
X146472728Y5902991I-13200J49262D01*
G01*
G37*
D15*
X126497049Y-784981D03*
D16*
X125358398Y-6349285D03*
D15*
X121020820Y-4881934D03*
D17*
X120451495Y-7664086D03*
X130265301Y-5034484D03*
G36*
G01*
X116900119Y-7280168D02*
X116253072Y-4865353D01*
G75*
G02*
X116289134Y-4802891I49262J13200D01*
G01*
X118752245Y-4142902D01*
G75*
G02*
X118814707Y-4178964I13200J-49262D01*
G01*
X119461754Y-6593779D01*
G75*
G02*
X119425692Y-6656241I-49262J-13200D01*
G01*
X116962581Y-7316230D01*
G75*
G02*
X116900119Y-7280168I-13200J49262D01*
G01*
G37*
G36*
G01*
X128729242Y-1480963D02*
X128082195Y933852D01*
G75*
G02*
X128118257Y996314I49262J13200D01*
G01*
X130581368Y1656303D01*
G75*
G02*
X130643830Y1620241I13200J-49262D01*
G01*
X131290877Y-794574D01*
G75*
G02*
X131254815Y-857036I-49262J-13200D01*
G01*
X128791704Y-1517025D01*
G75*
G02*
X128729242Y-1480963I-13200J49262D01*
G01*
G37*
D15*
X69780446Y-38901554D03*
D16*
X66012194Y-43151057D03*
D15*
X62989417Y-39711505D03*
D17*
X61105291Y-41836256D03*
X70919097Y-44465858D03*
G36*
G01*
X58221669Y-39728085D02*
X58868716Y-37313270D01*
G75*
G02*
X58931178Y-37277208I49262J-13200D01*
G01*
X61394289Y-37937197D01*
G75*
G02*
X61430351Y-37999659I-13200J-49262D01*
G01*
X60783304Y-40414474D01*
G75*
G02*
X60720842Y-40450536I-49262J13200D01*
G01*
X58257731Y-39790547D01*
G75*
G02*
X58221669Y-39728085I13200J49262D01*
G01*
G37*
G36*
G01*
X71365592Y-40620388D02*
X72012639Y-38205573D01*
G75*
G02*
X72075101Y-38169511I49262J-13200D01*
G01*
X74538212Y-38829500D01*
G75*
G02*
X74574274Y-38891962I-13200J-49262D01*
G01*
X73927227Y-41306777D01*
G75*
G02*
X73864765Y-41342839I-49262J13200D01*
G01*
X71401654Y-40682850D01*
G75*
G02*
X71365592Y-40620388I13200J49262D01*
G01*
G37*
D15*
X52036960Y-31517600D03*
D16*
X48268708Y-35767103D03*
D15*
X45245931Y-32327551D03*
D17*
X43361805Y-34452302D03*
X53175611Y-37081904D03*
G36*
G01*
X40478183Y-32344131D02*
X41125230Y-29929316D01*
G75*
G02*
X41187692Y-29893254I49262J-13200D01*
G01*
X43650803Y-30553243D01*
G75*
G02*
X43686865Y-30615705I-13200J-49262D01*
G01*
X43039818Y-33030520D01*
G75*
G02*
X42977356Y-33066582I-49262J13200D01*
G01*
X40514245Y-32406593D01*
G75*
G02*
X40478183Y-32344131I13200J49262D01*
G01*
G37*
G36*
G01*
X53622106Y-33236434D02*
X54269153Y-30821619D01*
G75*
G02*
X54331615Y-30785557I49262J-13200D01*
G01*
X56794726Y-31445546D01*
G75*
G02*
X56830788Y-31508008I-13200J-49262D01*
G01*
X56183741Y-33922823D01*
G75*
G02*
X56121279Y-33958885I-49262J13200D01*
G01*
X53658168Y-33298896D01*
G75*
G02*
X53622106Y-33236434I13200J49262D01*
G01*
G37*
D15*
X34950875Y-21680195D03*
D16*
X31182623Y-25929698D03*
D15*
X28159846Y-22490146D03*
D17*
X26275720Y-24614897D03*
X36089526Y-27244499D03*
G36*
G01*
X23392098Y-22506726D02*
X24039145Y-20091911D01*
G75*
G02*
X24101607Y-20055849I49262J-13200D01*
G01*
X26564718Y-20715838D01*
G75*
G02*
X26600780Y-20778300I-13200J-49262D01*
G01*
X25953733Y-23193115D01*
G75*
G02*
X25891271Y-23229177I-49262J13200D01*
G01*
X23428160Y-22569188D01*
G75*
G02*
X23392098Y-22506726I13200J49262D01*
G01*
G37*
G36*
G01*
X36536021Y-23399029D02*
X37183068Y-20984214D01*
G75*
G02*
X37245530Y-20948152I49262J-13200D01*
G01*
X39708641Y-21608141D01*
G75*
G02*
X39744703Y-21670603I-13200J-49262D01*
G01*
X39097656Y-24085418D01*
G75*
G02*
X39035194Y-24121480I-49262J13200D01*
G01*
X36572083Y-23461491D01*
G75*
G02*
X36536021Y-23399029I13200J49262D01*
G01*
G37*
D15*
X15235188Y-21656596D03*
D16*
X11466936Y-25906099D03*
D15*
X8444159Y-22466547D03*
D17*
X6560033Y-24591298D03*
X16373839Y-27220900D03*
G36*
G01*
X3676411Y-22483127D02*
X4323458Y-20068312D01*
G75*
G02*
X4385920Y-20032250I49262J-13200D01*
G01*
X6849031Y-20692239D01*
G75*
G02*
X6885093Y-20754701I-13200J-49262D01*
G01*
X6238046Y-23169516D01*
G75*
G02*
X6175584Y-23205578I-49262J13200D01*
G01*
X3712473Y-22545589D01*
G75*
G02*
X3676411Y-22483127I13200J49262D01*
G01*
G37*
G36*
G01*
X16820334Y-23375430D02*
X17467381Y-20960615D01*
G75*
G02*
X17529843Y-20924553I49262J-13200D01*
G01*
X19992954Y-21584542D01*
G75*
G02*
X20029016Y-21647004I-13200J-49262D01*
G01*
X19381969Y-24061819D01*
G75*
G02*
X19319507Y-24097881I-49262J13200D01*
G01*
X16856396Y-23437892D01*
G75*
G02*
X16820334Y-23375430I13200J49262D01*
G01*
G37*
D15*
X-5795298Y-26539900D03*
D16*
X-9563550Y-30789403D03*
D15*
X-12586327Y-27349851D03*
D17*
X-14470453Y-29474602D03*
X-4656647Y-32104204D03*
G36*
G01*
X-17354075Y-27366431D02*
X-16707028Y-24951616D01*
G75*
G02*
X-16644566Y-24915554I49262J-13200D01*
G01*
X-14181455Y-25575543D01*
G75*
G02*
X-14145393Y-25638005I-13200J-49262D01*
G01*
X-14792440Y-28052820D01*
G75*
G02*
X-14854902Y-28088882I-49262J13200D01*
G01*
X-17318013Y-27428893D01*
G75*
G02*
X-17354075Y-27366431I13200J49262D01*
G01*
G37*
G36*
G01*
X-4210152Y-28258734D02*
X-3563105Y-25843919D01*
G75*
G02*
X-3500643Y-25807857I49262J-13200D01*
G01*
X-1037532Y-26467846D01*
G75*
G02*
X-1001470Y-26530308I-13200J-49262D01*
G01*
X-1648517Y-28945123D01*
G75*
G02*
X-1710979Y-28981185I-49262J13200D01*
G01*
X-4174090Y-28321196D01*
G75*
G02*
X-4210152Y-28258734I13200J49262D01*
G01*
G37*
D15*
X74710948Y-20500668D03*
D16*
X70942696Y-24750171D03*
D15*
X67919919Y-21310619D03*
D17*
X66035793Y-23435370D03*
X75849599Y-26064972D03*
G36*
G01*
X63152171Y-21327199D02*
X63799218Y-18912384D01*
G75*
G02*
X63861680Y-18876322I49262J-13200D01*
G01*
X66324791Y-19536311D01*
G75*
G02*
X66360853Y-19598773I-13200J-49262D01*
G01*
X65713806Y-22013588D01*
G75*
G02*
X65651344Y-22049650I-49262J13200D01*
G01*
X63188233Y-21389661D01*
G75*
G02*
X63152171Y-21327199I13200J49262D01*
G01*
G37*
G36*
G01*
X76296094Y-22219502D02*
X76943141Y-19804687D01*
G75*
G02*
X77005603Y-19768625I49262J-13200D01*
G01*
X79468714Y-20428614D01*
G75*
G02*
X79504776Y-20491076I-13200J-49262D01*
G01*
X78857729Y-22905891D01*
G75*
G02*
X78795267Y-22941953I-49262J13200D01*
G01*
X76332156Y-22281964D01*
G75*
G02*
X76296094Y-22219502I13200J49262D01*
G01*
G37*
D15*
X56967462Y-13116714D03*
D16*
X53199210Y-17366217D03*
D15*
X50176433Y-13926665D03*
D17*
X48292307Y-16051416D03*
X58106113Y-18681018D03*
G36*
G01*
X45408685Y-13943245D02*
X46055732Y-11528430D01*
G75*
G02*
X46118194Y-11492368I49262J-13200D01*
G01*
X48581305Y-12152357D01*
G75*
G02*
X48617367Y-12214819I-13200J-49262D01*
G01*
X47970320Y-14629634D01*
G75*
G02*
X47907858Y-14665696I-49262J13200D01*
G01*
X45444747Y-14005707D01*
G75*
G02*
X45408685Y-13943245I13200J49262D01*
G01*
G37*
G36*
G01*
X58552608Y-14835548D02*
X59199655Y-12420733D01*
G75*
G02*
X59262117Y-12384671I49262J-13200D01*
G01*
X61725228Y-13044660D01*
G75*
G02*
X61761290Y-13107122I-13200J-49262D01*
G01*
X61114243Y-15521937D01*
G75*
G02*
X61051781Y-15557999I-49262J13200D01*
G01*
X58588670Y-14898010D01*
G75*
G02*
X58552608Y-14835548I13200J49262D01*
G01*
G37*
D15*
X39881377Y-3279309D03*
D16*
X36113125Y-7528812D03*
D15*
X33090348Y-4089260D03*
D17*
X31206222Y-6214011D03*
X41020028Y-8843613D03*
G36*
G01*
X28322600Y-4105840D02*
X28969647Y-1691025D01*
G75*
G02*
X29032109Y-1654963I49262J-13200D01*
G01*
X31495220Y-2314952D01*
G75*
G02*
X31531282Y-2377414I-13200J-49262D01*
G01*
X30884235Y-4792229D01*
G75*
G02*
X30821773Y-4828291I-49262J13200D01*
G01*
X28358662Y-4168302D01*
G75*
G02*
X28322600Y-4105840I13200J49262D01*
G01*
G37*
G36*
G01*
X41466523Y-4998143D02*
X42113570Y-2583328D01*
G75*
G02*
X42176032Y-2547266I49262J-13200D01*
G01*
X44639143Y-3207255D01*
G75*
G02*
X44675205Y-3269717I-13200J-49262D01*
G01*
X44028158Y-5684532D01*
G75*
G02*
X43965696Y-5720594I-49262J13200D01*
G01*
X41502585Y-5060605D01*
G75*
G02*
X41466523Y-4998143I13200J49262D01*
G01*
G37*
D15*
X20165690Y-3255710D03*
D16*
X16397438Y-7505213D03*
D15*
X13374661Y-4065661D03*
D17*
X11490535Y-6190412D03*
X21304341Y-8820014D03*
G36*
G01*
X8606913Y-4082241D02*
X9253960Y-1667426D01*
G75*
G02*
X9316422Y-1631364I49262J-13200D01*
G01*
X11779533Y-2291353D01*
G75*
G02*
X11815595Y-2353815I-13200J-49262D01*
G01*
X11168548Y-4768630D01*
G75*
G02*
X11106086Y-4804692I-49262J13200D01*
G01*
X8642975Y-4144703D01*
G75*
G02*
X8606913Y-4082241I13200J49262D01*
G01*
G37*
G36*
G01*
X21750836Y-4974544D02*
X22397883Y-2559729D01*
G75*
G02*
X22460345Y-2523667I49262J-13200D01*
G01*
X24923456Y-3183656D01*
G75*
G02*
X24959518Y-3246118I-13200J-49262D01*
G01*
X24312471Y-5660933D01*
G75*
G02*
X24250009Y-5696995I-49262J13200D01*
G01*
X21786898Y-5037006D01*
G75*
G02*
X21750836Y-4974544I13200J49262D01*
G01*
G37*
D15*
X-864796Y-8139014D03*
D16*
X-4633048Y-12388517D03*
D15*
X-7655825Y-8948965D03*
D17*
X-9539951Y-11073716D03*
X273855Y-13703318D03*
G36*
G01*
X-12423573Y-8965545D02*
X-11776526Y-6550730D01*
G75*
G02*
X-11714064Y-6514668I49262J-13200D01*
G01*
X-9250953Y-7174657D01*
G75*
G02*
X-9214891Y-7237119I-13200J-49262D01*
G01*
X-9861938Y-9651934D01*
G75*
G02*
X-9924400Y-9687996I-49262J13200D01*
G01*
X-12387511Y-9028007D01*
G75*
G02*
X-12423573Y-8965545I13200J49262D01*
G01*
G37*
G36*
G01*
X720350Y-9857848D02*
X1367397Y-7443033D01*
G75*
G02*
X1429859Y-7406971I49262J-13200D01*
G01*
X3892970Y-8066960D01*
G75*
G02*
X3929032Y-8129422I-13200J-49262D01*
G01*
X3281985Y-10544237D01*
G75*
G02*
X3219523Y-10580299I-49262J13200D01*
G01*
X756412Y-9920310D01*
G75*
G02*
X720350Y-9857848I13200J49262D01*
G01*
G37*
D15*
X79641450Y-2099782D03*
D16*
X75873198Y-6349285D03*
D15*
X72850421Y-2909733D03*
D17*
X70966295Y-5034484D03*
X80780101Y-7664086D03*
G36*
G01*
X68082673Y-2926313D02*
X68729720Y-511498D01*
G75*
G02*
X68792182Y-475436I49262J-13200D01*
G01*
X71255293Y-1135425D01*
G75*
G02*
X71291355Y-1197887I-13200J-49262D01*
G01*
X70644308Y-3612702D01*
G75*
G02*
X70581846Y-3648764I-49262J13200D01*
G01*
X68118735Y-2988775D01*
G75*
G02*
X68082673Y-2926313I13200J49262D01*
G01*
G37*
G36*
G01*
X81226596Y-3818616D02*
X81873643Y-1403801D01*
G75*
G02*
X81936105Y-1367739I49262J-13200D01*
G01*
X84399216Y-2027728D01*
G75*
G02*
X84435278Y-2090190I-13200J-49262D01*
G01*
X83788231Y-4505005D01*
G75*
G02*
X83725769Y-4541067I-49262J13200D01*
G01*
X81262658Y-3881078D01*
G75*
G02*
X81226596Y-3818616I13200J49262D01*
G01*
G37*
D15*
X61897964Y5284172D03*
D16*
X58129712Y1034669D03*
D15*
X55106935Y4474221D03*
D17*
X53222809Y2349470D03*
X63036615Y-280132D03*
G36*
G01*
X50339187Y4457641D02*
X50986234Y6872456D01*
G75*
G02*
X51048696Y6908518I49262J-13200D01*
G01*
X53511807Y6248529D01*
G75*
G02*
X53547869Y6186067I-13200J-49262D01*
G01*
X52900822Y3771252D01*
G75*
G02*
X52838360Y3735190I-49262J13200D01*
G01*
X50375249Y4395179D01*
G75*
G02*
X50339187Y4457641I13200J49262D01*
G01*
G37*
G36*
G01*
X63483110Y3565338D02*
X64130157Y5980153D01*
G75*
G02*
X64192619Y6016215I49262J-13200D01*
G01*
X66655730Y5356226D01*
G75*
G02*
X66691792Y5293764I-13200J-49262D01*
G01*
X66044745Y2878949D01*
G75*
G02*
X65982283Y2842887I-49262J13200D01*
G01*
X63519172Y3502876D01*
G75*
G02*
X63483110Y3565338I13200J49262D01*
G01*
G37*
D15*
X44811879Y15121577D03*
D16*
X41043627Y10872074D03*
D15*
X38020850Y14311626D03*
D17*
X36136724Y12186875D03*
X45950530Y9557273D03*
G36*
G01*
X33253102Y14295046D02*
X33900149Y16709861D01*
G75*
G02*
X33962611Y16745923I49262J-13200D01*
G01*
X36425722Y16085934D01*
G75*
G02*
X36461784Y16023472I-13200J-49262D01*
G01*
X35814737Y13608657D01*
G75*
G02*
X35752275Y13572595I-49262J13200D01*
G01*
X33289164Y14232584D01*
G75*
G02*
X33253102Y14295046I13200J49262D01*
G01*
G37*
G36*
G01*
X46397025Y13402743D02*
X47044072Y15817558D01*
G75*
G02*
X47106534Y15853620I49262J-13200D01*
G01*
X49569645Y15193631D01*
G75*
G02*
X49605707Y15131169I-13200J-49262D01*
G01*
X48958660Y12716354D01*
G75*
G02*
X48896198Y12680292I-49262J13200D01*
G01*
X46433087Y13340281D01*
G75*
G02*
X46397025Y13402743I13200J49262D01*
G01*
G37*
D15*
X25096192Y15145176D03*
D16*
X21327940Y10895673D03*
D15*
X18305163Y14335225D03*
D17*
X16421037Y12210474D03*
X26234843Y9580872D03*
G36*
G01*
X13537415Y14318645D02*
X14184462Y16733460D01*
G75*
G02*
X14246924Y16769522I49262J-13200D01*
G01*
X16710035Y16109533D01*
G75*
G02*
X16746097Y16047071I-13200J-49262D01*
G01*
X16099050Y13632256D01*
G75*
G02*
X16036588Y13596194I-49262J13200D01*
G01*
X13573477Y14256183D01*
G75*
G02*
X13537415Y14318645I13200J49262D01*
G01*
G37*
G36*
G01*
X26681338Y13426342D02*
X27328385Y15841157D01*
G75*
G02*
X27390847Y15877219I49262J-13200D01*
G01*
X29853958Y15217230D01*
G75*
G02*
X29890020Y15154768I-13200J-49262D01*
G01*
X29242973Y12739953D01*
G75*
G02*
X29180511Y12703891I-49262J13200D01*
G01*
X26717400Y13363880D01*
G75*
G02*
X26681338Y13426342I13200J49262D01*
G01*
G37*
D15*
X4065706Y10261872D03*
D16*
X297454Y6012369D03*
D15*
X-2725323Y9451921D03*
D17*
X-4609449Y7327170D03*
X5204357Y4697568D03*
G36*
G01*
X-7493071Y9435341D02*
X-6846024Y11850156D01*
G75*
G02*
X-6783562Y11886218I49262J-13200D01*
G01*
X-4320451Y11226229D01*
G75*
G02*
X-4284389Y11163767I-13200J-49262D01*
G01*
X-4931436Y8748952D01*
G75*
G02*
X-4993898Y8712890I-49262J13200D01*
G01*
X-7457009Y9372879D01*
G75*
G02*
X-7493071Y9435341I13200J49262D01*
G01*
G37*
G36*
G01*
X5650852Y8543038D02*
X6297899Y10957853D01*
G75*
G02*
X6360361Y10993915I49262J-13200D01*
G01*
X8823472Y10333926D01*
G75*
G02*
X8859534Y10271464I-13200J-49262D01*
G01*
X8212487Y7856649D01*
G75*
G02*
X8150025Y7820587I-49262J13200D01*
G01*
X5686914Y8480576D01*
G75*
G02*
X5650852Y8543038I13200J49262D01*
G01*
G37*
D13*
X78512500Y20155000D03*
X85012500Y20155000D03*
G36*
G01*
X9148109Y4830376D02*
X7988998Y5140959D01*
G75*
G02*
X7952936Y5203421I13200J49262D01*
G01*
X8185873Y6072754D01*
G75*
G02*
X8248335Y6108816I49262J-13200D01*
G01*
X9407446Y5798233D01*
G75*
G02*
X9443508Y5735771I-13200J-49262D01*
G01*
X9210571Y4866438D01*
G75*
G02*
X9148109Y4830376I-49262J13200D01*
G01*
G37*
G36*
G01*
X8294007Y1642820D02*
X7134896Y1953403D01*
G75*
G02*
X7098834Y2015865I13200J49262D01*
G01*
X7331771Y2885198D01*
G75*
G02*
X7394233Y2921260I49262J-13200D01*
G01*
X8553344Y2610677D01*
G75*
G02*
X8589406Y2548215I-13200J-49262D01*
G01*
X8356469Y1678882D01*
G75*
G02*
X8294007Y1642820I-49262J13200D01*
G01*
G37*
G36*
G01*
X29324493Y6526124D02*
X28165382Y6836707D01*
G75*
G02*
X28129320Y6899169I13200J49262D01*
G01*
X28362257Y7768502D01*
G75*
G02*
X28424719Y7804564I49262J-13200D01*
G01*
X29583830Y7493981D01*
G75*
G02*
X29619892Y7431519I-13200J-49262D01*
G01*
X29386955Y6562186D01*
G75*
G02*
X29324493Y6526124I-49262J13200D01*
G01*
G37*
G36*
G01*
X30178595Y9713680D02*
X29019484Y10024263D01*
G75*
G02*
X28983422Y10086725I13200J49262D01*
G01*
X29216359Y10956058D01*
G75*
G02*
X29278821Y10992120I49262J-13200D01*
G01*
X30437932Y10681537D01*
G75*
G02*
X30473994Y10619075I-13200J-49262D01*
G01*
X30241057Y9749742D01*
G75*
G02*
X30178595Y9713680I-49262J13200D01*
G01*
G37*
G36*
G01*
X49894282Y9690081D02*
X48735171Y10000664D01*
G75*
G02*
X48699109Y10063126I13200J49262D01*
G01*
X48932046Y10932459D01*
G75*
G02*
X48994508Y10968521I49262J-13200D01*
G01*
X50153619Y10657938D01*
G75*
G02*
X50189681Y10595476I-13200J-49262D01*
G01*
X49956744Y9726143D01*
G75*
G02*
X49894282Y9690081I-49262J13200D01*
G01*
G37*
G36*
G01*
X49040180Y6502525D02*
X47881069Y6813108D01*
G75*
G02*
X47845007Y6875570I13200J49262D01*
G01*
X48077944Y7744903D01*
G75*
G02*
X48140406Y7780965I49262J-13200D01*
G01*
X49299517Y7470382D01*
G75*
G02*
X49335579Y7407920I-13200J-49262D01*
G01*
X49102642Y6538587D01*
G75*
G02*
X49040180Y6502525I-49262J13200D01*
G01*
G37*
G36*
G01*
X66126265Y-3334880D02*
X64967154Y-3024297D01*
G75*
G02*
X64931092Y-2961835I13200J49262D01*
G01*
X65164029Y-2092502D01*
G75*
G02*
X65226491Y-2056440I49262J-13200D01*
G01*
X66385602Y-2367023D01*
G75*
G02*
X66421664Y-2429485I-13200J-49262D01*
G01*
X66188727Y-3298818D01*
G75*
G02*
X66126265Y-3334880I-49262J13200D01*
G01*
G37*
G36*
G01*
X66980367Y-147324D02*
X65821256Y163259D01*
G75*
G02*
X65785194Y225721I13200J49262D01*
G01*
X66018131Y1095054D01*
G75*
G02*
X66080593Y1131116I49262J-13200D01*
G01*
X67239704Y820533D01*
G75*
G02*
X67275766Y758071I-13200J-49262D01*
G01*
X67042829Y-111262D01*
G75*
G02*
X66980367Y-147324I-49262J13200D01*
G01*
G37*
G36*
G01*
X84723853Y-7531278D02*
X83564742Y-7220695D01*
G75*
G02*
X83528680Y-7158233I13200J49262D01*
G01*
X83761617Y-6288900D01*
G75*
G02*
X83824079Y-6252838I49262J-13200D01*
G01*
X84983190Y-6563421D01*
G75*
G02*
X85019252Y-6625883I-13200J-49262D01*
G01*
X84786315Y-7495216D01*
G75*
G02*
X84723853Y-7531278I-49262J13200D01*
G01*
G37*
G36*
G01*
X83869751Y-10718834D02*
X82710640Y-10408251D01*
G75*
G02*
X82674578Y-10345789I13200J49262D01*
G01*
X82907515Y-9476456D01*
G75*
G02*
X82969977Y-9440394I49262J-13200D01*
G01*
X84129088Y-9750977D01*
G75*
G02*
X84165150Y-9813439I-13200J-49262D01*
G01*
X83932213Y-10682772D01*
G75*
G02*
X83869751Y-10718834I-49262J13200D01*
G01*
G37*
G36*
G01*
X3363505Y-16758066D02*
X2204394Y-16447483D01*
G75*
G02*
X2168332Y-16385021I13200J49262D01*
G01*
X2401269Y-15515688D01*
G75*
G02*
X2463731Y-15479626I49262J-13200D01*
G01*
X3622842Y-15790209D01*
G75*
G02*
X3658904Y-15852671I-13200J-49262D01*
G01*
X3425967Y-16722004D01*
G75*
G02*
X3363505Y-16758066I-49262J13200D01*
G01*
G37*
G36*
G01*
X4217607Y-13570510D02*
X3058496Y-13259927D01*
G75*
G02*
X3022434Y-13197465I13200J49262D01*
G01*
X3255371Y-12328132D01*
G75*
G02*
X3317833Y-12292070I49262J-13200D01*
G01*
X4476944Y-12602653D01*
G75*
G02*
X4513006Y-12665115I-13200J-49262D01*
G01*
X4280069Y-13534448D01*
G75*
G02*
X4217607Y-13570510I-49262J13200D01*
G01*
G37*
G36*
G01*
X25248093Y-8687206D02*
X24088982Y-8376623D01*
G75*
G02*
X24052920Y-8314161I13200J49262D01*
G01*
X24285857Y-7444828D01*
G75*
G02*
X24348319Y-7408766I49262J-13200D01*
G01*
X25507430Y-7719349D01*
G75*
G02*
X25543492Y-7781811I-13200J-49262D01*
G01*
X25310555Y-8651144D01*
G75*
G02*
X25248093Y-8687206I-49262J13200D01*
G01*
G37*
G36*
G01*
X24393991Y-11874762D02*
X23234880Y-11564179D01*
G75*
G02*
X23198818Y-11501717I13200J49262D01*
G01*
X23431755Y-10632384D01*
G75*
G02*
X23494217Y-10596322I49262J-13200D01*
G01*
X24653328Y-10906905D01*
G75*
G02*
X24689390Y-10969367I-13200J-49262D01*
G01*
X24456453Y-11838700D01*
G75*
G02*
X24393991Y-11874762I-49262J13200D01*
G01*
G37*
G36*
G01*
X44109678Y-11898361D02*
X42950567Y-11587778D01*
G75*
G02*
X42914505Y-11525316I13200J49262D01*
G01*
X43147442Y-10655983D01*
G75*
G02*
X43209904Y-10619921I49262J-13200D01*
G01*
X44369015Y-10930504D01*
G75*
G02*
X44405077Y-10992966I-13200J-49262D01*
G01*
X44172140Y-11862299D01*
G75*
G02*
X44109678Y-11898361I-49262J13200D01*
G01*
G37*
G36*
G01*
X44963780Y-8710805D02*
X43804669Y-8400222D01*
G75*
G02*
X43768607Y-8337760I13200J49262D01*
G01*
X44001544Y-7468427D01*
G75*
G02*
X44064006Y-7432365I49262J-13200D01*
G01*
X45223117Y-7742948D01*
G75*
G02*
X45259179Y-7805410I-13200J-49262D01*
G01*
X45026242Y-8674743D01*
G75*
G02*
X44963780Y-8710805I-49262J13200D01*
G01*
G37*
G36*
G01*
X62049865Y-18548210D02*
X60890754Y-18237627D01*
G75*
G02*
X60854692Y-18175165I13200J49262D01*
G01*
X61087629Y-17305832D01*
G75*
G02*
X61150091Y-17269770I49262J-13200D01*
G01*
X62309202Y-17580353D01*
G75*
G02*
X62345264Y-17642815I-13200J-49262D01*
G01*
X62112327Y-18512148D01*
G75*
G02*
X62049865Y-18548210I-49262J13200D01*
G01*
G37*
G36*
G01*
X61195763Y-21735766D02*
X60036652Y-21425183D01*
G75*
G02*
X60000590Y-21362721I13200J49262D01*
G01*
X60233527Y-20493388D01*
G75*
G02*
X60295989Y-20457326I49262J-13200D01*
G01*
X61455100Y-20767909D01*
G75*
G02*
X61491162Y-20830371I-13200J-49262D01*
G01*
X61258225Y-21699704D01*
G75*
G02*
X61195763Y-21735766I-49262J13200D01*
G01*
G37*
G36*
G01*
X78939249Y-29119720D02*
X77780138Y-28809137D01*
G75*
G02*
X77744076Y-28746675I13200J49262D01*
G01*
X77977013Y-27877342D01*
G75*
G02*
X78039475Y-27841280I49262J-13200D01*
G01*
X79198586Y-28151863D01*
G75*
G02*
X79234648Y-28214325I-13200J-49262D01*
G01*
X79001711Y-29083658D01*
G75*
G02*
X78939249Y-29119720I-49262J13200D01*
G01*
G37*
G36*
G01*
X79793351Y-25932164D02*
X78634240Y-25621581D01*
G75*
G02*
X78598178Y-25559119I13200J49262D01*
G01*
X78831115Y-24689786D01*
G75*
G02*
X78893577Y-24653724I49262J-13200D01*
G01*
X80052688Y-24964307D01*
G75*
G02*
X80088750Y-25026769I-13200J-49262D01*
G01*
X79855813Y-25896102D01*
G75*
G02*
X79793351Y-25932164I-49262J13200D01*
G01*
G37*
G36*
G01*
X-712895Y-31971396D02*
X-1872006Y-31660813D01*
G75*
G02*
X-1908068Y-31598351I13200J49262D01*
G01*
X-1675131Y-30729018D01*
G75*
G02*
X-1612669Y-30692956I49262J-13200D01*
G01*
X-453558Y-31003539D01*
G75*
G02*
X-417496Y-31066001I-13200J-49262D01*
G01*
X-650433Y-31935334D01*
G75*
G02*
X-712895Y-31971396I-49262J13200D01*
G01*
G37*
G36*
G01*
X-1566997Y-35158952D02*
X-2726108Y-34848369D01*
G75*
G02*
X-2762170Y-34785907I13200J49262D01*
G01*
X-2529233Y-33916574D01*
G75*
G02*
X-2466771Y-33880512I49262J-13200D01*
G01*
X-1307660Y-34191095D01*
G75*
G02*
X-1271598Y-34253557I-13200J-49262D01*
G01*
X-1504535Y-35122890D01*
G75*
G02*
X-1566997Y-35158952I-49262J13200D01*
G01*
G37*
G36*
G01*
X19463489Y-30275648D02*
X18304378Y-29965065D01*
G75*
G02*
X18268316Y-29902603I13200J49262D01*
G01*
X18501253Y-29033270D01*
G75*
G02*
X18563715Y-28997208I49262J-13200D01*
G01*
X19722826Y-29307791D01*
G75*
G02*
X19758888Y-29370253I-13200J-49262D01*
G01*
X19525951Y-30239586D01*
G75*
G02*
X19463489Y-30275648I-49262J13200D01*
G01*
G37*
G36*
G01*
X20317591Y-27088092D02*
X19158480Y-26777509D01*
G75*
G02*
X19122418Y-26715047I13200J49262D01*
G01*
X19355355Y-25845714D01*
G75*
G02*
X19417817Y-25809652I49262J-13200D01*
G01*
X20576928Y-26120235D01*
G75*
G02*
X20612990Y-26182697I-13200J-49262D01*
G01*
X20380053Y-27052030D01*
G75*
G02*
X20317591Y-27088092I-49262J13200D01*
G01*
G37*
G36*
G01*
X40033278Y-27111691D02*
X38874167Y-26801108D01*
G75*
G02*
X38838105Y-26738646I13200J49262D01*
G01*
X39071042Y-25869313D01*
G75*
G02*
X39133504Y-25833251I49262J-13200D01*
G01*
X40292615Y-26143834D01*
G75*
G02*
X40328677Y-26206296I-13200J-49262D01*
G01*
X40095740Y-27075629D01*
G75*
G02*
X40033278Y-27111691I-49262J13200D01*
G01*
G37*
G36*
G01*
X39179176Y-30299247D02*
X38020065Y-29988664D01*
G75*
G02*
X37984003Y-29926202I13200J49262D01*
G01*
X38216940Y-29056869D01*
G75*
G02*
X38279402Y-29020807I49262J-13200D01*
G01*
X39438513Y-29331390D01*
G75*
G02*
X39474575Y-29393852I-13200J-49262D01*
G01*
X39241638Y-30263185D01*
G75*
G02*
X39179176Y-30299247I-49262J13200D01*
G01*
G37*
G36*
G01*
X56265261Y-40136652D02*
X55106150Y-39826069D01*
G75*
G02*
X55070088Y-39763607I13200J49262D01*
G01*
X55303025Y-38894274D01*
G75*
G02*
X55365487Y-38858212I49262J-13200D01*
G01*
X56524598Y-39168795D01*
G75*
G02*
X56560660Y-39231257I-13200J-49262D01*
G01*
X56327723Y-40100590D01*
G75*
G02*
X56265261Y-40136652I-49262J13200D01*
G01*
G37*
G36*
G01*
X57119363Y-36949096D02*
X55960252Y-36638513D01*
G75*
G02*
X55924190Y-36576051I13200J49262D01*
G01*
X56157127Y-35706718D01*
G75*
G02*
X56219589Y-35670656I49262J-13200D01*
G01*
X57378700Y-35981239D01*
G75*
G02*
X57414762Y-36043701I-13200J-49262D01*
G01*
X57181825Y-36913034D01*
G75*
G02*
X57119363Y-36949096I-49262J13200D01*
G01*
G37*
G36*
G01*
X74862849Y-44333050D02*
X73703738Y-44022467D01*
G75*
G02*
X73667676Y-43960005I13200J49262D01*
G01*
X73900613Y-43090672D01*
G75*
G02*
X73963075Y-43054610I49262J-13200D01*
G01*
X75122186Y-43365193D01*
G75*
G02*
X75158248Y-43427655I-13200J-49262D01*
G01*
X74925311Y-44296988D01*
G75*
G02*
X74862849Y-44333050I-49262J13200D01*
G01*
G37*
G36*
G01*
X74008747Y-47520606D02*
X72849636Y-47210023D01*
G75*
G02*
X72813574Y-47147561I13200J49262D01*
G01*
X73046511Y-46278228D01*
G75*
G02*
X73108973Y-46242166I49262J-13200D01*
G01*
X74268084Y-46552749D01*
G75*
G02*
X74304146Y-46615211I-13200J-49262D01*
G01*
X74071209Y-47484544D01*
G75*
G02*
X74008747Y-47520606I-49262J13200D01*
G01*
G37*
G36*
G01*
X133614288Y-2947593D02*
X132455177Y-3258176D01*
G75*
G02*
X132392715Y-3222114I-13200J49262D01*
G01*
X132159778Y-2352781D01*
G75*
G02*
X132195840Y-2290319I49262J13200D01*
G01*
X133354951Y-1979736D01*
G75*
G02*
X133417413Y-2015798I13200J-49262D01*
G01*
X133650350Y-2885131D01*
G75*
G02*
X133614288Y-2947593I-49262J-13200D01*
G01*
G37*
G36*
G01*
X134468390Y-6135149D02*
X133309279Y-6445732D01*
G75*
G02*
X133246817Y-6409670I-13200J49262D01*
G01*
X133013880Y-5540337D01*
G75*
G02*
X133049942Y-5477875I49262J13200D01*
G01*
X134209053Y-5167292D01*
G75*
G02*
X134271515Y-5203354I13200J-49262D01*
G01*
X134504452Y-6072687D01*
G75*
G02*
X134468390Y-6135149I-49262J-13200D01*
G01*
G37*
G36*
G01*
X152211876Y1248805D02*
X151052765Y938222D01*
G75*
G02*
X150990303Y974284I-13200J49262D01*
G01*
X150757366Y1843617D01*
G75*
G02*
X150793428Y1906079I49262J13200D01*
G01*
X151952539Y2216662D01*
G75*
G02*
X152015001Y2180600I13200J-49262D01*
G01*
X152247938Y1311267D01*
G75*
G02*
X152211876Y1248805I-49262J-13200D01*
G01*
G37*
G36*
G01*
X151357774Y4436361D02*
X150198663Y4125778D01*
G75*
G02*
X150136201Y4161840I-13200J49262D01*
G01*
X149903264Y5031173D01*
G75*
G02*
X149939326Y5093635I49262J13200D01*
G01*
X151098437Y5404218D01*
G75*
G02*
X151160899Y5368156I13200J-49262D01*
G01*
X151393836Y4498823D01*
G75*
G02*
X151357774Y4436361I-49262J-13200D01*
G01*
G37*
G36*
G01*
X168443859Y14273766D02*
X167284748Y13963183D01*
G75*
G02*
X167222286Y13999245I-13200J49262D01*
G01*
X166989349Y14868578D01*
G75*
G02*
X167025411Y14931040I49262J13200D01*
G01*
X168184522Y15241623D01*
G75*
G02*
X168246984Y15205561I13200J-49262D01*
G01*
X168479921Y14336228D01*
G75*
G02*
X168443859Y14273766I-49262J-13200D01*
G01*
G37*
G36*
G01*
X169297961Y11086210D02*
X168138850Y10775627D01*
G75*
G02*
X168076388Y10811689I-13200J49262D01*
G01*
X167843451Y11681022D01*
G75*
G02*
X167879513Y11743484I49262J13200D01*
G01*
X169038624Y12054067D01*
G75*
G02*
X169101086Y12018005I13200J-49262D01*
G01*
X169334023Y11148672D01*
G75*
G02*
X169297961Y11086210I-49262J-13200D01*
G01*
G37*
G36*
G01*
X189013648Y11109809D02*
X187854537Y10799226D01*
G75*
G02*
X187792075Y10835288I-13200J49262D01*
G01*
X187559138Y11704621D01*
G75*
G02*
X187595200Y11767083I49262J13200D01*
G01*
X188754311Y12077666D01*
G75*
G02*
X188816773Y12041604I13200J-49262D01*
G01*
X189049710Y11172271D01*
G75*
G02*
X189013648Y11109809I-49262J-13200D01*
G01*
G37*
G36*
G01*
X188159546Y14297365D02*
X187000435Y13986782D01*
G75*
G02*
X186937973Y14022844I-13200J49262D01*
G01*
X186705036Y14892177D01*
G75*
G02*
X186741098Y14954639I49262J13200D01*
G01*
X187900209Y15265222D01*
G75*
G02*
X187962671Y15229160I13200J-49262D01*
G01*
X188195608Y14359827D01*
G75*
G02*
X188159546Y14297365I-49262J-13200D01*
G01*
G37*
G36*
G01*
X210044134Y6226506D02*
X208885023Y5915923D01*
G75*
G02*
X208822561Y5951985I-13200J49262D01*
G01*
X208589624Y6821318D01*
G75*
G02*
X208625686Y6883780I49262J13200D01*
G01*
X209784797Y7194363D01*
G75*
G02*
X209847259Y7158301I13200J-49262D01*
G01*
X210080196Y6288968D01*
G75*
G02*
X210044134Y6226506I-49262J-13200D01*
G01*
G37*
G36*
G01*
X209190032Y9414062D02*
X208030921Y9103479D01*
G75*
G02*
X207968459Y9139541I-13200J49262D01*
G01*
X207735522Y10008874D01*
G75*
G02*
X207771584Y10071336I49262J13200D01*
G01*
X208930695Y10381919D01*
G75*
G02*
X208993157Y10345857I13200J-49262D01*
G01*
X209226094Y9476524D01*
G75*
G02*
X209190032Y9414062I-49262J-13200D01*
G01*
G37*
G36*
G01*
X139398892Y-24536035D02*
X138239781Y-24846618D01*
G75*
G02*
X138177319Y-24810556I-13200J49262D01*
G01*
X137944382Y-23941223D01*
G75*
G02*
X137980444Y-23878761I49262J13200D01*
G01*
X139139555Y-23568178D01*
G75*
G02*
X139202017Y-23604240I13200J-49262D01*
G01*
X139434954Y-24473573D01*
G75*
G02*
X139398892Y-24536035I-49262J-13200D01*
G01*
G37*
G36*
G01*
X138544790Y-21348479D02*
X137385679Y-21659062D01*
G75*
G02*
X137323217Y-21623000I-13200J49262D01*
G01*
X137090280Y-20753667D01*
G75*
G02*
X137126342Y-20691205I49262J13200D01*
G01*
X138285453Y-20380622D01*
G75*
G02*
X138347915Y-20416684I13200J-49262D01*
G01*
X138580852Y-21286017D01*
G75*
G02*
X138544790Y-21348479I-49262J-13200D01*
G01*
G37*
G36*
G01*
X156288276Y-13964525D02*
X155129165Y-14275108D01*
G75*
G02*
X155066703Y-14239046I-13200J49262D01*
G01*
X154833766Y-13369713D01*
G75*
G02*
X154869828Y-13307251I49262J13200D01*
G01*
X156028939Y-12996668D01*
G75*
G02*
X156091401Y-13032730I13200J-49262D01*
G01*
X156324338Y-13902063D01*
G75*
G02*
X156288276Y-13964525I-49262J-13200D01*
G01*
G37*
G36*
G01*
X157142378Y-17152081D02*
X155983267Y-17462664D01*
G75*
G02*
X155920805Y-17426602I-13200J49262D01*
G01*
X155687868Y-16557269D01*
G75*
G02*
X155723930Y-16494807I49262J13200D01*
G01*
X156883041Y-16184224D01*
G75*
G02*
X156945503Y-16220286I13200J-49262D01*
G01*
X157178440Y-17089619D01*
G75*
G02*
X157142378Y-17152081I-49262J-13200D01*
G01*
G37*
G36*
G01*
X174228463Y-7314676D02*
X173069352Y-7625259D01*
G75*
G02*
X173006890Y-7589197I-13200J49262D01*
G01*
X172773953Y-6719864D01*
G75*
G02*
X172810015Y-6657402I49262J13200D01*
G01*
X173969126Y-6346819D01*
G75*
G02*
X174031588Y-6382881I13200J-49262D01*
G01*
X174264525Y-7252214D01*
G75*
G02*
X174228463Y-7314676I-49262J-13200D01*
G01*
G37*
G36*
G01*
X173374361Y-4127120D02*
X172215250Y-4437703D01*
G75*
G02*
X172152788Y-4401641I-13200J49262D01*
G01*
X171919851Y-3532308D01*
G75*
G02*
X171955913Y-3469846I49262J13200D01*
G01*
X173115024Y-3159263D01*
G75*
G02*
X173177486Y-3195325I13200J-49262D01*
G01*
X173410423Y-4064658D01*
G75*
G02*
X173374361Y-4127120I-49262J-13200D01*
G01*
G37*
G36*
G01*
X193090048Y-4103521D02*
X191930937Y-4414104D01*
G75*
G02*
X191868475Y-4378042I-13200J49262D01*
G01*
X191635538Y-3508709D01*
G75*
G02*
X191671600Y-3446247I49262J13200D01*
G01*
X192830711Y-3135664D01*
G75*
G02*
X192893173Y-3171726I13200J-49262D01*
G01*
X193126110Y-4041059D01*
G75*
G02*
X193090048Y-4103521I-49262J-13200D01*
G01*
G37*
G36*
G01*
X193944150Y-7291077D02*
X192785039Y-7601660D01*
G75*
G02*
X192722577Y-7565598I-13200J49262D01*
G01*
X192489640Y-6696265D01*
G75*
G02*
X192525702Y-6633803I49262J13200D01*
G01*
X193684813Y-6323220D01*
G75*
G02*
X193747275Y-6359282I13200J-49262D01*
G01*
X193980212Y-7228615D01*
G75*
G02*
X193944150Y-7291077I-49262J-13200D01*
G01*
G37*
G36*
G01*
X214120534Y-8986824D02*
X212961423Y-9297407D01*
G75*
G02*
X212898961Y-9261345I-13200J49262D01*
G01*
X212666024Y-8392012D01*
G75*
G02*
X212702086Y-8329550I49262J13200D01*
G01*
X213861197Y-8018967D01*
G75*
G02*
X213923659Y-8055029I13200J-49262D01*
G01*
X214156596Y-8924362D01*
G75*
G02*
X214120534Y-8986824I-49262J-13200D01*
G01*
G37*
G36*
G01*
X214974636Y-12174380D02*
X213815525Y-12484963D01*
G75*
G02*
X213753063Y-12448901I-13200J49262D01*
G01*
X213520126Y-11579568D01*
G75*
G02*
X213556188Y-11517106I49262J13200D01*
G01*
X214715299Y-11206523D01*
G75*
G02*
X214777761Y-11242585I13200J-49262D01*
G01*
X215010698Y-12111918D01*
G75*
G02*
X214974636Y-12174380I-49262J-13200D01*
G01*
G37*
G36*
G01*
X143475292Y-39749365D02*
X142316181Y-40059948D01*
G75*
G02*
X142253719Y-40023886I-13200J49262D01*
G01*
X142020782Y-39154553D01*
G75*
G02*
X142056844Y-39092091I49262J13200D01*
G01*
X143215955Y-38781508D01*
G75*
G02*
X143278417Y-38817570I13200J-49262D01*
G01*
X143511354Y-39686903D01*
G75*
G02*
X143475292Y-39749365I-49262J-13200D01*
G01*
G37*
G36*
G01*
X144329394Y-42936921D02*
X143170283Y-43247504D01*
G75*
G02*
X143107821Y-43211442I-13200J49262D01*
G01*
X142874884Y-42342109D01*
G75*
G02*
X142910946Y-42279647I49262J13200D01*
G01*
X144070057Y-41969064D01*
G75*
G02*
X144132519Y-42005126I13200J-49262D01*
G01*
X144365456Y-42874459D01*
G75*
G02*
X144329394Y-42936921I-49262J-13200D01*
G01*
G37*
G36*
G01*
X162072880Y-35552967D02*
X160913769Y-35863550D01*
G75*
G02*
X160851307Y-35827488I-13200J49262D01*
G01*
X160618370Y-34958155D01*
G75*
G02*
X160654432Y-34895693I49262J13200D01*
G01*
X161813543Y-34585110D01*
G75*
G02*
X161876005Y-34621172I13200J-49262D01*
G01*
X162108942Y-35490505D01*
G75*
G02*
X162072880Y-35552967I-49262J-13200D01*
G01*
G37*
G36*
G01*
X161218778Y-32365411D02*
X160059667Y-32675994D01*
G75*
G02*
X159997205Y-32639932I-13200J49262D01*
G01*
X159764268Y-31770599D01*
G75*
G02*
X159800330Y-31708137I49262J13200D01*
G01*
X160959441Y-31397554D01*
G75*
G02*
X161021903Y-31433616I13200J-49262D01*
G01*
X161254840Y-32302949D01*
G75*
G02*
X161218778Y-32365411I-49262J-13200D01*
G01*
G37*
G36*
G01*
X178304863Y-22528006D02*
X177145752Y-22838589D01*
G75*
G02*
X177083290Y-22802527I-13200J49262D01*
G01*
X176850353Y-21933194D01*
G75*
G02*
X176886415Y-21870732I49262J13200D01*
G01*
X178045526Y-21560149D01*
G75*
G02*
X178107988Y-21596211I13200J-49262D01*
G01*
X178340925Y-22465544D01*
G75*
G02*
X178304863Y-22528006I-49262J-13200D01*
G01*
G37*
G36*
G01*
X179158965Y-25715562D02*
X177999854Y-26026145D01*
G75*
G02*
X177937392Y-25990083I-13200J49262D01*
G01*
X177704455Y-25120750D01*
G75*
G02*
X177740517Y-25058288I49262J13200D01*
G01*
X178899628Y-24747705D01*
G75*
G02*
X178962090Y-24783767I13200J-49262D01*
G01*
X179195027Y-25653100D01*
G75*
G02*
X179158965Y-25715562I-49262J-13200D01*
G01*
G37*
G36*
G01*
X198874652Y-25691963D02*
X197715541Y-26002546D01*
G75*
G02*
X197653079Y-25966484I-13200J49262D01*
G01*
X197420142Y-25097151D01*
G75*
G02*
X197456204Y-25034689I49262J13200D01*
G01*
X198615315Y-24724106D01*
G75*
G02*
X198677777Y-24760168I13200J-49262D01*
G01*
X198910714Y-25629501D01*
G75*
G02*
X198874652Y-25691963I-49262J-13200D01*
G01*
G37*
G36*
G01*
X198020550Y-22504407D02*
X196861439Y-22814990D01*
G75*
G02*
X196798977Y-22778928I-13200J49262D01*
G01*
X196566040Y-21909595D01*
G75*
G02*
X196602102Y-21847133I49262J13200D01*
G01*
X197761213Y-21536550D01*
G75*
G02*
X197823675Y-21572612I13200J-49262D01*
G01*
X198056612Y-22441945D01*
G75*
G02*
X198020550Y-22504407I-49262J-13200D01*
G01*
G37*
G36*
G01*
X219905138Y-30575266D02*
X218746027Y-30885849D01*
G75*
G02*
X218683565Y-30849787I-13200J49262D01*
G01*
X218450628Y-29980454D01*
G75*
G02*
X218486690Y-29917992I49262J13200D01*
G01*
X219645801Y-29607409D01*
G75*
G02*
X219708263Y-29643471I13200J-49262D01*
G01*
X219941200Y-30512804D01*
G75*
G02*
X219905138Y-30575266I-49262J-13200D01*
G01*
G37*
G36*
G01*
X219051036Y-27387710D02*
X217891925Y-27698293D01*
G75*
G02*
X217829463Y-27662231I-13200J49262D01*
G01*
X217596526Y-26792898D01*
G75*
G02*
X217632588Y-26730436I49262J13200D01*
G01*
X218791699Y-26419853D01*
G75*
G02*
X218854161Y-26455915I13200J-49262D01*
G01*
X219087098Y-27325248D01*
G75*
G02*
X219051036Y-27387710I-49262J-13200D01*
G01*
G37*
G36*
G01*
X48901859Y-67617240D02*
X47742748Y-67306657D01*
G75*
G02*
X47706686Y-67244195I13200J49262D01*
G01*
X47939623Y-66374862D01*
G75*
G02*
X48002085Y-66338800I49262J-13200D01*
G01*
X49161196Y-66649383D01*
G75*
G02*
X49197258Y-66711845I-13200J-49262D01*
G01*
X48964321Y-67581178D01*
G75*
G02*
X48901859Y-67617240I-49262J13200D01*
G01*
G37*
G36*
G01*
X48047757Y-70804796D02*
X46888646Y-70494213D01*
G75*
G02*
X46852584Y-70431751I13200J49262D01*
G01*
X47085521Y-69562418D01*
G75*
G02*
X47147983Y-69526356I49262J-13200D01*
G01*
X48307094Y-69836939D01*
G75*
G02*
X48343156Y-69899401I-13200J-49262D01*
G01*
X48110219Y-70768734D01*
G75*
G02*
X48047757Y-70804796I-49262J13200D01*
G01*
G37*
G36*
G01*
X69009807Y-77119639D02*
X67922238Y-76612498D01*
G75*
G02*
X67897570Y-76544722I21554J46222D01*
G01*
X68277927Y-75729045D01*
G75*
G02*
X68345703Y-75704377I46222J-21554D01*
G01*
X69433272Y-76211518D01*
G75*
G02*
X69457940Y-76279294I-21554J-46222D01*
G01*
X69077583Y-77094971D01*
G75*
G02*
X69009807Y-77119639I-46222J21554D01*
G01*
G37*
G36*
G01*
X67615167Y-80110455D02*
X66527598Y-79603314D01*
G75*
G02*
X66502930Y-79535538I21554J46222D01*
G01*
X66883287Y-78719861D01*
G75*
G02*
X66951063Y-78695193I46222J-21554D01*
G01*
X68038632Y-79202334D01*
G75*
G02*
X68063300Y-79270110I-21554J-46222D01*
G01*
X67682943Y-80085787D01*
G75*
G02*
X67615167Y-80110455I-46222J21554D01*
G01*
G37*
G36*
G01*
X85216182Y-92054717D02*
X84233199Y-91366426D01*
G75*
G02*
X84220674Y-91295397I29252J41777D01*
G01*
X84736893Y-90558160D01*
G75*
G02*
X84807922Y-90545635I41777J-29252D01*
G01*
X85790905Y-91233926D01*
G75*
G02*
X85803430Y-91304955I-29252J-41777D01*
G01*
X85287211Y-92042192D01*
G75*
G02*
X85216182Y-92054717I-41777J29252D01*
G01*
G37*
G36*
G01*
X87108984Y-89351515D02*
X86126001Y-88663224D01*
G75*
G02*
X86113476Y-88592195I29252J41777D01*
G01*
X86629695Y-87854958D01*
G75*
G02*
X86700724Y-87842433I41777J-29252D01*
G01*
X87683707Y-88530724D01*
G75*
G02*
X87696232Y-88601753I-29252J-41777D01*
G01*
X87180013Y-89338990D01*
G75*
G02*
X87108984Y-89351515I-41777J29252D01*
G01*
G37*
G36*
G01*
X149667138Y-72625888D02*
X148579569Y-73133029D01*
G75*
G02*
X148511793Y-73108361I-21554J46222D01*
G01*
X148131436Y-72292684D01*
G75*
G02*
X148156104Y-72224908I46222J21554D01*
G01*
X149243673Y-71717767D01*
G75*
G02*
X149311449Y-71742435I21554J-46222D01*
G01*
X149691806Y-72558112D01*
G75*
G02*
X149667138Y-72625888I-46222J-21554D01*
G01*
G37*
G36*
G01*
X148272498Y-69635072D02*
X147184929Y-70142213D01*
G75*
G02*
X147117153Y-70117545I-21554J46222D01*
G01*
X146736796Y-69301868D01*
G75*
G02*
X146761464Y-69234092I46222J21554D01*
G01*
X147849033Y-68726951D01*
G75*
G02*
X147916809Y-68751619I21554J-46222D01*
G01*
X148297166Y-69567296D01*
G75*
G02*
X148272498Y-69635072I-46222J-21554D01*
G01*
G37*
G36*
G01*
X169436282Y-63033555D02*
X168277171Y-63344138D01*
G75*
G02*
X168214709Y-63308076I-13200J49262D01*
G01*
X167981772Y-62438743D01*
G75*
G02*
X168017834Y-62376281I49262J13200D01*
G01*
X169176945Y-62065698D01*
G75*
G02*
X169239407Y-62101760I13200J-49262D01*
G01*
X169472344Y-62971093D01*
G75*
G02*
X169436282Y-63033555I-49262J-13200D01*
G01*
G37*
G36*
G01*
X170290384Y-66221111D02*
X169131273Y-66531694D01*
G75*
G02*
X169068811Y-66495632I-13200J49262D01*
G01*
X168835874Y-65626299D01*
G75*
G02*
X168871936Y-65563837I49262J13200D01*
G01*
X170031047Y-65253254D01*
G75*
G02*
X170093509Y-65289316I13200J-49262D01*
G01*
X170326446Y-66158649D01*
G75*
G02*
X170290384Y-66221111I-49262J-13200D01*
G01*
G37*
G36*
G01*
X130522597Y-81896680D02*
X129539614Y-82584971D01*
G75*
G02*
X129468585Y-82572446I-29252J41777D01*
G01*
X128952366Y-81835209D01*
G75*
G02*
X128964891Y-81764180I41777J29252D01*
G01*
X129947874Y-81075889D01*
G75*
G02*
X130018903Y-81088414I29252J-41777D01*
G01*
X130535122Y-81825651D01*
G75*
G02*
X130522597Y-81896680I-41777J-29252D01*
G01*
G37*
G36*
G01*
X128629795Y-79193478D02*
X127646812Y-79881769D01*
G75*
G02*
X127575783Y-79869244I-29252J41777D01*
G01*
X127059564Y-79132007D01*
G75*
G02*
X127072089Y-79060978I41777J29252D01*
G01*
X128055072Y-78372687D01*
G75*
G02*
X128126101Y-78385212I29252J-41777D01*
G01*
X128642320Y-79122449D01*
G75*
G02*
X128629795Y-79193478I-41777J-29252D01*
G01*
G37*
G36*
G01*
X54559000Y11530000D02*
X54559000Y12530000D01*
G75*
G02*
X54610000Y12581000I51000J0D01*
G01*
X56110000Y12581000D01*
G75*
G02*
X56161000Y12530000I0J-51000D01*
G01*
X56161000Y11530000D01*
G75*
G02*
X56110000Y11479000I-51000J0D01*
G01*
X54610000Y11479000D01*
G75*
G02*
X54559000Y11530000I0J51000D01*
G01*
G37*
G36*
G01*
X54559000Y14730000D02*
X54559000Y15730000D01*
G75*
G02*
X54610000Y15781000I51000J0D01*
G01*
X56110000Y15781000D01*
G75*
G02*
X56161000Y15730000I0J-51000D01*
G01*
X56161000Y14730000D01*
G75*
G02*
X56110000Y14679000I-51000J0D01*
G01*
X54610000Y14679000D01*
G75*
G02*
X54559000Y14730000I0J51000D01*
G01*
G37*
G36*
G01*
X59459000Y11530000D02*
X59459000Y12530000D01*
G75*
G02*
X59510000Y12581000I51000J0D01*
G01*
X61010000Y12581000D01*
G75*
G02*
X61061000Y12530000I0J-51000D01*
G01*
X61061000Y11530000D01*
G75*
G02*
X61010000Y11479000I-51000J0D01*
G01*
X59510000Y11479000D01*
G75*
G02*
X59459000Y11530000I0J51000D01*
G01*
G37*
G36*
G01*
X59459000Y14730000D02*
X59459000Y15730000D01*
G75*
G02*
X59510000Y15781000I51000J0D01*
G01*
X61010000Y15781000D01*
G75*
G02*
X61061000Y15730000I0J-51000D01*
G01*
X61061000Y14730000D01*
G75*
G02*
X61010000Y14679000I-51000J0D01*
G01*
X59510000Y14679000D01*
G75*
G02*
X59459000Y14730000I0J51000D01*
G01*
G37*
G36*
G01*
X15639000Y6990000D02*
X15639000Y7990000D01*
G75*
G02*
X15690000Y8041000I51000J0D01*
G01*
X17190000Y8041000D01*
G75*
G02*
X17241000Y7990000I0J-51000D01*
G01*
X17241000Y6990000D01*
G75*
G02*
X17190000Y6939000I-51000J0D01*
G01*
X15690000Y6939000D01*
G75*
G02*
X15639000Y6990000I0J51000D01*
G01*
G37*
G36*
G01*
X15639000Y3790000D02*
X15639000Y4790000D01*
G75*
G02*
X15690000Y4841000I51000J0D01*
G01*
X17190000Y4841000D01*
G75*
G02*
X17241000Y4790000I0J-51000D01*
G01*
X17241000Y3790000D01*
G75*
G02*
X17190000Y3739000I-51000J0D01*
G01*
X15690000Y3739000D01*
G75*
G02*
X15639000Y3790000I0J51000D01*
G01*
G37*
G36*
G01*
X10739000Y6990000D02*
X10739000Y7990000D01*
G75*
G02*
X10790000Y8041000I51000J0D01*
G01*
X12290000Y8041000D01*
G75*
G02*
X12341000Y7990000I0J-51000D01*
G01*
X12341000Y6990000D01*
G75*
G02*
X12290000Y6939000I-51000J0D01*
G01*
X10790000Y6939000D01*
G75*
G02*
X10739000Y6990000I0J51000D01*
G01*
G37*
G36*
G01*
X10739000Y3790000D02*
X10739000Y4790000D01*
G75*
G02*
X10790000Y4841000I51000J0D01*
G01*
X12290000Y4841000D01*
G75*
G02*
X12341000Y4790000I0J-51000D01*
G01*
X12341000Y3790000D01*
G75*
G02*
X12290000Y3739000I-51000J0D01*
G01*
X10790000Y3739000D01*
G75*
G02*
X10739000Y3790000I0J51000D01*
G01*
G37*
G36*
G01*
X-1021000Y-19130000D02*
X-1021000Y-18130000D01*
G75*
G02*
X-970000Y-18079000I51000J0D01*
G01*
X530000Y-18079000D01*
G75*
G02*
X581000Y-18130000I0J-51000D01*
G01*
X581000Y-19130000D01*
G75*
G02*
X530000Y-19181000I-51000J0D01*
G01*
X-970000Y-19181000D01*
G75*
G02*
X-1021000Y-19130000I0J51000D01*
G01*
G37*
G36*
G01*
X-1021000Y-22330000D02*
X-1021000Y-21330000D01*
G75*
G02*
X-970000Y-21279000I51000J0D01*
G01*
X530000Y-21279000D01*
G75*
G02*
X581000Y-21330000I0J-51000D01*
G01*
X581000Y-22330000D01*
G75*
G02*
X530000Y-22381000I-51000J0D01*
G01*
X-970000Y-22381000D01*
G75*
G02*
X-1021000Y-22330000I0J51000D01*
G01*
G37*
G36*
G01*
X-5921000Y-19130000D02*
X-5921000Y-18130000D01*
G75*
G02*
X-5870000Y-18079000I51000J0D01*
G01*
X-4370000Y-18079000D01*
G75*
G02*
X-4319000Y-18130000I0J-51000D01*
G01*
X-4319000Y-19130000D01*
G75*
G02*
X-4370000Y-19181000I-51000J0D01*
G01*
X-5870000Y-19181000D01*
G75*
G02*
X-5921000Y-19130000I0J51000D01*
G01*
G37*
G36*
G01*
X-5921000Y-22330000D02*
X-5921000Y-21330000D01*
G75*
G02*
X-5870000Y-21279000I51000J0D01*
G01*
X-4370000Y-21279000D01*
G75*
G02*
X-4319000Y-21330000I0J-51000D01*
G01*
X-4319000Y-22330000D01*
G75*
G02*
X-4370000Y-22381000I-51000J0D01*
G01*
X-5870000Y-22381000D01*
G75*
G02*
X-5921000Y-22330000I0J51000D01*
G01*
G37*
G36*
G01*
X27369000Y-60450000D02*
X27369000Y-59450000D01*
G75*
G02*
X27420000Y-59399000I51000J0D01*
G01*
X28920000Y-59399000D01*
G75*
G02*
X28971000Y-59450000I0J-51000D01*
G01*
X28971000Y-60450000D01*
G75*
G02*
X28920000Y-60501000I-51000J0D01*
G01*
X27420000Y-60501000D01*
G75*
G02*
X27369000Y-60450000I0J51000D01*
G01*
G37*
G36*
G01*
X27369000Y-63650000D02*
X27369000Y-62650000D01*
G75*
G02*
X27420000Y-62599000I51000J0D01*
G01*
X28920000Y-62599000D01*
G75*
G02*
X28971000Y-62650000I0J-51000D01*
G01*
X28971000Y-63650000D01*
G75*
G02*
X28920000Y-63701000I-51000J0D01*
G01*
X27420000Y-63701000D01*
G75*
G02*
X27369000Y-63650000I0J51000D01*
G01*
G37*
G36*
G01*
X22469000Y-60450000D02*
X22469000Y-59450000D01*
G75*
G02*
X22520000Y-59399000I51000J0D01*
G01*
X24020000Y-59399000D01*
G75*
G02*
X24071000Y-59450000I0J-51000D01*
G01*
X24071000Y-60450000D01*
G75*
G02*
X24020000Y-60501000I-51000J0D01*
G01*
X22520000Y-60501000D01*
G75*
G02*
X22469000Y-60450000I0J51000D01*
G01*
G37*
G36*
G01*
X22469000Y-63650000D02*
X22469000Y-62650000D01*
G75*
G02*
X22520000Y-62599000I51000J0D01*
G01*
X24020000Y-62599000D01*
G75*
G02*
X24071000Y-62650000I0J-51000D01*
G01*
X24071000Y-63650000D01*
G75*
G02*
X24020000Y-63701000I-51000J0D01*
G01*
X22520000Y-63701000D01*
G75*
G02*
X22469000Y-63650000I0J51000D01*
G01*
G37*
G36*
G01*
X76739000Y-71600000D02*
X76739000Y-70600000D01*
G75*
G02*
X76790000Y-70549000I51000J0D01*
G01*
X78290000Y-70549000D01*
G75*
G02*
X78341000Y-70600000I0J-51000D01*
G01*
X78341000Y-71600000D01*
G75*
G02*
X78290000Y-71651000I-51000J0D01*
G01*
X76790000Y-71651000D01*
G75*
G02*
X76739000Y-71600000I0J51000D01*
G01*
G37*
G36*
G01*
X76739000Y-74800000D02*
X76739000Y-73800000D01*
G75*
G02*
X76790000Y-73749000I51000J0D01*
G01*
X78290000Y-73749000D01*
G75*
G02*
X78341000Y-73800000I0J-51000D01*
G01*
X78341000Y-74800000D01*
G75*
G02*
X78290000Y-74851000I-51000J0D01*
G01*
X76790000Y-74851000D01*
G75*
G02*
X76739000Y-74800000I0J51000D01*
G01*
G37*
G36*
G01*
X71839000Y-71600000D02*
X71839000Y-70600000D01*
G75*
G02*
X71890000Y-70549000I51000J0D01*
G01*
X73390000Y-70549000D01*
G75*
G02*
X73441000Y-70600000I0J-51000D01*
G01*
X73441000Y-71600000D01*
G75*
G02*
X73390000Y-71651000I-51000J0D01*
G01*
X71890000Y-71651000D01*
G75*
G02*
X71839000Y-71600000I0J51000D01*
G01*
G37*
G36*
G01*
X71839000Y-74800000D02*
X71839000Y-73800000D01*
G75*
G02*
X71890000Y-73749000I51000J0D01*
G01*
X73390000Y-73749000D01*
G75*
G02*
X73441000Y-73800000I0J-51000D01*
G01*
X73441000Y-74800000D01*
G75*
G02*
X73390000Y-74851000I-51000J0D01*
G01*
X71890000Y-74851000D01*
G75*
G02*
X71839000Y-74800000I0J51000D01*
G01*
G37*
G36*
G01*
X127559000Y-70850000D02*
X127559000Y-69850000D01*
G75*
G02*
X127610000Y-69799000I51000J0D01*
G01*
X129110000Y-69799000D01*
G75*
G02*
X129161000Y-69850000I0J-51000D01*
G01*
X129161000Y-70850000D01*
G75*
G02*
X129110000Y-70901000I-51000J0D01*
G01*
X127610000Y-70901000D01*
G75*
G02*
X127559000Y-70850000I0J51000D01*
G01*
G37*
G36*
G01*
X127559000Y-74050000D02*
X127559000Y-73050000D01*
G75*
G02*
X127610000Y-72999000I51000J0D01*
G01*
X129110000Y-72999000D01*
G75*
G02*
X129161000Y-73050000I0J-51000D01*
G01*
X129161000Y-74050000D01*
G75*
G02*
X129110000Y-74101000I-51000J0D01*
G01*
X127610000Y-74101000D01*
G75*
G02*
X127559000Y-74050000I0J51000D01*
G01*
G37*
G36*
G01*
X122659000Y-70850000D02*
X122659000Y-69850000D01*
G75*
G02*
X122710000Y-69799000I51000J0D01*
G01*
X124210000Y-69799000D01*
G75*
G02*
X124261000Y-69850000I0J-51000D01*
G01*
X124261000Y-70850000D01*
G75*
G02*
X124210000Y-70901000I-51000J0D01*
G01*
X122710000Y-70901000D01*
G75*
G02*
X122659000Y-70850000I0J51000D01*
G01*
G37*
G36*
G01*
X122659000Y-74050000D02*
X122659000Y-73050000D01*
G75*
G02*
X122710000Y-72999000I51000J0D01*
G01*
X124210000Y-72999000D01*
G75*
G02*
X124261000Y-73050000I0J-51000D01*
G01*
X124261000Y-74050000D01*
G75*
G02*
X124210000Y-74101000I-51000J0D01*
G01*
X122710000Y-74101000D01*
G75*
G02*
X122659000Y-74050000I0J51000D01*
G01*
G37*
G36*
G01*
X172699000Y-63540000D02*
X172699000Y-62540000D01*
G75*
G02*
X172750000Y-62489000I51000J0D01*
G01*
X174250000Y-62489000D01*
G75*
G02*
X174301000Y-62540000I0J-51000D01*
G01*
X174301000Y-63540000D01*
G75*
G02*
X174250000Y-63591000I-51000J0D01*
G01*
X172750000Y-63591000D01*
G75*
G02*
X172699000Y-63540000I0J51000D01*
G01*
G37*
G36*
G01*
X172699000Y-60340000D02*
X172699000Y-59340000D01*
G75*
G02*
X172750000Y-59289000I51000J0D01*
G01*
X174250000Y-59289000D01*
G75*
G02*
X174301000Y-59340000I0J-51000D01*
G01*
X174301000Y-60340000D01*
G75*
G02*
X174250000Y-60391000I-51000J0D01*
G01*
X172750000Y-60391000D01*
G75*
G02*
X172699000Y-60340000I0J51000D01*
G01*
G37*
G36*
G01*
X177599000Y-63540000D02*
X177599000Y-62540000D01*
G75*
G02*
X177650000Y-62489000I51000J0D01*
G01*
X179150000Y-62489000D01*
G75*
G02*
X179201000Y-62540000I0J-51000D01*
G01*
X179201000Y-63540000D01*
G75*
G02*
X179150000Y-63591000I-51000J0D01*
G01*
X177650000Y-63591000D01*
G75*
G02*
X177599000Y-63540000I0J51000D01*
G01*
G37*
G36*
G01*
X177599000Y-60340000D02*
X177599000Y-59340000D01*
G75*
G02*
X177650000Y-59289000I51000J0D01*
G01*
X179150000Y-59289000D01*
G75*
G02*
X179201000Y-59340000I0J-51000D01*
G01*
X179201000Y-60340000D01*
G75*
G02*
X179150000Y-60391000I-51000J0D01*
G01*
X177650000Y-60391000D01*
G75*
G02*
X177599000Y-60340000I0J51000D01*
G01*
G37*
G36*
G01*
X199059000Y-22130000D02*
X199059000Y-21130000D01*
G75*
G02*
X199110000Y-21079000I51000J0D01*
G01*
X200610000Y-21079000D01*
G75*
G02*
X200661000Y-21130000I0J-51000D01*
G01*
X200661000Y-22130000D01*
G75*
G02*
X200610000Y-22181000I-51000J0D01*
G01*
X199110000Y-22181000D01*
G75*
G02*
X199059000Y-22130000I0J51000D01*
G01*
G37*
G36*
G01*
X199059000Y-18930000D02*
X199059000Y-17930000D01*
G75*
G02*
X199110000Y-17879000I51000J0D01*
G01*
X200610000Y-17879000D01*
G75*
G02*
X200661000Y-17930000I0J-51000D01*
G01*
X200661000Y-18930000D01*
G75*
G02*
X200610000Y-18981000I-51000J0D01*
G01*
X199110000Y-18981000D01*
G75*
G02*
X199059000Y-18930000I0J51000D01*
G01*
G37*
G36*
G01*
X203959000Y-22130000D02*
X203959000Y-21130000D01*
G75*
G02*
X204010000Y-21079000I51000J0D01*
G01*
X205510000Y-21079000D01*
G75*
G02*
X205561000Y-21130000I0J-51000D01*
G01*
X205561000Y-22130000D01*
G75*
G02*
X205510000Y-22181000I-51000J0D01*
G01*
X204010000Y-22181000D01*
G75*
G02*
X203959000Y-22130000I0J51000D01*
G01*
G37*
G36*
G01*
X203959000Y-18930000D02*
X203959000Y-17930000D01*
G75*
G02*
X204010000Y-17879000I51000J0D01*
G01*
X205510000Y-17879000D01*
G75*
G02*
X205561000Y-17930000I0J-51000D01*
G01*
X205561000Y-18930000D01*
G75*
G02*
X205510000Y-18981000I-51000J0D01*
G01*
X204010000Y-18981000D01*
G75*
G02*
X203959000Y-18930000I0J51000D01*
G01*
G37*
D18*
X7120000Y240000D03*
X28590000Y5210000D03*
X47300000Y5210000D03*
X64790000Y-4910000D03*
X87303000Y-10170000D03*
X81470000Y-10170000D03*
X91743000Y-4600000D03*
X87303000Y-2663000D03*
X86176001Y-28760000D03*
X5080000Y-15250000D03*
X23690000Y-14060000D03*
X42830000Y-14060000D03*
X60610000Y-22690000D03*
X76170000Y-28760000D03*
X90749852Y-5377000D03*
X86526000Y-3750000D03*
X-2260000Y-37110000D03*
X-2100578Y-49270578D03*
X3999422Y-55370578D03*
X37310000Y-32580000D03*
X55595000Y-42575000D03*
X73330000Y-48370000D03*
X79250000Y-48370000D03*
X91450000Y-6320000D03*
X86053000Y-5397458D03*
X18440000Y-32580000D03*
X210120000Y3770000D03*
X167820000Y2790000D03*
X151545000Y-1715000D03*
X134545000Y-9015000D03*
X186990000Y2790000D03*
X109690000Y-5510000D03*
X182190000Y2790000D03*
X119420000Y-30630000D03*
X215000000Y-15790000D03*
X190020000Y-12670000D03*
X174980000Y-12670000D03*
X157600000Y-20700000D03*
X139450000Y-26510000D03*
X110418575Y-6334126D03*
X117865578Y-11514422D03*
X195340000Y-30390000D03*
X196870000Y-34710000D03*
X219760000Y-32810000D03*
X179640000Y-31880000D03*
X163130000Y-40470000D03*
X146070000Y-47920000D03*
X111300000Y-7111126D03*
X117018985Y-12216764D03*
X122250000Y-47850000D03*
X109700000Y-12290500D03*
X109730000Y-14060000D03*
X109200000Y-97900000D03*
X170860000Y-72250000D03*
X42670000Y-76810000D03*
X64250000Y-88000000D03*
X80595000Y-96965000D03*
X132820000Y-91470000D03*
X153700000Y-80670000D03*
X94000000Y-3450000D03*
X90340000Y17190000D03*
X101540000Y-98960000D03*
X221560000Y-37870000D03*
X205230000Y22060000D03*
X131180000Y22050000D03*
X177500000Y22060000D03*
X202200000Y-23970000D03*
X217853029Y-18396971D03*
X174600000Y-70799500D03*
X64820000Y-89730000D03*
X-19900000Y-38090000D03*
X-5380000Y21699500D03*
X23105000Y-69345000D03*
X-6950000Y-21820000D03*
X-16399499Y-20149499D03*
X9759500Y21699500D03*
X53009500Y21699500D03*
X92390501Y-44330501D03*
X89821010Y-20658990D03*
X121330000Y-73560000D03*
X101540000Y-74120000D03*
X-6390000Y22540000D03*
X-19930000Y-39590000D03*
X222550000Y-38960000D03*
X206950000Y21870000D03*
X89240000Y22580000D03*
X100550000Y-100060000D03*
X206690000Y-18380000D03*
X217850000Y-17150000D03*
X191460000Y22980000D03*
X180945000Y-67955000D03*
X77520000Y-65360000D03*
X91550000Y-65070000D03*
X30670000Y-75970000D03*
X-840000Y-16250000D03*
X-17240000Y-16180000D03*
X18490000Y7500000D03*
X24370000Y7500000D03*
X22030000Y22540000D03*
X91550000Y-47590000D03*
X91550000Y-50230000D03*
X134850000Y-92790000D03*
X140080000Y22980000D03*
X60450000Y22540000D03*
X88980510Y-25780000D03*
X28170000Y-53740000D03*
X109260000Y23300000D03*
X106140000Y-23900000D03*
X111730000Y-23930000D03*
X103780000Y-63900000D03*
X34700000Y-56000000D03*
X9750000Y-42330000D03*
X124970000Y-42330000D03*
X103820000Y-42310000D03*
X102910000Y-63020000D03*
X60350000Y-62880000D03*
X-17930000Y-33640000D03*
X149190000Y-56010000D03*
X102140000Y-62070000D03*
X6270000Y-40513000D03*
X79960000Y-62070000D03*
X165710000Y-54270000D03*
X101200000Y-61060000D03*
X182790000Y-40060000D03*
X133210000Y-54240000D03*
X22840000Y-39736000D03*
X100350000Y-60040000D03*
X203310000Y-39470000D03*
X38640000Y-52260000D03*
X154100000Y-53250000D03*
X99670000Y-59080000D03*
X56910000Y-54100000D03*
X114660000Y-59190000D03*
X189620000Y-38505999D03*
X91580000Y17910000D03*
X88180000Y-42770500D03*
X88140010Y-24020000D03*
X93231001Y-46670000D03*
X90680000Y-31800000D03*
X87403000Y-31620000D03*
X88080000Y11960000D03*
X62590000Y11930000D03*
X57780000Y7400000D03*
X19410000Y6659500D03*
X-6485676Y-48025676D03*
X27514324Y-72565676D03*
X25658746Y-69611254D03*
X66730000Y-89300000D03*
X73450000Y-66070000D03*
X126260000Y-66530000D03*
X123860000Y-65560000D03*
X174050000Y-56810000D03*
X172860000Y-33270000D03*
X206248484Y-24810500D03*
X184570000Y9780000D03*
X141200000Y9960000D03*
X106720000Y-350000D03*
X123780000Y4970000D03*
X107612296Y427000D03*
X122820000Y5747000D03*
X113887000Y-57340000D03*
X30750000Y-43350000D03*
X113110000Y-58320000D03*
X29370000Y-42830000D03*
X115070000Y-55430000D03*
X174840000Y-42010000D03*
X114572245Y-56479509D03*
X173637000Y-43160000D03*
X173800000Y-55230000D03*
X98979500Y-6870000D03*
X104800000Y-5710000D03*
X97365426Y-11194074D03*
X96350000Y13220000D03*
X108030000Y11300000D03*
X101270000Y11270000D03*
X104090000Y16640000D03*
X93230500Y-12648093D03*
X92590000Y8510000D03*
X93297000Y-11300000D03*
X93297000Y7607729D03*
X109040000Y16350000D03*
X102188420Y16142736D03*
X100633000Y16240000D03*
X100930000Y21160000D03*
X98560000Y21120000D03*
X107220000Y17560000D03*
D19*
G36*
X84767293Y-90514744D02*
G01*
X85833829Y-91261541D01*
X85834320Y-91264326D01*
X85782509Y-91338320D01*
X85259596Y-92085117D01*
X85257784Y-92085962D01*
X85256811Y-92085608D01*
X84190275Y-91338811D01*
X84189900Y-91336682D01*
X84194207Y-91336682D01*
X85257467Y-92081184D01*
X85779233Y-91336026D01*
X85829897Y-91263670D01*
X84766637Y-90519168D01*
X84244871Y-91264326D01*
X84194207Y-91336682D01*
X84189900Y-91336682D01*
X84189784Y-91336026D01*
X84241595Y-91262032D01*
X84764508Y-90515235D01*
X84766320Y-90514390D01*
X84767293Y-90514744D01*
G37*
G36*
X86660095Y-87811542D02*
G01*
X87726631Y-88558339D01*
X87727122Y-88561124D01*
X87675311Y-88635118D01*
X87152398Y-89381915D01*
X87150586Y-89382760D01*
X87149613Y-89382406D01*
X86083077Y-88635609D01*
X86082702Y-88633480D01*
X86087009Y-88633480D01*
X87150269Y-89377982D01*
X87672035Y-88632824D01*
X87722699Y-88560468D01*
X86659439Y-87815966D01*
X86137673Y-88561124D01*
X86087009Y-88633480D01*
X86082702Y-88633480D01*
X86082586Y-88632824D01*
X86134397Y-88558830D01*
X86657310Y-87812033D01*
X86659122Y-87811188D01*
X86660095Y-87811542D01*
G37*
G36*
X129991288Y-81045489D02*
G01*
X130514201Y-81792286D01*
X130566012Y-81866280D01*
X130565521Y-81869065D01*
X129498985Y-82615862D01*
X129496993Y-82616037D01*
X129496200Y-82615371D01*
X128973287Y-81868574D01*
X128921476Y-81794580D01*
X128921591Y-81793924D01*
X128925899Y-81793924D01*
X128976563Y-81866280D01*
X129498329Y-82611438D01*
X130561589Y-81866936D01*
X130510925Y-81794580D01*
X129989159Y-81049422D01*
X128925899Y-81793924D01*
X128921591Y-81793924D01*
X128921967Y-81791795D01*
X129988503Y-81044998D01*
X129990495Y-81044823D01*
X129991288Y-81045489D01*
G37*
G36*
X128098486Y-78342287D02*
G01*
X128621399Y-79089084D01*
X128673210Y-79163078D01*
X128672719Y-79165863D01*
X127606183Y-79912660D01*
X127604191Y-79912835D01*
X127603398Y-79912169D01*
X127080485Y-79165372D01*
X127028674Y-79091378D01*
X127028789Y-79090722D01*
X127033097Y-79090722D01*
X127083761Y-79163078D01*
X127605527Y-79908236D01*
X128668787Y-79163734D01*
X128618123Y-79091378D01*
X128096357Y-78346220D01*
X127033097Y-79090722D01*
X127028789Y-79090722D01*
X127029165Y-79088593D01*
X128095701Y-78341796D01*
X128097693Y-78341621D01*
X128098486Y-78342287D01*
G37*
G36*
X102527028Y-62389495D02*
G01*
X102526759Y-62391124D01*
X102524405Y-62394647D01*
X102512992Y-62416000D01*
X102505992Y-62439075D01*
X102503629Y-62463066D01*
X102505992Y-62487057D01*
X102512992Y-62510132D01*
X102524357Y-62531396D01*
X102539652Y-62550033D01*
X102558289Y-62565328D01*
X102579553Y-62576693D01*
X102602628Y-62583693D01*
X102626619Y-62586056D01*
X102650610Y-62583693D01*
X102671653Y-62577309D01*
X102673601Y-62577763D01*
X102674182Y-62579677D01*
X102673345Y-62580886D01*
X102593443Y-62634276D01*
X102526318Y-62701401D01*
X102524386Y-62701919D01*
X102522972Y-62700505D01*
X102523241Y-62698876D01*
X102525595Y-62695353D01*
X102537008Y-62674000D01*
X102544008Y-62650925D01*
X102546371Y-62626934D01*
X102544008Y-62602943D01*
X102537008Y-62579868D01*
X102525643Y-62558604D01*
X102510348Y-62539967D01*
X102491711Y-62524672D01*
X102470447Y-62513307D01*
X102447372Y-62506307D01*
X102423381Y-62503944D01*
X102399390Y-62506307D01*
X102378347Y-62512691D01*
X102376399Y-62512237D01*
X102375818Y-62510323D01*
X102376655Y-62509114D01*
X102456557Y-62455724D01*
X102523682Y-62388599D01*
X102525614Y-62388081D01*
X102527028Y-62389495D01*
G37*
G36*
X100074545Y-59373790D02*
G01*
X100074515Y-59375618D01*
X100065949Y-59391645D01*
X100058949Y-59414720D01*
X100056586Y-59438711D01*
X100058949Y-59462702D01*
X100065949Y-59485777D01*
X100077315Y-59507041D01*
X100092610Y-59525677D01*
X100111247Y-59540973D01*
X100132511Y-59552337D01*
X100155586Y-59559337D01*
X100179577Y-59561700D01*
X100202235Y-59559468D01*
X100204057Y-59560293D01*
X100204253Y-59562283D01*
X100203196Y-59563306D01*
X100114777Y-59599930D01*
X100033443Y-59654276D01*
X99964276Y-59723443D01*
X99948912Y-59746436D01*
X99947118Y-59747321D01*
X99945455Y-59746210D01*
X99945485Y-59744382D01*
X99954051Y-59728355D01*
X99961051Y-59705280D01*
X99963414Y-59681289D01*
X99961051Y-59657298D01*
X99954051Y-59634223D01*
X99942685Y-59612959D01*
X99927390Y-59594323D01*
X99908753Y-59579027D01*
X99887489Y-59567663D01*
X99864414Y-59560663D01*
X99840423Y-59558300D01*
X99817765Y-59560532D01*
X99815943Y-59559707D01*
X99815747Y-59557717D01*
X99816804Y-59556694D01*
X99905223Y-59520070D01*
X99986557Y-59465724D01*
X100055724Y-59396557D01*
X100071088Y-59373564D01*
X100072882Y-59372679D01*
X100074545Y-59373790D01*
G37*
G36*
X114119732Y-56684692D02*
G01*
X114132175Y-56714732D01*
X114186521Y-56796066D01*
X114255688Y-56865233D01*
X114337022Y-56919579D01*
X114427394Y-56957012D01*
X114477303Y-56966940D01*
X114478807Y-56968259D01*
X114478417Y-56970221D01*
X114476717Y-56970892D01*
X114458629Y-56969110D01*
X114434638Y-56971473D01*
X114411563Y-56978473D01*
X114390300Y-56989839D01*
X114371663Y-57005134D01*
X114356368Y-57023771D01*
X114345003Y-57045035D01*
X114338003Y-57068110D01*
X114335640Y-57092101D01*
X114338003Y-57116092D01*
X114343275Y-57133471D01*
X114342821Y-57135419D01*
X114340907Y-57136000D01*
X114339513Y-57134817D01*
X114327070Y-57104777D01*
X114272724Y-57023443D01*
X114203557Y-56954276D01*
X114122223Y-56899930D01*
X114031851Y-56862497D01*
X113981942Y-56852569D01*
X113980438Y-56851250D01*
X113980828Y-56849288D01*
X113982528Y-56848617D01*
X114000616Y-56850399D01*
X114024607Y-56848036D01*
X114047682Y-56841036D01*
X114068945Y-56829670D01*
X114087582Y-56814375D01*
X114102877Y-56795738D01*
X114114242Y-56774474D01*
X114121242Y-56751399D01*
X114123605Y-56727408D01*
X114121242Y-56703417D01*
X114115970Y-56686038D01*
X114116424Y-56684090D01*
X114118338Y-56683509D01*
X114119732Y-56684692D01*
G37*
G36*
X114709186Y-55771467D02*
G01*
X114753443Y-55815724D01*
X114834777Y-55870070D01*
X114925149Y-55907503D01*
X115021200Y-55926610D01*
X115022704Y-55927929D01*
X115022314Y-55929891D01*
X115021006Y-55930562D01*
X115002764Y-55932358D01*
X114979689Y-55939358D01*
X114958425Y-55950723D01*
X114939788Y-55966018D01*
X114924493Y-55984655D01*
X114913128Y-56005919D01*
X114906128Y-56028994D01*
X114903765Y-56052985D01*
X114906128Y-56076976D01*
X114913128Y-56100051D01*
X114924493Y-56121315D01*
X114936019Y-56135359D01*
X114936345Y-56137333D01*
X114934799Y-56138601D01*
X114933059Y-56138042D01*
X114888802Y-56093785D01*
X114807468Y-56039439D01*
X114717096Y-56002006D01*
X114621045Y-55982899D01*
X114619541Y-55981580D01*
X114619931Y-55979618D01*
X114621239Y-55978947D01*
X114639481Y-55977151D01*
X114662556Y-55970151D01*
X114683820Y-55958786D01*
X114702457Y-55943491D01*
X114717752Y-55924854D01*
X114729117Y-55903590D01*
X114736117Y-55880515D01*
X114738480Y-55856524D01*
X114736117Y-55832533D01*
X114729117Y-55809458D01*
X114717752Y-55788194D01*
X114706226Y-55774150D01*
X114705900Y-55772176D01*
X114707446Y-55770908D01*
X114709186Y-55771467D01*
G37*
G36*
X117380607Y-11621732D02*
G01*
X117388075Y-11659273D01*
X117425508Y-11749645D01*
X117479854Y-11830979D01*
X117549021Y-11900146D01*
X117630355Y-11954492D01*
X117671844Y-11971678D01*
X117673062Y-11973265D01*
X117672297Y-11975113D01*
X117670498Y-11975440D01*
X117653108Y-11970164D01*
X117629116Y-11967801D01*
X117605125Y-11970164D01*
X117582050Y-11977164D01*
X117560787Y-11988529D01*
X117542150Y-12003825D01*
X117526855Y-12022462D01*
X117515490Y-12043725D01*
X117508490Y-12066800D01*
X117506127Y-12090792D01*
X117507908Y-12108868D01*
X117507083Y-12110690D01*
X117505093Y-12110886D01*
X117503956Y-12109454D01*
X117496488Y-12071913D01*
X117459055Y-11981541D01*
X117404709Y-11900207D01*
X117335542Y-11831040D01*
X117254208Y-11776694D01*
X117212719Y-11759508D01*
X117211501Y-11757921D01*
X117212266Y-11756073D01*
X117214065Y-11755746D01*
X117231455Y-11761022D01*
X117255447Y-11763385D01*
X117279438Y-11761022D01*
X117302513Y-11754022D01*
X117323776Y-11742657D01*
X117342413Y-11727361D01*
X117357708Y-11708724D01*
X117369073Y-11687461D01*
X117376073Y-11664386D01*
X117378436Y-11640394D01*
X117376655Y-11622318D01*
X117377480Y-11620496D01*
X117379470Y-11620300D01*
X117380607Y-11621732D01*
G37*
G36*
X110882062Y-6520654D02*
G01*
X110882389Y-6522452D01*
X110877116Y-6539839D01*
X110874752Y-6563831D01*
X110877115Y-6587822D01*
X110884115Y-6610897D01*
X110895480Y-6632160D01*
X110910775Y-6650797D01*
X110929412Y-6666093D01*
X110950676Y-6677458D01*
X110973751Y-6684458D01*
X110997742Y-6686821D01*
X111021733Y-6684458D01*
X111044808Y-6677458D01*
X111059759Y-6669467D01*
X111059935Y-6669384D01*
X111060494Y-6669152D01*
X111062477Y-6669411D01*
X111063244Y-6671259D01*
X111062372Y-6672662D01*
X110983443Y-6725402D01*
X110914276Y-6794569D01*
X110859930Y-6875903D01*
X110839948Y-6924145D01*
X110838361Y-6925363D01*
X110836513Y-6924598D01*
X110836186Y-6922800D01*
X110841459Y-6905413D01*
X110843823Y-6881421D01*
X110841460Y-6857430D01*
X110834460Y-6834355D01*
X110823095Y-6813092D01*
X110807800Y-6794455D01*
X110789163Y-6779159D01*
X110767899Y-6767794D01*
X110744824Y-6760794D01*
X110720833Y-6758431D01*
X110696842Y-6760794D01*
X110673767Y-6767794D01*
X110658816Y-6775785D01*
X110658640Y-6775868D01*
X110658081Y-6776100D01*
X110656098Y-6775841D01*
X110655331Y-6773993D01*
X110656203Y-6772590D01*
X110735132Y-6719850D01*
X110804299Y-6650683D01*
X110858645Y-6569349D01*
X110878627Y-6521107D01*
X110880214Y-6519889D01*
X110882062Y-6520654D01*
G37*
G36*
X110158476Y-5684485D02*
G01*
X110158803Y-5686284D01*
X110153528Y-5703672D01*
X110151165Y-5727663D01*
X110153528Y-5751654D01*
X110160528Y-5774729D01*
X110171893Y-5795992D01*
X110187188Y-5814629D01*
X110205825Y-5829925D01*
X110227089Y-5841290D01*
X110250164Y-5848290D01*
X110274155Y-5850653D01*
X110292237Y-5848872D01*
X110294059Y-5849697D01*
X110294255Y-5851687D01*
X110292823Y-5852824D01*
X110273724Y-5856623D01*
X110183352Y-5894056D01*
X110102018Y-5948402D01*
X110032851Y-6017569D01*
X109978505Y-6098903D01*
X109953534Y-6159188D01*
X109951947Y-6160406D01*
X109950099Y-6159641D01*
X109949772Y-6157842D01*
X109955047Y-6140454D01*
X109957410Y-6116463D01*
X109955047Y-6092472D01*
X109948047Y-6069397D01*
X109936682Y-6048134D01*
X109921387Y-6029497D01*
X109902750Y-6014201D01*
X109881486Y-6002836D01*
X109858411Y-5995836D01*
X109834420Y-5993473D01*
X109816338Y-5995254D01*
X109814516Y-5994429D01*
X109814320Y-5992439D01*
X109815752Y-5991302D01*
X109834851Y-5987503D01*
X109925223Y-5950070D01*
X110006557Y-5895724D01*
X110075724Y-5826557D01*
X110130070Y-5745223D01*
X110155041Y-5684938D01*
X110156628Y-5683720D01*
X110158476Y-5684485D01*
G37*
G36*
X91164404Y-5655813D02*
G01*
X91164374Y-5657641D01*
X91155812Y-5673660D01*
X91148812Y-5696735D01*
X91146449Y-5720726D01*
X91148812Y-5744717D01*
X91155812Y-5767792D01*
X91167177Y-5789056D01*
X91182472Y-5807692D01*
X91201109Y-5822988D01*
X91222373Y-5834353D01*
X91245448Y-5841353D01*
X91269439Y-5843716D01*
X91293524Y-5841343D01*
X91301329Y-5839791D01*
X91303223Y-5840434D01*
X91303613Y-5842396D01*
X91302484Y-5843601D01*
X91214777Y-5879930D01*
X91133443Y-5934276D01*
X91064276Y-6003443D01*
X91038905Y-6041413D01*
X91037111Y-6042298D01*
X91035448Y-6041187D01*
X91035478Y-6039359D01*
X91044040Y-6023340D01*
X91051040Y-6000265D01*
X91053403Y-5976274D01*
X91051040Y-5952283D01*
X91044040Y-5929208D01*
X91032675Y-5907944D01*
X91017380Y-5889308D01*
X90998743Y-5874012D01*
X90977479Y-5862647D01*
X90954404Y-5855647D01*
X90930413Y-5853284D01*
X90906328Y-5855657D01*
X90898523Y-5857209D01*
X90896629Y-5856566D01*
X90896239Y-5854604D01*
X90897368Y-5853399D01*
X90985075Y-5817070D01*
X91066409Y-5762724D01*
X91135576Y-5693557D01*
X91160947Y-5655587D01*
X91162741Y-5654702D01*
X91164404Y-5655813D01*
G37*
G36*
X107156404Y229974D02*
G01*
X107172226Y191777D01*
X107226572Y110443D01*
X107295739Y41276D01*
X107360151Y-1763D01*
X107361036Y-3557D01*
X107359925Y-5220D01*
X107358097Y-5190D01*
X107342072Y3375D01*
X107318997Y10375D01*
X107295006Y12738D01*
X107271015Y10375D01*
X107247940Y3375D01*
X107226677Y-7991D01*
X107208040Y-23286D01*
X107192745Y-41923D01*
X107181380Y-63187D01*
X107174380Y-86262D01*
X107172017Y-110253D01*
X107174380Y-134244D01*
X107179654Y-151628D01*
X107179200Y-153576D01*
X107177286Y-154157D01*
X107175892Y-152974D01*
X107160070Y-114777D01*
X107105724Y-33443D01*
X107036557Y35724D01*
X106972145Y78763D01*
X106971260Y80557D01*
X106972371Y82220D01*
X106974199Y82190D01*
X106990224Y73625D01*
X107013299Y66625D01*
X107037290Y64262D01*
X107061281Y66625D01*
X107084356Y73625D01*
X107105619Y84991D01*
X107124256Y100286D01*
X107139551Y118923D01*
X107150916Y140187D01*
X107157916Y163262D01*
X107160279Y187253D01*
X107157916Y211244D01*
X107152642Y228628D01*
X107153096Y230576D01*
X107155010Y231157D01*
X107156404Y229974D01*
G37*
G36*
X93031923Y8272150D02*
G01*
X93031977Y8270500D01*
X93029930Y8265558D01*
X93029846Y8265380D01*
X93026289Y8258725D01*
X93019294Y8235653D01*
X93016933Y8211659D01*
X93019299Y8187668D01*
X93026302Y8164594D01*
X93037669Y8143332D01*
X93052967Y8124697D01*
X93071606Y8109405D01*
X93092872Y8098040D01*
X93115944Y8091045D01*
X93139938Y8088684D01*
X93157998Y8090464D01*
X93159820Y8089639D01*
X93160016Y8087649D01*
X93158584Y8086512D01*
X93152149Y8085232D01*
X93061777Y8047799D01*
X92980443Y7993453D01*
X92911276Y7924286D01*
X92858534Y7845353D01*
X92856740Y7844468D01*
X92855077Y7845579D01*
X92855023Y7847229D01*
X92857070Y7852171D01*
X92857154Y7852349D01*
X92860711Y7859004D01*
X92867706Y7882076D01*
X92870067Y7906070D01*
X92867701Y7930061D01*
X92860698Y7953135D01*
X92849331Y7974397D01*
X92834033Y7993032D01*
X92815394Y8008324D01*
X92794128Y8019689D01*
X92771056Y8026684D01*
X92747062Y8029045D01*
X92729002Y8027265D01*
X92727180Y8028090D01*
X92726984Y8030080D01*
X92728416Y8031217D01*
X92734851Y8032497D01*
X92825223Y8069930D01*
X92906557Y8124276D01*
X92975724Y8193443D01*
X93028466Y8272376D01*
X93030260Y8273261D01*
X93031923Y8272150D01*
G37*
G36*
X107705732Y13412000D02*
G01*
X107706000Y13411000D01*
X107706000Y12249000D01*
X107705000Y12247268D01*
X107704000Y12247000D01*
X107506000Y12247000D01*
X107504268Y12248000D01*
X107504000Y12249000D01*
X107504000Y13411000D01*
X107505000Y13412732D01*
X107506000Y13413000D01*
X107704000Y13413000D01*
X107705732Y13412000D01*
G37*
G36*
X108655732Y13412000D02*
G01*
X108656000Y13411000D01*
X108656000Y12249000D01*
X108655000Y12247268D01*
X108654000Y12247000D01*
X108456000Y12247000D01*
X108454268Y12248000D01*
X108454000Y12249000D01*
X108454000Y13411000D01*
X108455000Y13412732D01*
X108456000Y13413000D01*
X108654000Y13413000D01*
X108655732Y13412000D01*
G37*
G36*
X108655732Y15612000D02*
G01*
X108656000Y15611000D01*
X108656000Y14449000D01*
X108655000Y14447268D01*
X108654000Y14447000D01*
X108456000Y14447000D01*
X108454268Y14448000D01*
X108454000Y14449000D01*
X108454000Y15611000D01*
X108455000Y15612732D01*
X108456000Y15613000D01*
X108654000Y15613000D01*
X108655732Y15612000D01*
G37*
G36*
X107705732Y15612000D02*
G01*
X107706000Y15611000D01*
X107706000Y14449000D01*
X107705000Y14447268D01*
X107704000Y14447000D01*
X107506000Y14447000D01*
X107504268Y14448000D01*
X107504000Y14449000D01*
X107504000Y15611000D01*
X107505000Y15612732D01*
X107506000Y15613000D01*
X107704000Y15613000D01*
X107705732Y15612000D01*
G37*
G36*
X101211732Y19101000D02*
G01*
X101212000Y19100000D01*
X101212000Y17550000D01*
X101211000Y17548268D01*
X101210000Y17548000D01*
X101110000Y17548000D01*
X101108268Y17549000D01*
X101108000Y17550000D01*
X101108000Y19100000D01*
X101109000Y19101732D01*
X101110000Y19102000D01*
X101210000Y19102000D01*
X101211732Y19101000D01*
G37*
G36*
X99211732Y19101000D02*
G01*
X99212000Y19100000D01*
X99212000Y17550000D01*
X99211000Y17548268D01*
X99210000Y17548000D01*
X99110000Y17548000D01*
X99108268Y17549000D01*
X99108000Y17550000D01*
X99108000Y19100000D01*
X99109000Y19101732D01*
X99110000Y19102000D01*
X99210000Y19102000D01*
X99211732Y19101000D01*
G37*
G36*
X102211732Y19101000D02*
G01*
X102212000Y19100000D01*
X102212000Y17550000D01*
X102211000Y17548268D01*
X102210000Y17548000D01*
X102110000Y17548000D01*
X102108268Y17549000D01*
X102108000Y17550000D01*
X102108000Y19100000D01*
X102109000Y19101732D01*
X102110000Y19102000D01*
X102210000Y19102000D01*
X102211732Y19101000D01*
G37*
G36*
X102761732Y19101000D02*
G01*
X102762000Y19100000D01*
X102762000Y17550000D01*
X102761000Y17548268D01*
X102760000Y17548000D01*
X102610000Y17548000D01*
X102608268Y17549000D01*
X102608000Y17550000D01*
X102608000Y19100000D01*
X102609000Y19101732D01*
X102610000Y19102000D01*
X102760000Y19102000D01*
X102761732Y19101000D01*
G37*
G36*
X100711732Y19101000D02*
G01*
X100712000Y19100000D01*
X100712000Y17550000D01*
X100711000Y17548268D01*
X100710000Y17548000D01*
X100610000Y17548000D01*
X100608268Y17549000D01*
X100608000Y17550000D01*
X100608000Y19100000D01*
X100609000Y19101732D01*
X100610000Y19102000D01*
X100710000Y19102000D01*
X100711732Y19101000D01*
G37*
G36*
X99711732Y19101000D02*
G01*
X99712000Y19100000D01*
X99712000Y17550000D01*
X99711000Y17548268D01*
X99710000Y17548000D01*
X99610000Y17548000D01*
X99608268Y17549000D01*
X99608000Y17550000D01*
X99608000Y19100000D01*
X99609000Y19101732D01*
X99610000Y19102000D01*
X99710000Y19102000D01*
X99711732Y19101000D01*
G37*
G36*
X103536732Y19101000D02*
G01*
X103537000Y19100000D01*
X103537000Y17550000D01*
X103536000Y17548268D01*
X103535000Y17548000D01*
X103460000Y17548000D01*
X103458268Y17549000D01*
X103458000Y17550000D01*
X103458000Y19100000D01*
X103459000Y19101732D01*
X103460000Y19102000D01*
X103535000Y19102000D01*
X103536732Y19101000D01*
G37*
G36*
X98711732Y19101000D02*
G01*
X98712000Y19100000D01*
X98712000Y17550000D01*
X98711000Y17548268D01*
X98710000Y17548000D01*
X98560000Y17548000D01*
X98558268Y17549000D01*
X98558000Y17550000D01*
X98558000Y19100000D01*
X98559000Y19101732D01*
X98560000Y19102000D01*
X98710000Y19102000D01*
X98711732Y19101000D01*
G37*
G36*
X97861732Y19101000D02*
G01*
X97862000Y19100000D01*
X97862000Y17550000D01*
X97861000Y17548268D01*
X97860000Y17548000D01*
X97785000Y17548000D01*
X97783268Y17549000D01*
X97783000Y17550000D01*
X97783000Y19100000D01*
X97784000Y19101732D01*
X97785000Y19102000D01*
X97860000Y19102000D01*
X97861732Y19101000D01*
G37*
G36*
X101711732Y19101000D02*
G01*
X101712000Y19100000D01*
X101712000Y17550000D01*
X101711000Y17548268D01*
X101710000Y17548000D01*
X101610000Y17548000D01*
X101608268Y17549000D01*
X101608000Y17550000D01*
X101608000Y19100000D01*
X101609000Y19101732D01*
X101610000Y19102000D01*
X101710000Y19102000D01*
X101711732Y19101000D01*
G37*
G36*
X100211732Y19101000D02*
G01*
X100212000Y19100000D01*
X100212000Y17550000D01*
X100211000Y17548268D01*
X100210000Y17548000D01*
X100110000Y17548000D01*
X100108268Y17549000D01*
X100108000Y17550000D01*
X100108000Y19100000D01*
X100109000Y19101732D01*
X100110000Y19102000D01*
X100210000Y19102000D01*
X100211732Y19101000D01*
G37*
G36*
X104431166Y19226625D02*
G01*
X104432001Y19224999D01*
X104432001Y18690094D01*
X104442539Y18583095D01*
X104472885Y18483059D01*
X104472431Y18481111D01*
X104470517Y18480530D01*
X104469207Y18481535D01*
X104468519Y18482822D01*
X104455070Y18502949D01*
X104438023Y18519996D01*
X104417976Y18533391D01*
X104395702Y18542617D01*
X104372052Y18547321D01*
X104347945Y18547321D01*
X104324295Y18542616D01*
X104302021Y18533390D01*
X104281974Y18519995D01*
X104264927Y18502948D01*
X104251532Y18482901D01*
X104242323Y18460670D01*
X104236978Y18424631D01*
X104235735Y18423064D01*
X104233757Y18423357D01*
X104233000Y18424924D01*
X104233000Y19100000D01*
X104234000Y19101732D01*
X104235000Y19102000D01*
X104304908Y19102000D01*
X104328993Y19104372D01*
X104352068Y19111372D01*
X104373332Y19122737D01*
X104391969Y19138032D01*
X104407264Y19156669D01*
X104418629Y19177933D01*
X104425629Y19201008D01*
X104428011Y19225195D01*
X104429176Y19226821D01*
X104431166Y19226625D01*
G37*
G36*
X96891990Y19225195D02*
G01*
X96894372Y19201008D01*
X96901372Y19177933D01*
X96912737Y19156669D01*
X96928032Y19138032D01*
X96946669Y19122737D01*
X96967933Y19111372D01*
X96991008Y19104372D01*
X97015093Y19102000D01*
X97085000Y19102000D01*
X97086732Y19101000D01*
X97087000Y19100000D01*
X97087000Y18424924D01*
X97086000Y18423192D01*
X97084000Y18423192D01*
X97083010Y18424728D01*
X97080628Y18448913D01*
X97073628Y18471988D01*
X97062263Y18493252D01*
X97046968Y18511889D01*
X97028331Y18527184D01*
X97007067Y18538549D01*
X96983992Y18545549D01*
X96960001Y18547912D01*
X96936010Y18545549D01*
X96912935Y18538549D01*
X96891671Y18527184D01*
X96873070Y18511919D01*
X96851459Y18482779D01*
X96850794Y18481534D01*
X96849096Y18480478D01*
X96847332Y18481421D01*
X96847116Y18483058D01*
X96877462Y18583095D01*
X96888000Y18690094D01*
X96888000Y19224999D01*
X96889000Y19226731D01*
X96891000Y19226731D01*
X96891990Y19225195D01*
G37*
M02*
