G04 #@! TF.GenerationSoftware,KiCad,Pcbnew,(5.1.9)-1*
G04 #@! TF.CreationDate,2021-05-05T21:11:48-07:00*
G04 #@! TF.ProjectId,euclid36,6575636c-6964-4333-962e-6b696361645f,1.2*
G04 #@! TF.SameCoordinates,PX2faf080PY2faf080*
G04 #@! TF.FileFunction,Copper,L2,Bot*
G04 #@! TF.FilePolarity,Positive*
%FSLAX46Y46*%
G04 Gerber Fmt 4.6, Leading zero omitted, Abs format (unit mm)*
G04 Created by KiCad (PCBNEW (5.1.9)-1) date 2021-05-05 21:11:48*
%MOMM*%
%LPD*%
G01*
G04 APERTURE LIST*
G04 #@! TA.AperFunction,ComponentPad*
%ADD10C,1.778000*%
G04 #@! TD*
G04 #@! TA.AperFunction,ComponentPad*
%ADD11C,2.286000*%
G04 #@! TD*
G04 #@! TA.AperFunction,ComponentPad*
%ADD12O,1.500000X3.000000*%
G04 #@! TD*
G04 #@! TA.AperFunction,ComponentPad*
%ADD13O,3.000000X1.500000*%
G04 #@! TD*
G04 #@! TA.AperFunction,SMDPad,CuDef*
%ADD14C,0.100000*%
G04 #@! TD*
G04 #@! TA.AperFunction,SMDPad,CuDef*
%ADD15R,1.400000X1.200000*%
G04 #@! TD*
G04 #@! TA.AperFunction,SMDPad,CuDef*
%ADD16R,0.600000X1.450000*%
G04 #@! TD*
G04 #@! TA.AperFunction,SMDPad,CuDef*
%ADD17R,0.300000X1.450000*%
G04 #@! TD*
G04 #@! TA.AperFunction,ComponentPad*
%ADD18O,1.000000X2.100000*%
G04 #@! TD*
G04 #@! TA.AperFunction,ComponentPad*
%ADD19O,1.000000X1.600000*%
G04 #@! TD*
G04 #@! TA.AperFunction,SMDPad,CuDef*
%ADD20R,0.500000X1.500000*%
G04 #@! TD*
G04 #@! TA.AperFunction,SMDPad,CuDef*
%ADD21R,1.500000X0.500000*%
G04 #@! TD*
G04 #@! TA.AperFunction,SMDPad,CuDef*
%ADD22R,0.650000X1.060000*%
G04 #@! TD*
G04 #@! TA.AperFunction,ComponentPad*
%ADD23C,0.100000*%
G04 #@! TD*
G04 #@! TA.AperFunction,ComponentPad*
%ADD24C,2.000000*%
G04 #@! TD*
G04 #@! TA.AperFunction,WasherPad*
%ADD25C,0.100000*%
G04 #@! TD*
G04 #@! TA.AperFunction,ComponentPad*
%ADD26C,1.397000*%
G04 #@! TD*
G04 #@! TA.AperFunction,SMDPad,CuDef*
%ADD27R,1.500000X1.000000*%
G04 #@! TD*
G04 #@! TA.AperFunction,ViaPad*
%ADD28C,0.900000*%
G04 #@! TD*
G04 #@! TA.AperFunction,Conductor*
%ADD29C,0.254000*%
G04 #@! TD*
G04 #@! TA.AperFunction,Conductor*
%ADD30C,0.381000*%
G04 #@! TD*
G04 APERTURE END LIST*
D10*
X98080000Y-26700000D03*
X100620000Y-26700000D03*
X103160000Y-26700000D03*
D11*
X107287500Y-44480000D03*
X93952500Y-44480000D03*
X93952500Y-29240000D03*
X107287500Y-29240000D03*
D10*
X90460000Y-39400000D03*
X90460000Y-36860000D03*
X90460000Y-34320000D03*
X108240000Y-40035000D03*
X108240000Y-33685000D03*
X113320000Y-40035000D03*
X113320000Y-33685000D03*
D12*
X98600000Y-100320000D03*
X100600000Y-100320000D03*
X102600000Y-100320000D03*
D13*
X109600000Y-93320000D03*
X109600000Y-89320000D03*
X109600000Y-91320000D03*
G04 #@! TA.AperFunction,SMDPad,CuDef*
D14*
G36*
X196888973Y-46865597D02*
G01*
X195729862Y-47176180D01*
X195496925Y-46306847D01*
X196656036Y-45996264D01*
X196888973Y-46865597D01*
G37*
G04 #@! TD.AperFunction*
G04 #@! TA.AperFunction,SMDPad,CuDef*
G36*
X197743075Y-50053153D02*
G01*
X196583964Y-50363736D01*
X196351027Y-49494403D01*
X197510138Y-49183820D01*
X197743075Y-50053153D01*
G37*
G04 #@! TD.AperFunction*
D15*
X102040000Y3270000D03*
X99840000Y3270000D03*
X99840000Y1570000D03*
X102040000Y1570000D03*
D16*
X103885000Y18325000D03*
X97435000Y18325000D03*
X103110000Y18325000D03*
X98210000Y18325000D03*
D17*
X98910000Y18325000D03*
X102410000Y18325000D03*
X99410000Y18325000D03*
X101910000Y18325000D03*
X99910000Y18325000D03*
X101410000Y18325000D03*
X100910000Y18325000D03*
X100410000Y18325000D03*
D18*
X96340000Y19240000D03*
X104980000Y19240000D03*
D19*
X96340000Y23420000D03*
X104980000Y23420000D03*
D20*
X97420000Y-14710000D03*
X98220000Y-14710000D03*
X99020000Y-14710000D03*
X99820000Y-14710000D03*
X100620000Y-14710000D03*
X101420000Y-14710000D03*
X102220000Y-14710000D03*
X103020000Y-14710000D03*
X103820000Y-14710000D03*
X104620000Y-14710000D03*
X105420000Y-14710000D03*
D21*
X107320000Y-12810000D03*
X107320000Y-12010000D03*
X107320000Y-11210000D03*
X107320000Y-10410000D03*
X107320000Y-9610000D03*
X107320000Y-8810000D03*
X107320000Y-8010000D03*
X107320000Y-7210000D03*
X107320000Y-6410000D03*
X107320000Y-5610000D03*
X107320000Y-4810000D03*
D20*
X105420000Y-2910000D03*
X104620000Y-2910000D03*
X103820000Y-2910000D03*
X103020000Y-2910000D03*
X102220000Y-2910000D03*
X101420000Y-2910000D03*
X100620000Y-2910000D03*
X99820000Y-2910000D03*
X99020000Y-2910000D03*
X98220000Y-2910000D03*
X97420000Y-2910000D03*
D21*
X95520000Y-4810000D03*
X95520000Y-5610000D03*
X95520000Y-6410000D03*
X95520000Y-7210000D03*
X95520000Y-8010000D03*
X95520000Y-8810000D03*
X95520000Y-9610000D03*
X95520000Y-10410000D03*
X95520000Y-11210000D03*
X95520000Y-12010000D03*
X95520000Y-12810000D03*
D22*
X108080000Y12830000D03*
X107130000Y12830000D03*
X109030000Y12830000D03*
X109030000Y15030000D03*
X108080000Y15030000D03*
X107130000Y15030000D03*
G04 #@! TA.AperFunction,ComponentPad*
D23*
G36*
X177581794Y-52186320D02*
G01*
X177064156Y-50254468D01*
X178996008Y-49736830D01*
X179513646Y-51668682D01*
X177581794Y-52186320D01*
G37*
G04 #@! TD.AperFunction*
D24*
X178935948Y-53376390D03*
X179582996Y-55791204D03*
G04 #@! TA.AperFunction,WasherPad*
D25*
G36*
X183444343Y-47406098D02*
G01*
X182926705Y-45474247D01*
X186017667Y-44646026D01*
X186535305Y-46577877D01*
X183444343Y-47406098D01*
G37*
G04 #@! TD.AperFunction*
G04 #@! TA.AperFunction,WasherPad*
G36*
X186343117Y-58224468D02*
G01*
X185825479Y-56292617D01*
X188916441Y-55464396D01*
X189434079Y-57396247D01*
X186343117Y-58224468D01*
G37*
G04 #@! TD.AperFunction*
D24*
X192294825Y-47208699D03*
X193588920Y-52038328D03*
G04 #@! TA.AperFunction,ComponentPad*
D23*
G36*
X22873345Y-55084097D02*
G01*
X22355707Y-57015949D01*
X20423855Y-56498311D01*
X20941493Y-54566459D01*
X22873345Y-55084097D01*
G37*
G04 #@! TD.AperFunction*
D24*
X22295648Y-53376390D03*
X22942695Y-50961575D03*
G04 #@! TA.AperFunction,WasherPad*
D25*
G36*
X15406117Y-56292617D02*
G01*
X14888479Y-58224468D01*
X11797517Y-57396247D01*
X12315155Y-55464396D01*
X15406117Y-56292617D01*
G37*
G04 #@! TD.AperFunction*
G04 #@! TA.AperFunction,WasherPad*
G36*
X18304891Y-45474247D02*
G01*
X17787253Y-47406098D01*
X14696291Y-46577877D01*
X15213929Y-44646026D01*
X18304891Y-45474247D01*
G37*
G04 #@! TD.AperFunction*
D24*
X7642676Y-52038328D03*
X8936771Y-47208699D03*
G04 #@! TA.AperFunction,SMDPad,CuDef*
G36*
G01*
X101590002Y14340000D02*
X100689998Y14340000D01*
G75*
G02*
X100440000Y14589998I0J249998D01*
G01*
X100440000Y15115002D01*
G75*
G02*
X100689998Y15365000I249998J0D01*
G01*
X101590002Y15365000D01*
G75*
G02*
X101840000Y15115002I0J-249998D01*
G01*
X101840000Y14589998D01*
G75*
G02*
X101590002Y14340000I-249998J0D01*
G01*
G37*
G04 #@! TD.AperFunction*
G04 #@! TA.AperFunction,SMDPad,CuDef*
G36*
G01*
X101590002Y12515000D02*
X100689998Y12515000D01*
G75*
G02*
X100440000Y12764998I0J249998D01*
G01*
X100440000Y13290002D01*
G75*
G02*
X100689998Y13540000I249998J0D01*
G01*
X101590002Y13540000D01*
G75*
G02*
X101840000Y13290002I0J-249998D01*
G01*
X101840000Y12764998D01*
G75*
G02*
X101590002Y12515000I-249998J0D01*
G01*
G37*
G04 #@! TD.AperFunction*
G04 #@! TA.AperFunction,SMDPad,CuDef*
G36*
G01*
X104500002Y14330000D02*
X103599998Y14330000D01*
G75*
G02*
X103350000Y14579998I0J249998D01*
G01*
X103350000Y15105002D01*
G75*
G02*
X103599998Y15355000I249998J0D01*
G01*
X104500002Y15355000D01*
G75*
G02*
X104750000Y15105002I0J-249998D01*
G01*
X104750000Y14579998D01*
G75*
G02*
X104500002Y14330000I-249998J0D01*
G01*
G37*
G04 #@! TD.AperFunction*
G04 #@! TA.AperFunction,SMDPad,CuDef*
G36*
G01*
X104500002Y12505000D02*
X103599998Y12505000D01*
G75*
G02*
X103350000Y12754998I0J249998D01*
G01*
X103350000Y13280002D01*
G75*
G02*
X103599998Y13530000I249998J0D01*
G01*
X104500002Y13530000D01*
G75*
G02*
X104750000Y13280002I0J-249998D01*
G01*
X104750000Y12754998D01*
G75*
G02*
X104500002Y12505000I-249998J0D01*
G01*
G37*
G04 #@! TD.AperFunction*
G04 #@! TA.AperFunction,SMDPad,CuDef*
G36*
G01*
X99010002Y14340000D02*
X98109998Y14340000D01*
G75*
G02*
X97860000Y14589998I0J249998D01*
G01*
X97860000Y15115002D01*
G75*
G02*
X98109998Y15365000I249998J0D01*
G01*
X99010002Y15365000D01*
G75*
G02*
X99260000Y15115002I0J-249998D01*
G01*
X99260000Y14589998D01*
G75*
G02*
X99010002Y14340000I-249998J0D01*
G01*
G37*
G04 #@! TD.AperFunction*
G04 #@! TA.AperFunction,SMDPad,CuDef*
G36*
G01*
X99010002Y12515000D02*
X98109998Y12515000D01*
G75*
G02*
X97860000Y12764998I0J249998D01*
G01*
X97860000Y13290002D01*
G75*
G02*
X98109998Y13540000I249998J0D01*
G01*
X99010002Y13540000D01*
G75*
G02*
X99260000Y13290002I0J-249998D01*
G01*
X99260000Y12764998D01*
G75*
G02*
X99010002Y12515000I-249998J0D01*
G01*
G37*
G04 #@! TD.AperFunction*
G04 #@! TA.AperFunction,SMDPad,CuDef*
G36*
G01*
X110130002Y9700000D02*
X109229998Y9700000D01*
G75*
G02*
X108980000Y9949998I0J249998D01*
G01*
X108980000Y10475002D01*
G75*
G02*
X109229998Y10725000I249998J0D01*
G01*
X110130002Y10725000D01*
G75*
G02*
X110380000Y10475002I0J-249998D01*
G01*
X110380000Y9949998D01*
G75*
G02*
X110130002Y9700000I-249998J0D01*
G01*
G37*
G04 #@! TD.AperFunction*
G04 #@! TA.AperFunction,SMDPad,CuDef*
G36*
G01*
X110130002Y7875000D02*
X109229998Y7875000D01*
G75*
G02*
X108980000Y8124998I0J249998D01*
G01*
X108980000Y8650002D01*
G75*
G02*
X109229998Y8900000I249998J0D01*
G01*
X110130002Y8900000D01*
G75*
G02*
X110380000Y8650002I0J-249998D01*
G01*
X110380000Y8124998D01*
G75*
G02*
X110130002Y7875000I-249998J0D01*
G01*
G37*
G04 #@! TD.AperFunction*
G04 #@! TA.AperFunction,SMDPad,CuDef*
G36*
G01*
X106890002Y9720000D02*
X105989998Y9720000D01*
G75*
G02*
X105740000Y9969998I0J249998D01*
G01*
X105740000Y10495002D01*
G75*
G02*
X105989998Y10745000I249998J0D01*
G01*
X106890002Y10745000D01*
G75*
G02*
X107140000Y10495002I0J-249998D01*
G01*
X107140000Y9969998D01*
G75*
G02*
X106890002Y9720000I-249998J0D01*
G01*
G37*
G04 #@! TD.AperFunction*
G04 #@! TA.AperFunction,SMDPad,CuDef*
G36*
G01*
X106890002Y7895000D02*
X105989998Y7895000D01*
G75*
G02*
X105740000Y8144998I0J249998D01*
G01*
X105740000Y8670002D01*
G75*
G02*
X105989998Y8920000I249998J0D01*
G01*
X106890002Y8920000D01*
G75*
G02*
X107140000Y8670002I0J-249998D01*
G01*
X107140000Y8144998D01*
G75*
G02*
X106890002Y7895000I-249998J0D01*
G01*
G37*
G04 #@! TD.AperFunction*
G04 #@! TA.AperFunction,SMDPad,CuDef*
G36*
G01*
X108720000Y20539998D02*
X108720000Y21440002D01*
G75*
G02*
X108969998Y21690000I249998J0D01*
G01*
X109495002Y21690000D01*
G75*
G02*
X109745000Y21440002I0J-249998D01*
G01*
X109745000Y20539998D01*
G75*
G02*
X109495002Y20290000I-249998J0D01*
G01*
X108969998Y20290000D01*
G75*
G02*
X108720000Y20539998I0J249998D01*
G01*
G37*
G04 #@! TD.AperFunction*
G04 #@! TA.AperFunction,SMDPad,CuDef*
G36*
G01*
X106895000Y20539998D02*
X106895000Y21440002D01*
G75*
G02*
X107144998Y21690000I249998J0D01*
G01*
X107670002Y21690000D01*
G75*
G02*
X107920000Y21440002I0J-249998D01*
G01*
X107920000Y20539998D01*
G75*
G02*
X107670002Y20290000I-249998J0D01*
G01*
X107144998Y20290000D01*
G75*
G02*
X106895000Y20539998I0J249998D01*
G01*
G37*
G04 #@! TD.AperFunction*
G04 #@! TA.AperFunction,SMDPad,CuDef*
G36*
G01*
X92039998Y1710000D02*
X92940002Y1710000D01*
G75*
G02*
X93190000Y1460002I0J-249998D01*
G01*
X93190000Y934998D01*
G75*
G02*
X92940002Y685000I-249998J0D01*
G01*
X92039998Y685000D01*
G75*
G02*
X91790000Y934998I0J249998D01*
G01*
X91790000Y1460002D01*
G75*
G02*
X92039998Y1710000I249998J0D01*
G01*
G37*
G04 #@! TD.AperFunction*
G04 #@! TA.AperFunction,SMDPad,CuDef*
G36*
G01*
X92039998Y3535000D02*
X92940002Y3535000D01*
G75*
G02*
X93190000Y3285002I0J-249998D01*
G01*
X93190000Y2759998D01*
G75*
G02*
X92940002Y2510000I-249998J0D01*
G01*
X92039998Y2510000D01*
G75*
G02*
X91790000Y2759998I0J249998D01*
G01*
X91790000Y3285002D01*
G75*
G02*
X92039998Y3535000I249998J0D01*
G01*
G37*
G04 #@! TD.AperFunction*
G04 #@! TA.AperFunction,SMDPad,CuDef*
G36*
G01*
X112210002Y-13580000D02*
X111309998Y-13580000D01*
G75*
G02*
X111060000Y-13330002I0J249998D01*
G01*
X111060000Y-12804998D01*
G75*
G02*
X111309998Y-12555000I249998J0D01*
G01*
X112210002Y-12555000D01*
G75*
G02*
X112460000Y-12804998I0J-249998D01*
G01*
X112460000Y-13330002D01*
G75*
G02*
X112210002Y-13580000I-249998J0D01*
G01*
G37*
G04 #@! TD.AperFunction*
G04 #@! TA.AperFunction,SMDPad,CuDef*
G36*
G01*
X112210002Y-15405000D02*
X111309998Y-15405000D01*
G75*
G02*
X111060000Y-15155002I0J249998D01*
G01*
X111060000Y-14629998D01*
G75*
G02*
X111309998Y-14380000I249998J0D01*
G01*
X112210002Y-14380000D01*
G75*
G02*
X112460000Y-14629998I0J-249998D01*
G01*
X112460000Y-15155002D01*
G75*
G02*
X112210002Y-15405000I-249998J0D01*
G01*
G37*
G04 #@! TD.AperFunction*
D26*
X118340000Y21870000D03*
X118340000Y19330000D03*
X118340000Y16790000D03*
X118340000Y14250000D03*
G04 #@! TA.AperFunction,SMDPad,CuDef*
D14*
G36*
X5810138Y-47606180D02*
G01*
X4651027Y-47295597D01*
X4883964Y-46426264D01*
X6043075Y-46736847D01*
X5810138Y-47606180D01*
G37*
G04 #@! TD.AperFunction*
G04 #@! TA.AperFunction,SMDPad,CuDef*
G36*
X4956036Y-50793736D02*
G01*
X3796925Y-50483153D01*
X4029862Y-49613820D01*
X5188973Y-49924403D01*
X4956036Y-50793736D01*
G37*
G04 #@! TD.AperFunction*
G04 #@! TA.AperFunction,SMDPad,CuDef*
G36*
G01*
X94830000Y15455000D02*
X94830000Y14505000D01*
G75*
G02*
X94580000Y14255000I-250000J0D01*
G01*
X94080000Y14255000D01*
G75*
G02*
X93830000Y14505000I0J250000D01*
G01*
X93830000Y15455000D01*
G75*
G02*
X94080000Y15705000I250000J0D01*
G01*
X94580000Y15705000D01*
G75*
G02*
X94830000Y15455000I0J-250000D01*
G01*
G37*
G04 #@! TD.AperFunction*
G04 #@! TA.AperFunction,SMDPad,CuDef*
G36*
G01*
X96730000Y15455000D02*
X96730000Y14505000D01*
G75*
G02*
X96480000Y14255000I-250000J0D01*
G01*
X95980000Y14255000D01*
G75*
G02*
X95730000Y14505000I0J250000D01*
G01*
X95730000Y15455000D01*
G75*
G02*
X95980000Y15705000I250000J0D01*
G01*
X96480000Y15705000D01*
G75*
G02*
X96730000Y15455000I0J-250000D01*
G01*
G37*
G04 #@! TD.AperFunction*
G04 #@! TA.AperFunction,SMDPad,CuDef*
G36*
G01*
X96565000Y2030000D02*
X97515000Y2030000D01*
G75*
G02*
X97765000Y1780000I0J-250000D01*
G01*
X97765000Y1105000D01*
G75*
G02*
X97515000Y855000I-250000J0D01*
G01*
X96565000Y855000D01*
G75*
G02*
X96315000Y1105000I0J250000D01*
G01*
X96315000Y1780000D01*
G75*
G02*
X96565000Y2030000I250000J0D01*
G01*
G37*
G04 #@! TD.AperFunction*
G04 #@! TA.AperFunction,SMDPad,CuDef*
G36*
G01*
X96565000Y4105000D02*
X97515000Y4105000D01*
G75*
G02*
X97765000Y3855000I0J-250000D01*
G01*
X97765000Y3180000D01*
G75*
G02*
X97515000Y2930000I-250000J0D01*
G01*
X96565000Y2930000D01*
G75*
G02*
X96315000Y3180000I0J250000D01*
G01*
X96315000Y3855000D01*
G75*
G02*
X96565000Y4105000I250000J0D01*
G01*
G37*
G04 #@! TD.AperFunction*
G04 #@! TA.AperFunction,SMDPad,CuDef*
G36*
G01*
X105455000Y3040000D02*
X104505000Y3040000D01*
G75*
G02*
X104255000Y3290000I0J250000D01*
G01*
X104255000Y3965000D01*
G75*
G02*
X104505000Y4215000I250000J0D01*
G01*
X105455000Y4215000D01*
G75*
G02*
X105705000Y3965000I0J-250000D01*
G01*
X105705000Y3290000D01*
G75*
G02*
X105455000Y3040000I-250000J0D01*
G01*
G37*
G04 #@! TD.AperFunction*
G04 #@! TA.AperFunction,SMDPad,CuDef*
G36*
G01*
X105455000Y965000D02*
X104505000Y965000D01*
G75*
G02*
X104255000Y1215000I0J250000D01*
G01*
X104255000Y1890000D01*
G75*
G02*
X104505000Y2140000I250000J0D01*
G01*
X105455000Y2140000D01*
G75*
G02*
X105705000Y1890000I0J-250000D01*
G01*
X105705000Y1215000D01*
G75*
G02*
X105455000Y965000I-250000J0D01*
G01*
G37*
G04 #@! TD.AperFunction*
G04 #@! TA.AperFunction,SMDPad,CuDef*
G36*
G01*
X93390000Y22145000D02*
X93390000Y21195000D01*
G75*
G02*
X93140000Y20945000I-250000J0D01*
G01*
X92640000Y20945000D01*
G75*
G02*
X92390000Y21195000I0J250000D01*
G01*
X92390000Y22145000D01*
G75*
G02*
X92640000Y22395000I250000J0D01*
G01*
X93140000Y22395000D01*
G75*
G02*
X93390000Y22145000I0J-250000D01*
G01*
G37*
G04 #@! TD.AperFunction*
G04 #@! TA.AperFunction,SMDPad,CuDef*
G36*
G01*
X95290000Y22145000D02*
X95290000Y21195000D01*
G75*
G02*
X95040000Y20945000I-250000J0D01*
G01*
X94540000Y20945000D01*
G75*
G02*
X94290000Y21195000I0J250000D01*
G01*
X94290000Y22145000D01*
G75*
G02*
X94540000Y22395000I250000J0D01*
G01*
X95040000Y22395000D01*
G75*
G02*
X95290000Y22145000I0J-250000D01*
G01*
G37*
G04 #@! TD.AperFunction*
G04 #@! TA.AperFunction,SMDPad,CuDef*
G36*
G01*
X97000000Y-18355000D02*
X97000000Y-17405000D01*
G75*
G02*
X97250000Y-17155000I250000J0D01*
G01*
X97925000Y-17155000D01*
G75*
G02*
X98175000Y-17405000I0J-250000D01*
G01*
X98175000Y-18355000D01*
G75*
G02*
X97925000Y-18605000I-250000J0D01*
G01*
X97250000Y-18605000D01*
G75*
G02*
X97000000Y-18355000I0J250000D01*
G01*
G37*
G04 #@! TD.AperFunction*
G04 #@! TA.AperFunction,SMDPad,CuDef*
G36*
G01*
X94925000Y-18355000D02*
X94925000Y-17405000D01*
G75*
G02*
X95175000Y-17155000I250000J0D01*
G01*
X95850000Y-17155000D01*
G75*
G02*
X96100000Y-17405000I0J-250000D01*
G01*
X96100000Y-18355000D01*
G75*
G02*
X95850000Y-18605000I-250000J0D01*
G01*
X95175000Y-18605000D01*
G75*
G02*
X94925000Y-18355000I0J250000D01*
G01*
G37*
G04 #@! TD.AperFunction*
G04 #@! TA.AperFunction,SMDPad,CuDef*
G36*
G01*
X111035000Y-2210000D02*
X110085000Y-2210000D01*
G75*
G02*
X109835000Y-1960000I0J250000D01*
G01*
X109835000Y-1285000D01*
G75*
G02*
X110085000Y-1035000I250000J0D01*
G01*
X111035000Y-1035000D01*
G75*
G02*
X111285000Y-1285000I0J-250000D01*
G01*
X111285000Y-1960000D01*
G75*
G02*
X111035000Y-2210000I-250000J0D01*
G01*
G37*
G04 #@! TD.AperFunction*
G04 #@! TA.AperFunction,SMDPad,CuDef*
G36*
G01*
X111035000Y-4285000D02*
X110085000Y-4285000D01*
G75*
G02*
X109835000Y-4035000I0J250000D01*
G01*
X109835000Y-3360000D01*
G75*
G02*
X110085000Y-3110000I250000J0D01*
G01*
X111035000Y-3110000D01*
G75*
G02*
X111285000Y-3360000I0J-250000D01*
G01*
X111285000Y-4035000D01*
G75*
G02*
X111035000Y-4285000I-250000J0D01*
G01*
G37*
G04 #@! TD.AperFunction*
G04 #@! TA.AperFunction,SMDPad,CuDef*
G36*
G01*
X106620000Y-17415000D02*
X106620000Y-18365000D01*
G75*
G02*
X106370000Y-18615000I-250000J0D01*
G01*
X105695000Y-18615000D01*
G75*
G02*
X105445000Y-18365000I0J250000D01*
G01*
X105445000Y-17415000D01*
G75*
G02*
X105695000Y-17165000I250000J0D01*
G01*
X106370000Y-17165000D01*
G75*
G02*
X106620000Y-17415000I0J-250000D01*
G01*
G37*
G04 #@! TD.AperFunction*
G04 #@! TA.AperFunction,SMDPad,CuDef*
G36*
G01*
X108695000Y-17415000D02*
X108695000Y-18365000D01*
G75*
G02*
X108445000Y-18615000I-250000J0D01*
G01*
X107770000Y-18615000D01*
G75*
G02*
X107520000Y-18365000I0J250000D01*
G01*
X107520000Y-17415000D01*
G75*
G02*
X107770000Y-17165000I250000J0D01*
G01*
X108445000Y-17165000D01*
G75*
G02*
X108695000Y-17415000I0J-250000D01*
G01*
G37*
G04 #@! TD.AperFunction*
G04 #@! TA.AperFunction,SMDPad,CuDef*
G36*
G01*
X92865000Y-15320000D02*
X91915000Y-15320000D01*
G75*
G02*
X91665000Y-15070000I0J250000D01*
G01*
X91665000Y-14395000D01*
G75*
G02*
X91915000Y-14145000I250000J0D01*
G01*
X92865000Y-14145000D01*
G75*
G02*
X93115000Y-14395000I0J-250000D01*
G01*
X93115000Y-15070000D01*
G75*
G02*
X92865000Y-15320000I-250000J0D01*
G01*
G37*
G04 #@! TD.AperFunction*
G04 #@! TA.AperFunction,SMDPad,CuDef*
G36*
G01*
X92865000Y-17395000D02*
X91915000Y-17395000D01*
G75*
G02*
X91665000Y-17145000I0J250000D01*
G01*
X91665000Y-16470000D01*
G75*
G02*
X91915000Y-16220000I250000J0D01*
G01*
X92865000Y-16220000D01*
G75*
G02*
X93115000Y-16470000I0J-250000D01*
G01*
X93115000Y-17145000D01*
G75*
G02*
X92865000Y-17395000I-250000J0D01*
G01*
G37*
G04 #@! TD.AperFunction*
G04 #@! TA.AperFunction,SMDPad,CuDef*
G36*
G01*
X90775000Y-10110000D02*
X91725000Y-10110000D01*
G75*
G02*
X91975000Y-10360000I0J-250000D01*
G01*
X91975000Y-11035000D01*
G75*
G02*
X91725000Y-11285000I-250000J0D01*
G01*
X90775000Y-11285000D01*
G75*
G02*
X90525000Y-11035000I0J250000D01*
G01*
X90525000Y-10360000D01*
G75*
G02*
X90775000Y-10110000I250000J0D01*
G01*
G37*
G04 #@! TD.AperFunction*
G04 #@! TA.AperFunction,SMDPad,CuDef*
G36*
G01*
X90775000Y-8035000D02*
X91725000Y-8035000D01*
G75*
G02*
X91975000Y-8285000I0J-250000D01*
G01*
X91975000Y-8960000D01*
G75*
G02*
X91725000Y-9210000I-250000J0D01*
G01*
X90775000Y-9210000D01*
G75*
G02*
X90525000Y-8960000I0J250000D01*
G01*
X90525000Y-8285000D01*
G75*
G02*
X90775000Y-8035000I250000J0D01*
G01*
G37*
G04 #@! TD.AperFunction*
D27*
X134440000Y10240000D03*
X134440000Y13440000D03*
X139340000Y10240000D03*
X139340000Y13440000D03*
X184590000Y5070000D03*
X184590000Y8270000D03*
X189490000Y5070000D03*
X189490000Y8270000D03*
G04 #@! TA.AperFunction,SMDPad,CuDef*
D14*
G36*
X114447219Y-88952095D02*
G01*
X113013278Y-86904215D01*
X115102115Y-85441595D01*
X116536056Y-87489475D01*
X114447219Y-88952095D01*
G37*
G04 #@! TD.AperFunction*
G04 #@! TA.AperFunction,SMDPad,CuDef*
G36*
X123579513Y-79456826D02*
G01*
X122145572Y-77408946D01*
X124234409Y-75946326D01*
X125668350Y-77994206D01*
X123579513Y-79456826D01*
G37*
G04 #@! TD.AperFunction*
G04 #@! TA.AperFunction,SMDPad,CuDef*
G36*
X152771375Y-67352930D02*
G01*
X152124328Y-64938115D01*
X154587439Y-64278126D01*
X155234486Y-66692941D01*
X152771375Y-67352930D01*
G37*
G04 #@! TD.AperFunction*
G04 #@! TA.AperFunction,SMDPad,CuDef*
G36*
X164600498Y-61553725D02*
G01*
X163953451Y-59138910D01*
X166416562Y-58478921D01*
X167063609Y-60893736D01*
X164600498Y-61553725D01*
G37*
G04 #@! TD.AperFunction*
G04 #@! TA.AperFunction,SMDPad,CuDef*
G36*
X132610820Y-76782655D02*
G01*
X131554275Y-74516886D01*
X133865360Y-73439209D01*
X134921905Y-75704978D01*
X132610820Y-76782655D01*
G37*
G04 #@! TD.AperFunction*
G04 #@! TA.AperFunction,SMDPad,CuDef*
G36*
X143253210Y-69017447D02*
G01*
X142196665Y-66751678D01*
X144507750Y-65674001D01*
X145564295Y-67939770D01*
X143253210Y-69017447D01*
G37*
G04 #@! TD.AperFunction*
G04 #@! TA.AperFunction,SMDPad,CuDef*
G36*
X73088156Y-79361897D02*
G01*
X74522097Y-77314017D01*
X76610934Y-78776637D01*
X75176993Y-80824517D01*
X73088156Y-79361897D01*
G37*
G04 #@! TD.AperFunction*
G04 #@! TA.AperFunction,SMDPad,CuDef*
G36*
X85134219Y-84695873D02*
G01*
X86568160Y-82647993D01*
X88656997Y-84110613D01*
X87223056Y-86158493D01*
X85134219Y-84695873D01*
G37*
G04 #@! TD.AperFunction*
G04 #@! TA.AperFunction,SMDPad,CuDef*
G36*
X53467310Y-69716477D02*
G01*
X54523855Y-67450708D01*
X56834940Y-68528385D01*
X55778395Y-70794154D01*
X53467310Y-69716477D01*
G37*
G04 #@! TD.AperFunction*
G04 #@! TA.AperFunction,SMDPad,CuDef*
G36*
X66256601Y-72877641D02*
G01*
X67313146Y-70611872D01*
X69624231Y-71689549D01*
X68567686Y-73955318D01*
X66256601Y-72877641D01*
G37*
G04 #@! TD.AperFunction*
G04 #@! TA.AperFunction,SMDPad,CuDef*
G36*
X32309941Y-63025475D02*
G01*
X32956988Y-60610660D01*
X35420099Y-61270649D01*
X34773052Y-63685464D01*
X32309941Y-63025475D01*
G37*
G04 #@! TD.AperFunction*
G04 #@! TA.AperFunction,SMDPad,CuDef*
G36*
X45453864Y-63917778D02*
G01*
X46100911Y-61502963D01*
X48564022Y-62162952D01*
X47916975Y-64577767D01*
X45453864Y-63917778D01*
G37*
G04 #@! TD.AperFunction*
G04 #@! TA.AperFunction,SMDPad,CuDef*
G36*
X202386129Y-31707085D02*
G01*
X201739082Y-29292270D01*
X204202193Y-28632281D01*
X204849240Y-31047096D01*
X202386129Y-31707085D01*
G37*
G04 #@! TD.AperFunction*
G04 #@! TA.AperFunction,SMDPad,CuDef*
G36*
X214215252Y-25907880D02*
G01*
X213568205Y-23493065D01*
X216031316Y-22833076D01*
X216678363Y-25247891D01*
X214215252Y-25907880D01*
G37*
G04 #@! TD.AperFunction*
G04 #@! TA.AperFunction,SMDPad,CuDef*
G36*
X181355643Y-26823782D02*
G01*
X180708596Y-24408967D01*
X183171707Y-23748978D01*
X183818754Y-26163793D01*
X181355643Y-26823782D01*
G37*
G04 #@! TD.AperFunction*
G04 #@! TA.AperFunction,SMDPad,CuDef*
G36*
X193184766Y-21024577D02*
G01*
X192537719Y-18609762D01*
X195000830Y-17949773D01*
X195647877Y-20364588D01*
X193184766Y-21024577D01*
G37*
G04 #@! TD.AperFunction*
G04 #@! TA.AperFunction,SMDPad,CuDef*
G36*
X161639956Y-26847381D02*
G01*
X160992909Y-24432566D01*
X163456020Y-23772577D01*
X164103067Y-26187392D01*
X161639956Y-26847381D01*
G37*
G04 #@! TD.AperFunction*
G04 #@! TA.AperFunction,SMDPad,CuDef*
G36*
X173469079Y-21048176D02*
G01*
X172822032Y-18633361D01*
X175285143Y-17973372D01*
X175932190Y-20388187D01*
X173469079Y-21048176D01*
G37*
G04 #@! TD.AperFunction*
G04 #@! TA.AperFunction,SMDPad,CuDef*
G36*
X144553871Y-36684786D02*
G01*
X143906824Y-34269971D01*
X146369935Y-33609982D01*
X147016982Y-36024797D01*
X144553871Y-36684786D01*
G37*
G04 #@! TD.AperFunction*
G04 #@! TA.AperFunction,SMDPad,CuDef*
G36*
X156382994Y-30885581D02*
G01*
X155735947Y-28470766D01*
X158199058Y-27810777D01*
X158846105Y-30225592D01*
X156382994Y-30885581D01*
G37*
G04 #@! TD.AperFunction*
G04 #@! TA.AperFunction,SMDPad,CuDef*
G36*
X126810385Y-44068740D02*
G01*
X126163338Y-41653925D01*
X128626449Y-40993936D01*
X129273496Y-43408751D01*
X126810385Y-44068740D01*
G37*
G04 #@! TD.AperFunction*
G04 #@! TA.AperFunction,SMDPad,CuDef*
G36*
X138639508Y-38269535D02*
G01*
X137992461Y-35854720D01*
X140455572Y-35194731D01*
X141102619Y-37609546D01*
X138639508Y-38269535D01*
G37*
G04 #@! TD.AperFunction*
G04 #@! TA.AperFunction,SMDPad,CuDef*
G36*
X197455627Y-13306199D02*
G01*
X196808580Y-10891384D01*
X199271691Y-10231395D01*
X199918738Y-12646210D01*
X197455627Y-13306199D01*
G37*
G04 #@! TD.AperFunction*
G04 #@! TA.AperFunction,SMDPad,CuDef*
G36*
X209284750Y-7506994D02*
G01*
X208637703Y-5092179D01*
X211100814Y-4432190D01*
X211747861Y-6847005D01*
X209284750Y-7506994D01*
G37*
G04 #@! TD.AperFunction*
G04 #@! TA.AperFunction,SMDPad,CuDef*
G36*
X176425141Y-8422896D02*
G01*
X175778094Y-6008081D01*
X178241205Y-5348092D01*
X178888252Y-7762907D01*
X176425141Y-8422896D01*
G37*
G04 #@! TD.AperFunction*
G04 #@! TA.AperFunction,SMDPad,CuDef*
G36*
X188254264Y-2623691D02*
G01*
X187607217Y-208876D01*
X190070328Y451113D01*
X190717375Y-1963702D01*
X188254264Y-2623691D01*
G37*
G04 #@! TD.AperFunction*
G04 #@! TA.AperFunction,SMDPad,CuDef*
G36*
X156709454Y-8446495D02*
G01*
X156062407Y-6031680D01*
X158525518Y-5371691D01*
X159172565Y-7786506D01*
X156709454Y-8446495D01*
G37*
G04 #@! TD.AperFunction*
G04 #@! TA.AperFunction,SMDPad,CuDef*
G36*
X168538577Y-2647290D02*
G01*
X167891530Y-232475D01*
X170354641Y427514D01*
X171001688Y-1987301D01*
X168538577Y-2647290D01*
G37*
G04 #@! TD.AperFunction*
G04 #@! TA.AperFunction,SMDPad,CuDef*
G36*
X139623369Y-18283900D02*
G01*
X138976322Y-15869085D01*
X141439433Y-15209096D01*
X142086480Y-17623911D01*
X139623369Y-18283900D01*
G37*
G04 #@! TD.AperFunction*
G04 #@! TA.AperFunction,SMDPad,CuDef*
G36*
X151452492Y-12484695D02*
G01*
X150805445Y-10069880D01*
X153268556Y-9409891D01*
X153915603Y-11824706D01*
X151452492Y-12484695D01*
G37*
G04 #@! TD.AperFunction*
G04 #@! TA.AperFunction,SMDPad,CuDef*
G36*
X121879883Y-25667854D02*
G01*
X121232836Y-23253039D01*
X123695947Y-22593050D01*
X124342994Y-25007865D01*
X121879883Y-25667854D01*
G37*
G04 #@! TD.AperFunction*
G04 #@! TA.AperFunction,SMDPad,CuDef*
G36*
X133709006Y-19868649D02*
G01*
X133061959Y-17453834D01*
X135525070Y-16793845D01*
X136172117Y-19208660D01*
X133709006Y-19868649D01*
G37*
G04 #@! TD.AperFunction*
G04 #@! TA.AperFunction,SMDPad,CuDef*
G36*
X192525125Y5094687D02*
G01*
X191878078Y7509502D01*
X194341189Y8169491D01*
X194988236Y5754676D01*
X192525125Y5094687D01*
G37*
G04 #@! TD.AperFunction*
G04 #@! TA.AperFunction,SMDPad,CuDef*
G36*
X204354248Y10893892D02*
G01*
X203707201Y13308707D01*
X206170312Y13968696D01*
X206817359Y11553881D01*
X204354248Y10893892D01*
G37*
G04 #@! TD.AperFunction*
G04 #@! TA.AperFunction,SMDPad,CuDef*
G36*
X171494639Y9977990D02*
G01*
X170847592Y12392805D01*
X173310703Y13052794D01*
X173957750Y10637979D01*
X171494639Y9977990D01*
G37*
G04 #@! TD.AperFunction*
G04 #@! TA.AperFunction,SMDPad,CuDef*
G36*
X183323762Y15777195D02*
G01*
X182676715Y18192010D01*
X185139826Y18851999D01*
X185786873Y16437184D01*
X183323762Y15777195D01*
G37*
G04 #@! TD.AperFunction*
G04 #@! TA.AperFunction,SMDPad,CuDef*
G36*
X151778952Y9954391D02*
G01*
X151131905Y12369206D01*
X153595016Y13029195D01*
X154242063Y10614380D01*
X151778952Y9954391D01*
G37*
G04 #@! TD.AperFunction*
G04 #@! TA.AperFunction,SMDPad,CuDef*
G36*
X163608075Y15753596D02*
G01*
X162961028Y18168411D01*
X165424139Y18828400D01*
X166071186Y16413585D01*
X163608075Y15753596D01*
G37*
G04 #@! TD.AperFunction*
G04 #@! TA.AperFunction,SMDPad,CuDef*
G36*
X134692867Y116986D02*
G01*
X134045820Y2531801D01*
X136508931Y3191790D01*
X137155978Y776975D01*
X134692867Y116986D01*
G37*
G04 #@! TD.AperFunction*
G04 #@! TA.AperFunction,SMDPad,CuDef*
G36*
X146521990Y5916191D02*
G01*
X145874943Y8331006D01*
X148338054Y8990995D01*
X148985101Y6576180D01*
X146521990Y5916191D01*
G37*
G04 #@! TD.AperFunction*
G04 #@! TA.AperFunction,SMDPad,CuDef*
G36*
X116949381Y-7266968D02*
G01*
X116302334Y-4852153D01*
X118765445Y-4192164D01*
X119412492Y-6606979D01*
X116949381Y-7266968D01*
G37*
G04 #@! TD.AperFunction*
G04 #@! TA.AperFunction,SMDPad,CuDef*
G36*
X128778504Y-1467763D02*
G01*
X128131457Y947052D01*
X130594568Y1607041D01*
X131241615Y-807774D01*
X128778504Y-1467763D01*
G37*
G04 #@! TD.AperFunction*
G04 #@! TA.AperFunction,SMDPad,CuDef*
G36*
X58270931Y-39741285D02*
G01*
X58917978Y-37326470D01*
X61381089Y-37986459D01*
X60734042Y-40401274D01*
X58270931Y-39741285D01*
G37*
G04 #@! TD.AperFunction*
G04 #@! TA.AperFunction,SMDPad,CuDef*
G36*
X71414854Y-40633588D02*
G01*
X72061901Y-38218773D01*
X74525012Y-38878762D01*
X73877965Y-41293577D01*
X71414854Y-40633588D01*
G37*
G04 #@! TD.AperFunction*
G04 #@! TA.AperFunction,SMDPad,CuDef*
G36*
X40527445Y-32357331D02*
G01*
X41174492Y-29942516D01*
X43637603Y-30602505D01*
X42990556Y-33017320D01*
X40527445Y-32357331D01*
G37*
G04 #@! TD.AperFunction*
G04 #@! TA.AperFunction,SMDPad,CuDef*
G36*
X53671368Y-33249634D02*
G01*
X54318415Y-30834819D01*
X56781526Y-31494808D01*
X56134479Y-33909623D01*
X53671368Y-33249634D01*
G37*
G04 #@! TD.AperFunction*
G04 #@! TA.AperFunction,SMDPad,CuDef*
G36*
X23441360Y-22519926D02*
G01*
X24088407Y-20105111D01*
X26551518Y-20765100D01*
X25904471Y-23179915D01*
X23441360Y-22519926D01*
G37*
G04 #@! TD.AperFunction*
G04 #@! TA.AperFunction,SMDPad,CuDef*
G36*
X36585283Y-23412229D02*
G01*
X37232330Y-20997414D01*
X39695441Y-21657403D01*
X39048394Y-24072218D01*
X36585283Y-23412229D01*
G37*
G04 #@! TD.AperFunction*
G04 #@! TA.AperFunction,SMDPad,CuDef*
G36*
X3725673Y-22496327D02*
G01*
X4372720Y-20081512D01*
X6835831Y-20741501D01*
X6188784Y-23156316D01*
X3725673Y-22496327D01*
G37*
G04 #@! TD.AperFunction*
G04 #@! TA.AperFunction,SMDPad,CuDef*
G36*
X16869596Y-23388630D02*
G01*
X17516643Y-20973815D01*
X19979754Y-21633804D01*
X19332707Y-24048619D01*
X16869596Y-23388630D01*
G37*
G04 #@! TD.AperFunction*
G04 #@! TA.AperFunction,SMDPad,CuDef*
G36*
X-17304813Y-27379631D02*
G01*
X-16657766Y-24964816D01*
X-14194655Y-25624805D01*
X-14841702Y-28039620D01*
X-17304813Y-27379631D01*
G37*
G04 #@! TD.AperFunction*
G04 #@! TA.AperFunction,SMDPad,CuDef*
G36*
X-4160890Y-28271934D02*
G01*
X-3513843Y-25857119D01*
X-1050732Y-26517108D01*
X-1697779Y-28931923D01*
X-4160890Y-28271934D01*
G37*
G04 #@! TD.AperFunction*
G04 #@! TA.AperFunction,SMDPad,CuDef*
G36*
X63201433Y-21340399D02*
G01*
X63848480Y-18925584D01*
X66311591Y-19585573D01*
X65664544Y-22000388D01*
X63201433Y-21340399D01*
G37*
G04 #@! TD.AperFunction*
G04 #@! TA.AperFunction,SMDPad,CuDef*
G36*
X76345356Y-22232702D02*
G01*
X76992403Y-19817887D01*
X79455514Y-20477876D01*
X78808467Y-22892691D01*
X76345356Y-22232702D01*
G37*
G04 #@! TD.AperFunction*
G04 #@! TA.AperFunction,SMDPad,CuDef*
G36*
X45457947Y-13956445D02*
G01*
X46104994Y-11541630D01*
X48568105Y-12201619D01*
X47921058Y-14616434D01*
X45457947Y-13956445D01*
G37*
G04 #@! TD.AperFunction*
G04 #@! TA.AperFunction,SMDPad,CuDef*
G36*
X58601870Y-14848748D02*
G01*
X59248917Y-12433933D01*
X61712028Y-13093922D01*
X61064981Y-15508737D01*
X58601870Y-14848748D01*
G37*
G04 #@! TD.AperFunction*
G04 #@! TA.AperFunction,SMDPad,CuDef*
G36*
X28371862Y-4119040D02*
G01*
X29018909Y-1704225D01*
X31482020Y-2364214D01*
X30834973Y-4779029D01*
X28371862Y-4119040D01*
G37*
G04 #@! TD.AperFunction*
G04 #@! TA.AperFunction,SMDPad,CuDef*
G36*
X41515785Y-5011343D02*
G01*
X42162832Y-2596528D01*
X44625943Y-3256517D01*
X43978896Y-5671332D01*
X41515785Y-5011343D01*
G37*
G04 #@! TD.AperFunction*
G04 #@! TA.AperFunction,SMDPad,CuDef*
G36*
X8656175Y-4095441D02*
G01*
X9303222Y-1680626D01*
X11766333Y-2340615D01*
X11119286Y-4755430D01*
X8656175Y-4095441D01*
G37*
G04 #@! TD.AperFunction*
G04 #@! TA.AperFunction,SMDPad,CuDef*
G36*
X21800098Y-4987744D02*
G01*
X22447145Y-2572929D01*
X24910256Y-3232918D01*
X24263209Y-5647733D01*
X21800098Y-4987744D01*
G37*
G04 #@! TD.AperFunction*
G04 #@! TA.AperFunction,SMDPad,CuDef*
G36*
X-12374311Y-8978745D02*
G01*
X-11727264Y-6563930D01*
X-9264153Y-7223919D01*
X-9911200Y-9638734D01*
X-12374311Y-8978745D01*
G37*
G04 #@! TD.AperFunction*
G04 #@! TA.AperFunction,SMDPad,CuDef*
G36*
X769612Y-9871048D02*
G01*
X1416659Y-7456233D01*
X3879770Y-8116222D01*
X3232723Y-10531037D01*
X769612Y-9871048D01*
G37*
G04 #@! TD.AperFunction*
G04 #@! TA.AperFunction,SMDPad,CuDef*
G36*
X68131935Y-2939513D02*
G01*
X68778982Y-524698D01*
X71242093Y-1184687D01*
X70595046Y-3599502D01*
X68131935Y-2939513D01*
G37*
G04 #@! TD.AperFunction*
G04 #@! TA.AperFunction,SMDPad,CuDef*
G36*
X81275858Y-3831816D02*
G01*
X81922905Y-1417001D01*
X84386016Y-2076990D01*
X83738969Y-4491805D01*
X81275858Y-3831816D01*
G37*
G04 #@! TD.AperFunction*
G04 #@! TA.AperFunction,SMDPad,CuDef*
G36*
X50388449Y4444441D02*
G01*
X51035496Y6859256D01*
X53498607Y6199267D01*
X52851560Y3784452D01*
X50388449Y4444441D01*
G37*
G04 #@! TD.AperFunction*
G04 #@! TA.AperFunction,SMDPad,CuDef*
G36*
X63532372Y3552138D02*
G01*
X64179419Y5966953D01*
X66642530Y5306964D01*
X65995483Y2892149D01*
X63532372Y3552138D01*
G37*
G04 #@! TD.AperFunction*
G04 #@! TA.AperFunction,SMDPad,CuDef*
G36*
X33302364Y14281846D02*
G01*
X33949411Y16696661D01*
X36412522Y16036672D01*
X35765475Y13621857D01*
X33302364Y14281846D01*
G37*
G04 #@! TD.AperFunction*
G04 #@! TA.AperFunction,SMDPad,CuDef*
G36*
X46446287Y13389543D02*
G01*
X47093334Y15804358D01*
X49556445Y15144369D01*
X48909398Y12729554D01*
X46446287Y13389543D01*
G37*
G04 #@! TD.AperFunction*
G04 #@! TA.AperFunction,SMDPad,CuDef*
G36*
X13586677Y14305445D02*
G01*
X14233724Y16720260D01*
X16696835Y16060271D01*
X16049788Y13645456D01*
X13586677Y14305445D01*
G37*
G04 #@! TD.AperFunction*
G04 #@! TA.AperFunction,SMDPad,CuDef*
G36*
X26730600Y13413142D02*
G01*
X27377647Y15827957D01*
X29840758Y15167968D01*
X29193711Y12753153D01*
X26730600Y13413142D01*
G37*
G04 #@! TD.AperFunction*
G04 #@! TA.AperFunction,SMDPad,CuDef*
G36*
X-7443809Y9422141D02*
G01*
X-6796762Y11836956D01*
X-4333651Y11176967D01*
X-4980698Y8762152D01*
X-7443809Y9422141D01*
G37*
G04 #@! TD.AperFunction*
G04 #@! TA.AperFunction,SMDPad,CuDef*
G36*
X5700114Y8529838D02*
G01*
X6347161Y10944653D01*
X8810272Y10284664D01*
X8163225Y7869849D01*
X5700114Y8529838D01*
G37*
G04 #@! TD.AperFunction*
D24*
X78512500Y20155000D03*
X85012500Y20155000D03*
G04 #@! TA.AperFunction,SMDPad,CuDef*
D14*
G36*
X9161309Y4879638D02*
G01*
X8002198Y5190221D01*
X8235135Y6059554D01*
X9394246Y5748971D01*
X9161309Y4879638D01*
G37*
G04 #@! TD.AperFunction*
G04 #@! TA.AperFunction,SMDPad,CuDef*
G36*
X8307207Y1692082D02*
G01*
X7148096Y2002665D01*
X7381033Y2871998D01*
X8540144Y2561415D01*
X8307207Y1692082D01*
G37*
G04 #@! TD.AperFunction*
G04 #@! TA.AperFunction,SMDPad,CuDef*
G36*
X29337693Y6575386D02*
G01*
X28178582Y6885969D01*
X28411519Y7755302D01*
X29570630Y7444719D01*
X29337693Y6575386D01*
G37*
G04 #@! TD.AperFunction*
G04 #@! TA.AperFunction,SMDPad,CuDef*
G36*
X30191795Y9762942D02*
G01*
X29032684Y10073525D01*
X29265621Y10942858D01*
X30424732Y10632275D01*
X30191795Y9762942D01*
G37*
G04 #@! TD.AperFunction*
G04 #@! TA.AperFunction,SMDPad,CuDef*
G36*
X49907482Y9739343D02*
G01*
X48748371Y10049926D01*
X48981308Y10919259D01*
X50140419Y10608676D01*
X49907482Y9739343D01*
G37*
G04 #@! TD.AperFunction*
G04 #@! TA.AperFunction,SMDPad,CuDef*
G36*
X49053380Y6551787D02*
G01*
X47894269Y6862370D01*
X48127206Y7731703D01*
X49286317Y7421120D01*
X49053380Y6551787D01*
G37*
G04 #@! TD.AperFunction*
G04 #@! TA.AperFunction,SMDPad,CuDef*
G36*
X66139465Y-3285618D02*
G01*
X64980354Y-2975035D01*
X65213291Y-2105702D01*
X66372402Y-2416285D01*
X66139465Y-3285618D01*
G37*
G04 #@! TD.AperFunction*
G04 #@! TA.AperFunction,SMDPad,CuDef*
G36*
X66993567Y-98062D02*
G01*
X65834456Y212521D01*
X66067393Y1081854D01*
X67226504Y771271D01*
X66993567Y-98062D01*
G37*
G04 #@! TD.AperFunction*
G04 #@! TA.AperFunction,SMDPad,CuDef*
G36*
X84737053Y-7482016D02*
G01*
X83577942Y-7171433D01*
X83810879Y-6302100D01*
X84969990Y-6612683D01*
X84737053Y-7482016D01*
G37*
G04 #@! TD.AperFunction*
G04 #@! TA.AperFunction,SMDPad,CuDef*
G36*
X83882951Y-10669572D02*
G01*
X82723840Y-10358989D01*
X82956777Y-9489656D01*
X84115888Y-9800239D01*
X83882951Y-10669572D01*
G37*
G04 #@! TD.AperFunction*
G04 #@! TA.AperFunction,SMDPad,CuDef*
G36*
X3376705Y-16708804D02*
G01*
X2217594Y-16398221D01*
X2450531Y-15528888D01*
X3609642Y-15839471D01*
X3376705Y-16708804D01*
G37*
G04 #@! TD.AperFunction*
G04 #@! TA.AperFunction,SMDPad,CuDef*
G36*
X4230807Y-13521248D02*
G01*
X3071696Y-13210665D01*
X3304633Y-12341332D01*
X4463744Y-12651915D01*
X4230807Y-13521248D01*
G37*
G04 #@! TD.AperFunction*
G04 #@! TA.AperFunction,SMDPad,CuDef*
G36*
X25261293Y-8637944D02*
G01*
X24102182Y-8327361D01*
X24335119Y-7458028D01*
X25494230Y-7768611D01*
X25261293Y-8637944D01*
G37*
G04 #@! TD.AperFunction*
G04 #@! TA.AperFunction,SMDPad,CuDef*
G36*
X24407191Y-11825500D02*
G01*
X23248080Y-11514917D01*
X23481017Y-10645584D01*
X24640128Y-10956167D01*
X24407191Y-11825500D01*
G37*
G04 #@! TD.AperFunction*
G04 #@! TA.AperFunction,SMDPad,CuDef*
G36*
X44122878Y-11849099D02*
G01*
X42963767Y-11538516D01*
X43196704Y-10669183D01*
X44355815Y-10979766D01*
X44122878Y-11849099D01*
G37*
G04 #@! TD.AperFunction*
G04 #@! TA.AperFunction,SMDPad,CuDef*
G36*
X44976980Y-8661543D02*
G01*
X43817869Y-8350960D01*
X44050806Y-7481627D01*
X45209917Y-7792210D01*
X44976980Y-8661543D01*
G37*
G04 #@! TD.AperFunction*
G04 #@! TA.AperFunction,SMDPad,CuDef*
G36*
X62063065Y-18498948D02*
G01*
X60903954Y-18188365D01*
X61136891Y-17319032D01*
X62296002Y-17629615D01*
X62063065Y-18498948D01*
G37*
G04 #@! TD.AperFunction*
G04 #@! TA.AperFunction,SMDPad,CuDef*
G36*
X61208963Y-21686504D02*
G01*
X60049852Y-21375921D01*
X60282789Y-20506588D01*
X61441900Y-20817171D01*
X61208963Y-21686504D01*
G37*
G04 #@! TD.AperFunction*
G04 #@! TA.AperFunction,SMDPad,CuDef*
G36*
X78952449Y-29070458D02*
G01*
X77793338Y-28759875D01*
X78026275Y-27890542D01*
X79185386Y-28201125D01*
X78952449Y-29070458D01*
G37*
G04 #@! TD.AperFunction*
G04 #@! TA.AperFunction,SMDPad,CuDef*
G36*
X79806551Y-25882902D02*
G01*
X78647440Y-25572319D01*
X78880377Y-24702986D01*
X80039488Y-25013569D01*
X79806551Y-25882902D01*
G37*
G04 #@! TD.AperFunction*
G04 #@! TA.AperFunction,SMDPad,CuDef*
G36*
X-699695Y-31922134D02*
G01*
X-1858806Y-31611551D01*
X-1625869Y-30742218D01*
X-466758Y-31052801D01*
X-699695Y-31922134D01*
G37*
G04 #@! TD.AperFunction*
G04 #@! TA.AperFunction,SMDPad,CuDef*
G36*
X-1553797Y-35109690D02*
G01*
X-2712908Y-34799107D01*
X-2479971Y-33929774D01*
X-1320860Y-34240357D01*
X-1553797Y-35109690D01*
G37*
G04 #@! TD.AperFunction*
G04 #@! TA.AperFunction,SMDPad,CuDef*
G36*
X19476689Y-30226386D02*
G01*
X18317578Y-29915803D01*
X18550515Y-29046470D01*
X19709626Y-29357053D01*
X19476689Y-30226386D01*
G37*
G04 #@! TD.AperFunction*
G04 #@! TA.AperFunction,SMDPad,CuDef*
G36*
X20330791Y-27038830D02*
G01*
X19171680Y-26728247D01*
X19404617Y-25858914D01*
X20563728Y-26169497D01*
X20330791Y-27038830D01*
G37*
G04 #@! TD.AperFunction*
G04 #@! TA.AperFunction,SMDPad,CuDef*
G36*
X40046478Y-27062429D02*
G01*
X38887367Y-26751846D01*
X39120304Y-25882513D01*
X40279415Y-26193096D01*
X40046478Y-27062429D01*
G37*
G04 #@! TD.AperFunction*
G04 #@! TA.AperFunction,SMDPad,CuDef*
G36*
X39192376Y-30249985D02*
G01*
X38033265Y-29939402D01*
X38266202Y-29070069D01*
X39425313Y-29380652D01*
X39192376Y-30249985D01*
G37*
G04 #@! TD.AperFunction*
G04 #@! TA.AperFunction,SMDPad,CuDef*
G36*
X56278461Y-40087390D02*
G01*
X55119350Y-39776807D01*
X55352287Y-38907474D01*
X56511398Y-39218057D01*
X56278461Y-40087390D01*
G37*
G04 #@! TD.AperFunction*
G04 #@! TA.AperFunction,SMDPad,CuDef*
G36*
X57132563Y-36899834D02*
G01*
X55973452Y-36589251D01*
X56206389Y-35719918D01*
X57365500Y-36030501D01*
X57132563Y-36899834D01*
G37*
G04 #@! TD.AperFunction*
G04 #@! TA.AperFunction,SMDPad,CuDef*
G36*
X74876049Y-44283788D02*
G01*
X73716938Y-43973205D01*
X73949875Y-43103872D01*
X75108986Y-43414455D01*
X74876049Y-44283788D01*
G37*
G04 #@! TD.AperFunction*
G04 #@! TA.AperFunction,SMDPad,CuDef*
G36*
X74021947Y-47471344D02*
G01*
X72862836Y-47160761D01*
X73095773Y-46291428D01*
X74254884Y-46602011D01*
X74021947Y-47471344D01*
G37*
G04 #@! TD.AperFunction*
G04 #@! TA.AperFunction,SMDPad,CuDef*
G36*
X133601088Y-2898331D02*
G01*
X132441977Y-3208914D01*
X132209040Y-2339581D01*
X133368151Y-2028998D01*
X133601088Y-2898331D01*
G37*
G04 #@! TD.AperFunction*
G04 #@! TA.AperFunction,SMDPad,CuDef*
G36*
X134455190Y-6085887D02*
G01*
X133296079Y-6396470D01*
X133063142Y-5527137D01*
X134222253Y-5216554D01*
X134455190Y-6085887D01*
G37*
G04 #@! TD.AperFunction*
G04 #@! TA.AperFunction,SMDPad,CuDef*
G36*
X152198676Y1298067D02*
G01*
X151039565Y987484D01*
X150806628Y1856817D01*
X151965739Y2167400D01*
X152198676Y1298067D01*
G37*
G04 #@! TD.AperFunction*
G04 #@! TA.AperFunction,SMDPad,CuDef*
G36*
X151344574Y4485623D02*
G01*
X150185463Y4175040D01*
X149952526Y5044373D01*
X151111637Y5354956D01*
X151344574Y4485623D01*
G37*
G04 #@! TD.AperFunction*
G04 #@! TA.AperFunction,SMDPad,CuDef*
G36*
X168430659Y14323028D02*
G01*
X167271548Y14012445D01*
X167038611Y14881778D01*
X168197722Y15192361D01*
X168430659Y14323028D01*
G37*
G04 #@! TD.AperFunction*
G04 #@! TA.AperFunction,SMDPad,CuDef*
G36*
X169284761Y11135472D02*
G01*
X168125650Y10824889D01*
X167892713Y11694222D01*
X169051824Y12004805D01*
X169284761Y11135472D01*
G37*
G04 #@! TD.AperFunction*
G04 #@! TA.AperFunction,SMDPad,CuDef*
G36*
X189000448Y11159071D02*
G01*
X187841337Y10848488D01*
X187608400Y11717821D01*
X188767511Y12028404D01*
X189000448Y11159071D01*
G37*
G04 #@! TD.AperFunction*
G04 #@! TA.AperFunction,SMDPad,CuDef*
G36*
X188146346Y14346627D02*
G01*
X186987235Y14036044D01*
X186754298Y14905377D01*
X187913409Y15215960D01*
X188146346Y14346627D01*
G37*
G04 #@! TD.AperFunction*
G04 #@! TA.AperFunction,SMDPad,CuDef*
G36*
X210030934Y6275768D02*
G01*
X208871823Y5965185D01*
X208638886Y6834518D01*
X209797997Y7145101D01*
X210030934Y6275768D01*
G37*
G04 #@! TD.AperFunction*
G04 #@! TA.AperFunction,SMDPad,CuDef*
G36*
X209176832Y9463324D02*
G01*
X208017721Y9152741D01*
X207784784Y10022074D01*
X208943895Y10332657D01*
X209176832Y9463324D01*
G37*
G04 #@! TD.AperFunction*
G04 #@! TA.AperFunction,SMDPad,CuDef*
G36*
X139385692Y-24486773D02*
G01*
X138226581Y-24797356D01*
X137993644Y-23928023D01*
X139152755Y-23617440D01*
X139385692Y-24486773D01*
G37*
G04 #@! TD.AperFunction*
G04 #@! TA.AperFunction,SMDPad,CuDef*
G36*
X138531590Y-21299217D02*
G01*
X137372479Y-21609800D01*
X137139542Y-20740467D01*
X138298653Y-20429884D01*
X138531590Y-21299217D01*
G37*
G04 #@! TD.AperFunction*
G04 #@! TA.AperFunction,SMDPad,CuDef*
G36*
X156275076Y-13915263D02*
G01*
X155115965Y-14225846D01*
X154883028Y-13356513D01*
X156042139Y-13045930D01*
X156275076Y-13915263D01*
G37*
G04 #@! TD.AperFunction*
G04 #@! TA.AperFunction,SMDPad,CuDef*
G36*
X157129178Y-17102819D02*
G01*
X155970067Y-17413402D01*
X155737130Y-16544069D01*
X156896241Y-16233486D01*
X157129178Y-17102819D01*
G37*
G04 #@! TD.AperFunction*
G04 #@! TA.AperFunction,SMDPad,CuDef*
G36*
X174215263Y-7265414D02*
G01*
X173056152Y-7575997D01*
X172823215Y-6706664D01*
X173982326Y-6396081D01*
X174215263Y-7265414D01*
G37*
G04 #@! TD.AperFunction*
G04 #@! TA.AperFunction,SMDPad,CuDef*
G36*
X173361161Y-4077858D02*
G01*
X172202050Y-4388441D01*
X171969113Y-3519108D01*
X173128224Y-3208525D01*
X173361161Y-4077858D01*
G37*
G04 #@! TD.AperFunction*
G04 #@! TA.AperFunction,SMDPad,CuDef*
G36*
X193076848Y-4054259D02*
G01*
X191917737Y-4364842D01*
X191684800Y-3495509D01*
X192843911Y-3184926D01*
X193076848Y-4054259D01*
G37*
G04 #@! TD.AperFunction*
G04 #@! TA.AperFunction,SMDPad,CuDef*
G36*
X193930950Y-7241815D02*
G01*
X192771839Y-7552398D01*
X192538902Y-6683065D01*
X193698013Y-6372482D01*
X193930950Y-7241815D01*
G37*
G04 #@! TD.AperFunction*
G04 #@! TA.AperFunction,SMDPad,CuDef*
G36*
X214107334Y-8937562D02*
G01*
X212948223Y-9248145D01*
X212715286Y-8378812D01*
X213874397Y-8068229D01*
X214107334Y-8937562D01*
G37*
G04 #@! TD.AperFunction*
G04 #@! TA.AperFunction,SMDPad,CuDef*
G36*
X214961436Y-12125118D02*
G01*
X213802325Y-12435701D01*
X213569388Y-11566368D01*
X214728499Y-11255785D01*
X214961436Y-12125118D01*
G37*
G04 #@! TD.AperFunction*
G04 #@! TA.AperFunction,SMDPad,CuDef*
G36*
X143462092Y-39700103D02*
G01*
X142302981Y-40010686D01*
X142070044Y-39141353D01*
X143229155Y-38830770D01*
X143462092Y-39700103D01*
G37*
G04 #@! TD.AperFunction*
G04 #@! TA.AperFunction,SMDPad,CuDef*
G36*
X144316194Y-42887659D02*
G01*
X143157083Y-43198242D01*
X142924146Y-42328909D01*
X144083257Y-42018326D01*
X144316194Y-42887659D01*
G37*
G04 #@! TD.AperFunction*
G04 #@! TA.AperFunction,SMDPad,CuDef*
G36*
X162059680Y-35503705D02*
G01*
X160900569Y-35814288D01*
X160667632Y-34944955D01*
X161826743Y-34634372D01*
X162059680Y-35503705D01*
G37*
G04 #@! TD.AperFunction*
G04 #@! TA.AperFunction,SMDPad,CuDef*
G36*
X161205578Y-32316149D02*
G01*
X160046467Y-32626732D01*
X159813530Y-31757399D01*
X160972641Y-31446816D01*
X161205578Y-32316149D01*
G37*
G04 #@! TD.AperFunction*
G04 #@! TA.AperFunction,SMDPad,CuDef*
G36*
X178291663Y-22478744D02*
G01*
X177132552Y-22789327D01*
X176899615Y-21919994D01*
X178058726Y-21609411D01*
X178291663Y-22478744D01*
G37*
G04 #@! TD.AperFunction*
G04 #@! TA.AperFunction,SMDPad,CuDef*
G36*
X179145765Y-25666300D02*
G01*
X177986654Y-25976883D01*
X177753717Y-25107550D01*
X178912828Y-24796967D01*
X179145765Y-25666300D01*
G37*
G04 #@! TD.AperFunction*
G04 #@! TA.AperFunction,SMDPad,CuDef*
G36*
X198861452Y-25642701D02*
G01*
X197702341Y-25953284D01*
X197469404Y-25083951D01*
X198628515Y-24773368D01*
X198861452Y-25642701D01*
G37*
G04 #@! TD.AperFunction*
G04 #@! TA.AperFunction,SMDPad,CuDef*
G36*
X198007350Y-22455145D02*
G01*
X196848239Y-22765728D01*
X196615302Y-21896395D01*
X197774413Y-21585812D01*
X198007350Y-22455145D01*
G37*
G04 #@! TD.AperFunction*
G04 #@! TA.AperFunction,SMDPad,CuDef*
G36*
X219891938Y-30526004D02*
G01*
X218732827Y-30836587D01*
X218499890Y-29967254D01*
X219659001Y-29656671D01*
X219891938Y-30526004D01*
G37*
G04 #@! TD.AperFunction*
G04 #@! TA.AperFunction,SMDPad,CuDef*
G36*
X219037836Y-27338448D02*
G01*
X217878725Y-27649031D01*
X217645788Y-26779698D01*
X218804899Y-26469115D01*
X219037836Y-27338448D01*
G37*
G04 #@! TD.AperFunction*
G04 #@! TA.AperFunction,SMDPad,CuDef*
G36*
X48915059Y-67567978D02*
G01*
X47755948Y-67257395D01*
X47988885Y-66388062D01*
X49147996Y-66698645D01*
X48915059Y-67567978D01*
G37*
G04 #@! TD.AperFunction*
G04 #@! TA.AperFunction,SMDPad,CuDef*
G36*
X48060957Y-70755534D02*
G01*
X46901846Y-70444951D01*
X47134783Y-69575618D01*
X48293894Y-69886201D01*
X48060957Y-70755534D01*
G37*
G04 #@! TD.AperFunction*
G04 #@! TA.AperFunction,SMDPad,CuDef*
G36*
X69031361Y-77073417D02*
G01*
X67943792Y-76566276D01*
X68324149Y-75750599D01*
X69411718Y-76257740D01*
X69031361Y-77073417D01*
G37*
G04 #@! TD.AperFunction*
G04 #@! TA.AperFunction,SMDPad,CuDef*
G36*
X67636721Y-80064233D02*
G01*
X66549152Y-79557092D01*
X66929509Y-78741415D01*
X68017078Y-79248556D01*
X67636721Y-80064233D01*
G37*
G04 #@! TD.AperFunction*
G04 #@! TA.AperFunction,SMDPad,CuDef*
G36*
X85245434Y-92012940D02*
G01*
X84262451Y-91324649D01*
X84778670Y-90587412D01*
X85761653Y-91275703D01*
X85245434Y-92012940D01*
G37*
G04 #@! TD.AperFunction*
G04 #@! TA.AperFunction,SMDPad,CuDef*
G36*
X87138236Y-89309738D02*
G01*
X86155253Y-88621447D01*
X86671472Y-87884210D01*
X87654455Y-88572501D01*
X87138236Y-89309738D01*
G37*
G04 #@! TD.AperFunction*
G04 #@! TA.AperFunction,SMDPad,CuDef*
G36*
X149645584Y-72579666D02*
G01*
X148558015Y-73086807D01*
X148177658Y-72271130D01*
X149265227Y-71763989D01*
X149645584Y-72579666D01*
G37*
G04 #@! TD.AperFunction*
G04 #@! TA.AperFunction,SMDPad,CuDef*
G36*
X148250944Y-69588850D02*
G01*
X147163375Y-70095991D01*
X146783018Y-69280314D01*
X147870587Y-68773173D01*
X148250944Y-69588850D01*
G37*
G04 #@! TD.AperFunction*
G04 #@! TA.AperFunction,SMDPad,CuDef*
G36*
X169423082Y-62984293D02*
G01*
X168263971Y-63294876D01*
X168031034Y-62425543D01*
X169190145Y-62114960D01*
X169423082Y-62984293D01*
G37*
G04 #@! TD.AperFunction*
G04 #@! TA.AperFunction,SMDPad,CuDef*
G36*
X170277184Y-66171849D02*
G01*
X169118073Y-66482432D01*
X168885136Y-65613099D01*
X170044247Y-65302516D01*
X170277184Y-66171849D01*
G37*
G04 #@! TD.AperFunction*
G04 #@! TA.AperFunction,SMDPad,CuDef*
G36*
X130493345Y-81854903D02*
G01*
X129510362Y-82543194D01*
X128994143Y-81805957D01*
X129977126Y-81117666D01*
X130493345Y-81854903D01*
G37*
G04 #@! TD.AperFunction*
G04 #@! TA.AperFunction,SMDPad,CuDef*
G36*
X128600543Y-79151701D02*
G01*
X127617560Y-79839992D01*
X127101341Y-79102755D01*
X128084324Y-78414464D01*
X128600543Y-79151701D01*
G37*
G04 #@! TD.AperFunction*
D27*
X55360000Y12030000D03*
X55360000Y15230000D03*
X60260000Y12030000D03*
X60260000Y15230000D03*
X16440000Y7490000D03*
X16440000Y4290000D03*
X11540000Y7490000D03*
X11540000Y4290000D03*
X-220000Y-18630000D03*
X-220000Y-21830000D03*
X-5120000Y-18630000D03*
X-5120000Y-21830000D03*
X28170000Y-59950000D03*
X28170000Y-63150000D03*
X23270000Y-59950000D03*
X23270000Y-63150000D03*
X77540000Y-71100000D03*
X77540000Y-74300000D03*
X72640000Y-71100000D03*
X72640000Y-74300000D03*
X128360000Y-70350000D03*
X128360000Y-73550000D03*
X123460000Y-70350000D03*
X123460000Y-73550000D03*
X173500000Y-63040000D03*
X173500000Y-59840000D03*
X178400000Y-63040000D03*
X178400000Y-59840000D03*
X199860000Y-21630000D03*
X199860000Y-18430000D03*
X204760000Y-21630000D03*
X204760000Y-18430000D03*
D28*
X7120000Y240000D03*
X28590000Y5210000D03*
X47300000Y5210000D03*
X64790000Y-4910000D03*
X87303000Y-10170000D03*
X81470000Y-10170000D03*
X91743000Y-4600000D03*
X87303000Y-2663000D03*
X5080000Y-15250000D03*
X23690000Y-14060000D03*
X42830000Y-14060000D03*
X60610000Y-22690000D03*
X76170000Y-28760000D03*
X90749852Y-5377000D03*
X86526000Y-3750000D03*
X81857000Y-28750000D03*
X-2260000Y-37110000D03*
X-2100578Y-49270578D03*
X3999422Y-55370578D03*
X37310000Y-32580000D03*
X55595000Y-42575000D03*
X73330000Y-48370000D03*
X79250000Y-48370000D03*
X91450000Y-6320000D03*
X86053000Y-5397458D03*
X18440000Y-32580000D03*
X210120000Y3770000D03*
X167820000Y2790000D03*
X151545000Y-1715000D03*
X134545000Y-9015000D03*
X186990000Y2790000D03*
X109690000Y-5510000D03*
X182190000Y2790000D03*
X119420000Y-30630000D03*
X215000000Y-15790000D03*
X190020000Y-12670000D03*
X174980000Y-12670000D03*
X157600000Y-20700000D03*
X139450000Y-26510000D03*
X110418575Y-6334126D03*
X117865578Y-11514422D03*
X195340000Y-30390000D03*
X196870000Y-34710000D03*
X219760000Y-32810000D03*
X179640000Y-31880000D03*
X163130000Y-40470000D03*
X146070000Y-47920000D03*
X111300000Y-7111126D03*
X117018985Y-12216764D03*
X122250000Y-47850000D03*
X109700000Y-12290500D03*
X109730000Y-14060000D03*
X170860000Y-72250000D03*
X42670000Y-76810000D03*
X64250000Y-88000000D03*
X80595000Y-96965000D03*
X132820000Y-91470000D03*
X153700000Y-80670000D03*
X115880000Y-97900000D03*
X95340000Y-2890000D03*
X90340000Y17190000D03*
X221560000Y-37870000D03*
X205230000Y22060000D03*
X131180000Y22050000D03*
X177500000Y22060000D03*
X202200000Y-23970000D03*
X217853029Y-18396971D03*
X174600000Y-70799500D03*
X64820000Y-89730000D03*
X-19900000Y-38090000D03*
X-5380000Y21699500D03*
X23105000Y-69345000D03*
X-6950000Y-21820000D03*
X-16399499Y-20149499D03*
X9759500Y21699500D03*
X53009500Y21699500D03*
X89821010Y-20658990D03*
X121330000Y-73560000D03*
X97490500Y-74110000D03*
X92390501Y-41479499D03*
X101640000Y-29760000D03*
X92390501Y-34128481D03*
X101600000Y-93120000D03*
X-6390000Y22540000D03*
X-19930000Y-39590000D03*
X222550000Y-38960000D03*
X206950000Y21870000D03*
X89240000Y22580000D03*
X206690000Y-18380000D03*
X217850000Y-17150000D03*
X191460000Y22980000D03*
X180945000Y-67955000D03*
X77520000Y-65360000D03*
X91550000Y-65070000D03*
X30670000Y-75970000D03*
X-840000Y-16250000D03*
X-17240000Y-16180000D03*
X18490000Y7500000D03*
X24370000Y7500000D03*
X22030000Y22540000D03*
X91550000Y-47590000D03*
X134850000Y-92790000D03*
X140080000Y22980000D03*
X60450000Y22540000D03*
X88980510Y-25780000D03*
X28170000Y-53740000D03*
X109260000Y23300000D03*
X106140000Y-23900000D03*
X111730000Y-23930000D03*
X91550000Y-53700000D03*
X87977000Y-39517000D03*
X106760000Y-101280000D03*
X90661510Y-14720000D03*
X88980510Y-14779490D03*
X95595000Y-95925000D03*
X34700000Y-56000000D03*
X9750000Y-42330000D03*
X106780000Y-2630000D03*
X115610000Y-640000D03*
X121140000Y-63930000D03*
X102910000Y-63020000D03*
X60350000Y-62880000D03*
X-17930000Y-33640000D03*
X149190000Y-56010000D03*
X102140000Y-62070000D03*
X6270000Y-40513000D03*
X79960000Y-62070000D03*
X165710000Y-54270000D03*
X182790000Y-40060000D03*
X133210000Y-54240000D03*
X22840000Y-39736000D03*
X101200000Y-61060000D03*
X100020000Y-52859500D03*
X97497000Y-52859500D03*
X100350000Y-60040000D03*
X203310000Y-39470000D03*
X38640000Y-52260000D03*
X154100000Y-53250000D03*
X100100000Y-55290000D03*
X96720000Y-55280000D03*
X56910000Y-54100000D03*
X114660000Y-59190000D03*
X189620000Y-38505999D03*
X91560000Y-1240000D03*
X70700000Y4400000D03*
X91580000Y17910000D03*
X88180000Y-42770500D03*
X88140010Y-24020000D03*
X88080000Y11960000D03*
X62590000Y11930000D03*
X95063000Y-47643750D03*
X90970000Y-30070000D03*
X82730000Y-30000000D03*
X57780000Y7400000D03*
X19410000Y6659500D03*
X-6485676Y-48025676D03*
X27514324Y-72565676D03*
X25658746Y-69611254D03*
X66730000Y-89300000D03*
X73450000Y-66070000D03*
X126260000Y-66530000D03*
X123860000Y-65560000D03*
X174050000Y-56810000D03*
X172860000Y-33270000D03*
X206248484Y-24810500D03*
X184570000Y9780000D03*
X141200000Y9960000D03*
X106720000Y-350000D03*
X123780000Y4970000D03*
X107612296Y427000D03*
X122820000Y5747000D03*
X113887000Y-57340000D03*
X30750000Y-43350000D03*
X113110000Y-58320000D03*
X29370000Y-42830000D03*
X115070000Y-55430000D03*
X174840000Y-42010000D03*
X114572245Y-56479509D03*
X173637000Y-43160000D03*
X173800000Y-55230000D03*
X98979500Y-6870000D03*
X104800000Y-5710000D03*
X97365426Y-11194074D03*
X96350000Y13220000D03*
X108030000Y11300000D03*
X101270000Y11270000D03*
X104090000Y16640000D03*
X93230500Y-12648093D03*
X104580000Y8430000D03*
X93297000Y-11300000D03*
X109640000Y6890000D03*
X109040000Y16350000D03*
X102188420Y16142736D03*
X100633000Y16240000D03*
X100930000Y21160000D03*
X98560000Y21120000D03*
X107220000Y17560000D03*
X95830000Y-72180000D03*
X98190000Y-72180000D03*
X95943000Y-36990000D03*
X96370000Y-91970000D03*
X100860000Y-22580000D03*
X82613511Y-22573511D03*
X113860578Y-91319422D03*
X108423000Y-67900000D03*
X81610000Y-67930000D03*
X105010000Y-22580000D03*
X108423000Y-85435067D03*
X112333000Y-28530000D03*
X115901010Y-28480000D03*
X113510000Y4920000D03*
X103100000Y-650000D03*
D29*
X7120000Y1557920D02*
X7844120Y2282040D01*
X7120000Y240000D02*
X7120000Y1557920D01*
X28874606Y5494606D02*
X28590000Y5210000D01*
X28874606Y7165344D02*
X28874606Y5494606D01*
X48590293Y6500293D02*
X47300000Y5210000D01*
X48590293Y7141745D02*
X48590293Y6500293D01*
X65676378Y-2695660D02*
X65676378Y-4023622D01*
X65676378Y-4023622D02*
X64790000Y-4910000D01*
X83329478Y-10170000D02*
X83419864Y-10079614D01*
X81470000Y-10170000D02*
X83329478Y-10170000D01*
X92753000Y-5610000D02*
X91743000Y-4600000D01*
X95520000Y-5610000D02*
X92753000Y-5610000D01*
X87303000Y-2663000D02*
X87303000Y-10170000D01*
X7255193Y6912625D02*
X8698222Y5469596D01*
X7255193Y9407251D02*
X7255193Y6912625D01*
X28285679Y11795929D02*
X29728708Y10352900D01*
X28285679Y14290555D02*
X28285679Y11795929D01*
X48001366Y11772330D02*
X49444395Y10329301D01*
X48001366Y14266956D02*
X48001366Y11772330D01*
X65087451Y1934925D02*
X66530480Y491896D01*
X65087451Y4429551D02*
X65087451Y1934925D01*
X82830937Y-5449029D02*
X84273966Y-6892058D01*
X82830937Y-2954403D02*
X82830937Y-5449029D01*
X3782464Y-15250000D02*
X2913618Y-16118846D01*
X5080000Y-15250000D02*
X3782464Y-15250000D01*
X23944104Y-13805896D02*
X23690000Y-14060000D01*
X23944104Y-11235542D02*
X23944104Y-13805896D01*
X43659791Y-13230209D02*
X42830000Y-14060000D01*
X43659791Y-11259141D02*
X43659791Y-13230209D01*
X60745876Y-21096546D02*
X60745876Y-22554124D01*
X60745876Y-22554124D02*
X60610000Y-22690000D01*
X76449500Y-28480500D02*
X76170000Y-28760000D01*
X78489362Y-28480500D02*
X76449500Y-28480500D01*
X95520000Y-6410000D02*
X92690000Y-6410000D01*
X91657000Y-5377000D02*
X90749852Y-5377000D01*
X92690000Y-6410000D02*
X91657000Y-5377000D01*
X86526000Y-4747010D02*
X86526000Y-3750000D01*
X86525999Y-9797039D02*
X86830000Y-9493038D01*
X87413038Y-11873038D02*
X87413038Y-11430000D01*
X87625990Y-12085990D02*
X87413038Y-11873038D01*
X86830000Y-5051010D02*
X86526000Y-4747010D01*
X87625990Y-19301944D02*
X87625990Y-12085990D01*
X86525999Y-10542961D02*
X86525999Y-9797039D01*
X83450000Y-23477934D02*
X87625990Y-19301944D01*
X86830000Y-9493038D02*
X86830000Y-5051010D01*
X87413038Y-11430000D02*
X86525999Y-10542961D01*
X83450000Y-25610000D02*
X83450000Y-23477934D01*
X81857000Y-27203000D02*
X83450000Y-25610000D01*
X81857000Y-28750000D02*
X81857000Y-27203000D01*
X2324691Y-11488261D02*
X3767720Y-12931290D01*
X2324691Y-8993635D02*
X2324691Y-11488261D01*
X23355177Y-6604957D02*
X24798206Y-8047986D01*
X23355177Y-4110331D02*
X23355177Y-6604957D01*
X43070864Y-6628556D02*
X44513893Y-8071585D01*
X43070864Y-4133930D02*
X43070864Y-6628556D01*
X60156949Y-16465961D02*
X61599978Y-17908990D01*
X60156949Y-13971335D02*
X60156949Y-16465961D01*
X77900435Y-23849915D02*
X79343464Y-25292944D01*
X77900435Y-21355289D02*
X77900435Y-23849915D01*
X-2260000Y-34762848D02*
X-2016884Y-34519732D01*
X-2260000Y-37110000D02*
X-2260000Y-34762848D01*
X-2260000Y-49111156D02*
X-2100578Y-49270578D01*
X-2260000Y-37110000D02*
X-2260000Y-49111156D01*
X4592949Y-54777051D02*
X4592949Y-50153778D01*
X3999422Y-55370578D02*
X4592949Y-54777051D01*
X38729289Y-31160711D02*
X37310000Y-32580000D01*
X38729289Y-29660027D02*
X38729289Y-31160711D01*
X55815374Y-39497432D02*
X55815374Y-42354626D01*
X55815374Y-42354626D02*
X55595000Y-42575000D01*
X73558860Y-48141140D02*
X73330000Y-48370000D01*
X73558860Y-46881386D02*
X73558860Y-48141140D01*
X92340000Y-7210000D02*
X91450000Y-6320000D01*
X95520000Y-7210000D02*
X92340000Y-7210000D01*
X19013602Y-32006398D02*
X18440000Y-32580000D01*
X19013602Y-29636428D02*
X19013602Y-32006398D01*
X86360000Y-5704458D02*
X86053000Y-5397458D01*
X79250000Y-48370000D02*
X79250000Y-32960000D01*
X87171980Y-12421980D02*
X86959028Y-12209028D01*
X86959028Y-12209028D02*
X86959028Y-11619028D01*
X81080000Y-31130000D02*
X81080000Y-27090000D01*
X81080000Y-27090000D02*
X82830000Y-25340000D01*
X82830000Y-25340000D02*
X82830000Y-23455867D01*
X82830000Y-23455867D02*
X87171980Y-19113888D01*
X86360000Y-9320972D02*
X86360000Y-5704458D01*
X87171980Y-19113888D02*
X87171980Y-12421980D01*
X86959028Y-11619028D02*
X86071989Y-10731989D01*
X86071989Y-10731989D02*
X86071989Y-9608983D01*
X79250000Y-32960000D02*
X81080000Y-31130000D01*
X86071989Y-9608983D02*
X86360000Y-9320972D01*
X-2605811Y-29889147D02*
X-1162782Y-31332176D01*
X-2605811Y-27394521D02*
X-2605811Y-29889147D01*
X18424675Y-25005843D02*
X19867704Y-26448872D01*
X18424675Y-22511217D02*
X18424675Y-25005843D01*
X38140362Y-25029442D02*
X39583391Y-26472471D01*
X38140362Y-22534816D02*
X38140362Y-25029442D01*
X55226447Y-34866847D02*
X56669476Y-36309876D01*
X55226447Y-32372221D02*
X55226447Y-34866847D01*
X72969933Y-42250801D02*
X74412962Y-43693830D01*
X72969933Y-39756175D02*
X72969933Y-42250801D01*
X209334910Y4555090D02*
X209334910Y6555143D01*
X210120000Y3770000D02*
X209334910Y4555090D01*
X168588737Y3558737D02*
X167820000Y2790000D01*
X168588737Y11414847D02*
X168588737Y3558737D01*
X151502652Y-1672652D02*
X151545000Y-1715000D01*
X151502652Y1577442D02*
X151502652Y-1672652D01*
X133759166Y-8229166D02*
X134545000Y-9015000D01*
X133759166Y-5806512D02*
X133759166Y-8229166D01*
X188304424Y11438446D02*
X188304424Y10244424D01*
X186990000Y8930000D02*
X186990000Y2790000D01*
X188304424Y10244424D02*
X186990000Y8930000D01*
X108790000Y-6410000D02*
X109690000Y-5510000D01*
X107320000Y-6410000D02*
X108790000Y-6410000D01*
X197047051Y-49773778D02*
X197686222Y-49773778D01*
X197686222Y-49773778D02*
X199080000Y-48380000D01*
X199080000Y-48380000D02*
X199080000Y-43290000D01*
X199080000Y-43290000D02*
X192820000Y-37030000D01*
X192820000Y-37030000D02*
X192820000Y-23800000D01*
X192820000Y-23800000D02*
X191740000Y-22720000D01*
X191740000Y-22720000D02*
X189510000Y-22720000D01*
X189510000Y-22720000D02*
X187840000Y-21050000D01*
X187840000Y-7076121D02*
X187780000Y-7016121D01*
X187840000Y-21050000D02*
X187840000Y-7076121D01*
X187780000Y-7016121D02*
X187780000Y-6030000D01*
X187780000Y-6030000D02*
X186220000Y-4470000D01*
X186220000Y-4470000D02*
X184520000Y-4470000D01*
X184520000Y-4470000D02*
X182190000Y-2140000D01*
X182190000Y-2140000D02*
X182190000Y2790000D01*
X132375131Y-2618956D02*
X132905064Y-2618956D01*
X129686536Y69639D02*
X132375131Y-2618956D01*
X150118617Y4764998D02*
X150648550Y4764998D01*
X147430022Y7453593D02*
X150118617Y4764998D01*
X167204702Y14602403D02*
X167734635Y14602403D01*
X164516107Y17290998D02*
X167204702Y14602403D01*
X186920389Y14626002D02*
X187450322Y14626002D01*
X184231794Y17314597D02*
X186920389Y14626002D01*
X207950875Y9742699D02*
X208480808Y9742699D01*
X205262280Y12431294D02*
X207950875Y9742699D01*
X117910000Y-12027000D02*
X117910000Y-22880000D01*
X119420000Y-24390000D02*
X119420000Y-30630000D01*
X117910000Y-22880000D02*
X119420000Y-24390000D01*
X215000000Y-12580331D02*
X214265412Y-11845743D01*
X215000000Y-15790000D02*
X215000000Y-12580331D01*
X193234926Y-9455074D02*
X190020000Y-12670000D01*
X193234926Y-6962440D02*
X193234926Y-9455074D01*
X173519239Y-11209239D02*
X174980000Y-12670000D01*
X173519239Y-6986039D02*
X173519239Y-11209239D01*
X156433154Y-19533154D02*
X157600000Y-20700000D01*
X156433154Y-16823444D02*
X156433154Y-19533154D01*
X138689668Y-25749668D02*
X139450000Y-26510000D01*
X138689668Y-24207398D02*
X138689668Y-25749668D01*
X107320000Y-7210000D02*
X108770000Y-7210000D01*
X108770000Y-7210000D02*
X109670000Y-6310000D01*
X110394449Y-6310000D02*
X110418575Y-6334126D01*
X109670000Y-6310000D02*
X110394449Y-6310000D01*
X117910000Y-11558844D02*
X117865578Y-11514422D01*
X117910000Y-12027000D02*
X117910000Y-11558844D01*
X137305633Y-21019842D02*
X137835566Y-21019842D01*
X134617038Y-18331247D02*
X137305633Y-21019842D01*
X155049119Y-13635888D02*
X155579052Y-13635888D01*
X152360524Y-10947293D02*
X155049119Y-13635888D01*
X172135204Y-3798483D02*
X172665137Y-3798483D01*
X169446609Y-1109888D02*
X172135204Y-3798483D01*
X191850891Y-3774884D02*
X192380824Y-3774884D01*
X189162296Y-1086289D02*
X191850891Y-3774884D01*
X212881377Y-8658187D02*
X213411310Y-8658187D01*
X210192782Y-5969592D02*
X212881377Y-8658187D01*
X196870000Y-31920000D02*
X196870000Y-34710000D01*
X195340000Y-30390000D02*
X196870000Y-31920000D01*
X219195914Y-32245914D02*
X219195914Y-30246629D01*
X219760000Y-32810000D02*
X219195914Y-32245914D01*
X195340000Y-28188754D02*
X198165428Y-25363326D01*
X195340000Y-30390000D02*
X195340000Y-28188754D01*
X178449741Y-30689741D02*
X179640000Y-31880000D01*
X178449741Y-25386925D02*
X178449741Y-30689741D01*
X161363656Y-38703656D02*
X163130000Y-40470000D01*
X161363656Y-35224330D02*
X161363656Y-38703656D01*
X143620170Y-45470170D02*
X146070000Y-47920000D01*
X143620170Y-42608284D02*
X143620170Y-45470170D01*
X107320000Y-8010000D02*
X108800000Y-8010000D01*
X108800000Y-8010000D02*
X108850000Y-8010000D01*
X109748874Y-7111126D02*
X111300000Y-7111126D01*
X108850000Y-8010000D02*
X109748874Y-7111126D01*
X117455990Y-12653769D02*
X117018985Y-12216764D01*
X117455990Y-23068057D02*
X117455990Y-12653769D01*
X118730000Y-24342067D02*
X117455990Y-23068057D01*
X118630000Y-30270038D02*
X118730000Y-30170038D01*
X118630000Y-32390000D02*
X118630000Y-30270038D01*
X122170000Y-35930000D02*
X118630000Y-32390000D01*
X122170000Y-45850000D02*
X122170000Y-35930000D01*
X118730000Y-30170038D02*
X118730000Y-24342067D01*
X122250000Y-45930000D02*
X122170000Y-45850000D01*
X122250000Y-47850000D02*
X122250000Y-45930000D01*
X142236135Y-39420728D02*
X142766068Y-39420728D01*
X139547540Y-36732133D02*
X142236135Y-39420728D01*
X159979621Y-32036774D02*
X160509554Y-32036774D01*
X157291026Y-29348179D02*
X159979621Y-32036774D01*
X177065706Y-22199369D02*
X177595639Y-22199369D01*
X174377111Y-19510774D02*
X177065706Y-22199369D01*
X196781393Y-22175770D02*
X197311326Y-22175770D01*
X194092798Y-19487175D02*
X196781393Y-22175770D01*
X217811879Y-27059073D02*
X218341812Y-27059073D01*
X215123284Y-24370478D02*
X217811879Y-27059073D01*
X109419500Y-12010000D02*
X109700000Y-12290500D01*
X107320000Y-12010000D02*
X109419500Y-12010000D01*
X169581160Y-70971160D02*
X169581160Y-65892474D01*
X170860000Y-72250000D02*
X169581160Y-70971160D01*
X47597870Y-71882130D02*
X42670000Y-76810000D01*
X47597870Y-70165576D02*
X47597870Y-71882130D01*
X67283115Y-84966885D02*
X64250000Y-88000000D01*
X67283115Y-79402824D02*
X67283115Y-84966885D01*
X85012052Y-92547948D02*
X80595000Y-96965000D01*
X85012052Y-91300176D02*
X85012052Y-92547948D01*
X129743744Y-81830430D02*
X133023314Y-85110000D01*
X133023314Y-91266686D02*
X132820000Y-91470000D01*
X133023314Y-85110000D02*
X133023314Y-91266686D01*
X148911621Y-72425398D02*
X153160000Y-76673777D01*
X153160000Y-80130000D02*
X153700000Y-80670000D01*
X153160000Y-76673777D02*
X153160000Y-80130000D01*
X112680000Y-89050000D02*
X112690000Y-89050000D01*
X109200000Y-47160000D02*
X109200000Y-85570000D01*
X110020000Y-46340000D02*
X109200000Y-47160000D01*
X109200000Y-30590000D02*
X110020000Y-31410000D01*
X115880000Y-92240000D02*
X115880000Y-97900000D01*
X110020000Y-31410000D02*
X110020000Y-46340000D01*
X109200000Y-14590000D02*
X109200000Y-30590000D01*
X112690000Y-89050000D02*
X115880000Y-92240000D01*
X109730000Y-14060000D02*
X109200000Y-14590000D01*
X109200000Y-85570000D02*
X112680000Y-89050000D01*
X47008943Y-65534991D02*
X48451972Y-66978020D01*
X47008943Y-63040365D02*
X47008943Y-65534991D01*
X67940416Y-75674669D02*
X68677755Y-76412008D01*
X67940416Y-72283595D02*
X67940416Y-75674669D01*
X86895608Y-88587728D02*
X86904854Y-88596974D01*
X86895608Y-84403243D02*
X86895608Y-88587728D01*
X145428123Y-67345724D02*
X147516981Y-69434582D01*
X143880480Y-67345724D02*
X145428123Y-67345724D01*
X168197125Y-62704918D02*
X168727058Y-62704918D01*
X165508530Y-60016323D02*
X168197125Y-62704918D01*
X95340000Y-4630000D02*
X95520000Y-4810000D01*
X95340000Y-2890000D02*
X95340000Y-4630000D01*
D30*
X90340000Y17190000D02*
X89821010Y16671010D01*
X221560000Y-37870000D02*
X221560000Y-32710000D01*
X221560000Y-32710000D02*
X221410000Y-32560000D01*
X221410000Y-32560000D02*
X221410000Y-28950000D01*
X221410000Y-28950000D02*
X220120000Y-27660000D01*
X220120000Y-27660000D02*
X220120000Y-23920000D01*
X220120000Y-23920000D02*
X218820000Y-22620000D01*
X218820000Y-22620000D02*
X218820000Y-19363942D01*
X216840000Y-17383942D02*
X216840000Y-12410000D01*
X216840000Y-12410000D02*
X215770000Y-11340000D01*
X215770000Y-11340000D02*
X215770000Y-7750000D01*
X215770000Y-7750000D02*
X213590000Y-5570000D01*
X213590000Y-5570000D02*
X213590000Y530000D01*
X211948990Y8399338D02*
X210220000Y10128328D01*
X211948990Y2171010D02*
X211948990Y8399338D01*
X213590000Y530000D02*
X211948990Y2171010D01*
X210220000Y10128328D02*
X210220000Y13450000D01*
X210220000Y13450000D02*
X208110000Y15560000D01*
X208110000Y15560000D02*
X208110000Y19310000D01*
X205360000Y22060000D02*
X205230000Y22060000D01*
X208110000Y19310000D02*
X205360000Y22060000D01*
X131180000Y22050000D02*
X131180000Y12220000D01*
X133160000Y10240000D02*
X134440000Y10240000D01*
X131180000Y12220000D02*
X133160000Y10240000D01*
X184590000Y5070000D02*
X182590000Y5070000D01*
X182590000Y5070000D02*
X182630000Y5110000D01*
X182630000Y5110000D02*
X182630000Y12310000D01*
X182630000Y12310000D02*
X182620000Y12310000D01*
X182620000Y12310000D02*
X180830000Y14100000D01*
X180830000Y14100000D02*
X179570000Y14100000D01*
X177500000Y16170000D02*
X177500000Y22060000D01*
X179570000Y14100000D02*
X177500000Y16170000D01*
X199860000Y-21630000D02*
X202200000Y-23970000D01*
X217853029Y-18396971D02*
X216840000Y-17383942D01*
X218820000Y-19363942D02*
X217853029Y-18396971D01*
X173500000Y-69699500D02*
X174600000Y-70799500D01*
X173500000Y-63040000D02*
X173500000Y-69699500D01*
X72640000Y-74300000D02*
X72640000Y-76510000D01*
X72640000Y-76510000D02*
X70850000Y-78300000D01*
X70850000Y-78300000D02*
X70850000Y-82670000D01*
X64820000Y-88700000D02*
X64820000Y-89730000D01*
X70850000Y-82670000D02*
X64820000Y-88700000D01*
X-19900000Y-38090000D02*
X-20810000Y-37180000D01*
X-20810000Y-37180000D02*
X-20810000Y-33290000D01*
X-20810000Y-33290000D02*
X-19750000Y-32230000D01*
X-19750000Y-32230000D02*
X-19750000Y-27130000D01*
X-19750000Y-27130000D02*
X-18790000Y-26170000D01*
X-18790000Y-26170000D02*
X-18790000Y-22540000D01*
X-16399499Y-20149499D02*
X-16399499Y-14369499D01*
X-18790000Y-22540000D02*
X-16399499Y-20149499D01*
X-16399499Y-14369499D02*
X-14750000Y-12720000D01*
X-14750000Y-12720000D02*
X-14750000Y-7570000D01*
X-14750000Y-7570000D02*
X-13230000Y-6050000D01*
X-13230000Y-6050000D02*
X-13230000Y-1410000D01*
X-13230000Y-1410000D02*
X-11660000Y160000D01*
X-11660000Y160000D02*
X-11660000Y4420000D01*
X-10420000Y5660000D02*
X-10420000Y9410000D01*
X-11660000Y4420000D02*
X-10420000Y5660000D01*
X-10420000Y9410000D02*
X-8810000Y11020000D01*
X-8810000Y11020000D02*
X-8810000Y15570000D01*
X-7230000Y17150000D02*
X-7230000Y21110000D01*
X-8810000Y15570000D02*
X-7230000Y17150000D01*
X-6640500Y21699500D02*
X-5380000Y21699500D01*
X-7230000Y21110000D02*
X-6640500Y21699500D01*
X23270000Y-69180000D02*
X23105000Y-69345000D01*
X23270000Y-63150000D02*
X23270000Y-69180000D01*
X-6940000Y-21830000D02*
X-6950000Y-21820000D01*
X-5120000Y-21830000D02*
X-6940000Y-21830000D01*
X11540000Y4290000D02*
X11540000Y5100000D01*
X11540000Y5100000D02*
X9759500Y6880500D01*
X9759500Y6880500D02*
X9759500Y21699500D01*
X55360000Y12030000D02*
X54470000Y12030000D01*
X53009500Y13490500D02*
X53009500Y21699500D01*
X54470000Y12030000D02*
X53009500Y13490500D01*
X89821010Y16671010D02*
X89821010Y-15091010D01*
X89821010Y-15091010D02*
X89821010Y-20658990D01*
X121340000Y-73550000D02*
X121330000Y-73560000D01*
X123460000Y-73550000D02*
X121340000Y-73550000D01*
X97280000Y-73899500D02*
X97490500Y-74110000D01*
X97280000Y-69860000D02*
X97280000Y-73899500D01*
X92390501Y-64970501D02*
X97280000Y-69860000D01*
X92390501Y-48649499D02*
X92390501Y-64970501D01*
X101540000Y-89090000D02*
X96390000Y-83940000D01*
X96390000Y-83940000D02*
X96390000Y-80960000D01*
X97490500Y-79859500D02*
X97490500Y-74110000D01*
X96390000Y-80960000D02*
X97490500Y-79859500D01*
X92390501Y-40220501D02*
X92390501Y-34128481D01*
X92390501Y-34128481D02*
X89821010Y-31558990D01*
X89821010Y-20658990D02*
X89821010Y-31558990D01*
X92390501Y-40220501D02*
X92390501Y-41479499D01*
X92390501Y-48649499D02*
X92390501Y-41479499D01*
X103160000Y-28240000D02*
X101640000Y-29760000D01*
X103160000Y-26700000D02*
X103160000Y-28240000D01*
X101540000Y-93060000D02*
X101600000Y-93120000D01*
X101540000Y-89090000D02*
X101540000Y-93060000D01*
X102600000Y-94120000D02*
X101600000Y-93120000D01*
X102600000Y-100320000D02*
X102600000Y-94120000D01*
X-6390000Y22540000D02*
X-7070000Y22540000D01*
X-7070000Y22540000D02*
X-8060000Y21550000D01*
X-8060000Y21550000D02*
X-8060000Y17570000D01*
X-8060000Y17570000D02*
X-9560000Y16070000D01*
X-9560000Y16070000D02*
X-9560000Y11390000D01*
X-9560000Y11390000D02*
X-11140000Y9810000D01*
X-11140000Y9810000D02*
X-11140000Y5830000D01*
X-11140000Y5830000D02*
X-12400000Y4570000D01*
X-12400000Y4570000D02*
X-12400000Y500000D01*
X-12400000Y500000D02*
X-13940000Y-1040000D01*
X-13940000Y-1040000D02*
X-13940000Y-5730000D01*
X-13940000Y-5730000D02*
X-15530000Y-7320000D01*
X-15530000Y-7320000D02*
X-15530000Y-12220000D01*
X-15530000Y-12220000D02*
X-17240000Y-13930000D01*
X-17240000Y-19960000D02*
X-19490000Y-22210000D01*
X-19490000Y-22210000D02*
X-19490000Y-25850000D01*
X-19490000Y-25850000D02*
X-20540000Y-26900000D01*
X-20540000Y-26900000D02*
X-20540000Y-32020000D01*
X-20540000Y-32020000D02*
X-21640000Y-33120000D01*
X-21640000Y-37880000D02*
X-19930000Y-39590000D01*
X-21640000Y-33120000D02*
X-21640000Y-37880000D01*
X222550000Y-38960000D02*
X222550000Y-32590000D01*
X222550000Y-32590000D02*
X222230000Y-32270000D01*
X222230000Y-32270000D02*
X222230000Y-28720000D01*
X222230000Y-28720000D02*
X220920000Y-27410000D01*
X220920000Y-27410000D02*
X220920000Y-23570000D01*
X220920000Y-23570000D02*
X219570000Y-22220000D01*
X219570000Y-22220000D02*
X219570000Y-18870000D01*
X219570000Y-18870000D02*
X217850000Y-17150000D01*
X217850000Y-17150000D02*
X217850000Y-12450000D01*
X217850000Y-12450000D02*
X216540000Y-11140000D01*
X216540000Y-11140000D02*
X216540000Y-7280000D01*
X216540000Y-7280000D02*
X214400000Y-5140000D01*
X214400000Y-5140000D02*
X214400000Y750000D01*
X214400000Y750000D02*
X212530000Y2620000D01*
X212530000Y2620000D02*
X212530000Y8640000D01*
X212530000Y8640000D02*
X210960000Y10210000D01*
X210960000Y10210000D02*
X210960000Y13860000D01*
X210960000Y13860000D02*
X209020000Y15800000D01*
X209020000Y19800000D02*
X206950000Y21870000D01*
X209020000Y15800000D02*
X209020000Y19800000D01*
X206640000Y-18430000D02*
X206690000Y-18380000D01*
X204760000Y-18430000D02*
X206640000Y-18430000D01*
X189490000Y8270000D02*
X189490000Y8350000D01*
X191460000Y10320000D02*
X191460000Y22980000D01*
X189490000Y8350000D02*
X191460000Y10320000D01*
X178400000Y-59840000D02*
X178400000Y-59830000D01*
X178400000Y-59830000D02*
X175070000Y-56500000D01*
X175070000Y-56500000D02*
X175070000Y-55220000D01*
X176913610Y-53376390D02*
X178935948Y-53376390D01*
X175070000Y-55220000D02*
X176913610Y-53376390D01*
X178400000Y-59840000D02*
X179720000Y-59840000D01*
X180945000Y-61065000D02*
X180945000Y-67955000D01*
X179720000Y-59840000D02*
X180945000Y-61065000D01*
X77540000Y-65380000D02*
X77520000Y-65360000D01*
X77540000Y-71100000D02*
X77540000Y-65380000D01*
X91550000Y-65070000D02*
X91550000Y-65150000D01*
X28170000Y-59950000D02*
X29370000Y-59950000D01*
X30670000Y-61250000D02*
X30670000Y-75970000D01*
X29370000Y-59950000D02*
X30670000Y-61250000D01*
X-220000Y-16870000D02*
X-840000Y-16250000D01*
X-220000Y-18630000D02*
X-220000Y-16870000D01*
X-17240000Y-16180000D02*
X-17240000Y-19960000D01*
X-17240000Y-13930000D02*
X-17240000Y-16180000D01*
X18480000Y7490000D02*
X18490000Y7500000D01*
X16440000Y7490000D02*
X18480000Y7490000D01*
X24370000Y7500000D02*
X24370000Y12340000D01*
X22030000Y14680000D02*
X22030000Y22540000D01*
X24370000Y12340000D02*
X22030000Y14680000D01*
X91550000Y-47590000D02*
X91550000Y-50230000D01*
X139340000Y22240000D02*
X140080000Y22980000D01*
X139340000Y13440000D02*
X139340000Y22240000D01*
X60260000Y22350000D02*
X60450000Y22540000D01*
X60260000Y15230000D02*
X60260000Y22350000D01*
X130970000Y-70350000D02*
X128360000Y-70350000D01*
X130970000Y-73610000D02*
X130970000Y-70350000D01*
X130883855Y-73696145D02*
X130970000Y-73610000D01*
X130883855Y-77613855D02*
X130883855Y-73696145D01*
X134850000Y-81580000D02*
X130883855Y-77613855D01*
X134850000Y-92790000D02*
X134850000Y-81580000D01*
X89240000Y22580000D02*
X89240000Y17020000D01*
X89240000Y17020000D02*
X88980510Y16760510D01*
X88980510Y-15959490D02*
X88980510Y-25780000D01*
X28170000Y-59950000D02*
X28170000Y-53740000D01*
X97435000Y18085000D02*
X97435000Y18325000D01*
X94330000Y14980000D02*
X97435000Y18085000D01*
X103885000Y18325000D02*
X103885000Y18275000D01*
X103885000Y18275000D02*
X104940000Y17220000D01*
X109232500Y23272500D02*
X109260000Y23300000D01*
X109232500Y20990000D02*
X109232500Y23272500D01*
X92890000Y21670000D02*
X91980000Y22580000D01*
X91980000Y22580000D02*
X89240000Y22580000D01*
X98560000Y13027500D02*
X98560000Y12990000D01*
X98560000Y12990000D02*
X97570000Y12000000D01*
X97570000Y12000000D02*
X95240000Y12000000D01*
X94330000Y12910000D02*
X94330000Y14980000D01*
X95240000Y12000000D02*
X94330000Y12910000D01*
X98560000Y13027500D02*
X98560000Y11360000D01*
X98560000Y11360000D02*
X100430000Y9490000D01*
X104050000Y10820000D02*
X104050000Y13017500D01*
X102720000Y9490000D02*
X104050000Y10820000D01*
X104050000Y13017500D02*
X104627500Y13017500D01*
X104627500Y13017500D02*
X105640000Y14030000D01*
X104940000Y16335558D02*
X104940000Y17220000D01*
X105640000Y15635558D02*
X104940000Y16335558D01*
X105640000Y14030000D02*
X105640000Y15635558D01*
X109232500Y19582500D02*
X109232500Y20990000D01*
X108080000Y18430000D02*
X109232500Y19582500D01*
X108080000Y15030000D02*
X108080000Y18430000D01*
X108080000Y18430000D02*
X106190000Y18430000D01*
X104980000Y17220000D02*
X104940000Y17220000D01*
X106190000Y18430000D02*
X104980000Y17220000D01*
X99820000Y1550000D02*
X99840000Y1570000D01*
X101737098Y3270000D02*
X102040000Y3270000D01*
X100037098Y1570000D02*
X101737098Y3270000D01*
X99840000Y1570000D02*
X100037098Y1570000D01*
X104622500Y3270000D02*
X104980000Y3627500D01*
X102040000Y3270000D02*
X104622500Y3270000D01*
X97040000Y1442500D02*
X96317500Y1442500D01*
X96317500Y1442500D02*
X95080000Y2680000D01*
X95080000Y2680000D02*
X95080000Y4280000D01*
X95080000Y4280000D02*
X96280000Y5480000D01*
X102040000Y4710000D02*
X102040000Y3270000D01*
X101270000Y5480000D02*
X102040000Y4710000D01*
X99820000Y-1779000D02*
X97861000Y180000D01*
X99820000Y-2910000D02*
X99820000Y-1779000D01*
X97861000Y621500D02*
X97040000Y1442500D01*
X97861000Y180000D02*
X97861000Y621500D01*
X107320000Y-4810000D02*
X107940000Y-4810000D01*
X106032500Y-17890000D02*
X106032500Y-16862500D01*
X106032500Y-16862500D02*
X105410000Y-16240000D01*
X104620000Y-15841000D02*
X104620000Y-14710000D01*
X105019000Y-16240000D02*
X104620000Y-15841000D01*
X105410000Y-16240000D02*
X105019000Y-16240000D01*
X98220000Y-17247500D02*
X98220000Y-14710000D01*
X97587500Y-17880000D02*
X98220000Y-17247500D01*
X92390000Y-11837500D02*
X91250000Y-10697500D01*
X92390000Y-14732500D02*
X92390000Y-11837500D01*
X91250000Y-10697500D02*
X91612500Y-10697500D01*
X92700000Y-9610000D02*
X95520000Y-9610000D01*
X91612500Y-10697500D02*
X92700000Y-9610000D01*
X95520000Y-9610000D02*
X96970000Y-9610000D01*
X98220000Y-10860000D02*
X98220000Y-14710000D01*
X96970000Y-9610000D02*
X98220000Y-10860000D01*
X99820000Y-9260000D02*
X98220000Y-10860000D01*
X99820000Y-2910000D02*
X99820000Y-9260000D01*
X107320000Y-4810000D02*
X104270000Y-4810000D01*
X104460501Y-9540501D02*
X102000000Y-7080000D01*
X104580000Y-14710000D02*
X104460501Y-14590501D01*
X104620000Y-14710000D02*
X104580000Y-14710000D01*
X102000000Y-7080000D02*
X99820000Y-9260000D01*
X104460501Y-14590501D02*
X104460501Y-9540501D01*
X104270000Y-4810000D02*
X102000000Y-7080000D01*
X107320000Y-4810000D02*
X107320000Y-3500000D01*
X109197500Y-1622500D02*
X110560000Y-1622500D01*
X107320000Y-3500000D02*
X109197500Y-1622500D01*
X106032500Y-23792500D02*
X106140000Y-23900000D01*
X106032500Y-17890000D02*
X106032500Y-23792500D01*
X111760000Y-23900000D02*
X111730000Y-23930000D01*
X111760000Y-14892500D02*
X111760000Y-23900000D01*
X91550000Y-53700000D02*
X91550000Y-65070000D01*
X91550000Y-50230000D02*
X91550000Y-53700000D01*
X88800000Y-42060000D02*
X88800000Y-42050000D01*
X89100499Y-42360499D02*
X88800000Y-42060000D01*
X89100499Y-45140499D02*
X89100499Y-42360499D01*
X91550000Y-47590000D02*
X89100499Y-45140499D01*
X87977000Y-41237000D02*
X88800000Y-42060000D01*
X88980510Y-32390510D02*
X88980510Y-25780000D01*
X87977000Y-33394020D02*
X88980510Y-32390510D01*
X87977000Y-36270000D02*
X87977000Y-33394020D01*
X108240000Y-33685000D02*
X105100000Y-30545000D01*
X105100000Y-24940000D02*
X106140000Y-23900000D01*
X105100000Y-30545000D02*
X105100000Y-24940000D01*
X87977000Y-39517000D02*
X87977000Y-41237000D01*
X87977000Y-36270000D02*
X87977000Y-39517000D01*
X107719000Y-89320000D02*
X109600000Y-89320000D01*
X106760000Y-90279000D02*
X107719000Y-89320000D01*
X106760000Y-101280000D02*
X106760000Y-90279000D01*
X90674010Y-14732500D02*
X90661510Y-14720000D01*
X92390000Y-14732500D02*
X90674010Y-14732500D01*
X88980510Y-14779490D02*
X88980510Y-15959490D01*
X88980510Y16760510D02*
X88980510Y-14779490D01*
X100560000Y9460000D02*
X100530000Y9490000D01*
X100560000Y5480000D02*
X100560000Y9460000D01*
X100430000Y9490000D02*
X100530000Y9490000D01*
X100530000Y9490000D02*
X102720000Y9490000D01*
X96280000Y5480000D02*
X100560000Y5480000D01*
X100560000Y5480000D02*
X101270000Y5480000D01*
X91550000Y-70670000D02*
X91550000Y-65070000D01*
X92920000Y-72040000D02*
X91550000Y-70670000D01*
X98600000Y-100320000D02*
X98600000Y-98930000D01*
X92920000Y-93250000D02*
X92920000Y-72040000D01*
X95595000Y-95925000D02*
X92920000Y-93250000D01*
X98600000Y-98930000D02*
X95595000Y-95925000D01*
D29*
X34700000Y-61313082D02*
X33865020Y-62148062D01*
X34700000Y-56000000D02*
X34700000Y-61313082D01*
X9750000Y-46395470D02*
X8936771Y-47208699D01*
X9750000Y-42330000D02*
X9750000Y-46395470D01*
X127718417Y-42531338D02*
X127718417Y-33548417D01*
X122787915Y-28617915D02*
X122787915Y-24130452D01*
X127718417Y-33548417D02*
X122787915Y-28617915D01*
X122787915Y-24130452D02*
X122787915Y-15337915D01*
X117857413Y-10407413D02*
X117857413Y-5729566D01*
X122787915Y-15337915D02*
X117857413Y-10407413D01*
X105700000Y-2630000D02*
X105420000Y-2910000D01*
X106780000Y-2630000D02*
X105700000Y-2630000D01*
X117857413Y-2887413D02*
X117857413Y-5729566D01*
X115610000Y-640000D02*
X117857413Y-2887413D01*
X121140000Y-63930000D02*
X121140000Y-54210000D01*
X127718417Y-47631583D02*
X127718417Y-42531338D01*
X121140000Y-54210000D02*
X127718417Y-47631583D01*
X55151125Y-68078875D02*
X55151125Y-69122431D01*
X60350000Y-62880000D02*
X55151125Y-68078875D01*
X-17930000Y-33640000D02*
X-17930000Y-29100000D01*
X-15749734Y-26919734D02*
X-15749734Y-26502218D01*
X-17930000Y-29100000D02*
X-15749734Y-26919734D01*
X-15749734Y-26502218D02*
X-12980000Y-23732484D01*
X-12980000Y-10262100D02*
X-10819232Y-8101332D01*
X-12980000Y-23732484D02*
X-12980000Y-10262100D01*
X-10819232Y-8101332D02*
X-10819232Y350768D01*
X-10819232Y350768D02*
X-7700000Y3470000D01*
X-7700000Y8488284D02*
X-5888730Y10299554D01*
X-7700000Y3470000D02*
X-7700000Y8488284D01*
X149190000Y-56010000D02*
X149190000Y-43020000D01*
X145461903Y-39291903D02*
X145461903Y-35147384D01*
X149190000Y-43020000D02*
X145461903Y-39291903D01*
X145461903Y-35147384D02*
X145461903Y-30241903D01*
X145461903Y-30241903D02*
X142370000Y-27150000D01*
X142370000Y-27150000D02*
X142370000Y-22740000D01*
X140531401Y-20901401D02*
X140531401Y-16746498D01*
X142370000Y-22740000D02*
X140531401Y-20901401D01*
X140531401Y-16746498D02*
X140531401Y-12051401D01*
X140531401Y-12051401D02*
X137130000Y-8650000D01*
X137130000Y-8650000D02*
X137130000Y-3400000D01*
X135600899Y-1870899D02*
X135600899Y1654388D01*
X137130000Y-3400000D02*
X135600899Y-1870899D01*
X101943999Y-21076001D02*
X103020000Y-20000000D01*
X103020000Y-20000000D02*
X103020000Y-14710000D01*
X100680000Y-32350000D02*
X100680000Y-28860000D01*
X100680000Y-28860000D02*
X101943999Y-27596001D01*
X102324010Y-33994010D02*
X100680000Y-32350000D01*
X102324010Y-41284010D02*
X102324010Y-33994010D01*
X102670000Y-41630000D02*
X102324010Y-41284010D01*
X103060000Y-43240000D02*
X102670000Y-42850000D01*
X103060000Y-62870000D02*
X103060000Y-43240000D01*
X101943999Y-27596001D02*
X101943999Y-21076001D01*
X102670000Y-42850000D02*
X102670000Y-41630000D01*
X102910000Y-63020000D02*
X103060000Y-62870000D01*
X6270000Y-40513000D02*
X6270000Y-29810000D01*
X6270000Y-29810000D02*
X4160000Y-27700000D01*
X4160000Y-22739666D02*
X5280752Y-21618914D01*
X4160000Y-27700000D02*
X4160000Y-22739666D01*
X74849545Y-79069267D02*
X76808812Y-77110000D01*
X76808812Y-77110000D02*
X78690000Y-77110000D01*
X79960000Y-75840000D02*
X79960000Y-62070000D01*
X78690000Y-77110000D02*
X79960000Y-75840000D01*
X165710000Y-54270000D02*
X165710000Y-33830000D01*
X165710000Y-33830000D02*
X162840000Y-30960000D01*
X162840000Y-25601991D02*
X162547988Y-25309979D01*
X162840000Y-30960000D02*
X162840000Y-25601991D01*
X162547988Y-25309979D02*
X162547988Y-17297988D01*
X157617486Y-12367486D02*
X157617486Y-6909093D01*
X162547988Y-17297988D02*
X157617486Y-12367486D01*
X157617486Y-6909093D02*
X157617486Y772514D01*
X152686984Y5703016D02*
X152686984Y11491793D01*
X157617486Y772514D02*
X152686984Y5703016D01*
X5280752Y-21618914D02*
X5280752Y-19809248D01*
X5280752Y-19809248D02*
X8170000Y-16920000D01*
X8170000Y-5259282D02*
X10211254Y-3218028D01*
X8170000Y-16920000D02*
X8170000Y-5259282D01*
X10211254Y-3218028D02*
X10211254Y-1518746D01*
X10211254Y-1518746D02*
X13890000Y2160000D01*
X13890000Y13931102D02*
X15141756Y15182858D01*
X13890000Y2160000D02*
X13890000Y13931102D01*
X102220000Y-15714000D02*
X102220000Y-14710000D01*
X102130000Y-15804000D02*
X102220000Y-15714000D01*
X102220000Y-19870000D02*
X102220000Y-14710000D01*
X99296001Y-27966001D02*
X99296001Y-22793999D01*
X100080000Y-28750000D02*
X99296001Y-27966001D01*
X100080000Y-32460000D02*
X100080000Y-28750000D01*
X101870000Y-43190000D02*
X101870000Y-34250000D01*
X102140000Y-43460000D02*
X101870000Y-43190000D01*
X102140000Y-47420000D02*
X102140000Y-43460000D01*
X99296001Y-22793999D02*
X102220000Y-19870000D01*
X101790000Y-47770000D02*
X102140000Y-47420000D01*
X101790000Y-50080000D02*
X101790000Y-47770000D01*
X102140000Y-50430000D02*
X101790000Y-50080000D01*
X101870000Y-34250000D02*
X100080000Y-32460000D01*
X102140000Y-62070000D02*
X102140000Y-50430000D01*
X101420000Y-14710000D02*
X101200000Y-14930000D01*
X182790000Y-40060000D02*
X182790000Y-30750000D01*
X182263675Y-30223675D02*
X182263675Y-25286380D01*
X182790000Y-30750000D02*
X182263675Y-30223675D01*
X182263675Y-25286380D02*
X182263675Y-20463675D01*
X177333173Y-15533173D02*
X177333173Y-6885494D01*
X182263675Y-20463675D02*
X177333173Y-15533173D01*
X177333173Y-6885494D02*
X177333173Y56827D01*
X172402671Y4987329D02*
X172402671Y11515392D01*
X177333173Y56827D02*
X172402671Y4987329D01*
X133238090Y-54268090D02*
X133210000Y-54240000D01*
X133238090Y-75110932D02*
X133238090Y-54268090D01*
X24996439Y-21642513D02*
X22770000Y-23868952D01*
X22770000Y-39666000D02*
X22840000Y-39736000D01*
X22770000Y-23868952D02*
X22770000Y-39666000D01*
X24996439Y-21642513D02*
X24996439Y-16763561D01*
X24996439Y-16763561D02*
X28200000Y-13560000D01*
X28200000Y-4968568D02*
X29926941Y-3241627D01*
X28200000Y-13560000D02*
X28200000Y-4968568D01*
X29926941Y-3241627D02*
X29926941Y2266941D01*
X29926941Y2266941D02*
X32300000Y4640000D01*
X32300000Y12601816D02*
X34857443Y15159259D01*
X32300000Y4640000D02*
X32300000Y12601816D01*
X101200000Y-61060000D02*
X101200000Y-55240038D01*
X101200000Y-54039500D02*
X100020000Y-52859500D01*
X101200000Y-55240038D02*
X101200000Y-54039500D01*
X96590001Y-24639999D02*
X101420000Y-19810000D01*
X96590001Y-29601885D02*
X96590001Y-24639999D01*
X97174010Y-30185894D02*
X96590001Y-29601885D01*
X97497000Y-52027000D02*
X97174010Y-51704010D01*
X101420000Y-19810000D02*
X101420000Y-14710000D01*
X97174010Y-51704010D02*
X97174010Y-30185894D01*
X97497000Y-52859500D02*
X97497000Y-52027000D01*
X203310000Y-30185522D02*
X203294161Y-30169683D01*
X203310000Y-39470000D02*
X203310000Y-30185522D01*
X203294161Y-30169683D02*
X203294161Y-23054161D01*
X203294161Y-23054161D02*
X202300000Y-22060000D01*
X202300000Y-22060000D02*
X202300000Y-18020000D01*
X198363659Y-14083659D02*
X198363659Y-11768797D01*
X202300000Y-18020000D02*
X198363659Y-14083659D01*
X198363659Y-11768797D02*
X198363659Y-2183659D01*
X198363659Y-2183659D02*
X194260000Y1920000D01*
X194260000Y5805246D02*
X193433157Y6632089D01*
X194260000Y1920000D02*
X194260000Y5805246D01*
X42082524Y-31479918D02*
X42082524Y-33177476D01*
X38640000Y-36620000D02*
X38640000Y-52260000D01*
X42082524Y-33177476D02*
X38640000Y-36620000D01*
X42082524Y-31479918D02*
X42082524Y-26497476D01*
X42082524Y-26497476D02*
X44950000Y-23630000D01*
X44950000Y-15142058D02*
X47013026Y-13079032D01*
X44950000Y-23630000D02*
X44950000Y-15142058D01*
X47013026Y-13079032D02*
X47013026Y-9256974D01*
X47013026Y-9256974D02*
X49100000Y-7170000D01*
X49100000Y2478326D02*
X51943528Y5321854D01*
X49100000Y-7170000D02*
X49100000Y2478326D01*
X153679407Y-53670593D02*
X154100000Y-53250000D01*
X153679407Y-65815528D02*
X153679407Y-53670593D01*
X100350000Y-60040000D02*
X100597001Y-59792999D01*
X100597001Y-55787001D02*
X100100000Y-55290000D01*
X100597001Y-59792999D02*
X100597001Y-55787001D01*
X96135991Y-24304009D02*
X100620000Y-19820000D01*
X100620000Y-19820000D02*
X100620000Y-14710000D01*
X96135991Y-24304009D02*
X96125991Y-24304009D01*
X96720000Y-30373951D02*
X96720000Y-55280000D01*
X96135991Y-29789942D02*
X96720000Y-30373951D01*
X96135991Y-24304009D02*
X96135991Y-29789942D01*
X56910000Y-54100000D02*
X56910000Y-45840000D01*
X56910000Y-45840000D02*
X58250000Y-44500000D01*
X58250000Y-40439882D02*
X59826010Y-38863872D01*
X58250000Y-44500000D02*
X58250000Y-40439882D01*
X59826010Y-38863872D02*
X59826010Y-34293990D01*
X59826010Y-34293990D02*
X63210000Y-30910000D01*
X63210000Y-22009498D02*
X64756512Y-20462986D01*
X63210000Y-30910000D02*
X63210000Y-22009498D01*
X64756512Y-20462986D02*
X64756512Y-16183488D01*
X64756512Y-16183488D02*
X66990000Y-13950000D01*
X66990000Y-4759114D02*
X69687014Y-2062100D01*
X66990000Y-13950000D02*
X66990000Y-4759114D01*
X114774667Y-59304667D02*
X114660000Y-59190000D01*
X114774667Y-87196845D02*
X114774667Y-59304667D01*
X189620000Y-48069408D02*
X193588920Y-52038328D01*
X189620000Y-38505999D02*
X189620000Y-48069408D01*
X97420000Y-2080000D02*
X97420000Y-2910000D01*
X96580000Y-1240000D02*
X97420000Y-2080000D01*
X91560000Y-1240000D02*
X96580000Y-1240000D01*
X70700000Y-1049114D02*
X69687014Y-2062100D01*
X70700000Y4400000D02*
X70700000Y-1049114D01*
X93851510Y-164010D02*
X92490000Y1197500D01*
X96478010Y-164010D02*
X93851510Y-164010D01*
X98220000Y-1906000D02*
X96478010Y-164010D01*
X98220000Y-2910000D02*
X98220000Y-1906000D01*
X92490000Y1197500D02*
X92192500Y1197500D01*
X91117001Y2272999D02*
X91117001Y2282999D01*
X92192500Y1197500D02*
X91117001Y2272999D01*
X91117001Y2282999D02*
X90590000Y2810000D01*
X90590000Y2810000D02*
X90590000Y16030000D01*
X91580000Y17020000D02*
X91580000Y17910000D01*
X90590000Y16030000D02*
X91580000Y17020000D01*
X88180000Y-24059990D02*
X88140010Y-24020000D01*
X88180000Y-42770500D02*
X87200000Y-41790500D01*
X87200000Y-41790500D02*
X87200000Y-32940000D01*
X88180001Y-31992961D02*
X88180001Y-24059991D01*
X87232962Y-32940000D02*
X88180001Y-31992961D01*
X88180001Y-24059991D02*
X88140010Y-24020000D01*
X87200000Y-32940000D02*
X87232962Y-32940000D01*
X88080000Y-19490000D02*
X88080000Y11960000D01*
X60360000Y11930000D02*
X60260000Y12030000D01*
X62590000Y11930000D02*
X60360000Y11930000D01*
X82730000Y-27420000D02*
X84100000Y-26050000D01*
X84100000Y-26050000D02*
X84100000Y-23780000D01*
X88080000Y-19800000D02*
X88080000Y-19490000D01*
X84100000Y-23780000D02*
X88080000Y-19800000D01*
X82730000Y-30000000D02*
X82730000Y-27420000D01*
X95063000Y-42923000D02*
X95063000Y-34163000D01*
X95570000Y-43430000D02*
X95063000Y-42923000D01*
X95570000Y-45510000D02*
X95570000Y-43430000D01*
X95063000Y-34163000D02*
X90970000Y-30070000D01*
X95063000Y-46017000D02*
X95570000Y-45510000D01*
X95063000Y-47643750D02*
X95063000Y-46017000D01*
X57780000Y12810000D02*
X57780000Y7400000D01*
X55360000Y15230000D02*
X57780000Y12810000D01*
X17040500Y4290000D02*
X16440000Y4290000D01*
X19410000Y6659500D02*
X17040500Y4290000D01*
X11540000Y7490000D02*
X11540000Y7170000D01*
X11540000Y7170000D02*
X13170000Y5540000D01*
X13170000Y5540000D02*
X13170000Y3500000D01*
X13170000Y3500000D02*
X8960000Y-710000D01*
X8960000Y-710000D02*
X8180000Y-710000D01*
X8180000Y-710000D02*
X6970000Y-1920000D01*
X6970000Y-1920000D02*
X6970000Y-16260000D01*
X6970000Y-16260000D02*
X4250000Y-18980000D01*
X4250000Y-18980000D02*
X3200000Y-18980000D01*
X350000Y-21830000D02*
X-220000Y-21830000D01*
X3200000Y-18980000D02*
X350000Y-21830000D01*
X-5120000Y-18630000D02*
X-8770000Y-22280000D01*
X-8770000Y-22280000D02*
X-8770000Y-27440000D01*
X-8770000Y-27440000D02*
X-8530000Y-27440000D01*
X-8530000Y-27440000D02*
X-6620000Y-29350000D01*
X-6620000Y-47891352D02*
X-6485676Y-48025676D01*
X-6620000Y-29350000D02*
X-6620000Y-47891352D01*
X28170000Y-71910000D02*
X28170000Y-63150000D01*
X27514324Y-72565676D02*
X28170000Y-71910000D01*
X25658746Y-62338746D02*
X25658746Y-69611254D01*
X23270000Y-59950000D02*
X25658746Y-62338746D01*
X66730000Y-89300000D02*
X66730000Y-87700000D01*
X66730000Y-87700000D02*
X71470000Y-82960000D01*
X71470000Y-82960000D02*
X71470000Y-78520000D01*
X71470000Y-78520000D02*
X73340000Y-76650000D01*
X73340000Y-76650000D02*
X73340000Y-75860000D01*
X74900000Y-74300000D02*
X77540000Y-74300000D01*
X73340000Y-75860000D02*
X74900000Y-74300000D01*
X72640000Y-66880000D02*
X73450000Y-66070000D01*
X72640000Y-71100000D02*
X72640000Y-66880000D01*
X126260000Y-71450000D02*
X128360000Y-73550000D01*
X126260000Y-66530000D02*
X126260000Y-71450000D01*
X123460000Y-70350000D02*
X123460000Y-65890000D01*
X123790000Y-65560000D02*
X123860000Y-65560000D01*
X123460000Y-65890000D02*
X123790000Y-65560000D01*
X174050000Y-56810000D02*
X176200000Y-58960000D01*
X176200000Y-60840000D02*
X178400000Y-63040000D01*
X176200000Y-58960000D02*
X176200000Y-60840000D01*
X172860000Y-59200000D02*
X172860000Y-33270000D01*
X173500000Y-59840000D02*
X172860000Y-59200000D01*
X206248484Y-23118484D02*
X204760000Y-21630000D01*
X206248484Y-24810500D02*
X206248484Y-23118484D01*
X126425290Y-77701576D02*
X127850942Y-79127228D01*
X123906961Y-77701576D02*
X126425290Y-77701576D01*
X199860000Y-18430000D02*
X199080000Y-18430000D01*
X196481570Y-15831570D02*
X196481570Y-14621570D01*
X199080000Y-18430000D02*
X196481570Y-15831570D01*
X196481570Y-14621570D02*
X195760000Y-13900000D01*
X195760000Y-1200000D02*
X189490000Y5070000D01*
X195760000Y-13900000D02*
X195760000Y-1200000D01*
X184590000Y9760000D02*
X184570000Y9780000D01*
X184590000Y8270000D02*
X184590000Y9760000D01*
X139620000Y9960000D02*
X139340000Y10240000D01*
X141200000Y9960000D02*
X139620000Y9960000D01*
X106176000Y-350000D02*
X106720000Y-350000D01*
X104620000Y-1906000D02*
X106176000Y-350000D01*
X104620000Y-2910000D02*
X104620000Y-1906000D01*
X123780000Y11350000D02*
X118340000Y16790000D01*
X123780000Y4970000D02*
X123780000Y11350000D01*
X103820000Y-2063934D02*
X106310935Y427001D01*
X103820000Y-2910000D02*
X103820000Y-2063934D01*
X107612295Y427001D02*
X107612296Y427000D01*
X106310935Y427001D02*
X107612295Y427001D01*
X122820000Y9770000D02*
X118340000Y14250000D01*
X122820000Y5747000D02*
X122820000Y9770000D01*
X113640000Y-57093000D02*
X113887000Y-57340000D01*
X30750000Y-43350000D02*
X24990000Y-49110000D01*
X22683876Y-55791204D02*
X21648600Y-55791204D01*
X24990000Y-53485080D02*
X22683876Y-55791204D01*
X24990000Y-49110000D02*
X24990000Y-53485080D01*
X112442066Y-10410000D02*
X107320000Y-10410000D01*
X113564010Y-11531943D02*
X112442066Y-10410000D01*
X113564010Y-30764010D02*
X113564010Y-11531943D01*
X115384010Y-40588057D02*
X115384010Y-32584010D01*
X115384010Y-32584010D02*
X113564010Y-30764010D01*
X113685991Y-42286075D02*
X115384010Y-40588057D01*
X113685991Y-57138991D02*
X113685991Y-42286075D01*
X113887000Y-57340000D02*
X113685991Y-57138991D01*
X107320000Y-11210000D02*
X112600000Y-11210000D01*
X112600000Y-11210000D02*
X113110000Y-11720000D01*
X29370000Y-42830000D02*
X28240000Y-42830000D01*
X22942695Y-48127305D02*
X22942695Y-50961575D01*
X28240000Y-42830000D02*
X22942695Y-48127305D01*
X113110000Y-11720000D02*
X113110000Y-31000000D01*
X113110000Y-31000000D02*
X114930000Y-32820000D01*
X114930000Y-32820000D02*
X114930000Y-40400000D01*
X113110000Y-42220000D02*
X113110000Y-58320000D01*
X114930000Y-40400000D02*
X113110000Y-42220000D01*
X112126198Y-8810000D02*
X114670000Y-11353802D01*
X107320000Y-8810000D02*
X112126198Y-8810000D01*
X114670000Y-55030000D02*
X115070000Y-55430000D01*
X174840000Y-47512674D02*
X178288901Y-50961575D01*
X174840000Y-42010000D02*
X174840000Y-47512674D01*
X116324010Y-41020124D02*
X116324010Y-31854010D01*
X114670000Y-42674133D02*
X116324010Y-41020124D01*
X114670000Y-55030000D02*
X114670000Y-42674133D01*
X114670000Y-30200000D02*
X114670000Y-11353802D01*
X116324010Y-31854010D02*
X114670000Y-30200000D01*
X112284132Y-9610000D02*
X114140000Y-11465868D01*
X107320000Y-9610000D02*
X112284132Y-9610000D01*
X114140000Y-56047264D02*
X114572245Y-56479509D01*
X173637000Y-55067000D02*
X173800000Y-55230000D01*
X173637000Y-43160000D02*
X173637000Y-55067000D01*
X114140000Y-11465868D02*
X114140000Y-30530000D01*
X114140000Y-30530000D02*
X115870000Y-32260000D01*
X115870000Y-32260000D02*
X115870000Y-40832067D01*
X114140000Y-42562067D02*
X114140000Y-56047264D01*
X115870000Y-40832067D02*
X114140000Y-42562067D01*
X195570472Y-47208699D02*
X196192949Y-46586222D01*
X192294825Y-47208699D02*
X195570472Y-47208699D01*
X5447051Y-46966222D02*
X8160000Y-49679171D01*
X8160000Y-51521004D02*
X7642676Y-52038328D01*
X8160000Y-49679171D02*
X8160000Y-51521004D01*
X91250000Y-8622500D02*
X92462500Y-8622500D01*
X92650000Y-8810000D02*
X95520000Y-8810000D01*
X92462500Y-8622500D02*
X92650000Y-8810000D01*
X99020000Y-2910000D02*
X99020000Y-2020000D01*
X99020000Y-2020000D02*
X96710000Y290000D01*
X95222500Y290000D02*
X92490000Y3022500D01*
X96710000Y290000D02*
X95222500Y290000D01*
X108107500Y-17397500D02*
X105420000Y-14710000D01*
X108107500Y-17890000D02*
X108107500Y-17397500D01*
X95512500Y-16617500D02*
X97420000Y-14710000D01*
X95512500Y-17880000D02*
X95512500Y-16617500D01*
X95512500Y-16617500D02*
X95512500Y-15102500D01*
X94516000Y-12010000D02*
X95520000Y-12010000D01*
X94150000Y-12376000D02*
X94516000Y-12010000D01*
X94150000Y-13740000D02*
X94150000Y-12376000D01*
X92390000Y-16807500D02*
X93322500Y-16807500D01*
X93322500Y-16807500D02*
X95270000Y-14860000D01*
X95270000Y-14860000D02*
X94150000Y-13740000D01*
X95512500Y-15102500D02*
X95270000Y-14860000D01*
X96308602Y-8010000D02*
X95520000Y-8010000D01*
X99020000Y-5298602D02*
X96308602Y-8010000D01*
X99020000Y-2910000D02*
X99020000Y-5298602D01*
X97420000Y-14710000D02*
X97420000Y-12430000D01*
X97000000Y-12010000D02*
X95520000Y-12010000D01*
X97420000Y-12430000D02*
X97000000Y-12010000D01*
X106316000Y-5610000D02*
X107320000Y-5610000D01*
X105420000Y-6506000D02*
X106316000Y-5610000D01*
X105420000Y-14710000D02*
X105420000Y-6506000D01*
X99020000Y-5298602D02*
X99020000Y-6140000D01*
X98979500Y-6180500D02*
X98979500Y-6870000D01*
X99020000Y-6140000D02*
X98979500Y-6180500D01*
X106216000Y-5710000D02*
X106316000Y-5610000D01*
X104800000Y-5710000D02*
X106216000Y-5710000D01*
X97000000Y-11559500D02*
X97365426Y-11194074D01*
X97000000Y-12010000D02*
X97000000Y-11559500D01*
X108324000Y-5610000D02*
X109100000Y-4834000D01*
X107320000Y-5610000D02*
X108324000Y-5610000D01*
X109100000Y-4834000D02*
X109100000Y-4240000D01*
X109642500Y-3697500D02*
X110560000Y-3697500D01*
X109100000Y-4240000D02*
X109642500Y-3697500D01*
X94790000Y21870000D02*
X96340000Y23420000D01*
X94790000Y21670000D02*
X94790000Y21870000D01*
X94790000Y20790000D02*
X96340000Y19240000D01*
X94790000Y21670000D02*
X94790000Y20790000D01*
X96340000Y23420000D02*
X104980000Y23420000D01*
X104980000Y23417500D02*
X107407500Y20990000D01*
X104980000Y23420000D02*
X104980000Y23417500D01*
X105657500Y19240000D02*
X107407500Y20990000D01*
X104980000Y19240000D02*
X105657500Y19240000D01*
X101420000Y950000D02*
X102040000Y1570000D01*
X101420000Y-2910000D02*
X101420000Y950000D01*
X104962500Y1570000D02*
X104980000Y1552500D01*
X102040000Y1570000D02*
X104962500Y1570000D01*
X97287500Y3270000D02*
X97040000Y3517500D01*
X99840000Y3270000D02*
X97287500Y3270000D01*
X98370000Y1988602D02*
X99651398Y3270000D01*
X98370000Y844369D02*
X98370000Y1988602D01*
X99651398Y3270000D02*
X99840000Y3270000D01*
X100620000Y-1405631D02*
X98370000Y844369D01*
X100620000Y-2910000D02*
X100620000Y-1405631D01*
D30*
X98210000Y16960000D02*
X98210000Y18325000D01*
X96230000Y14980000D02*
X98210000Y16960000D01*
X96230000Y13340000D02*
X96350000Y13220000D01*
X96230000Y14980000D02*
X96230000Y13340000D01*
X108080000Y11350000D02*
X108030000Y11300000D01*
X108080000Y12830000D02*
X108080000Y11350000D01*
X101140000Y11400000D02*
X101270000Y11270000D01*
X101140000Y13027500D02*
X101140000Y11400000D01*
X103689000Y16640000D02*
X104090000Y16640000D01*
X103110000Y17219000D02*
X103689000Y16640000D01*
X103110000Y18325000D02*
X103110000Y17219000D01*
D29*
X107320000Y-12810000D02*
X108820000Y-12810000D01*
X109077500Y-13067500D02*
X111760000Y-13067500D01*
X108820000Y-12810000D02*
X109077500Y-13067500D01*
X107130000Y12830000D02*
X107070000Y12830000D01*
X106440000Y12200000D02*
X106440000Y10232500D01*
X107070000Y12830000D02*
X106440000Y12200000D01*
X93230500Y-12495500D02*
X93230500Y-12648093D01*
X94516000Y-11210000D02*
X93230500Y-12495500D01*
X95520000Y-11210000D02*
X94516000Y-11210000D01*
X106337500Y8510000D02*
X106440000Y8407500D01*
X106417500Y8430000D02*
X106440000Y8407500D01*
X104580000Y8430000D02*
X106417500Y8430000D01*
X109030000Y12830000D02*
X109060000Y12830000D01*
X109680000Y12210000D02*
X109680000Y10212500D01*
X109060000Y12830000D02*
X109680000Y12210000D01*
X94187000Y-10410000D02*
X93297000Y-11300000D01*
X95520000Y-10410000D02*
X94187000Y-10410000D01*
X109640000Y8347500D02*
X109680000Y8387500D01*
X109640000Y6890000D02*
X109640000Y8347500D01*
X99410000Y15702500D02*
X99410000Y18325000D01*
X98560000Y14852500D02*
X99410000Y15702500D01*
X102410000Y18325000D02*
X102410000Y17020000D01*
X104050000Y15380000D02*
X104050000Y14842500D01*
X102410000Y17020000D02*
X104050000Y15380000D01*
X101140000Y14852500D02*
X101140000Y15450000D01*
X101140000Y15450000D02*
X101410000Y15720000D01*
X101410000Y18325000D02*
X101410000Y19680000D01*
X101410000Y19680000D02*
X102260000Y20530000D01*
X102260000Y20530000D02*
X102260000Y21720000D01*
X102260000Y21720000D02*
X101440000Y22540000D01*
X101440000Y22540000D02*
X100160000Y22540000D01*
X100160000Y22540000D02*
X99500000Y21880000D01*
X99500000Y21880000D02*
X99500000Y20700000D01*
X100410000Y19790000D02*
X100410000Y18325000D01*
X99500000Y20700000D02*
X100410000Y19790000D01*
X109030000Y16340000D02*
X109040000Y16350000D01*
X109030000Y15030000D02*
X109030000Y16340000D01*
X102188420Y16142736D02*
X101410000Y16921156D01*
X101410000Y16921156D02*
X101410000Y16960000D01*
X101410000Y16960000D02*
X101410000Y18325000D01*
X101410000Y15720000D02*
X101410000Y16960000D01*
X107130000Y15030000D02*
X107130000Y15389500D01*
X100910000Y16517000D02*
X100910000Y18325000D01*
X100633000Y16240000D02*
X100910000Y16517000D01*
X100910000Y21140000D02*
X100930000Y21160000D01*
X100910000Y18325000D02*
X100910000Y21140000D01*
X98560000Y21120000D02*
X98560000Y20997934D01*
X99910000Y19647934D02*
X99910000Y18325000D01*
X98560000Y20997934D02*
X99910000Y19647934D01*
X107130000Y17470000D02*
X107220000Y17560000D01*
X107130000Y15030000D02*
X107130000Y17470000D01*
X100600000Y-100320000D02*
X100600000Y-99610000D01*
X99820000Y-19910000D02*
X99820000Y-14710000D01*
X99780000Y-19910000D02*
X99820000Y-19910000D01*
X95840000Y-45882067D02*
X96024010Y-45698057D01*
X98190000Y-69550000D02*
X95840000Y-67200000D01*
X96024010Y-45698057D02*
X96024010Y-43241943D01*
X98190000Y-72180000D02*
X98190000Y-69550000D01*
X95840000Y-45882067D02*
X95840000Y-67200000D01*
X96024010Y-37071010D02*
X95943000Y-36990000D01*
X96024010Y-43241943D02*
X96024010Y-37071010D01*
X95943000Y-30239018D02*
X95670000Y-29966018D01*
X95943000Y-36990000D02*
X95943000Y-30239018D01*
X95670000Y-29966018D02*
X95670000Y-24060000D01*
X95650000Y-24040000D02*
X99780000Y-19910000D01*
X100600000Y-96200000D02*
X96370000Y-91970000D01*
X100600000Y-100320000D02*
X100600000Y-96200000D01*
X96370000Y-86750000D02*
X96370000Y-91970000D01*
X95400000Y-72610000D02*
X95400000Y-85780000D01*
X95400000Y-85780000D02*
X96370000Y-86750000D01*
X95830000Y-72180000D02*
X95400000Y-72610000D01*
X100620000Y-22820000D02*
X100860000Y-22580000D01*
X100620000Y-26700000D02*
X100620000Y-22820000D01*
X113860578Y-91319422D02*
X113300000Y-90758844D01*
X113300000Y-90312067D02*
X108423000Y-85435067D01*
X108423000Y-85435067D02*
X108423000Y-67900000D01*
X113300000Y-90758844D02*
X113300000Y-90312067D01*
X81610000Y-67930000D02*
X81610000Y-52450000D01*
X78472999Y-49312999D02*
X78472999Y-32787001D01*
X81610000Y-52450000D02*
X78472999Y-49312999D01*
X80625990Y-26901944D02*
X82375990Y-25151944D01*
X80625990Y-30634010D02*
X80625990Y-26901944D01*
X78472999Y-32787001D02*
X80625990Y-30634010D01*
X82375990Y-22811032D02*
X82613511Y-22573511D01*
X82375990Y-25151944D02*
X82375990Y-22811032D01*
X105010000Y-19270000D02*
X103820000Y-18080000D01*
X103820000Y-18080000D02*
X103820000Y-14710000D01*
X105010000Y-22580000D02*
X105010000Y-19270000D01*
X112333000Y-32698000D02*
X112333000Y-28530000D01*
X113320000Y-33685000D02*
X112333000Y-32698000D01*
X115901010Y-28480000D02*
X115901010Y-10971010D01*
X113510000Y-8580000D02*
X113510000Y4920000D01*
X115901010Y-10971010D02*
X113510000Y-8580000D01*
X103100000Y-2830000D02*
X103020000Y-2910000D01*
X103100000Y-650000D02*
X103100000Y-2830000D01*
M02*
