G04 #@! TF.GenerationSoftware,KiCad,Pcbnew,(5.1.9)-1*
G04 #@! TF.CreationDate,2021-05-05T21:11:48-07:00*
G04 #@! TF.ProjectId,euclid36,6575636c-6964-4333-962e-6b696361645f,1.2*
G04 #@! TF.SameCoordinates,PX2faf080PY2faf080*
G04 #@! TF.FileFunction,Soldermask,Top*
G04 #@! TF.FilePolarity,Negative*
%FSLAX46Y46*%
G04 Gerber Fmt 4.6, Leading zero omitted, Abs format (unit mm)*
G04 Created by KiCad (PCBNEW (5.1.9)-1) date 2021-05-05 21:11:48*
%MOMM*%
%LPD*%
G01*
G04 APERTURE LIST*
%ADD10C,4.102000*%
%ADD11C,2.202180*%
%ADD12C,1.981200*%
%ADD13C,2.489200*%
%ADD14C,1.702000*%
%ADD15O,1.601600X3.101600*%
%ADD16O,3.101600X1.601600*%
%ADD17C,0.750000*%
%ADD18O,1.100000X2.200000*%
%ADD19O,1.100000X1.700000*%
%ADD20C,2.102000*%
%ADD21C,3.102000*%
%ADD22C,4.089800*%
%ADD23C,1.852000*%
%ADD24C,1.002000*%
%ADD25C,0.100000*%
G04 APERTURE END LIST*
D10*
X100750000Y-77700000D03*
X201930000Y-44480000D03*
X1140000Y-44360000D03*
X199650000Y18640000D03*
X126240000Y14390000D03*
X74630000Y14790000D03*
X1860000Y18640000D03*
D11*
X110668400Y-98313620D03*
X91626020Y-99830000D03*
G36*
G01*
X95211230Y-91188920D02*
X95211230Y-92687520D01*
G75*
G02*
X95109630Y-92789120I-101600J0D01*
G01*
X90611290Y-92789120D01*
G75*
G02*
X90509690Y-92687520I0J101600D01*
G01*
X90509690Y-91188920D01*
G75*
G02*
X90611290Y-91087320I101600J0D01*
G01*
X95109630Y-91087320D01*
G75*
G02*
X95211230Y-91188920I0J-101600D01*
G01*
G37*
G36*
G01*
X95211230Y-87190960D02*
X95211230Y-88689560D01*
G75*
G02*
X95109630Y-88791160I-101600J0D01*
G01*
X90611290Y-88791160D01*
G75*
G02*
X90509690Y-88689560I0J101600D01*
G01*
X90509690Y-87190960D01*
G75*
G02*
X90611290Y-87089360I101600J0D01*
G01*
X95109630Y-87089360D01*
G75*
G02*
X95211230Y-87190960I0J-101600D01*
G01*
G37*
G36*
G01*
X95211230Y-89192480D02*
X95211230Y-90691080D01*
G75*
G02*
X95109630Y-90792680I-101600J0D01*
G01*
X90611290Y-90792680D01*
G75*
G02*
X90509690Y-90691080I0J101600D01*
G01*
X90509690Y-89192480D01*
G75*
G02*
X90611290Y-89090880I101600J0D01*
G01*
X95109630Y-89090880D01*
G75*
G02*
X95211230Y-89192480I0J-101600D01*
G01*
G37*
G36*
G01*
X95211230Y-93190440D02*
X95211230Y-94689040D01*
G75*
G02*
X95109630Y-94790640I-101600J0D01*
G01*
X90611290Y-94790640D01*
G75*
G02*
X90509690Y-94689040I0J101600D01*
G01*
X90509690Y-93190440D01*
G75*
G02*
X90611290Y-93088840I101600J0D01*
G01*
X95109630Y-93088840D01*
G75*
G02*
X95211230Y-93190440I0J-101600D01*
G01*
G37*
D12*
X98080000Y-26700000D03*
X100620000Y-26700000D03*
X103160000Y-26700000D03*
D13*
X107287500Y-44480000D03*
X93952500Y-44480000D03*
X93952500Y-29240000D03*
X107287500Y-29240000D03*
D12*
X90460000Y-39400000D03*
X90460000Y-36860000D03*
X90460000Y-34320000D03*
X108240000Y-40035000D03*
X108240000Y-33685000D03*
X113320000Y-40035000D03*
X113320000Y-33685000D03*
D14*
X94600000Y-97320000D03*
X106600000Y-85320000D03*
D15*
X98600000Y-100320000D03*
X100600000Y-100320000D03*
X102600000Y-100320000D03*
D16*
X109600000Y-93320000D03*
X109600000Y-89320000D03*
X109600000Y-91320000D03*
D17*
X103550000Y19770000D03*
X97770000Y19770000D03*
D18*
X96340000Y19240000D03*
X104980000Y19240000D03*
D19*
X96340000Y23420000D03*
X104980000Y23420000D03*
G36*
G01*
X177532532Y-52199520D02*
X177014894Y-50267668D01*
G75*
G02*
X177050956Y-50205206I49262J13200D01*
G01*
X178982808Y-49687568D01*
G75*
G02*
X179045270Y-49723630I13200J-49262D01*
G01*
X179562908Y-51655482D01*
G75*
G02*
X179526846Y-51717944I-49262J-13200D01*
G01*
X177594994Y-52235582D01*
G75*
G02*
X177532532Y-52199520I-13200J49262D01*
G01*
G37*
D20*
X178935948Y-53376390D03*
X179582996Y-55791204D03*
G36*
G01*
X183395081Y-47419298D02*
X182877443Y-45487447D01*
G75*
G02*
X182913505Y-45424985I49262J13200D01*
G01*
X186004467Y-44596764D01*
G75*
G02*
X186066929Y-44632826I13200J-49262D01*
G01*
X186584567Y-46564677D01*
G75*
G02*
X186548505Y-46627139I-49262J-13200D01*
G01*
X183457543Y-47455360D01*
G75*
G02*
X183395081Y-47419298I-13200J49262D01*
G01*
G37*
G36*
G01*
X186293855Y-58237668D02*
X185776217Y-56305817D01*
G75*
G02*
X185812279Y-56243355I49262J13200D01*
G01*
X188903241Y-55415134D01*
G75*
G02*
X188965703Y-55451196I13200J-49262D01*
G01*
X189483341Y-57383047D01*
G75*
G02*
X189447279Y-57445509I-49262J-13200D01*
G01*
X186356317Y-58273730D01*
G75*
G02*
X186293855Y-58237668I-13200J49262D01*
G01*
G37*
X192294825Y-47208699D03*
X193588920Y-52038328D03*
G36*
G01*
X22922607Y-55097297D02*
X22404969Y-57029149D01*
G75*
G02*
X22342507Y-57065211I-49262J13200D01*
G01*
X20410655Y-56547573D01*
G75*
G02*
X20374593Y-56485111I13200J49262D01*
G01*
X20892231Y-54553259D01*
G75*
G02*
X20954693Y-54517197I49262J-13200D01*
G01*
X22886545Y-55034835D01*
G75*
G02*
X22922607Y-55097297I-13200J-49262D01*
G01*
G37*
X22295648Y-53376390D03*
X22942695Y-50961575D03*
G36*
G01*
X15455379Y-56305817D02*
X14937741Y-58237668D01*
G75*
G02*
X14875279Y-58273730I-49262J13200D01*
G01*
X11784317Y-57445509D01*
G75*
G02*
X11748255Y-57383047I13200J49262D01*
G01*
X12265893Y-55451196D01*
G75*
G02*
X12328355Y-55415134I49262J-13200D01*
G01*
X15419317Y-56243355D01*
G75*
G02*
X15455379Y-56305817I-13200J-49262D01*
G01*
G37*
G36*
G01*
X18354153Y-45487447D02*
X17836515Y-47419298D01*
G75*
G02*
X17774053Y-47455360I-49262J13200D01*
G01*
X14683091Y-46627139D01*
G75*
G02*
X14647029Y-46564677I13200J49262D01*
G01*
X15164667Y-44632826D01*
G75*
G02*
X15227129Y-44596764I49262J-13200D01*
G01*
X18318091Y-45424985D01*
G75*
G02*
X18354153Y-45487447I-13200J-49262D01*
G01*
G37*
X7642676Y-52038328D03*
X8936771Y-47208699D03*
D21*
X121202121Y-79595525D03*
D22*
X122035243Y-85213702D03*
D21*
X117457390Y-85318382D03*
D23*
X117873951Y-88127470D03*
X126196535Y-82299934D03*
D21*
X162319043Y-60870943D03*
D22*
X161180392Y-66435247D03*
D21*
X156842814Y-64967896D03*
D23*
X156273489Y-67750048D03*
X166087295Y-65120446D03*
D21*
X140887852Y-68741209D03*
D22*
X140732731Y-74418703D03*
D21*
X136206248Y-73726857D03*
D23*
X136128687Y-76565604D03*
X145336775Y-72271802D03*
D21*
X84190767Y-82509294D03*
D22*
X79196353Y-85213702D03*
D21*
X77532268Y-80947730D03*
D23*
X75035061Y-82299934D03*
X83357645Y-88127470D03*
D21*
X64947788Y-70888110D03*
D22*
X60498865Y-74418703D03*
D21*
X58119283Y-70506506D03*
D23*
X55894821Y-72271802D03*
X65102909Y-76565604D03*
D21*
X43819456Y-62185744D03*
D22*
X40051204Y-66435247D03*
D21*
X37028427Y-62995695D03*
D23*
X35144301Y-65120446D03*
X44958107Y-67750048D03*
D21*
X211933797Y-25225098D03*
D22*
X210795146Y-30789402D03*
D21*
X206457568Y-29322051D03*
D23*
X205888243Y-32104203D03*
X215702049Y-29474601D03*
D21*
X190903311Y-20341795D03*
D22*
X189764660Y-25906099D03*
D21*
X185427082Y-24438748D03*
D23*
X184857757Y-27220900D03*
X194671563Y-24591298D03*
D21*
X171187624Y-20365394D03*
D22*
X170048973Y-25929698D03*
D21*
X165711395Y-24462347D03*
D23*
X165142070Y-27244499D03*
X174955876Y-24614897D03*
D21*
X154101539Y-30202799D03*
D22*
X152962888Y-35767103D03*
D21*
X148625310Y-34299752D03*
D23*
X148055985Y-37081904D03*
X157869791Y-34452302D03*
D21*
X136358053Y-37586753D03*
D22*
X135219402Y-43151057D03*
D21*
X130881824Y-41683706D03*
D23*
X130312499Y-44465858D03*
X140126305Y-41836256D03*
D21*
X207003295Y-6824212D03*
D22*
X205864644Y-12388516D03*
D21*
X201527066Y-10921165D03*
D23*
X200957741Y-13703317D03*
X210771547Y-11073715D03*
D21*
X185972809Y-1940909D03*
D22*
X184834158Y-7505213D03*
D21*
X180496580Y-6037862D03*
D23*
X179927255Y-8820014D03*
X189741061Y-6190412D03*
D21*
X166257122Y-1964508D03*
D22*
X165118471Y-7528812D03*
D21*
X160780893Y-6061461D03*
D23*
X160211568Y-8843613D03*
X170025374Y-6214011D03*
D21*
X149171037Y-11801913D03*
D22*
X148032386Y-17366217D03*
D21*
X143694808Y-15898866D03*
D23*
X143125483Y-18681018D03*
X152939289Y-16051416D03*
D21*
X131427551Y-19185867D03*
D22*
X130288900Y-24750171D03*
D21*
X125951322Y-23282820D03*
D23*
X125381997Y-26064972D03*
X135195803Y-23435370D03*
D21*
X202072793Y11576674D03*
D22*
X200934142Y6012370D03*
D21*
X196596564Y7479721D03*
D23*
X196027239Y4697569D03*
X205841045Y7327171D03*
D21*
X181042307Y16459977D03*
D22*
X179903656Y10895673D03*
D21*
X175566078Y12363024D03*
D23*
X174996753Y9580872D03*
X184810559Y12210474D03*
D21*
X161326620Y16436378D03*
D22*
X160187969Y10872074D03*
D21*
X155850391Y12339425D03*
D23*
X155281066Y9557273D03*
X165094872Y12186875D03*
D21*
X144240535Y6598973D03*
D22*
X143101884Y1034669D03*
D21*
X138764306Y2502020D03*
D23*
X138194981Y-280132D03*
X148008787Y2349470D03*
D21*
X126497049Y-784981D03*
D22*
X125358398Y-6349285D03*
D21*
X121020820Y-4881934D03*
D23*
X120451495Y-7664086D03*
X130265301Y-5034484D03*
D21*
X69780446Y-38901554D03*
D22*
X66012194Y-43151057D03*
D21*
X62989417Y-39711505D03*
D23*
X61105291Y-41836256D03*
X70919097Y-44465858D03*
D21*
X52036960Y-31517600D03*
D22*
X48268708Y-35767103D03*
D21*
X45245931Y-32327551D03*
D23*
X43361805Y-34452302D03*
X53175611Y-37081904D03*
D21*
X34950875Y-21680195D03*
D22*
X31182623Y-25929698D03*
D21*
X28159846Y-22490146D03*
D23*
X26275720Y-24614897D03*
X36089526Y-27244499D03*
D21*
X15235188Y-21656596D03*
D22*
X11466936Y-25906099D03*
D21*
X8444159Y-22466547D03*
D23*
X6560033Y-24591298D03*
X16373839Y-27220900D03*
D21*
X-5795298Y-26539900D03*
D22*
X-9563550Y-30789403D03*
D21*
X-12586327Y-27349851D03*
D23*
X-14470453Y-29474602D03*
X-4656647Y-32104204D03*
D21*
X74710948Y-20500668D03*
D22*
X70942696Y-24750171D03*
D21*
X67919919Y-21310619D03*
D23*
X66035793Y-23435370D03*
X75849599Y-26064972D03*
D21*
X56967462Y-13116714D03*
D22*
X53199210Y-17366217D03*
D21*
X50176433Y-13926665D03*
D23*
X48292307Y-16051416D03*
X58106113Y-18681018D03*
D21*
X39881377Y-3279309D03*
D22*
X36113125Y-7528812D03*
D21*
X33090348Y-4089260D03*
D23*
X31206222Y-6214011D03*
X41020028Y-8843613D03*
D21*
X20165690Y-3255710D03*
D22*
X16397438Y-7505213D03*
D21*
X13374661Y-4065661D03*
D23*
X11490535Y-6190412D03*
X21304341Y-8820014D03*
D21*
X-864796Y-8139014D03*
D22*
X-4633048Y-12388517D03*
D21*
X-7655825Y-8948965D03*
D23*
X-9539951Y-11073716D03*
X273855Y-13703318D03*
D21*
X79641450Y-2099782D03*
D22*
X75873198Y-6349285D03*
D21*
X72850421Y-2909733D03*
D23*
X70966295Y-5034484D03*
X80780101Y-7664086D03*
D21*
X61897964Y5284172D03*
D22*
X58129712Y1034669D03*
D21*
X55106935Y4474221D03*
D23*
X53222809Y2349470D03*
X63036615Y-280132D03*
D21*
X44811879Y15121577D03*
D22*
X41043627Y10872074D03*
D21*
X38020850Y14311626D03*
D23*
X36136724Y12186875D03*
X45950530Y9557273D03*
D21*
X25096192Y15145176D03*
D22*
X21327940Y10895673D03*
D21*
X18305163Y14335225D03*
D23*
X16421037Y12210474D03*
X26234843Y9580872D03*
D21*
X4065706Y10261872D03*
D22*
X297454Y6012369D03*
D21*
X-2725323Y9451921D03*
D23*
X-4609449Y7327170D03*
X5204357Y4697568D03*
G36*
G01*
X97349000Y-21131250D02*
X97349000Y-20131250D01*
G75*
G02*
X97400000Y-20080250I51000J0D01*
G01*
X98900000Y-20080250D01*
G75*
G02*
X98951000Y-20131250I0J-51000D01*
G01*
X98951000Y-21131250D01*
G75*
G02*
X98900000Y-21182250I-51000J0D01*
G01*
X97400000Y-21182250D01*
G75*
G02*
X97349000Y-21131250I0J51000D01*
G01*
G37*
G36*
G01*
X97349000Y-24331250D02*
X97349000Y-23331250D01*
G75*
G02*
X97400000Y-23280250I51000J0D01*
G01*
X98900000Y-23280250D01*
G75*
G02*
X98951000Y-23331250I0J-51000D01*
G01*
X98951000Y-24331250D01*
G75*
G02*
X98900000Y-24382250I-51000J0D01*
G01*
X97400000Y-24382250D01*
G75*
G02*
X97349000Y-24331250I0J51000D01*
G01*
G37*
G36*
G01*
X102249000Y-21131250D02*
X102249000Y-20131250D01*
G75*
G02*
X102300000Y-20080250I51000J0D01*
G01*
X103800000Y-20080250D01*
G75*
G02*
X103851000Y-20131250I0J-51000D01*
G01*
X103851000Y-21131250D01*
G75*
G02*
X103800000Y-21182250I-51000J0D01*
G01*
X102300000Y-21182250D01*
G75*
G02*
X102249000Y-21131250I0J51000D01*
G01*
G37*
G36*
G01*
X102249000Y-24331250D02*
X102249000Y-23331250D01*
G75*
G02*
X102300000Y-23280250I51000J0D01*
G01*
X103800000Y-23280250D01*
G75*
G02*
X103851000Y-23331250I0J-51000D01*
G01*
X103851000Y-24331250D01*
G75*
G02*
X103800000Y-24382250I-51000J0D01*
G01*
X102300000Y-24382250D01*
G75*
G02*
X102249000Y-24331250I0J51000D01*
G01*
G37*
G36*
G01*
X87380250Y-48143750D02*
X87380250Y-47143750D01*
G75*
G02*
X87431250Y-47092750I51000J0D01*
G01*
X88931250Y-47092750D01*
G75*
G02*
X88982250Y-47143750I0J-51000D01*
G01*
X88982250Y-48143750D01*
G75*
G02*
X88931250Y-48194750I-51000J0D01*
G01*
X87431250Y-48194750D01*
G75*
G02*
X87380250Y-48143750I0J51000D01*
G01*
G37*
G36*
G01*
X87380250Y-44943750D02*
X87380250Y-43943750D01*
G75*
G02*
X87431250Y-43892750I51000J0D01*
G01*
X88931250Y-43892750D01*
G75*
G02*
X88982250Y-43943750I0J-51000D01*
G01*
X88982250Y-44943750D01*
G75*
G02*
X88931250Y-44994750I-51000J0D01*
G01*
X87431250Y-44994750D01*
G75*
G02*
X87380250Y-44943750I0J51000D01*
G01*
G37*
G36*
G01*
X82480250Y-48143750D02*
X82480250Y-47143750D01*
G75*
G02*
X82531250Y-47092750I51000J0D01*
G01*
X84031250Y-47092750D01*
G75*
G02*
X84082250Y-47143750I0J-51000D01*
G01*
X84082250Y-48143750D01*
G75*
G02*
X84031250Y-48194750I-51000J0D01*
G01*
X82531250Y-48194750D01*
G75*
G02*
X82480250Y-48143750I0J51000D01*
G01*
G37*
G36*
G01*
X82480250Y-44943750D02*
X82480250Y-43943750D01*
G75*
G02*
X82531250Y-43892750I51000J0D01*
G01*
X84031250Y-43892750D01*
G75*
G02*
X84082250Y-43943750I0J-51000D01*
G01*
X84082250Y-44943750D01*
G75*
G02*
X84031250Y-44994750I-51000J0D01*
G01*
X82531250Y-44994750D01*
G75*
G02*
X82480250Y-44943750I0J51000D01*
G01*
G37*
G36*
G01*
X111849000Y-44943750D02*
X111849000Y-43943750D01*
G75*
G02*
X111900000Y-43892750I51000J0D01*
G01*
X113400000Y-43892750D01*
G75*
G02*
X113451000Y-43943750I0J-51000D01*
G01*
X113451000Y-44943750D01*
G75*
G02*
X113400000Y-44994750I-51000J0D01*
G01*
X111900000Y-44994750D01*
G75*
G02*
X111849000Y-44943750I0J51000D01*
G01*
G37*
G36*
G01*
X111849000Y-48143750D02*
X111849000Y-47143750D01*
G75*
G02*
X111900000Y-47092750I51000J0D01*
G01*
X113400000Y-47092750D01*
G75*
G02*
X113451000Y-47143750I0J-51000D01*
G01*
X113451000Y-48143750D01*
G75*
G02*
X113400000Y-48194750I-51000J0D01*
G01*
X111900000Y-48194750D01*
G75*
G02*
X111849000Y-48143750I0J51000D01*
G01*
G37*
G36*
G01*
X116749000Y-44943750D02*
X116749000Y-43943750D01*
G75*
G02*
X116800000Y-43892750I51000J0D01*
G01*
X118300000Y-43892750D01*
G75*
G02*
X118351000Y-43943750I0J-51000D01*
G01*
X118351000Y-44943750D01*
G75*
G02*
X118300000Y-44994750I-51000J0D01*
G01*
X116800000Y-44994750D01*
G75*
G02*
X116749000Y-44943750I0J51000D01*
G01*
G37*
G36*
G01*
X116749000Y-48143750D02*
X116749000Y-47143750D01*
G75*
G02*
X116800000Y-47092750I51000J0D01*
G01*
X118300000Y-47092750D01*
G75*
G02*
X118351000Y-47143750I0J-51000D01*
G01*
X118351000Y-48143750D01*
G75*
G02*
X118300000Y-48194750I-51000J0D01*
G01*
X116800000Y-48194750D01*
G75*
G02*
X116749000Y-48143750I0J51000D01*
G01*
G37*
D24*
X7120000Y240000D03*
X28590000Y5210000D03*
X47300000Y5210000D03*
X64790000Y-4910000D03*
X87303000Y-10170000D03*
X81470000Y-10170000D03*
X91743000Y-4600000D03*
X87303000Y-2663000D03*
X5080000Y-15250000D03*
X23690000Y-14060000D03*
X42830000Y-14060000D03*
X60610000Y-22690000D03*
X76170000Y-28760000D03*
X90749852Y-5377000D03*
X86526000Y-3750000D03*
X81857000Y-28750000D03*
X-2260000Y-37110000D03*
X-2100578Y-49270578D03*
X3999422Y-55370578D03*
X37310000Y-32580000D03*
X55595000Y-42575000D03*
X73330000Y-48370000D03*
X79250000Y-48370000D03*
X91450000Y-6320000D03*
X86053000Y-5397458D03*
X18440000Y-32580000D03*
X210120000Y3770000D03*
X167820000Y2790000D03*
X151545000Y-1715000D03*
X134545000Y-9015000D03*
X186990000Y2790000D03*
X109690000Y-5510000D03*
X182190000Y2790000D03*
X119420000Y-30630000D03*
X215000000Y-15790000D03*
X190020000Y-12670000D03*
X174980000Y-12670000D03*
X157600000Y-20700000D03*
X139450000Y-26510000D03*
X110418575Y-6334126D03*
X117865578Y-11514422D03*
X195340000Y-30390000D03*
X196870000Y-34710000D03*
X219760000Y-32810000D03*
X179640000Y-31880000D03*
X163130000Y-40470000D03*
X146070000Y-47920000D03*
X111300000Y-7111126D03*
X117018985Y-12216764D03*
X122250000Y-47850000D03*
X109700000Y-12290500D03*
X109730000Y-14060000D03*
X170860000Y-72250000D03*
X42670000Y-76810000D03*
X64250000Y-88000000D03*
X80595000Y-96965000D03*
X132820000Y-91470000D03*
X153700000Y-80670000D03*
X115880000Y-97900000D03*
X95340000Y-2890000D03*
X90340000Y17190000D03*
X221560000Y-37870000D03*
X205230000Y22060000D03*
X131180000Y22050000D03*
X177500000Y22060000D03*
X202200000Y-23970000D03*
X217853029Y-18396971D03*
X174600000Y-70799500D03*
X64820000Y-89730000D03*
X-19900000Y-38090000D03*
X-5380000Y21699500D03*
X23105000Y-69345000D03*
X-6950000Y-21820000D03*
X-16399499Y-20149499D03*
X9759500Y21699500D03*
X53009500Y21699500D03*
X89821010Y-20658990D03*
X121330000Y-73560000D03*
X97490500Y-74110000D03*
X92390501Y-41479499D03*
X101640000Y-29760000D03*
X92390501Y-34128481D03*
X101600000Y-93120000D03*
X-6390000Y22540000D03*
X-19930000Y-39590000D03*
X222550000Y-38960000D03*
X206950000Y21870000D03*
X89240000Y22580000D03*
X206690000Y-18380000D03*
X217850000Y-17150000D03*
X191460000Y22980000D03*
X180945000Y-67955000D03*
X77520000Y-65360000D03*
X91550000Y-65070000D03*
X30670000Y-75970000D03*
X-840000Y-16250000D03*
X-17240000Y-16180000D03*
X18490000Y7500000D03*
X24370000Y7500000D03*
X22030000Y22540000D03*
X91550000Y-47590000D03*
X134850000Y-92790000D03*
X140080000Y22980000D03*
X60450000Y22540000D03*
X88980510Y-25780000D03*
X28170000Y-53740000D03*
X109260000Y23300000D03*
X106140000Y-23900000D03*
X111730000Y-23930000D03*
X91550000Y-53700000D03*
X87977000Y-39517000D03*
X106760000Y-101280000D03*
X90661510Y-14720000D03*
X88980510Y-14779490D03*
X95595000Y-95925000D03*
X34700000Y-56000000D03*
X9750000Y-42330000D03*
X106780000Y-2630000D03*
X115610000Y-640000D03*
X121140000Y-63930000D03*
X102910000Y-63020000D03*
X60350000Y-62880000D03*
X-17930000Y-33640000D03*
X149190000Y-56010000D03*
X102140000Y-62070000D03*
X6270000Y-40513000D03*
X79960000Y-62070000D03*
X165710000Y-54270000D03*
X182790000Y-40060000D03*
X133210000Y-54240000D03*
X22840000Y-39736000D03*
X101200000Y-61060000D03*
X100020000Y-52859500D03*
X97497000Y-52859500D03*
X100350000Y-60040000D03*
X203310000Y-39470000D03*
X38640000Y-52260000D03*
X154100000Y-53250000D03*
X100100000Y-55290000D03*
X96720000Y-55280000D03*
X56910000Y-54100000D03*
X114660000Y-59190000D03*
X189620000Y-38505999D03*
X91560000Y-1240000D03*
X70700000Y4400000D03*
X91580000Y17910000D03*
X88180000Y-42770500D03*
X88140010Y-24020000D03*
X88080000Y11960000D03*
X62590000Y11930000D03*
X95063000Y-47643750D03*
X90970000Y-30070000D03*
X82730000Y-30000000D03*
X57780000Y7400000D03*
X19410000Y6659500D03*
X-6485676Y-48025676D03*
X27514324Y-72565676D03*
X25658746Y-69611254D03*
X66730000Y-89300000D03*
X73450000Y-66070000D03*
X126260000Y-66530000D03*
X123860000Y-65560000D03*
X174050000Y-56810000D03*
X172860000Y-33270000D03*
X206248484Y-24810500D03*
X184570000Y9780000D03*
X141200000Y9960000D03*
X106720000Y-350000D03*
X123780000Y4970000D03*
X107612296Y427000D03*
X122820000Y5747000D03*
X113887000Y-57340000D03*
X30750000Y-43350000D03*
X113110000Y-58320000D03*
X29370000Y-42830000D03*
X115070000Y-55430000D03*
X174840000Y-42010000D03*
X114572245Y-56479509D03*
X173637000Y-43160000D03*
X173800000Y-55230000D03*
X98979500Y-6870000D03*
X104800000Y-5710000D03*
X97365426Y-11194074D03*
X96350000Y13220000D03*
X108030000Y11300000D03*
X101270000Y11270000D03*
X104090000Y16640000D03*
X93230500Y-12648093D03*
X104580000Y8430000D03*
X93297000Y-11300000D03*
X109640000Y6890000D03*
X109040000Y16350000D03*
X102188420Y16142736D03*
X100633000Y16240000D03*
X100930000Y21160000D03*
X98560000Y21120000D03*
X107220000Y17560000D03*
X95830000Y-72180000D03*
X98190000Y-72180000D03*
X95943000Y-36990000D03*
X96370000Y-91970000D03*
X100860000Y-22580000D03*
X82613511Y-22573511D03*
X113860578Y-91319422D03*
X108423000Y-67900000D03*
X81610000Y-67930000D03*
X105010000Y-22580000D03*
X108423000Y-85435067D03*
X112333000Y-28530000D03*
X115901010Y-28480000D03*
X113510000Y4920000D03*
X103100000Y-650000D03*
D25*
G36*
X102527028Y-62389495D02*
G01*
X102526759Y-62391124D01*
X102524405Y-62394647D01*
X102512992Y-62416000D01*
X102505992Y-62439075D01*
X102503629Y-62463066D01*
X102505992Y-62487057D01*
X102512992Y-62510132D01*
X102524357Y-62531396D01*
X102539652Y-62550033D01*
X102558289Y-62565328D01*
X102579553Y-62576693D01*
X102602628Y-62583693D01*
X102626619Y-62586056D01*
X102650610Y-62583693D01*
X102671653Y-62577309D01*
X102673601Y-62577763D01*
X102674182Y-62579677D01*
X102673345Y-62580886D01*
X102593443Y-62634276D01*
X102526318Y-62701401D01*
X102524386Y-62701919D01*
X102522972Y-62700505D01*
X102523241Y-62698876D01*
X102525595Y-62695353D01*
X102537008Y-62674000D01*
X102544008Y-62650925D01*
X102546371Y-62626934D01*
X102544008Y-62602943D01*
X102537008Y-62579868D01*
X102525643Y-62558604D01*
X102510348Y-62539967D01*
X102491711Y-62524672D01*
X102470447Y-62513307D01*
X102447372Y-62506307D01*
X102423381Y-62503944D01*
X102399390Y-62506307D01*
X102378347Y-62512691D01*
X102376399Y-62512237D01*
X102375818Y-62510323D01*
X102376655Y-62509114D01*
X102456557Y-62455724D01*
X102523682Y-62388599D01*
X102525614Y-62388081D01*
X102527028Y-62389495D01*
G37*
G36*
X114119732Y-56684692D02*
G01*
X114132175Y-56714732D01*
X114186521Y-56796066D01*
X114255688Y-56865233D01*
X114337022Y-56919579D01*
X114427394Y-56957012D01*
X114477303Y-56966940D01*
X114478807Y-56968259D01*
X114478417Y-56970221D01*
X114476717Y-56970892D01*
X114458629Y-56969110D01*
X114434638Y-56971473D01*
X114411563Y-56978473D01*
X114390300Y-56989839D01*
X114371663Y-57005134D01*
X114356368Y-57023771D01*
X114345003Y-57045035D01*
X114338003Y-57068110D01*
X114335640Y-57092101D01*
X114338003Y-57116092D01*
X114343275Y-57133471D01*
X114342821Y-57135419D01*
X114340907Y-57136000D01*
X114339513Y-57134817D01*
X114327070Y-57104777D01*
X114272724Y-57023443D01*
X114203557Y-56954276D01*
X114122223Y-56899930D01*
X114031851Y-56862497D01*
X113981942Y-56852569D01*
X113980438Y-56851250D01*
X113980828Y-56849288D01*
X113982528Y-56848617D01*
X114000616Y-56850399D01*
X114024607Y-56848036D01*
X114047682Y-56841036D01*
X114068945Y-56829670D01*
X114087582Y-56814375D01*
X114102877Y-56795738D01*
X114114242Y-56774474D01*
X114121242Y-56751399D01*
X114123605Y-56727408D01*
X114121242Y-56703417D01*
X114115970Y-56686038D01*
X114116424Y-56684090D01*
X114118338Y-56683509D01*
X114119732Y-56684692D01*
G37*
G36*
X114709186Y-55771467D02*
G01*
X114753443Y-55815724D01*
X114834777Y-55870070D01*
X114925149Y-55907503D01*
X115021200Y-55926610D01*
X115022704Y-55927929D01*
X115022314Y-55929891D01*
X115021006Y-55930562D01*
X115002764Y-55932358D01*
X114979689Y-55939358D01*
X114958425Y-55950723D01*
X114939788Y-55966018D01*
X114924493Y-55984655D01*
X114913128Y-56005919D01*
X114906128Y-56028994D01*
X114903765Y-56052985D01*
X114906128Y-56076976D01*
X114913128Y-56100051D01*
X114924493Y-56121315D01*
X114936019Y-56135359D01*
X114936345Y-56137333D01*
X114934799Y-56138601D01*
X114933059Y-56138042D01*
X114888802Y-56093785D01*
X114807468Y-56039439D01*
X114717096Y-56002006D01*
X114621045Y-55982899D01*
X114619541Y-55981580D01*
X114619931Y-55979618D01*
X114621239Y-55978947D01*
X114639481Y-55977151D01*
X114662556Y-55970151D01*
X114683820Y-55958786D01*
X114702457Y-55943491D01*
X114717752Y-55924854D01*
X114729117Y-55903590D01*
X114736117Y-55880515D01*
X114738480Y-55856524D01*
X114736117Y-55832533D01*
X114729117Y-55809458D01*
X114717752Y-55788194D01*
X114706226Y-55774150D01*
X114705900Y-55772176D01*
X114707446Y-55770908D01*
X114709186Y-55771467D01*
G37*
G36*
X117380607Y-11621732D02*
G01*
X117388075Y-11659273D01*
X117425508Y-11749645D01*
X117479854Y-11830979D01*
X117549021Y-11900146D01*
X117630355Y-11954492D01*
X117671844Y-11971678D01*
X117673062Y-11973265D01*
X117672297Y-11975113D01*
X117670498Y-11975440D01*
X117653108Y-11970164D01*
X117629116Y-11967801D01*
X117605125Y-11970164D01*
X117582050Y-11977164D01*
X117560787Y-11988529D01*
X117542150Y-12003825D01*
X117526855Y-12022462D01*
X117515490Y-12043725D01*
X117508490Y-12066800D01*
X117506127Y-12090792D01*
X117507908Y-12108868D01*
X117507083Y-12110690D01*
X117505093Y-12110886D01*
X117503956Y-12109454D01*
X117496488Y-12071913D01*
X117459055Y-11981541D01*
X117404709Y-11900207D01*
X117335542Y-11831040D01*
X117254208Y-11776694D01*
X117212719Y-11759508D01*
X117211501Y-11757921D01*
X117212266Y-11756073D01*
X117214065Y-11755746D01*
X117231455Y-11761022D01*
X117255447Y-11763385D01*
X117279438Y-11761022D01*
X117302513Y-11754022D01*
X117323776Y-11742657D01*
X117342413Y-11727361D01*
X117357708Y-11708724D01*
X117369073Y-11687461D01*
X117376073Y-11664386D01*
X117378436Y-11640394D01*
X117376655Y-11622318D01*
X117377480Y-11620496D01*
X117379470Y-11620300D01*
X117380607Y-11621732D01*
G37*
G36*
X110882062Y-6520654D02*
G01*
X110882389Y-6522452D01*
X110877116Y-6539839D01*
X110874752Y-6563831D01*
X110877115Y-6587822D01*
X110884115Y-6610897D01*
X110895480Y-6632160D01*
X110910775Y-6650797D01*
X110929412Y-6666093D01*
X110950676Y-6677458D01*
X110973751Y-6684458D01*
X110997742Y-6686821D01*
X111021733Y-6684458D01*
X111044808Y-6677458D01*
X111059759Y-6669467D01*
X111059935Y-6669384D01*
X111060494Y-6669152D01*
X111062477Y-6669411D01*
X111063244Y-6671259D01*
X111062372Y-6672662D01*
X110983443Y-6725402D01*
X110914276Y-6794569D01*
X110859930Y-6875903D01*
X110839948Y-6924145D01*
X110838361Y-6925363D01*
X110836513Y-6924598D01*
X110836186Y-6922800D01*
X110841459Y-6905413D01*
X110843823Y-6881421D01*
X110841460Y-6857430D01*
X110834460Y-6834355D01*
X110823095Y-6813092D01*
X110807800Y-6794455D01*
X110789163Y-6779159D01*
X110767899Y-6767794D01*
X110744824Y-6760794D01*
X110720833Y-6758431D01*
X110696842Y-6760794D01*
X110673767Y-6767794D01*
X110658816Y-6775785D01*
X110658640Y-6775868D01*
X110658081Y-6776100D01*
X110656098Y-6775841D01*
X110655331Y-6773993D01*
X110656203Y-6772590D01*
X110735132Y-6719850D01*
X110804299Y-6650683D01*
X110858645Y-6569349D01*
X110878627Y-6521107D01*
X110880214Y-6519889D01*
X110882062Y-6520654D01*
G37*
G36*
X110158476Y-5684485D02*
G01*
X110158803Y-5686284D01*
X110153528Y-5703672D01*
X110151165Y-5727663D01*
X110153528Y-5751654D01*
X110160528Y-5774729D01*
X110171893Y-5795992D01*
X110187188Y-5814629D01*
X110205825Y-5829925D01*
X110227089Y-5841290D01*
X110250164Y-5848290D01*
X110274155Y-5850653D01*
X110292237Y-5848872D01*
X110294059Y-5849697D01*
X110294255Y-5851687D01*
X110292823Y-5852824D01*
X110273724Y-5856623D01*
X110183352Y-5894056D01*
X110102018Y-5948402D01*
X110032851Y-6017569D01*
X109978505Y-6098903D01*
X109953534Y-6159188D01*
X109951947Y-6160406D01*
X109950099Y-6159641D01*
X109949772Y-6157842D01*
X109955047Y-6140454D01*
X109957410Y-6116463D01*
X109955047Y-6092472D01*
X109948047Y-6069397D01*
X109936682Y-6048134D01*
X109921387Y-6029497D01*
X109902750Y-6014201D01*
X109881486Y-6002836D01*
X109858411Y-5995836D01*
X109834420Y-5993473D01*
X109816338Y-5995254D01*
X109814516Y-5994429D01*
X109814320Y-5992439D01*
X109815752Y-5991302D01*
X109834851Y-5987503D01*
X109925223Y-5950070D01*
X110006557Y-5895724D01*
X110075724Y-5826557D01*
X110130070Y-5745223D01*
X110155041Y-5684938D01*
X110156628Y-5683720D01*
X110158476Y-5684485D01*
G37*
G36*
X91164404Y-5655813D02*
G01*
X91164374Y-5657641D01*
X91155812Y-5673660D01*
X91148812Y-5696735D01*
X91146449Y-5720726D01*
X91148812Y-5744717D01*
X91155812Y-5767792D01*
X91167177Y-5789056D01*
X91182472Y-5807692D01*
X91201109Y-5822988D01*
X91222373Y-5834353D01*
X91245448Y-5841353D01*
X91269439Y-5843716D01*
X91293524Y-5841343D01*
X91301329Y-5839791D01*
X91303223Y-5840434D01*
X91303613Y-5842396D01*
X91302484Y-5843601D01*
X91214777Y-5879930D01*
X91133443Y-5934276D01*
X91064276Y-6003443D01*
X91038905Y-6041413D01*
X91037111Y-6042298D01*
X91035448Y-6041187D01*
X91035478Y-6039359D01*
X91044040Y-6023340D01*
X91051040Y-6000265D01*
X91053403Y-5976274D01*
X91051040Y-5952283D01*
X91044040Y-5929208D01*
X91032675Y-5907944D01*
X91017380Y-5889308D01*
X90998743Y-5874012D01*
X90977479Y-5862647D01*
X90954404Y-5855647D01*
X90930413Y-5853284D01*
X90906328Y-5855657D01*
X90898523Y-5857209D01*
X90896629Y-5856566D01*
X90896239Y-5854604D01*
X90897368Y-5853399D01*
X90985075Y-5817070D01*
X91066409Y-5762724D01*
X91135576Y-5693557D01*
X91160947Y-5655587D01*
X91162741Y-5654702D01*
X91164404Y-5655813D01*
G37*
G36*
X107156404Y229974D02*
G01*
X107172226Y191777D01*
X107226572Y110443D01*
X107295739Y41276D01*
X107360151Y-1763D01*
X107361036Y-3557D01*
X107359925Y-5220D01*
X107358097Y-5190D01*
X107342072Y3375D01*
X107318997Y10375D01*
X107295006Y12738D01*
X107271015Y10375D01*
X107247940Y3375D01*
X107226677Y-7991D01*
X107208040Y-23286D01*
X107192745Y-41923D01*
X107181380Y-63187D01*
X107174380Y-86262D01*
X107172017Y-110253D01*
X107174380Y-134244D01*
X107179654Y-151628D01*
X107179200Y-153576D01*
X107177286Y-154157D01*
X107175892Y-152974D01*
X107160070Y-114777D01*
X107105724Y-33443D01*
X107036557Y35724D01*
X106972145Y78763D01*
X106971260Y80557D01*
X106972371Y82220D01*
X106974199Y82190D01*
X106990224Y73625D01*
X107013299Y66625D01*
X107037290Y64262D01*
X107061281Y66625D01*
X107084356Y73625D01*
X107105619Y84991D01*
X107124256Y100286D01*
X107139551Y118923D01*
X107150916Y140187D01*
X107157916Y163262D01*
X107160279Y187253D01*
X107157916Y211244D01*
X107152642Y228628D01*
X107153096Y230576D01*
X107155010Y231157D01*
X107156404Y229974D01*
G37*
M02*
