G04 #@! TF.GenerationSoftware,KiCad,Pcbnew,(5.1.9)-1*
G04 #@! TF.CreationDate,2021-04-22T16:52:20-07:00*
G04 #@! TF.ProjectId,euclid36,6575636c-6964-4333-962e-6b696361645f,1.2*
G04 #@! TF.SameCoordinates,PX2faf080PY2faf080*
G04 #@! TF.FileFunction,Legend,Top*
G04 #@! TF.FilePolarity,Positive*
%FSLAX46Y46*%
G04 Gerber Fmt 4.6, Leading zero omitted, Abs format (unit mm)*
G04 Created by KiCad (PCBNEW (5.1.9)-1) date 2021-04-22 16:52:20*
%MOMM*%
%LPD*%
G01*
G04 APERTURE LIST*
%ADD10C,0.022500*%
%ADD11C,0.120000*%
%ADD12C,0.150000*%
G04 APERTURE END LIST*
D10*
X91760570Y-52457838D02*
G75*
G02*
X91775149Y-52506348I-188299J-83036D01*
G01*
X91767842Y-52621009D02*
G75*
G02*
X91733338Y-52669713I-138828J61776D01*
G01*
X91775149Y-52506348D02*
G75*
G02*
X91780001Y-52563775I-337445J-57428D01*
G01*
X112217501Y-71462131D02*
X112570789Y-71258471D01*
X88527715Y-71203816D02*
G75*
G02*
X88634958Y-71181184I78094J-104648D01*
G01*
X88540812Y-71418092D02*
G75*
G02*
X88480001Y-71298959I86290J119133D01*
G01*
X111518354Y-71673138D02*
G75*
G02*
X111362679Y-71626200I-51315J111436D01*
G01*
X91739148Y-52424945D02*
G75*
G02*
X91760570Y-52457838I-89971J-82016D01*
G01*
X91780001Y-52563776D02*
G75*
G02*
X91767841Y-52621009I-140778J1D01*
G01*
X91733337Y-52669713D02*
G75*
G02*
X91681786Y-52702357I-109628J116099D01*
G01*
X111796428Y-72063776D02*
G75*
G02*
X111725130Y-71996102I-1J71394D01*
G01*
X91681786Y-52702357D02*
G75*
G02*
X91621148Y-52713775I-60638J155302D01*
G01*
X91567906Y-52702032D02*
G75*
G02*
X91536191Y-52669713I26990J58207D01*
G01*
X111986732Y-72010174D02*
G75*
G02*
X111796427Y-72063775I-190306J311033D01*
G01*
X88634958Y-71181183D02*
G75*
G02*
X88839212Y-71258471I-178994J-781584D01*
G01*
X112429093Y-71725816D02*
X111986732Y-72010175D01*
X89423269Y-72010175D02*
X88980908Y-71725816D01*
X89644892Y-71856682D02*
G75*
G02*
X89684871Y-71996102I-182616J-127808D01*
G01*
X88980908Y-71725816D02*
X88540811Y-71418092D01*
X112622928Y-70737727D02*
G75*
G02*
X112728733Y-70765004I29221J-105497D01*
G01*
X111765109Y-71856682D02*
G75*
G02*
X111950136Y-71654432I864118J-604772D01*
G01*
X112728733Y-70765004D02*
G75*
G02*
X112753610Y-70867948I-69869J-71362D01*
G01*
X91621148Y-52713775D02*
G75*
G02*
X91567906Y-52702032I0J126566D01*
G01*
X91531524Y-52621090D02*
G75*
G02*
X91555001Y-52563775I184043J-41921D01*
G01*
X112882286Y-71203815D02*
G75*
G02*
X112930001Y-71298959I-71001J-95144D01*
G01*
X112570789Y-71258472D02*
G75*
G02*
X112775043Y-71181184I383248J-704295D01*
G01*
X111950136Y-71654431D02*
G75*
G02*
X112217501Y-71462131I1396426J-1659498D01*
G01*
X89459865Y-71654432D02*
G75*
G02*
X89644892Y-71856682I-679091J-807022D01*
G01*
X112367182Y-70841365D02*
G75*
G02*
X112622929Y-70737727I577259J-1057129D01*
G01*
X88871792Y-70775471D02*
G75*
G02*
X89198067Y-70929908I-688585J-1876632D01*
G01*
X112930000Y-71298958D02*
G75*
G02*
X112869190Y-71418092I-147101J-1D01*
G01*
X111488611Y-71413014D02*
G75*
G02*
X111675873Y-71257595I1229507J-1290885D01*
G01*
X89192501Y-71462131D02*
G75*
G02*
X89459865Y-71654432I-1129062J-1851798D01*
G01*
X91682244Y-52423606D02*
G75*
G02*
X91713853Y-52413775I31609J-45901D01*
G01*
X112753609Y-70867948D02*
G75*
G02*
X112586080Y-71085828I-397975J132659D01*
G01*
X89684870Y-71996100D02*
G75*
G02*
X89613575Y-72063775I-71296J3718D01*
G01*
X111914871Y-71100264D02*
X112367181Y-70841366D01*
X112869190Y-71418092D02*
X112429093Y-71725816D01*
X91536191Y-52669713D02*
G75*
G02*
X91531524Y-52621090I71116J31361D01*
G01*
X112775043Y-71181184D02*
G75*
G02*
X112882286Y-71203816I29149J-127280D01*
G01*
X89198067Y-70929908D02*
X89631179Y-71204644D01*
X111725131Y-71996101D02*
G75*
G02*
X111765110Y-71856682I222594J11611D01*
G01*
X88839212Y-71258471D02*
X89192501Y-71462131D01*
X112062408Y-71399970D02*
X111518354Y-71673137D01*
X88480001Y-71298959D02*
G75*
G02*
X88527715Y-71203816I118715J0D01*
G01*
X111366786Y-71548017D02*
G75*
G02*
X111488612Y-71413014I951948J-736562D01*
G01*
X89613574Y-72063776D02*
G75*
G02*
X89423269Y-72010175I1J364635D01*
G01*
X111362679Y-71626200D02*
G75*
G02*
X111366786Y-71548017I58458J36129D01*
G01*
X111675873Y-71257595D02*
X111914871Y-71100264D01*
X91639904Y-52457838D02*
G75*
G02*
X91682244Y-52423606I243477J-257847D01*
G01*
X112586080Y-71085828D02*
X112062408Y-71399970D01*
X91713853Y-52413775D02*
G75*
G02*
X91739148Y-52424944I0J-34228D01*
G01*
X103185928Y-59556989D02*
X103314207Y-59801275D01*
X105807963Y-80781383D02*
G75*
G02*
X102875415Y-81523495I-5067714J13860470D01*
G01*
X103059876Y-60565031D02*
X102636653Y-60657540D01*
X94194038Y-67774735D02*
X100704140Y-61263343D01*
X103598041Y-60233996D02*
G75*
G02*
X103536939Y-60185416I65898J145598D01*
G01*
X103314207Y-59801275D02*
X103435696Y-60031519D01*
X98284658Y-81476637D02*
G75*
G02*
X97008038Y-81233737I1155653J9550045D01*
G01*
X90131604Y-77317000D02*
G75*
G02*
X88415442Y-75312451I10396872J10638017D01*
G01*
X103229193Y-58886578D02*
G75*
G02*
X103328858Y-58974204I-679092J-872884D01*
G01*
X103329440Y-59497650D02*
X103114737Y-59135084D01*
X103971396Y-60196967D02*
G75*
G02*
X103907639Y-60323689I-145057J-6418D01*
G01*
X103855858Y-59813089D02*
X103926441Y-59979413D01*
X103072397Y-58897648D02*
G75*
G02*
X103162749Y-58863775I90352J-103565D01*
G01*
X89808297Y-71337637D02*
G75*
G02*
X89945746Y-71468929I-836119J-1012932D01*
G01*
X113003717Y-75298405D02*
G75*
G02*
X110987174Y-77598211I-12459679J8891053D01*
G01*
X102875416Y-81523495D02*
G75*
G02*
X101526747Y-81636258I-1585874J10845818D01*
G01*
X89337804Y-71394283D02*
X88812572Y-71062032D01*
X103610214Y-60095656D02*
G75*
G02*
X103629321Y-60213775I-360149J-118865D01*
G01*
X89945746Y-71468928D02*
G75*
G02*
X90032749Y-71582407I-648683J-587431D01*
G01*
X103061523Y-59351041D02*
X103185928Y-59556989D01*
X102636653Y-60657540D02*
X102195964Y-60752059D01*
X101530001Y-60890212D02*
X101005001Y-60993560D01*
X103907639Y-60323689D02*
G75*
G02*
X103699828Y-60415870I-361892J535508D01*
G01*
X99894939Y-81613654D02*
X98284658Y-81476637D01*
X113726422Y-74285625D02*
X113003716Y-75298406D01*
X102562435Y-59432525D02*
X102832119Y-59188551D01*
X102195964Y-60752059D02*
X101799061Y-60835655D01*
X101526747Y-81636258D02*
X99894939Y-81613654D01*
X92197078Y-79017059D02*
G75*
G02*
X90131604Y-77317000I8911038J12931144D01*
G01*
X103444091Y-59702185D02*
X103329440Y-59497650D01*
X110987174Y-77598211D02*
G75*
G02*
X108552308Y-79452959I-10472079J11221893D01*
G01*
X103328858Y-58974204D02*
G75*
G02*
X103437778Y-59095764I-975480J-983624D01*
G01*
X103629321Y-60213775D02*
G75*
G02*
X103598041Y-60233997I-22148J-44D01*
G01*
X102950716Y-59190967D02*
X103061523Y-59351041D01*
X88698719Y-70759870D02*
G75*
G02*
X88871792Y-70775471I57421J-330795D01*
G01*
X87683937Y-74286126D02*
X94194038Y-67774735D01*
X101799061Y-60835655D02*
X101530001Y-60890212D01*
X103048801Y-58974432D02*
G75*
G02*
X103072397Y-58897648I73680J19376D01*
G01*
X88648424Y-70844045D02*
G75*
G02*
X88698720Y-70759870I61357J20452D01*
G01*
X88812571Y-71062032D02*
G75*
G02*
X88648424Y-70844045I242818J353642D01*
G01*
X90032749Y-71582408D02*
G75*
G02*
X90033371Y-71648773I-52272J-33675D01*
G01*
X89631179Y-71204643D02*
G75*
G02*
X89808297Y-71337637I-1355943J-1990254D01*
G01*
X103756403Y-59612061D02*
X103855858Y-59813089D01*
X94521807Y-80342356D02*
G75*
G02*
X92197078Y-79017059I6591950J14264642D01*
G01*
X103699828Y-60415870D02*
X103059876Y-60565031D01*
X108552307Y-79452959D02*
G75*
G02*
X105807963Y-80781382I-7972872J12971950D01*
G01*
X103437779Y-59095763D02*
G75*
G02*
X103541814Y-59239701I-1517774J-1206587D01*
G01*
X103541049Y-59910601D02*
X103444091Y-59702185D01*
X102250779Y-59728031D02*
X102562435Y-59432525D01*
X101900305Y-60078668D02*
X102250779Y-59728031D01*
X103926441Y-59979412D02*
G75*
G02*
X103971396Y-60196967I-653492J-248458D01*
G01*
X89884945Y-71690700D02*
X89337804Y-71394283D01*
X100704140Y-61263343D02*
X107215281Y-67774484D01*
X103162749Y-58863776D02*
G75*
G02*
X103229193Y-58886578I0J-108207D01*
G01*
X103536939Y-60185416D02*
G75*
G02*
X103435696Y-60031519I1039583J794154D01*
G01*
X101005001Y-60993560D02*
X101900305Y-60078668D01*
X88415442Y-75312451D02*
X87683937Y-74286126D01*
X97008038Y-81233737D02*
G75*
G02*
X94521807Y-80342356I3772149J14434223D01*
G01*
X103114738Y-59135084D02*
G75*
G02*
X103048802Y-58974432I570586J328040D01*
G01*
X103610214Y-60095657D02*
X103541049Y-59910601D01*
X102897129Y-59163775D02*
G75*
G02*
X102950716Y-59190967I0J-66397D01*
G01*
X90033371Y-71648773D02*
G75*
G02*
X89884945Y-71690700I-97084J60001D01*
G01*
X107215281Y-67774484D02*
X113726422Y-74285625D01*
X102832119Y-59188550D02*
G75*
G02*
X102897130Y-59163775I65011J-72907D01*
G01*
X103753794Y-61226275D02*
X103780155Y-60791619D01*
X102789788Y-62986099D02*
X102508326Y-62738252D01*
X103058307Y-60734466D02*
X103611614Y-60640512D01*
X102179753Y-62437021D02*
X101816074Y-62088775D01*
X103622811Y-62088775D02*
G75*
G02*
X103608155Y-62175266I-211943J-8575D01*
G01*
X101816074Y-62088775D02*
X100892787Y-61188775D01*
X112595592Y-69987210D02*
G75*
G02*
X112655521Y-70303053I-1940305J-531765D01*
G01*
X104479797Y-60438707D02*
G75*
G02*
X104483902Y-60478042I-14704J-21416D01*
G01*
X112516761Y-69614729D02*
X112547442Y-69790532D01*
X104192501Y-60509214D02*
X104428220Y-60503223D01*
X102789818Y-60783049D02*
X103058307Y-60734466D01*
X101698894Y-61008598D02*
X102048016Y-60932733D01*
X102430741Y-60853748D02*
X102789818Y-60783049D01*
X103005145Y-63261898D02*
X103317012Y-62750337D01*
X102946817Y-63021219D02*
G75*
G02*
X102876144Y-63035930I-47685J51970D01*
G01*
X100892787Y-61188775D02*
X101698894Y-61008598D01*
X102876144Y-63035929D02*
G75*
G02*
X102789788Y-62986099I85414J247763D01*
G01*
X112655521Y-70303053D02*
G75*
G02*
X112610889Y-70484055I-270788J-29232D01*
G01*
X103189229Y-62726747D02*
G75*
G02*
X103061433Y-62901162I-1430467J914098D01*
G01*
X111159686Y-71420485D02*
X107082415Y-67341192D01*
X107082415Y-67341192D02*
X103005145Y-63261898D01*
X112502276Y-69471543D02*
G75*
G02*
X112520261Y-69423515I61758J4255D01*
G01*
X112502276Y-69471543D02*
X112516761Y-69614729D01*
X104057763Y-59892951D02*
X103966381Y-59695967D01*
X103646224Y-59410110D02*
X103756403Y-59612061D01*
X103541814Y-59239701D02*
X103646224Y-59410110D01*
X103435983Y-62543476D02*
X103535486Y-62344984D01*
X103953308Y-60535840D02*
G75*
G02*
X104192501Y-60509214I252548J-1181055D01*
G01*
X103061433Y-62901163D02*
G75*
G02*
X102946817Y-63021219I-963550J805144D01*
G01*
X108549144Y-54571012D02*
X108503497Y-54326275D01*
X108392859Y-54250565D02*
X108509146Y-54547245D01*
X103693209Y-59235671D02*
X103306418Y-58665702D01*
X103836990Y-60618215D02*
G75*
G02*
X103953308Y-60535840I154091J-94275D01*
G01*
X102508326Y-62738252D02*
X102179753Y-62437021D01*
X103431326Y-62301366D02*
X103314835Y-62510930D01*
X103431326Y-62301366D02*
G75*
G02*
X103529839Y-62150908I1535864J-898137D01*
G01*
X103596338Y-62077551D02*
G75*
G02*
X103622810Y-62088775I10584J-11867D01*
G01*
X103535486Y-62344984D02*
X103608155Y-62175266D01*
X112444814Y-70646916D02*
X111946369Y-70954630D01*
X103966381Y-59695967D02*
X103841296Y-59468305D01*
X108203009Y-53762355D02*
X108392859Y-54250565D01*
X104342500Y-60351761D02*
G75*
G02*
X104242089Y-60278695I307983J528774D01*
G01*
X103727588Y-61938775D02*
X103753794Y-61226275D01*
X103669601Y-61289644D02*
X103727588Y-61938775D01*
X102048016Y-60932733D02*
X102430741Y-60853748D01*
X111946369Y-70954630D02*
X111159686Y-71420485D01*
X103314835Y-62510930D02*
X103189229Y-62726748D01*
X108549144Y-54571011D02*
G75*
G02*
X108535278Y-54579995I-8810J-1595D01*
G01*
X108535278Y-54579996D02*
G75*
G02*
X108509146Y-54547245I40397J59034D01*
G01*
X103611614Y-60640512D02*
X103669601Y-61289644D01*
X105754713Y-56214029D02*
X108203009Y-53762355D01*
X104098978Y-60088664D02*
G75*
G02*
X104080001Y-60002254I187244J86410D01*
G01*
X104483902Y-60478041D02*
G75*
G02*
X104428220Y-60503223I-58918J56128D01*
G01*
X112610889Y-70484055D02*
G75*
G02*
X112444814Y-70646916I-476427J319724D01*
G01*
X103306418Y-58665702D02*
X105754713Y-56214029D01*
X103529839Y-62150909D02*
G75*
G02*
X103596338Y-62077551I377579J-275456D01*
G01*
X103317012Y-62750337D02*
X103435983Y-62543476D01*
X103841296Y-59468305D02*
X103693209Y-59235671D01*
X104057763Y-59892951D02*
G75*
G02*
X104080001Y-60002254I-257504J-109303D01*
G01*
X112547442Y-69790532D02*
X112595592Y-69987210D01*
X104157110Y-60186025D02*
G75*
G02*
X104098978Y-60088665I428865J322103D01*
G01*
X104242090Y-60278694D02*
G75*
G02*
X104157110Y-60186025I428995J478694D01*
G01*
X104479797Y-60438706D02*
X104342501Y-60351761D01*
X103780155Y-60791618D02*
G75*
G02*
X103836989Y-60618215I394850J-33399D01*
G01*
X113521538Y-73188775D02*
X113593251Y-73551227D01*
X115706297Y-66553934D02*
G75*
G02*
X115390124Y-69835557I-14994150J-211410D01*
G01*
X114183597Y-60087531D02*
G75*
G02*
X115297430Y-63238931I-13922385J-6693278D01*
G01*
X113787561Y-59286897D02*
X114183596Y-60087532D01*
X108593274Y-53944519D02*
G75*
G02*
X108836141Y-54040212I-82546J-565538D01*
G01*
X108503497Y-54326275D02*
G75*
G02*
X108487475Y-54028658I1079916J207375D01*
G01*
X113499399Y-73001152D02*
X113386875Y-72481276D01*
X112982590Y-71613775D02*
G75*
G02*
X113015098Y-71636672I0J-34525D01*
G01*
X114036770Y-73567436D02*
G75*
G02*
X113911424Y-73743363I-599191J294297D01*
G01*
X112180001Y-58927201D02*
X112462445Y-58891441D01*
X113499398Y-73001152D02*
G75*
G02*
X113481193Y-73062583I-65691J-13945D01*
G01*
X113481193Y-73062583D02*
G75*
G02*
X113446613Y-73055926I-15036J15036D01*
G01*
X113380179Y-72887483D02*
X113446613Y-73055926D01*
X113162592Y-58533326D02*
G75*
G02*
X113085272Y-58583453I-150497J147442D01*
G01*
X108487476Y-54028658D02*
G75*
G02*
X108593274Y-53944519I92407J-7609D01*
G01*
X113306525Y-72657928D02*
X113380179Y-72887483D01*
X113157359Y-72081252D02*
X113231943Y-72371872D01*
X113231943Y-72371872D02*
X113306525Y-72657928D01*
X113083676Y-71836466D02*
X113157359Y-72081252D01*
X113011738Y-58804450D02*
X113182470Y-58767859D01*
X113593250Y-73551227D02*
G75*
G02*
X113575577Y-73672869I-180984J-35809D01*
G01*
X112804956Y-71657680D02*
G75*
G02*
X112982590Y-71613775I177634J-337387D01*
G01*
X112442818Y-71861432D02*
X112804956Y-71657681D01*
X113911424Y-73743363D02*
G75*
G02*
X113810847Y-73740912I-49130J48754D01*
G01*
X110657756Y-55497002D02*
X111985488Y-56841337D01*
X111985488Y-56841337D02*
X113174535Y-58183619D01*
X113810846Y-73740912D02*
G75*
G02*
X113694235Y-73563775I525248J472730D01*
G01*
X113298914Y-73543378D02*
X112847483Y-73106351D01*
X113182470Y-58767859D02*
G75*
G02*
X113386353Y-58788671I73063J-293313D01*
G01*
X112270136Y-72502755D02*
X112056260Y-72256639D01*
X113015098Y-71636672D02*
X113083676Y-71836466D01*
X112282141Y-58821874D02*
X111505001Y-59004972D01*
X115297430Y-63238931D02*
G75*
G02*
X115706297Y-66553934I-14994988J-3532175D01*
G01*
X112534216Y-72788732D02*
X112270136Y-72502755D01*
X112083074Y-72087041D02*
X112442818Y-71861432D01*
X112030001Y-72185252D02*
G75*
G02*
X112083074Y-72087041I117405J0D01*
G01*
X112056260Y-72256638D02*
G75*
G02*
X112030001Y-72185251I83903J71386D01*
G01*
X114364075Y-72888775D02*
X114036770Y-73567435D01*
X109420931Y-54460184D02*
G75*
G02*
X110657756Y-55497002I-8344039J-11209768D01*
G01*
X92825684Y-55022487D02*
X93167760Y-53727591D01*
X113085272Y-58583453D02*
X112861344Y-58661585D01*
X113694235Y-73563775D02*
X113521538Y-73188775D01*
X98405221Y-58965052D02*
X98093172Y-59476914D01*
X112847483Y-73106351D02*
X112534216Y-72788732D01*
X113498431Y-73694594D02*
G75*
G02*
X113298914Y-73543378I580570J973241D01*
G01*
X108836141Y-54040212D02*
X109420930Y-54460184D01*
X113568577Y-58937447D02*
G75*
G02*
X113787561Y-59286897I-1844004J-1398892D01*
G01*
X112752914Y-58848314D02*
X113011738Y-58804450D01*
X112587326Y-58744052D02*
X112282141Y-58821874D01*
X112520261Y-69423515D02*
G75*
G02*
X112554316Y-69431780I14509J-14509D01*
G01*
X112706049Y-69913352D02*
X112554316Y-69431780D01*
X113174535Y-58183618D02*
G75*
G02*
X113162592Y-58533325I-197082J-168327D01*
G01*
X111505001Y-59004972D02*
X112180001Y-58927201D01*
X93167760Y-53727591D02*
X95786490Y-56346322D01*
X112875749Y-70485894D02*
X112706049Y-69913352D01*
X113386354Y-58788671D02*
G75*
G02*
X113568577Y-58937447I-216711J-451414D01*
G01*
X113575578Y-73672869D02*
G75*
G02*
X113498431Y-73694595I-48866J25683D01*
G01*
X95786490Y-56346322D02*
X98405221Y-58965052D01*
X112462445Y-58891441D02*
X112752914Y-58848314D01*
X113065484Y-71178292D02*
X112875749Y-70485894D01*
X112861344Y-58661585D02*
X112587326Y-58744052D01*
X115390124Y-69835556D02*
G75*
G02*
X114364075Y-72888775I-13390193J2800826D01*
G01*
X113245822Y-71879668D02*
X113065484Y-71178292D01*
X113386875Y-72481276D02*
X113245822Y-71879668D01*
X92770910Y-54614259D02*
G75*
G02*
X92923906Y-54143599I4588072J-1231235D01*
G01*
X90386930Y-63487100D02*
X90348694Y-63686861D01*
X91108027Y-60867426D02*
X90542954Y-63027977D01*
X92902171Y-53995406D02*
G75*
G02*
X92923906Y-54143599I-120969J-93432D01*
G01*
X92774380Y-53962396D02*
G75*
G02*
X92902171Y-53995405I42646J-98772D01*
G01*
X91764870Y-54644029D02*
X92419985Y-54162006D01*
X85927759Y-64267402D02*
G75*
G02*
X86146664Y-64110571I297247J-183708D01*
G01*
X90355225Y-55843492D02*
G75*
G02*
X91764870Y-54644029I11668265J-12284829D01*
G01*
X91438344Y-60182138D02*
X91761475Y-58857565D01*
X89122362Y-57161124D02*
G75*
G02*
X90355226Y-55843492I11777634J-9784342D01*
G01*
X90152105Y-64623167D02*
G75*
G02*
X90117902Y-64553313I23197J54658D01*
G01*
X91106692Y-61486629D02*
X91438344Y-60182138D01*
X87200083Y-60138776D02*
G75*
G02*
X88070131Y-58594261I13200611J-6418791D01*
G01*
X86656818Y-63788278D02*
X86001854Y-63901831D01*
X91702063Y-58779666D02*
X91525926Y-59360353D01*
X90542954Y-63027977D02*
X88273977Y-63481939D01*
X90771407Y-62779750D02*
G75*
G02*
X90785490Y-62651275I377689J23609D01*
G01*
X90785490Y-62651275D02*
X91106692Y-61486629D01*
X86146664Y-64110571D02*
X88153452Y-63656563D01*
X91555001Y-62949270D02*
X91132392Y-62931523D01*
X90215218Y-64594305D02*
G75*
G02*
X90152104Y-64623167I-44747J14413D01*
G01*
X90215219Y-64594305D02*
X90413976Y-63964076D01*
X90923510Y-62910944D02*
G75*
G02*
X90814163Y-62862509I35440J227659D01*
G01*
X91329338Y-60043390D02*
X91108027Y-60867426D01*
X88070131Y-58594261D02*
G75*
G02*
X89122362Y-57161124I12476128J-8057318D01*
G01*
X86761275Y-61147569D02*
X87200082Y-60138775D01*
X90702068Y-63269042D02*
G75*
G02*
X90866773Y-63131313I382775J-290401D01*
G01*
X86309398Y-62407553D02*
X86761275Y-61147569D01*
X90814163Y-62862509D02*
G75*
G02*
X90771408Y-62779751I72686J89975D01*
G01*
X85765601Y-68205270D02*
G75*
G02*
X85693669Y-67133021I11162830J1287403D01*
G01*
X85900872Y-63673876D02*
X86309398Y-62407553D01*
X90348694Y-63686861D02*
X90291771Y-63912210D01*
X90179646Y-63212467D02*
G75*
G02*
X90390897Y-63274672I48562J-224895D01*
G01*
X85707480Y-65877927D02*
X85780895Y-64711935D01*
X86608935Y-71837948D02*
X86242488Y-70679728D01*
X90291771Y-63912210D02*
X90117902Y-64553313D01*
X88273977Y-63481939D02*
X87400479Y-63652483D01*
X91702063Y-58779666D02*
G75*
G02*
X91737155Y-58770930I20173J-6184D01*
G01*
X91111771Y-63044323D02*
X91555001Y-62949270D01*
X91132393Y-62931523D02*
G75*
G02*
X90923510Y-62910944I78349J1865689D01*
G01*
X87400479Y-63652483D02*
X86656818Y-63788278D01*
X85957701Y-69455205D02*
X85765601Y-68205270D01*
X85693669Y-67133021D02*
X85707480Y-65877927D01*
X85780896Y-64711935D02*
G75*
G02*
X85927760Y-64267401I1003886J-85136D01*
G01*
X86242488Y-70679728D02*
X85957701Y-69455205D01*
X92690166Y-55514856D02*
X92825684Y-55022487D01*
X92566406Y-55919321D02*
X92690166Y-55514856D01*
X92419985Y-54162006D02*
G75*
G02*
X92774381Y-53962397I1120922J-1575730D01*
G01*
X90866774Y-63131312D02*
G75*
G02*
X91111771Y-63044323I455386J-894051D01*
G01*
X92456038Y-56249610D02*
X92566406Y-55919321D01*
X88153452Y-63656563D02*
X90179647Y-63212467D01*
X92456038Y-56249610D02*
G75*
G02*
X92423398Y-56257173I-18679J6398D01*
G01*
X92423398Y-56257173D02*
G75*
G02*
X92396038Y-56162193I72240J72240D01*
G01*
X85954979Y-63887316D02*
G75*
G02*
X85900872Y-63673876I146346J150676D01*
G01*
X86001854Y-63901830D02*
G75*
G02*
X85954979Y-63887316I-9170J53334D01*
G01*
X91525926Y-59360353D02*
X91329338Y-60043390D01*
X91737155Y-58770931D02*
G75*
G02*
X91761475Y-58857565I-64968J-64968D01*
G01*
X90390898Y-63274672D02*
G75*
G02*
X90408168Y-63323366I-42474J-42474D01*
G01*
X90569768Y-63508680D02*
G75*
G02*
X90702068Y-63269041I889043J-334483D01*
G01*
X90408168Y-63323366D02*
X90386930Y-63487100D01*
X87045926Y-72888776D02*
G75*
G02*
X86608935Y-71837948I10696281J5064363D01*
G01*
X90413976Y-63964076D02*
X90569768Y-63508680D01*
X92582568Y-55360103D02*
X92396038Y-56162193D01*
X92770910Y-54614259D02*
X92582568Y-55360103D01*
X90083871Y-64955764D02*
G75*
G02*
X90087903Y-65058886I-183933J-58832D01*
G01*
X96129035Y-62110252D02*
X96891509Y-61927485D01*
X89442749Y-70950459D02*
X88680498Y-70480838D01*
X97025925Y-61948191D02*
G75*
G02*
X97179902Y-62084763I-400137J-606218D01*
G01*
X97682413Y-60288775D02*
X97656207Y-60970944D01*
X89901549Y-65841663D02*
X90087903Y-65058886D01*
X97179903Y-62084762D02*
G75*
G02*
X97360927Y-62339723I-1393996J-1181498D01*
G01*
X87888463Y-73188775D02*
X87715766Y-73563775D01*
X88028998Y-72886659D02*
X88103276Y-72657736D01*
X87961921Y-73053054D02*
G75*
G02*
X87926003Y-73059778I-20261J8932D01*
G01*
X87926003Y-73059778D02*
G75*
G02*
X87907411Y-72993351I49737J49736D01*
G01*
X97584438Y-62745039D02*
X98040858Y-63630020D01*
X88948570Y-68906170D02*
X88534651Y-70476831D01*
X97954245Y-61538825D02*
G75*
G02*
X97847677Y-61447491I82091J203622D01*
G01*
X92703856Y-62746013D02*
X94493993Y-62419980D01*
X90205001Y-71420079D02*
X89442749Y-70950459D01*
X97360927Y-62339723D02*
X97584438Y-62745039D01*
X89732826Y-66061329D02*
X89370753Y-67349460D01*
X94493993Y-62419980D02*
X96129035Y-62110252D01*
X92510050Y-62732125D02*
G75*
G02*
X92511548Y-62698426I5545J16636D01*
G01*
X94122929Y-67525049D02*
X90205001Y-71420079D01*
X87599153Y-73740912D02*
G75*
G02*
X87498577Y-73743363I-51446J46303D01*
G01*
X98126125Y-61575303D02*
G75*
G02*
X97954245Y-61538824I17768J506886D01*
G01*
X88103276Y-72657736D02*
X88178058Y-72371872D01*
X87816750Y-73551227D02*
X87888463Y-73188775D01*
X89353741Y-72256639D02*
X89139865Y-72502755D01*
X97783154Y-61270104D02*
X97739831Y-60926275D01*
X90051944Y-64956198D02*
X89732826Y-66061329D01*
X92703856Y-62746012D02*
G75*
G02*
X92510049Y-62732125I-69734J386106D01*
G01*
X89326927Y-72087040D02*
G75*
G02*
X89380001Y-72185251I-64332J-98212D01*
G01*
X88967183Y-71861432D02*
X89326927Y-72087041D01*
X88326325Y-71836466D02*
X88394903Y-71636672D01*
X90051945Y-64956199D02*
G75*
G02*
X90083871Y-64955764I16029J-4650D01*
G01*
X96891509Y-61927485D02*
G75*
G02*
X97025925Y-61948191I44668J-156677D01*
G01*
X93990289Y-62367094D02*
X93174104Y-62544332D01*
X94991421Y-62166417D02*
X93990289Y-62367094D01*
X97656207Y-60970944D02*
X97630001Y-61653112D01*
X97739831Y-60926275D02*
X97682413Y-60288775D01*
X87911570Y-73694594D02*
G75*
G02*
X87834424Y-73672869I-28281J47408D01*
G01*
X88178058Y-72371872D02*
X88252642Y-72081252D01*
X89380001Y-72185252D02*
G75*
G02*
X89353741Y-72256639I-110163J0D01*
G01*
X88394903Y-71636672D02*
G75*
G02*
X88427411Y-71613775I32508J-11628D01*
G01*
X88197429Y-71810703D02*
X87907411Y-72993351D01*
X89403457Y-67784807D02*
X89677497Y-66741802D01*
X98040858Y-63630020D02*
X94122929Y-67525049D01*
X89677497Y-66741802D02*
X89901549Y-65841663D01*
X93174104Y-62544332D02*
X92511548Y-62698426D01*
X87373231Y-73567435D02*
X87045926Y-72888775D01*
X87498576Y-73743363D02*
G75*
G02*
X87373231Y-73567435I473846J470224D01*
G01*
X88680498Y-70480838D02*
X89403457Y-67784807D01*
X87715766Y-73563776D02*
G75*
G02*
X87599154Y-73740912I-641859J295594D01*
G01*
X89139865Y-72502755D02*
X88875785Y-72788732D01*
X87961920Y-73053053D02*
X88028998Y-72886659D01*
X89370753Y-67349460D02*
X88948570Y-68906170D01*
X87834423Y-73672869D02*
G75*
G02*
X87816750Y-73551227I163312J85833D01*
G01*
X97630001Y-61653112D02*
X94991421Y-62166417D01*
X97847677Y-61447491D02*
G75*
G02*
X97783154Y-61270104I433921J258264D01*
G01*
X88875785Y-72788732D02*
X88562519Y-73106351D01*
X88111087Y-73543379D02*
G75*
G02*
X87911570Y-73694595I-780087J822026D01*
G01*
X88562519Y-73106351D02*
X88111087Y-73543378D01*
X88252642Y-72081252D02*
X88326325Y-71836466D01*
X88605045Y-71657681D02*
X88967183Y-71861432D01*
X88427411Y-71613776D02*
G75*
G02*
X88605045Y-71657681I0J-381291D01*
G01*
X88534651Y-70476831D02*
X88197429Y-71810703D01*
X88309864Y-62520823D02*
G75*
G02*
X88252891Y-62569038I-153967J124165D01*
G01*
X89451583Y-62543793D02*
G75*
G02*
X89443438Y-62571345I-16935J-9973D01*
G01*
X88877726Y-61985151D02*
X88950942Y-62242383D01*
X88993789Y-62452125D02*
G75*
G02*
X88971362Y-62522414I-79293J-13422D01*
G01*
X88773551Y-61697414D02*
X88877726Y-61985151D01*
X91828002Y-62886568D02*
G75*
G02*
X91742501Y-62863118I58012J379114D01*
G01*
X89417501Y-62514433D02*
G75*
G02*
X89345799Y-62475343I132462J328278D01*
G01*
X89109415Y-62600172D02*
G75*
G02*
X89013323Y-62583459I25537J431430D01*
G01*
X89345799Y-62475343D02*
G75*
G02*
X89285079Y-62420912I202987J287521D01*
G01*
X91930001Y-62787460D02*
X91796285Y-62792139D01*
X92063717Y-62792139D02*
X91930001Y-62787460D01*
X92032000Y-62886567D02*
G75*
G02*
X91930001Y-62894326I-101999J666567D01*
G01*
X92063716Y-62792138D02*
G75*
G02*
X92139766Y-62809684I-17469J-249310D01*
G01*
X92139766Y-62809684D02*
G75*
G02*
X92148908Y-62835025I-6762J-16759D01*
G01*
X92148909Y-62835026D02*
G75*
G02*
X92117501Y-62863118I-54641J29486D01*
G01*
X92298254Y-56521973D02*
G75*
G02*
X92330953Y-56514728I18658J-6796D01*
G01*
X92117500Y-62863118D02*
G75*
G02*
X92031999Y-62886568I-143513J355664D01*
G01*
X88286155Y-62326570D02*
G75*
G02*
X88320707Y-62355651I1J-35065D01*
G01*
X89417500Y-62514433D02*
G75*
G02*
X89451584Y-62543792I-26162J-64837D01*
G01*
X89242500Y-62601934D02*
G75*
G02*
X89109414Y-62600172I-47366J1449923D01*
G01*
X87920663Y-62606686D02*
G75*
G02*
X87892519Y-62583490I1741J30784D01*
G01*
X89242500Y-62601933D02*
X89371332Y-62592657D01*
X88030001Y-62463775D02*
X87905439Y-62548292D01*
X92298254Y-56521973D02*
X92213615Y-56764577D01*
X89179501Y-62046201D02*
X88956736Y-61541436D01*
X88670666Y-61415995D02*
X88773551Y-61697414D01*
X88950942Y-62242383D02*
X88993789Y-62452124D01*
X89179502Y-62046201D02*
G75*
G02*
X89230001Y-62302305I-624152J-256103D01*
G01*
X91930001Y-62894327D02*
G75*
G02*
X91828002Y-62886568I-1J674327D01*
G01*
X88219424Y-62345211D02*
X88030001Y-62463775D01*
X88956736Y-61541436D02*
X88704801Y-61029805D01*
X89013322Y-62583460D02*
G75*
G02*
X88970138Y-62555648I25544J87096D01*
G01*
X88330000Y-62463776D02*
G75*
G02*
X88309864Y-62520823I-90876J0D01*
G01*
X87892519Y-62583490D02*
G75*
G02*
X87905439Y-62548292I32161J8165D01*
G01*
X89443438Y-62571346D02*
G75*
G02*
X89371332Y-62592657I-95876J191754D01*
G01*
X88566559Y-60999142D02*
G75*
G02*
X88596804Y-60963775I30245J4751D01*
G01*
X89243806Y-62360107D02*
G75*
G02*
X89230001Y-62302305I114114J57803D01*
G01*
X92118917Y-57073185D02*
X92018236Y-57452011D01*
X92330954Y-56514728D02*
G75*
G02*
X92348433Y-56568443I-44030J-44029D01*
G01*
X88596804Y-60963775D02*
G75*
G02*
X88704801Y-61029805I0J-121333D01*
G01*
X91720235Y-62809685D02*
G75*
G02*
X91796285Y-62792139I93519J-231763D01*
G01*
X89285079Y-62420912D02*
G75*
G02*
X89243805Y-62360107I216528J191389D01*
G01*
X87920663Y-62606686D02*
X88067501Y-62611479D01*
X88219423Y-62345210D02*
G75*
G02*
X88286156Y-62326569I66733J-110126D01*
G01*
X88252891Y-62569038D02*
G75*
G02*
X88167917Y-62601240I-148818J264481D01*
G01*
X92213615Y-56764577D02*
X92118917Y-57073185D01*
X88167918Y-62601241D02*
G75*
G02*
X88067501Y-62611479I-96407J448001D01*
G01*
X92300857Y-56851820D02*
X92348433Y-56568443D01*
X88670666Y-61415996D02*
G75*
G02*
X88602348Y-61179282I2620050J884390D01*
G01*
X88970138Y-62555648D02*
G75*
G02*
X88971362Y-62522414I18500J15958D01*
G01*
X88320708Y-62355651D02*
G75*
G02*
X88330001Y-62463775I-624362J-108125D01*
G01*
X88566560Y-60999142D02*
X88602348Y-61179282D01*
X92018236Y-57452011D02*
X91926513Y-57839394D01*
X99949179Y-59569713D02*
G75*
G02*
X99891196Y-59602833I-89671J89671D01*
G01*
X100978496Y-59570730D02*
G75*
G02*
X100985658Y-59514449I63921J20463D01*
G01*
X99737304Y-59357838D02*
G75*
G02*
X99776995Y-59323204I274338J-274338D01*
G01*
X99805000Y-59313776D02*
G75*
G02*
X99833006Y-59323204I1J-46305D01*
G01*
X99872697Y-59357838D02*
G75*
G02*
X99915306Y-59406348I-353179J-353179D01*
G01*
X99970302Y-59520686D02*
G75*
G02*
X99949179Y-59569713I-72190J2039D01*
G01*
X101642539Y-57963775D02*
G75*
G02*
X101743402Y-57973173I-1J-545966D01*
G01*
X100174723Y-58253914D02*
G75*
G02*
X100113731Y-58124294I1224628J655399D01*
G01*
X99776995Y-59323203D02*
G75*
G02*
X99805001Y-59313775I28005J-36878D01*
G01*
X99718805Y-59602833D02*
G75*
G02*
X99660822Y-59569713I31688J122791D01*
G01*
X100113731Y-58124295D02*
G75*
G02*
X100095894Y-58035862I222010J90796D01*
G01*
X101375007Y-58318984D02*
G75*
G02*
X101449640Y-58123514I910791J-235768D01*
G01*
X101781505Y-58006821D02*
G75*
G02*
X101774343Y-58063102I-63921J-20463D01*
G01*
X101198913Y-59096076D02*
X101124034Y-59303450D01*
X101635966Y-58274101D02*
G75*
G02*
X101704946Y-58158718I406391J-164642D01*
G01*
X100117876Y-57984912D02*
G75*
G02*
X100171865Y-57963775I53989J-58383D01*
G01*
X101310362Y-59454037D02*
G75*
G02*
X101220768Y-59572835I-390829J201566D01*
G01*
X101016600Y-59604377D02*
G75*
G02*
X100978497Y-59570730I9169J48781D01*
G01*
X100095894Y-58035862D02*
G75*
G02*
X100117876Y-57984912I68473J675D01*
G01*
X100355502Y-58172103D02*
G75*
G02*
X100393041Y-58301275I-768521J-293385D01*
G01*
X100409346Y-59433475D02*
G75*
G02*
X100367953Y-59328691I489514J253944D01*
G01*
X100235251Y-57987995D02*
G75*
G02*
X100299709Y-58062916I-253513J-283299D01*
G01*
X100985657Y-59514449D02*
G75*
G02*
X101055055Y-59418833I770335J-486112D01*
G01*
X101449639Y-58123514D02*
G75*
G02*
X101539233Y-58004716I390829J-201566D01*
G01*
X91926513Y-57839394D02*
X91859144Y-58175731D01*
X100533806Y-59189730D02*
G75*
G02*
X100526486Y-59404416I-1180864J-67202D01*
G01*
X99655000Y-59463775D02*
G75*
G02*
X99694695Y-59406348I579809J-358343D01*
G01*
X101743401Y-57973174D02*
G75*
G02*
X101781504Y-58006821I-9169J-48781D01*
G01*
X100171865Y-57963775D02*
G75*
G02*
X100235251Y-57987995I0J-95053D01*
G01*
X101442408Y-58983718D02*
X101492869Y-58728213D01*
X99891196Y-59602832D02*
G75*
G02*
X99805001Y-59613775I-86196J334010D01*
G01*
X99805001Y-59613776D02*
G75*
G02*
X99718805Y-59602833I0J344954D01*
G01*
X99660822Y-59569713D02*
G75*
G02*
X99639699Y-59520686I51067J51066D01*
G01*
X101774344Y-58063102D02*
G75*
G02*
X101704946Y-58158718I-770335J486112D01*
G01*
X101492869Y-58728213D02*
X101561088Y-58481475D01*
X101117462Y-59613776D02*
G75*
G02*
X101016599Y-59604378I1J545966D01*
G01*
X101267132Y-58849338D02*
X101198913Y-59096076D01*
X100494177Y-58841030D02*
X100393041Y-58301275D01*
X100299709Y-58062916D02*
G75*
G02*
X100355502Y-58172104I-476956J-312566D01*
G01*
X99639699Y-59520685D02*
G75*
G02*
X99655001Y-59463775I102690J2900D01*
G01*
X101317593Y-58593834D02*
G75*
G02*
X101375007Y-58318984I2927685J-468153D01*
G01*
X101220768Y-59572835D02*
G75*
G02*
X101117463Y-59613775I-103305J109865D01*
G01*
X101561088Y-58481475D02*
X101635967Y-58274101D01*
X99955000Y-59463776D02*
G75*
G02*
X99970302Y-59520686I-87388J-54009D01*
G01*
X99694695Y-59406348D02*
G75*
G02*
X99737304Y-59357838I395788J-304669D01*
G01*
X91946387Y-58262974D02*
X92041084Y-57954366D01*
X101539233Y-58004715D02*
G75*
G02*
X101642538Y-57963775I103305J-109866D01*
G01*
X100494177Y-58841030D02*
G75*
G02*
X100533807Y-59189730I-3072884J-525833D01*
G01*
X92233488Y-57188157D02*
X92300857Y-56851820D01*
X99915306Y-59406348D02*
G75*
G02*
X99955001Y-59463775I-540114J-415770D01*
G01*
X91859144Y-58175731D02*
X91811568Y-58459108D01*
X92141765Y-57575540D02*
X92233488Y-57188157D01*
X92041084Y-57954366D02*
X92141765Y-57575540D01*
X91861747Y-58505578D02*
X91946387Y-58262974D01*
X101442408Y-58983717D02*
G75*
G02*
X101384994Y-59258567I-2927685J468153D01*
G01*
X101317593Y-58593833D02*
X101267132Y-58849338D01*
X101384994Y-59258567D02*
G75*
G02*
X101310361Y-59454037I-910791J235768D01*
G01*
X101124035Y-59303450D02*
G75*
G02*
X101055055Y-59418833I-406391J164642D01*
G01*
X100526486Y-59404416D02*
G75*
G02*
X100459200Y-59463775I-67286J8456D01*
G01*
X91861747Y-58505578D02*
G75*
G02*
X91829048Y-58512823I-18658J6796D01*
G01*
X100459199Y-59463776D02*
G75*
G02*
X100409346Y-59433475I1J56163D01*
G01*
X99833006Y-59323204D02*
G75*
G02*
X99872697Y-59357838I-234647J-308972D01*
G01*
X91829047Y-58512823D02*
G75*
G02*
X91811568Y-58459108I44030J44029D01*
G01*
X115853737Y-76190733D02*
G75*
G02*
X115688428Y-76408711I-670693J336965D01*
G01*
X115708721Y-75515911D02*
G75*
G02*
X115657150Y-75571996I-125660J63793D01*
G01*
X115688428Y-76408711D02*
G75*
G02*
X115469284Y-76528767I-357539J392599D01*
G01*
X115576143Y-75729618D02*
G75*
G02*
X115606078Y-75630213I393605J-64322D01*
G01*
X115142111Y-74983721D02*
G75*
G02*
X115145002Y-75060691I-197085J-45941D01*
G01*
X115570099Y-75851876D02*
G75*
G02*
X115576142Y-75729618I543637J34406D01*
G01*
X114646528Y-76544294D02*
G75*
G02*
X114617890Y-76493830I71118J73717D01*
G01*
X115704355Y-75740278D02*
G75*
G02*
X115742218Y-75650458I195310J-29440D01*
G01*
X114614998Y-76416859D02*
G75*
G02*
X114639276Y-76325662I439752J-68235D01*
G01*
X115808331Y-75853934D02*
G75*
G02*
X115726791Y-75804259I82077J226488D01*
G01*
X115608178Y-76114518D02*
G75*
G02*
X115590570Y-76246632I-493935J-1400D01*
G01*
X115590593Y-75979279D02*
G75*
G02*
X115608178Y-76114518I-523011J-136770D01*
G01*
X115590593Y-75979279D02*
G75*
G02*
X115570099Y-75851876I649282J169792D01*
G01*
X114978142Y-75734734D02*
X115028625Y-75492454D01*
X115749351Y-75311952D02*
G75*
G02*
X115740627Y-75423814I-470621J-19567D01*
G01*
X115740626Y-75423814D02*
G75*
G02*
X115708721Y-75515911I-351774J70290D01*
G01*
X114824496Y-75500663D02*
G75*
G02*
X114871121Y-75275806I2471337J-395180D01*
G01*
X114694781Y-76563776D02*
G75*
G02*
X114646528Y-76544294I0J69499D01*
G01*
X114935505Y-75976888D02*
X114978142Y-75734734D01*
X114935505Y-75976888D02*
G75*
G02*
X114888880Y-76201745I-2471337J395180D01*
G01*
X114731376Y-75985097D02*
X114680594Y-76196176D01*
X86094958Y-74382772D02*
X86192501Y-74484889D01*
X114680594Y-76196175D02*
G75*
G02*
X114639276Y-76325662I-1144760J293943D01*
G01*
X100318631Y-58806588D02*
G75*
G02*
X100330001Y-59003914I-1706566J-197327D01*
G01*
X100284388Y-58593909D02*
G75*
G02*
X100318630Y-58806589I-2370066J-490688D01*
G01*
X115808331Y-75853934D02*
G75*
G02*
X115899419Y-75978166I-47136J-130070D01*
G01*
X115079407Y-75281375D02*
G75*
G02*
X115120725Y-75151888I1144760J-293944D01*
G01*
X115540716Y-76359984D02*
G75*
G02*
X115464010Y-76440549I-237091J148935D01*
G01*
X115732112Y-75196846D02*
G75*
G02*
X115749351Y-75311952I-526641J-137720D01*
G01*
X115715111Y-75015373D02*
G75*
G02*
X115780389Y-74922205I109968J-7596D01*
G01*
X115899419Y-75978166D02*
G75*
G02*
X115853737Y-76190734I-432424J-18263D01*
G01*
X115464010Y-76440549D02*
X115343089Y-76526534D01*
X115606078Y-75630213D02*
G75*
G02*
X115657150Y-75571996I120612J-54300D01*
G01*
X114933920Y-75086173D02*
G75*
G02*
X115002548Y-74949272I939967J-385548D01*
G01*
X115002547Y-74949272D02*
G75*
G02*
X115065220Y-74913775I62673J-37578D01*
G01*
X86094958Y-74382771D02*
G75*
G02*
X86093576Y-74353145I17016J15639D01*
G01*
X115113473Y-74933257D02*
G75*
G02*
X115142111Y-74983721I-71118J-73717D01*
G01*
X115145002Y-75060691D02*
G75*
G02*
X115120725Y-75151888I-439751J68234D01*
G01*
X114826081Y-76391378D02*
G75*
G02*
X114757453Y-76528279I-939967J385548D01*
G01*
X100367952Y-59328691D02*
G75*
G02*
X100339370Y-59180125I869822J244378D01*
G01*
X100339371Y-59180125D02*
G75*
G02*
X100330001Y-59003914I1652320J176212D01*
G01*
X115948451Y-75390666D02*
G75*
G02*
X115860525Y-75507671I-684205J422620D01*
G01*
X115346843Y-76560172D02*
X115469284Y-76528767D01*
X115346843Y-76560172D02*
G75*
G02*
X115332259Y-76549397I-2791J11480D01*
G01*
X114888879Y-76201745D02*
G75*
G02*
X114826080Y-76391377I-1394522J356602D01*
G01*
X114824496Y-75500662D02*
X114781859Y-75742817D01*
X114871122Y-75275805D02*
G75*
G02*
X114933921Y-75086173I1394522J-356603D01*
G01*
X100234363Y-58397678D02*
G75*
G02*
X100284388Y-58593909I-2131681J-647924D01*
G01*
X115780390Y-74922204D02*
G75*
G02*
X115891886Y-74937298I43493J-98068D01*
G01*
X115332260Y-76549398D02*
G75*
G02*
X115343089Y-76526534I26236J1570D01*
G01*
X116010842Y-75073228D02*
G75*
G02*
X116030600Y-75154237I-114701J-70889D01*
G01*
X115726791Y-75804259D02*
G75*
G02*
X115704355Y-75740278I49212J53181D01*
G01*
X115590570Y-76246633D02*
G75*
G02*
X115540716Y-76359984I-408953J112226D01*
G01*
X114757453Y-76528279D02*
G75*
G02*
X114694781Y-76563775I-62672J37578D01*
G01*
X100174723Y-58253914D02*
G75*
G02*
X100234362Y-58397678I-700111J-374689D01*
G01*
X115065220Y-74913775D02*
G75*
G02*
X115113473Y-74933257I0J-69499D01*
G01*
X115028625Y-75492454D02*
X115079407Y-75281375D01*
X115732111Y-75196846D02*
G75*
G02*
X115715111Y-75015373I545399J142625D01*
G01*
X114781859Y-75742817D02*
X114731376Y-75985097D01*
X114617890Y-76493830D02*
G75*
G02*
X114614999Y-76416860I197085J45941D01*
G01*
X115891885Y-74937298D02*
G75*
G02*
X116010842Y-75073227I-347842J-424427D01*
G01*
X116030600Y-75154237D02*
G75*
G02*
X116007337Y-75266619I-444833J33481D01*
G01*
X116007337Y-75266620D02*
G75*
G02*
X115948451Y-75390666I-590476J204306D01*
G01*
X115742218Y-75650458D02*
G75*
G02*
X115860525Y-75507671I1693661J-1282889D01*
G01*
X85388470Y-74464020D02*
X85365975Y-74674824D01*
X85372932Y-74338462D02*
G75*
G02*
X85428723Y-74319552I77375J-136527D01*
G01*
X84810632Y-64124015D02*
G75*
G02*
X84767501Y-64165599I-117444J78655D01*
G01*
X86093575Y-74353145D02*
G75*
G02*
X86123770Y-74343940I21479J-16329D01*
G01*
X85252616Y-75222814D02*
X85187435Y-75506984D01*
X85365975Y-74674824D02*
X85321406Y-74932813D01*
X86335400Y-74732073D02*
G75*
G02*
X86370988Y-75067044I-1014953J-277206D01*
G01*
X86261790Y-74393746D02*
X86123770Y-74343940D01*
X86323251Y-75723799D02*
G75*
G02*
X86105593Y-75886979I-395905J301326D01*
G01*
X85323990Y-75801720D02*
G75*
G02*
X85291860Y-75886666I-323639J73865D01*
G01*
X85466582Y-75110886D02*
X85543909Y-74876275D01*
X84688047Y-64112963D02*
G75*
G02*
X84662967Y-64016807I352757J143358D01*
G01*
X85352039Y-75563644D02*
X85400202Y-75350650D01*
X86261791Y-74393745D02*
G75*
G02*
X86366361Y-74450908I-155712J-409080D01*
G01*
X85624879Y-74340103D02*
G75*
G02*
X85670822Y-74409668I-36724J-74207D01*
G01*
X85353731Y-74366256D02*
G75*
G02*
X85372932Y-74338462I38323J-5946D01*
G01*
X86366361Y-74450908D02*
G75*
G02*
X86468219Y-74541769I-443777J-600017D01*
G01*
X85151109Y-75922954D02*
G75*
G02*
X85154645Y-75746118I1485570J58750D01*
G01*
X86468219Y-74541769D02*
G75*
G02*
X86552371Y-74650279I-551223J-514370D01*
G01*
X85364040Y-74397815D02*
G75*
G02*
X85388470Y-74464020I-59606J-59605D01*
G01*
X84846953Y-64055601D02*
G75*
G02*
X84810632Y-64124016I-352172J143122D01*
G01*
X84871663Y-63804324D02*
G75*
G02*
X84880001Y-63888775I-423514J-84452D01*
G01*
X84724914Y-64162828D02*
G75*
G02*
X84688047Y-64112963I78955J96935D01*
G01*
X86192500Y-74484889D02*
G75*
G02*
X86335400Y-74732074I-397776J-394856D01*
G01*
X86297923Y-75414014D02*
G75*
G02*
X86125911Y-75695920I-828127J311870D01*
G01*
X84724915Y-63614723D02*
G75*
G02*
X84767501Y-63611952I23239J-28532D01*
G01*
X84871663Y-63973227D02*
G75*
G02*
X84846954Y-64055602I-446480J89031D01*
G01*
X85364039Y-74397814D02*
G75*
G02*
X85353731Y-74366256I25935J25934D01*
G01*
X86370988Y-75067045D02*
G75*
G02*
X86297922Y-75414014I-1164410J64027D01*
G01*
X85291861Y-75886666D02*
G75*
G02*
X85246176Y-75943905I-184923J100744D01*
G01*
X85512324Y-74313775D02*
G75*
G02*
X85624879Y-74340102I1J-253763D01*
G01*
X85543909Y-74876275D02*
X85652950Y-74551982D01*
X85154645Y-75746118D02*
G75*
G02*
X85187435Y-75506984I2120718J-168976D01*
G01*
X84655001Y-63888776D02*
G75*
G02*
X84662967Y-63760744I1032812J0D01*
G01*
X83990005Y-63513776D02*
G75*
G02*
X84022978Y-63548420I0J-33013D01*
G01*
X84662967Y-64016807D02*
G75*
G02*
X84655001Y-63888775I1024846J128032D01*
G01*
X84880000Y-63888776D02*
G75*
G02*
X84871662Y-63973227I-431851J1D01*
G01*
X85336584Y-75701276D02*
G75*
G02*
X85352039Y-75563644I799061J-20042D01*
G01*
X86603929Y-74760396D02*
G75*
G02*
X86621728Y-75048115I-565157J-179373D01*
G01*
X86552371Y-74650279D02*
G75*
G02*
X86603928Y-74760396I-393553J-251390D01*
G01*
X85962085Y-75908140D02*
G75*
G02*
X85984856Y-75855577I95494J-10155D01*
G01*
X83936826Y-63547423D02*
X83844416Y-63756119D01*
X86125911Y-75695920D02*
X85984856Y-75855577D01*
X84767500Y-64165599D02*
G75*
G02*
X84724914Y-64162828I-19346J31303D01*
G01*
X83936826Y-63547423D02*
G75*
G02*
X83990005Y-63513775I53179J-25199D01*
G01*
X85428724Y-74319551D02*
G75*
G02*
X85512325Y-74313775I83600J-602076D01*
G01*
X85246175Y-75943904D02*
G75*
G02*
X85193577Y-75963775I-52598J59679D01*
G01*
X84767500Y-63611952D02*
G75*
G02*
X84810632Y-63653535I-74312J-120239D01*
G01*
X83844416Y-63756119D02*
X83745750Y-64022569D01*
X84810632Y-63653534D02*
G75*
G02*
X84846954Y-63721949I-315851J-211538D01*
G01*
X85670823Y-74409668D02*
G75*
G02*
X85652950Y-74551982I-397723J-22332D01*
G01*
X86621727Y-75048115D02*
G75*
G02*
X86510994Y-75405942I-1586080J294781D01*
G01*
X86105593Y-75886979D02*
G75*
G02*
X85984907Y-75927323I-520603J1356672D01*
G01*
X85400202Y-75350650D02*
X85466582Y-75110886D01*
X85321406Y-74932813D02*
X85252616Y-75222814D01*
X84846953Y-63721949D02*
G75*
G02*
X84871662Y-63804324I-421770J-171406D01*
G01*
X86510995Y-75405942D02*
G75*
G02*
X86323251Y-75723799I-1445422J639372D01*
G01*
X85336584Y-75701275D02*
G75*
G02*
X85323990Y-75801720I-508587J12756D01*
G01*
X85193577Y-75963775D02*
G75*
G02*
X85151110Y-75922954I0J42500D01*
G01*
X84662967Y-63760744D02*
G75*
G02*
X84688047Y-63664588I377837J-47202D01*
G01*
X84022977Y-63548420D02*
G75*
G02*
X84006925Y-63717180I-1864594J92217D01*
G01*
X85984907Y-75927323D02*
G75*
G02*
X85962085Y-75908140I-4947J17282D01*
G01*
X83745750Y-64022569D02*
X83649742Y-64338775D01*
X84688047Y-63664588D02*
G75*
G02*
X84724914Y-63614723I115822J-47070D01*
G01*
X115530222Y-58533379D02*
G75*
G02*
X115596465Y-58410430I404519J-138627D01*
G01*
X115127911Y-56994354D02*
G75*
G02*
X115067449Y-57082732I-664523J389752D01*
G01*
X84006925Y-63717180D02*
G75*
G02*
X83964249Y-63940636I-2325173J328267D01*
G01*
X83818414Y-64481090D02*
X83892246Y-64206216D01*
X114811080Y-57487176D02*
G75*
G02*
X114978249Y-57188087I734297J-214156D01*
G01*
X83744603Y-64943154D02*
X83769134Y-64734191D01*
X115610627Y-58974445D02*
G75*
G02*
X115471148Y-59013775I-139479J227655D01*
G01*
X83765778Y-65031215D02*
G75*
G02*
X83744603Y-64943154I123360J76240D01*
G01*
X116064671Y-57543215D02*
G75*
G02*
X115945925Y-57928516I-1606104J284038D01*
G01*
X91595349Y-52506359D02*
G75*
G02*
X91639904Y-52457838I362222J-287893D01*
G01*
X115139137Y-56913775D02*
G75*
G02*
X115154212Y-56934052I-1J-15743D01*
G01*
X83779371Y-65081512D02*
G75*
G02*
X83760837Y-65124836I-63731J1638D01*
G01*
X83760838Y-65124836D02*
G75*
G02*
X83709815Y-65154102I-78957J78545D01*
G01*
X83709814Y-65154101D02*
G75*
G02*
X83633910Y-65163775I-75903J292950D01*
G01*
X83633911Y-65163775D02*
G75*
G02*
X83537726Y-65120461I-1J128451D01*
G01*
X83537726Y-65120461D02*
G75*
G02*
X83499385Y-65016292I114375J101238D01*
G01*
X83499384Y-65016293D02*
G75*
G02*
X83527907Y-64800884I967956J-18575D01*
G01*
X83649742Y-64338775D02*
X83527907Y-64800884D01*
X115695265Y-58870299D02*
G75*
G02*
X115610627Y-58974445I-190150J68068D01*
G01*
X115848502Y-57251313D02*
G75*
G02*
X115875251Y-57104119I827250J-74303D01*
G01*
X116077515Y-57195065D02*
G75*
G02*
X116064672Y-57543215I-1258312J-127893D01*
G01*
X115960001Y-57007316D02*
G75*
G02*
X116077515Y-57195066I-131690J-213078D01*
G01*
X115945926Y-57928516D02*
G75*
G02*
X115742501Y-58237184I-1059060J476597D01*
G01*
X115090153Y-56932343D02*
X114986114Y-57029874D01*
X115596465Y-58410430D02*
X115742501Y-58237184D01*
X115593435Y-58672164D02*
G75*
G02*
X115686765Y-58752815I-57326J-160664D01*
G01*
X114866340Y-57157600D02*
X114740888Y-57309004D01*
X114905001Y-58413776D02*
G75*
G02*
X114965476Y-58420530I0J-274108D01*
G01*
X115421306Y-58471000D02*
G75*
G02*
X115585001Y-58230626I949128J-470432D01*
G01*
X114451101Y-57838156D02*
G75*
G02*
X114521324Y-57664922I1551339J-528008D01*
G01*
X115358837Y-58934905D02*
G75*
G02*
X115338681Y-58735978I387159J139713D01*
G01*
X115000284Y-58442086D02*
G75*
G02*
X115006129Y-58473537I-25824J-21068D01*
G01*
X115006128Y-58473538D02*
G75*
G02*
X114983625Y-58510151I-87953J28837D01*
G01*
X114521324Y-57664922D02*
G75*
G02*
X114621904Y-57479522I1737666J-822708D01*
G01*
X115821241Y-57656117D02*
G75*
G02*
X115765094Y-57882443I-1660851J291895D01*
G01*
X115471149Y-59013775D02*
G75*
G02*
X115358837Y-58934905I-1J119400D01*
G01*
X115338682Y-58735978D02*
G75*
G02*
X115421306Y-58471000I873422J-126977D01*
G01*
X115682815Y-58086218D02*
G75*
G02*
X115585001Y-58230626I-560515J274331D01*
G01*
X114430001Y-57965638D02*
G75*
G02*
X114451101Y-57838156I395653J1D01*
G01*
X115154213Y-56934051D02*
G75*
G02*
X115127912Y-56994354I-264949J79667D01*
G01*
X115765094Y-57882443D02*
G75*
G02*
X115682815Y-58086217I-1465830J473372D01*
G01*
X114978249Y-57188087D02*
X115067449Y-57082732D01*
X114965476Y-58420530D02*
G75*
G02*
X115000284Y-58442086I-13857J-61257D01*
G01*
X114651230Y-58403730D02*
G75*
G02*
X114486206Y-58185401I657496J668499D01*
G01*
X114621904Y-57479522D02*
G75*
G02*
X114740888Y-57309004I1546261J-952178D01*
G01*
X83892246Y-64206216D02*
X83964249Y-63940636D01*
X83769134Y-64734191D02*
X83818414Y-64481090D01*
X115840000Y-57441003D02*
G75*
G02*
X115848502Y-57251314I2120447J0D01*
G01*
X114486206Y-58185401D02*
G75*
G02*
X114430001Y-57965638I401537J219764D01*
G01*
X115875251Y-57104119D02*
G75*
G02*
X115914187Y-57017596I300165J-83055D01*
G01*
X115686765Y-58752815D02*
G75*
G02*
X115695265Y-58870299I-128721J-68363D01*
G01*
X91555001Y-52563775D02*
G75*
G02*
X91595350Y-52506359I506245J-312878D01*
G01*
X114986114Y-57029874D02*
X114866340Y-57157600D01*
X114905001Y-58413776D02*
G75*
G02*
X114761229Y-58295221I0J146454D01*
G01*
X115914188Y-57017595D02*
G75*
G02*
X115960001Y-57007317I28161J-18282D01*
G01*
X115593435Y-58672164D02*
G75*
G02*
X115533915Y-58616988I34625J97043D01*
G01*
X115090154Y-56932342D02*
G75*
G02*
X115139136Y-56913775I48982J-55327D01*
G01*
X114761229Y-58295220D02*
G75*
G02*
X114736317Y-57918235I1479441J287082D01*
G01*
X115533915Y-58616988D02*
G75*
G02*
X115530222Y-58533379I104577J46505D01*
G01*
X115840000Y-57441003D02*
G75*
G02*
X115821241Y-57656117I-1242730J-1D01*
G01*
X114736316Y-57918235D02*
G75*
G02*
X114811080Y-57487176I1952965J-116711D01*
G01*
X114983625Y-58510150D02*
G75*
G02*
X114843786Y-58535672I-88378J88377D01*
G01*
X114843786Y-58535672D02*
G75*
G02*
X114651230Y-58403730I273889J606194D01*
G01*
X83765779Y-65031216D02*
G75*
G02*
X83779371Y-65081512I-77590J-47952D01*
G01*
X109080606Y-56467001D02*
X109032056Y-56224016D01*
X110482337Y-57029674D02*
G75*
G02*
X110507356Y-57101275I-172357J-100398D01*
G01*
X109350333Y-57901130D02*
X109456121Y-58291045D01*
X110207610Y-56943475D02*
G75*
G02*
X110287654Y-56913775I80044J-93012D01*
G01*
X108873862Y-55610982D02*
X108790503Y-55342001D01*
X109032056Y-56224016D02*
X108958470Y-55921300D01*
X91742500Y-62863117D02*
G75*
G02*
X91711093Y-62835025I23233J57577D01*
G01*
X111430001Y-57138775D02*
G75*
G02*
X111372686Y-57162252I-99236J160566D01*
G01*
X110459228Y-58539837D02*
G75*
G02*
X110416535Y-58477366I78314J99344D01*
G01*
X110378741Y-57630856D02*
G75*
G02*
X110427879Y-57864297I-2011334J-545262D01*
G01*
X91711093Y-62835025D02*
G75*
G02*
X91720235Y-62809684I15904J8582D01*
G01*
X105561203Y-60182509D02*
G75*
G02*
X105562480Y-60149235I5484J16451D01*
G01*
X110406011Y-58375477D02*
G75*
G02*
X110429643Y-58240141I826124J-74520D01*
G01*
X107568696Y-59708657D02*
X106749609Y-59874227D01*
X110653538Y-58321641D02*
G75*
G02*
X110621878Y-58499448I-476847J-6816D01*
G01*
X110431535Y-56968853D02*
G75*
G02*
X110482337Y-57029674I-153440J-179793D01*
G01*
X109261111Y-57553777D02*
X109350333Y-57901130D01*
X108631229Y-54899056D02*
G75*
G02*
X108652307Y-54927922I-34908J-47618D01*
G01*
X108679395Y-55260550D02*
X108727945Y-55503535D01*
X109189458Y-57259770D02*
X109261111Y-57553777D01*
X111291419Y-57011990D02*
G75*
G02*
X111324063Y-56960438I148743J-58077D01*
G01*
X111430001Y-56913775D02*
G75*
G02*
X111487428Y-56918627I-1J-342297D01*
G01*
X109140673Y-56821163D02*
X109080606Y-56467001D01*
X110287654Y-56913775D02*
G75*
G02*
X110363181Y-56927971I0J-208017D01*
G01*
X111487428Y-56918627D02*
G75*
G02*
X111535938Y-56933206I-34526J-202878D01*
G01*
X108886139Y-56116569D02*
X108969498Y-56385550D01*
X111324063Y-56960439D02*
G75*
G02*
X111372767Y-56925935I110480J-104323D01*
G01*
X110363182Y-56927971D02*
G75*
G02*
X110431535Y-56968854I-86751J-222624D01*
G01*
X110176327Y-57014863D02*
G75*
G02*
X110207611Y-56943475I90069J3078D01*
G01*
X110304792Y-57415140D02*
G75*
G02*
X110378742Y-57630856I-1606738J-671341D01*
G01*
X110626601Y-57955420D02*
G75*
G02*
X110653538Y-58321641I-3079834J-410631D01*
G01*
X110528261Y-58563776D02*
G75*
G02*
X110459228Y-58539838I0J111510D01*
G01*
X108790503Y-55342001D02*
X108652307Y-54927922D01*
X109140672Y-56821163D02*
G75*
G02*
X109128772Y-56828495I-7440J-1248D01*
G01*
X111535939Y-56933206D02*
G75*
G02*
X111568832Y-56954628I-49124J-111393D01*
G01*
X110203154Y-57154040D02*
G75*
G02*
X110176328Y-57014863I428330J154735D01*
G01*
X106086532Y-60021858D02*
X105562480Y-60149235D01*
X110447592Y-58080851D02*
G75*
G02*
X110429643Y-58240141I-559900J-17566D01*
G01*
X111570169Y-57011532D02*
G75*
G02*
X111535938Y-57053872I-292078J201137D01*
G01*
X111372767Y-56925934D02*
G75*
G02*
X111430001Y-56913775I57234J-128619D01*
G01*
X106749609Y-59874227D02*
X106086532Y-60021858D01*
X111291744Y-57125869D02*
G75*
G02*
X111280001Y-57072628I114823J53241D01*
G01*
X109456121Y-58291045D02*
X109732242Y-59286822D01*
X111280001Y-57072628D02*
G75*
G02*
X111291419Y-57011990I166720J0D01*
G01*
X111568832Y-56954628D02*
G75*
G02*
X111580001Y-56979923I-23059J-25295D01*
G01*
X110203154Y-57154040D02*
X110304792Y-57415141D01*
X110626601Y-57955420D02*
X110507356Y-57101275D01*
X108619328Y-54906388D02*
X108679395Y-55260550D01*
X108801531Y-55806251D02*
X108886139Y-56116569D01*
X108727945Y-55503535D02*
X108801531Y-55806251D01*
X110621877Y-58499448D02*
G75*
G02*
X110528261Y-58563775I-93616J35957D01*
G01*
X109189458Y-57259771D02*
G75*
G02*
X109180001Y-57179522I335740J80249D01*
G01*
X111580001Y-56979923D02*
G75*
G02*
X111570170Y-57011532I-55732J0D01*
G01*
X111372686Y-57162253D02*
G75*
G02*
X111324063Y-57157586I-17262J75784D01*
G01*
X110416535Y-58477366D02*
G75*
G02*
X110406012Y-58375477I255593J77884D01*
G01*
X108958470Y-55921300D02*
X108873862Y-55610982D01*
X111535938Y-57053871D02*
G75*
G02*
X111487417Y-57098426I-336414J317666D01*
G01*
X111487417Y-57098426D02*
G75*
G02*
X111430001Y-57138775I-370294J465896D01*
G01*
X110427879Y-57864298D02*
G75*
G02*
X110447592Y-58080851I-1810393J-273975D01*
G01*
X108619329Y-54906388D02*
G75*
G02*
X108631229Y-54899056I7440J1248D01*
G01*
X109128771Y-56828495D02*
G75*
G02*
X109107694Y-56799628I34909J47618D01*
G01*
X111324063Y-57157585D02*
G75*
G02*
X111291744Y-57125870I25888J58705D01*
G01*
X109732242Y-59286822D02*
X107568696Y-59708657D01*
X108969498Y-56385550D02*
X109107694Y-56799628D01*
X85520775Y-66655992D02*
G75*
G02*
X85927791Y-63199377I14852448J3399D01*
G01*
X92572155Y-51123056D02*
G75*
G02*
X92621112Y-51190987I-52584J-89503D01*
G01*
X92713529Y-52076275D02*
X92661603Y-51459028D01*
X85929217Y-70123904D02*
G75*
G02*
X85520776Y-66655992I14547173J3471331D01*
G01*
X108932420Y-52633262D02*
X109055047Y-52793405D01*
X110435547Y-51221637D02*
G75*
G02*
X110470430Y-51292240I-31651J-59557D01*
G01*
X110302165Y-51754822D02*
G75*
G02*
X110267419Y-51751194I-15136J23237D01*
G01*
X88225207Y-75334463D02*
G75*
G02*
X87686433Y-74484479I8890138J6230875D01*
G01*
X110421908Y-51519725D02*
G75*
G02*
X110385916Y-51631876I-1041068J272246D01*
G01*
X87131537Y-73443342D02*
G75*
G02*
X85929216Y-70123904I13989830J6944663D01*
G01*
X108796915Y-51974700D02*
G75*
G02*
X108963506Y-51697151I2050457J-1041962D01*
G01*
X85927792Y-63199377D02*
G75*
G02*
X87128438Y-59913103I14746374J-3525150D01*
G01*
X110253256Y-51539319D02*
G75*
G02*
X110281762Y-51445245I664761J-150080D01*
G01*
X109106785Y-52736391D02*
G75*
G02*
X109091763Y-52792892I-76667J-9863D01*
G01*
X91683739Y-54472601D02*
G75*
G02*
X94800281Y-52712511I8885750J-12094515D01*
G01*
X87128438Y-59913103D02*
G75*
G02*
X89106280Y-56896870I14105773J-7093030D01*
G01*
X109091763Y-52792891D02*
G75*
G02*
X109055047Y-52793405I-18558J14039D01*
G01*
X92725174Y-52320697D02*
G75*
G02*
X92718643Y-52526510I-2076135J-37126D01*
G01*
X94800281Y-52712511D02*
G75*
G02*
X98367909Y-51655562I6724855J-16149522D01*
G01*
X109067924Y-52454158D02*
G75*
G02*
X109054749Y-52256343I1239180J181874D01*
G01*
X92497732Y-52000967D02*
X92567888Y-52631417D01*
X109054750Y-52256343D02*
G75*
G02*
X109070535Y-52038972I1824236J-23219D01*
G01*
X110267419Y-51751194D02*
G75*
G02*
X110244876Y-51706622I56627J56627D01*
G01*
X108742922Y-52184683D02*
G75*
G02*
X108796915Y-51974700I499884J-16602D01*
G01*
X110371847Y-51241860D02*
G75*
G02*
X110435547Y-51221637I41752J-21077D01*
G01*
X92514364Y-51138775D02*
G75*
G02*
X92572156Y-51123056I36579J-20386D01*
G01*
X92718643Y-52526510D02*
G75*
G02*
X92698918Y-52682308I-1755136J143057D01*
G01*
X109110428Y-51835255D02*
G75*
G02*
X109170781Y-51681001I678268J-176444D01*
G01*
X110385915Y-51631876D02*
G75*
G02*
X110343523Y-51713923I-387202J148088D01*
G01*
X88847786Y-76141939D02*
X89661977Y-77053749D01*
X109163887Y-51426519D02*
X108963506Y-51697151D01*
X89106280Y-56896870D02*
G75*
G02*
X91683740Y-54472601I11245001J-9373280D01*
G01*
X88847787Y-76141939D02*
G75*
G02*
X88225207Y-75334463I8554743J7239628D01*
G01*
X109070534Y-52038971D02*
G75*
G02*
X109110428Y-51835255I1684373J-224083D01*
G01*
X87131537Y-73443342D02*
X87686433Y-74484479D01*
X109262077Y-51373836D02*
G75*
G02*
X109296606Y-51422515I2701J-34670D01*
G01*
X108785082Y-52386483D02*
G75*
G02*
X108742922Y-52184684I392748J187357D01*
G01*
X110244875Y-51706622D02*
G75*
G02*
X110240909Y-51630598I380817J57985D01*
G01*
X110281762Y-51445245D02*
G75*
G02*
X110371847Y-51241860I2055001J-788578D01*
G01*
X92456261Y-51382705D02*
X92497732Y-52000967D01*
X92456261Y-51382704D02*
G75*
G02*
X92514365Y-51138775I461980J18841D01*
G01*
X109170781Y-51681001D02*
X109296606Y-51422515D01*
X110470430Y-51292240D02*
G75*
G02*
X110421907Y-51519725I-2515458J417630D01*
G01*
X92621113Y-51190987D02*
G75*
G02*
X92661603Y-51459028I-2233168J-474420D01*
G01*
X109163886Y-51426519D02*
G75*
G02*
X109262076Y-51373837I108932J-85184D01*
G01*
X109106786Y-52736392D02*
X109067924Y-52454157D01*
X110343524Y-51713923D02*
G75*
G02*
X110302166Y-51754822I-120302J80291D01*
G01*
X110240910Y-51630598D02*
G75*
G02*
X110253256Y-51539319I525852J-24652D01*
G01*
X92698917Y-52682307D02*
G75*
G02*
X92661569Y-52713775I-37349J6431D01*
G01*
X108932420Y-52633262D02*
G75*
G02*
X108785082Y-52386483I1247435J912145D01*
G01*
X92725174Y-52320697D02*
X92713529Y-52076275D01*
X92661568Y-52713776D02*
G75*
G02*
X92567888Y-52631417I1J94459D01*
G01*
X97873239Y-62342886D02*
X97971339Y-62539068D01*
X96505001Y-52272733D02*
G75*
G02*
X98015508Y-51914961I3892382J-13065999D01*
G01*
X98969810Y-61400842D02*
X98704678Y-61464350D01*
X98336408Y-63266875D02*
G75*
G02*
X98323063Y-63320713I-51333J-15849D01*
G01*
X98088644Y-62743192D02*
X98201198Y-62941790D01*
X97971339Y-62539068D02*
X98088644Y-62743192D01*
X97787191Y-62088776D02*
G75*
G02*
X97813555Y-62077389I15919J-644D01*
G01*
X98500779Y-63063775D02*
G75*
G02*
X98441681Y-63036362I0J77410D01*
G01*
X98860030Y-59445913D02*
X99192581Y-59756151D01*
X98212239Y-62716780D02*
X98090213Y-62501275D01*
X101214608Y-51687544D02*
G75*
G02*
X102812420Y-51824300I-494449J-15179459D01*
G01*
X98572742Y-59190919D02*
X98860030Y-59445913D01*
X98844014Y-62793192D02*
X98572704Y-63036599D01*
X99509696Y-62142640D02*
X99158360Y-62495651D01*
X100517532Y-61084715D02*
X99636266Y-61258746D01*
X99193037Y-61474699D02*
X99838763Y-61385373D01*
X98441482Y-59191139D02*
G75*
G02*
X98500417Y-59163775I58935J-49783D01*
G01*
X98605001Y-61498094D02*
G75*
G02*
X98704678Y-61464350I249589J-573184D01*
G01*
X98500417Y-59163775D02*
G75*
G02*
X98572742Y-59190919I0J-109926D01*
G01*
X97975620Y-59932148D02*
X98090213Y-59726275D01*
X98093172Y-59476914D02*
X97974131Y-59683889D01*
X97974131Y-59683889D02*
X97874569Y-59882479D01*
X98212213Y-59510771D02*
X98333204Y-59329010D01*
X99287805Y-61330166D02*
X98969810Y-61400842D01*
X98333311Y-62898541D02*
X98212239Y-62716780D01*
X97801708Y-62175018D02*
X97873239Y-62342886D01*
X97813555Y-60150161D02*
G75*
G02*
X97787191Y-60138775I-10445J12030D01*
G01*
X97801708Y-62175017D02*
G75*
G02*
X97787191Y-62088775I197867J77649D01*
G01*
X98572703Y-63036598D02*
G75*
G02*
X98500779Y-63063775I-71924J81587D01*
G01*
X98333204Y-59329010D02*
X98441483Y-59191139D01*
X100190050Y-61340102D02*
G75*
G02*
X100070529Y-61516784I-1376807J802603D01*
G01*
X97813555Y-62077388D02*
G75*
G02*
X97878707Y-62148072I-284154J-327285D01*
G01*
X99158360Y-62495651D02*
X98844014Y-62793192D01*
X100070529Y-61516784D02*
X99836849Y-61794466D01*
X98015507Y-51914961D02*
G75*
G02*
X99600462Y-51718550I2667919J-15035852D01*
G01*
X99600462Y-51718549D02*
G75*
G02*
X101214608Y-51687543I1106267J-15560022D01*
G01*
X98614989Y-61537013D02*
G75*
G02*
X98605001Y-61498093I-1864J20263D01*
G01*
X99565599Y-60124245D02*
X100517532Y-61084715D01*
X97975620Y-59932148D02*
G75*
G02*
X97878707Y-60079479I-1470990J862066D01*
G01*
X98090213Y-59726275D02*
X98212213Y-59510771D01*
X97878707Y-62148072D02*
G75*
G02*
X97975620Y-62295403I-1374077J-1009397D01*
G01*
X98090213Y-62501275D02*
X97975620Y-62295403D01*
X98614989Y-61537014D02*
X99193037Y-61474699D01*
X99836849Y-61794466D02*
X99509696Y-62142640D01*
X98239907Y-61626738D02*
G75*
G02*
X98145877Y-61679746I-198143J241577D01*
G01*
X97821221Y-62952729D02*
G75*
G02*
X97619406Y-62557770I3971800J2278538D01*
G01*
X97897525Y-61762803D02*
X98145877Y-61679746D01*
X98441681Y-63036362D02*
X98333311Y-62898541D01*
X97878706Y-60079478D02*
G75*
G02*
X97813555Y-60150162I-349305J256600D01*
G01*
X97340049Y-61938775D02*
X97897525Y-61762803D01*
X97619406Y-62557770D02*
X97340049Y-61938775D01*
X98017891Y-63220822D02*
G75*
G02*
X97821220Y-62952729I1092655J1007751D01*
G01*
X98284358Y-63120911D02*
X98336407Y-63266874D01*
X98201198Y-62941790D02*
G75*
G02*
X98284358Y-63120911I-1782261J-936308D01*
G01*
X100161677Y-61305574D02*
G75*
G02*
X100190049Y-61340101I7783J-22525D01*
G01*
X100161678Y-61305574D02*
G75*
G02*
X99838763Y-61385373I-601650J1741378D01*
G01*
X99192581Y-59756151D02*
X99565599Y-60124245D01*
X94461440Y-53043948D02*
X95488066Y-52616298D01*
X99636266Y-61258746D02*
X99287805Y-61330166D01*
X97787191Y-60138775D02*
G75*
G02*
X97801852Y-60052274I211923J8574D01*
G01*
X95488066Y-52616298D02*
X96505001Y-52272733D01*
X97874569Y-59882479D02*
X97801852Y-60052274D01*
X98189750Y-63344972D02*
G75*
G02*
X98017891Y-63220821I219983J485544D01*
G01*
X98323063Y-63320712D02*
G75*
G02*
X98189751Y-63344972I-84182J84181D01*
G01*
X101155001Y-51585059D02*
X100300631Y-51573039D01*
X103837381Y-51828412D02*
X103105488Y-51706311D01*
X102272488Y-51631043D02*
X101155001Y-51585059D01*
X115649202Y-69438776D02*
G75*
G02*
X114243354Y-73488857I-16473659J3449235D01*
G01*
X94105001Y-80319929D02*
X95788104Y-81053799D01*
X93473852Y-53785246D02*
G75*
G02*
X93429006Y-53673481I114456J110806D01*
G01*
X92843777Y-79642200D02*
G75*
G02*
X91726047Y-78903537I6830255J11550390D01*
G01*
X104497119Y-52159109D02*
X104960774Y-52286169D01*
X103326632Y-51907604D02*
X103919577Y-52026190D01*
X99470043Y-51582846D02*
X98759522Y-51609881D01*
X103898828Y-81542280D02*
X104755001Y-81311720D01*
X104621132Y-52018587D02*
G75*
G02*
X108544257Y-53698888I-4235179J-15308151D01*
G01*
X100300631Y-51573039D02*
X99470043Y-51582846D01*
X97183310Y-81468766D02*
G75*
G02*
X95788104Y-81053799I1854917J8789583D01*
G01*
X104621132Y-52018588D02*
X103837381Y-51828412D01*
X111807151Y-56341740D02*
G75*
G02*
X114218553Y-59805664I-11040000J-10256774D01*
G01*
X102812420Y-51824300D02*
X103326632Y-51907604D01*
X97061609Y-57405044D02*
X95668675Y-56025939D01*
X91726047Y-78903537D02*
G75*
G02*
X90686942Y-78056665I7957793J10825075D01*
G01*
X105849632Y-52591106D02*
X106880675Y-53013122D01*
X104337604Y-57331192D02*
X100695208Y-60971313D01*
X107954338Y-53662735D02*
X106910047Y-54733496D01*
X111891539Y-76910888D02*
G75*
G02*
X108680381Y-79551838I-10969577J10065305D01*
G01*
X107890787Y-53461339D02*
G75*
G02*
X107980001Y-53599629I-62574J-138290D01*
G01*
X108544257Y-53698889D02*
G75*
G02*
X111807151Y-56341740I-7653744J-12785025D01*
G01*
X103105488Y-51706311D02*
X102272488Y-51631043D01*
X100780001Y-81728598D02*
X102355224Y-81711897D01*
X115649201Y-63888776D02*
G75*
G02*
X115790511Y-64990456I-6902812J-1445307D01*
G01*
X115831301Y-66663775D02*
X115790511Y-64990456D01*
X115790512Y-68337095D02*
G75*
G02*
X115649202Y-69438775I-7044123J343627D01*
G01*
X103898828Y-81542279D02*
G75*
G02*
X103208094Y-81659369I-1267187J5379457D01*
G01*
X114243354Y-73488857D02*
G75*
G02*
X111891539Y-76910889I-13290026J6614495D01*
G01*
X98695957Y-81671046D02*
X100780001Y-81728598D01*
X93429005Y-53673482D02*
G75*
G02*
X93551511Y-53477110I220770J-1328D01*
G01*
X95668675Y-56025939D02*
X94495673Y-54837812D01*
X100695208Y-60971313D02*
X97061609Y-57405044D01*
X105734115Y-55928972D02*
X104337604Y-57331192D01*
X106910047Y-54733496D02*
X105734115Y-55928972D01*
X98367909Y-51655562D02*
G75*
G02*
X98759522Y-51609881I544824J-2969225D01*
G01*
X114218553Y-59805664D02*
G75*
G02*
X115649202Y-63888775I-14825661J-7486840D01*
G01*
X102355224Y-81711897D02*
X103208094Y-81659369D01*
X106880675Y-53013122D02*
X107890787Y-53461339D01*
X98695957Y-81671045D02*
G75*
G02*
X97183310Y-81468766I588798J10159974D01*
G01*
X104960774Y-52286169D02*
X105849632Y-52591106D01*
X115790511Y-68337095D02*
X115831301Y-66663775D01*
X108680382Y-79551839D02*
G75*
G02*
X104755001Y-81311720I-8870108J14526918D01*
G01*
X93551511Y-53477110D02*
X94461440Y-53043948D01*
X92843777Y-79642200D02*
X94105001Y-80319929D01*
X107980000Y-53599629D02*
G75*
G02*
X107954338Y-53662735I-90422J0D01*
G01*
X94495673Y-54837812D02*
X93473852Y-53785246D01*
X103919577Y-52026190D02*
X104497119Y-52159109D01*
X89661977Y-77053749D02*
X90686942Y-78056665D01*
X98126125Y-61575304D02*
G75*
G02*
X98232795Y-61592256I-15473J-441438D01*
G01*
X98232795Y-61592256D02*
G75*
G02*
X98239906Y-61626737I-5498J-19108D01*
G01*
X111740215Y-66290786D02*
X111680483Y-66054869D01*
X110279431Y-61013615D02*
G75*
G02*
X110380055Y-61244474I-1104091J-618597D01*
G01*
X111931229Y-67199056D02*
G75*
G02*
X111952307Y-67227922I-34908J-47618D01*
G01*
X111559802Y-65688776D02*
G75*
G02*
X111616832Y-65840102I-1422879J-622650D01*
G01*
X112440672Y-69121163D02*
G75*
G02*
X112428772Y-69128495I-7440J-1248D01*
G01*
X111506346Y-65584536D02*
G75*
G02*
X111559802Y-65688775I-821684J-487200D01*
G01*
X111483354Y-65675768D02*
G75*
G02*
X111483458Y-65588893I273009J43112D01*
G01*
X112090503Y-67642001D02*
X111952307Y-67227922D01*
X111826647Y-66751783D02*
X111786280Y-66513775D01*
X111483354Y-65675768D02*
X111523721Y-65913775D01*
X111483457Y-65588894D02*
G75*
G02*
X111506346Y-65584536I12233J-1961D01*
G01*
X112258470Y-68221300D02*
X112173862Y-67910982D01*
X111786280Y-66513775D02*
X111740215Y-66290786D01*
X111826544Y-66838657D02*
G75*
G02*
X111803655Y-66843015I-12233J1961D01*
G01*
X111919328Y-67206388D02*
X111979395Y-67560550D01*
X112332056Y-68524016D02*
X112258470Y-68221300D01*
X112027945Y-67803535D02*
X112101531Y-68106251D01*
X111826647Y-66751783D02*
G75*
G02*
X111826543Y-66838658I-273009J-43112D01*
G01*
X112380606Y-68767001D02*
X112332056Y-68524016D01*
X111680483Y-66054869D02*
X111616832Y-65840102D01*
X111750199Y-66738775D02*
G75*
G02*
X111693169Y-66587449I1422879J622650D01*
G01*
X111629519Y-66372682D02*
X111693169Y-66587449D01*
X110230000Y-61026519D02*
G75*
G02*
X110279431Y-61013615I26400J0D01*
G01*
X111523721Y-65913775D02*
X111569786Y-66136765D01*
X112101531Y-68106251D02*
X112186139Y-68416569D01*
X111919329Y-67206388D02*
G75*
G02*
X111931229Y-67199056I7440J1248D01*
G01*
X112269498Y-68685550D02*
X112407694Y-69099628D01*
X112428771Y-69128495D02*
G75*
G02*
X112407694Y-69099628I34909J47618D01*
G01*
X111803655Y-66843014D02*
G75*
G02*
X111750200Y-66738775I821684J487199D01*
G01*
X112186139Y-68416569D02*
X112269498Y-68685550D01*
X111979395Y-67560550D02*
X112027945Y-67803535D01*
X112173862Y-67910982D02*
X112090503Y-67642001D01*
X111569786Y-66136765D02*
X111629519Y-66372682D01*
X112440673Y-69121163D02*
X112380606Y-68767001D01*
X110942500Y-59113117D02*
G75*
G02*
X110911093Y-59085025I23233J57577D01*
G01*
X110755001Y-59208725D02*
X110283658Y-59186250D01*
X110005875Y-60229491D02*
X110117330Y-60523936D01*
X110122292Y-60263838D02*
G75*
G02*
X110153248Y-60516103I-1307109J-288430D01*
G01*
X109917082Y-59972198D02*
X110005875Y-60229491D01*
X111390703Y-65253071D02*
G75*
G02*
X111334315Y-65238193I-23861J23860D01*
G01*
X109841871Y-59021886D02*
G75*
G02*
X109727343Y-58774399I693468J471154D01*
G01*
X110000674Y-59138096D02*
G75*
G02*
X109841871Y-59021887I83674J280952D01*
G01*
X109960690Y-59501150D02*
G75*
G02*
X109995030Y-59389887I161073J11217D01*
G01*
X107686868Y-59837391D02*
X108446614Y-59689830D01*
X105167500Y-60313118D02*
G75*
G02*
X105081999Y-60336568I-143513J355664D01*
G01*
X110574127Y-61896678D02*
X110380055Y-61244474D01*
X110902212Y-63115104D02*
X110574127Y-61896678D01*
X111108677Y-63915554D02*
X110902212Y-63115104D01*
X111272636Y-64599618D02*
X111108677Y-63915554D01*
X111407279Y-65196072D02*
X111272636Y-64599618D01*
X111407279Y-65196072D02*
G75*
G02*
X111390704Y-65253073I-60161J-13416D01*
G01*
X110789256Y-63258807D02*
X111334315Y-65238193D01*
X110276069Y-61373968D02*
G75*
G02*
X110230001Y-61026519I1287209J347448D01*
G01*
X109661410Y-59485670D02*
G75*
G02*
X109721455Y-59505230I10792J-68813D01*
G01*
X104792500Y-60313117D02*
G75*
G02*
X104761093Y-60285025I23233J57577D01*
G01*
X105189766Y-60259684D02*
G75*
G02*
X105198908Y-60285025I-6762J-16759D01*
G01*
X110283658Y-59186251D02*
G75*
G02*
X110000674Y-59138096I56676J1188630D01*
G01*
X109995030Y-59389886D02*
G75*
G02*
X110099460Y-59320820I157050J-123980D01*
G01*
X105113717Y-60242139D02*
X104980001Y-60237460D01*
X111263717Y-59042139D02*
X111130001Y-59037460D01*
X110099460Y-59320820D02*
G75*
G02*
X110329065Y-59272510I525599J-1928244D01*
G01*
X111339766Y-59059684D02*
G75*
G02*
X111348908Y-59085025I-6762J-16759D01*
G01*
X109721455Y-59505230D02*
G75*
G02*
X109755702Y-59556424I-111921J-111922D01*
G01*
X109223121Y-57130537D02*
G75*
G02*
X109282637Y-57165486I7155J-55966D01*
G01*
X111348909Y-59085026D02*
G75*
G02*
X111317501Y-59113118I-54641J29486D01*
G01*
X106249989Y-60102588D02*
X106920779Y-59985811D01*
X110153249Y-60516104D02*
G75*
G02*
X110117330Y-60523936I-18703J-505D01*
G01*
X109282637Y-57165486D02*
G75*
G02*
X109399351Y-57512860I-2955589J-1186342D01*
G01*
X104770235Y-60259685D02*
G75*
G02*
X104846285Y-60242139I93519J-231763D01*
G01*
X104761093Y-60285025D02*
G75*
G02*
X104770235Y-60259684I15904J8582D01*
G01*
X105082000Y-60336567D02*
G75*
G02*
X104980001Y-60344326I-101999J666567D01*
G01*
X109180000Y-57179522D02*
G75*
G02*
X109223121Y-57130537I49384J0D01*
G01*
X109991565Y-59700035D02*
G75*
G02*
X109960690Y-59501149I1158772J281729D01*
G01*
X104878002Y-60336568D02*
G75*
G02*
X104792501Y-60313118I58012J379114D01*
G01*
X110329065Y-59272510D02*
X110755001Y-59208725D01*
X105677842Y-60192504D02*
G75*
G02*
X105561204Y-60182510I-37566J247211D01*
G01*
X111263716Y-59042138D02*
G75*
G02*
X111339766Y-59059684I-17469J-249310D01*
G01*
X111130001Y-59144327D02*
G75*
G02*
X111028002Y-59136568I-1J674327D01*
G01*
X109555001Y-58113775D02*
X109399351Y-57512860D01*
X110276069Y-61373968D02*
X110789256Y-63258807D01*
X109831807Y-59744785D02*
X109917082Y-59972198D01*
X109096993Y-59576000D02*
X109661411Y-59485670D01*
X111028002Y-59136568D02*
G75*
G02*
X110942501Y-59113118I58012J379114D01*
G01*
X104980001Y-60237460D02*
X104846285Y-60242139D01*
X105113716Y-60242138D02*
G75*
G02*
X105189766Y-60259684I-17469J-249310D01*
G01*
X109727343Y-58774399D02*
X109555001Y-58113775D01*
X106920779Y-59985811D02*
X107686868Y-59837391D01*
X111130001Y-59037460D02*
X110996285Y-59042139D01*
X105198909Y-60285026D02*
G75*
G02*
X105167501Y-60313118I-54641J29486D01*
G01*
X109755702Y-59556424D02*
X109831807Y-59744785D01*
X110911093Y-59085025D02*
G75*
G02*
X110920235Y-59059684I15904J8582D01*
G01*
X110920235Y-59059685D02*
G75*
G02*
X110996285Y-59042139I93519J-231763D01*
G01*
X108446614Y-59689830D02*
X109096993Y-59576000D01*
X111317500Y-59113118D02*
G75*
G02*
X111231999Y-59136568I-143513J355664D01*
G01*
X111232000Y-59136567D02*
G75*
G02*
X111130001Y-59144326I-101999J666567D01*
G01*
X110122293Y-60263839D02*
X109991565Y-59700035D01*
X105677841Y-60192504D02*
X106249989Y-60102588D01*
X104980001Y-60344327D02*
G75*
G02*
X104878002Y-60336568I-1J674327D01*
G01*
D11*
X189180392Y-51435247D02*
G75*
G03*
X189180392Y-51435247I-3000000J0D01*
G01*
X186585211Y-45218647D02*
X190545507Y-44157488D01*
X193599572Y-55555413D02*
X189639276Y-56616571D01*
X185775573Y-57651847D02*
X181815277Y-58713006D01*
X182721508Y-46253923D02*
X178761212Y-47315081D01*
X178761212Y-47315081D02*
X181815277Y-58713006D01*
X177952436Y-49705872D02*
X177585012Y-49493740D01*
X177585012Y-49493740D02*
X178164568Y-49338448D01*
X178164568Y-49338448D02*
X177952436Y-49705872D01*
X190545507Y-44157488D02*
X191166673Y-46475710D01*
X191736075Y-48600747D02*
X192409004Y-51112154D01*
X192978406Y-53237191D02*
X193599572Y-55555413D01*
X186050982Y-50952284D02*
X186309802Y-51918210D01*
X185697429Y-51564657D02*
X186663355Y-51305837D01*
X18051204Y-51435247D02*
G75*
G03*
X18051204Y-51435247I-3000000J0D01*
G01*
X11592320Y-56616571D02*
X7632024Y-55555413D01*
X10686089Y-44157488D02*
X14646385Y-45218647D01*
X18510088Y-46253923D02*
X22470384Y-47315081D01*
X15456023Y-57651847D02*
X19416319Y-58713006D01*
X19416319Y-58713006D02*
X22470384Y-47315081D01*
X21312135Y-57046908D02*
X21524267Y-57414331D01*
X21524267Y-57414331D02*
X20944712Y-57259040D01*
X20944712Y-57259040D02*
X21312135Y-57046908D01*
X7632024Y-55555413D02*
X8253190Y-53237191D01*
X8822592Y-51112154D02*
X9495521Y-48600747D01*
X10064923Y-46475710D02*
X10686089Y-44157488D01*
X14921794Y-51918210D02*
X15180614Y-50952284D01*
X15534167Y-51564657D02*
X14568241Y-51305837D01*
D12*
X84612500Y21755000D02*
X84612500Y21505000D01*
X78912500Y21755000D02*
X84612500Y21755000D01*
X78912500Y21755000D02*
X78912500Y21505000D01*
X78912500Y18555000D02*
X78912500Y18805000D01*
X84612500Y18555000D02*
X84612500Y18805000D01*
X78912500Y18555000D02*
X84612500Y18555000D01*
D11*
X96950000Y-19481250D02*
X104250000Y-19481250D01*
X96950000Y-24981250D02*
X104250000Y-24981250D01*
X104250000Y-24981250D02*
X104250000Y-23831250D01*
X89381250Y-48793750D02*
X89381250Y-47643750D01*
X82081250Y-48793750D02*
X89381250Y-48793750D01*
X82081250Y-43293750D02*
X89381250Y-43293750D01*
X111450000Y-43293750D02*
X118750000Y-43293750D01*
X111450000Y-48793750D02*
X118750000Y-48793750D01*
X118750000Y-48793750D02*
X118750000Y-47643750D01*
D12*
X117337619Y19512381D02*
X117337619Y19321905D01*
X117290000Y19226667D01*
X117194761Y19131429D01*
X117004285Y19083810D01*
X116670952Y19083810D01*
X116480476Y19131429D01*
X116385238Y19226667D01*
X116337619Y19321905D01*
X116337619Y19512381D01*
X116385238Y19607620D01*
X116480476Y19702858D01*
X116670952Y19750477D01*
X117004285Y19750477D01*
X117194761Y19702858D01*
X117290000Y19607620D01*
X117337619Y19512381D01*
X116337619Y18179048D02*
X116337619Y18655239D01*
X117337619Y18655239D01*
X116861428Y17845715D02*
X116861428Y17512381D01*
X116337619Y17369524D02*
X116337619Y17845715D01*
X117337619Y17845715D01*
X117337619Y17369524D01*
X116337619Y16940953D02*
X117337619Y16940953D01*
X117337619Y16702858D01*
X117290000Y16560000D01*
X117194761Y16464762D01*
X117099523Y16417143D01*
X116909047Y16369524D01*
X116766190Y16369524D01*
X116575714Y16417143D01*
X116480476Y16464762D01*
X116385238Y16560000D01*
X116337619Y16702858D01*
X116337619Y16940953D01*
X80310119Y19702620D02*
X79976785Y20178810D01*
X79738690Y19702620D02*
X79738690Y20702620D01*
X80119642Y20702620D01*
X80214880Y20655000D01*
X80262500Y20607381D01*
X80310119Y20512143D01*
X80310119Y20369286D01*
X80262500Y20274048D01*
X80214880Y20226429D01*
X80119642Y20178810D01*
X79738690Y20178810D01*
X80738690Y20226429D02*
X81072023Y20226429D01*
X81214880Y19702620D02*
X80738690Y19702620D01*
X80738690Y20702620D01*
X81214880Y20702620D01*
X81595833Y19750239D02*
X81738690Y19702620D01*
X81976785Y19702620D01*
X82072023Y19750239D01*
X82119642Y19797858D01*
X82167261Y19893096D01*
X82167261Y19988334D01*
X82119642Y20083572D01*
X82072023Y20131191D01*
X81976785Y20178810D01*
X81786309Y20226429D01*
X81691071Y20274048D01*
X81643452Y20321667D01*
X81595833Y20416905D01*
X81595833Y20512143D01*
X81643452Y20607381D01*
X81691071Y20655000D01*
X81786309Y20702620D01*
X82024404Y20702620D01*
X82167261Y20655000D01*
X82595833Y20226429D02*
X82929166Y20226429D01*
X83072023Y19702620D02*
X82595833Y19702620D01*
X82595833Y20702620D01*
X83072023Y20702620D01*
X83357738Y20702620D02*
X83929166Y20702620D01*
X83643452Y19702620D02*
X83643452Y20702620D01*
X100433333Y-19183630D02*
X99957142Y-19183630D01*
X99957142Y-18183630D01*
X101290476Y-19183630D02*
X100719047Y-19183630D01*
X101004761Y-19183630D02*
X101004761Y-18183630D01*
X100909523Y-18326488D01*
X100814285Y-18421726D01*
X100719047Y-18469345D01*
X96735714Y-21083630D02*
X96164285Y-21083630D01*
X96450000Y-21083630D02*
X96450000Y-20083630D01*
X96354761Y-20226488D01*
X96259523Y-20321726D01*
X96164285Y-20369345D01*
X85569583Y-42959880D02*
X85093392Y-42959880D01*
X85093392Y-41959880D01*
X85855297Y-42055119D02*
X85902916Y-42007500D01*
X85998154Y-41959880D01*
X86236250Y-41959880D01*
X86331488Y-42007500D01*
X86379107Y-42055119D01*
X86426726Y-42150357D01*
X86426726Y-42245595D01*
X86379107Y-42388452D01*
X85807678Y-42959880D01*
X86426726Y-42959880D01*
X81866964Y-44896130D02*
X81295535Y-44896130D01*
X81581250Y-44896130D02*
X81581250Y-43896130D01*
X81486011Y-44038988D01*
X81390773Y-44134226D01*
X81295535Y-44181845D01*
X114933333Y-42996130D02*
X114457142Y-42996130D01*
X114457142Y-41996130D01*
X115171428Y-41996130D02*
X115790476Y-41996130D01*
X115457142Y-42377083D01*
X115600000Y-42377083D01*
X115695238Y-42424702D01*
X115742857Y-42472321D01*
X115790476Y-42567559D01*
X115790476Y-42805654D01*
X115742857Y-42900892D01*
X115695238Y-42948511D01*
X115600000Y-42996130D01*
X115314285Y-42996130D01*
X115219047Y-42948511D01*
X115171428Y-42900892D01*
X111235714Y-44896130D02*
X110664285Y-44896130D01*
X110950000Y-44896130D02*
X110950000Y-43896130D01*
X110854761Y-44038988D01*
X110759523Y-44134226D01*
X110664285Y-44181845D01*
M02*
