G04 #@! TF.GenerationSoftware,KiCad,Pcbnew,(5.1.9)-1*
G04 #@! TF.CreationDate,2021-04-22T14:04:21-07:00*
G04 #@! TF.ProjectId,euclid36,6575636c-6964-4333-962e-6b696361645f,1.2*
G04 #@! TF.SameCoordinates,PX2faf080PY2faf080*
G04 #@! TF.FileFunction,Legend,Bot*
G04 #@! TF.FilePolarity,Positive*
%FSLAX46Y46*%
G04 Gerber Fmt 4.6, Leading zero omitted, Abs format (unit mm)*
G04 Created by KiCad (PCBNEW (5.1.9)-1) date 2021-04-22 14:04:21*
%MOMM*%
%LPD*%
G01*
G04 APERTURE LIST*
%ADD10C,0.120000*%
%ADD11C,0.203200*%
%ADD12C,0.254000*%
%ADD13C,0.150000*%
%ADD14C,0.050000*%
G04 APERTURE END LIST*
D10*
X198168269Y-50094514D02*
X196236417Y-50612152D01*
X196236417Y-50612152D02*
X195227023Y-46845041D01*
X198168269Y-50094514D02*
X197158874Y-46327403D01*
X102940000Y4070000D02*
X102940000Y770000D01*
X102940000Y770000D02*
X98940000Y770000D01*
D11*
X96620000Y-13610000D02*
X106220000Y-13610000D01*
X106220000Y-13610000D02*
X106220000Y-4010000D01*
X106220000Y-4010000D02*
X96620000Y-4010000D01*
X96620000Y-4010000D02*
X96620000Y-13610000D01*
D12*
X97702700Y-12810000D02*
G75*
G03*
X97702700Y-12810000I-282700J0D01*
G01*
D10*
X109690000Y14830000D02*
X109690000Y13030000D01*
X106470000Y13030000D02*
X106470000Y15480000D01*
X101875000Y13712936D02*
X101875000Y14167064D01*
X100405000Y13712936D02*
X100405000Y14167064D01*
X104785000Y13702936D02*
X104785000Y14157064D01*
X103315000Y13702936D02*
X103315000Y14157064D01*
X99295000Y13712936D02*
X99295000Y14167064D01*
X97825000Y13712936D02*
X97825000Y14167064D01*
X110415000Y9072936D02*
X110415000Y9527064D01*
X108945000Y9072936D02*
X108945000Y9527064D01*
X107175000Y9092936D02*
X107175000Y9547064D01*
X105705000Y9092936D02*
X105705000Y9547064D01*
X108092936Y20255000D02*
X108547064Y20255000D01*
X108092936Y21725000D02*
X108547064Y21725000D01*
X91755000Y2337064D02*
X91755000Y1882936D01*
X93225000Y2337064D02*
X93225000Y1882936D01*
X112495000Y-14207064D02*
X112495000Y-13752936D01*
X111025000Y-14207064D02*
X111025000Y-13752936D01*
X5303583Y-51042152D02*
X3371731Y-50524514D01*
X3371731Y-50524514D02*
X4381126Y-46757403D01*
X5303583Y-51042152D02*
X6312977Y-47275041D01*
X95541252Y15715000D02*
X95018748Y15715000D01*
X95541252Y14245000D02*
X95018748Y14245000D01*
X96305000Y2741252D02*
X96305000Y2218748D01*
X97775000Y2741252D02*
X97775000Y2218748D01*
X105715000Y2328748D02*
X105715000Y2851252D01*
X104245000Y2328748D02*
X104245000Y2851252D01*
X94101252Y22405000D02*
X93578748Y22405000D01*
X94101252Y20935000D02*
X93578748Y20935000D01*
X96288748Y-18615000D02*
X96811252Y-18615000D01*
X96288748Y-17145000D02*
X96811252Y-17145000D01*
X111295000Y-2921252D02*
X111295000Y-2398748D01*
X109825000Y-2921252D02*
X109825000Y-2398748D01*
X107331252Y-17155000D02*
X106808748Y-17155000D01*
X107331252Y-18625000D02*
X106808748Y-18625000D01*
X93125000Y-16031252D02*
X93125000Y-15508748D01*
X91655000Y-16031252D02*
X91655000Y-15508748D01*
X90515000Y-9398748D02*
X90515000Y-9921252D01*
X91985000Y-9398748D02*
X91985000Y-9921252D01*
X133240000Y9090000D02*
X140540000Y9090000D01*
X133240000Y14590000D02*
X140540000Y14590000D01*
X140540000Y14590000D02*
X140540000Y13440000D01*
X183390000Y3920000D02*
X190690000Y3920000D01*
X183390000Y9420000D02*
X190690000Y9420000D01*
X190690000Y9420000D02*
X190690000Y8270000D01*
X8654754Y1443666D02*
X6722902Y1961304D01*
X6722902Y1961304D02*
X7732297Y5728415D01*
X8654754Y1443666D02*
X9664148Y5210777D01*
X29685240Y6326970D02*
X30694634Y10094081D01*
X27753388Y6844608D02*
X28762783Y10611719D01*
X29685240Y6326970D02*
X27753388Y6844608D01*
X49400927Y6303371D02*
X47469075Y6821009D01*
X47469075Y6821009D02*
X48478470Y10588120D01*
X49400927Y6303371D02*
X50410321Y10070482D01*
X66487012Y-3534034D02*
X67496406Y233077D01*
X64555160Y-3016396D02*
X65564555Y750715D01*
X66487012Y-3534034D02*
X64555160Y-3016396D01*
X84230498Y-10917988D02*
X82298646Y-10400350D01*
X82298646Y-10400350D02*
X83308041Y-6633239D01*
X84230498Y-10917988D02*
X85239892Y-7150877D01*
X3724252Y-16957220D02*
X4733646Y-13190109D01*
X1792400Y-16439582D02*
X2801795Y-12672471D01*
X3724252Y-16957220D02*
X1792400Y-16439582D01*
X24754738Y-12073916D02*
X22822886Y-11556278D01*
X22822886Y-11556278D02*
X23832281Y-7789167D01*
X24754738Y-12073916D02*
X25764132Y-8306805D01*
X44470425Y-12097515D02*
X45479819Y-8330404D01*
X42538573Y-11579877D02*
X43547968Y-7812766D01*
X44470425Y-12097515D02*
X42538573Y-11579877D01*
X61556510Y-21934920D02*
X59624658Y-21417282D01*
X59624658Y-21417282D02*
X60634053Y-17650171D01*
X61556510Y-21934920D02*
X62565904Y-18167809D01*
X79299996Y-29318874D02*
X80309390Y-25551763D01*
X77368144Y-28801236D02*
X78377539Y-25034125D01*
X79299996Y-29318874D02*
X77368144Y-28801236D01*
X-1206250Y-35358106D02*
X-3138102Y-34840468D01*
X-3138102Y-34840468D02*
X-2128707Y-31073357D01*
X-1206250Y-35358106D02*
X-196856Y-31590995D01*
X19824236Y-30474802D02*
X20833630Y-26707691D01*
X17892384Y-29957164D02*
X18901779Y-26190053D01*
X19824236Y-30474802D02*
X17892384Y-29957164D01*
X39539923Y-30498401D02*
X37608071Y-29980763D01*
X37608071Y-29980763D02*
X38617466Y-26213652D01*
X39539923Y-30498401D02*
X40549317Y-26731290D01*
X56626008Y-40335806D02*
X57635402Y-36568695D01*
X54694156Y-39818168D02*
X55703551Y-36051057D01*
X56626008Y-40335806D02*
X54694156Y-39818168D01*
X74369494Y-47719760D02*
X72437642Y-47202122D01*
X72437642Y-47202122D02*
X73447037Y-43435011D01*
X74369494Y-47719760D02*
X75378888Y-43952649D01*
X134880384Y-6127248D02*
X132948532Y-6644886D01*
X132948532Y-6644886D02*
X131939138Y-2877775D01*
X134880384Y-6127248D02*
X133870989Y-2360137D01*
X152623870Y1256706D02*
X151614475Y5023817D01*
X150692018Y739068D02*
X149682624Y4506179D01*
X152623870Y1256706D02*
X150692018Y739068D01*
X169709955Y11094111D02*
X167778103Y10576473D01*
X167778103Y10576473D02*
X166768709Y14343584D01*
X169709955Y11094111D02*
X168700560Y14861222D01*
X189425642Y11117710D02*
X188416247Y14884821D01*
X187493790Y10600072D02*
X186484396Y14367183D01*
X189425642Y11117710D02*
X187493790Y10600072D01*
X210456128Y6234407D02*
X209446733Y10001518D01*
X208524276Y5716769D02*
X207514882Y9483880D01*
X210456128Y6234407D02*
X208524276Y5716769D01*
X139810886Y-24528134D02*
X138801491Y-20761023D01*
X137879034Y-25045772D02*
X136869640Y-21278661D01*
X139810886Y-24528134D02*
X137879034Y-25045772D01*
X157554372Y-17144180D02*
X155622520Y-17661818D01*
X155622520Y-17661818D02*
X154613126Y-13894707D01*
X157554372Y-17144180D02*
X156544977Y-13377069D01*
X174640457Y-7306775D02*
X173631062Y-3539664D01*
X172708605Y-7824413D02*
X171699211Y-4057302D01*
X174640457Y-7306775D02*
X172708605Y-7824413D01*
X194356144Y-7283176D02*
X192424292Y-7800814D01*
X192424292Y-7800814D02*
X191414898Y-4033703D01*
X194356144Y-7283176D02*
X193346749Y-3516065D01*
X215386630Y-12166479D02*
X213454778Y-12684117D01*
X213454778Y-12684117D02*
X212445384Y-8917006D01*
X215386630Y-12166479D02*
X214377235Y-8399368D01*
X144741388Y-42929020D02*
X142809536Y-43446658D01*
X142809536Y-43446658D02*
X141800142Y-39679547D01*
X144741388Y-42929020D02*
X143731993Y-39161909D01*
X162484874Y-35545066D02*
X161475479Y-31777955D01*
X160553022Y-36062704D02*
X159543628Y-32295593D01*
X162484874Y-35545066D02*
X160553022Y-36062704D01*
X179570959Y-25707661D02*
X177639107Y-26225299D01*
X177639107Y-26225299D02*
X176629713Y-22458188D01*
X179570959Y-25707661D02*
X178561564Y-21940550D01*
X199286646Y-25684062D02*
X198277251Y-21916951D01*
X197354794Y-26201700D02*
X196345400Y-22434589D01*
X199286646Y-25684062D02*
X197354794Y-26201700D01*
X220317132Y-30567365D02*
X219307737Y-26800254D01*
X218385280Y-31085003D02*
X217375886Y-27317892D01*
X220317132Y-30567365D02*
X218385280Y-31085003D01*
X48408504Y-71003950D02*
X46476652Y-70486312D01*
X46476652Y-70486312D02*
X47486047Y-66719201D01*
X48408504Y-71003950D02*
X49417898Y-67236839D01*
X67935852Y-80369227D02*
X66123236Y-79523990D01*
X66123236Y-79523990D02*
X67771447Y-75989390D01*
X67935852Y-80369227D02*
X69584063Y-76834626D01*
X85487058Y-92365244D02*
X87724006Y-89170551D01*
X83848754Y-91218091D02*
X86085702Y-88023398D01*
X85487058Y-92365244D02*
X83848754Y-91218091D01*
X150071500Y-72546564D02*
X148423289Y-69011964D01*
X148258884Y-73391801D02*
X146610673Y-69857200D01*
X150071500Y-72546564D02*
X148258884Y-73391801D01*
X170702378Y-66213210D02*
X168770526Y-66730848D01*
X168770526Y-66730848D02*
X167761132Y-62963737D01*
X170702378Y-66213210D02*
X169692983Y-62446099D01*
X130907042Y-81748345D02*
X128670094Y-78553652D01*
X129268738Y-82895498D02*
X127031790Y-79700805D01*
X130907042Y-81748345D02*
X129268738Y-82895498D01*
X54160000Y10880000D02*
X61460000Y10880000D01*
X54160000Y16380000D02*
X61460000Y16380000D01*
X61460000Y16380000D02*
X61460000Y15230000D01*
X17640000Y8640000D02*
X17640000Y7490000D01*
X10340000Y8640000D02*
X17640000Y8640000D01*
X10340000Y3140000D02*
X17640000Y3140000D01*
X980000Y-17480000D02*
X980000Y-18630000D01*
X-6320000Y-17480000D02*
X980000Y-17480000D01*
X-6320000Y-22980000D02*
X980000Y-22980000D01*
X29370000Y-58800000D02*
X29370000Y-59950000D01*
X22070000Y-58800000D02*
X29370000Y-58800000D01*
X22070000Y-64300000D02*
X29370000Y-64300000D01*
X78740000Y-69950000D02*
X78740000Y-71100000D01*
X71440000Y-69950000D02*
X78740000Y-69950000D01*
X71440000Y-75450000D02*
X78740000Y-75450000D01*
X129560000Y-69200000D02*
X129560000Y-70350000D01*
X122260000Y-69200000D02*
X129560000Y-69200000D01*
X122260000Y-74700000D02*
X129560000Y-74700000D01*
X172300000Y-64190000D02*
X179600000Y-64190000D01*
X172300000Y-58690000D02*
X179600000Y-58690000D01*
X179600000Y-58690000D02*
X179600000Y-59840000D01*
X198660000Y-22780000D02*
X205960000Y-22780000D01*
X198660000Y-17280000D02*
X205960000Y-17280000D01*
X205960000Y-17280000D02*
X205960000Y-18430000D01*
D13*
X198305918Y-48492392D02*
X199271844Y-48233573D01*
X199210220Y-48003590D01*
X199127250Y-47877925D01*
X199010607Y-47810582D01*
X198906290Y-47789235D01*
X198709979Y-47792537D01*
X198571990Y-47829511D01*
X198400329Y-47924807D01*
X198320660Y-47995453D01*
X198253317Y-48112095D01*
X198244295Y-48262409D01*
X198305918Y-48492392D01*
X199037674Y-47359640D02*
X198865128Y-46715689D01*
X198010125Y-47388476D01*
X101416190Y4893810D02*
X101416190Y4417620D01*
X101749523Y5417620D02*
X101416190Y4893810D01*
X101082857Y5417620D01*
X100225714Y4417620D02*
X100797142Y4417620D01*
X100511428Y4417620D02*
X100511428Y5417620D01*
X100606666Y5274762D01*
X100701904Y5179524D01*
X100797142Y5131905D01*
X102050476Y17208096D02*
X102050476Y16560477D01*
X102012380Y16484286D01*
X101974285Y16446191D01*
X101898095Y16408096D01*
X101745714Y16408096D01*
X101669523Y16446191D01*
X101631428Y16484286D01*
X101593333Y16560477D01*
X101593333Y17208096D01*
X101250476Y16446191D02*
X101136190Y16408096D01*
X100945714Y16408096D01*
X100869523Y16446191D01*
X100831428Y16484286D01*
X100793333Y16560477D01*
X100793333Y16636667D01*
X100831428Y16712858D01*
X100869523Y16750953D01*
X100945714Y16789048D01*
X101098095Y16827143D01*
X101174285Y16865239D01*
X101212380Y16903334D01*
X101250476Y16979524D01*
X101250476Y17055715D01*
X101212380Y17131905D01*
X101174285Y17170000D01*
X101098095Y17208096D01*
X100907619Y17208096D01*
X100793333Y17170000D01*
X100183809Y16827143D02*
X100069523Y16789048D01*
X100031428Y16750953D01*
X99993333Y16674762D01*
X99993333Y16560477D01*
X100031428Y16484286D01*
X100069523Y16446191D01*
X100145714Y16408096D01*
X100450476Y16408096D01*
X100450476Y17208096D01*
X100183809Y17208096D01*
X100107619Y17170000D01*
X100069523Y17131905D01*
X100031428Y17055715D01*
X100031428Y16979524D01*
X100069523Y16903334D01*
X100107619Y16865239D01*
X100183809Y16827143D01*
X100450476Y16827143D01*
X99231428Y16408096D02*
X99688571Y16408096D01*
X99460000Y16408096D02*
X99460000Y17208096D01*
X99536190Y17093810D01*
X99612380Y17017620D01*
X99688571Y16979524D01*
D14*
X99012666Y-16057333D02*
X99012666Y-17190666D01*
X98946000Y-17324000D01*
X98879333Y-17390666D01*
X98746000Y-17457333D01*
X98479333Y-17457333D01*
X98346000Y-17390666D01*
X98279333Y-17324000D01*
X98212666Y-17190666D01*
X98212666Y-16057333D01*
X97612666Y-16190666D02*
X97546000Y-16124000D01*
X97412666Y-16057333D01*
X97079333Y-16057333D01*
X96946000Y-16124000D01*
X96879333Y-16190666D01*
X96812666Y-16324000D01*
X96812666Y-16457333D01*
X96879333Y-16657333D01*
X97679333Y-17457333D01*
X96812666Y-17457333D01*
D13*
X104632380Y14691905D02*
X105441904Y14691905D01*
X105537142Y14644286D01*
X105584761Y14596667D01*
X105632380Y14501429D01*
X105632380Y14310953D01*
X105584761Y14215715D01*
X105537142Y14168096D01*
X105441904Y14120477D01*
X104632380Y14120477D01*
X105632380Y13120477D02*
X105632380Y13691905D01*
X105632380Y13406191D02*
X104632380Y13406191D01*
X104775238Y13501429D01*
X104870476Y13596667D01*
X104918095Y13691905D01*
X103242380Y14106667D02*
X102766190Y14440000D01*
X103242380Y14678096D02*
X102242380Y14678096D01*
X102242380Y14297143D01*
X102290000Y14201905D01*
X102337619Y14154286D01*
X102432857Y14106667D01*
X102575714Y14106667D01*
X102670952Y14154286D01*
X102718571Y14201905D01*
X102766190Y14297143D01*
X102766190Y14678096D01*
X102670952Y13535239D02*
X102623333Y13630477D01*
X102575714Y13678096D01*
X102480476Y13725715D01*
X102432857Y13725715D01*
X102337619Y13678096D01*
X102290000Y13630477D01*
X102242380Y13535239D01*
X102242380Y13344762D01*
X102290000Y13249524D01*
X102337619Y13201905D01*
X102432857Y13154286D01*
X102480476Y13154286D01*
X102575714Y13201905D01*
X102623333Y13249524D01*
X102670952Y13344762D01*
X102670952Y13535239D01*
X102718571Y13630477D01*
X102766190Y13678096D01*
X102861428Y13725715D01*
X103051904Y13725715D01*
X103147142Y13678096D01*
X103194761Y13630477D01*
X103242380Y13535239D01*
X103242380Y13344762D01*
X103194761Y13249524D01*
X103147142Y13201905D01*
X103051904Y13154286D01*
X102861428Y13154286D01*
X102766190Y13201905D01*
X102718571Y13249524D01*
X102670952Y13344762D01*
X106152380Y14096667D02*
X105676190Y14430000D01*
X106152380Y14668096D02*
X105152380Y14668096D01*
X105152380Y14287143D01*
X105200000Y14191905D01*
X105247619Y14144286D01*
X105342857Y14096667D01*
X105485714Y14096667D01*
X105580952Y14144286D01*
X105628571Y14191905D01*
X105676190Y14287143D01*
X105676190Y14668096D01*
X105152380Y13763334D02*
X105152380Y13096667D01*
X106152380Y13525239D01*
X100662380Y14106667D02*
X100186190Y14440000D01*
X100662380Y14678096D02*
X99662380Y14678096D01*
X99662380Y14297143D01*
X99710000Y14201905D01*
X99757619Y14154286D01*
X99852857Y14106667D01*
X99995714Y14106667D01*
X100090952Y14154286D01*
X100138571Y14201905D01*
X100186190Y14297143D01*
X100186190Y14678096D01*
X99662380Y13249524D02*
X99662380Y13440000D01*
X99710000Y13535239D01*
X99757619Y13582858D01*
X99900476Y13678096D01*
X100090952Y13725715D01*
X100471904Y13725715D01*
X100567142Y13678096D01*
X100614761Y13630477D01*
X100662380Y13535239D01*
X100662380Y13344762D01*
X100614761Y13249524D01*
X100567142Y13201905D01*
X100471904Y13154286D01*
X100233809Y13154286D01*
X100138571Y13201905D01*
X100090952Y13249524D01*
X100043333Y13344762D01*
X100043333Y13535239D01*
X100090952Y13630477D01*
X100138571Y13678096D01*
X100233809Y13725715D01*
X111782380Y9466667D02*
X111306190Y9800000D01*
X111782380Y10038096D02*
X110782380Y10038096D01*
X110782380Y9657143D01*
X110830000Y9561905D01*
X110877619Y9514286D01*
X110972857Y9466667D01*
X111115714Y9466667D01*
X111210952Y9514286D01*
X111258571Y9561905D01*
X111306190Y9657143D01*
X111306190Y10038096D01*
X110782380Y8561905D02*
X110782380Y9038096D01*
X111258571Y9085715D01*
X111210952Y9038096D01*
X111163333Y8942858D01*
X111163333Y8704762D01*
X111210952Y8609524D01*
X111258571Y8561905D01*
X111353809Y8514286D01*
X111591904Y8514286D01*
X111687142Y8561905D01*
X111734761Y8609524D01*
X111782380Y8704762D01*
X111782380Y8942858D01*
X111734761Y9038096D01*
X111687142Y9085715D01*
X108542380Y9486667D02*
X108066190Y9820000D01*
X108542380Y10058096D02*
X107542380Y10058096D01*
X107542380Y9677143D01*
X107590000Y9581905D01*
X107637619Y9534286D01*
X107732857Y9486667D01*
X107875714Y9486667D01*
X107970952Y9534286D01*
X108018571Y9581905D01*
X108066190Y9677143D01*
X108066190Y10058096D01*
X107875714Y8629524D02*
X108542380Y8629524D01*
X107494761Y8867620D02*
X108209047Y9105715D01*
X108209047Y8486667D01*
X108486666Y18887620D02*
X108820000Y19363810D01*
X109058095Y18887620D02*
X109058095Y19887620D01*
X108677142Y19887620D01*
X108581904Y19840000D01*
X108534285Y19792381D01*
X108486666Y19697143D01*
X108486666Y19554286D01*
X108534285Y19459048D01*
X108581904Y19411429D01*
X108677142Y19363810D01*
X109058095Y19363810D01*
X108153333Y19887620D02*
X107534285Y19887620D01*
X107867619Y19506667D01*
X107724761Y19506667D01*
X107629523Y19459048D01*
X107581904Y19411429D01*
X107534285Y19316191D01*
X107534285Y19078096D01*
X107581904Y18982858D01*
X107629523Y18935239D01*
X107724761Y18887620D01*
X108010476Y18887620D01*
X108105714Y18935239D01*
X108153333Y18982858D01*
X91292380Y2276667D02*
X90816190Y2610000D01*
X91292380Y2848096D02*
X90292380Y2848096D01*
X90292380Y2467143D01*
X90340000Y2371905D01*
X90387619Y2324286D01*
X90482857Y2276667D01*
X90625714Y2276667D01*
X90720952Y2324286D01*
X90768571Y2371905D01*
X90816190Y2467143D01*
X90816190Y2848096D01*
X90387619Y1895715D02*
X90340000Y1848096D01*
X90292380Y1752858D01*
X90292380Y1514762D01*
X90340000Y1419524D01*
X90387619Y1371905D01*
X90482857Y1324286D01*
X90578095Y1324286D01*
X90720952Y1371905D01*
X91292380Y1943334D01*
X91292380Y1324286D01*
X113862380Y-13813333D02*
X113386190Y-13480000D01*
X113862380Y-13241904D02*
X112862380Y-13241904D01*
X112862380Y-13622857D01*
X112910000Y-13718095D01*
X112957619Y-13765714D01*
X113052857Y-13813333D01*
X113195714Y-13813333D01*
X113290952Y-13765714D01*
X113338571Y-13718095D01*
X113386190Y-13622857D01*
X113386190Y-13241904D01*
X113862380Y-14765714D02*
X113862380Y-14194285D01*
X113862380Y-14480000D02*
X112862380Y-14480000D01*
X113005238Y-14384761D01*
X113100476Y-14289523D01*
X113148095Y-14194285D01*
X7479851Y-48531777D02*
X6513925Y-48272958D01*
X6452302Y-48502940D01*
X6461324Y-48653254D01*
X6528667Y-48769897D01*
X6608336Y-48840543D01*
X6779997Y-48935838D01*
X6917986Y-48972812D01*
X7114297Y-48976115D01*
X7218614Y-48954768D01*
X7335257Y-48887424D01*
X7418227Y-48761759D01*
X7479851Y-48531777D01*
X7085460Y-50003664D02*
X7233357Y-49451706D01*
X7159408Y-49727685D02*
X6193483Y-49468866D01*
X6356121Y-49413847D01*
X6472764Y-49346504D01*
X6543410Y-49266836D01*
X95446666Y16302858D02*
X95494285Y16255239D01*
X95637142Y16207620D01*
X95732380Y16207620D01*
X95875238Y16255239D01*
X95970476Y16350477D01*
X96018095Y16445715D01*
X96065714Y16636191D01*
X96065714Y16779048D01*
X96018095Y16969524D01*
X95970476Y17064762D01*
X95875238Y17160000D01*
X95732380Y17207620D01*
X95637142Y17207620D01*
X95494285Y17160000D01*
X95446666Y17112381D01*
X94970476Y16207620D02*
X94780000Y16207620D01*
X94684761Y16255239D01*
X94637142Y16302858D01*
X94541904Y16445715D01*
X94494285Y16636191D01*
X94494285Y17017143D01*
X94541904Y17112381D01*
X94589523Y17160000D01*
X94684761Y17207620D01*
X94875238Y17207620D01*
X94970476Y17160000D01*
X95018095Y17112381D01*
X95065714Y17017143D01*
X95065714Y16779048D01*
X95018095Y16683810D01*
X94970476Y16636191D01*
X94875238Y16588572D01*
X94684761Y16588572D01*
X94589523Y16636191D01*
X94541904Y16683810D01*
X94494285Y16779048D01*
X95717142Y2646667D02*
X95764761Y2694286D01*
X95812380Y2837143D01*
X95812380Y2932381D01*
X95764761Y3075239D01*
X95669523Y3170477D01*
X95574285Y3218096D01*
X95383809Y3265715D01*
X95240952Y3265715D01*
X95050476Y3218096D01*
X94955238Y3170477D01*
X94860000Y3075239D01*
X94812380Y2932381D01*
X94812380Y2837143D01*
X94860000Y2694286D01*
X94907619Y2646667D01*
X95240952Y2075239D02*
X95193333Y2170477D01*
X95145714Y2218096D01*
X95050476Y2265715D01*
X95002857Y2265715D01*
X94907619Y2218096D01*
X94860000Y2170477D01*
X94812380Y2075239D01*
X94812380Y1884762D01*
X94860000Y1789524D01*
X94907619Y1741905D01*
X95002857Y1694286D01*
X95050476Y1694286D01*
X95145714Y1741905D01*
X95193333Y1789524D01*
X95240952Y1884762D01*
X95240952Y2075239D01*
X95288571Y2170477D01*
X95336190Y2218096D01*
X95431428Y2265715D01*
X95621904Y2265715D01*
X95717142Y2218096D01*
X95764761Y2170477D01*
X95812380Y2075239D01*
X95812380Y1884762D01*
X95764761Y1789524D01*
X95717142Y1741905D01*
X95621904Y1694286D01*
X95431428Y1694286D01*
X95336190Y1741905D01*
X95288571Y1789524D01*
X95240952Y1884762D01*
X107017142Y2756667D02*
X107064761Y2804286D01*
X107112380Y2947143D01*
X107112380Y3042381D01*
X107064761Y3185239D01*
X106969523Y3280477D01*
X106874285Y3328096D01*
X106683809Y3375715D01*
X106540952Y3375715D01*
X106350476Y3328096D01*
X106255238Y3280477D01*
X106160000Y3185239D01*
X106112380Y3042381D01*
X106112380Y2947143D01*
X106160000Y2804286D01*
X106207619Y2756667D01*
X106112380Y2423334D02*
X106112380Y1756667D01*
X107112380Y2185239D01*
X94006666Y22992858D02*
X94054285Y22945239D01*
X94197142Y22897620D01*
X94292380Y22897620D01*
X94435238Y22945239D01*
X94530476Y23040477D01*
X94578095Y23135715D01*
X94625714Y23326191D01*
X94625714Y23469048D01*
X94578095Y23659524D01*
X94530476Y23754762D01*
X94435238Y23850000D01*
X94292380Y23897620D01*
X94197142Y23897620D01*
X94054285Y23850000D01*
X94006666Y23802381D01*
X93149523Y23897620D02*
X93340000Y23897620D01*
X93435238Y23850000D01*
X93482857Y23802381D01*
X93578095Y23659524D01*
X93625714Y23469048D01*
X93625714Y23088096D01*
X93578095Y22992858D01*
X93530476Y22945239D01*
X93435238Y22897620D01*
X93244761Y22897620D01*
X93149523Y22945239D01*
X93101904Y22992858D01*
X93054285Y23088096D01*
X93054285Y23326191D01*
X93101904Y23421429D01*
X93149523Y23469048D01*
X93244761Y23516667D01*
X93435238Y23516667D01*
X93530476Y23469048D01*
X93578095Y23421429D01*
X93625714Y23326191D01*
X96716666Y-19917142D02*
X96764285Y-19964761D01*
X96907142Y-20012380D01*
X97002380Y-20012380D01*
X97145238Y-19964761D01*
X97240476Y-19869523D01*
X97288095Y-19774285D01*
X97335714Y-19583809D01*
X97335714Y-19440952D01*
X97288095Y-19250476D01*
X97240476Y-19155238D01*
X97145238Y-19060000D01*
X97002380Y-19012380D01*
X96907142Y-19012380D01*
X96764285Y-19060000D01*
X96716666Y-19107619D01*
X95811904Y-19012380D02*
X96288095Y-19012380D01*
X96335714Y-19488571D01*
X96288095Y-19440952D01*
X96192857Y-19393333D01*
X95954761Y-19393333D01*
X95859523Y-19440952D01*
X95811904Y-19488571D01*
X95764285Y-19583809D01*
X95764285Y-19821904D01*
X95811904Y-19917142D01*
X95859523Y-19964761D01*
X95954761Y-20012380D01*
X96192857Y-20012380D01*
X96288095Y-19964761D01*
X96335714Y-19917142D01*
X112597142Y-2493333D02*
X112644761Y-2445714D01*
X112692380Y-2302857D01*
X112692380Y-2207619D01*
X112644761Y-2064761D01*
X112549523Y-1969523D01*
X112454285Y-1921904D01*
X112263809Y-1874285D01*
X112120952Y-1874285D01*
X111930476Y-1921904D01*
X111835238Y-1969523D01*
X111740000Y-2064761D01*
X111692380Y-2207619D01*
X111692380Y-2302857D01*
X111740000Y-2445714D01*
X111787619Y-2493333D01*
X112025714Y-3350476D02*
X112692380Y-3350476D01*
X111644761Y-3112380D02*
X112359047Y-2874285D01*
X112359047Y-3493333D01*
X107236666Y-16567142D02*
X107284285Y-16614761D01*
X107427142Y-16662380D01*
X107522380Y-16662380D01*
X107665238Y-16614761D01*
X107760476Y-16519523D01*
X107808095Y-16424285D01*
X107855714Y-16233809D01*
X107855714Y-16090952D01*
X107808095Y-15900476D01*
X107760476Y-15805238D01*
X107665238Y-15710000D01*
X107522380Y-15662380D01*
X107427142Y-15662380D01*
X107284285Y-15710000D01*
X107236666Y-15757619D01*
X106903333Y-15662380D02*
X106284285Y-15662380D01*
X106617619Y-16043333D01*
X106474761Y-16043333D01*
X106379523Y-16090952D01*
X106331904Y-16138571D01*
X106284285Y-16233809D01*
X106284285Y-16471904D01*
X106331904Y-16567142D01*
X106379523Y-16614761D01*
X106474761Y-16662380D01*
X106760476Y-16662380D01*
X106855714Y-16614761D01*
X106903333Y-16567142D01*
X94427142Y-15603333D02*
X94474761Y-15555714D01*
X94522380Y-15412857D01*
X94522380Y-15317619D01*
X94474761Y-15174761D01*
X94379523Y-15079523D01*
X94284285Y-15031904D01*
X94093809Y-14984285D01*
X93950952Y-14984285D01*
X93760476Y-15031904D01*
X93665238Y-15079523D01*
X93570000Y-15174761D01*
X93522380Y-15317619D01*
X93522380Y-15412857D01*
X93570000Y-15555714D01*
X93617619Y-15603333D01*
X93617619Y-15984285D02*
X93570000Y-16031904D01*
X93522380Y-16127142D01*
X93522380Y-16365238D01*
X93570000Y-16460476D01*
X93617619Y-16508095D01*
X93712857Y-16555714D01*
X93808095Y-16555714D01*
X93950952Y-16508095D01*
X94522380Y-15936666D01*
X94522380Y-16555714D01*
X89927142Y-9493333D02*
X89974761Y-9445714D01*
X90022380Y-9302857D01*
X90022380Y-9207619D01*
X89974761Y-9064761D01*
X89879523Y-8969523D01*
X89784285Y-8921904D01*
X89593809Y-8874285D01*
X89450952Y-8874285D01*
X89260476Y-8921904D01*
X89165238Y-8969523D01*
X89070000Y-9064761D01*
X89022380Y-9207619D01*
X89022380Y-9302857D01*
X89070000Y-9445714D01*
X89117619Y-9493333D01*
X90022380Y-10445714D02*
X90022380Y-9874285D01*
X90022380Y-10160000D02*
X89022380Y-10160000D01*
X89165238Y-10064761D01*
X89260476Y-9969523D01*
X89308095Y-9874285D01*
X137532857Y7887620D02*
X138009047Y7887620D01*
X138009047Y8887620D01*
X136675714Y7887620D02*
X137247142Y7887620D01*
X136961428Y7887620D02*
X136961428Y8887620D01*
X137056666Y8744762D01*
X137151904Y8649524D01*
X137247142Y8601905D01*
X136342380Y8887620D02*
X135723333Y8887620D01*
X136056666Y8506667D01*
X135913809Y8506667D01*
X135818571Y8459048D01*
X135770952Y8411429D01*
X135723333Y8316191D01*
X135723333Y8078096D01*
X135770952Y7982858D01*
X135818571Y7935239D01*
X135913809Y7887620D01*
X136199523Y7887620D01*
X136294761Y7935239D01*
X136342380Y7982858D01*
X132454285Y9787620D02*
X133025714Y9787620D01*
X132740000Y9787620D02*
X132740000Y10787620D01*
X132835238Y10644762D01*
X132930476Y10549524D01*
X133025714Y10501905D01*
X187682857Y2717620D02*
X188159047Y2717620D01*
X188159047Y3717620D01*
X186825714Y2717620D02*
X187397142Y2717620D01*
X187111428Y2717620D02*
X187111428Y3717620D01*
X187206666Y3574762D01*
X187301904Y3479524D01*
X187397142Y3431905D01*
X186444761Y3622381D02*
X186397142Y3670000D01*
X186301904Y3717620D01*
X186063809Y3717620D01*
X185968571Y3670000D01*
X185920952Y3622381D01*
X185873333Y3527143D01*
X185873333Y3431905D01*
X185920952Y3289048D01*
X186492380Y2717620D01*
X185873333Y2717620D01*
X182604285Y4617620D02*
X183175714Y4617620D01*
X182890000Y4617620D02*
X182890000Y5617620D01*
X182985238Y5474762D01*
X183080476Y5379524D01*
X183175714Y5331905D01*
X125497941Y-87004138D02*
X125408232Y-87125085D01*
X125213196Y-87261650D01*
X125107868Y-87277269D01*
X125041548Y-87265575D01*
X124947914Y-87214874D01*
X124893288Y-87136860D01*
X124877669Y-87031532D01*
X124889363Y-86965212D01*
X124940064Y-86871578D01*
X125068780Y-86723318D01*
X125119481Y-86629685D01*
X125131175Y-86563364D01*
X125115556Y-86458036D01*
X125060930Y-86380022D01*
X124967296Y-86329321D01*
X124900976Y-86317627D01*
X124795648Y-86333246D01*
X124600612Y-86469811D01*
X124510904Y-86590758D01*
X124210540Y-86742943D02*
X124589080Y-87698661D01*
X124023354Y-87222805D01*
X124277022Y-87917166D01*
X123508409Y-87234580D01*
X123036478Y-87971955D02*
X123418863Y-88518056D01*
X123013009Y-87523331D02*
X123617743Y-87971874D01*
X123110649Y-88326945D01*
X122509840Y-88050050D02*
X122443520Y-88038356D01*
X122338192Y-88053975D01*
X122143156Y-88190541D01*
X122092455Y-88284174D01*
X122080761Y-88350495D01*
X122096380Y-88455822D01*
X122151006Y-88533837D01*
X122271953Y-88623545D01*
X123067798Y-88763874D01*
X122560703Y-89118946D01*
X163821897Y-69302019D02*
X163696233Y-69384990D01*
X163466250Y-69446613D01*
X163361933Y-69425266D01*
X163303612Y-69391595D01*
X163232966Y-69311926D01*
X163208316Y-69219934D01*
X163229663Y-69115616D01*
X163263335Y-69057295D01*
X163343003Y-68986649D01*
X163514664Y-68891353D01*
X163594333Y-68820708D01*
X163628004Y-68762386D01*
X163649351Y-68658069D01*
X163624702Y-68566076D01*
X163554056Y-68486408D01*
X163495735Y-68452736D01*
X163391417Y-68431389D01*
X163161435Y-68493012D01*
X163035770Y-68575983D01*
X162701470Y-68616260D02*
X162730307Y-69643809D01*
X162361450Y-69003161D01*
X162362335Y-69742407D01*
X161873534Y-68838104D01*
X161177867Y-69369600D02*
X161350413Y-70013550D01*
X161309251Y-68940005D02*
X161724104Y-69568328D01*
X161126150Y-69728549D01*
X160338491Y-70284694D02*
X160890448Y-70136798D01*
X160614469Y-70210746D02*
X160355650Y-69244820D01*
X160484617Y-69358160D01*
X160601260Y-69425504D01*
X160705577Y-69446851D01*
X143831916Y-76783230D02*
X143722568Y-76886761D01*
X143506780Y-76987385D01*
X143400341Y-76984476D01*
X143337058Y-76961444D01*
X143253652Y-76895253D01*
X143213402Y-76808938D01*
X143216310Y-76702498D01*
X143239343Y-76639216D01*
X143305534Y-76555809D01*
X143458039Y-76432153D01*
X143524229Y-76348746D01*
X143547262Y-76285464D01*
X143550170Y-76179024D01*
X143509921Y-76092709D01*
X143426514Y-76026519D01*
X143363232Y-76003486D01*
X143256792Y-76000578D01*
X143041005Y-76101201D01*
X142931657Y-76204733D01*
X142609429Y-76302448D02*
X142816260Y-77309379D01*
X142341760Y-76742515D01*
X142471000Y-77470377D01*
X141832594Y-76664692D01*
X141239789Y-77308915D02*
X141521535Y-77913120D01*
X141294579Y-76863031D02*
X141812237Y-77409770D01*
X141251189Y-77671391D01*
X140451554Y-77308682D02*
X140365239Y-77348932D01*
X140299048Y-77432338D01*
X140276016Y-77495621D01*
X140273107Y-77602060D01*
X140310449Y-77794815D01*
X140411072Y-78010603D01*
X140534728Y-78163108D01*
X140618135Y-78229298D01*
X140681417Y-78252331D01*
X140787857Y-78255239D01*
X140874172Y-78214990D01*
X140940362Y-78131583D01*
X140963395Y-78068301D01*
X140966303Y-77961861D01*
X140928962Y-77769106D01*
X140828339Y-77553319D01*
X140704683Y-77400813D01*
X140621276Y-77334623D01*
X140557993Y-77311590D01*
X140451554Y-77308682D01*
X78698205Y-89079938D02*
X78553870Y-89037006D01*
X78358834Y-88900440D01*
X78308132Y-88806807D01*
X78296438Y-88740486D01*
X78312057Y-88635159D01*
X78366684Y-88557144D01*
X78460317Y-88506443D01*
X78526638Y-88494749D01*
X78631965Y-88510368D01*
X78815307Y-88580613D01*
X78920635Y-88596232D01*
X78986955Y-88584538D01*
X79080589Y-88533837D01*
X79135215Y-88455822D01*
X79150834Y-88350495D01*
X79139140Y-88284174D01*
X79088439Y-88190541D01*
X78893403Y-88053975D01*
X78749068Y-88011043D01*
X78503330Y-87780843D02*
X77734718Y-88463430D01*
X77988386Y-87769068D01*
X77422660Y-88244924D01*
X77801200Y-87289206D01*
X77567157Y-87125327D02*
X77060063Y-86770256D01*
X77114608Y-87273506D01*
X76997586Y-87191567D01*
X76892259Y-87175948D01*
X76825938Y-87187642D01*
X76732305Y-87238343D01*
X76595739Y-87433379D01*
X76580120Y-87538707D01*
X76591814Y-87605027D01*
X76642515Y-87698661D01*
X76876559Y-87862540D01*
X76981886Y-87878159D01*
X77048207Y-87866465D01*
X76096414Y-87316277D02*
X75940385Y-87207024D01*
X75889683Y-87113390D01*
X75877989Y-87047070D01*
X75881914Y-86875422D01*
X75952160Y-86692080D01*
X76170665Y-86380022D01*
X76264299Y-86329321D01*
X76330619Y-86317627D01*
X76435947Y-86333246D01*
X76591976Y-86442498D01*
X76642677Y-86536132D01*
X76654371Y-86602452D01*
X76638752Y-86707780D01*
X76502186Y-86902816D01*
X76408553Y-86953517D01*
X76342232Y-86965212D01*
X76236905Y-86949592D01*
X76080876Y-86840340D01*
X76030174Y-86746706D01*
X76018480Y-86680386D01*
X76034099Y-86575058D01*
X60679650Y-78312705D02*
X60530053Y-78295489D01*
X60314265Y-78194865D01*
X60248075Y-78111458D01*
X60225042Y-78048176D01*
X60222134Y-77941736D01*
X60262383Y-77855421D01*
X60345790Y-77789231D01*
X60409073Y-77766198D01*
X60515512Y-77763290D01*
X60708267Y-77800631D01*
X60814707Y-77797723D01*
X60877989Y-77774690D01*
X60961396Y-77708500D01*
X61001645Y-77622185D01*
X60998737Y-77515745D01*
X60975704Y-77452463D01*
X60909514Y-77369056D01*
X60693726Y-77268433D01*
X60544129Y-77251216D01*
X60262151Y-77067186D02*
X59623745Y-77872870D01*
X59752985Y-77145009D01*
X59278485Y-77711873D01*
X59485316Y-76704942D01*
X59226371Y-76584194D02*
X58665323Y-76322573D01*
X58806428Y-76808706D01*
X58676956Y-76748332D01*
X58570516Y-76751240D01*
X58507234Y-76774273D01*
X58423827Y-76840463D01*
X58323204Y-77056251D01*
X58326112Y-77162690D01*
X58349145Y-77225973D01*
X58415335Y-77309379D01*
X58674280Y-77430127D01*
X58780720Y-77427219D01*
X58844002Y-77404186D01*
X57966311Y-76469494D02*
X58072750Y-76466586D01*
X58136033Y-76443553D01*
X58219440Y-76377363D01*
X58239564Y-76334205D01*
X58236656Y-76227766D01*
X58213623Y-76164484D01*
X58147433Y-76081077D01*
X57974803Y-76000578D01*
X57868363Y-76003486D01*
X57805081Y-76026519D01*
X57721674Y-76092709D01*
X57701549Y-76135867D01*
X57704458Y-76242307D01*
X57727490Y-76305589D01*
X57793681Y-76388996D01*
X57966311Y-76469494D01*
X58032501Y-76552901D01*
X58055534Y-76616183D01*
X58058442Y-76722623D01*
X57977943Y-76895253D01*
X57894537Y-76961444D01*
X57831254Y-76984476D01*
X57724815Y-76987385D01*
X57552185Y-76906886D01*
X57485994Y-76823479D01*
X57462961Y-76760197D01*
X57460053Y-76653757D01*
X57540552Y-76481127D01*
X57623959Y-76414937D01*
X57687241Y-76391904D01*
X57793681Y-76388996D01*
X40905429Y-70238698D02*
X40755115Y-70247720D01*
X40525133Y-70186096D01*
X40445465Y-70115451D01*
X40411793Y-70057129D01*
X40390446Y-69952812D01*
X40415095Y-69860819D01*
X40485741Y-69781151D01*
X40544062Y-69747479D01*
X40648380Y-69726132D01*
X40844690Y-69729434D01*
X40949008Y-69708087D01*
X41007329Y-69674415D01*
X41077975Y-69594747D01*
X41102625Y-69502754D01*
X41081278Y-69398437D01*
X41047606Y-69340115D01*
X40967938Y-69269469D01*
X40737955Y-69207846D01*
X40587641Y-69216868D01*
X40277991Y-69084599D02*
X39789189Y-69988901D01*
X39790074Y-69249655D01*
X39421218Y-69890303D01*
X39450054Y-68862754D01*
X39174075Y-68788806D02*
X38576121Y-68628584D01*
X38799499Y-69082829D01*
X38661509Y-69045855D01*
X38557192Y-69067202D01*
X38498871Y-69100874D01*
X38428225Y-69180542D01*
X38366601Y-69410524D01*
X38387948Y-69514842D01*
X38421620Y-69573163D01*
X38501288Y-69643809D01*
X38777267Y-69717757D01*
X38881585Y-69696410D01*
X38939906Y-69662738D01*
X38254146Y-68542311D02*
X37610195Y-68369765D01*
X37765345Y-69446613D01*
X213436651Y-33656174D02*
X213310987Y-33739145D01*
X213081004Y-33800768D01*
X212976687Y-33779421D01*
X212918366Y-33745750D01*
X212847720Y-33666081D01*
X212823070Y-33574089D01*
X212844417Y-33469771D01*
X212878089Y-33411450D01*
X212957757Y-33340804D01*
X213129418Y-33245508D01*
X213209087Y-33174863D01*
X213242758Y-33116541D01*
X213264105Y-33012224D01*
X213239456Y-32920231D01*
X213168810Y-32840563D01*
X213110489Y-32806891D01*
X213006171Y-32785544D01*
X212776189Y-32847167D01*
X212650524Y-32930138D01*
X212316224Y-32970415D02*
X212345061Y-33997964D01*
X211976204Y-33357316D01*
X211977089Y-34096562D01*
X211488288Y-33192259D01*
X211212309Y-33266208D02*
X210614355Y-33426429D01*
X211034928Y-33708128D01*
X210896938Y-33745102D01*
X210817270Y-33815748D01*
X210783598Y-33874069D01*
X210762251Y-33978387D01*
X210823875Y-34208369D01*
X210894521Y-34288037D01*
X210952842Y-34321709D01*
X211057160Y-34343056D01*
X211333139Y-34269108D01*
X211412807Y-34198462D01*
X211446479Y-34140141D01*
X209740422Y-33660599D02*
X210200387Y-33537351D01*
X210369630Y-33984991D01*
X210311309Y-33951320D01*
X210206991Y-33929973D01*
X209977009Y-33991596D01*
X209897341Y-34062242D01*
X209863669Y-34120563D01*
X209842322Y-34224881D01*
X209903946Y-34454863D01*
X209974592Y-34534532D01*
X210032913Y-34568203D01*
X210137230Y-34589550D01*
X210367213Y-34527927D01*
X210446881Y-34457281D01*
X210480553Y-34398960D01*
X192406165Y-28772871D02*
X192280501Y-28855842D01*
X192050518Y-28917465D01*
X191946201Y-28896118D01*
X191887880Y-28862447D01*
X191817234Y-28782778D01*
X191792584Y-28690786D01*
X191813931Y-28586468D01*
X191847603Y-28528147D01*
X191927271Y-28457501D01*
X192098932Y-28362205D01*
X192178601Y-28291560D01*
X192212272Y-28233238D01*
X192233619Y-28128921D01*
X192208970Y-28036928D01*
X192138324Y-27957260D01*
X192080003Y-27923588D01*
X191975685Y-27902241D01*
X191745703Y-27963864D01*
X191620038Y-28046835D01*
X191285738Y-28087112D02*
X191314575Y-29114661D01*
X190945718Y-28474013D01*
X190946603Y-29213259D01*
X190457802Y-28308956D01*
X190181823Y-28382905D02*
X189583869Y-28543126D01*
X190004442Y-28824825D01*
X189866452Y-28861799D01*
X189786784Y-28932445D01*
X189753112Y-28990766D01*
X189731765Y-29095084D01*
X189793389Y-29325066D01*
X189864035Y-29404734D01*
X189922356Y-29438406D01*
X190026674Y-29459753D01*
X190302653Y-29385805D01*
X190382321Y-29315159D01*
X190415993Y-29256838D01*
X188842205Y-29086946D02*
X189014751Y-29730897D01*
X188973590Y-28657351D02*
X189388443Y-29285674D01*
X188790489Y-29445896D01*
X172690478Y-28796470D02*
X172564814Y-28879441D01*
X172334831Y-28941064D01*
X172230514Y-28919717D01*
X172172193Y-28886046D01*
X172101547Y-28806377D01*
X172076897Y-28714385D01*
X172098244Y-28610067D01*
X172131916Y-28551746D01*
X172211584Y-28481100D01*
X172383245Y-28385804D01*
X172462914Y-28315159D01*
X172496585Y-28256837D01*
X172517932Y-28152520D01*
X172493283Y-28060527D01*
X172422637Y-27980859D01*
X172364316Y-27947187D01*
X172259998Y-27925840D01*
X172030016Y-27987463D01*
X171904351Y-28070434D01*
X171570051Y-28110711D02*
X171598888Y-29138260D01*
X171230031Y-28497612D01*
X171230916Y-29236858D01*
X170742115Y-28332555D01*
X170466136Y-28406504D02*
X169868182Y-28566725D01*
X170288755Y-28848424D01*
X170150765Y-28885398D01*
X170071097Y-28956044D01*
X170037425Y-29014365D01*
X170016078Y-29118683D01*
X170077702Y-29348665D01*
X170148348Y-29428333D01*
X170206669Y-29462005D01*
X170310987Y-29483352D01*
X170586966Y-29409404D01*
X170666634Y-29338758D01*
X170700306Y-29280437D01*
X169546207Y-28652998D02*
X168948252Y-28813219D01*
X169368825Y-29094918D01*
X169230836Y-29131892D01*
X169151168Y-29202538D01*
X169117496Y-29260859D01*
X169096149Y-29365177D01*
X169157773Y-29595159D01*
X169228419Y-29674828D01*
X169286740Y-29708499D01*
X169391057Y-29729846D01*
X169667036Y-29655898D01*
X169746704Y-29585252D01*
X169780376Y-29526931D01*
X155604393Y-38633875D02*
X155478729Y-38716846D01*
X155248746Y-38778469D01*
X155144429Y-38757122D01*
X155086108Y-38723451D01*
X155015462Y-38643782D01*
X154990812Y-38551790D01*
X155012159Y-38447472D01*
X155045831Y-38389151D01*
X155125499Y-38318505D01*
X155297160Y-38223209D01*
X155376829Y-38152564D01*
X155410500Y-38094242D01*
X155431847Y-37989925D01*
X155407198Y-37897932D01*
X155336552Y-37818264D01*
X155278231Y-37784592D01*
X155173913Y-37763245D01*
X154943931Y-37824868D01*
X154818266Y-37907839D01*
X154483966Y-37948116D02*
X154512803Y-38975665D01*
X154143946Y-38335017D01*
X154144831Y-39074263D01*
X153656030Y-38169960D01*
X153380051Y-38243909D02*
X152782097Y-38404130D01*
X153202670Y-38685829D01*
X153064680Y-38722803D01*
X152985012Y-38793449D01*
X152951340Y-38851770D01*
X152929993Y-38956088D01*
X152991617Y-39186070D01*
X153062263Y-39265738D01*
X153120584Y-39299410D01*
X153224902Y-39320757D01*
X153500881Y-39246809D01*
X153580549Y-39176163D01*
X153614221Y-39117842D01*
X152438775Y-38594721D02*
X152380453Y-38561049D01*
X152276136Y-38539702D01*
X152046153Y-38601325D01*
X151966485Y-38671971D01*
X151932813Y-38730293D01*
X151911466Y-38834610D01*
X151936116Y-38926603D01*
X152019086Y-39052268D01*
X152718941Y-39456329D01*
X152120987Y-39616550D01*
X137860907Y-46017829D02*
X137735243Y-46100800D01*
X137505260Y-46162423D01*
X137400943Y-46141076D01*
X137342622Y-46107405D01*
X137271976Y-46027736D01*
X137247326Y-45935744D01*
X137268673Y-45831426D01*
X137302345Y-45773105D01*
X137382013Y-45702459D01*
X137553674Y-45607163D01*
X137633343Y-45536518D01*
X137667014Y-45478196D01*
X137688361Y-45373879D01*
X137663712Y-45281886D01*
X137593066Y-45202218D01*
X137534745Y-45168546D01*
X137430427Y-45147199D01*
X137200445Y-45208822D01*
X137074780Y-45291793D01*
X136740480Y-45332070D02*
X136769317Y-46359619D01*
X136400460Y-45718971D01*
X136401345Y-46458217D01*
X135912544Y-45553914D01*
X135636565Y-45627863D02*
X135038611Y-45788084D01*
X135459184Y-46069783D01*
X135321194Y-46106757D01*
X135241526Y-46177403D01*
X135207854Y-46235724D01*
X135186507Y-46340042D01*
X135248131Y-46570024D01*
X135318777Y-46649692D01*
X135377098Y-46683364D01*
X135481416Y-46704711D01*
X135757395Y-46630763D01*
X135837063Y-46560117D01*
X135870735Y-46501796D01*
X134377501Y-47000504D02*
X134929458Y-46852608D01*
X134653479Y-46926556D02*
X134394660Y-45960630D01*
X134523627Y-46073970D01*
X134640270Y-46141314D01*
X134744587Y-46162661D01*
X208506149Y-15255288D02*
X208380485Y-15338259D01*
X208150502Y-15399882D01*
X208046185Y-15378535D01*
X207987864Y-15344864D01*
X207917218Y-15265195D01*
X207892568Y-15173203D01*
X207913915Y-15068885D01*
X207947587Y-15010564D01*
X208027255Y-14939918D01*
X208198916Y-14844622D01*
X208278585Y-14773977D01*
X208312256Y-14715655D01*
X208333603Y-14611338D01*
X208308954Y-14519345D01*
X208238308Y-14439677D01*
X208179987Y-14406005D01*
X208075669Y-14384658D01*
X207845687Y-14446281D01*
X207720022Y-14529252D01*
X207385722Y-14569529D02*
X207414559Y-15597078D01*
X207045702Y-14956430D01*
X207046587Y-15695676D01*
X206557786Y-14791373D01*
X206260460Y-14969639D02*
X206202139Y-14935968D01*
X206097821Y-14914621D01*
X205867839Y-14976244D01*
X205788170Y-15046890D01*
X205754499Y-15105211D01*
X205733152Y-15209529D01*
X205757801Y-15301522D01*
X205840772Y-15427187D01*
X206540626Y-15831248D01*
X205942672Y-15991469D01*
X205482707Y-16114716D02*
X205298721Y-16164015D01*
X205194404Y-16142668D01*
X205136082Y-16108996D01*
X205007115Y-15995656D01*
X204911820Y-15823995D01*
X204813222Y-15456023D01*
X204834569Y-15351706D01*
X204868241Y-15293384D01*
X204947909Y-15222738D01*
X205131895Y-15173440D01*
X205236213Y-15194787D01*
X205294534Y-15228458D01*
X205365180Y-15308127D01*
X205426804Y-15538109D01*
X205405457Y-15642427D01*
X205371785Y-15700748D01*
X205292117Y-15771394D01*
X205108131Y-15820693D01*
X205003813Y-15799346D01*
X204945492Y-15765674D01*
X204874846Y-15686006D01*
X187475663Y-10371985D02*
X187349999Y-10454956D01*
X187120016Y-10516579D01*
X187015699Y-10495232D01*
X186957378Y-10461561D01*
X186886732Y-10381892D01*
X186862082Y-10289900D01*
X186883429Y-10185582D01*
X186917101Y-10127261D01*
X186996769Y-10056615D01*
X187168430Y-9961319D01*
X187248099Y-9890674D01*
X187281770Y-9832352D01*
X187303117Y-9728035D01*
X187278468Y-9636042D01*
X187207822Y-9556374D01*
X187149501Y-9522702D01*
X187045183Y-9501355D01*
X186815201Y-9562978D01*
X186689536Y-9645949D01*
X186355236Y-9686226D02*
X186384073Y-10713775D01*
X186015216Y-10073127D01*
X186016101Y-10812373D01*
X185527300Y-9908070D01*
X185229974Y-10086336D02*
X185171653Y-10052665D01*
X185067335Y-10031318D01*
X184837353Y-10092941D01*
X184757684Y-10163587D01*
X184724013Y-10221908D01*
X184702666Y-10326226D01*
X184727315Y-10418219D01*
X184810286Y-10543884D01*
X185510140Y-10947945D01*
X184912186Y-11108166D01*
X184212332Y-10704105D02*
X184292000Y-10633459D01*
X184325672Y-10575138D01*
X184347019Y-10470820D01*
X184334694Y-10424824D01*
X184264048Y-10345155D01*
X184205727Y-10311484D01*
X184101409Y-10290137D01*
X183917423Y-10339435D01*
X183837755Y-10410081D01*
X183804083Y-10468403D01*
X183782736Y-10572720D01*
X183795061Y-10618717D01*
X183865707Y-10698385D01*
X183924028Y-10732057D01*
X184028346Y-10753404D01*
X184212332Y-10704105D01*
X184316649Y-10725452D01*
X184374971Y-10759124D01*
X184445616Y-10838792D01*
X184494915Y-11022778D01*
X184473568Y-11127095D01*
X184439896Y-11185417D01*
X184360228Y-11256062D01*
X184176242Y-11305361D01*
X184071925Y-11284014D01*
X184013604Y-11250343D01*
X183942958Y-11170674D01*
X183893659Y-10986688D01*
X183915006Y-10882371D01*
X183948678Y-10824050D01*
X184028346Y-10753404D01*
X167759976Y-10395584D02*
X167634312Y-10478555D01*
X167404329Y-10540178D01*
X167300012Y-10518831D01*
X167241691Y-10485160D01*
X167171045Y-10405491D01*
X167146395Y-10313499D01*
X167167742Y-10209181D01*
X167201414Y-10150860D01*
X167281082Y-10080214D01*
X167452743Y-9984918D01*
X167532412Y-9914273D01*
X167566083Y-9855951D01*
X167587430Y-9751634D01*
X167562781Y-9659641D01*
X167492135Y-9579973D01*
X167433814Y-9546301D01*
X167329496Y-9524954D01*
X167099514Y-9586577D01*
X166973849Y-9669548D01*
X166639549Y-9709825D02*
X166668386Y-10737374D01*
X166299529Y-10096726D01*
X166300414Y-10835972D01*
X165811613Y-9931669D01*
X165514287Y-10109935D02*
X165455966Y-10076264D01*
X165351648Y-10054917D01*
X165121666Y-10116540D01*
X165041997Y-10187186D01*
X165008326Y-10245507D01*
X164986979Y-10349825D01*
X165011628Y-10441818D01*
X165094599Y-10567483D01*
X165794453Y-10971544D01*
X165196499Y-11131765D01*
X164615705Y-10252112D02*
X163971754Y-10424658D01*
X164644541Y-11279661D01*
X150673891Y-20232989D02*
X150548227Y-20315960D01*
X150318244Y-20377583D01*
X150213927Y-20356236D01*
X150155606Y-20322565D01*
X150084960Y-20242896D01*
X150060310Y-20150904D01*
X150081657Y-20046586D01*
X150115329Y-19988265D01*
X150194997Y-19917619D01*
X150366658Y-19822323D01*
X150446327Y-19751678D01*
X150479998Y-19693356D01*
X150501345Y-19589039D01*
X150476696Y-19497046D01*
X150406050Y-19417378D01*
X150347729Y-19383706D01*
X150243411Y-19362359D01*
X150013429Y-19423982D01*
X149887764Y-19506953D01*
X149553464Y-19547230D02*
X149582301Y-20574779D01*
X149213444Y-19934131D01*
X149214329Y-20673377D01*
X148725528Y-19769074D01*
X148428202Y-19947340D02*
X148369881Y-19913669D01*
X148265563Y-19892322D01*
X148035581Y-19953945D01*
X147955912Y-20024591D01*
X147922241Y-20082912D01*
X147900894Y-20187230D01*
X147925543Y-20279223D01*
X148008514Y-20404888D01*
X148708368Y-20808949D01*
X148110414Y-20969170D01*
X147023658Y-20225089D02*
X147207644Y-20175790D01*
X147311962Y-20197137D01*
X147370283Y-20230809D01*
X147499250Y-20344149D01*
X147594546Y-20515810D01*
X147693143Y-20883782D01*
X147671796Y-20988099D01*
X147638124Y-21046421D01*
X147558456Y-21117066D01*
X147374470Y-21166365D01*
X147270153Y-21145018D01*
X147211832Y-21111347D01*
X147141186Y-21031678D01*
X147079562Y-20801696D01*
X147100909Y-20697378D01*
X147134581Y-20639057D01*
X147214249Y-20568411D01*
X147398235Y-20519112D01*
X147502553Y-20540459D01*
X147560874Y-20574131D01*
X147631520Y-20653799D01*
X132930405Y-27616943D02*
X132804741Y-27699914D01*
X132574758Y-27761537D01*
X132470441Y-27740190D01*
X132412120Y-27706519D01*
X132341474Y-27626850D01*
X132316824Y-27534858D01*
X132338171Y-27430540D01*
X132371843Y-27372219D01*
X132451511Y-27301573D01*
X132623172Y-27206277D01*
X132702841Y-27135632D01*
X132736512Y-27077310D01*
X132757859Y-26972993D01*
X132733210Y-26881000D01*
X132662564Y-26801332D01*
X132604243Y-26767660D01*
X132499925Y-26746313D01*
X132269943Y-26807936D01*
X132144278Y-26890907D01*
X131809978Y-26931184D02*
X131838815Y-27958733D01*
X131469958Y-27318085D01*
X131470843Y-28057331D01*
X130982042Y-27153028D01*
X130684716Y-27331294D02*
X130626395Y-27297623D01*
X130522077Y-27276276D01*
X130292095Y-27337899D01*
X130212426Y-27408545D01*
X130178755Y-27466866D01*
X130157408Y-27571184D01*
X130182057Y-27663177D01*
X130265028Y-27788842D01*
X130964882Y-28192903D01*
X130366928Y-28353124D01*
X129234176Y-27621368D02*
X129694141Y-27498120D01*
X129863384Y-27945760D01*
X129805063Y-27912089D01*
X129700745Y-27890742D01*
X129470763Y-27952365D01*
X129391095Y-28023011D01*
X129357423Y-28081332D01*
X129336076Y-28185650D01*
X129397700Y-28415632D01*
X129468346Y-28495301D01*
X129526667Y-28528972D01*
X129630984Y-28550319D01*
X129860967Y-28488696D01*
X129940635Y-28418050D01*
X129974307Y-28359729D01*
X203575647Y3145598D02*
X203449983Y3062627D01*
X203220000Y3001004D01*
X203115683Y3022351D01*
X203057362Y3056022D01*
X202986716Y3135691D01*
X202962066Y3227683D01*
X202983413Y3332001D01*
X203017085Y3390322D01*
X203096753Y3460968D01*
X203268414Y3556264D01*
X203348083Y3626909D01*
X203381754Y3685231D01*
X203403101Y3789548D01*
X203378452Y3881541D01*
X203307806Y3961209D01*
X203249485Y3994881D01*
X203145167Y4016228D01*
X202915185Y3954605D01*
X202789520Y3871634D01*
X202455220Y3831357D02*
X202484057Y2803808D01*
X202115200Y3444456D01*
X202116085Y2705210D01*
X201627284Y3609513D01*
X201329958Y3431247D02*
X201271637Y3464918D01*
X201167319Y3486265D01*
X200937337Y3424642D01*
X200857668Y3353996D01*
X200823997Y3295675D01*
X200802650Y3191357D01*
X200827299Y3099364D01*
X200910270Y2973699D01*
X201610124Y2569638D01*
X201012170Y2409417D01*
X200431376Y3289070D02*
X199833421Y3128849D01*
X200253994Y2847150D01*
X200116005Y2810176D01*
X200036337Y2739530D01*
X200002665Y2681209D01*
X199981318Y2576891D01*
X200042942Y2346909D01*
X200113588Y2267240D01*
X200171909Y2233569D01*
X200276226Y2212222D01*
X200552205Y2286170D01*
X200631873Y2356816D01*
X200665545Y2415137D01*
X182545161Y8028901D02*
X182419497Y7945930D01*
X182189514Y7884307D01*
X182085197Y7905654D01*
X182026876Y7939325D01*
X181956230Y8018994D01*
X181931580Y8110986D01*
X181952927Y8215304D01*
X181986599Y8273625D01*
X182066267Y8344271D01*
X182237928Y8439567D01*
X182317597Y8510212D01*
X182351268Y8568534D01*
X182372615Y8672851D01*
X182347966Y8764844D01*
X182277320Y8844512D01*
X182218999Y8878184D01*
X182114681Y8899531D01*
X181884699Y8837908D01*
X181759034Y8754937D01*
X181424734Y8714660D02*
X181453571Y7687111D01*
X181084714Y8327759D01*
X181085599Y7588513D01*
X180596798Y8492816D01*
X180299472Y8314550D02*
X180241151Y8348221D01*
X180136833Y8369568D01*
X179906851Y8307945D01*
X179827182Y8237299D01*
X179793511Y8178978D01*
X179772164Y8074660D01*
X179796813Y7982667D01*
X179879784Y7857002D01*
X180579638Y7452941D01*
X179981684Y7292720D01*
X179379543Y8068055D02*
X179321221Y8101727D01*
X179216904Y8123074D01*
X178986921Y8061451D01*
X178907253Y7990805D01*
X178873581Y7932483D01*
X178852234Y7828166D01*
X178876884Y7736173D01*
X178959854Y7610508D01*
X179659709Y7206447D01*
X179061755Y7046226D01*
X162829474Y8005302D02*
X162703810Y7922331D01*
X162473827Y7860708D01*
X162369510Y7882055D01*
X162311189Y7915726D01*
X162240543Y7995395D01*
X162215893Y8087387D01*
X162237240Y8191705D01*
X162270912Y8250026D01*
X162350580Y8320672D01*
X162522241Y8415968D01*
X162601910Y8486613D01*
X162635581Y8544935D01*
X162656928Y8649252D01*
X162632279Y8741245D01*
X162561633Y8820913D01*
X162503312Y8854585D01*
X162398994Y8875932D01*
X162169012Y8814309D01*
X162043347Y8731338D01*
X161709047Y8691061D02*
X161737884Y7663512D01*
X161369027Y8304160D01*
X161369912Y7564914D01*
X160881111Y8469217D01*
X160583785Y8290951D02*
X160525464Y8324622D01*
X160421146Y8345969D01*
X160191164Y8284346D01*
X160111495Y8213700D01*
X160077824Y8155379D01*
X160056477Y8051061D01*
X160081126Y7959068D01*
X160164097Y7833403D01*
X160863951Y7429342D01*
X160265997Y7269121D01*
X159346068Y7022627D02*
X159898025Y7170523D01*
X159622046Y7096575D02*
X159363227Y8062501D01*
X159492194Y7949161D01*
X159608837Y7881817D01*
X159713154Y7860470D01*
X145743389Y-1832103D02*
X145617725Y-1915074D01*
X145387742Y-1976697D01*
X145283425Y-1955350D01*
X145225104Y-1921679D01*
X145154458Y-1842010D01*
X145129808Y-1750018D01*
X145151155Y-1645700D01*
X145184827Y-1587379D01*
X145264495Y-1516733D01*
X145436156Y-1421437D01*
X145515825Y-1350792D01*
X145549496Y-1292470D01*
X145570843Y-1188153D01*
X145546194Y-1096160D01*
X145475548Y-1016492D01*
X145417227Y-982820D01*
X145312909Y-961473D01*
X145082927Y-1023096D01*
X144957262Y-1106067D01*
X144622962Y-1146344D02*
X144651799Y-2173893D01*
X144282942Y-1533245D01*
X144283827Y-2272491D01*
X143795026Y-1368188D01*
X143497700Y-1546454D02*
X143439379Y-1512783D01*
X143335061Y-1491436D01*
X143105079Y-1553059D01*
X143025410Y-1623705D01*
X142991739Y-1682026D01*
X142970392Y-1786344D01*
X142995041Y-1878337D01*
X143078012Y-2004002D01*
X143777866Y-2408063D01*
X143179912Y-2568284D01*
X142323139Y-1762579D02*
X142231146Y-1787229D01*
X142151478Y-1857875D01*
X142117806Y-1916196D01*
X142096459Y-2020513D01*
X142099761Y-2216824D01*
X142161385Y-2446806D01*
X142256680Y-2618468D01*
X142327326Y-2698136D01*
X142385647Y-2731808D01*
X142489965Y-2753155D01*
X142581958Y-2728505D01*
X142661626Y-2657859D01*
X142695298Y-2599538D01*
X142716645Y-2495220D01*
X142713342Y-2298910D01*
X142651719Y-2068927D01*
X142556423Y-1897266D01*
X142485778Y-1817598D01*
X142427456Y-1783926D01*
X142323139Y-1762579D01*
X127999903Y-9216057D02*
X127874239Y-9299028D01*
X127644256Y-9360651D01*
X127539939Y-9339304D01*
X127481618Y-9305633D01*
X127410972Y-9225964D01*
X127386322Y-9133972D01*
X127407669Y-9029654D01*
X127441341Y-8971333D01*
X127521009Y-8900687D01*
X127692670Y-8805391D01*
X127772339Y-8734746D01*
X127806010Y-8676424D01*
X127827357Y-8572107D01*
X127802708Y-8480114D01*
X127732062Y-8400446D01*
X127673741Y-8366774D01*
X127569423Y-8345427D01*
X127339441Y-8407050D01*
X127213776Y-8490021D01*
X126879476Y-8530298D02*
X126908313Y-9557847D01*
X126539456Y-8917199D01*
X126540341Y-9656445D01*
X126051540Y-8752142D01*
X125436426Y-9952238D02*
X125988383Y-9804341D01*
X125712405Y-9878290D02*
X125453586Y-8912364D01*
X125582553Y-9025704D01*
X125699195Y-9093047D01*
X125803513Y-9114394D01*
X124976461Y-10075485D02*
X124792475Y-10124784D01*
X124688158Y-10103437D01*
X124629836Y-10069765D01*
X124500869Y-9956425D01*
X124405574Y-9784764D01*
X124306976Y-9416792D01*
X124328323Y-9312475D01*
X124361995Y-9254153D01*
X124441663Y-9183507D01*
X124625649Y-9134209D01*
X124729967Y-9155556D01*
X124788288Y-9189227D01*
X124858934Y-9268896D01*
X124920558Y-9498878D01*
X124899211Y-9603196D01*
X124865539Y-9661517D01*
X124785871Y-9732163D01*
X124601885Y-9781462D01*
X124497567Y-9760115D01*
X124439246Y-9726443D01*
X124368600Y-9646775D01*
X66866419Y-46954508D02*
X66716105Y-46963530D01*
X66486123Y-46901906D01*
X66406455Y-46831261D01*
X66372783Y-46772939D01*
X66351436Y-46668622D01*
X66376085Y-46576629D01*
X66446731Y-46496961D01*
X66505052Y-46463289D01*
X66609370Y-46441942D01*
X66805680Y-46445244D01*
X66909998Y-46423897D01*
X66968319Y-46390225D01*
X67038965Y-46310557D01*
X67063615Y-46218564D01*
X67042268Y-46114247D01*
X67008596Y-46055925D01*
X66928928Y-45985279D01*
X66698945Y-45923656D01*
X66548631Y-45932678D01*
X66238981Y-45800409D02*
X65750179Y-46704711D01*
X65751064Y-45965465D01*
X65382208Y-46606113D01*
X65411044Y-45578564D01*
X64278292Y-46310320D02*
X64830250Y-46458217D01*
X64554271Y-46384268D02*
X64813090Y-45418343D01*
X64868109Y-45580981D01*
X64935452Y-45697624D01*
X65015121Y-45768270D01*
X63874231Y-45610466D02*
X63978549Y-45589119D01*
X64036870Y-45555447D01*
X64107516Y-45475779D01*
X64119841Y-45429782D01*
X64098494Y-45325465D01*
X64064822Y-45267144D01*
X63985154Y-45196498D01*
X63801168Y-45147199D01*
X63696850Y-45168546D01*
X63638529Y-45202218D01*
X63567883Y-45281886D01*
X63555558Y-45327882D01*
X63576905Y-45432200D01*
X63610577Y-45490521D01*
X63690245Y-45561167D01*
X63874231Y-45610466D01*
X63953899Y-45681112D01*
X63987571Y-45739433D01*
X64008918Y-45843751D01*
X63959619Y-46027736D01*
X63888973Y-46107405D01*
X63830652Y-46141076D01*
X63726335Y-46162423D01*
X63542349Y-46113125D01*
X63462681Y-46042479D01*
X63429009Y-45984158D01*
X63407662Y-45879840D01*
X63456961Y-45695854D01*
X63527607Y-45616186D01*
X63585928Y-45582514D01*
X63690245Y-45561167D01*
X49122933Y-39570554D02*
X48972619Y-39579576D01*
X48742637Y-39517952D01*
X48662969Y-39447307D01*
X48629297Y-39388985D01*
X48607950Y-39284668D01*
X48632599Y-39192675D01*
X48703245Y-39113007D01*
X48761566Y-39079335D01*
X48865884Y-39057988D01*
X49062194Y-39061290D01*
X49166512Y-39039943D01*
X49224833Y-39006271D01*
X49295479Y-38926603D01*
X49320129Y-38834610D01*
X49298782Y-38730293D01*
X49265110Y-38671971D01*
X49185442Y-38601325D01*
X48955459Y-38539702D01*
X48805145Y-38548724D01*
X48495495Y-38416455D02*
X48006693Y-39320757D01*
X48007578Y-38581511D01*
X47638722Y-39222159D01*
X47667558Y-38194610D01*
X46534806Y-38926366D02*
X47086764Y-39074263D01*
X46810785Y-39000314D02*
X47069604Y-38034389D01*
X47124623Y-38197027D01*
X47191966Y-38313670D01*
X47271635Y-38384316D01*
X46471650Y-37874167D02*
X45827699Y-37701621D01*
X45982849Y-38778469D01*
X32036848Y-29733149D02*
X31886534Y-29742171D01*
X31656552Y-29680547D01*
X31576884Y-29609902D01*
X31543212Y-29551580D01*
X31521865Y-29447263D01*
X31546514Y-29355270D01*
X31617160Y-29275602D01*
X31675481Y-29241930D01*
X31779799Y-29220583D01*
X31976109Y-29223885D01*
X32080427Y-29202538D01*
X32138748Y-29168866D01*
X32209394Y-29089198D01*
X32234044Y-28997205D01*
X32212697Y-28892888D01*
X32179025Y-28834566D01*
X32099357Y-28763920D01*
X31869374Y-28702297D01*
X31719060Y-28711319D01*
X31409410Y-28579050D02*
X30920608Y-29483352D01*
X30921493Y-28744106D01*
X30552637Y-29384754D01*
X30581473Y-28357205D01*
X29448721Y-29088961D02*
X30000679Y-29236858D01*
X29724700Y-29162909D02*
X29983519Y-28196984D01*
X30038538Y-28359622D01*
X30105881Y-28476265D01*
X30185550Y-28546911D01*
X28879604Y-27901190D02*
X29063590Y-27950489D01*
X29143258Y-28021135D01*
X29176930Y-28079456D01*
X29231949Y-28242095D01*
X29228646Y-28438406D01*
X29130048Y-28806377D01*
X29059402Y-28886046D01*
X29001081Y-28919717D01*
X28896764Y-28941064D01*
X28712778Y-28891766D01*
X28633110Y-28821120D01*
X28599438Y-28762799D01*
X28578091Y-28658481D01*
X28639714Y-28428499D01*
X28710360Y-28348830D01*
X28768681Y-28315159D01*
X28872999Y-28293812D01*
X29056985Y-28343110D01*
X29136653Y-28413756D01*
X29170325Y-28472077D01*
X29191672Y-28576395D01*
X12321161Y-29709550D02*
X12170847Y-29718572D01*
X11940865Y-29656948D01*
X11861197Y-29586303D01*
X11827525Y-29527981D01*
X11806178Y-29423664D01*
X11830827Y-29331671D01*
X11901473Y-29252003D01*
X11959794Y-29218331D01*
X12064112Y-29196984D01*
X12260422Y-29200286D01*
X12364740Y-29178939D01*
X12423061Y-29145267D01*
X12493707Y-29065599D01*
X12518357Y-28973606D01*
X12497010Y-28869289D01*
X12463338Y-28810967D01*
X12383670Y-28740321D01*
X12153687Y-28678698D01*
X12003373Y-28687720D01*
X11693723Y-28555451D02*
X11204921Y-29459753D01*
X11205806Y-28720507D01*
X10836950Y-29361155D01*
X10865786Y-28333606D01*
X9733034Y-29065362D02*
X10284992Y-29213259D01*
X10009013Y-29139310D02*
X10267832Y-28173385D01*
X10322851Y-28336023D01*
X10390194Y-28452666D01*
X10469863Y-28523312D01*
X9117920Y-27865267D02*
X9577885Y-27988514D01*
X9500634Y-28460803D01*
X9466963Y-28402482D01*
X9387294Y-28331836D01*
X9157312Y-28270213D01*
X9052994Y-28291560D01*
X8994673Y-28325231D01*
X8924027Y-28404900D01*
X8862404Y-28634882D01*
X8883751Y-28739200D01*
X8917423Y-28797521D01*
X8997091Y-28868167D01*
X9227073Y-28929790D01*
X9331391Y-28908443D01*
X9389712Y-28874771D01*
X-8709325Y-34592854D02*
X-8859639Y-34601876D01*
X-9089621Y-34540252D01*
X-9169289Y-34469607D01*
X-9202961Y-34411285D01*
X-9224308Y-34306968D01*
X-9199659Y-34214975D01*
X-9129013Y-34135307D01*
X-9070692Y-34101635D01*
X-8966374Y-34080288D01*
X-8770064Y-34083590D01*
X-8665746Y-34062243D01*
X-8607425Y-34028571D01*
X-8536779Y-33948903D01*
X-8512129Y-33856910D01*
X-8533476Y-33752593D01*
X-8567148Y-33694271D01*
X-8646816Y-33623625D01*
X-8876799Y-33562002D01*
X-9027113Y-33571024D01*
X-9336763Y-33438755D02*
X-9825565Y-34343057D01*
X-9824680Y-33603811D01*
X-10193536Y-34244459D01*
X-10164700Y-33216910D01*
X-11297452Y-33948666D02*
X-10745494Y-34096563D01*
X-11021473Y-34022614D02*
X-10762654Y-33056689D01*
X-10707635Y-33219327D01*
X-10640292Y-33335970D01*
X-10560623Y-33406616D01*
X-11952842Y-33082871D02*
X-12125388Y-33726821D01*
X-11624262Y-32776522D02*
X-11579150Y-33528093D01*
X-12177105Y-33367872D01*
X71796921Y-28553622D02*
X71646607Y-28562644D01*
X71416625Y-28501020D01*
X71336957Y-28430375D01*
X71303285Y-28372053D01*
X71281938Y-28267736D01*
X71306587Y-28175743D01*
X71377233Y-28096075D01*
X71435554Y-28062403D01*
X71539872Y-28041056D01*
X71736182Y-28044358D01*
X71840500Y-28023011D01*
X71898821Y-27989339D01*
X71969467Y-27909671D01*
X71994117Y-27817678D01*
X71972770Y-27713361D01*
X71939098Y-27655039D01*
X71859430Y-27584393D01*
X71629447Y-27522770D01*
X71479133Y-27531792D01*
X71169483Y-27399523D02*
X70680681Y-28303825D01*
X70681566Y-27564579D01*
X70312710Y-28205227D01*
X70341546Y-27177678D01*
X69208794Y-27909434D02*
X69760752Y-28057331D01*
X69484773Y-27983382D02*
X69743592Y-27017457D01*
X69798611Y-27180095D01*
X69865954Y-27296738D01*
X69945623Y-27367384D01*
X69074992Y-26936903D02*
X69041320Y-26878582D01*
X68961652Y-26807936D01*
X68731670Y-26746313D01*
X68627352Y-26767660D01*
X68569031Y-26801332D01*
X68498385Y-26881000D01*
X68473736Y-26972993D01*
X68482758Y-27123307D01*
X68886819Y-27823161D01*
X68288865Y-27662940D01*
X54053435Y-21169668D02*
X53903121Y-21178690D01*
X53673139Y-21117066D01*
X53593471Y-21046421D01*
X53559799Y-20988099D01*
X53538452Y-20883782D01*
X53563101Y-20791789D01*
X53633747Y-20712121D01*
X53692068Y-20678449D01*
X53796386Y-20657102D01*
X53992696Y-20660404D01*
X54097014Y-20639057D01*
X54155335Y-20605385D01*
X54225981Y-20525717D01*
X54250631Y-20433724D01*
X54229284Y-20329407D01*
X54195612Y-20271085D01*
X54115944Y-20200439D01*
X53885961Y-20138816D01*
X53735647Y-20147838D01*
X53425997Y-20015569D02*
X52937195Y-20919871D01*
X52938080Y-20180625D01*
X52569224Y-20821273D01*
X52598060Y-19793724D01*
X51465308Y-20525480D02*
X52017266Y-20673377D01*
X51741287Y-20599428D02*
X52000106Y-19633503D01*
X52055125Y-19796141D01*
X52122468Y-19912784D01*
X52202137Y-19983430D01*
X50545379Y-20278986D02*
X51097337Y-20426882D01*
X50821358Y-20352934D02*
X51080177Y-19387008D01*
X51135196Y-19549647D01*
X51202539Y-19666289D01*
X51282207Y-19736935D01*
X36967350Y-11332263D02*
X36817036Y-11341285D01*
X36587054Y-11279661D01*
X36507386Y-11209016D01*
X36473714Y-11150694D01*
X36452367Y-11046377D01*
X36477016Y-10954384D01*
X36547662Y-10874716D01*
X36605983Y-10841044D01*
X36710301Y-10819697D01*
X36906611Y-10822999D01*
X37010929Y-10801652D01*
X37069250Y-10767980D01*
X37139896Y-10688312D01*
X37164546Y-10596319D01*
X37143199Y-10492002D01*
X37109527Y-10433680D01*
X37029859Y-10363034D01*
X36799876Y-10301411D01*
X36649562Y-10310433D01*
X36339912Y-10178164D02*
X35851110Y-11082466D01*
X35851995Y-10343220D01*
X35483139Y-10983868D01*
X35511975Y-9956319D01*
X34379223Y-10688075D02*
X34931181Y-10835972D01*
X34655202Y-10762023D02*
X34914021Y-9796098D01*
X34969040Y-9958736D01*
X35036383Y-10075379D01*
X35116052Y-10146025D01*
X34040088Y-9561928D02*
X33948095Y-9537278D01*
X33843778Y-9558626D01*
X33785456Y-9592297D01*
X33714811Y-9671965D01*
X33619515Y-9843627D01*
X33557892Y-10073609D01*
X33554589Y-10269920D01*
X33575936Y-10374237D01*
X33609608Y-10432558D01*
X33689276Y-10503204D01*
X33781269Y-10527854D01*
X33885587Y-10506507D01*
X33943908Y-10472835D01*
X34014554Y-10393167D01*
X34109849Y-10221506D01*
X34171473Y-9991523D01*
X34174775Y-9795213D01*
X34153428Y-9690895D01*
X34119756Y-9632574D01*
X34040088Y-9561928D01*
X16791699Y-11185417D02*
X16641384Y-11194439D01*
X16411402Y-11132815D01*
X16331734Y-11062169D01*
X16298062Y-11003848D01*
X16276715Y-10899531D01*
X16301364Y-10807538D01*
X16372010Y-10727869D01*
X16430332Y-10694198D01*
X16534649Y-10672851D01*
X16730960Y-10676153D01*
X16835277Y-10654806D01*
X16893599Y-10621134D01*
X16964245Y-10541466D01*
X16988894Y-10449473D01*
X16967547Y-10345155D01*
X16933875Y-10286834D01*
X16854207Y-10216188D01*
X16624225Y-10154565D01*
X16473911Y-10163587D01*
X16164260Y-10031318D02*
X15675459Y-10935620D01*
X15676343Y-10196374D01*
X15307487Y-10837022D01*
X15336324Y-9809473D01*
X14663536Y-10664476D02*
X14479550Y-10615177D01*
X14399882Y-10544531D01*
X14366210Y-10486210D01*
X14311192Y-10323571D01*
X14314494Y-10127261D01*
X14413092Y-9759289D01*
X14483738Y-9679621D01*
X14542059Y-9645949D01*
X14646377Y-9624602D01*
X14830362Y-9673901D01*
X14910031Y-9744547D01*
X14943702Y-9802868D01*
X14965049Y-9907186D01*
X14903426Y-10137168D01*
X14832780Y-10216836D01*
X14774459Y-10250508D01*
X14670141Y-10271855D01*
X14486155Y-10222556D01*
X14406487Y-10151910D01*
X14372815Y-10093589D01*
X14351468Y-9989271D01*
X-4238787Y-16068721D02*
X-4389102Y-16077743D01*
X-4619084Y-16016119D01*
X-4698752Y-15945473D01*
X-4732424Y-15887152D01*
X-4753771Y-15782835D01*
X-4729122Y-15690842D01*
X-4658476Y-15611173D01*
X-4600154Y-15577502D01*
X-4495837Y-15556155D01*
X-4299526Y-15559457D01*
X-4195209Y-15538110D01*
X-4136887Y-15504438D01*
X-4066241Y-15424770D01*
X-4041592Y-15332777D01*
X-4062939Y-15228459D01*
X-4096611Y-15170138D01*
X-4176279Y-15099492D01*
X-4406261Y-15037869D01*
X-4556575Y-15046891D01*
X-4866226Y-14914622D02*
X-5355027Y-15818924D01*
X-5354143Y-15079678D01*
X-5722999Y-15720326D01*
X-5694162Y-14692777D01*
X-6311046Y-14971173D02*
X-6206728Y-14949826D01*
X-6148407Y-14916154D01*
X-6077761Y-14836486D01*
X-6065437Y-14790490D01*
X-6086784Y-14686172D01*
X-6120455Y-14627851D01*
X-6200124Y-14557205D01*
X-6384109Y-14507906D01*
X-6488427Y-14529253D01*
X-6546748Y-14562925D01*
X-6617394Y-14642593D01*
X-6629719Y-14688589D01*
X-6608372Y-14792907D01*
X-6574700Y-14851228D01*
X-6495032Y-14921874D01*
X-6311046Y-14971173D01*
X-6231378Y-15041819D01*
X-6197706Y-15100140D01*
X-6176359Y-15204458D01*
X-6225658Y-15388444D01*
X-6296304Y-15468112D01*
X-6354625Y-15501784D01*
X-6458943Y-15523131D01*
X-6642929Y-15473832D01*
X-6722597Y-15403186D01*
X-6756269Y-15344865D01*
X-6777616Y-15240547D01*
X-6728317Y-15056561D01*
X-6657671Y-14976893D01*
X-6599350Y-14943221D01*
X-6495032Y-14921874D01*
X76267459Y-10029489D02*
X76117144Y-10038511D01*
X75887162Y-9976887D01*
X75807494Y-9906241D01*
X75773822Y-9847920D01*
X75752475Y-9743603D01*
X75777124Y-9651610D01*
X75847770Y-9571941D01*
X75906092Y-9538270D01*
X76010409Y-9516923D01*
X76206720Y-9520225D01*
X76311037Y-9498878D01*
X76369359Y-9465206D01*
X76440005Y-9385538D01*
X76464654Y-9293545D01*
X76443307Y-9189227D01*
X76409635Y-9130906D01*
X76329967Y-9060260D01*
X76099985Y-8998637D01*
X75949671Y-9007659D01*
X75640020Y-8875390D02*
X75151219Y-9779692D01*
X75152103Y-9040446D01*
X74783247Y-9681094D01*
X74812084Y-8653545D01*
X74030144Y-8444024D02*
X74214129Y-8493323D01*
X74293798Y-8563969D01*
X74327469Y-8622290D01*
X74382488Y-8784929D01*
X74379186Y-8981240D01*
X74280588Y-9349212D01*
X74209942Y-9428880D01*
X74151621Y-9462552D01*
X74047303Y-9483899D01*
X73863317Y-9434600D01*
X73783649Y-9363954D01*
X73749977Y-9305633D01*
X73728630Y-9201315D01*
X73790254Y-8971333D01*
X73860900Y-8891664D01*
X73919221Y-8857993D01*
X74023539Y-8836646D01*
X74207525Y-8885945D01*
X74287193Y-8956590D01*
X74320865Y-9014912D01*
X74342212Y-9119229D01*
X58523973Y-2645535D02*
X58373658Y-2654557D01*
X58143676Y-2592933D01*
X58064008Y-2522287D01*
X58030336Y-2463966D01*
X58008989Y-2359649D01*
X58033638Y-2267656D01*
X58104284Y-2187987D01*
X58162606Y-2154316D01*
X58266923Y-2132969D01*
X58463234Y-2136271D01*
X58567551Y-2114924D01*
X58625873Y-2081252D01*
X58696519Y-2001584D01*
X58721168Y-1909591D01*
X58699821Y-1805273D01*
X58666149Y-1746952D01*
X58586481Y-1676306D01*
X58356499Y-1614683D01*
X58206185Y-1623705D01*
X57896534Y-1491436D02*
X57407733Y-2395738D01*
X57408617Y-1656492D01*
X57039761Y-2297140D01*
X57068598Y-1269591D01*
X56240661Y-1047746D02*
X56700626Y-1170993D01*
X56623375Y-1643282D01*
X56589703Y-1584961D01*
X56510035Y-1514315D01*
X56280053Y-1452692D01*
X56175735Y-1474039D01*
X56117414Y-1507710D01*
X56046768Y-1587379D01*
X55985144Y-1817361D01*
X56006491Y-1921679D01*
X56040163Y-1980000D01*
X56119831Y-2050646D01*
X56349814Y-2112269D01*
X56454131Y-2090922D01*
X56512453Y-2057251D01*
X41437888Y7191870D02*
X41287573Y7182848D01*
X41057591Y7244472D01*
X40977923Y7315118D01*
X40944251Y7373439D01*
X40922904Y7477756D01*
X40947553Y7569749D01*
X41018199Y7649418D01*
X41076521Y7683089D01*
X41180838Y7704436D01*
X41377149Y7701134D01*
X41481466Y7722481D01*
X41539788Y7756153D01*
X41610434Y7835821D01*
X41635083Y7927814D01*
X41613736Y8032132D01*
X41580064Y8090453D01*
X41500396Y8161099D01*
X41270414Y8222722D01*
X41120100Y8213700D01*
X40810449Y8345969D02*
X40321648Y7441667D01*
X40322532Y8180913D01*
X39953676Y7540265D01*
X39982513Y8567814D01*
X39114300Y8455359D02*
X38941754Y7811409D01*
X39442880Y8761707D02*
X39487991Y8010137D01*
X38890037Y8170358D01*
X21722201Y7215469D02*
X21571886Y7206447D01*
X21341904Y7268071D01*
X21262236Y7338717D01*
X21228564Y7397038D01*
X21207217Y7501355D01*
X21231866Y7593348D01*
X21302512Y7673017D01*
X21360834Y7706688D01*
X21465151Y7728035D01*
X21661462Y7724733D01*
X21765779Y7746080D01*
X21824101Y7779752D01*
X21894747Y7859420D01*
X21919396Y7951413D01*
X21898049Y8055731D01*
X21864377Y8114052D01*
X21784709Y8184698D01*
X21554727Y8246321D01*
X21404413Y8237299D01*
X21094762Y8369568D02*
X20605961Y7465266D01*
X20606845Y8204512D01*
X20237989Y7563864D01*
X20266826Y8591413D01*
X19990847Y8665362D02*
X19392893Y8825583D01*
X19616270Y8371338D01*
X19478281Y8408312D01*
X19373963Y8386965D01*
X19315642Y8353294D01*
X19244996Y8273625D01*
X19183372Y8043643D01*
X19204719Y7939325D01*
X19238391Y7881004D01*
X19318059Y7810358D01*
X19594038Y7736410D01*
X19698356Y7757757D01*
X19756677Y7791429D01*
X691715Y2332165D02*
X541400Y2323143D01*
X311418Y2384767D01*
X231750Y2455413D01*
X198078Y2513734D01*
X176731Y2618051D01*
X201380Y2710044D01*
X272026Y2789713D01*
X330348Y2823384D01*
X434665Y2844731D01*
X630976Y2841429D01*
X735293Y2862776D01*
X793615Y2896448D01*
X864261Y2976116D01*
X888910Y3068109D01*
X867563Y3172427D01*
X833891Y3230748D01*
X754223Y3301394D01*
X524241Y3363017D01*
X373927Y3353995D01*
X64276Y3486264D02*
X-424525Y2581962D01*
X-423641Y3321208D01*
X-792497Y2680560D01*
X-763660Y3708109D01*
X-1110285Y3702389D02*
X-1143957Y3760711D01*
X-1223625Y3831356D01*
X-1453607Y3892980D01*
X-1557925Y3871633D01*
X-1616246Y3837961D01*
X-1686892Y3758293D01*
X-1711542Y3666300D01*
X-1702519Y3515986D01*
X-1298458Y2816132D01*
X-1896412Y2976353D01*
X10831022Y3954041D02*
X9865096Y4212860D01*
X9803473Y3982878D01*
X9812495Y3832564D01*
X9879838Y3715921D01*
X9959507Y3645275D01*
X10131168Y3549980D01*
X10269157Y3513006D01*
X10465468Y3509703D01*
X10569785Y3531050D01*
X10686428Y3598394D01*
X10769398Y3724059D01*
X10831022Y3954041D01*
X9710595Y3268281D02*
X9652274Y3234609D01*
X9581628Y3154941D01*
X9520004Y2924959D01*
X9541351Y2820641D01*
X9575023Y2762320D01*
X9654691Y2691674D01*
X9746684Y2667025D01*
X9896998Y2676047D01*
X10596852Y3080108D01*
X10436631Y2482154D01*
X31861508Y8837345D02*
X30895582Y9096164D01*
X30833959Y8866182D01*
X30842981Y8715868D01*
X30910324Y8599225D01*
X30989993Y8528579D01*
X31161654Y8433284D01*
X31299643Y8396310D01*
X31495954Y8393007D01*
X31600271Y8414354D01*
X31716914Y8481698D01*
X31799884Y8607363D01*
X31861508Y8837345D01*
X30661413Y8222231D02*
X30501191Y7624277D01*
X30955436Y7847655D01*
X30918462Y7709665D01*
X30939809Y7605348D01*
X30973481Y7547026D01*
X31053149Y7476380D01*
X31283131Y7414757D01*
X31387449Y7436104D01*
X31445770Y7469776D01*
X31516416Y7549444D01*
X31590364Y7825423D01*
X31569017Y7929740D01*
X31535346Y7988061D01*
X51577195Y8813746D02*
X50611269Y9072565D01*
X50549646Y8842583D01*
X50558668Y8692269D01*
X50626011Y8575626D01*
X50705680Y8504980D01*
X50877341Y8409685D01*
X51015330Y8372711D01*
X51211641Y8369408D01*
X51315958Y8390755D01*
X51432601Y8458099D01*
X51515571Y8583764D01*
X51577195Y8813746D01*
X50563503Y7606398D02*
X51207454Y7433852D01*
X50257155Y7934978D02*
X51008725Y7980090D01*
X50848504Y7382136D01*
X68663280Y-1023659D02*
X67697354Y-764840D01*
X67635731Y-994822D01*
X67644753Y-1145136D01*
X67712096Y-1261779D01*
X67791765Y-1332425D01*
X67963426Y-1427720D01*
X68101415Y-1464694D01*
X68297726Y-1467997D01*
X68402043Y-1446650D01*
X68518686Y-1379306D01*
X68601656Y-1253641D01*
X68663280Y-1023659D01*
X67315288Y-2190731D02*
X67438535Y-1730766D01*
X67910825Y-1808017D01*
X67852503Y-1841688D01*
X67781857Y-1921357D01*
X67720234Y-2151339D01*
X67741581Y-2255656D01*
X67775253Y-2313978D01*
X67854921Y-2384624D01*
X68084903Y-2446247D01*
X68189221Y-2424900D01*
X68247542Y-2391228D01*
X68318188Y-2311560D01*
X68379812Y-2081578D01*
X68358465Y-1977260D01*
X68324793Y-1918939D01*
X86406766Y-8407613D02*
X85440840Y-8148794D01*
X85379217Y-8378776D01*
X85388239Y-8529090D01*
X85455582Y-8645733D01*
X85535251Y-8716379D01*
X85706912Y-8811674D01*
X85844901Y-8848648D01*
X86041212Y-8851951D01*
X86145529Y-8830604D01*
X86262172Y-8763260D01*
X86345142Y-8637595D01*
X86406766Y-8407613D01*
X85071099Y-9528688D02*
X85120398Y-9344702D01*
X85191043Y-9265034D01*
X85249365Y-9231362D01*
X85412004Y-9176343D01*
X85608314Y-9179646D01*
X85976286Y-9278244D01*
X86055954Y-9348889D01*
X86089626Y-9407211D01*
X86110973Y-9511528D01*
X86061674Y-9695514D01*
X85991028Y-9775182D01*
X85932707Y-9808854D01*
X85828389Y-9830201D01*
X85598407Y-9768578D01*
X85518739Y-9697932D01*
X85485067Y-9639610D01*
X85463720Y-9535293D01*
X85513019Y-9351307D01*
X85583665Y-9271639D01*
X85641986Y-9237967D01*
X85746304Y-9216620D01*
X5900520Y-14446845D02*
X4934594Y-14188026D01*
X4872971Y-14418008D01*
X4881993Y-14568322D01*
X4949336Y-14684965D01*
X5029005Y-14755611D01*
X5200666Y-14850906D01*
X5338655Y-14887880D01*
X5534966Y-14891183D01*
X5639283Y-14869836D01*
X5755926Y-14802492D01*
X5838896Y-14676827D01*
X5900520Y-14446845D01*
X5052769Y-15402864D02*
X5031422Y-15298546D01*
X4997750Y-15240225D01*
X4918082Y-15169579D01*
X4872086Y-15157254D01*
X4767768Y-15178601D01*
X4709447Y-15212273D01*
X4638801Y-15291941D01*
X4589502Y-15475927D01*
X4610849Y-15580245D01*
X4644521Y-15638566D01*
X4724189Y-15709212D01*
X4770186Y-15721537D01*
X4874503Y-15700190D01*
X4932824Y-15666518D01*
X5003470Y-15586850D01*
X5052769Y-15402864D01*
X5123415Y-15323195D01*
X5181736Y-15289524D01*
X5286054Y-15268177D01*
X5470040Y-15317476D01*
X5549708Y-15388121D01*
X5583380Y-15446443D01*
X5604727Y-15550760D01*
X5555428Y-15734746D01*
X5484782Y-15814414D01*
X5426461Y-15848086D01*
X5322143Y-15869433D01*
X5138157Y-15820134D01*
X5058489Y-15749488D01*
X5024817Y-15691167D01*
X5003470Y-15586850D01*
X26931006Y-9563541D02*
X25965080Y-9304722D01*
X25903457Y-9534704D01*
X25912479Y-9685018D01*
X25979822Y-9801661D01*
X26059491Y-9872307D01*
X26231152Y-9967602D01*
X26369141Y-10004576D01*
X26565452Y-10007879D01*
X26669769Y-9986532D01*
X26786412Y-9919188D01*
X26869382Y-9793523D01*
X26931006Y-9563541D01*
X26659862Y-10575463D02*
X26610563Y-10759449D01*
X26539918Y-10839117D01*
X26481596Y-10872789D01*
X26318958Y-10927808D01*
X26122647Y-10924506D01*
X25754675Y-10825908D01*
X25675007Y-10755262D01*
X25641335Y-10696941D01*
X25619988Y-10592623D01*
X25669287Y-10408637D01*
X25739933Y-10328969D01*
X25798254Y-10295297D01*
X25902572Y-10273950D01*
X26132554Y-10335574D01*
X26212222Y-10406220D01*
X26245894Y-10464541D01*
X26267241Y-10568859D01*
X26217942Y-10752844D01*
X26147296Y-10832513D01*
X26088975Y-10866184D01*
X25984658Y-10887531D01*
X46769940Y-9127175D02*
X45804014Y-8868356D01*
X45742391Y-9098339D01*
X45751413Y-9248653D01*
X45818757Y-9365295D01*
X45898425Y-9435941D01*
X46070086Y-9531236D01*
X46208075Y-9568211D01*
X46404386Y-9571513D01*
X46508704Y-9550166D01*
X46625346Y-9482822D01*
X46708317Y-9357158D01*
X46769940Y-9127175D01*
X46375549Y-10599062D02*
X46523446Y-10047105D01*
X46449498Y-10323084D02*
X45483572Y-10064264D01*
X45646211Y-10009246D01*
X45762853Y-9941902D01*
X45833499Y-9862234D01*
X45249402Y-10938197D02*
X45224753Y-11030190D01*
X45246100Y-11134508D01*
X45279772Y-11192829D01*
X45359440Y-11263475D01*
X45531101Y-11358770D01*
X45761083Y-11420394D01*
X45957394Y-11423696D01*
X46061711Y-11402349D01*
X46120033Y-11368678D01*
X46190679Y-11289009D01*
X46215328Y-11197016D01*
X46193981Y-11092699D01*
X46160309Y-11034378D01*
X46080641Y-10963732D01*
X45908980Y-10868436D01*
X45678997Y-10806813D01*
X45482687Y-10803510D01*
X45378369Y-10824857D01*
X45320048Y-10858529D01*
X45249402Y-10938197D01*
X63856025Y-18964580D02*
X62890099Y-18705761D01*
X62828476Y-18935744D01*
X62837498Y-19086058D01*
X62904842Y-19202700D01*
X62984510Y-19273346D01*
X63156171Y-19368641D01*
X63294160Y-19405616D01*
X63490471Y-19408918D01*
X63594789Y-19387571D01*
X63711431Y-19320227D01*
X63794402Y-19194563D01*
X63856025Y-18964580D01*
X63461634Y-20436467D02*
X63609531Y-19884510D01*
X63535583Y-20160489D02*
X62569657Y-19901669D01*
X62732296Y-19846651D01*
X62848938Y-19779307D01*
X62919584Y-19699639D01*
X63215140Y-21356397D02*
X63363037Y-20804439D01*
X63289088Y-21080418D02*
X62323162Y-20821599D01*
X62485801Y-20766580D01*
X62602444Y-20699237D01*
X62673090Y-20619568D01*
X81599511Y-26348534D02*
X80633585Y-26089715D01*
X80571962Y-26319698D01*
X80580984Y-26470012D01*
X80648328Y-26586654D01*
X80727996Y-26657300D01*
X80899657Y-26752595D01*
X81037646Y-26789570D01*
X81233957Y-26792872D01*
X81338275Y-26771525D01*
X81454917Y-26704181D01*
X81537888Y-26578517D01*
X81599511Y-26348534D01*
X81205120Y-27820421D02*
X81353017Y-27268464D01*
X81279069Y-27544443D02*
X80313143Y-27285623D01*
X80475782Y-27230605D01*
X80592424Y-27163261D01*
X80663070Y-27083593D01*
X80232590Y-27954223D02*
X80174268Y-27987895D01*
X80103623Y-28067563D01*
X80041999Y-28297546D01*
X80063346Y-28401863D01*
X80097018Y-28460185D01*
X80176686Y-28530831D01*
X80268679Y-28555480D01*
X80418993Y-28546458D01*
X81118847Y-28142397D01*
X80958626Y-28740351D01*
X1093265Y-32387766D02*
X127339Y-32128947D01*
X65716Y-32358930D01*
X74738Y-32509244D01*
X142082Y-32625886D01*
X221750Y-32696532D01*
X393411Y-32791827D01*
X531400Y-32828802D01*
X727711Y-32832104D01*
X832029Y-32810757D01*
X948671Y-32743413D01*
X1031642Y-32617749D01*
X1093265Y-32387766D01*
X698874Y-33859653D02*
X846771Y-33307696D01*
X772823Y-33583675D02*
X-193103Y-33324855D01*
X-30464Y-33269837D01*
X86178Y-33202493D01*
X156824Y-33122825D01*
X-166921Y-34515044D02*
X477029Y-34687590D01*
X-473269Y-34186464D02*
X278301Y-34141352D01*
X118080Y-34739306D01*
X22123751Y-27504462D02*
X21157825Y-27245643D01*
X21096202Y-27475626D01*
X21105224Y-27625940D01*
X21172568Y-27742582D01*
X21252236Y-27813228D01*
X21423897Y-27908523D01*
X21561886Y-27945498D01*
X21758197Y-27948800D01*
X21862515Y-27927453D01*
X21979157Y-27860109D01*
X22062128Y-27734445D01*
X22123751Y-27504462D01*
X21729360Y-28976349D02*
X21877257Y-28424392D01*
X21803309Y-28700371D02*
X20837383Y-28441551D01*
X21000022Y-28386533D01*
X21116664Y-28319189D01*
X21187310Y-28239521D01*
X20529265Y-29591463D02*
X20652512Y-29131499D01*
X21124801Y-29208749D01*
X21066480Y-29242421D01*
X20995834Y-29322089D01*
X20934211Y-29552072D01*
X20955558Y-29656389D01*
X20989230Y-29714710D01*
X21068898Y-29785356D01*
X21298880Y-29846980D01*
X21403198Y-29825633D01*
X21461519Y-29791961D01*
X21532165Y-29712293D01*
X21593788Y-29482310D01*
X21572441Y-29377993D01*
X21538770Y-29319672D01*
X41839438Y-27528061D02*
X40873512Y-27269242D01*
X40811889Y-27499225D01*
X40820911Y-27649539D01*
X40888255Y-27766181D01*
X40967923Y-27836827D01*
X41139584Y-27932122D01*
X41277573Y-27969097D01*
X41473884Y-27972399D01*
X41578202Y-27951052D01*
X41694844Y-27883708D01*
X41777815Y-27758044D01*
X41839438Y-27528061D01*
X41445047Y-28999948D02*
X41592944Y-28447991D01*
X41518996Y-28723970D02*
X40553070Y-28465150D01*
X40715709Y-28410132D01*
X40832351Y-28342788D01*
X40902997Y-28263120D01*
X40257277Y-29569066D02*
X40306575Y-29385080D01*
X40377221Y-29305412D01*
X40435543Y-29271740D01*
X40598181Y-29216721D01*
X40794492Y-29220023D01*
X41162464Y-29318621D01*
X41242132Y-29389267D01*
X41275804Y-29447588D01*
X41297151Y-29551906D01*
X41247852Y-29735892D01*
X41177206Y-29815560D01*
X41118885Y-29849232D01*
X41014567Y-29870579D01*
X40784585Y-29808955D01*
X40704917Y-29738309D01*
X40671245Y-29679988D01*
X40649898Y-29575671D01*
X40699197Y-29391685D01*
X40769843Y-29312016D01*
X40828164Y-29278345D01*
X40932481Y-29256998D01*
X58925523Y-37365466D02*
X57959597Y-37106647D01*
X57897974Y-37336630D01*
X57906996Y-37486944D01*
X57974340Y-37603586D01*
X58054008Y-37674232D01*
X58225669Y-37769527D01*
X58363658Y-37806502D01*
X58559969Y-37809804D01*
X58664287Y-37788457D01*
X58780929Y-37721113D01*
X58863900Y-37595449D01*
X58925523Y-37365466D01*
X58531132Y-38837353D02*
X58679029Y-38285396D01*
X58605081Y-38561375D02*
X57639155Y-38302555D01*
X57801794Y-38247537D01*
X57918436Y-38180193D01*
X57989082Y-38100525D01*
X57478933Y-38900510D02*
X57306387Y-39544460D01*
X58383236Y-39389311D01*
X76669009Y-44749420D02*
X75703083Y-44490601D01*
X75641460Y-44720584D01*
X75650482Y-44870898D01*
X75717826Y-44987540D01*
X75797494Y-45058186D01*
X75969155Y-45153481D01*
X76107144Y-45190456D01*
X76303455Y-45193758D01*
X76407773Y-45172411D01*
X76524415Y-45105067D01*
X76607386Y-44979403D01*
X76669009Y-44749420D01*
X76274618Y-46221307D02*
X76422515Y-45669350D01*
X76348567Y-45945329D02*
X75382641Y-45686509D01*
X75545280Y-45631491D01*
X75661922Y-45564147D01*
X75732568Y-45484479D01*
X75574764Y-46625368D02*
X75553417Y-46521051D01*
X75519745Y-46462730D01*
X75440077Y-46392084D01*
X75394081Y-46379759D01*
X75289763Y-46401106D01*
X75231442Y-46434778D01*
X75160796Y-46514446D01*
X75111497Y-46698432D01*
X75132844Y-46802749D01*
X75166516Y-46861071D01*
X75246184Y-46931717D01*
X75292180Y-46944041D01*
X75396498Y-46922694D01*
X75454819Y-46889022D01*
X75525465Y-46809354D01*
X75574764Y-46625368D01*
X75645410Y-46545700D01*
X75703731Y-46512028D01*
X75808049Y-46490681D01*
X75992035Y-46539980D01*
X76071703Y-46610626D01*
X76105375Y-46668947D01*
X76126722Y-46773265D01*
X76077423Y-46957251D01*
X76006777Y-47036919D01*
X75948456Y-47070591D01*
X75844138Y-47091938D01*
X75660152Y-47042639D01*
X75580484Y-46971993D01*
X75546812Y-46913672D01*
X75525465Y-46809354D01*
X135141280Y-4985090D02*
X136107206Y-4726271D01*
X136045583Y-4496289D01*
X135962612Y-4370624D01*
X135845970Y-4303281D01*
X135741652Y-4281934D01*
X135545341Y-4285236D01*
X135407352Y-4322210D01*
X135235691Y-4417506D01*
X135156023Y-4488151D01*
X135088679Y-4604794D01*
X135079657Y-4755108D01*
X135141280Y-4985090D01*
X134746889Y-3513203D02*
X134894786Y-4065161D01*
X134820838Y-3789182D02*
X135786764Y-3530363D01*
X135673424Y-3659330D01*
X135606080Y-3775972D01*
X135584733Y-3880290D01*
X134623642Y-3053239D02*
X134574343Y-2869253D01*
X134595690Y-2764935D01*
X134629362Y-2706614D01*
X134742702Y-2577647D01*
X134914363Y-2482351D01*
X135282335Y-2383754D01*
X135386653Y-2405101D01*
X135444974Y-2438773D01*
X135515620Y-2518441D01*
X135564919Y-2702427D01*
X135543572Y-2806744D01*
X135509900Y-2865065D01*
X135430232Y-2935711D01*
X135200249Y-2997335D01*
X135095932Y-2975988D01*
X135037610Y-2942316D01*
X134966965Y-2862648D01*
X134917666Y-2678662D01*
X134939013Y-2574344D01*
X134972684Y-2516023D01*
X135052353Y-2445377D01*
X152884766Y2398864D02*
X153850692Y2657683D01*
X153789069Y2887665D01*
X153706098Y3013330D01*
X153589456Y3080673D01*
X153485138Y3102020D01*
X153288827Y3098718D01*
X153150838Y3061744D01*
X152979177Y2966448D01*
X152899509Y2895803D01*
X152832165Y2779160D01*
X152823143Y2628846D01*
X152884766Y2398864D01*
X153512205Y3552963D02*
X153545877Y3611284D01*
X153567224Y3715602D01*
X153505600Y3945584D01*
X153434954Y4025252D01*
X153376633Y4058924D01*
X153272315Y4080271D01*
X153180322Y4055621D01*
X153054658Y3972651D01*
X152650597Y3272797D01*
X152490375Y3870751D01*
X153296080Y4727524D02*
X153271430Y4819517D01*
X153200785Y4899185D01*
X153142463Y4932857D01*
X153038146Y4954204D01*
X152841835Y4950901D01*
X152611853Y4889278D01*
X152440192Y4793982D01*
X152360523Y4723337D01*
X152326852Y4665015D01*
X152305505Y4560698D01*
X152330154Y4468705D01*
X152400800Y4389037D01*
X152459121Y4355365D01*
X152563439Y4334018D01*
X152759749Y4337320D01*
X152989732Y4398944D01*
X153161393Y4494239D01*
X153241061Y4564885D01*
X153274733Y4623206D01*
X153296080Y4727524D01*
X169970851Y12236269D02*
X170936777Y12495088D01*
X170875154Y12725070D01*
X170792183Y12850735D01*
X170675541Y12918078D01*
X170571223Y12939425D01*
X170374912Y12936123D01*
X170236923Y12899149D01*
X170065262Y12803853D01*
X169985594Y12733208D01*
X169918250Y12616565D01*
X169909228Y12466251D01*
X169970851Y12236269D01*
X170598290Y13390368D02*
X170631962Y13448689D01*
X170653309Y13553007D01*
X170591685Y13782989D01*
X170521039Y13862657D01*
X170462718Y13896329D01*
X170358400Y13917676D01*
X170266407Y13893026D01*
X170140743Y13810056D01*
X169736682Y13110202D01*
X169576460Y13708156D01*
X169329966Y14628085D02*
X169477863Y14076127D01*
X169403914Y14352106D02*
X170369840Y14610925D01*
X170256500Y14481958D01*
X170189157Y14365316D01*
X170167810Y14260998D01*
X189686538Y12259868D02*
X190652464Y12518687D01*
X190590841Y12748669D01*
X190507870Y12874334D01*
X190391228Y12941677D01*
X190286910Y12963024D01*
X190090599Y12959722D01*
X189952610Y12922748D01*
X189780949Y12827452D01*
X189701281Y12756807D01*
X189633937Y12640164D01*
X189624915Y12489850D01*
X189686538Y12259868D01*
X190313977Y13413967D02*
X190347649Y13472288D01*
X190368996Y13576606D01*
X190307372Y13806588D01*
X190236726Y13886256D01*
X190178405Y13919928D01*
X190074087Y13941275D01*
X189982094Y13916625D01*
X189856430Y13833655D01*
X189452369Y13133801D01*
X189292147Y13731755D01*
X190067483Y14333896D02*
X190101154Y14392217D01*
X190122501Y14496535D01*
X190060878Y14726517D01*
X189990232Y14806185D01*
X189931911Y14839857D01*
X189827593Y14861204D01*
X189735600Y14836555D01*
X189609935Y14753584D01*
X189205874Y14053730D01*
X189045653Y14651684D01*
X210717024Y7376565D02*
X211682950Y7635384D01*
X211621327Y7865366D01*
X211538356Y7991031D01*
X211421714Y8058374D01*
X211317396Y8079721D01*
X211121085Y8076419D01*
X210983096Y8039445D01*
X210811435Y7944149D01*
X210731767Y7873504D01*
X210664423Y7756861D01*
X210655401Y7606547D01*
X210717024Y7376565D01*
X211344463Y8530664D02*
X211378135Y8588985D01*
X211399482Y8693303D01*
X211337858Y8923285D01*
X211267212Y9002953D01*
X211208891Y9036625D01*
X211104573Y9057972D01*
X211012580Y9033322D01*
X210886916Y8950352D01*
X210482855Y8250498D01*
X210322633Y8848452D01*
X211202286Y9429246D02*
X211042065Y10027200D01*
X210760366Y9606627D01*
X210723392Y9744617D01*
X210652746Y9824285D01*
X210594425Y9857957D01*
X210490107Y9879304D01*
X210260125Y9817680D01*
X210180457Y9747034D01*
X210146785Y9688713D01*
X210125438Y9584395D01*
X210199386Y9308416D01*
X210270032Y9228748D01*
X210328353Y9195076D01*
X140071782Y-23385976D02*
X141037708Y-23127157D01*
X140976085Y-22897175D01*
X140893114Y-22771510D01*
X140776472Y-22704167D01*
X140672154Y-22682820D01*
X140475843Y-22686122D01*
X140337854Y-22723096D01*
X140166193Y-22818392D01*
X140086525Y-22889037D01*
X140019181Y-23005680D01*
X140010159Y-23155994D01*
X140071782Y-23385976D01*
X140699221Y-22231877D02*
X140732893Y-22173556D01*
X140754240Y-22069238D01*
X140692616Y-21839256D01*
X140621970Y-21759588D01*
X140563649Y-21725916D01*
X140459331Y-21704569D01*
X140367338Y-21729219D01*
X140241674Y-21812189D01*
X139837613Y-22512043D01*
X139677391Y-21914089D01*
X140409148Y-20781337D02*
X140532395Y-21241302D01*
X140084755Y-21410546D01*
X140118427Y-21352224D01*
X140139774Y-21247907D01*
X140078150Y-21017924D01*
X140007504Y-20938256D01*
X139949183Y-20904584D01*
X139844865Y-20883237D01*
X139614883Y-20944861D01*
X139535215Y-21015507D01*
X139501543Y-21073828D01*
X139480196Y-21178146D01*
X139541820Y-21408128D01*
X139612465Y-21487796D01*
X139670787Y-21521468D01*
X157815268Y-16002022D02*
X158781194Y-15743203D01*
X158719571Y-15513221D01*
X158636600Y-15387556D01*
X158519958Y-15320213D01*
X158415640Y-15298866D01*
X158219329Y-15302168D01*
X158081340Y-15339142D01*
X157909679Y-15434438D01*
X157830011Y-15505083D01*
X157762667Y-15621726D01*
X157753645Y-15772040D01*
X157815268Y-16002022D01*
X158442707Y-14847923D02*
X158476379Y-14789602D01*
X158497726Y-14685284D01*
X158436102Y-14455302D01*
X158365456Y-14375634D01*
X158307135Y-14341962D01*
X158202817Y-14320615D01*
X158110824Y-14345265D01*
X157985160Y-14428235D01*
X157581099Y-15128089D01*
X157420877Y-14530135D01*
X158164958Y-13443380D02*
X158214257Y-13627366D01*
X158192910Y-13731683D01*
X158159238Y-13790005D01*
X158045898Y-13918972D01*
X157874237Y-14014267D01*
X157506266Y-14112865D01*
X157401948Y-14091518D01*
X157343627Y-14057846D01*
X157272981Y-13978178D01*
X157223682Y-13794192D01*
X157245029Y-13689874D01*
X157278701Y-13631553D01*
X157358369Y-13560907D01*
X157588351Y-13499283D01*
X157692669Y-13520630D01*
X157750990Y-13554302D01*
X157821636Y-13633970D01*
X157870935Y-13817956D01*
X157849588Y-13922274D01*
X157815916Y-13980595D01*
X157736248Y-14051241D01*
X174901353Y-6164617D02*
X175867279Y-5905798D01*
X175805656Y-5675816D01*
X175722685Y-5550151D01*
X175606043Y-5482808D01*
X175501725Y-5461461D01*
X175305414Y-5464763D01*
X175167425Y-5501737D01*
X174995764Y-5597033D01*
X174916096Y-5667678D01*
X174848752Y-5784321D01*
X174839730Y-5934635D01*
X174901353Y-6164617D01*
X175528792Y-5010518D02*
X175562464Y-4952197D01*
X175583811Y-4847879D01*
X175522187Y-4617897D01*
X175451541Y-4538229D01*
X175393220Y-4504557D01*
X175288902Y-4483210D01*
X175196909Y-4507860D01*
X175071245Y-4590830D01*
X174667184Y-5290684D01*
X174506962Y-4692730D01*
X175386615Y-4111936D02*
X175214069Y-3467985D01*
X174359066Y-4140773D01*
X194617040Y-6141018D02*
X195582966Y-5882199D01*
X195521343Y-5652217D01*
X195438372Y-5526552D01*
X195321730Y-5459209D01*
X195217412Y-5437862D01*
X195021101Y-5441164D01*
X194883112Y-5478138D01*
X194711451Y-5573434D01*
X194631783Y-5644079D01*
X194564439Y-5760722D01*
X194555417Y-5911036D01*
X194617040Y-6141018D01*
X195244479Y-4986919D02*
X195278151Y-4928598D01*
X195299498Y-4824280D01*
X195237874Y-4594298D01*
X195167228Y-4514630D01*
X195108907Y-4480958D01*
X195004589Y-4459611D01*
X194912596Y-4484261D01*
X194786932Y-4567231D01*
X194382871Y-5267085D01*
X194222649Y-4669131D01*
X194626710Y-3969277D02*
X194697356Y-4048945D01*
X194755678Y-4082617D01*
X194859995Y-4103964D01*
X194905992Y-4091639D01*
X194985660Y-4020993D01*
X195019332Y-3962672D01*
X195040679Y-3858355D01*
X194991380Y-3674369D01*
X194920734Y-3594701D01*
X194862413Y-3561029D01*
X194758095Y-3539682D01*
X194712099Y-3552006D01*
X194632430Y-3622652D01*
X194598759Y-3680974D01*
X194577412Y-3785291D01*
X194626710Y-3969277D01*
X194605363Y-4073595D01*
X194571692Y-4131916D01*
X194492023Y-4202562D01*
X194308038Y-4251861D01*
X194203720Y-4230514D01*
X194145399Y-4196842D01*
X194074753Y-4117174D01*
X194025454Y-3933188D01*
X194046801Y-3828870D01*
X194080473Y-3770549D01*
X194160141Y-3699903D01*
X194344127Y-3650604D01*
X194448444Y-3671951D01*
X194506766Y-3705623D01*
X194577412Y-3785291D01*
X215647526Y-11024321D02*
X216613452Y-10765502D01*
X216551829Y-10535520D01*
X216468858Y-10409855D01*
X216352216Y-10342512D01*
X216247898Y-10321165D01*
X216051587Y-10324467D01*
X215913598Y-10361441D01*
X215741937Y-10456737D01*
X215662269Y-10527382D01*
X215594925Y-10644025D01*
X215585903Y-10794339D01*
X215647526Y-11024321D01*
X216274965Y-9870222D02*
X216308637Y-9811901D01*
X216329984Y-9707583D01*
X216268360Y-9477601D01*
X216197714Y-9397933D01*
X216139393Y-9364261D01*
X216035075Y-9342914D01*
X215943082Y-9367564D01*
X215817418Y-9450534D01*
X215413357Y-10150388D01*
X215253135Y-9552434D01*
X215129888Y-9092470D02*
X215080589Y-8908484D01*
X215101936Y-8804166D01*
X215135608Y-8745845D01*
X215248948Y-8616878D01*
X215420609Y-8521582D01*
X215788581Y-8422985D01*
X215892899Y-8444332D01*
X215951220Y-8478004D01*
X216021866Y-8557672D01*
X216071165Y-8741658D01*
X216049818Y-8845975D01*
X216016146Y-8904296D01*
X215936478Y-8974942D01*
X215706495Y-9036566D01*
X215602178Y-9015219D01*
X215543856Y-8981547D01*
X215473211Y-8901879D01*
X215423912Y-8717893D01*
X215445259Y-8613575D01*
X215478930Y-8555254D01*
X215558599Y-8484608D01*
X145002284Y-41786862D02*
X145968210Y-41528043D01*
X145906587Y-41298061D01*
X145823616Y-41172396D01*
X145706974Y-41105053D01*
X145602656Y-41083706D01*
X145406345Y-41087008D01*
X145268356Y-41123982D01*
X145096695Y-41219278D01*
X145017027Y-41289923D01*
X144949683Y-41406566D01*
X144940661Y-41556880D01*
X145002284Y-41786862D01*
X145734041Y-40654110D02*
X145573819Y-40056156D01*
X145292120Y-40476729D01*
X145255146Y-40338740D01*
X145184500Y-40259072D01*
X145126179Y-40225400D01*
X145021862Y-40204053D01*
X144791879Y-40265676D01*
X144712211Y-40336322D01*
X144678539Y-40394643D01*
X144657192Y-40498961D01*
X144731141Y-40774940D01*
X144801786Y-40854608D01*
X144860108Y-40888280D01*
X144361399Y-39395046D02*
X144509296Y-39947004D01*
X144435347Y-39671025D02*
X145401273Y-39412206D01*
X145287933Y-39541173D01*
X145220590Y-39657815D01*
X145199243Y-39762133D01*
X162745770Y-34402908D02*
X163711696Y-34144089D01*
X163650073Y-33914107D01*
X163567102Y-33788442D01*
X163450460Y-33721099D01*
X163346142Y-33699752D01*
X163149831Y-33703054D01*
X163011842Y-33740028D01*
X162840181Y-33835324D01*
X162760513Y-33905969D01*
X162693169Y-34022612D01*
X162684147Y-34172926D01*
X162745770Y-34402908D01*
X163477527Y-33270156D02*
X163317305Y-32672202D01*
X163035606Y-33092775D01*
X162998632Y-32954786D01*
X162927986Y-32875118D01*
X162869665Y-32841446D01*
X162765348Y-32820099D01*
X162535365Y-32881722D01*
X162455697Y-32952368D01*
X162422025Y-33010689D01*
X162400678Y-33115007D01*
X162474627Y-33390986D01*
X162545272Y-33470654D01*
X162603594Y-33504326D01*
X163126715Y-32328880D02*
X163160386Y-32270559D01*
X163181733Y-32166241D01*
X163120110Y-31936259D01*
X163049464Y-31856591D01*
X162991143Y-31822919D01*
X162886825Y-31801572D01*
X162794832Y-31826221D01*
X162669167Y-31909192D01*
X162265106Y-32609046D01*
X162104885Y-32011092D01*
X179831855Y-24565503D02*
X180797781Y-24306684D01*
X180736158Y-24076702D01*
X180653187Y-23951037D01*
X180536545Y-23883694D01*
X180432227Y-23862347D01*
X180235916Y-23865649D01*
X180097927Y-23902623D01*
X179926266Y-23997919D01*
X179846598Y-24068564D01*
X179779254Y-24185207D01*
X179770232Y-24335521D01*
X179831855Y-24565503D01*
X180563612Y-23432751D02*
X180403390Y-22834797D01*
X180121691Y-23255370D01*
X180084717Y-23117381D01*
X180014071Y-23037713D01*
X179955750Y-23004041D01*
X179851433Y-22982694D01*
X179621450Y-23044317D01*
X179541782Y-23114963D01*
X179508110Y-23173284D01*
X179486763Y-23277602D01*
X179560712Y-23553581D01*
X179631357Y-23633249D01*
X179689679Y-23666921D01*
X180317117Y-22512822D02*
X180156896Y-21914868D01*
X179875197Y-22335441D01*
X179838223Y-22197451D01*
X179767577Y-22117783D01*
X179709256Y-22084111D01*
X179604938Y-22062764D01*
X179374956Y-22124388D01*
X179295288Y-22195034D01*
X179261616Y-22253355D01*
X179240269Y-22357673D01*
X179314217Y-22633652D01*
X179384863Y-22713320D01*
X179443184Y-22746992D01*
X199547542Y-24541904D02*
X200513468Y-24283085D01*
X200451845Y-24053103D01*
X200368874Y-23927438D01*
X200252232Y-23860095D01*
X200147914Y-23838748D01*
X199951603Y-23842050D01*
X199813614Y-23879024D01*
X199641953Y-23974320D01*
X199562285Y-24044965D01*
X199494941Y-24161608D01*
X199485919Y-24311922D01*
X199547542Y-24541904D01*
X200279299Y-23409152D02*
X200119077Y-22811198D01*
X199837378Y-23231771D01*
X199800404Y-23093782D01*
X199729758Y-23014114D01*
X199671437Y-22980442D01*
X199567120Y-22959095D01*
X199337137Y-23020718D01*
X199257469Y-23091364D01*
X199223797Y-23149685D01*
X199202450Y-23254003D01*
X199276399Y-23529982D01*
X199347044Y-23609650D01*
X199405366Y-23643322D01*
X199575257Y-22069535D02*
X198931307Y-22242081D01*
X200004852Y-22200919D02*
X199376529Y-22615773D01*
X199216308Y-22017818D01*
X220578028Y-29425207D02*
X221543954Y-29166388D01*
X221482331Y-28936406D01*
X221399360Y-28810741D01*
X221282718Y-28743398D01*
X221178400Y-28722051D01*
X220982089Y-28725353D01*
X220844100Y-28762327D01*
X220672439Y-28857623D01*
X220592771Y-28928268D01*
X220525427Y-29044911D01*
X220516405Y-29195225D01*
X220578028Y-29425207D01*
X221309785Y-28292455D02*
X221149563Y-27694501D01*
X220867864Y-28115074D01*
X220830890Y-27977085D01*
X220760244Y-27897417D01*
X220701923Y-27863745D01*
X220597606Y-27842398D01*
X220367623Y-27904021D01*
X220287955Y-27974667D01*
X220254283Y-28032988D01*
X220232936Y-28137306D01*
X220306885Y-28413285D01*
X220377530Y-28492953D01*
X220435852Y-28526625D01*
X220915394Y-26820568D02*
X221038641Y-27280533D01*
X220591001Y-27449777D01*
X220624673Y-27391455D01*
X220646020Y-27287138D01*
X220584396Y-27057155D01*
X220513750Y-26977487D01*
X220455429Y-26943815D01*
X220351111Y-26922468D01*
X220121129Y-26984092D01*
X220041461Y-27054738D01*
X220007789Y-27113059D01*
X219986442Y-27217377D01*
X220048066Y-27447359D01*
X220118711Y-27527027D01*
X220177033Y-27560699D01*
X50708019Y-68033610D02*
X49742093Y-67774791D01*
X49680470Y-68004774D01*
X49689492Y-68155088D01*
X49756836Y-68271730D01*
X49836504Y-68342376D01*
X50008165Y-68437671D01*
X50146154Y-68474646D01*
X50342465Y-68477948D01*
X50446783Y-68456601D01*
X50563425Y-68389257D01*
X50646396Y-68263593D01*
X50708019Y-68033610D01*
X49507924Y-68648724D02*
X49347702Y-69246678D01*
X49801947Y-69023301D01*
X49764973Y-69161290D01*
X49786320Y-69265608D01*
X49819992Y-69323929D01*
X49899660Y-69394575D01*
X50129642Y-69456198D01*
X50233960Y-69434851D01*
X50292281Y-69401180D01*
X50362927Y-69321511D01*
X50436875Y-69045533D01*
X50415528Y-68941215D01*
X50381857Y-68882894D01*
X49261429Y-69568654D02*
X49088883Y-70212604D01*
X50165732Y-70057455D01*
X70716226Y-77843320D02*
X69809918Y-77420702D01*
X69709295Y-77636490D01*
X69692078Y-77786087D01*
X69738144Y-77912651D01*
X69804335Y-77996058D01*
X69956840Y-78119714D01*
X70086312Y-78180088D01*
X70279067Y-78217430D01*
X70385507Y-78214521D01*
X70512071Y-78168456D01*
X70615603Y-78059108D01*
X70716226Y-77843320D01*
X69427550Y-78240695D02*
X69165929Y-78801743D01*
X69652062Y-78660637D01*
X69591688Y-78790110D01*
X69594596Y-78896550D01*
X69617628Y-78959832D01*
X69683819Y-79043239D01*
X69899606Y-79143862D01*
X70006046Y-79140954D01*
X70069328Y-79117921D01*
X70152735Y-79051731D01*
X70273483Y-78792786D01*
X70270575Y-78686346D01*
X70247542Y-78623064D01*
X69312850Y-79500755D02*
X69309942Y-79394315D01*
X69286909Y-79331033D01*
X69220719Y-79247626D01*
X69177561Y-79227501D01*
X69071122Y-79230410D01*
X69007839Y-79253442D01*
X68924433Y-79319633D01*
X68843934Y-79492263D01*
X68846842Y-79598702D01*
X68869875Y-79661985D01*
X68936065Y-79745392D01*
X68979223Y-79765516D01*
X69085662Y-79762608D01*
X69148945Y-79739575D01*
X69232351Y-79673385D01*
X69312850Y-79500755D01*
X69396257Y-79434564D01*
X69459539Y-79411532D01*
X69565979Y-79408623D01*
X69738609Y-79489122D01*
X69804799Y-79572529D01*
X69827832Y-79635811D01*
X69830740Y-79742251D01*
X69750242Y-79914881D01*
X69666835Y-79981071D01*
X69603553Y-80004104D01*
X69497113Y-80007012D01*
X69324483Y-79926514D01*
X69258292Y-79843107D01*
X69235260Y-79779825D01*
X69232351Y-79673385D01*
X88663811Y-90360518D02*
X87844659Y-89786941D01*
X87708093Y-89981978D01*
X87665161Y-90126313D01*
X87688549Y-90258953D01*
X87739250Y-90352587D01*
X87867966Y-90500847D01*
X87984988Y-90582786D01*
X88168330Y-90653032D01*
X88273658Y-90668651D01*
X88406298Y-90645263D01*
X88527245Y-90555554D01*
X88663811Y-90360518D01*
X87325709Y-90528079D02*
X86970638Y-91035173D01*
X87473888Y-90980628D01*
X87391948Y-91097650D01*
X87376329Y-91202977D01*
X87388023Y-91269298D01*
X87438725Y-91362931D01*
X87633761Y-91499497D01*
X87739088Y-91515116D01*
X87805409Y-91503422D01*
X87899042Y-91452721D01*
X88062921Y-91218677D01*
X88078540Y-91113350D01*
X88066846Y-91047029D01*
X87516658Y-91998822D02*
X87407405Y-92154851D01*
X87313772Y-92205552D01*
X87247451Y-92217246D01*
X87075803Y-92213321D01*
X86892461Y-92143076D01*
X86580403Y-91924571D01*
X86529702Y-91830937D01*
X86518008Y-91764617D01*
X86533627Y-91659289D01*
X86642880Y-91503260D01*
X86736513Y-91452559D01*
X86802834Y-91440865D01*
X86908161Y-91456484D01*
X87103198Y-91593050D01*
X87153899Y-91686683D01*
X87165593Y-91753004D01*
X87149974Y-91858331D01*
X87040721Y-92014360D01*
X86947088Y-92065061D01*
X86880767Y-92076756D01*
X86775440Y-92061136D01*
X150130099Y-71376454D02*
X151036407Y-70953835D01*
X150935784Y-70738048D01*
X150832252Y-70628700D01*
X150705688Y-70582634D01*
X150599248Y-70579726D01*
X150406493Y-70617067D01*
X150277021Y-70677441D01*
X150124516Y-70801098D01*
X150058325Y-70884504D01*
X150012260Y-71011069D01*
X150029476Y-71160666D01*
X150130099Y-71376454D01*
X150130564Y-69799983D02*
X149526359Y-70081728D01*
X150576448Y-69854773D02*
X150029708Y-70372431D01*
X149768088Y-69811383D01*
X150130797Y-69011747D02*
X150090547Y-68925432D01*
X150007140Y-68859242D01*
X149943858Y-68836209D01*
X149837419Y-68833301D01*
X149644664Y-68870642D01*
X149428876Y-68971265D01*
X149276371Y-69094922D01*
X149210181Y-69178329D01*
X149187148Y-69241611D01*
X149184240Y-69348050D01*
X149224489Y-69434365D01*
X149307896Y-69500556D01*
X149371178Y-69523589D01*
X149477618Y-69526497D01*
X149670372Y-69489156D01*
X149886160Y-69388532D01*
X150038665Y-69264876D01*
X150104856Y-69181469D01*
X150127889Y-69118187D01*
X150130797Y-69011747D01*
X170963274Y-65071052D02*
X171929200Y-64812233D01*
X171867577Y-64582251D01*
X171784606Y-64456586D01*
X171667964Y-64389243D01*
X171563646Y-64367896D01*
X171367335Y-64371198D01*
X171229346Y-64408172D01*
X171057685Y-64503468D01*
X170978017Y-64574113D01*
X170910673Y-64690756D01*
X170901651Y-64841070D01*
X170963274Y-65071052D01*
X171237483Y-63518612D02*
X170593533Y-63691158D01*
X171667079Y-63649997D02*
X171038755Y-64064850D01*
X170878534Y-63466896D01*
X170322389Y-62679236D02*
X170470286Y-63231194D01*
X170396337Y-62955215D02*
X171362263Y-62696396D01*
X171248923Y-62825363D01*
X171181580Y-62942005D01*
X171160233Y-63046323D01*
X130761563Y-80585835D02*
X131580715Y-80012259D01*
X131444150Y-79817223D01*
X131323203Y-79727514D01*
X131190562Y-79704126D01*
X131085234Y-79719745D01*
X130901892Y-79789990D01*
X130784871Y-79871930D01*
X130656155Y-80020190D01*
X130605453Y-80113823D01*
X130582065Y-80246464D01*
X130624998Y-80390799D01*
X130761563Y-80585835D01*
X130488270Y-79033234D02*
X129942168Y-79415618D01*
X130936894Y-79009765D02*
X130488351Y-79614498D01*
X130133280Y-79107404D01*
X130410174Y-78506595D02*
X130421868Y-78440275D01*
X130406249Y-78334947D01*
X130269684Y-78139911D01*
X130176050Y-78089210D01*
X130109730Y-78077516D01*
X130004402Y-78093135D01*
X129926387Y-78147761D01*
X129836679Y-78268708D01*
X129696350Y-79064553D01*
X129341279Y-78557459D01*
X57976666Y9677620D02*
X58452857Y9677620D01*
X58452857Y10677620D01*
X57214761Y10344286D02*
X57214761Y9677620D01*
X57452857Y10725239D02*
X57690952Y10010953D01*
X57071904Y10010953D01*
X53374285Y11577620D02*
X53945714Y11577620D01*
X53660000Y11577620D02*
X53660000Y12577620D01*
X53755238Y12434762D01*
X53850476Y12339524D01*
X53945714Y12291905D01*
X14156666Y1937620D02*
X14632857Y1937620D01*
X14632857Y2937620D01*
X13347142Y2937620D02*
X13823333Y2937620D01*
X13870952Y2461429D01*
X13823333Y2509048D01*
X13728095Y2556667D01*
X13490000Y2556667D01*
X13394761Y2509048D01*
X13347142Y2461429D01*
X13299523Y2366191D01*
X13299523Y2128096D01*
X13347142Y2032858D01*
X13394761Y1985239D01*
X13490000Y1937620D01*
X13728095Y1937620D01*
X13823333Y1985239D01*
X13870952Y2032858D01*
X9554285Y3837620D02*
X10125714Y3837620D01*
X9840000Y3837620D02*
X9840000Y4837620D01*
X9935238Y4694762D01*
X10030476Y4599524D01*
X10125714Y4551905D01*
X-2503334Y-24182380D02*
X-2027143Y-24182380D01*
X-2027143Y-23182380D01*
X-3265239Y-23182380D02*
X-3074762Y-23182380D01*
X-2979524Y-23230000D01*
X-2931905Y-23277619D01*
X-2836667Y-23420476D01*
X-2789048Y-23610952D01*
X-2789048Y-23991904D01*
X-2836667Y-24087142D01*
X-2884286Y-24134761D01*
X-2979524Y-24182380D01*
X-3170000Y-24182380D01*
X-3265239Y-24134761D01*
X-3312858Y-24087142D01*
X-3360477Y-23991904D01*
X-3360477Y-23753809D01*
X-3312858Y-23658571D01*
X-3265239Y-23610952D01*
X-3170000Y-23563333D01*
X-2979524Y-23563333D01*
X-2884286Y-23610952D01*
X-2836667Y-23658571D01*
X-2789048Y-23753809D01*
X-7105715Y-22282380D02*
X-6534286Y-22282380D01*
X-6820000Y-22282380D02*
X-6820000Y-21282380D01*
X-6724762Y-21425238D01*
X-6629524Y-21520476D01*
X-6534286Y-21568095D01*
X25886666Y-65502380D02*
X26362857Y-65502380D01*
X26362857Y-64502380D01*
X25648571Y-64502380D02*
X24981904Y-64502380D01*
X25410476Y-65502380D01*
X21284285Y-63602380D02*
X21855714Y-63602380D01*
X21570000Y-63602380D02*
X21570000Y-62602380D01*
X21665238Y-62745238D01*
X21760476Y-62840476D01*
X21855714Y-62888095D01*
X75256666Y-76652380D02*
X75732857Y-76652380D01*
X75732857Y-75652380D01*
X74780476Y-76080952D02*
X74875714Y-76033333D01*
X74923333Y-75985714D01*
X74970952Y-75890476D01*
X74970952Y-75842857D01*
X74923333Y-75747619D01*
X74875714Y-75700000D01*
X74780476Y-75652380D01*
X74590000Y-75652380D01*
X74494761Y-75700000D01*
X74447142Y-75747619D01*
X74399523Y-75842857D01*
X74399523Y-75890476D01*
X74447142Y-75985714D01*
X74494761Y-76033333D01*
X74590000Y-76080952D01*
X74780476Y-76080952D01*
X74875714Y-76128571D01*
X74923333Y-76176190D01*
X74970952Y-76271428D01*
X74970952Y-76461904D01*
X74923333Y-76557142D01*
X74875714Y-76604761D01*
X74780476Y-76652380D01*
X74590000Y-76652380D01*
X74494761Y-76604761D01*
X74447142Y-76557142D01*
X74399523Y-76461904D01*
X74399523Y-76271428D01*
X74447142Y-76176190D01*
X74494761Y-76128571D01*
X74590000Y-76080952D01*
X70654285Y-74752380D02*
X71225714Y-74752380D01*
X70940000Y-74752380D02*
X70940000Y-73752380D01*
X71035238Y-73895238D01*
X71130476Y-73990476D01*
X71225714Y-74038095D01*
X126076666Y-75902380D02*
X126552857Y-75902380D01*
X126552857Y-74902380D01*
X125695714Y-75902380D02*
X125505238Y-75902380D01*
X125410000Y-75854761D01*
X125362380Y-75807142D01*
X125267142Y-75664285D01*
X125219523Y-75473809D01*
X125219523Y-75092857D01*
X125267142Y-74997619D01*
X125314761Y-74950000D01*
X125410000Y-74902380D01*
X125600476Y-74902380D01*
X125695714Y-74950000D01*
X125743333Y-74997619D01*
X125790952Y-75092857D01*
X125790952Y-75330952D01*
X125743333Y-75426190D01*
X125695714Y-75473809D01*
X125600476Y-75521428D01*
X125410000Y-75521428D01*
X125314761Y-75473809D01*
X125267142Y-75426190D01*
X125219523Y-75330952D01*
X121474285Y-74002380D02*
X122045714Y-74002380D01*
X121760000Y-74002380D02*
X121760000Y-73002380D01*
X121855238Y-73145238D01*
X121950476Y-73240476D01*
X122045714Y-73288095D01*
X176592857Y-65392380D02*
X177069047Y-65392380D01*
X177069047Y-64392380D01*
X175735714Y-65392380D02*
X176307142Y-65392380D01*
X176021428Y-65392380D02*
X176021428Y-64392380D01*
X176116666Y-64535238D01*
X176211904Y-64630476D01*
X176307142Y-64678095D01*
X175116666Y-64392380D02*
X175021428Y-64392380D01*
X174926190Y-64440000D01*
X174878571Y-64487619D01*
X174830952Y-64582857D01*
X174783333Y-64773333D01*
X174783333Y-65011428D01*
X174830952Y-65201904D01*
X174878571Y-65297142D01*
X174926190Y-65344761D01*
X175021428Y-65392380D01*
X175116666Y-65392380D01*
X175211904Y-65344761D01*
X175259523Y-65297142D01*
X175307142Y-65201904D01*
X175354761Y-65011428D01*
X175354761Y-64773333D01*
X175307142Y-64582857D01*
X175259523Y-64487619D01*
X175211904Y-64440000D01*
X175116666Y-64392380D01*
X171514285Y-63492380D02*
X172085714Y-63492380D01*
X171800000Y-63492380D02*
X171800000Y-62492380D01*
X171895238Y-62635238D01*
X171990476Y-62730476D01*
X172085714Y-62778095D01*
X202952857Y-23982380D02*
X203429047Y-23982380D01*
X203429047Y-22982380D01*
X202095714Y-23982380D02*
X202667142Y-23982380D01*
X202381428Y-23982380D02*
X202381428Y-22982380D01*
X202476666Y-23125238D01*
X202571904Y-23220476D01*
X202667142Y-23268095D01*
X201143333Y-23982380D02*
X201714761Y-23982380D01*
X201429047Y-23982380D02*
X201429047Y-22982380D01*
X201524285Y-23125238D01*
X201619523Y-23220476D01*
X201714761Y-23268095D01*
X197874285Y-22082380D02*
X198445714Y-22082380D01*
X198160000Y-22082380D02*
X198160000Y-21082380D01*
X198255238Y-21225238D01*
X198350476Y-21320476D01*
X198445714Y-21368095D01*
M02*
