M48
; DRILL file {KiCad (5.1.9)-1} date 05/05/21 21:11:51
; FORMAT={-:-/ absolute / inch / decimal}
; #@! TF.CreationDate,2021-05-05T21:11:51-07:00
; #@! TF.GenerationSoftware,Kicad,Pcbnew,(5.1.9)-1
; #@! TF.FileFunction,Plated,1,2,PTH
FMAT,2
INCH
T1C0.0197
T2C0.0236
T3C0.0320
T4C0.0350
T5C0.0354
T6C0.0354
T7C0.0394
T8C0.0512
T9C0.0550
%
G90
G05
T1
X-0.7846Y-1.5587
X-0.7835Y-1.4996
X-0.7059Y-1.3244
X-0.6787Y-0.637
X-0.6456Y-0.7933
X-0.2736Y-0.8591
X-0.2553Y-1.8908
X-0.2516Y0.8874
X-0.2118Y0.8543
X-0.089Y-1.461
X-0.0827Y-1.9398
X-0.0331Y-0.6398
X0.1575Y-2.1799
X0.2Y-0.6004
X0.2469Y-1.595
X0.2803Y0.0094
X0.3839Y-1.6665
X0.3842Y0.8543
X0.726Y-1.2827
X0.728Y0.2953
X0.7642Y0.2622
X0.8673Y0.8874
X0.8992Y-1.5644
X0.9096Y-2.7301
X0.9327Y-0.5535
X0.9594Y0.2953
X1.0102Y-2.7406
X1.0832Y-2.8569
X1.1091Y-2.1157
X1.1256Y0.2051
X1.1563Y-1.6862
X1.2075Y-2.9909
X1.2106Y-1.7067
X1.3661Y-2.2047
X1.4689Y-1.2827
X1.5213Y-2.0575
X1.6799Y-3.024
X1.6862Y-0.5535
X1.8622Y0.2051
X2.087Y0.8543
X2.1888Y-1.6762
X2.2406Y-2.1299
X2.2748Y0.2913
X2.376Y-2.4756
X2.3799Y0.8874
X2.3862Y-0.8933
X2.4642Y0.4697
X2.5295Y-3.4646
X2.5508Y-0.1933
X2.552Y-3.5327
X2.6272Y-3.5157
X2.7835Y0.1732
X2.887Y-1.9043
X2.8917Y-2.6012
X2.9988Y-1.1323
X3.052Y-2.5732
X3.1201Y-1.9043
X3.148Y-2.4437
X3.173Y-3.8175
X3.2075Y-0.4004
X3.213Y-2.6744
X3.2227Y-1.1319
X3.2525Y-0.8887
X3.2571Y-1.1811
X3.3879Y-0.2125
X3.4065Y-0.1476
X3.4371Y-0.1048
X3.4371Y-0.4004
X3.4637Y-1.5558
X3.4677Y0.4709
X3.4701Y-0.9457
X3.4717Y-1.6839
X3.5032Y-0.5819
X3.5032Y-1.015
X3.5134Y0.889
X3.5363Y-0.8133
X3.5567Y0.6768
X3.5694Y-0.5795
X3.5728Y-0.2117
X3.5815Y-1.1839
X3.6004Y-0.2488
X3.6043Y-1.8736
X3.6043Y-2.1142
X3.6043Y-2.5618
X3.6047Y-0.0488
X3.6055Y0.7051
X3.6119Y-0.1811
X3.6374Y-1.3436
X3.6374Y-1.6331
X3.6705Y-0.498
X3.6731Y-0.4449
X3.7426Y-1.8757
X3.7535Y-0.1138
X3.7636Y-3.7766
X3.7728Y-2.8417
X3.7773Y-1.4563
X3.7933Y0.5205
X3.7941Y-3.6209
X3.8079Y-2.1764
X3.8333Y-0.4407
X3.8382Y-2.9177
X3.8385Y-2.0811
X3.8657Y-2.8417
X3.8803Y0.8315
X3.8968Y-0.2705
X3.9378Y-2.0811
X3.9409Y-2.1768
X3.9508Y-2.3638
X3.9619Y0.6394
X3.9709Y-0.889
X3.9736Y0.8331
X3.9843Y-2.4039
X3.987Y0.4437
X4.0Y-3.6661
X4.0016Y-1.1717
X4.0213Y-2.4437
X4.0232Y0.6355
X4.0516Y-2.4811
X4.0591Y-0.0256
X4.098Y0.6551
X4.1173Y0.3319
X4.126Y-0.2248
X4.1343Y-0.889
X4.1787Y-0.9409
X4.2016Y-0.0138
X4.2031Y-3.9874
X4.2039Y-0.1035
X4.2213Y0.6913
X4.2367Y0.0168
X4.2531Y0.4449
X4.2686Y-2.6732
X4.2686Y-3.3636
X4.2929Y0.6437
X4.3016Y0.9173
X4.3165Y0.2713
X4.3185Y-0.2169
X4.3189Y-0.4839
X4.3201Y-0.5535
X4.3472Y-0.2494
X4.3819Y-0.28
X4.3988Y-0.9421
X4.4226Y-1.1232
X4.4531Y-2.2961
X4.4689Y0.1937
X4.4827Y-3.5953
X4.4837Y-2.2575
X4.5107Y-2.2236
X4.5142Y-2.3303
X4.5303Y-2.1823
X4.5516Y-0.0252
X4.5622Y-3.8543
X4.563Y-1.1213
X4.607Y-0.481
X4.6404Y-0.4533
X4.7016Y-1.2059
X4.7693Y-2.5169
X4.7768Y-2.8961
X4.813Y-1.8839
X4.8354Y0.2263
X4.8732Y0.1957
X4.8764Y-2.5811
X4.9709Y-2.6193
X5.1646Y0.8681
X5.2291Y-3.6012
X5.2445Y-2.1354
X5.297Y-0.3549
X5.3091Y-3.6531
X5.4902Y-1.0437
X5.515Y0.9047
X5.5591Y0.3921
X5.7508Y-1.8866
X5.8736Y-2.2051
X5.9663Y-0.0675
X6.0512Y-3.176
X6.0669Y-2.0965
X6.2047Y-0.815
X6.4224Y-1.5933
X6.524Y-2.1366
X6.6071Y0.1098
X6.7268Y-2.8445
X6.8055Y-1.3098
X6.8361Y-1.6992
X6.8425Y-2.1744
X6.8524Y-2.2366
X6.874Y-2.7874
X6.8835Y-1.6539
X6.889Y-0.4988
X6.9882Y0.8685
X7.0724Y-1.2551
X7.1238Y-2.6754
X7.1728Y0.1098
X7.1965Y-1.5772
X7.2665Y0.385
X7.3618Y0.1098
X7.4654Y-1.516
X7.4811Y-0.4988
X7.5378Y0.9047
X7.6906Y-1.1965
X7.7508Y-1.3665
X7.9606Y-0.9437
X8.0043Y-1.5539
X8.0799Y0.8685
X8.12Y-0.9768
X8.1374Y-0.7236
X8.1476Y0.861
X8.2724Y0.1484
X8.4646Y-0.6217
X8.5768Y-0.6752
X8.5769Y-0.7243
X8.652Y-1.2917
X8.7228Y-1.4909
X8.7618Y-1.5339
T3
X4.6591Y0.861
X4.6591Y0.761
X4.6591Y0.661
X4.6591Y0.561
T4
X3.5614Y-1.3512
X3.5614Y-1.4512
X3.5614Y-1.5512
X3.8614Y-1.0512
X3.9614Y-1.0512
X4.0614Y-1.0512
T5
X4.2614Y-1.3262
X4.2614Y-1.5762
X4.4614Y-1.3262
X4.4614Y-1.5762
T6
X3.8819Y-3.9496
X3.9606Y-3.9496
X4.0394Y-3.9496
X4.315Y-3.5165
X4.315Y-3.5953
X4.315Y-3.674
T7
X0.3009Y-2.0488
X0.3518Y-1.8586
X0.8523Y-2.1965
X0.8778Y-2.1014
X0.9033Y-2.0064
X7.0192Y-2.0064
X7.0447Y-2.1014
X7.0702Y-2.1965
X7.5707Y-1.8586
X7.6216Y-2.0488
T8
X3.091Y0.7935
X3.3469Y0.7935
T9
X3.6989Y-1.1512
X3.6989Y-1.7512
X4.2239Y-1.1512
X4.2239Y-1.7512
T2
G00X3.7929Y0.9339
M15
G01X3.7929Y0.9102
M16
G05
G00X3.7929Y0.7791
M15
G01X3.7929Y0.7358
M16
G05
G00X4.1331Y0.9339
M15
G01X4.1331Y0.9102
M16
G05
G00X4.1331Y0.7791
M15
G01X4.1331Y0.7358
M16
G05
T0
M30
