M48
; DRILL file {KiCad (5.1.9)-1} date 04/22/21 16:52:22
; FORMAT={-:-/ absolute / inch / decimal}
; #@! TF.CreationDate,2021-04-22T16:52:22-07:00
; #@! TF.GenerationSoftware,Kicad,Pcbnew,(5.1.9)-1
; #@! TF.FileFunction,NonPlated,1,2,NPTH
FMAT,2
INCH
T1C0.0256
T2C0.0591
T3C0.0689
T4C0.1181
T5C0.1570
T6C0.1693
%
G90
G05
T1
X3.8492Y0.7783
X4.0768Y0.7783
T3
X-0.5697Y-1.1604
X-0.3756Y-0.436
X-0.1833Y-1.2639
X-0.1815Y0.2885
X0.0108Y-0.5395
X0.2049Y0.1849
X0.2583Y-0.9682
X0.4524Y-0.2437
X0.6446Y-1.0717
X0.6465Y0.4807
X0.8388Y-0.3472
X1.0329Y0.3772
X1.0345Y-0.9691
X1.2286Y-0.2446
X1.3836Y-2.5638
X1.4208Y-1.0726
X1.4227Y0.4798
X1.615Y-0.3482
X1.7072Y-1.3564
X1.77Y-2.6673
X1.8091Y0.3763
X1.9013Y-0.6319
X2.0935Y-1.4599
X2.0954Y0.0925
X2.2006Y-2.8453
X2.2876Y-0.7355
X2.4057Y-1.6471
X2.4818Y-0.011
X2.5631Y-3.0144
X2.5998Y-0.9227
X2.7921Y-1.7506
X2.7939Y-0.1982
X2.9541Y-3.2402
X2.9862Y-1.0262
X3.1803Y-0.3017
X3.2818Y-3.4696
X4.6407Y-3.4696
X4.7422Y-0.3017
X4.9363Y-1.0262
X4.9684Y-3.2402
X5.1286Y-0.1982
X5.1304Y-1.7506
X5.3227Y-0.9227
X5.3594Y-3.0144
X5.4407Y-0.011
X5.5168Y-1.6471
X5.6349Y-0.7355
X5.7219Y-2.8453
X5.8271Y0.0925
X5.829Y-1.4599
X6.0212Y-0.6319
X6.1134Y0.3763
X6.1525Y-2.6673
X6.2153Y-1.3564
X6.3075Y-0.3482
X6.4998Y0.4798
X6.5017Y-1.0726
X6.5389Y-2.5638
X6.6939Y-0.2446
X6.888Y-0.9691
X6.8896Y0.3772
X7.0838Y-0.3472
X7.276Y0.4807
X7.2779Y-1.0717
X7.4701Y-0.2437
X7.6642Y-0.9682
X7.7176Y0.1849
X7.9117Y-0.5395
X8.104Y0.2885
X8.1058Y-1.2639
X8.2981Y-0.436
X8.4922Y-1.1604
T4
X-0.4955Y-1.0768
X-0.3014Y-0.3523
X-0.2282Y-1.0449
X-0.1073Y0.3721
X-0.034Y-0.3204
X0.1601Y0.404
X0.3324Y-0.8845
X0.5266Y-0.1601
X0.5998Y-0.8526
X0.7207Y0.5644
X0.7939Y-0.1282
X0.988Y0.5963
X1.1087Y-0.8854
X1.3028Y-0.161
X1.376Y-0.8536
X1.4578Y-2.4801
X1.4969Y0.5634
X1.5701Y-0.1291
X1.7252Y-2.4483
X1.7642Y0.5953
X1.7813Y-1.2727
X1.9755Y-0.5483
X2.0487Y-1.2409
X2.1696Y0.1762
X2.2428Y-0.5164
X2.2882Y-2.7758
X2.4369Y0.208
X2.4799Y-1.5634
X2.557Y-2.7909
X2.674Y-0.839
X2.7473Y-1.5316
X2.8681Y-0.1146
X2.9414Y-0.8071
X3.0525Y-3.1869
X3.1355Y-0.0827
X3.3146Y-3.2484
X4.6243Y-3.359
X4.7646Y-0.1922
X4.7717Y-3.1337
X4.9587Y-0.9166
X4.9802Y-0.0309
X5.1528Y-1.6411
X5.1743Y-0.7553
X5.3625Y-2.9026
X5.3684Y-1.4798
X5.4632Y0.0985
X5.5468Y-2.7063
X5.6573Y-0.6259
X5.6788Y0.2598
X5.8514Y-1.3504
X5.8729Y-0.4646
X6.067Y-1.1891
X6.1358Y0.4858
X6.1749Y-2.5578
X6.33Y-0.2386
X6.3514Y0.6471
X6.3905Y-2.3965
X6.5241Y-0.9631
X6.5456Y-0.0773
X6.7397Y-0.8018
X6.9121Y0.4867
X7.1062Y-0.2377
X7.1276Y0.648
X7.3003Y-0.9622
X7.3218Y-0.0764
X7.5159Y-0.8009
X7.74Y0.2945
X7.9341Y-0.43
X7.9556Y0.4558
X8.1283Y-1.1544
X8.1497Y-0.2687
X8.3439Y-0.9931
T5
X-0.3765Y-1.2122
X-0.1824Y-0.4877
X0.0117Y0.2367
X0.4515Y-1.0199
X0.6456Y-0.2955
X0.8397Y0.429
X1.2277Y-1.0209
X1.4218Y-0.2964
X1.5768Y-2.6156
X1.6159Y0.428
X1.9003Y-1.4082
X2.0945Y-0.6837
X2.2886Y0.0407
X2.3818Y-2.9299
X2.5989Y-1.6989
X2.793Y-0.9744
X2.9871Y-0.25
X3.118Y-3.3549
X4.8045Y-3.3549
X4.9354Y-0.25
X5.1295Y-0.9744
X5.3236Y-1.6989
X5.5407Y-2.9299
X5.6339Y0.0407
X5.828Y-0.6837
X6.0222Y-1.4082
X6.3066Y0.428
X6.3457Y-2.6156
X6.5007Y-0.2964
X6.6948Y-1.0209
X7.0828Y0.429
X7.2769Y-0.2955
X7.471Y-1.0199
X7.9108Y0.2367
X8.1049Y-0.4877
X8.299Y-1.2122
T6
X0.0457Y-1.7642
X0.1799Y0.7252
X2.0941Y-2.4567
X2.3429Y-1.1728
X3.2287Y0.2827
X3.9953Y-3.5685
X4.6512Y0.2728
X5.5756Y-1.2126
X5.8244Y-2.4469
X7.8244Y0.7406
X7.9579Y-1.7264
T2
G00X0.5602Y-2.2446
M15
G01X0.5108Y-2.2313
M16
G05
G00X0.6743Y-1.8187
M15
G01X0.6249Y-1.8054
M16
G05
G00X7.2482Y-1.8187
M15
G01X7.2976Y-1.8054
M16
G05
G00X7.3623Y-2.2446
M15
G01X7.4117Y-2.2313
M16
G05
T0
M30
