G04 #@! TF.GenerationSoftware,KiCad,Pcbnew,(5.1.9)-1*
G04 #@! TF.CreationDate,2021-04-12T00:24:37-07:00*
G04 #@! TF.ProjectId,euclid36,6575636c-6964-4333-962e-6b696361645f,1.2*
G04 #@! TF.SameCoordinates,PX2faf080PY2faf080*
G04 #@! TF.FileFunction,Copper,L1,Top*
G04 #@! TF.FilePolarity,Positive*
%FSLAX46Y46*%
G04 Gerber Fmt 4.6, Leading zero omitted, Abs format (unit mm)*
G04 Created by KiCad (PCBNEW (5.1.9)-1) date 2021-04-12 00:24:37*
%MOMM*%
%LPD*%
G01*
G04 APERTURE LIST*
G04 #@! TA.AperFunction,ComponentPad*
%ADD10C,4.400000*%
G04 #@! TD*
G04 #@! TA.AperFunction,ComponentPad*
%ADD11O,1.000000X2.100000*%
G04 #@! TD*
G04 #@! TA.AperFunction,ComponentPad*
%ADD12O,1.000000X1.600000*%
G04 #@! TD*
G04 #@! TA.AperFunction,ComponentPad*
%ADD13C,2.000000*%
G04 #@! TD*
G04 #@! TA.AperFunction,ViaPad*
%ADD14C,0.900000*%
G04 #@! TD*
G04 #@! TA.AperFunction,Conductor*
%ADD15C,0.254000*%
G04 #@! TD*
G04 #@! TA.AperFunction,Conductor*
%ADD16C,0.381000*%
G04 #@! TD*
G04 APERTURE END LIST*
D10*
X179650000Y-18830000D03*
X24840000Y-14210000D03*
X178040000Y-61730000D03*
X5010000Y-39850000D03*
X195700000Y-45200000D03*
X118890000Y-50790000D03*
X83710000Y-50160000D03*
X101650000Y-89500000D03*
X19390000Y-59340000D03*
X2980000Y18740000D03*
X195770000Y18060000D03*
X64080000Y16870000D03*
X135160000Y16400000D03*
X102020000Y-4230000D03*
D11*
X96810000Y17820000D03*
X105450000Y17820000D03*
D12*
X96810000Y22000000D03*
X105450000Y22000000D03*
D13*
X78512500Y20155000D03*
X85012500Y20155000D03*
D14*
X119972328Y-34711172D03*
X113068000Y-62014000D03*
X129324000Y-62014000D03*
X129324000Y-62014000D03*
X129324000Y-71158000D03*
X110782000Y-83096000D03*
X77000000Y-74460000D03*
X77000000Y-62014000D03*
X203492000Y-45504000D03*
X188760000Y21219500D03*
X115100000Y21806000D03*
X114084000Y-58966000D03*
X115862000Y-79794000D03*
X135279971Y-59106029D03*
X157518000Y-52870000D03*
X135420000Y-68110000D03*
X157010000Y-59220000D03*
X38900000Y-52362000D03*
X62776000Y-58966000D03*
X83350000Y-58966000D03*
X38900000Y-57950000D03*
X61506000Y-66586000D03*
X81826000Y-77762000D03*
X199428000Y-6134000D03*
X189014000Y-3848000D03*
X193840000Y-22136000D03*
X119672000Y-800000D03*
X125260000Y-18834000D03*
X130340000Y-37122000D03*
X146596000Y21806000D03*
X31788000Y21044000D03*
X19088000Y-52362000D03*
X73698000Y17996000D03*
X49822000Y-52362000D03*
X16548000Y-24676000D03*
X21374000Y-6388000D03*
X26200000Y12154000D03*
X20358000Y-20104000D03*
X25184000Y-1562000D03*
X36614000Y15710000D03*
X196126000Y12154000D03*
X183426000Y14440000D03*
X206032000Y-24422000D03*
X160058000Y-1562000D03*
X151422000Y-13754000D03*
X164122000Y-21120000D03*
X156756000Y-32042000D03*
X72682000Y-38000D03*
X67602000Y-18072000D03*
X58204000Y-16040000D03*
X62268000Y-36614000D03*
X53124000Y-34582000D03*
X63030000Y2248000D03*
X153962000Y14948000D03*
X146596000Y4788000D03*
X12738000Y22060000D03*
X292000Y-53378000D03*
X221272000Y-37884000D03*
X199174000Y22822000D03*
X54842000Y22000000D03*
X36106000Y-53378000D03*
X89640000Y22000000D03*
X72936000Y-59982000D03*
X71920000Y-72174000D03*
X147104000Y-59982000D03*
X147104000Y-66586000D03*
X127546000Y22822000D03*
X165900000Y22822000D03*
X179616000Y-54140000D03*
X131102000Y2502000D03*
X136436000Y-16040000D03*
X141516000Y-35852000D03*
X168186000Y13170000D03*
X177838000Y-22898000D03*
X134404000Y-21120000D03*
X139484000Y-39662000D03*
X172758000Y-3848000D03*
X169456000Y-3848000D03*
X174536000Y-22390000D03*
X210858000Y11138000D03*
X210858000Y-8420000D03*
X214922000Y-27216000D03*
X10960000Y14694000D03*
X12230000Y-1816000D03*
X800000Y-11468000D03*
X-4534000Y-29248000D03*
X2578000Y-19850000D03*
X49060000Y9360000D03*
X44742000Y-10960000D03*
X36360000Y-24930000D03*
X44996000Y-28232000D03*
X41186000Y-6388000D03*
X86398000Y-7404000D03*
X79794000Y-24168000D03*
X75476000Y-42964000D03*
X126530000Y-60236000D03*
X126530000Y-78270000D03*
X55918000Y-59982000D03*
X49060000Y-65570000D03*
X89640000Y9674000D03*
X82842000Y-27470000D03*
X87952001Y-15024000D03*
X89640000Y4220000D03*
X107226000Y-51600000D03*
X96304000Y-57696000D03*
X93002000Y-100876000D03*
X138603716Y-33513128D03*
X138151443Y-31870414D03*
X133388000Y-14976526D03*
X133896000Y-13422526D03*
X108003819Y-52377819D03*
X95526181Y-56918181D03*
X93002000Y-99775997D03*
X-47578Y-22050422D03*
X123578Y-19681578D03*
X3086000Y-4117000D03*
X4822578Y-1774578D03*
X156924422Y-24844422D03*
X156502000Y-22898000D03*
X151590422Y-6048422D03*
X151422000Y-3848000D03*
X108781638Y-53155638D03*
X94748362Y-56140362D03*
X93002000Y-98675994D03*
X18834000Y-19327832D03*
X20104000Y-17773832D03*
X24422000Y232831D03*
X25946000Y1786831D03*
X174790000Y-18087000D03*
X174536000Y-16533000D03*
X169964000Y709000D03*
X169710000Y2263000D03*
X109559457Y-53933457D03*
X93970543Y-55362543D03*
X106972000Y-98590000D03*
X39112578Y-19891422D03*
X39576422Y-18157578D03*
X43557578Y-1730422D03*
X44656422Y-631578D03*
X193036578Y-16533000D03*
X187702578Y709000D03*
X187744000Y2263000D03*
X193078000Y-19088000D03*
X110337276Y-54711276D03*
X93192724Y-54584724D03*
X106972000Y-99690003D03*
X57908578Y-30051422D03*
X57991422Y-27936578D03*
X60575578Y-11128422D03*
X61293422Y-9648578D03*
X111115095Y-55489095D03*
X92414905Y-53806905D03*
X106972000Y-100790006D03*
X77762000Y-35613000D03*
X78016000Y-34059000D03*
X81318000Y-17325000D03*
X82080000Y-15771000D03*
X-3518000Y-2563000D03*
X-2756000Y-4117000D03*
X-9360000Y-19835000D03*
X-8852000Y-21389000D03*
X-3533000Y-30772000D03*
X-1979000Y-30772000D03*
X12992000Y-16817000D03*
X11722000Y-15263000D03*
X20104000Y232831D03*
X18580000Y1786831D03*
X36106000Y2263000D03*
X37376000Y709000D03*
X31534000Y-16025000D03*
X32804000Y-17579000D03*
X34401901Y-29829901D03*
X35852000Y-30772000D03*
X52108000Y-27993000D03*
X50584000Y-26439000D03*
X55410000Y-9197000D03*
X54140000Y-7643000D03*
X73444000Y-15771000D03*
X75222000Y-17325000D03*
X94018000Y-24915000D03*
X94018000Y-21628000D03*
X110528000Y-34582000D03*
X113322000Y-22390000D03*
X93932422Y-15363578D03*
X94018000Y-29502000D03*
X94526000Y-546000D03*
X92240000Y-29756000D03*
X95626003Y-546000D03*
X93017000Y-27724000D03*
X66078000Y-32535000D03*
X67602000Y-34089000D03*
X156147422Y-27978000D03*
X157778133Y-27901289D03*
X161836000Y-27978000D03*
X163868000Y-25438000D03*
X164798422Y-18595000D03*
X163868000Y-15278000D03*
X159995934Y-62976D03*
X159042000Y3010000D03*
X178600000Y2502000D03*
X179616000Y-5372000D03*
X183773485Y-16533000D03*
X184442000Y-23660000D03*
X198624578Y-23447422D03*
X200739422Y-23364578D03*
X204254000Y-24141578D03*
X204254000Y-21374000D03*
X199936000Y-4371000D03*
X199936000Y-2817000D03*
X59388421Y-51939577D03*
X50838000Y-63284000D03*
X151106005Y-47474005D03*
X140768313Y-44810531D03*
X139145782Y-44742000D03*
X171234000Y-62268000D03*
X171234000Y-48044000D03*
X155199949Y-47503949D03*
X130086950Y-35559960D03*
X129578000Y-33551000D03*
X124987455Y-17291455D03*
X125006000Y-15263000D03*
X141770000Y-7897000D03*
X142786000Y-15278000D03*
X146596000Y-25692000D03*
X147612000Y-33820000D03*
X108750000Y9614000D03*
X102654000Y9614000D03*
X98082000Y12662000D03*
X103670000Y10391000D03*
X103416000Y20028000D03*
X109844500Y15202000D03*
X102654000Y15202000D03*
X101384000Y19266000D03*
X99352000Y19266000D03*
X100876000Y15202000D03*
X107734000Y16012500D03*
D15*
X119972328Y-34711172D02*
X119972328Y-42409672D01*
X119972328Y-42409672D02*
X119972328Y-42663672D01*
X119972328Y-42663672D02*
X119972328Y-42917672D01*
X119972328Y-42917672D02*
X113068000Y-49822000D01*
X113068000Y-49822000D02*
X113068000Y-62014000D01*
X113068000Y-62014000D02*
X113068000Y-62014000D01*
X129324000Y-62014000D02*
X129324000Y-71158000D01*
X113068000Y-80810000D02*
X110782000Y-83096000D01*
X113068000Y-62014000D02*
X113068000Y-80810000D01*
X77000000Y-74460000D02*
X77000000Y-62014000D01*
D16*
X203492000Y-45504000D02*
X203492000Y-41186000D01*
X203492000Y-41186000D02*
X203492000Y-40424000D01*
X203492000Y-40424000D02*
X199428000Y-36360000D01*
X196126000Y-21374000D02*
X196126000Y-15278000D01*
X196126000Y-15278000D02*
X193840000Y-12992000D01*
X193840000Y-12992000D02*
X193840000Y-5118000D01*
X193840000Y-5118000D02*
X191300000Y-2578000D01*
X191300000Y-2578000D02*
X191300000Y3010000D01*
X191300000Y3010000D02*
X188760000Y5550000D01*
X188760000Y5550000D02*
X188760000Y7582000D01*
X188760000Y21219500D02*
X188760000Y21219500D01*
X115100000Y21806000D02*
X115100000Y-800000D01*
X115100000Y-800000D02*
X113322000Y-2578000D01*
X113322000Y-2578000D02*
X113322000Y-14008000D01*
X113322000Y-14008000D02*
X117132000Y-17818000D01*
X117132000Y-17818000D02*
X117132000Y-29756000D01*
X117132000Y-29756000D02*
X120942000Y-33566000D01*
X114084000Y-49822000D02*
X114084000Y-58966000D01*
X120942000Y-42964000D02*
X114084000Y-49822000D01*
X114084000Y-78016000D02*
X115862000Y-79794000D01*
X114084000Y-58966000D02*
X114084000Y-78016000D01*
X135279971Y-67969971D02*
X135420000Y-68110000D01*
X135279971Y-59106029D02*
X135279971Y-67969971D01*
X157518000Y-58712000D02*
X157010000Y-59220000D01*
X157518000Y-52870000D02*
X157518000Y-58712000D01*
X38900000Y-52362000D02*
X38900000Y-57950000D01*
X62776000Y-65316000D02*
X61506000Y-66586000D01*
X62776000Y-58966000D02*
X62776000Y-65316000D01*
X83350000Y-76238000D02*
X81826000Y-77762000D01*
X83350000Y-58966000D02*
X83350000Y-76238000D01*
X198412000Y-5118000D02*
X199428000Y-6134000D01*
X193840000Y-5118000D02*
X198412000Y-5118000D01*
X193840000Y-5118000D02*
X191554000Y-5118000D01*
X190284000Y-3848000D02*
X189014000Y-3848000D01*
X191554000Y-5118000D02*
X190284000Y-3848000D01*
X196126000Y-21374000D02*
X195618000Y-21374000D01*
X194856000Y-22136000D02*
X193840000Y-22136000D01*
X195618000Y-21374000D02*
X194856000Y-22136000D01*
X115100000Y-800000D02*
X119672000Y-800000D01*
X117132000Y-17818000D02*
X121704000Y-17818000D01*
X122720000Y-18834000D02*
X125260000Y-18834000D01*
X121704000Y-17818000D02*
X122720000Y-18834000D01*
X120942000Y-37122000D02*
X130340000Y-37122000D01*
X120942000Y-33566000D02*
X120942000Y-37122000D01*
X120942000Y-37122000D02*
X120942000Y-42964000D01*
X146596000Y21806000D02*
X146596000Y14694000D01*
X146596000Y14694000D02*
X149136000Y12154000D01*
X149136000Y12154000D02*
X149136000Y10376000D01*
X149136000Y7582000D02*
X150152000Y6566000D01*
X150152000Y3518000D02*
X152438000Y1232000D01*
X152438000Y1232000D02*
X152438000Y-6896000D01*
X155232000Y-15532000D02*
X157772000Y-18072000D01*
X157772000Y-25946000D02*
X159804000Y-27978000D01*
X159804000Y-33058000D02*
X160566000Y-33820000D01*
X160566000Y-33820000D02*
X160566000Y-38392000D01*
X160566000Y-38392000D02*
X163106000Y-40932000D01*
X157518000Y-52870000D02*
X163106000Y-47282000D01*
X163106000Y-40932000D02*
X163106000Y-47282000D01*
X149136000Y10376000D02*
X149136000Y7582000D01*
X31788000Y21044000D02*
X31788000Y15456000D01*
X31788000Y15456000D02*
X29883000Y13551000D01*
X28994000Y3264000D02*
X25184000Y-546000D01*
X25184000Y-546000D02*
X25184000Y-1562000D01*
X25184000Y-5880000D02*
X23914000Y-7150000D01*
X20358000Y-24168000D02*
X19088000Y-25438000D01*
X19088000Y-25438000D02*
X19088000Y-52362000D01*
X73698000Y17996000D02*
X73698000Y13424000D01*
X73698000Y13424000D02*
X66078000Y5804000D01*
X66078000Y-1562000D02*
X64046000Y-3594000D01*
X64046000Y-3594000D02*
X64046000Y-9690000D01*
X64046000Y-9690000D02*
X62268000Y-11468000D01*
X62268000Y-11468000D02*
X62268000Y-16802000D01*
X60490000Y-18580000D02*
X60490000Y-22644000D01*
X60490000Y-22644000D02*
X58966000Y-24168000D01*
X58966000Y-24168000D02*
X58966000Y-30518000D01*
X58966000Y-30518000D02*
X56934000Y-32550000D01*
X56934000Y-37630000D02*
X54140000Y-40424000D01*
X54140000Y-40424000D02*
X54140000Y-45504000D01*
X49822000Y-49822000D02*
X49822000Y-52362000D01*
X54140000Y-45504000D02*
X49822000Y-49822000D01*
X199428000Y-26200000D02*
X199428000Y-26454000D01*
X196126000Y-21374000D02*
X196126000Y-22898000D01*
X196126000Y-22898000D02*
X199428000Y-26200000D01*
X199428000Y-36360000D02*
X199428000Y-26454000D01*
X17310000Y-25438000D02*
X16548000Y-24676000D01*
X19088000Y-25438000D02*
X17310000Y-25438000D01*
X22136000Y-7150000D02*
X21374000Y-6388000D01*
X23914000Y-7150000D02*
X22136000Y-7150000D01*
X27216000Y11138000D02*
X26200000Y12154000D01*
X28994000Y11138000D02*
X27216000Y11138000D01*
X28994000Y12662000D02*
X28994000Y11138000D01*
X28994000Y11138000D02*
X28994000Y3264000D01*
X20358000Y-20104000D02*
X20358000Y-24168000D01*
X25184000Y-1562000D02*
X25184000Y-5880000D01*
X29883000Y13551000D02*
X28994000Y12662000D01*
X29883000Y13551000D02*
X34709000Y13551000D01*
X36614000Y15456000D02*
X36614000Y15710000D01*
X34709000Y13551000D02*
X36614000Y15456000D01*
X194602000Y10630000D02*
X196126000Y12154000D01*
X188760000Y10630000D02*
X194602000Y10630000D01*
X188760000Y7582000D02*
X188760000Y10630000D01*
X187744000Y14440000D02*
X183426000Y14440000D01*
X188760000Y13424000D02*
X187744000Y14440000D01*
X188760000Y10630000D02*
X188760000Y13424000D01*
X188760000Y13424000D02*
X188760000Y21219500D01*
X204254000Y-26200000D02*
X206032000Y-24422000D01*
X199428000Y-26200000D02*
X204254000Y-26200000D01*
X154470000Y-7150000D02*
X160058000Y-1562000D01*
X152692000Y-7150000D02*
X154470000Y-7150000D01*
X152438000Y-6896000D02*
X152692000Y-7150000D01*
X152692000Y-7150000D02*
X155232000Y-9690000D01*
X155232000Y-14262000D02*
X151930000Y-14262000D01*
X155232000Y-9690000D02*
X155232000Y-14262000D01*
X151930000Y-14262000D02*
X151422000Y-13754000D01*
X155232000Y-14262000D02*
X155232000Y-15532000D01*
X163614000Y-20612000D02*
X164122000Y-21120000D01*
X157772000Y-20612000D02*
X163614000Y-20612000D01*
X157772000Y-18072000D02*
X157772000Y-20612000D01*
X157772000Y-20612000D02*
X157772000Y-25946000D01*
X159804000Y-27978000D02*
X159804000Y-32042000D01*
X159804000Y-32042000D02*
X156756000Y-32042000D01*
X159804000Y-32042000D02*
X159804000Y-33058000D01*
X66078000Y-800000D02*
X71920000Y-800000D01*
X71920000Y-800000D02*
X72682000Y-38000D01*
X66078000Y-800000D02*
X66078000Y-1562000D01*
X67221000Y-17691000D02*
X67602000Y-18072000D01*
X61379000Y-17691000D02*
X67221000Y-17691000D01*
X62268000Y-16802000D02*
X61379000Y-17691000D01*
X61379000Y-17691000D02*
X60490000Y-18580000D01*
X59855000Y-17691000D02*
X58204000Y-16040000D01*
X61379000Y-17691000D02*
X59855000Y-17691000D01*
X62014000Y-36360000D02*
X62268000Y-36614000D01*
X56934000Y-36360000D02*
X62014000Y-36360000D01*
X56934000Y-36360000D02*
X56934000Y-37630000D01*
X53378000Y-34836000D02*
X53124000Y-34582000D01*
X56934000Y-34836000D02*
X53378000Y-34836000D01*
X56934000Y-32550000D02*
X56934000Y-34836000D01*
X56934000Y-34836000D02*
X56934000Y-36360000D01*
X63792000Y1486000D02*
X63030000Y2248000D01*
X66078000Y1486000D02*
X63792000Y1486000D01*
X66078000Y5804000D02*
X66078000Y1486000D01*
X66078000Y1486000D02*
X66078000Y-800000D01*
X151168000Y12154000D02*
X153962000Y14948000D01*
X149136000Y12154000D02*
X151168000Y12154000D01*
X150152000Y4788000D02*
X146596000Y4788000D01*
X150152000Y6566000D02*
X150152000Y4788000D01*
X150152000Y4788000D02*
X150152000Y3518000D01*
X23914000Y-9796000D02*
X23914000Y-7150000D01*
X21630000Y-12080000D02*
X23914000Y-9796000D01*
X21630000Y-13370000D02*
X21630000Y-12080000D01*
X21628000Y-17493774D02*
X21628000Y-13372000D01*
X21628000Y-13372000D02*
X21630000Y-13370000D01*
X20358000Y-18763774D02*
X21628000Y-17493774D01*
X20358000Y-20104000D02*
X20358000Y-18763774D01*
X12738000Y22060000D02*
X10960000Y20282000D01*
X10960000Y20282000D02*
X10960000Y14694000D01*
X10960000Y5296000D02*
X7912000Y2248000D01*
X7912000Y2248000D02*
X7912000Y-2578000D01*
X7912000Y-2578000D02*
X5118000Y-5372000D01*
X5118000Y-12738000D02*
X2578000Y-15278000D01*
X2578000Y-15278000D02*
X2578000Y-19850000D01*
X2578000Y-21882000D02*
X38000Y-24422000D01*
X292000Y-37630000D02*
X292000Y-53378000D01*
X38000Y-37376000D02*
X292000Y-37630000D01*
X221272000Y-37884000D02*
X221272000Y-29502000D01*
X221272000Y-29502000D02*
X218986000Y-27216000D01*
X218986000Y-27216000D02*
X218986000Y-20612000D01*
X218986000Y-20612000D02*
X215684000Y-17310000D01*
X215684000Y-7150000D02*
X210858000Y-2324000D01*
X210858000Y-2324000D02*
X210858000Y11138000D01*
X210858000Y11138000D02*
X199174000Y22822000D01*
X36106000Y-36360000D02*
X36106000Y-53378000D01*
X39154000Y-33312000D02*
X36106000Y-36360000D01*
X39154000Y-26200000D02*
X39154000Y-33312000D01*
X44742000Y-6388000D02*
X44742000Y-10960000D01*
X54842000Y22000000D02*
X54842000Y16666000D01*
X47536000Y4788000D02*
X47536000Y-3594000D01*
X54842000Y16666000D02*
X49060000Y10884000D01*
X49060000Y10884000D02*
X49060000Y9360000D01*
X49060000Y6312000D02*
X47536000Y4788000D01*
X47536000Y-3594000D02*
X44742000Y-6388000D01*
X42710000Y-12992000D02*
X42710000Y-22644000D01*
X44742000Y-10960000D02*
X42710000Y-12992000D01*
X75476000Y-57442000D02*
X72936000Y-59982000D01*
X75476000Y-33058000D02*
X75476000Y-42964000D01*
X79794000Y-14008000D02*
X79794000Y-24168000D01*
X79794000Y-28740000D02*
X75476000Y-33058000D01*
X89640000Y-4162000D02*
X86398000Y-7404000D01*
X72936000Y-59982000D02*
X72936000Y-71158000D01*
X72936000Y-71158000D02*
X71920000Y-72174000D01*
X147104000Y-59982000D02*
X147104000Y-66586000D01*
X127546000Y22822000D02*
X127546000Y15710000D01*
X127546000Y15710000D02*
X131102000Y12154000D01*
X131102000Y12154000D02*
X131102000Y2502000D01*
X131102000Y2502000D02*
X132626000Y978000D01*
X132626000Y978000D02*
X132626000Y-4864000D01*
X132626000Y-4864000D02*
X133896000Y-6134000D01*
X133896000Y-6134000D02*
X133896000Y-10452000D01*
X133896000Y-10452000D02*
X136436000Y-12992000D01*
X136436000Y-12992000D02*
X136436000Y-16040000D01*
X136436000Y-17818000D02*
X138214000Y-19596000D01*
X138214000Y-19596000D02*
X138214000Y-26454000D01*
X138214000Y-26454000D02*
X140754000Y-28994000D01*
X140754000Y-28994000D02*
X140754000Y-35090000D01*
X140754000Y-35090000D02*
X141516000Y-35852000D01*
X142278000Y-36614000D02*
X142278000Y-40424000D01*
X142278000Y-40424000D02*
X143548000Y-41694000D01*
X143548000Y-41694000D02*
X143548000Y-44488000D01*
X147104000Y-48044000D02*
X147104000Y-59982000D01*
X143548000Y-44488000D02*
X147104000Y-48044000D01*
X165900000Y22822000D02*
X165900000Y15456000D01*
X165900000Y15456000D02*
X168186000Y13170000D01*
X168186000Y13170000D02*
X168186000Y6566000D01*
X170804501Y3947499D02*
X170804501Y1153499D01*
X168186000Y6566000D02*
X170804501Y3947499D01*
X170804501Y1153499D02*
X172758000Y-800000D01*
X172758000Y-800000D02*
X172758000Y-3848000D01*
X172758000Y-7404000D02*
X174028000Y-8674000D01*
X174028000Y-8674000D02*
X174028000Y-13754000D01*
X174028000Y-13754000D02*
X176060000Y-15786000D01*
X176060000Y-15786000D02*
X176060000Y-20612000D01*
X176060000Y-20612000D02*
X177838000Y-22390000D01*
X177838000Y-22390000D02*
X177838000Y-22898000D01*
X179616000Y-32296000D02*
X179616000Y-54140000D01*
X177838000Y-30518000D02*
X179616000Y-32296000D01*
X131102000Y2502000D02*
X131102000Y2502000D01*
X136436000Y-16040000D02*
X136436000Y-17818000D01*
X141516000Y-35852000D02*
X142278000Y-36614000D01*
X168186000Y13170000D02*
X168186000Y13170000D01*
X172758000Y-4610000D02*
X172758000Y-7404000D01*
X177838000Y-22898000D02*
X177838000Y-30518000D01*
X135928000Y-19596000D02*
X134404000Y-21120000D01*
X138214000Y-19596000D02*
X135928000Y-19596000D01*
X141516000Y-37630000D02*
X139484000Y-39662000D01*
X141516000Y-35852000D02*
X141516000Y-37630000D01*
X172758000Y-3848000D02*
X172758000Y-4610000D01*
X172758000Y-3848000D02*
X169456000Y-3848000D01*
X175044000Y-22898000D02*
X174536000Y-22390000D01*
X177838000Y-22898000D02*
X175044000Y-22898000D01*
X210858000Y11138000D02*
X210858000Y11138000D01*
X215684000Y-8420000D02*
X210858000Y-8420000D01*
X215684000Y-17310000D02*
X215684000Y-8420000D01*
X215684000Y-8420000D02*
X215684000Y-7150000D01*
X218986000Y-27216000D02*
X214922000Y-27216000D01*
X10960000Y14694000D02*
X10960000Y5296000D01*
X8674000Y-5372000D02*
X12230000Y-1816000D01*
X5118000Y-5372000D02*
X8674000Y-5372000D01*
X1054000Y-11722000D02*
X800000Y-11468000D01*
X5118000Y-11722000D02*
X1054000Y-11722000D01*
X5118000Y-5372000D02*
X5118000Y-11722000D01*
X5118000Y-11722000D02*
X5118000Y-12738000D01*
X-4026000Y-29756000D02*
X-4534000Y-29248000D01*
X38000Y-29756000D02*
X-4026000Y-29756000D01*
X38000Y-24422000D02*
X38000Y-29756000D01*
X38000Y-29756000D02*
X38000Y-37376000D01*
X2578000Y-19850000D02*
X2578000Y-21882000D01*
X49060000Y9360000D02*
X49060000Y6312000D01*
X44742000Y-10960000D02*
X44742000Y-10960000D01*
X36868000Y-25438000D02*
X36360000Y-24930000D01*
X39916000Y-25438000D02*
X36868000Y-25438000D01*
X42710000Y-22644000D02*
X39916000Y-25438000D01*
X39916000Y-25438000D02*
X39154000Y-26200000D01*
X39916000Y-25438000D02*
X41694000Y-25438000D01*
X44488000Y-28232000D02*
X44996000Y-28232000D01*
X41694000Y-25438000D02*
X44488000Y-28232000D01*
X44742000Y-6388000D02*
X41186000Y-6388000D01*
X75476000Y-42964000D02*
X75476000Y-57442000D01*
X126530000Y-60236000D02*
X126530000Y-78270000D01*
X50330000Y-65570000D02*
X49060000Y-65570000D01*
X55918000Y-59982000D02*
X50330000Y-65570000D01*
X89640000Y22000000D02*
X89640000Y9674000D01*
X89640000Y-606000D02*
X89640000Y-4162000D01*
X79794000Y-27724000D02*
X79794000Y-28740000D01*
X82842000Y-27470000D02*
X79794000Y-27470000D01*
X79794000Y-27470000D02*
X79794000Y-27724000D01*
X79794000Y-24168000D02*
X79794000Y-27470000D01*
X83380001Y-10452000D02*
X83350000Y-10452000D01*
X87952001Y-15024000D02*
X83380001Y-10452000D01*
X83350000Y-10452000D02*
X79794000Y-14008000D01*
X86398000Y-7404000D02*
X83350000Y-10452000D01*
X89640000Y4220000D02*
X89640000Y-606000D01*
X89640000Y9674000D02*
X89640000Y4220000D01*
D15*
X107226000Y-51600000D02*
X103317712Y-51600000D01*
X97221712Y-57696000D02*
X96304000Y-57696000D01*
X103317712Y-51600000D02*
X97221712Y-57696000D01*
X96304000Y-57696000D02*
X96304000Y-96304000D01*
X96304000Y-97574000D02*
X93002000Y-100876000D01*
X96304000Y-96304000D02*
X96304000Y-97574000D01*
X138603716Y-32322687D02*
X138151443Y-31870414D01*
X138603716Y-33513128D02*
X138603716Y-32322687D01*
X133388000Y-13930526D02*
X133896000Y-13422526D01*
X133388000Y-14976526D02*
X133388000Y-13930526D01*
X97357465Y-56918181D02*
X95526181Y-56918181D01*
X103452647Y-50822999D02*
X97357465Y-56918181D01*
X107598961Y-50822999D02*
X103452647Y-50822999D01*
X108003819Y-51227857D02*
X107598961Y-50822999D01*
X108003819Y-52377819D02*
X108003819Y-51227857D01*
X95526181Y-56918181D02*
X95526181Y-58388191D01*
X95526181Y-58388191D02*
X95849990Y-58712000D01*
X95849990Y-96928007D02*
X93002000Y-99775997D01*
X95849990Y-58712000D02*
X95849990Y-96928007D01*
X-47578Y-19852734D02*
X123578Y-19681578D01*
X-47578Y-22050422D02*
X-47578Y-19852734D01*
X4822578Y-2380422D02*
X4822578Y-1774578D01*
X3086000Y-4117000D02*
X4822578Y-2380422D01*
X156924422Y-23320422D02*
X156502000Y-22898000D01*
X156924422Y-24844422D02*
X156924422Y-23320422D01*
X151590422Y-4016422D02*
X151422000Y-3848000D01*
X151590422Y-6048422D02*
X151590422Y-4016422D01*
X97493218Y-56140362D02*
X94748362Y-56140362D01*
X103264591Y-50368989D02*
X97493218Y-56140362D01*
X107787018Y-50368989D02*
X103264591Y-50368989D01*
X108781638Y-51363610D02*
X107787018Y-50368989D01*
X108781638Y-53155638D02*
X108781638Y-51363610D01*
X94748362Y-56140362D02*
X94748363Y-58252439D01*
X94748363Y-58252439D02*
X95395980Y-58900056D01*
X95395980Y-96282014D02*
X93002000Y-98675994D01*
X95395980Y-58900056D02*
X95395980Y-96282014D01*
X18834000Y-19043832D02*
X20104000Y-17773832D01*
X18834000Y-19327832D02*
X18834000Y-19043832D01*
X24422000Y262831D02*
X25946000Y1786831D01*
X24422000Y232831D02*
X24422000Y262831D01*
X174790000Y-16787000D02*
X174536000Y-16533000D01*
X174790000Y-18087000D02*
X174790000Y-16787000D01*
X169964000Y2009000D02*
X169710000Y2263000D01*
X169964000Y709000D02*
X169964000Y2009000D01*
X97628971Y-55362543D02*
X93970543Y-55362543D01*
X103076535Y-49914979D02*
X97628971Y-55362543D01*
X107975075Y-49914979D02*
X103076535Y-49914979D01*
X109559457Y-51499362D02*
X107975075Y-49914979D01*
X109559457Y-53933457D02*
X109559457Y-51499362D01*
X109559457Y-53933457D02*
X109559457Y-55870543D01*
X109559457Y-55870543D02*
X106972000Y-58458000D01*
X106972000Y-58458000D02*
X106972000Y-98590000D01*
X39112578Y-18621422D02*
X39576422Y-18157578D01*
X39112578Y-19891422D02*
X39112578Y-18621422D01*
X43557578Y-1730422D02*
X44656422Y-631578D01*
X193298078Y-16794500D02*
X193036578Y-16533000D01*
X187702578Y2221578D02*
X187744000Y2263000D01*
X187702578Y709000D02*
X187702578Y2221578D01*
X193078000Y-16574422D02*
X193036578Y-16533000D01*
X193078000Y-19088000D02*
X193078000Y-16574422D01*
X102888479Y-49460969D02*
X97764724Y-54584724D01*
X108163132Y-49460969D02*
X102888479Y-49460969D01*
X110337276Y-51635114D02*
X108163132Y-49460969D01*
X110337276Y-54711276D02*
X110337276Y-51635114D01*
X97764724Y-54584724D02*
X93192724Y-54584724D01*
X110337276Y-54711276D02*
X110337276Y-55867767D01*
X110337276Y-55867767D02*
X107426010Y-58779033D01*
X107426010Y-58779033D02*
X107426010Y-97828000D01*
X107749001Y-98913002D02*
X106972000Y-99690003D01*
X107749001Y-98150991D02*
X107749001Y-98913002D01*
X107426010Y-97828000D02*
X107749001Y-98150991D01*
X57908578Y-28019422D02*
X57991422Y-27936578D01*
X57908578Y-30051422D02*
X57908578Y-28019422D01*
X60575578Y-10366422D02*
X61293422Y-9648578D01*
X60575578Y-11128422D02*
X60575578Y-10366422D01*
X108351189Y-49006959D02*
X111115095Y-51770866D01*
X111115095Y-51770866D02*
X111115095Y-55489095D01*
X102694446Y-49006959D02*
X108351189Y-49006959D01*
X97894500Y-53806905D02*
X102694446Y-49006959D01*
X92414905Y-53806905D02*
X97894500Y-53806905D01*
X111115095Y-55489095D02*
X111115095Y-55732014D01*
X111115095Y-55732014D02*
X107880020Y-58967089D01*
X108203011Y-99558995D02*
X106972000Y-100790006D01*
X108203011Y-59290080D02*
X108203011Y-99558995D01*
X107880020Y-58967089D02*
X108203011Y-59290080D01*
X77762000Y-34313000D02*
X78016000Y-34059000D01*
X77762000Y-35613000D02*
X77762000Y-34313000D01*
X81318000Y-16533000D02*
X82080000Y-15771000D01*
X81318000Y-17325000D02*
X81318000Y-16533000D01*
X-3518000Y-3355000D02*
X-2756000Y-4117000D01*
X-3518000Y-2563000D02*
X-3518000Y-3355000D01*
X-9360000Y-20881000D02*
X-8852000Y-21389000D01*
X-9360000Y-19835000D02*
X-9360000Y-20881000D01*
X-3533000Y-30772000D02*
X-1979000Y-30772000D01*
X12992000Y-16533000D02*
X11722000Y-15263000D01*
X12992000Y-16817000D02*
X12992000Y-16533000D01*
X20104000Y262831D02*
X18580000Y1786831D01*
X20104000Y232831D02*
X20104000Y262831D01*
X36106000Y1979000D02*
X37376000Y709000D01*
X36106000Y2263000D02*
X36106000Y1979000D01*
X31534000Y-16309000D02*
X32804000Y-17579000D01*
X31534000Y-16025000D02*
X31534000Y-16309000D01*
X34909901Y-29829901D02*
X35852000Y-30772000D01*
X34401901Y-29829901D02*
X34909901Y-29829901D01*
X52108000Y-27963000D02*
X50584000Y-26439000D01*
X52108000Y-27993000D02*
X52108000Y-27963000D01*
X55410000Y-8913000D02*
X54140000Y-7643000D01*
X55410000Y-9197000D02*
X55410000Y-8913000D01*
X73668000Y-15771000D02*
X75222000Y-17325000D01*
X73444000Y-15771000D02*
X73668000Y-15771000D01*
D16*
X94018000Y-24915000D02*
X94018000Y-21628000D01*
X94018000Y-24915000D02*
X94018000Y-29502000D01*
X99098000Y-34582000D02*
X110528000Y-34582000D01*
X94018000Y-29502000D02*
X99098000Y-34582000D01*
X110528000Y-34582000D02*
X113322000Y-31788000D01*
X113322000Y-31788000D02*
X113322000Y-22390000D01*
X94018000Y-15449156D02*
X93932422Y-15363578D01*
X94018000Y-21628000D02*
X94018000Y-15449156D01*
D15*
X94526000Y-546000D02*
X93002000Y-2070000D01*
X93002000Y-2070000D02*
X92240000Y-2832000D01*
X92240000Y-2832000D02*
X92240000Y-29756000D01*
X95626003Y-546000D02*
X93002000Y-3170003D01*
X93002000Y-27709000D02*
X93017000Y-27724000D01*
X93002000Y-3170003D02*
X93002000Y-27709000D01*
X66078000Y-32565000D02*
X67602000Y-34089000D01*
X66078000Y-32535000D02*
X66078000Y-32565000D01*
X157701422Y-27978000D02*
X157778133Y-27901289D01*
X156147422Y-27978000D02*
X157701422Y-27978000D01*
X163868000Y-25946000D02*
X163868000Y-25438000D01*
X161836000Y-27978000D02*
X163868000Y-25946000D01*
X163868000Y-17664578D02*
X163868000Y-15278000D01*
X164798422Y-18595000D02*
X163868000Y-17664578D01*
X159995934Y2056066D02*
X159042000Y3010000D01*
X159995934Y-62976D02*
X159995934Y2056066D01*
X178600000Y-4356000D02*
X179616000Y-5372000D01*
X178600000Y2502000D02*
X178600000Y-4356000D01*
X183773485Y-22991485D02*
X184442000Y-23660000D01*
X183773485Y-16533000D02*
X183773485Y-22991485D01*
X200656578Y-23447422D02*
X200739422Y-23364578D01*
X198624578Y-23447422D02*
X200656578Y-23447422D01*
X204254000Y-24141578D02*
X204254000Y-21374000D01*
X199936000Y-4371000D02*
X199936000Y-2817000D01*
X59388421Y-54733579D02*
X50838000Y-63284000D01*
X59388421Y-51939577D02*
X59388421Y-54733579D01*
X139214313Y-44810531D02*
X139145782Y-44742000D01*
X140768313Y-44810531D02*
X139214313Y-44810531D01*
X151203061Y-47376949D02*
X151106005Y-47474005D01*
X171234000Y-62268000D02*
X171234000Y-48044000D01*
X171234000Y-48044000D02*
X171234000Y-48044000D01*
X151135949Y-47503949D02*
X151106005Y-47474005D01*
X155199949Y-47503949D02*
X151135949Y-47503949D01*
X130086950Y-34059950D02*
X129578000Y-33551000D01*
X130086950Y-35559960D02*
X130086950Y-34059950D01*
X124987455Y-15281545D02*
X125006000Y-15263000D01*
X124987455Y-17291455D02*
X124987455Y-15281545D01*
X141770000Y-14262000D02*
X142786000Y-15278000D01*
X141770000Y-7897000D02*
X141770000Y-14262000D01*
X146596000Y-32804000D02*
X147612000Y-33820000D01*
X146596000Y-25692000D02*
X146596000Y-32804000D01*
X108750000Y9614000D02*
X102654000Y9614000D01*
X102654000Y9614000D02*
X98844000Y9614000D01*
X98082000Y10376000D02*
X98082000Y12662000D01*
X98844000Y9614000D02*
X98082000Y10376000D01*
X103670000Y10391000D02*
X99352000Y14709000D01*
X99352000Y14709000D02*
X99352000Y15964000D01*
X99352000Y15964000D02*
X103416000Y20028000D01*
X109844500Y15202000D02*
X102654000Y15202000D01*
X101384000Y19266000D02*
X99352000Y19266000D01*
X101686500Y16012500D02*
X107734000Y16012500D01*
X100876000Y15202000D02*
X101686500Y16012500D01*
M02*
