M48
; DRILL file {KiCad (5.1.9)-1} date 04/12/21 00:24:40
; FORMAT={-:-/ absolute / inch / decimal}
; #@! TF.CreationDate,2021-04-12T00:24:40-07:00
; #@! TF.GenerationSoftware,Kicad,Pcbnew,(5.1.9)-1
; #@! TF.FileFunction,NonPlated,1,2,NPTH
FMAT,2
INCH
T1C0.0256
T2C0.0390
T3C0.0670
T4C0.1181
T5C0.1350
%
G90
G05
T1
X3.8677Y0.7224
X4.0953Y0.7224
T2
X-0.1352Y-1.1057
X0.0589Y-0.3812
X0.253Y0.3432
X0.6928Y-0.9134
X0.8869Y-0.189
X1.081Y0.5355
X1.469Y-0.9143
X1.6631Y-0.1899
X1.8181Y-2.509
X1.8572Y0.5346
X2.1416Y-1.3016
X2.3358Y-0.5772
X2.5299Y0.1473
X2.638Y-2.8669
X2.8402Y-1.5923
X3.0343Y-0.8679
X3.2284Y-0.1434
X3.3812Y-3.3373
X4.878Y-3.1016
X5.0911Y-0.0371
X5.2852Y-0.7615
X5.4793Y-1.486
X5.657Y-2.6932
X5.7896Y0.2536
X5.9838Y-0.4708
X6.1779Y-1.1952
X6.4623Y0.6409
X6.5014Y-2.3855
X6.6564Y-0.0835
X6.8506Y-0.8079
X7.2385Y0.6419
X7.4326Y-0.0826
X7.6268Y-0.807
X8.0665Y0.4496
X8.2606Y-0.2748
X8.4547Y-0.9993
T3
X-0.5857Y-1.1561
X-0.3916Y-0.4317
X-0.1974Y0.2928
X-0.1674Y-1.2682
X0.0268Y-0.5438
X0.2209Y0.1807
X0.2423Y-0.9639
X0.4364Y-0.2394
X0.6305Y0.485
X0.6606Y-1.076
X0.8547Y-0.3515
X1.0185Y-0.9648
X1.0488Y0.3729
X1.2126Y-0.2404
X1.3677Y-2.5595
X1.4067Y0.4841
X1.4368Y-1.0769
X1.6309Y-0.3525
X1.6912Y-1.3521
X1.786Y-2.6716
X1.825Y0.372
X1.8853Y-0.6277
X2.0794Y0.0968
X2.1095Y-1.4642
X2.1856Y-2.8384
X2.3036Y-0.7398
X2.3897Y-1.6428
X2.4977Y-0.0153
X2.5781Y-3.0214
X2.5839Y-0.9184
X2.778Y-0.1939
X2.8081Y-1.7549
X2.9406Y-3.2307
X3.0022Y-1.0305
X3.1963Y-0.306
X3.2953Y-3.4791
X4.6272Y-3.4791
X4.7262Y-0.306
X4.9203Y-1.0305
X4.9819Y-3.2307
X5.1144Y-1.7549
X5.1445Y-0.1939
X5.3386Y-0.9184
X5.3444Y-3.0214
X5.4248Y-0.0153
X5.5328Y-1.6428
X5.6189Y-0.7398
X5.7369Y-2.8384
X5.813Y-1.4642
X5.8431Y0.0968
X6.0372Y-0.6277
X6.0975Y0.372
X6.1365Y-2.6545
X6.2313Y-1.3521
X6.2916Y-0.3525
X6.4857Y-1.0769
X6.5158Y0.4841
X6.5548Y-2.5424
X6.7099Y-0.2404
X6.8737Y0.3729
X6.904Y-0.9648
X7.0678Y-0.3515
X7.2619Y-1.076
X7.292Y0.485
X7.4861Y-0.2394
X7.6802Y-0.9639
X7.7016Y0.1807
X7.8958Y-0.5438
X8.0899Y-1.2682
X8.12Y0.2928
X8.3141Y-0.4317
X8.5082Y-1.1561
T4
X-0.6049Y-1.3038
X-0.4371Y-1.4385
X-0.4108Y-0.5794
X-0.243Y-0.714
X-0.2166Y0.145
X-0.0489Y0.0104
X0.2231Y-1.1116
X0.3908Y-1.2462
X0.4172Y-0.3871
X0.5849Y-0.5218
X0.6113Y0.3373
X0.7791Y0.2027
X0.9993Y-1.1125
X1.167Y-1.2471
X1.1934Y-0.3881
X1.3485Y-2.7072
X1.3611Y-0.5227
X1.3875Y0.3364
X1.5162Y-2.8418
X1.5553Y0.2018
X1.672Y-1.4998
X1.8397Y-1.6344
X1.8661Y-0.7754
X2.0338Y-0.91
X2.0602Y-0.0509
X2.141Y-2.9805
X2.2279Y-0.1855
X2.2828Y-3.1422
X2.3706Y-1.7905
X2.5383Y-1.9251
X2.5647Y-1.0661
X2.7324Y-1.2007
X2.7588Y-0.3416
X2.872Y-3.3629
X2.9265Y-0.4762
X2.9836Y-3.5468
X4.728Y-3.5887
X4.7834Y-0.4435
X4.9389Y-3.5468
X4.9776Y-1.168
X4.996Y-0.4762
X5.1717Y-1.8924
X5.1901Y-1.2007
X5.3842Y-1.9251
X5.4247Y-3.1469
X5.482Y-0.1528
X5.6397Y-3.1422
X5.6761Y-0.8773
X5.6946Y-0.1855
X5.8702Y-1.6017
X5.8887Y-0.91
X6.0828Y-1.6344
X6.1547Y0.2345
X6.1937Y-2.792
X6.3488Y-0.49
X6.3672Y0.2018
X6.4063Y-2.8247
X6.5429Y-1.2144
X6.5614Y-0.5227
X6.7555Y-1.2471
X6.9309Y0.2354
X7.125Y-0.489
X7.1434Y0.2027
X7.3191Y-1.2135
X7.3376Y-0.5218
X7.5317Y-1.2462
X7.7589Y0.0432
X7.953Y-0.6813
X7.9714Y0.0104
X8.1471Y-1.4057
X8.1655Y-0.714
X8.3597Y-1.4385
T5
X-0.3765Y-1.2122
X-0.1824Y-0.4877
X0.0117Y0.2367
X0.4515Y-1.0199
X0.6456Y-0.2955
X0.8397Y0.429
X1.2277Y-1.0209
X1.4218Y-0.2964
X1.5768Y-2.6156
X1.6159Y0.428
X1.9003Y-1.4082
X2.0945Y-0.6837
X2.2886Y0.0407
X2.3818Y-2.9299
X2.5989Y-1.6989
X2.793Y-0.9744
X2.9871Y-0.25
X3.118Y-3.3549
X4.8045Y-3.3549
X4.9354Y-0.25
X5.1295Y-0.9744
X5.3236Y-1.6989
X5.5407Y-2.9299
X5.6339Y0.0407
X5.828Y-0.6837
X6.0222Y-1.4082
X6.3066Y0.428
X6.3457Y-2.5984
X6.5007Y-0.2964
X6.6948Y-1.0209
X7.0828Y0.429
X7.2769Y-0.2955
X7.471Y-1.0199
X7.9108Y0.2367
X8.1049Y-0.4877
X8.299Y-1.2122
T0
M30
