M48
; DRILL file {KiCad (5.1.9)-1} date 04/11/21 17:50:16
; FORMAT={-:-/ absolute / inch / decimal}
; #@! TF.CreationDate,2021-04-11T17:50:16-07:00
; #@! TF.GenerationSoftware,Kicad,Pcbnew,(5.1.9)-1
; #@! TF.FileFunction,Plated,1,2,PTH
FMAT,2
INCH
T1C0.0197
T2C0.0236
T3C0.0512
%
G90
G05
T1
X-0.3685Y-0.7809
X-0.3485Y-0.8421
X-0.1785Y-1.1515
X-0.1391Y-1.2115
X-0.1385Y-0.1009
X-0.1085Y-0.1621
X-0.0779Y-1.2115
X-0.0019Y-0.8681
X0.0049Y-0.7749
X0.0115Y-2.1015
X0.0315Y-0.4515
X0.1015Y-0.7815
X0.1215Y-0.1621
X0.1899Y-0.0699
X0.4315Y0.5785
X0.4615Y-0.6009
X0.4815Y-0.0715
X0.5015Y0.8685
X0.5115Y-0.6621
X0.6515Y-0.9715
X0.7315Y0.0703
X0.7415Y-0.7609
X0.7515Y-2.0615
X0.7915Y0.0092
X0.7915Y-0.6998
X0.8015Y-0.7915
X0.8415Y-0.2515
X0.9615Y0.0092
X0.9915Y-0.0615
X1.0215Y0.0703
X1.0315Y0.4785
X1.2415Y-0.6309
X1.2515Y0.8285
X1.2915Y-0.6921
X1.3544Y-1.1744
X1.4115Y-1.2115
X1.4215Y0.0891
X1.4215Y-2.1015
X1.4315Y-0.9815
X1.4415Y0.6185
X1.4715Y0.0279
X1.5315Y-2.0615
X1.5315Y-2.2815
X1.5399Y-0.7831
X1.5581Y-0.7149
X1.6215Y-0.2515
X1.7149Y-0.0681
X1.7581Y-0.0249
X1.7615Y-0.4315
X1.7715Y-1.1115
X1.9315Y0.3685
X1.9315Y-2.5815
X1.9615Y-2.0615
X1.9915Y-1.0409
X2.0015Y-2.4915
X2.0515Y-1.1021
X2.0915Y-1.3615
X2.1315Y-0.3009
X2.1591Y0.8661
X2.1815Y-0.3621
X2.2015Y-2.3615
X2.2799Y-1.1831
X2.2831Y-1.0999
X2.2915Y-0.6315
X2.3381Y-2.0449
X2.3849Y-0.4381
X2.4131Y-0.3799
X2.4215Y-2.6215
X2.4515Y-1.4415
X2.4715Y-2.3215
X2.4815Y0.0885
X2.6015Y-1.2809
X2.6615Y-0.7115
X2.6615Y-1.3421
X2.8315Y-2.8415
X2.8615Y-0.0015
X2.8715Y-2.3615
X2.8915Y-0.6209
X2.9015Y0.7085
X2.9615Y-0.6821
X2.9715Y-1.6915
X3.0315Y-2.4415
X3.0315Y-2.9315
X3.0615Y-1.4021
X3.0715Y-1.3409
X3.1415Y-0.9515
X3.2015Y-0.6821
X3.2215Y-3.0615
X3.2315Y-0.6209
X3.2615Y-1.0815
X3.2815Y-2.3215
X3.4015Y-0.2915
X3.4627Y-0.5915
X3.5291Y0.8661
X3.5291Y0.3809
X3.5291Y0.1661
X3.6315Y-1.1715
X3.6384Y-2.1184
X3.6615Y-3.8849
X3.6615Y-3.9282
X3.6615Y-3.9715
X3.6621Y-1.0915
X3.669Y-2.149
X3.6981Y-0.6049
X3.6996Y-2.1796
X3.7015Y-0.8515
X3.7015Y-0.9809
X3.7015Y-1.1615
X3.7215Y-0.0215
X3.7303Y-2.2103
X3.7609Y-2.2409
X3.7648Y-0.0215
X3.7915Y-2.2715
X3.8615Y0.4985
X3.9115Y0.7585
X3.9715Y0.5985
X3.9915Y0.7585
X4.0415Y0.5985
X4.0415Y0.3785
X4.0715Y0.7885
X4.0815Y0.4091
X4.2115Y-3.8815
X4.2115Y-3.9248
X4.2115Y-3.9681
X4.2215Y-2.0315
X4.2415Y0.6304
X4.2521Y-2.0621
X4.2815Y0.3785
X4.2827Y-2.0927
X4.3134Y-2.1234
X4.3246Y0.5985
X4.344Y-2.154
X4.3515Y-1.3615
X4.3615Y-3.2715
X4.3746Y-2.1846
X4.4515Y-2.4415
X4.4615Y-0.8815
X4.4915Y-2.3215
X4.5315Y0.8585
X4.5615Y-3.1415
X4.7115Y-0.0315
X4.7233Y-1.3666
X4.9208Y-0.6808
X4.9215Y-0.6009
X4.9315Y-0.7415
X4.9815Y-2.3715
X4.9815Y-3.0815
X5.0215Y0.8985
X5.0915Y-2.4415
X5.0915Y-2.4415
X5.0915Y-2.8015
X5.1015Y-1.3209
X5.1215Y-1.4
X5.1315Y-1.4615
X5.1615Y0.0985
X5.2515Y-0.5896
X5.2715Y-0.5284
X5.2915Y-0.8315
X5.326Y-2.327
X5.3315Y-2.6815
X5.3715Y-0.6315
X5.439Y-1.2547
X5.4568Y-1.3194
X5.4782Y-1.7615
X5.4915Y-1.5615
X5.5421Y-1.7642
X5.5715Y-1.4115
X5.5815Y-0.3109
X5.6215Y-0.6015
X5.7715Y0.8585
X5.7715Y0.1885
X5.7715Y-1.0115
X5.7915Y-2.3615
X5.7915Y-2.6215
X5.8115Y-1.3315
X5.9491Y-1.8691
X5.9615Y-0.1515
X5.9615Y-0.5415
X5.9681Y-0.2381
X6.0615Y0.5885
X6.1102Y-1.8702
X6.1475Y-1.1015
X6.1615Y-0.9015
X6.1715Y-1.2615
X6.1781Y-0.9781
X6.1815Y-2.3315
X6.2015Y-2.0815
X6.2117Y-1.0985
X6.2615Y0.1185
X6.2991Y-0.0025
X6.3015Y-0.0615
X6.3715Y-1.1015
X6.4515Y-0.6015
X6.4515Y-1.0015
X6.4615Y-0.8315
X6.4881Y-0.7321
X6.5315Y0.8985
X6.6215Y0.5185
X6.6715Y-0.1515
X6.6815Y0.0891
X6.6915Y0.0279
X6.7415Y-1.8915
X6.7415Y-2.4515
X6.8015Y-0.1515
X6.8715Y-0.6509
X6.8715Y-0.8815
X6.8815Y-0.7121
X7.0015Y-0.9015
X7.0315Y0.0985
X7.0715Y-0.2115
X7.0715Y-2.1315
X7.2215Y0.5685
X7.2352Y-0.6509
X7.2615Y-0.9315
X7.3899Y0.0279
X7.3915Y0.0891
X7.4315Y0.8354
X7.4415Y-0.1515
X7.5999Y-0.6509
X7.6015Y-0.7515
X7.6315Y-0.8715
X7.7215Y0.4785
X7.8199Y-0.9231
X7.8415Y0.8985
X7.8515Y-0.2415
X7.8715Y-0.1109
X7.8715Y-0.1721
X7.9031Y-0.9199
X8.0115Y-1.7915
X8.0415Y-0.8415
X8.0415Y-0.9505
X8.1115Y-0.9615
X8.3015Y0.4385
X8.3015Y-0.3315
X8.4615Y-1.0715
X8.7115Y-1.4915
T3
X3.091Y0.7935
X3.3469Y0.7935
T2
G00X3.8114Y0.878
M15
G01X3.8114Y0.8543
M16
G05
G00X3.8114Y0.7232
M15
G01X3.8114Y0.6799
M16
G05
G00X4.1516Y0.878
M15
G01X4.1516Y0.8543
M16
G05
G00X4.1516Y0.7232
M15
G01X4.1516Y0.6799
M16
G05
T0
M30
