G04 #@! TF.GenerationSoftware,KiCad,Pcbnew,(5.1.9)-1*
G04 #@! TF.CreationDate,2021-04-12T00:24:37-07:00*
G04 #@! TF.ProjectId,euclid36,6575636c-6964-4333-962e-6b696361645f,1.2*
G04 #@! TF.SameCoordinates,PX2faf080PY2faf080*
G04 #@! TF.FileFunction,Soldermask,Bot*
G04 #@! TF.FilePolarity,Negative*
%FSLAX46Y46*%
G04 Gerber Fmt 4.6, Leading zero omitted, Abs format (unit mm)*
G04 Created by KiCad (PCBNEW (5.1.9)-1) date 2021-04-12 00:24:37*
%MOMM*%
%LPD*%
G01*
G04 APERTURE LIST*
%ADD10C,4.502000*%
%ADD11C,0.750000*%
%ADD12O,1.100000X2.200000*%
%ADD13O,1.100000X1.700000*%
%ADD14C,1.803800*%
%ADD15C,3.102000*%
%ADD16C,3.531000*%
%ADD17C,1.092600*%
%ADD18C,2.102000*%
%ADD19C,1.002000*%
%ADD20C,0.100000*%
G04 APERTURE END LIST*
D10*
X179650000Y-18830000D03*
X24840000Y-14210000D03*
X178040000Y-61730000D03*
X5010000Y-39850000D03*
X195700000Y-45200000D03*
X118890000Y-50790000D03*
X83710000Y-50160000D03*
X101650000Y-89500000D03*
X19390000Y-59340000D03*
X2980000Y18740000D03*
X195770000Y18060000D03*
X64080000Y16870000D03*
X135160000Y16400000D03*
X102020000Y-4230000D03*
G36*
G01*
X97188000Y-32342000D02*
X97188000Y-30842000D01*
G75*
G02*
X97388000Y-30642000I200000J0D01*
G01*
X97888000Y-30642000D01*
G75*
G02*
X98088000Y-30842000I0J-200000D01*
G01*
X98088000Y-32342000D01*
G75*
G02*
X97888000Y-32542000I-200000J0D01*
G01*
X97388000Y-32542000D01*
G75*
G02*
X97188000Y-32342000I0J200000D01*
G01*
G37*
G36*
G01*
X97988000Y-32342000D02*
X97988000Y-30842000D01*
G75*
G02*
X98188000Y-30642000I200000J0D01*
G01*
X98688000Y-30642000D01*
G75*
G02*
X98888000Y-30842000I0J-200000D01*
G01*
X98888000Y-32342000D01*
G75*
G02*
X98688000Y-32542000I-200000J0D01*
G01*
X98188000Y-32542000D01*
G75*
G02*
X97988000Y-32342000I0J200000D01*
G01*
G37*
G36*
G01*
X98788000Y-32342000D02*
X98788000Y-30842000D01*
G75*
G02*
X98988000Y-30642000I200000J0D01*
G01*
X99488000Y-30642000D01*
G75*
G02*
X99688000Y-30842000I0J-200000D01*
G01*
X99688000Y-32342000D01*
G75*
G02*
X99488000Y-32542000I-200000J0D01*
G01*
X98988000Y-32542000D01*
G75*
G02*
X98788000Y-32342000I0J200000D01*
G01*
G37*
G36*
G01*
X99588000Y-32342000D02*
X99588000Y-30842000D01*
G75*
G02*
X99788000Y-30642000I200000J0D01*
G01*
X100288000Y-30642000D01*
G75*
G02*
X100488000Y-30842000I0J-200000D01*
G01*
X100488000Y-32342000D01*
G75*
G02*
X100288000Y-32542000I-200000J0D01*
G01*
X99788000Y-32542000D01*
G75*
G02*
X99588000Y-32342000I0J200000D01*
G01*
G37*
G36*
G01*
X100388000Y-32342000D02*
X100388000Y-30842000D01*
G75*
G02*
X100588000Y-30642000I200000J0D01*
G01*
X101088000Y-30642000D01*
G75*
G02*
X101288000Y-30842000I0J-200000D01*
G01*
X101288000Y-32342000D01*
G75*
G02*
X101088000Y-32542000I-200000J0D01*
G01*
X100588000Y-32542000D01*
G75*
G02*
X100388000Y-32342000I0J200000D01*
G01*
G37*
G36*
G01*
X101188000Y-32342000D02*
X101188000Y-30842000D01*
G75*
G02*
X101388000Y-30642000I200000J0D01*
G01*
X101888000Y-30642000D01*
G75*
G02*
X102088000Y-30842000I0J-200000D01*
G01*
X102088000Y-32342000D01*
G75*
G02*
X101888000Y-32542000I-200000J0D01*
G01*
X101388000Y-32542000D01*
G75*
G02*
X101188000Y-32342000I0J200000D01*
G01*
G37*
G36*
G01*
X101988000Y-32342000D02*
X101988000Y-30842000D01*
G75*
G02*
X102188000Y-30642000I200000J0D01*
G01*
X102688000Y-30642000D01*
G75*
G02*
X102888000Y-30842000I0J-200000D01*
G01*
X102888000Y-32342000D01*
G75*
G02*
X102688000Y-32542000I-200000J0D01*
G01*
X102188000Y-32542000D01*
G75*
G02*
X101988000Y-32342000I0J200000D01*
G01*
G37*
G36*
G01*
X102788000Y-32342000D02*
X102788000Y-30842000D01*
G75*
G02*
X102988000Y-30642000I200000J0D01*
G01*
X103488000Y-30642000D01*
G75*
G02*
X103688000Y-30842000I0J-200000D01*
G01*
X103688000Y-32342000D01*
G75*
G02*
X103488000Y-32542000I-200000J0D01*
G01*
X102988000Y-32542000D01*
G75*
G02*
X102788000Y-32342000I0J200000D01*
G01*
G37*
G36*
G01*
X103588000Y-32342000D02*
X103588000Y-30842000D01*
G75*
G02*
X103788000Y-30642000I200000J0D01*
G01*
X104288000Y-30642000D01*
G75*
G02*
X104488000Y-30842000I0J-200000D01*
G01*
X104488000Y-32342000D01*
G75*
G02*
X104288000Y-32542000I-200000J0D01*
G01*
X103788000Y-32542000D01*
G75*
G02*
X103588000Y-32342000I0J200000D01*
G01*
G37*
G36*
G01*
X104388000Y-32342000D02*
X104388000Y-30842000D01*
G75*
G02*
X104588000Y-30642000I200000J0D01*
G01*
X105088000Y-30642000D01*
G75*
G02*
X105288000Y-30842000I0J-200000D01*
G01*
X105288000Y-32342000D01*
G75*
G02*
X105088000Y-32542000I-200000J0D01*
G01*
X104588000Y-32542000D01*
G75*
G02*
X104388000Y-32342000I0J200000D01*
G01*
G37*
G36*
G01*
X105188000Y-32342000D02*
X105188000Y-30842000D01*
G75*
G02*
X105388000Y-30642000I200000J0D01*
G01*
X105888000Y-30642000D01*
G75*
G02*
X106088000Y-30842000I0J-200000D01*
G01*
X106088000Y-32342000D01*
G75*
G02*
X105888000Y-32542000I-200000J0D01*
G01*
X105388000Y-32542000D01*
G75*
G02*
X105188000Y-32342000I0J200000D01*
G01*
G37*
G36*
G01*
X106588000Y-29942000D02*
X106588000Y-29442000D01*
G75*
G02*
X106788000Y-29242000I200000J0D01*
G01*
X108288000Y-29242000D01*
G75*
G02*
X108488000Y-29442000I0J-200000D01*
G01*
X108488000Y-29942000D01*
G75*
G02*
X108288000Y-30142000I-200000J0D01*
G01*
X106788000Y-30142000D01*
G75*
G02*
X106588000Y-29942000I0J200000D01*
G01*
G37*
G36*
G01*
X106588000Y-29142000D02*
X106588000Y-28642000D01*
G75*
G02*
X106788000Y-28442000I200000J0D01*
G01*
X108288000Y-28442000D01*
G75*
G02*
X108488000Y-28642000I0J-200000D01*
G01*
X108488000Y-29142000D01*
G75*
G02*
X108288000Y-29342000I-200000J0D01*
G01*
X106788000Y-29342000D01*
G75*
G02*
X106588000Y-29142000I0J200000D01*
G01*
G37*
G36*
G01*
X106588000Y-28342000D02*
X106588000Y-27842000D01*
G75*
G02*
X106788000Y-27642000I200000J0D01*
G01*
X108288000Y-27642000D01*
G75*
G02*
X108488000Y-27842000I0J-200000D01*
G01*
X108488000Y-28342000D01*
G75*
G02*
X108288000Y-28542000I-200000J0D01*
G01*
X106788000Y-28542000D01*
G75*
G02*
X106588000Y-28342000I0J200000D01*
G01*
G37*
G36*
G01*
X106588000Y-27542000D02*
X106588000Y-27042000D01*
G75*
G02*
X106788000Y-26842000I200000J0D01*
G01*
X108288000Y-26842000D01*
G75*
G02*
X108488000Y-27042000I0J-200000D01*
G01*
X108488000Y-27542000D01*
G75*
G02*
X108288000Y-27742000I-200000J0D01*
G01*
X106788000Y-27742000D01*
G75*
G02*
X106588000Y-27542000I0J200000D01*
G01*
G37*
G36*
G01*
X106588000Y-26742000D02*
X106588000Y-26242000D01*
G75*
G02*
X106788000Y-26042000I200000J0D01*
G01*
X108288000Y-26042000D01*
G75*
G02*
X108488000Y-26242000I0J-200000D01*
G01*
X108488000Y-26742000D01*
G75*
G02*
X108288000Y-26942000I-200000J0D01*
G01*
X106788000Y-26942000D01*
G75*
G02*
X106588000Y-26742000I0J200000D01*
G01*
G37*
G36*
G01*
X106588000Y-25942000D02*
X106588000Y-25442000D01*
G75*
G02*
X106788000Y-25242000I200000J0D01*
G01*
X108288000Y-25242000D01*
G75*
G02*
X108488000Y-25442000I0J-200000D01*
G01*
X108488000Y-25942000D01*
G75*
G02*
X108288000Y-26142000I-200000J0D01*
G01*
X106788000Y-26142000D01*
G75*
G02*
X106588000Y-25942000I0J200000D01*
G01*
G37*
G36*
G01*
X106588000Y-25142000D02*
X106588000Y-24642000D01*
G75*
G02*
X106788000Y-24442000I200000J0D01*
G01*
X108288000Y-24442000D01*
G75*
G02*
X108488000Y-24642000I0J-200000D01*
G01*
X108488000Y-25142000D01*
G75*
G02*
X108288000Y-25342000I-200000J0D01*
G01*
X106788000Y-25342000D01*
G75*
G02*
X106588000Y-25142000I0J200000D01*
G01*
G37*
G36*
G01*
X106588000Y-24342000D02*
X106588000Y-23842000D01*
G75*
G02*
X106788000Y-23642000I200000J0D01*
G01*
X108288000Y-23642000D01*
G75*
G02*
X108488000Y-23842000I0J-200000D01*
G01*
X108488000Y-24342000D01*
G75*
G02*
X108288000Y-24542000I-200000J0D01*
G01*
X106788000Y-24542000D01*
G75*
G02*
X106588000Y-24342000I0J200000D01*
G01*
G37*
G36*
G01*
X106588000Y-23542000D02*
X106588000Y-23042000D01*
G75*
G02*
X106788000Y-22842000I200000J0D01*
G01*
X108288000Y-22842000D01*
G75*
G02*
X108488000Y-23042000I0J-200000D01*
G01*
X108488000Y-23542000D01*
G75*
G02*
X108288000Y-23742000I-200000J0D01*
G01*
X106788000Y-23742000D01*
G75*
G02*
X106588000Y-23542000I0J200000D01*
G01*
G37*
G36*
G01*
X106588000Y-22742000D02*
X106588000Y-22242000D01*
G75*
G02*
X106788000Y-22042000I200000J0D01*
G01*
X108288000Y-22042000D01*
G75*
G02*
X108488000Y-22242000I0J-200000D01*
G01*
X108488000Y-22742000D01*
G75*
G02*
X108288000Y-22942000I-200000J0D01*
G01*
X106788000Y-22942000D01*
G75*
G02*
X106588000Y-22742000I0J200000D01*
G01*
G37*
G36*
G01*
X106588000Y-21942000D02*
X106588000Y-21442000D01*
G75*
G02*
X106788000Y-21242000I200000J0D01*
G01*
X108288000Y-21242000D01*
G75*
G02*
X108488000Y-21442000I0J-200000D01*
G01*
X108488000Y-21942000D01*
G75*
G02*
X108288000Y-22142000I-200000J0D01*
G01*
X106788000Y-22142000D01*
G75*
G02*
X106588000Y-21942000I0J200000D01*
G01*
G37*
G36*
G01*
X105188000Y-20542000D02*
X105188000Y-19042000D01*
G75*
G02*
X105388000Y-18842000I200000J0D01*
G01*
X105888000Y-18842000D01*
G75*
G02*
X106088000Y-19042000I0J-200000D01*
G01*
X106088000Y-20542000D01*
G75*
G02*
X105888000Y-20742000I-200000J0D01*
G01*
X105388000Y-20742000D01*
G75*
G02*
X105188000Y-20542000I0J200000D01*
G01*
G37*
G36*
G01*
X104388000Y-20542000D02*
X104388000Y-19042000D01*
G75*
G02*
X104588000Y-18842000I200000J0D01*
G01*
X105088000Y-18842000D01*
G75*
G02*
X105288000Y-19042000I0J-200000D01*
G01*
X105288000Y-20542000D01*
G75*
G02*
X105088000Y-20742000I-200000J0D01*
G01*
X104588000Y-20742000D01*
G75*
G02*
X104388000Y-20542000I0J200000D01*
G01*
G37*
G36*
G01*
X103588000Y-20542000D02*
X103588000Y-19042000D01*
G75*
G02*
X103788000Y-18842000I200000J0D01*
G01*
X104288000Y-18842000D01*
G75*
G02*
X104488000Y-19042000I0J-200000D01*
G01*
X104488000Y-20542000D01*
G75*
G02*
X104288000Y-20742000I-200000J0D01*
G01*
X103788000Y-20742000D01*
G75*
G02*
X103588000Y-20542000I0J200000D01*
G01*
G37*
G36*
G01*
X102788000Y-20542000D02*
X102788000Y-19042000D01*
G75*
G02*
X102988000Y-18842000I200000J0D01*
G01*
X103488000Y-18842000D01*
G75*
G02*
X103688000Y-19042000I0J-200000D01*
G01*
X103688000Y-20542000D01*
G75*
G02*
X103488000Y-20742000I-200000J0D01*
G01*
X102988000Y-20742000D01*
G75*
G02*
X102788000Y-20542000I0J200000D01*
G01*
G37*
G36*
G01*
X101988000Y-20542000D02*
X101988000Y-19042000D01*
G75*
G02*
X102188000Y-18842000I200000J0D01*
G01*
X102688000Y-18842000D01*
G75*
G02*
X102888000Y-19042000I0J-200000D01*
G01*
X102888000Y-20542000D01*
G75*
G02*
X102688000Y-20742000I-200000J0D01*
G01*
X102188000Y-20742000D01*
G75*
G02*
X101988000Y-20542000I0J200000D01*
G01*
G37*
G36*
G01*
X101188000Y-20542000D02*
X101188000Y-19042000D01*
G75*
G02*
X101388000Y-18842000I200000J0D01*
G01*
X101888000Y-18842000D01*
G75*
G02*
X102088000Y-19042000I0J-200000D01*
G01*
X102088000Y-20542000D01*
G75*
G02*
X101888000Y-20742000I-200000J0D01*
G01*
X101388000Y-20742000D01*
G75*
G02*
X101188000Y-20542000I0J200000D01*
G01*
G37*
G36*
G01*
X100388000Y-20542000D02*
X100388000Y-19042000D01*
G75*
G02*
X100588000Y-18842000I200000J0D01*
G01*
X101088000Y-18842000D01*
G75*
G02*
X101288000Y-19042000I0J-200000D01*
G01*
X101288000Y-20542000D01*
G75*
G02*
X101088000Y-20742000I-200000J0D01*
G01*
X100588000Y-20742000D01*
G75*
G02*
X100388000Y-20542000I0J200000D01*
G01*
G37*
G36*
G01*
X99588000Y-20542000D02*
X99588000Y-19042000D01*
G75*
G02*
X99788000Y-18842000I200000J0D01*
G01*
X100288000Y-18842000D01*
G75*
G02*
X100488000Y-19042000I0J-200000D01*
G01*
X100488000Y-20542000D01*
G75*
G02*
X100288000Y-20742000I-200000J0D01*
G01*
X99788000Y-20742000D01*
G75*
G02*
X99588000Y-20542000I0J200000D01*
G01*
G37*
G36*
G01*
X98788000Y-20542000D02*
X98788000Y-19042000D01*
G75*
G02*
X98988000Y-18842000I200000J0D01*
G01*
X99488000Y-18842000D01*
G75*
G02*
X99688000Y-19042000I0J-200000D01*
G01*
X99688000Y-20542000D01*
G75*
G02*
X99488000Y-20742000I-200000J0D01*
G01*
X98988000Y-20742000D01*
G75*
G02*
X98788000Y-20542000I0J200000D01*
G01*
G37*
G36*
G01*
X97988000Y-20542000D02*
X97988000Y-19042000D01*
G75*
G02*
X98188000Y-18842000I200000J0D01*
G01*
X98688000Y-18842000D01*
G75*
G02*
X98888000Y-19042000I0J-200000D01*
G01*
X98888000Y-20542000D01*
G75*
G02*
X98688000Y-20742000I-200000J0D01*
G01*
X98188000Y-20742000D01*
G75*
G02*
X97988000Y-20542000I0J200000D01*
G01*
G37*
G36*
G01*
X97188000Y-20542000D02*
X97188000Y-19042000D01*
G75*
G02*
X97388000Y-18842000I200000J0D01*
G01*
X97888000Y-18842000D01*
G75*
G02*
X98088000Y-19042000I0J-200000D01*
G01*
X98088000Y-20542000D01*
G75*
G02*
X97888000Y-20742000I-200000J0D01*
G01*
X97388000Y-20742000D01*
G75*
G02*
X97188000Y-20542000I0J200000D01*
G01*
G37*
G36*
G01*
X94788000Y-21942000D02*
X94788000Y-21442000D01*
G75*
G02*
X94988000Y-21242000I200000J0D01*
G01*
X96488000Y-21242000D01*
G75*
G02*
X96688000Y-21442000I0J-200000D01*
G01*
X96688000Y-21942000D01*
G75*
G02*
X96488000Y-22142000I-200000J0D01*
G01*
X94988000Y-22142000D01*
G75*
G02*
X94788000Y-21942000I0J200000D01*
G01*
G37*
G36*
G01*
X94788000Y-22742000D02*
X94788000Y-22242000D01*
G75*
G02*
X94988000Y-22042000I200000J0D01*
G01*
X96488000Y-22042000D01*
G75*
G02*
X96688000Y-22242000I0J-200000D01*
G01*
X96688000Y-22742000D01*
G75*
G02*
X96488000Y-22942000I-200000J0D01*
G01*
X94988000Y-22942000D01*
G75*
G02*
X94788000Y-22742000I0J200000D01*
G01*
G37*
G36*
G01*
X94788000Y-23542000D02*
X94788000Y-23042000D01*
G75*
G02*
X94988000Y-22842000I200000J0D01*
G01*
X96488000Y-22842000D01*
G75*
G02*
X96688000Y-23042000I0J-200000D01*
G01*
X96688000Y-23542000D01*
G75*
G02*
X96488000Y-23742000I-200000J0D01*
G01*
X94988000Y-23742000D01*
G75*
G02*
X94788000Y-23542000I0J200000D01*
G01*
G37*
G36*
G01*
X94788000Y-24342000D02*
X94788000Y-23842000D01*
G75*
G02*
X94988000Y-23642000I200000J0D01*
G01*
X96488000Y-23642000D01*
G75*
G02*
X96688000Y-23842000I0J-200000D01*
G01*
X96688000Y-24342000D01*
G75*
G02*
X96488000Y-24542000I-200000J0D01*
G01*
X94988000Y-24542000D01*
G75*
G02*
X94788000Y-24342000I0J200000D01*
G01*
G37*
G36*
G01*
X94788000Y-25142000D02*
X94788000Y-24642000D01*
G75*
G02*
X94988000Y-24442000I200000J0D01*
G01*
X96488000Y-24442000D01*
G75*
G02*
X96688000Y-24642000I0J-200000D01*
G01*
X96688000Y-25142000D01*
G75*
G02*
X96488000Y-25342000I-200000J0D01*
G01*
X94988000Y-25342000D01*
G75*
G02*
X94788000Y-25142000I0J200000D01*
G01*
G37*
G36*
G01*
X94788000Y-25942000D02*
X94788000Y-25442000D01*
G75*
G02*
X94988000Y-25242000I200000J0D01*
G01*
X96488000Y-25242000D01*
G75*
G02*
X96688000Y-25442000I0J-200000D01*
G01*
X96688000Y-25942000D01*
G75*
G02*
X96488000Y-26142000I-200000J0D01*
G01*
X94988000Y-26142000D01*
G75*
G02*
X94788000Y-25942000I0J200000D01*
G01*
G37*
G36*
G01*
X94788000Y-26742000D02*
X94788000Y-26242000D01*
G75*
G02*
X94988000Y-26042000I200000J0D01*
G01*
X96488000Y-26042000D01*
G75*
G02*
X96688000Y-26242000I0J-200000D01*
G01*
X96688000Y-26742000D01*
G75*
G02*
X96488000Y-26942000I-200000J0D01*
G01*
X94988000Y-26942000D01*
G75*
G02*
X94788000Y-26742000I0J200000D01*
G01*
G37*
G36*
G01*
X94788000Y-27542000D02*
X94788000Y-27042000D01*
G75*
G02*
X94988000Y-26842000I200000J0D01*
G01*
X96488000Y-26842000D01*
G75*
G02*
X96688000Y-27042000I0J-200000D01*
G01*
X96688000Y-27542000D01*
G75*
G02*
X96488000Y-27742000I-200000J0D01*
G01*
X94988000Y-27742000D01*
G75*
G02*
X94788000Y-27542000I0J200000D01*
G01*
G37*
G36*
G01*
X94788000Y-28342000D02*
X94788000Y-27842000D01*
G75*
G02*
X94988000Y-27642000I200000J0D01*
G01*
X96488000Y-27642000D01*
G75*
G02*
X96688000Y-27842000I0J-200000D01*
G01*
X96688000Y-28342000D01*
G75*
G02*
X96488000Y-28542000I-200000J0D01*
G01*
X94988000Y-28542000D01*
G75*
G02*
X94788000Y-28342000I0J200000D01*
G01*
G37*
G36*
G01*
X94788000Y-29142000D02*
X94788000Y-28642000D01*
G75*
G02*
X94988000Y-28442000I200000J0D01*
G01*
X96488000Y-28442000D01*
G75*
G02*
X96688000Y-28642000I0J-200000D01*
G01*
X96688000Y-29142000D01*
G75*
G02*
X96488000Y-29342000I-200000J0D01*
G01*
X94988000Y-29342000D01*
G75*
G02*
X94788000Y-29142000I0J200000D01*
G01*
G37*
G36*
G01*
X94788000Y-29942000D02*
X94788000Y-29442000D01*
G75*
G02*
X94988000Y-29242000I200000J0D01*
G01*
X96488000Y-29242000D01*
G75*
G02*
X96688000Y-29442000I0J-200000D01*
G01*
X96688000Y-29942000D01*
G75*
G02*
X96488000Y-30142000I-200000J0D01*
G01*
X94988000Y-30142000D01*
G75*
G02*
X94788000Y-29942000I0J200000D01*
G01*
G37*
G36*
G01*
X104005000Y16180000D02*
X104005000Y17630000D01*
G75*
G02*
X104055000Y17680000I50000J0D01*
G01*
X104655000Y17680000D01*
G75*
G02*
X104705000Y17630000I0J-50000D01*
G01*
X104705000Y16180000D01*
G75*
G02*
X104655000Y16130000I-50000J0D01*
G01*
X104055000Y16130000D01*
G75*
G02*
X104005000Y16180000I0J50000D01*
G01*
G37*
G36*
G01*
X97555000Y16180000D02*
X97555000Y17630000D01*
G75*
G02*
X97605000Y17680000I50000J0D01*
G01*
X98205000Y17680000D01*
G75*
G02*
X98255000Y17630000I0J-50000D01*
G01*
X98255000Y16180000D01*
G75*
G02*
X98205000Y16130000I-50000J0D01*
G01*
X97605000Y16130000D01*
G75*
G02*
X97555000Y16180000I0J50000D01*
G01*
G37*
G36*
G01*
X103230000Y16180000D02*
X103230000Y17630000D01*
G75*
G02*
X103280000Y17680000I50000J0D01*
G01*
X103880000Y17680000D01*
G75*
G02*
X103930000Y17630000I0J-50000D01*
G01*
X103930000Y16180000D01*
G75*
G02*
X103880000Y16130000I-50000J0D01*
G01*
X103280000Y16130000D01*
G75*
G02*
X103230000Y16180000I0J50000D01*
G01*
G37*
G36*
G01*
X98330000Y16180000D02*
X98330000Y17630000D01*
G75*
G02*
X98380000Y17680000I50000J0D01*
G01*
X98980000Y17680000D01*
G75*
G02*
X99030000Y17630000I0J-50000D01*
G01*
X99030000Y16180000D01*
G75*
G02*
X98980000Y16130000I-50000J0D01*
G01*
X98380000Y16130000D01*
G75*
G02*
X98330000Y16180000I0J50000D01*
G01*
G37*
G36*
G01*
X99180000Y16180000D02*
X99180000Y17630000D01*
G75*
G02*
X99230000Y17680000I50000J0D01*
G01*
X99530000Y17680000D01*
G75*
G02*
X99580000Y17630000I0J-50000D01*
G01*
X99580000Y16180000D01*
G75*
G02*
X99530000Y16130000I-50000J0D01*
G01*
X99230000Y16130000D01*
G75*
G02*
X99180000Y16180000I0J50000D01*
G01*
G37*
G36*
G01*
X102680000Y16180000D02*
X102680000Y17630000D01*
G75*
G02*
X102730000Y17680000I50000J0D01*
G01*
X103030000Y17680000D01*
G75*
G02*
X103080000Y17630000I0J-50000D01*
G01*
X103080000Y16180000D01*
G75*
G02*
X103030000Y16130000I-50000J0D01*
G01*
X102730000Y16130000D01*
G75*
G02*
X102680000Y16180000I0J50000D01*
G01*
G37*
G36*
G01*
X99680000Y16180000D02*
X99680000Y17630000D01*
G75*
G02*
X99730000Y17680000I50000J0D01*
G01*
X100030000Y17680000D01*
G75*
G02*
X100080000Y17630000I0J-50000D01*
G01*
X100080000Y16180000D01*
G75*
G02*
X100030000Y16130000I-50000J0D01*
G01*
X99730000Y16130000D01*
G75*
G02*
X99680000Y16180000I0J50000D01*
G01*
G37*
G36*
G01*
X102180000Y16180000D02*
X102180000Y17630000D01*
G75*
G02*
X102230000Y17680000I50000J0D01*
G01*
X102530000Y17680000D01*
G75*
G02*
X102580000Y17630000I0J-50000D01*
G01*
X102580000Y16180000D01*
G75*
G02*
X102530000Y16130000I-50000J0D01*
G01*
X102230000Y16130000D01*
G75*
G02*
X102180000Y16180000I0J50000D01*
G01*
G37*
G36*
G01*
X100180000Y16180000D02*
X100180000Y17630000D01*
G75*
G02*
X100230000Y17680000I50000J0D01*
G01*
X100530000Y17680000D01*
G75*
G02*
X100580000Y17630000I0J-50000D01*
G01*
X100580000Y16180000D01*
G75*
G02*
X100530000Y16130000I-50000J0D01*
G01*
X100230000Y16130000D01*
G75*
G02*
X100180000Y16180000I0J50000D01*
G01*
G37*
G36*
G01*
X101680000Y16180000D02*
X101680000Y17630000D01*
G75*
G02*
X101730000Y17680000I50000J0D01*
G01*
X102030000Y17680000D01*
G75*
G02*
X102080000Y17630000I0J-50000D01*
G01*
X102080000Y16180000D01*
G75*
G02*
X102030000Y16130000I-50000J0D01*
G01*
X101730000Y16130000D01*
G75*
G02*
X101680000Y16180000I0J50000D01*
G01*
G37*
G36*
G01*
X101180000Y16180000D02*
X101180000Y17630000D01*
G75*
G02*
X101230000Y17680000I50000J0D01*
G01*
X101530000Y17680000D01*
G75*
G02*
X101580000Y17630000I0J-50000D01*
G01*
X101580000Y16180000D01*
G75*
G02*
X101530000Y16130000I-50000J0D01*
G01*
X101230000Y16130000D01*
G75*
G02*
X101180000Y16180000I0J50000D01*
G01*
G37*
G36*
G01*
X100680000Y16180000D02*
X100680000Y17630000D01*
G75*
G02*
X100730000Y17680000I50000J0D01*
G01*
X101030000Y17680000D01*
G75*
G02*
X101080000Y17630000I0J-50000D01*
G01*
X101080000Y16180000D01*
G75*
G02*
X101030000Y16130000I-50000J0D01*
G01*
X100730000Y16130000D01*
G75*
G02*
X100680000Y16180000I0J50000D01*
G01*
G37*
D11*
X104020000Y18350000D03*
X98240000Y18350000D03*
D12*
X96810000Y17820000D03*
X105450000Y17820000D03*
D13*
X96810000Y22000000D03*
X105450000Y22000000D03*
G36*
G01*
X108678999Y11889000D02*
X109329001Y11889000D01*
G75*
G02*
X109380000Y11838001I0J-50999D01*
G01*
X109380000Y10777999D01*
G75*
G02*
X109329001Y10727000I-50999J0D01*
G01*
X108678999Y10727000D01*
G75*
G02*
X108628000Y10777999I0J50999D01*
G01*
X108628000Y11838001D01*
G75*
G02*
X108678999Y11889000I50999J0D01*
G01*
G37*
G36*
G01*
X107728999Y11889000D02*
X108379001Y11889000D01*
G75*
G02*
X108430000Y11838001I0J-50999D01*
G01*
X108430000Y10777999D01*
G75*
G02*
X108379001Y10727000I-50999J0D01*
G01*
X107728999Y10727000D01*
G75*
G02*
X107678000Y10777999I0J50999D01*
G01*
X107678000Y11838001D01*
G75*
G02*
X107728999Y11889000I50999J0D01*
G01*
G37*
G36*
G01*
X109628999Y11889000D02*
X110279001Y11889000D01*
G75*
G02*
X110330000Y11838001I0J-50999D01*
G01*
X110330000Y10777999D01*
G75*
G02*
X110279001Y10727000I-50999J0D01*
G01*
X109628999Y10727000D01*
G75*
G02*
X109578000Y10777999I0J50999D01*
G01*
X109578000Y11838001D01*
G75*
G02*
X109628999Y11889000I50999J0D01*
G01*
G37*
G36*
G01*
X109628999Y14089000D02*
X110279001Y14089000D01*
G75*
G02*
X110330000Y14038001I0J-50999D01*
G01*
X110330000Y12977999D01*
G75*
G02*
X110279001Y12927000I-50999J0D01*
G01*
X109628999Y12927000D01*
G75*
G02*
X109578000Y12977999I0J50999D01*
G01*
X109578000Y14038001D01*
G75*
G02*
X109628999Y14089000I50999J0D01*
G01*
G37*
G36*
G01*
X108678999Y14089000D02*
X109329001Y14089000D01*
G75*
G02*
X109380000Y14038001I0J-50999D01*
G01*
X109380000Y12977999D01*
G75*
G02*
X109329001Y12927000I-50999J0D01*
G01*
X108678999Y12927000D01*
G75*
G02*
X108628000Y12977999I0J50999D01*
G01*
X108628000Y14038001D01*
G75*
G02*
X108678999Y14089000I50999J0D01*
G01*
G37*
G36*
G01*
X107728999Y14089000D02*
X108379001Y14089000D01*
G75*
G02*
X108430000Y14038001I0J-50999D01*
G01*
X108430000Y12977999D01*
G75*
G02*
X108379001Y12927000I-50999J0D01*
G01*
X107728999Y12927000D01*
G75*
G02*
X107678000Y12977999I0J50999D01*
G01*
X107678000Y14038001D01*
G75*
G02*
X107728999Y14089000I50999J0D01*
G01*
G37*
G36*
G01*
X102876125Y13011000D02*
X101923875Y13011000D01*
G75*
G02*
X101649000Y13285875I0J274875D01*
G01*
X101649000Y13863125D01*
G75*
G02*
X101923875Y14138000I274875J0D01*
G01*
X102876125Y14138000D01*
G75*
G02*
X103151000Y13863125I0J-274875D01*
G01*
X103151000Y13285875D01*
G75*
G02*
X102876125Y13011000I-274875J0D01*
G01*
G37*
G36*
G01*
X102876125Y11186000D02*
X101923875Y11186000D01*
G75*
G02*
X101649000Y11460875I0J274875D01*
G01*
X101649000Y12038125D01*
G75*
G02*
X101923875Y12313000I274875J0D01*
G01*
X102876125Y12313000D01*
G75*
G02*
X103151000Y12038125I0J-274875D01*
G01*
X103151000Y11460875D01*
G75*
G02*
X102876125Y11186000I-274875J0D01*
G01*
G37*
G36*
G01*
X105670125Y13011000D02*
X104717875Y13011000D01*
G75*
G02*
X104443000Y13285875I0J274875D01*
G01*
X104443000Y13863125D01*
G75*
G02*
X104717875Y14138000I274875J0D01*
G01*
X105670125Y14138000D01*
G75*
G02*
X105945000Y13863125I0J-274875D01*
G01*
X105945000Y13285875D01*
G75*
G02*
X105670125Y13011000I-274875J0D01*
G01*
G37*
G36*
G01*
X105670125Y11186000D02*
X104717875Y11186000D01*
G75*
G02*
X104443000Y11460875I0J274875D01*
G01*
X104443000Y12038125D01*
G75*
G02*
X104717875Y12313000I274875J0D01*
G01*
X105670125Y12313000D01*
G75*
G02*
X105945000Y12038125I0J-274875D01*
G01*
X105945000Y11460875D01*
G75*
G02*
X105670125Y11186000I-274875J0D01*
G01*
G37*
G36*
G01*
X100336125Y13011000D02*
X99383875Y13011000D01*
G75*
G02*
X99109000Y13285875I0J274875D01*
G01*
X99109000Y13863125D01*
G75*
G02*
X99383875Y14138000I274875J0D01*
G01*
X100336125Y14138000D01*
G75*
G02*
X100611000Y13863125I0J-274875D01*
G01*
X100611000Y13285875D01*
G75*
G02*
X100336125Y13011000I-274875J0D01*
G01*
G37*
G36*
G01*
X100336125Y11186000D02*
X99383875Y11186000D01*
G75*
G02*
X99109000Y11460875I0J274875D01*
G01*
X99109000Y12038125D01*
G75*
G02*
X99383875Y12313000I274875J0D01*
G01*
X100336125Y12313000D01*
G75*
G02*
X100611000Y12038125I0J-274875D01*
G01*
X100611000Y11460875D01*
G75*
G02*
X100336125Y11186000I-274875J0D01*
G01*
G37*
G36*
G01*
X110750125Y7677000D02*
X109797875Y7677000D01*
G75*
G02*
X109523000Y7951875I0J274875D01*
G01*
X109523000Y8529125D01*
G75*
G02*
X109797875Y8804000I274875J0D01*
G01*
X110750125Y8804000D01*
G75*
G02*
X111025000Y8529125I0J-274875D01*
G01*
X111025000Y7951875D01*
G75*
G02*
X110750125Y7677000I-274875J0D01*
G01*
G37*
G36*
G01*
X110750125Y5852000D02*
X109797875Y5852000D01*
G75*
G02*
X109523000Y6126875I0J274875D01*
G01*
X109523000Y6704125D01*
G75*
G02*
X109797875Y6979000I274875J0D01*
G01*
X110750125Y6979000D01*
G75*
G02*
X111025000Y6704125I0J-274875D01*
G01*
X111025000Y6126875D01*
G75*
G02*
X110750125Y5852000I-274875J0D01*
G01*
G37*
G36*
G01*
X107702125Y7677000D02*
X106749875Y7677000D01*
G75*
G02*
X106475000Y7951875I0J274875D01*
G01*
X106475000Y8529125D01*
G75*
G02*
X106749875Y8804000I274875J0D01*
G01*
X107702125Y8804000D01*
G75*
G02*
X107977000Y8529125I0J-274875D01*
G01*
X107977000Y7951875D01*
G75*
G02*
X107702125Y7677000I-274875J0D01*
G01*
G37*
G36*
G01*
X107702125Y5852000D02*
X106749875Y5852000D01*
G75*
G02*
X106475000Y6126875I0J274875D01*
G01*
X106475000Y6704125D01*
G75*
G02*
X106749875Y6979000I274875J0D01*
G01*
X107702125Y6979000D01*
G75*
G02*
X107977000Y6704125I0J-274875D01*
G01*
X107977000Y6126875D01*
G75*
G02*
X107702125Y5852000I-274875J0D01*
G01*
G37*
G36*
G01*
X109099000Y19805875D02*
X109099000Y20758125D01*
G75*
G02*
X109373875Y21033000I274875J0D01*
G01*
X109951125Y21033000D01*
G75*
G02*
X110226000Y20758125I0J-274875D01*
G01*
X110226000Y19805875D01*
G75*
G02*
X109951125Y19531000I-274875J0D01*
G01*
X109373875Y19531000D01*
G75*
G02*
X109099000Y19805875I0J274875D01*
G01*
G37*
G36*
G01*
X107274000Y19805875D02*
X107274000Y20758125D01*
G75*
G02*
X107548875Y21033000I274875J0D01*
G01*
X108126125Y21033000D01*
G75*
G02*
X108401000Y20758125I0J-274875D01*
G01*
X108401000Y19805875D01*
G75*
G02*
X108126125Y19531000I-274875J0D01*
G01*
X107548875Y19531000D01*
G75*
G02*
X107274000Y19805875I0J274875D01*
G01*
G37*
G36*
G01*
X95397000Y14432500D02*
X95397000Y13431500D01*
G75*
G02*
X95121500Y13156000I-275500J0D01*
G01*
X94570500Y13156000D01*
G75*
G02*
X94295000Y13431500I0J275500D01*
G01*
X94295000Y14432500D01*
G75*
G02*
X94570500Y14708000I275500J0D01*
G01*
X95121500Y14708000D01*
G75*
G02*
X95397000Y14432500I0J-275500D01*
G01*
G37*
G36*
G01*
X97297000Y14432500D02*
X97297000Y13431500D01*
G75*
G02*
X97021500Y13156000I-275500J0D01*
G01*
X96470500Y13156000D01*
G75*
G02*
X96195000Y13431500I0J275500D01*
G01*
X96195000Y14432500D01*
G75*
G02*
X96470500Y14708000I275500J0D01*
G01*
X97021500Y14708000D01*
G75*
G02*
X97297000Y14432500I0J-275500D01*
G01*
G37*
G36*
G01*
X93111000Y20528500D02*
X93111000Y19527500D01*
G75*
G02*
X92835500Y19252000I-275500J0D01*
G01*
X92284500Y19252000D01*
G75*
G02*
X92009000Y19527500I0J275500D01*
G01*
X92009000Y20528500D01*
G75*
G02*
X92284500Y20804000I275500J0D01*
G01*
X92835500Y20804000D01*
G75*
G02*
X93111000Y20528500I0J-275500D01*
G01*
G37*
G36*
G01*
X95011000Y20528500D02*
X95011000Y19527500D01*
G75*
G02*
X94735500Y19252000I-275500J0D01*
G01*
X94184500Y19252000D01*
G75*
G02*
X93909000Y19527500I0J275500D01*
G01*
X93909000Y20528500D01*
G75*
G02*
X94184500Y20804000I275500J0D01*
G01*
X94735500Y20804000D01*
G75*
G02*
X95011000Y20528500I0J-275500D01*
G01*
G37*
G36*
G01*
X103489000Y-13065999D02*
X103489000Y-14266001D01*
G75*
G02*
X103438001Y-14317000I-50999J0D01*
G01*
X102037999Y-14317000D01*
G75*
G02*
X101987000Y-14266001I0J50999D01*
G01*
X101987000Y-13065999D01*
G75*
G02*
X102037999Y-13015000I50999J0D01*
G01*
X103438001Y-13015000D01*
G75*
G02*
X103489000Y-13065999I0J-50999D01*
G01*
G37*
G36*
G01*
X101289000Y-13065999D02*
X101289000Y-14266001D01*
G75*
G02*
X101238001Y-14317000I-50999J0D01*
G01*
X99837999Y-14317000D01*
G75*
G02*
X99787000Y-14266001I0J50999D01*
G01*
X99787000Y-13065999D01*
G75*
G02*
X99837999Y-13015000I50999J0D01*
G01*
X101238001Y-13015000D01*
G75*
G02*
X101289000Y-13065999I0J-50999D01*
G01*
G37*
G36*
G01*
X101289000Y-14765999D02*
X101289000Y-15966001D01*
G75*
G02*
X101238001Y-16017000I-50999J0D01*
G01*
X99837999Y-16017000D01*
G75*
G02*
X99787000Y-15966001I0J50999D01*
G01*
X99787000Y-14765999D01*
G75*
G02*
X99837999Y-14715000I50999J0D01*
G01*
X101238001Y-14715000D01*
G75*
G02*
X101289000Y-14765999I0J-50999D01*
G01*
G37*
G36*
G01*
X103489000Y-14765999D02*
X103489000Y-15966001D01*
G75*
G02*
X103438001Y-16017000I-50999J0D01*
G01*
X102037999Y-16017000D01*
G75*
G02*
X101987000Y-15966001I0J50999D01*
G01*
X101987000Y-14765999D01*
G75*
G02*
X102037999Y-14715000I50999J0D01*
G01*
X103438001Y-14715000D01*
G75*
G02*
X103489000Y-14765999I0J-50999D01*
G01*
G37*
G36*
G01*
X90493875Y-14357000D02*
X91446125Y-14357000D01*
G75*
G02*
X91721000Y-14631875I0J-274875D01*
G01*
X91721000Y-15209125D01*
G75*
G02*
X91446125Y-15484000I-274875J0D01*
G01*
X90493875Y-15484000D01*
G75*
G02*
X90219000Y-15209125I0J274875D01*
G01*
X90219000Y-14631875D01*
G75*
G02*
X90493875Y-14357000I274875J0D01*
G01*
G37*
G36*
G01*
X90493875Y-12532000D02*
X91446125Y-12532000D01*
G75*
G02*
X91721000Y-12806875I0J-274875D01*
G01*
X91721000Y-13384125D01*
G75*
G02*
X91446125Y-13659000I-274875J0D01*
G01*
X90493875Y-13659000D01*
G75*
G02*
X90219000Y-13384125I0J274875D01*
G01*
X90219000Y-12806875D01*
G75*
G02*
X90493875Y-12532000I274875J0D01*
G01*
G37*
G36*
G01*
X112274125Y-30677000D02*
X111321875Y-30677000D01*
G75*
G02*
X111047000Y-30402125I0J274875D01*
G01*
X111047000Y-29824875D01*
G75*
G02*
X111321875Y-29550000I274875J0D01*
G01*
X112274125Y-29550000D01*
G75*
G02*
X112549000Y-29824875I0J-274875D01*
G01*
X112549000Y-30402125D01*
G75*
G02*
X112274125Y-30677000I-274875J0D01*
G01*
G37*
G36*
G01*
X112274125Y-32502000D02*
X111321875Y-32502000D01*
G75*
G02*
X111047000Y-32227125I0J274875D01*
G01*
X111047000Y-31649875D01*
G75*
G02*
X111321875Y-31375000I274875J0D01*
G01*
X112274125Y-31375000D01*
G75*
G02*
X112549000Y-31649875I0J-274875D01*
G01*
X112549000Y-32227125D01*
G75*
G02*
X112274125Y-32502000I-274875J0D01*
G01*
G37*
D14*
X35731035Y12295579D03*
X46356219Y9448569D03*
G36*
G01*
X41025631Y3371144D02*
X41698560Y5882551D01*
G75*
G02*
X41761022Y5918613I49262J-13200D01*
G01*
X44272429Y5245684D01*
G75*
G02*
X44308491Y5183222I-13200J-49262D01*
G01*
X43635562Y2671815D01*
G75*
G02*
X43573100Y2635753I-49262J13200D01*
G01*
X41061693Y3308682D01*
G75*
G02*
X41025631Y3371144I13200J49262D01*
G01*
G37*
D15*
X35243426Y8543947D03*
D16*
X41043627Y10872074D03*
D15*
X39503654Y5124815D03*
G36*
G01*
X30438589Y8485541D02*
X31111518Y10996948D01*
G75*
G02*
X31173980Y11033010I49262J-13200D01*
G01*
X33685387Y10360081D01*
G75*
G02*
X33721449Y10297619I-13200J-49262D01*
G01*
X33048520Y7786212D01*
G75*
G02*
X32986058Y7750150I-49262J13200D01*
G01*
X30474651Y8423079D01*
G75*
G02*
X30438589Y8485541I13200J49262D01*
G01*
G37*
D17*
X47172800Y13577927D03*
G36*
G01*
X201564277Y10031923D02*
X201444961Y10477215D01*
G75*
G02*
X201607949Y10759519I222646J59658D01*
G01*
X202903255Y11106595D01*
G75*
G02*
X203185559Y10943607I59658J-222646D01*
G01*
X203304875Y10498315D01*
G75*
G02*
X203141887Y10216011I-222646J-59658D01*
G01*
X201846581Y9868935D01*
G75*
G02*
X201564277Y10031923I-59658J222646D01*
G01*
G37*
G36*
G01*
X201222507Y11307428D02*
X201010275Y12099487D01*
G75*
G02*
X201046337Y12161949I49262J13200D01*
G01*
X202688411Y12601942D01*
G75*
G02*
X202750873Y12565880I13200J-49262D01*
G01*
X202963105Y11773821D01*
G75*
G02*
X202927043Y11711359I-49262J-13200D01*
G01*
X201284969Y11271366D01*
G75*
G02*
X201222507Y11307428I-13200J49262D01*
G01*
G37*
G36*
G01*
X196684513Y8538562D02*
X196472281Y9330621D01*
G75*
G02*
X196508343Y9393083I49262J13200D01*
G01*
X198150417Y9833076D01*
G75*
G02*
X198212879Y9797014I13200J-49262D01*
G01*
X198425111Y9004955D01*
G75*
G02*
X198389049Y8942493I-49262J-13200D01*
G01*
X196746975Y8502500D01*
G75*
G02*
X196684513Y8538562I-13200J49262D01*
G01*
G37*
G36*
G01*
X196296285Y9987451D02*
X196084053Y10779510D01*
G75*
G02*
X196120115Y10841972I49262J13200D01*
G01*
X197762189Y11281965D01*
G75*
G02*
X197824651Y11245903I13200J-49262D01*
G01*
X198036883Y10453844D01*
G75*
G02*
X198000821Y10391382I-49262J-13200D01*
G01*
X196358747Y9951389D01*
G75*
G02*
X196296285Y9987451I-13200J49262D01*
G01*
G37*
G36*
G01*
X206494779Y-8368963D02*
X206375463Y-7923671D01*
G75*
G02*
X206538451Y-7641367I222646J59658D01*
G01*
X207833757Y-7294291D01*
G75*
G02*
X208116061Y-7457279I59658J-222646D01*
G01*
X208235377Y-7902571D01*
G75*
G02*
X208072389Y-8184875I-222646J-59658D01*
G01*
X206777083Y-8531951D01*
G75*
G02*
X206494779Y-8368963I-59658J222646D01*
G01*
G37*
G36*
G01*
X206153009Y-7093458D02*
X205940777Y-6301399D01*
G75*
G02*
X205976839Y-6238937I49262J13200D01*
G01*
X207618913Y-5798944D01*
G75*
G02*
X207681375Y-5835006I13200J-49262D01*
G01*
X207893607Y-6627065D01*
G75*
G02*
X207857545Y-6689527I-49262J-13200D01*
G01*
X206215471Y-7129520D01*
G75*
G02*
X206153009Y-7093458I-13200J49262D01*
G01*
G37*
G36*
G01*
X201615015Y-9862324D02*
X201402783Y-9070265D01*
G75*
G02*
X201438845Y-9007803I49262J13200D01*
G01*
X203080919Y-8567810D01*
G75*
G02*
X203143381Y-8603872I13200J-49262D01*
G01*
X203355613Y-9395931D01*
G75*
G02*
X203319551Y-9458393I-49262J-13200D01*
G01*
X201677477Y-9898386D01*
G75*
G02*
X201615015Y-9862324I-13200J49262D01*
G01*
G37*
G36*
G01*
X201226787Y-8413435D02*
X201014555Y-7621376D01*
G75*
G02*
X201050617Y-7558914I49262J13200D01*
G01*
X202692691Y-7118921D01*
G75*
G02*
X202755153Y-7154983I13200J-49262D01*
G01*
X202967385Y-7947042D01*
G75*
G02*
X202931323Y-8009504I-49262J-13200D01*
G01*
X201289249Y-8449497D01*
G75*
G02*
X201226787Y-8413435I-13200J49262D01*
G01*
G37*
G36*
G01*
X211425281Y-26769849D02*
X211305965Y-26324557D01*
G75*
G02*
X211468953Y-26042253I222646J59658D01*
G01*
X212764259Y-25695177D01*
G75*
G02*
X213046563Y-25858165I59658J-222646D01*
G01*
X213165879Y-26303457D01*
G75*
G02*
X213002891Y-26585761I-222646J-59658D01*
G01*
X211707585Y-26932837D01*
G75*
G02*
X211425281Y-26769849I-59658J222646D01*
G01*
G37*
G36*
G01*
X211083511Y-25494344D02*
X210871279Y-24702285D01*
G75*
G02*
X210907341Y-24639823I49262J13200D01*
G01*
X212549415Y-24199830D01*
G75*
G02*
X212611877Y-24235892I13200J-49262D01*
G01*
X212824109Y-25027951D01*
G75*
G02*
X212788047Y-25090413I-49262J-13200D01*
G01*
X211145973Y-25530406D01*
G75*
G02*
X211083511Y-25494344I-13200J49262D01*
G01*
G37*
G36*
G01*
X206545517Y-28263210D02*
X206333285Y-27471151D01*
G75*
G02*
X206369347Y-27408689I49262J13200D01*
G01*
X208011421Y-26968696D01*
G75*
G02*
X208073883Y-27004758I13200J-49262D01*
G01*
X208286115Y-27796817D01*
G75*
G02*
X208250053Y-27859279I-49262J-13200D01*
G01*
X206607979Y-28299272D01*
G75*
G02*
X206545517Y-28263210I-13200J49262D01*
G01*
G37*
G36*
G01*
X206157289Y-26814321D02*
X205945057Y-26022262D01*
G75*
G02*
X205981119Y-25959800I49262J13200D01*
G01*
X207623193Y-25519807D01*
G75*
G02*
X207685655Y-25555869I13200J-49262D01*
G01*
X207897887Y-26347928D01*
G75*
G02*
X207861825Y-26410390I-49262J-13200D01*
G01*
X206219751Y-26850383D01*
G75*
G02*
X206157289Y-26814321I-13200J49262D01*
G01*
G37*
G36*
G01*
X186701627Y-20845950D02*
X186820943Y-21291242D01*
G75*
G02*
X186657955Y-21573546I-222646J-59658D01*
G01*
X185362649Y-21920622D01*
G75*
G02*
X185080345Y-21757634I-59658J222646D01*
G01*
X184961029Y-21312342D01*
G75*
G02*
X185124017Y-21030038I222646J59658D01*
G01*
X186419323Y-20682962D01*
G75*
G02*
X186701627Y-20845950I59658J-222646D01*
G01*
G37*
G36*
G01*
X187043397Y-22121455D02*
X187255629Y-22913514D01*
G75*
G02*
X187219567Y-22975976I-49262J-13200D01*
G01*
X185577493Y-23415969D01*
G75*
G02*
X185515031Y-23379907I-13200J49262D01*
G01*
X185302799Y-22587848D01*
G75*
G02*
X185338861Y-22525386I49262J13200D01*
G01*
X186980935Y-22085393D01*
G75*
G02*
X187043397Y-22121455I13200J-49262D01*
G01*
G37*
G36*
G01*
X191581391Y-19352589D02*
X191793623Y-20144648D01*
G75*
G02*
X191757561Y-20207110I-49262J-13200D01*
G01*
X190115487Y-20647103D01*
G75*
G02*
X190053025Y-20611041I-13200J49262D01*
G01*
X189840793Y-19818982D01*
G75*
G02*
X189876855Y-19756520I49262J13200D01*
G01*
X191518929Y-19316527D01*
G75*
G02*
X191581391Y-19352589I13200J-49262D01*
G01*
G37*
G36*
G01*
X191969619Y-20801478D02*
X192181851Y-21593537D01*
G75*
G02*
X192145789Y-21655999I-49262J-13200D01*
G01*
X190503715Y-22095992D01*
G75*
G02*
X190441253Y-22059930I-13200J49262D01*
G01*
X190229021Y-21267871D01*
G75*
G02*
X190265083Y-21205409I49262J13200D01*
G01*
X191907157Y-20765416D01*
G75*
G02*
X191969619Y-20801478I13200J-49262D01*
G01*
G37*
G36*
G01*
X181771125Y-2445064D02*
X181890441Y-2890356D01*
G75*
G02*
X181727453Y-3172660I-222646J-59658D01*
G01*
X180432147Y-3519736D01*
G75*
G02*
X180149843Y-3356748I-59658J222646D01*
G01*
X180030527Y-2911456D01*
G75*
G02*
X180193515Y-2629152I222646J59658D01*
G01*
X181488821Y-2282076D01*
G75*
G02*
X181771125Y-2445064I59658J-222646D01*
G01*
G37*
G36*
G01*
X182112895Y-3720569D02*
X182325127Y-4512628D01*
G75*
G02*
X182289065Y-4575090I-49262J-13200D01*
G01*
X180646991Y-5015083D01*
G75*
G02*
X180584529Y-4979021I-13200J49262D01*
G01*
X180372297Y-4186962D01*
G75*
G02*
X180408359Y-4124500I49262J13200D01*
G01*
X182050433Y-3684507D01*
G75*
G02*
X182112895Y-3720569I13200J-49262D01*
G01*
G37*
G36*
G01*
X186650889Y-951703D02*
X186863121Y-1743762D01*
G75*
G02*
X186827059Y-1806224I-49262J-13200D01*
G01*
X185184985Y-2246217D01*
G75*
G02*
X185122523Y-2210155I-13200J49262D01*
G01*
X184910291Y-1418096D01*
G75*
G02*
X184946353Y-1355634I49262J13200D01*
G01*
X186588427Y-915641D01*
G75*
G02*
X186650889Y-951703I13200J-49262D01*
G01*
G37*
G36*
G01*
X187039117Y-2400592D02*
X187251349Y-3192651D01*
G75*
G02*
X187215287Y-3255113I-49262J-13200D01*
G01*
X185573213Y-3695106D01*
G75*
G02*
X185510751Y-3659044I-13200J49262D01*
G01*
X185298519Y-2866985D01*
G75*
G02*
X185334581Y-2804523I49262J13200D01*
G01*
X186976655Y-2364530D01*
G75*
G02*
X187039117Y-2400592I13200J-49262D01*
G01*
G37*
G36*
G01*
X176840623Y15955822D02*
X176959939Y15510530D01*
G75*
G02*
X176796951Y15228226I-222646J-59658D01*
G01*
X175501645Y14881150D01*
G75*
G02*
X175219341Y15044138I-59658J222646D01*
G01*
X175100025Y15489430D01*
G75*
G02*
X175263013Y15771734I222646J59658D01*
G01*
X176558319Y16118810D01*
G75*
G02*
X176840623Y15955822I59658J-222646D01*
G01*
G37*
G36*
G01*
X177182393Y14680317D02*
X177394625Y13888258D01*
G75*
G02*
X177358563Y13825796I-49262J-13200D01*
G01*
X175716489Y13385803D01*
G75*
G02*
X175654027Y13421865I-13200J49262D01*
G01*
X175441795Y14213924D01*
G75*
G02*
X175477857Y14276386I49262J13200D01*
G01*
X177119931Y14716379D01*
G75*
G02*
X177182393Y14680317I13200J-49262D01*
G01*
G37*
G36*
G01*
X181720387Y17449183D02*
X181932619Y16657124D01*
G75*
G02*
X181896557Y16594662I-49262J-13200D01*
G01*
X180254483Y16154669D01*
G75*
G02*
X180192021Y16190731I-13200J49262D01*
G01*
X179979789Y16982790D01*
G75*
G02*
X180015851Y17045252I49262J13200D01*
G01*
X181657925Y17485245D01*
G75*
G02*
X181720387Y17449183I13200J-49262D01*
G01*
G37*
G36*
G01*
X182108615Y16000294D02*
X182320847Y15208235D01*
G75*
G02*
X182284785Y15145773I-49262J-13200D01*
G01*
X180642711Y14705780D01*
G75*
G02*
X180580249Y14741842I-13200J49262D01*
G01*
X180368017Y15533901D01*
G75*
G02*
X180404079Y15596363I49262J13200D01*
G01*
X182046153Y16036356D01*
G75*
G02*
X182108615Y16000294I13200J-49262D01*
G01*
G37*
G36*
G01*
X160818104Y14891627D02*
X160698788Y15336919D01*
G75*
G02*
X160861776Y15619223I222646J59658D01*
G01*
X162157082Y15966299D01*
G75*
G02*
X162439386Y15803311I59658J-222646D01*
G01*
X162558702Y15358019D01*
G75*
G02*
X162395714Y15075715I-222646J-59658D01*
G01*
X161100408Y14728639D01*
G75*
G02*
X160818104Y14891627I-59658J222646D01*
G01*
G37*
G36*
G01*
X160476334Y16167132D02*
X160264102Y16959191D01*
G75*
G02*
X160300164Y17021653I49262J13200D01*
G01*
X161942238Y17461646D01*
G75*
G02*
X162004700Y17425584I13200J-49262D01*
G01*
X162216932Y16633525D01*
G75*
G02*
X162180870Y16571063I-49262J-13200D01*
G01*
X160538796Y16131070D01*
G75*
G02*
X160476334Y16167132I-13200J49262D01*
G01*
G37*
G36*
G01*
X155938340Y13398266D02*
X155726108Y14190325D01*
G75*
G02*
X155762170Y14252787I49262J13200D01*
G01*
X157404244Y14692780D01*
G75*
G02*
X157466706Y14656718I13200J-49262D01*
G01*
X157678938Y13864659D01*
G75*
G02*
X157642876Y13802197I-49262J-13200D01*
G01*
X156000802Y13362204D01*
G75*
G02*
X155938340Y13398266I-13200J49262D01*
G01*
G37*
G36*
G01*
X155550112Y14847155D02*
X155337880Y15639214D01*
G75*
G02*
X155373942Y15701676I49262J13200D01*
G01*
X157016016Y16141669D01*
G75*
G02*
X157078478Y16105607I13200J-49262D01*
G01*
X157290710Y15313548D01*
G75*
G02*
X157254648Y15251086I-49262J-13200D01*
G01*
X155612574Y14811093D01*
G75*
G02*
X155550112Y14847155I-13200J49262D01*
G01*
G37*
G36*
G01*
X165748606Y-3509259D02*
X165629290Y-3063967D01*
G75*
G02*
X165792278Y-2781663I222646J59658D01*
G01*
X167087584Y-2434587D01*
G75*
G02*
X167369888Y-2597575I59658J-222646D01*
G01*
X167489204Y-3042867D01*
G75*
G02*
X167326216Y-3325171I-222646J-59658D01*
G01*
X166030910Y-3672247D01*
G75*
G02*
X165748606Y-3509259I-59658J222646D01*
G01*
G37*
G36*
G01*
X165406836Y-2233754D02*
X165194604Y-1441695D01*
G75*
G02*
X165230666Y-1379233I49262J13200D01*
G01*
X166872740Y-939240D01*
G75*
G02*
X166935202Y-975302I13200J-49262D01*
G01*
X167147434Y-1767361D01*
G75*
G02*
X167111372Y-1829823I-49262J-13200D01*
G01*
X165469298Y-2269816D01*
G75*
G02*
X165406836Y-2233754I-13200J49262D01*
G01*
G37*
G36*
G01*
X160868842Y-5002620D02*
X160656610Y-4210561D01*
G75*
G02*
X160692672Y-4148099I49262J13200D01*
G01*
X162334746Y-3708106D01*
G75*
G02*
X162397208Y-3744168I13200J-49262D01*
G01*
X162609440Y-4536227D01*
G75*
G02*
X162573378Y-4598689I-49262J-13200D01*
G01*
X160931304Y-5038682D01*
G75*
G02*
X160868842Y-5002620I-13200J49262D01*
G01*
G37*
G36*
G01*
X160480614Y-3553731D02*
X160268382Y-2761672D01*
G75*
G02*
X160304444Y-2699210I49262J13200D01*
G01*
X161946518Y-2259217D01*
G75*
G02*
X162008980Y-2295279I13200J-49262D01*
G01*
X162221212Y-3087338D01*
G75*
G02*
X162185150Y-3149800I-49262J-13200D01*
G01*
X160543076Y-3589793D01*
G75*
G02*
X160480614Y-3553731I-13200J49262D01*
G01*
G37*
G36*
G01*
X170679108Y-21910145D02*
X170559792Y-21464853D01*
G75*
G02*
X170722780Y-21182549I222646J59658D01*
G01*
X172018086Y-20835473D01*
G75*
G02*
X172300390Y-20998461I59658J-222646D01*
G01*
X172419706Y-21443753D01*
G75*
G02*
X172256718Y-21726057I-222646J-59658D01*
G01*
X170961412Y-22073133D01*
G75*
G02*
X170679108Y-21910145I-59658J222646D01*
G01*
G37*
G36*
G01*
X170337338Y-20634640D02*
X170125106Y-19842581D01*
G75*
G02*
X170161168Y-19780119I49262J13200D01*
G01*
X171803242Y-19340126D01*
G75*
G02*
X171865704Y-19376188I13200J-49262D01*
G01*
X172077936Y-20168247D01*
G75*
G02*
X172041874Y-20230709I-49262J-13200D01*
G01*
X170399800Y-20670702D01*
G75*
G02*
X170337338Y-20634640I-13200J49262D01*
G01*
G37*
G36*
G01*
X165799344Y-23403506D02*
X165587112Y-22611447D01*
G75*
G02*
X165623174Y-22548985I49262J13200D01*
G01*
X167265248Y-22108992D01*
G75*
G02*
X167327710Y-22145054I13200J-49262D01*
G01*
X167539942Y-22937113D01*
G75*
G02*
X167503880Y-22999575I-49262J-13200D01*
G01*
X165861806Y-23439568D01*
G75*
G02*
X165799344Y-23403506I-13200J49262D01*
G01*
G37*
G36*
G01*
X165411116Y-21954617D02*
X165198884Y-21162558D01*
G75*
G02*
X165234946Y-21100096I49262J13200D01*
G01*
X166877020Y-20660103D01*
G75*
G02*
X166939482Y-20696165I13200J-49262D01*
G01*
X167151714Y-21488224D01*
G75*
G02*
X167115652Y-21550686I-49262J-13200D01*
G01*
X165473578Y-21990679D01*
G75*
G02*
X165411116Y-21954617I-13200J49262D01*
G01*
G37*
G36*
G01*
X149899855Y-30706954D02*
X150019171Y-31152246D01*
G75*
G02*
X149856183Y-31434550I-222646J-59658D01*
G01*
X148560877Y-31781626D01*
G75*
G02*
X148278573Y-31618638I-59658J222646D01*
G01*
X148159257Y-31173346D01*
G75*
G02*
X148322245Y-30891042I222646J59658D01*
G01*
X149617551Y-30543966D01*
G75*
G02*
X149899855Y-30706954I59658J-222646D01*
G01*
G37*
G36*
G01*
X150241625Y-31982459D02*
X150453857Y-32774518D01*
G75*
G02*
X150417795Y-32836980I-49262J-13200D01*
G01*
X148775721Y-33276973D01*
G75*
G02*
X148713259Y-33240911I-13200J49262D01*
G01*
X148501027Y-32448852D01*
G75*
G02*
X148537089Y-32386390I49262J13200D01*
G01*
X150179163Y-31946397D01*
G75*
G02*
X150241625Y-31982459I13200J-49262D01*
G01*
G37*
G36*
G01*
X154779619Y-29213593D02*
X154991851Y-30005652D01*
G75*
G02*
X154955789Y-30068114I-49262J-13200D01*
G01*
X153313715Y-30508107D01*
G75*
G02*
X153251253Y-30472045I-13200J49262D01*
G01*
X153039021Y-29679986D01*
G75*
G02*
X153075083Y-29617524I49262J13200D01*
G01*
X154717157Y-29177531D01*
G75*
G02*
X154779619Y-29213593I13200J-49262D01*
G01*
G37*
G36*
G01*
X155167847Y-30662482D02*
X155380079Y-31454541D01*
G75*
G02*
X155344017Y-31517003I-49262J-13200D01*
G01*
X153701943Y-31956996D01*
G75*
G02*
X153639481Y-31920934I-13200J49262D01*
G01*
X153427249Y-31128875D01*
G75*
G02*
X153463311Y-31066413I49262J13200D01*
G01*
X155105385Y-30626420D01*
G75*
G02*
X155167847Y-30662482I13200J-49262D01*
G01*
G37*
G36*
G01*
X144969353Y-12306068D02*
X145088669Y-12751360D01*
G75*
G02*
X144925681Y-13033664I-222646J-59658D01*
G01*
X143630375Y-13380740D01*
G75*
G02*
X143348071Y-13217752I-59658J222646D01*
G01*
X143228755Y-12772460D01*
G75*
G02*
X143391743Y-12490156I222646J59658D01*
G01*
X144687049Y-12143080D01*
G75*
G02*
X144969353Y-12306068I59658J-222646D01*
G01*
G37*
G36*
G01*
X145311123Y-13581573D02*
X145523355Y-14373632D01*
G75*
G02*
X145487293Y-14436094I-49262J-13200D01*
G01*
X143845219Y-14876087D01*
G75*
G02*
X143782757Y-14840025I-13200J49262D01*
G01*
X143570525Y-14047966D01*
G75*
G02*
X143606587Y-13985504I49262J13200D01*
G01*
X145248661Y-13545511D01*
G75*
G02*
X145311123Y-13581573I13200J-49262D01*
G01*
G37*
G36*
G01*
X149849117Y-10812707D02*
X150061349Y-11604766D01*
G75*
G02*
X150025287Y-11667228I-49262J-13200D01*
G01*
X148383213Y-12107221D01*
G75*
G02*
X148320751Y-12071159I-13200J49262D01*
G01*
X148108519Y-11279100D01*
G75*
G02*
X148144581Y-11216638I49262J13200D01*
G01*
X149786655Y-10776645D01*
G75*
G02*
X149849117Y-10812707I13200J-49262D01*
G01*
G37*
G36*
G01*
X150237345Y-12261596D02*
X150449577Y-13053655D01*
G75*
G02*
X150413515Y-13116117I-49262J-13200D01*
G01*
X148771441Y-13556110D01*
G75*
G02*
X148708979Y-13520048I-13200J49262D01*
G01*
X148496747Y-12727989D01*
G75*
G02*
X148532809Y-12665527I49262J13200D01*
G01*
X150174883Y-12225534D01*
G75*
G02*
X150237345Y-12261596I13200J-49262D01*
G01*
G37*
G36*
G01*
X140038851Y6094818D02*
X140158167Y5649526D01*
G75*
G02*
X139995179Y5367222I-222646J-59658D01*
G01*
X138699873Y5020146D01*
G75*
G02*
X138417569Y5183134I-59658J222646D01*
G01*
X138298253Y5628426D01*
G75*
G02*
X138461241Y5910730I222646J59658D01*
G01*
X139756547Y6257806D01*
G75*
G02*
X140038851Y6094818I59658J-222646D01*
G01*
G37*
G36*
G01*
X140380621Y4819313D02*
X140592853Y4027254D01*
G75*
G02*
X140556791Y3964792I-49262J-13200D01*
G01*
X138914717Y3524799D01*
G75*
G02*
X138852255Y3560861I-13200J49262D01*
G01*
X138640023Y4352920D01*
G75*
G02*
X138676085Y4415382I49262J13200D01*
G01*
X140318159Y4855375D01*
G75*
G02*
X140380621Y4819313I13200J-49262D01*
G01*
G37*
G36*
G01*
X144918615Y7588179D02*
X145130847Y6796120D01*
G75*
G02*
X145094785Y6733658I-49262J-13200D01*
G01*
X143452711Y6293665D01*
G75*
G02*
X143390249Y6329727I-13200J49262D01*
G01*
X143178017Y7121786D01*
G75*
G02*
X143214079Y7184248I49262J13200D01*
G01*
X144856153Y7624241D01*
G75*
G02*
X144918615Y7588179I13200J-49262D01*
G01*
G37*
G36*
G01*
X145306843Y6139290D02*
X145519075Y5347231D01*
G75*
G02*
X145483013Y5284769I-49262J-13200D01*
G01*
X143840939Y4844776D01*
G75*
G02*
X143778477Y4880838I-13200J49262D01*
G01*
X143566245Y5672897D01*
G75*
G02*
X143602307Y5735359I49262J13200D01*
G01*
X145244381Y6175352D01*
G75*
G02*
X145306843Y6139290I13200J-49262D01*
G01*
G37*
G36*
G01*
X125988533Y-2329732D02*
X125869217Y-1884440D01*
G75*
G02*
X126032205Y-1602136I222646J59658D01*
G01*
X127327511Y-1255060D01*
G75*
G02*
X127609815Y-1418048I59658J-222646D01*
G01*
X127729131Y-1863340D01*
G75*
G02*
X127566143Y-2145644I-222646J-59658D01*
G01*
X126270837Y-2492720D01*
G75*
G02*
X125988533Y-2329732I-59658J222646D01*
G01*
G37*
G36*
G01*
X125646763Y-1054227D02*
X125434531Y-262168D01*
G75*
G02*
X125470593Y-199706I49262J13200D01*
G01*
X127112667Y240287D01*
G75*
G02*
X127175129Y204225I13200J-49262D01*
G01*
X127387361Y-587834D01*
G75*
G02*
X127351299Y-650296I-49262J-13200D01*
G01*
X125709225Y-1090289D01*
G75*
G02*
X125646763Y-1054227I-13200J49262D01*
G01*
G37*
G36*
G01*
X121108769Y-3823093D02*
X120896537Y-3031034D01*
G75*
G02*
X120932599Y-2968572I49262J13200D01*
G01*
X122574673Y-2528579D01*
G75*
G02*
X122637135Y-2564641I13200J-49262D01*
G01*
X122849367Y-3356700D01*
G75*
G02*
X122813305Y-3419162I-49262J-13200D01*
G01*
X121171231Y-3859155D01*
G75*
G02*
X121108769Y-3823093I-13200J49262D01*
G01*
G37*
G36*
G01*
X120720541Y-2374204D02*
X120508309Y-1582145D01*
G75*
G02*
X120544371Y-1519683I49262J13200D01*
G01*
X122186445Y-1079690D01*
G75*
G02*
X122248907Y-1115752I13200J-49262D01*
G01*
X122461139Y-1907811D01*
G75*
G02*
X122425077Y-1970273I-49262J-13200D01*
G01*
X120783003Y-2410266D01*
G75*
G02*
X120720541Y-2374204I-13200J49262D01*
G01*
G37*
G36*
G01*
X130919035Y-20730618D02*
X130799719Y-20285326D01*
G75*
G02*
X130962707Y-20003022I222646J59658D01*
G01*
X132258013Y-19655946D01*
G75*
G02*
X132540317Y-19818934I59658J-222646D01*
G01*
X132659633Y-20264226D01*
G75*
G02*
X132496645Y-20546530I-222646J-59658D01*
G01*
X131201339Y-20893606D01*
G75*
G02*
X130919035Y-20730618I-59658J222646D01*
G01*
G37*
G36*
G01*
X130577265Y-19455113D02*
X130365033Y-18663054D01*
G75*
G02*
X130401095Y-18600592I49262J13200D01*
G01*
X132043169Y-18160599D01*
G75*
G02*
X132105631Y-18196661I13200J-49262D01*
G01*
X132317863Y-18988720D01*
G75*
G02*
X132281801Y-19051182I-49262J-13200D01*
G01*
X130639727Y-19491175D01*
G75*
G02*
X130577265Y-19455113I-13200J49262D01*
G01*
G37*
G36*
G01*
X126039271Y-22223979D02*
X125827039Y-21431920D01*
G75*
G02*
X125863101Y-21369458I49262J13200D01*
G01*
X127505175Y-20929465D01*
G75*
G02*
X127567637Y-20965527I13200J-49262D01*
G01*
X127779869Y-21757586D01*
G75*
G02*
X127743807Y-21820048I-49262J-13200D01*
G01*
X126101733Y-22260041D01*
G75*
G02*
X126039271Y-22223979I-13200J49262D01*
G01*
G37*
G36*
G01*
X125651043Y-20775090D02*
X125438811Y-19983031D01*
G75*
G02*
X125474873Y-19920569I49262J13200D01*
G01*
X127116947Y-19480576D01*
G75*
G02*
X127179409Y-19516638I13200J-49262D01*
G01*
X127391641Y-20308697D01*
G75*
G02*
X127355579Y-20371159I-49262J-13200D01*
G01*
X125713505Y-20811152D01*
G75*
G02*
X125651043Y-20775090I-13200J49262D01*
G01*
G37*
G36*
G01*
X135849537Y-39131504D02*
X135730221Y-38686212D01*
G75*
G02*
X135893209Y-38403908I222646J59658D01*
G01*
X137188515Y-38056832D01*
G75*
G02*
X137470819Y-38219820I59658J-222646D01*
G01*
X137590135Y-38665112D01*
G75*
G02*
X137427147Y-38947416I-222646J-59658D01*
G01*
X136131841Y-39294492D01*
G75*
G02*
X135849537Y-39131504I-59658J222646D01*
G01*
G37*
G36*
G01*
X135507767Y-37855999D02*
X135295535Y-37063940D01*
G75*
G02*
X135331597Y-37001478I49262J13200D01*
G01*
X136973671Y-36561485D01*
G75*
G02*
X137036133Y-36597547I13200J-49262D01*
G01*
X137248365Y-37389606D01*
G75*
G02*
X137212303Y-37452068I-49262J-13200D01*
G01*
X135570229Y-37892061D01*
G75*
G02*
X135507767Y-37855999I-13200J49262D01*
G01*
G37*
G36*
G01*
X130969773Y-40624865D02*
X130757541Y-39832806D01*
G75*
G02*
X130793603Y-39770344I49262J13200D01*
G01*
X132435677Y-39330351D01*
G75*
G02*
X132498139Y-39366413I13200J-49262D01*
G01*
X132710371Y-40158472D01*
G75*
G02*
X132674309Y-40220934I-49262J-13200D01*
G01*
X131032235Y-40660927D01*
G75*
G02*
X130969773Y-40624865I-13200J49262D01*
G01*
G37*
G36*
G01*
X130581545Y-39175976D02*
X130369313Y-38383917D01*
G75*
G02*
X130405375Y-38321455I49262J13200D01*
G01*
X132047449Y-37881462D01*
G75*
G02*
X132109911Y-37917524I13200J-49262D01*
G01*
X132322143Y-38709583D01*
G75*
G02*
X132286081Y-38772045I-49262J-13200D01*
G01*
X130644007Y-39212038D01*
G75*
G02*
X130581545Y-39175976I-13200J49262D01*
G01*
G37*
G36*
G01*
X161810527Y-62415694D02*
X161691211Y-61970402D01*
G75*
G02*
X161854199Y-61688098I222646J59658D01*
G01*
X163149505Y-61341022D01*
G75*
G02*
X163431809Y-61504010I59658J-222646D01*
G01*
X163551125Y-61949302D01*
G75*
G02*
X163388137Y-62231606I-222646J-59658D01*
G01*
X162092831Y-62578682D01*
G75*
G02*
X161810527Y-62415694I-59658J222646D01*
G01*
G37*
G36*
G01*
X161468757Y-61140189D02*
X161256525Y-60348130D01*
G75*
G02*
X161292587Y-60285668I49262J13200D01*
G01*
X162934661Y-59845675D01*
G75*
G02*
X162997123Y-59881737I13200J-49262D01*
G01*
X163209355Y-60673796D01*
G75*
G02*
X163173293Y-60736258I-49262J-13200D01*
G01*
X161531219Y-61176251D01*
G75*
G02*
X161468757Y-61140189I-13200J49262D01*
G01*
G37*
G36*
G01*
X156930763Y-63909055D02*
X156718531Y-63116996D01*
G75*
G02*
X156754593Y-63054534I49262J13200D01*
G01*
X158396667Y-62614541D01*
G75*
G02*
X158459129Y-62650603I13200J-49262D01*
G01*
X158671361Y-63442662D01*
G75*
G02*
X158635299Y-63505124I-49262J-13200D01*
G01*
X156993225Y-63945117D01*
G75*
G02*
X156930763Y-63909055I-13200J49262D01*
G01*
G37*
G36*
G01*
X156542535Y-62460166D02*
X156330303Y-61668107D01*
G75*
G02*
X156366365Y-61605645I49262J13200D01*
G01*
X158008439Y-61165652D01*
G75*
G02*
X158070901Y-61201714I13200J-49262D01*
G01*
X158283133Y-61993773D01*
G75*
G02*
X158247071Y-62056235I-49262J-13200D01*
G01*
X156604997Y-62496228D01*
G75*
G02*
X156542535Y-62460166I-13200J49262D01*
G01*
G37*
G36*
G01*
X140655305Y-70350794D02*
X140460478Y-69932987D01*
G75*
G02*
X140571968Y-69626669I208904J97414D01*
G01*
X141787327Y-69059938D01*
G75*
G02*
X142093645Y-69171428I97414J-208904D01*
G01*
X142288472Y-69589235D01*
G75*
G02*
X142176982Y-69895553I-208904J-97414D01*
G01*
X140961623Y-70462284D01*
G75*
G02*
X140655305Y-70350794I-97414J208904D01*
G01*
G37*
G36*
G01*
X140097237Y-69154016D02*
X139750690Y-68410843D01*
G75*
G02*
X139775358Y-68343067I46222J21554D01*
G01*
X141316081Y-67624616D01*
G75*
G02*
X141383857Y-67649284I21554J-46222D01*
G01*
X141730404Y-68392457D01*
G75*
G02*
X141705736Y-68460233I-46222J-21554D01*
G01*
X140165013Y-69178684D01*
G75*
G02*
X140097237Y-69154016I-21554J46222D01*
G01*
G37*
G36*
G01*
X136108995Y-72668830D02*
X135762448Y-71925657D01*
G75*
G02*
X135787116Y-71857881I46222J21554D01*
G01*
X137327839Y-71139430D01*
G75*
G02*
X137395615Y-71164098I21554J-46222D01*
G01*
X137742162Y-71907271D01*
G75*
G02*
X137717494Y-71975047I-46222J-21554D01*
G01*
X136176771Y-72693498D01*
G75*
G02*
X136108995Y-72668830I-21554J46222D01*
G01*
G37*
G36*
G01*
X135475067Y-71309369D02*
X135128520Y-70566196D01*
G75*
G02*
X135153188Y-70498420I46222J21554D01*
G01*
X136693911Y-69779969D01*
G75*
G02*
X136761687Y-69804637I21554J-46222D01*
G01*
X137108234Y-70547810D01*
G75*
G02*
X137083566Y-70615586I-46222J-21554D01*
G01*
X135542843Y-71334037D01*
G75*
G02*
X135475067Y-71309369I-21554J46222D01*
G01*
G37*
G36*
G01*
X121252607Y-81221039D02*
X120988188Y-80843409D01*
G75*
G02*
X121044794Y-80522385I188815J132209D01*
G01*
X122143277Y-79753219D01*
G75*
G02*
X122464301Y-79809825I132209J-188815D01*
G01*
X122728720Y-80187455D01*
G75*
G02*
X122672114Y-80508479I-188815J-132209D01*
G01*
X121573631Y-81277645D01*
G75*
G02*
X121252607Y-81221039I-132209J188815D01*
G01*
G37*
G36*
G01*
X120495199Y-80139348D02*
X120024866Y-79467644D01*
G75*
G02*
X120037391Y-79396615I41777J29252D01*
G01*
X121429950Y-78421535D01*
G75*
G02*
X121500979Y-78434060I29252J-41777D01*
G01*
X121971312Y-79105764D01*
G75*
G02*
X121958787Y-79176793I-41777J-29252D01*
G01*
X120566228Y-80151873D01*
G75*
G02*
X120495199Y-80139348I-29252J41777D01*
G01*
G37*
G36*
G01*
X117177889Y-84293316D02*
X116707556Y-83621612D01*
G75*
G02*
X116720081Y-83550583I41777J29252D01*
G01*
X118112640Y-82575503D01*
G75*
G02*
X118183669Y-82588028I29252J-41777D01*
G01*
X118654002Y-83259732D01*
G75*
G02*
X118641477Y-83330761I-41777J-29252D01*
G01*
X117248918Y-84305841D01*
G75*
G02*
X117177889Y-84293316I-29252J41777D01*
G01*
G37*
G36*
G01*
X116317524Y-83064588D02*
X115847191Y-82392884D01*
G75*
G02*
X115859716Y-82321855I41777J29252D01*
G01*
X117252275Y-81346775D01*
G75*
G02*
X117323304Y-81359300I29252J-41777D01*
G01*
X117793637Y-82031004D01*
G75*
G02*
X117781112Y-82102033I-41777J-29252D01*
G01*
X116388553Y-83077113D01*
G75*
G02*
X116317524Y-83064588I-29252J41777D01*
G01*
G37*
G36*
G01*
X82680551Y-83112695D02*
X82944970Y-82735065D01*
G75*
G02*
X83265994Y-82678459I188815J-132209D01*
G01*
X84364477Y-83447625D01*
G75*
G02*
X84421083Y-83768649I-132209J-188815D01*
G01*
X84156664Y-84146279D01*
G75*
G02*
X83835640Y-84202885I-188815J132209D01*
G01*
X82737157Y-83433719D01*
G75*
G02*
X82680551Y-83112695I132209J188815D01*
G01*
G37*
G36*
G01*
X83437959Y-82031004D02*
X83908292Y-81359300D01*
G75*
G02*
X83979321Y-81346775I41777J-29252D01*
G01*
X85371880Y-82321855D01*
G75*
G02*
X85384405Y-82392884I-29252J-41777D01*
G01*
X84914072Y-83064588D01*
G75*
G02*
X84843043Y-83077113I-41777J29252D01*
G01*
X83450484Y-82102033D01*
G75*
G02*
X83437959Y-82031004I29252J41777D01*
G01*
G37*
G36*
G01*
X78399919Y-80334492D02*
X78870252Y-79662788D01*
G75*
G02*
X78941281Y-79650263I41777J-29252D01*
G01*
X80333840Y-80625343D01*
G75*
G02*
X80346365Y-80696372I-29252J-41777D01*
G01*
X79876032Y-81368076D01*
G75*
G02*
X79805003Y-81380601I-41777J29252D01*
G01*
X78412444Y-80405521D01*
G75*
G02*
X78399919Y-80334492I29252J41777D01*
G01*
G37*
G36*
G01*
X79260284Y-79105764D02*
X79730617Y-78434060D01*
G75*
G02*
X79801646Y-78421535I41777J-29252D01*
G01*
X81194205Y-79396615D01*
G75*
G02*
X81206730Y-79467644I-29252J-41777D01*
G01*
X80736397Y-80139348D01*
G75*
G02*
X80665368Y-80151873I-41777J29252D01*
G01*
X79272809Y-79176793D01*
G75*
G02*
X79260284Y-79105764I29252J41777D01*
G01*
G37*
G36*
G01*
X63565294Y-71744588D02*
X63760121Y-71326781D01*
G75*
G02*
X64066439Y-71215291I208904J-97414D01*
G01*
X65281798Y-71782022D01*
G75*
G02*
X65393288Y-72088340I-97414J-208904D01*
G01*
X65198461Y-72506147D01*
G75*
G02*
X64892143Y-72617637I-208904J97414D01*
G01*
X63676784Y-72050906D01*
G75*
G02*
X63565294Y-71744588I97414J208904D01*
G01*
G37*
G36*
G01*
X64123362Y-70547810D02*
X64469909Y-69804637D01*
G75*
G02*
X64537685Y-69779969I46222J-21554D01*
G01*
X66078408Y-70498420D01*
G75*
G02*
X66103076Y-70566196I-21554J-46222D01*
G01*
X65756529Y-71309369D01*
G75*
G02*
X65688753Y-71334037I-46222J21554D01*
G01*
X64148030Y-70615586D01*
G75*
G02*
X64123362Y-70547810I21554J46222D01*
G01*
G37*
G36*
G01*
X58867264Y-69751918D02*
X59213811Y-69008745D01*
G75*
G02*
X59281587Y-68984077I46222J-21554D01*
G01*
X60822310Y-69702528D01*
G75*
G02*
X60846978Y-69770304I-21554J-46222D01*
G01*
X60500431Y-70513477D01*
G75*
G02*
X60432655Y-70538145I-46222J21554D01*
G01*
X58891932Y-69819694D01*
G75*
G02*
X58867264Y-69751918I21554J46222D01*
G01*
G37*
G36*
G01*
X59501192Y-68392457D02*
X59847739Y-67649284D01*
G75*
G02*
X59915515Y-67624616I46222J-21554D01*
G01*
X61456238Y-68343067D01*
G75*
G02*
X61480906Y-68410843I-21554J-46222D01*
G01*
X61134359Y-69154016D01*
G75*
G02*
X61066583Y-69178684I-46222J21554D01*
G01*
X59525860Y-68460233D01*
G75*
G02*
X59501192Y-68392457I21554J46222D01*
G01*
G37*
G36*
G01*
X42606693Y-63269279D02*
X42726009Y-62823987D01*
G75*
G02*
X43008313Y-62660999I222646J-59658D01*
G01*
X44303619Y-63008075D01*
G75*
G02*
X44466607Y-63290379I-59658J-222646D01*
G01*
X44347291Y-63735671D01*
G75*
G02*
X44064987Y-63898659I-222646J59658D01*
G01*
X42769681Y-63551583D01*
G75*
G02*
X42606693Y-63269279I59658J222646D01*
G01*
G37*
G36*
G01*
X42948463Y-61993773D02*
X43160695Y-61201714D01*
G75*
G02*
X43223157Y-61165652I49262J-13200D01*
G01*
X44865231Y-61605645D01*
G75*
G02*
X44901293Y-61668107I-13200J-49262D01*
G01*
X44689061Y-62460166D01*
G75*
G02*
X44626599Y-62496228I-49262J13200D01*
G01*
X42984525Y-62056235D01*
G75*
G02*
X42948463Y-61993773I13200J49262D01*
G01*
G37*
G36*
G01*
X37634013Y-62122685D02*
X37846245Y-61330626D01*
G75*
G02*
X37908707Y-61294564I49262J-13200D01*
G01*
X39550781Y-61734557D01*
G75*
G02*
X39586843Y-61797019I-13200J-49262D01*
G01*
X39374611Y-62589078D01*
G75*
G02*
X39312149Y-62625140I-49262J13200D01*
G01*
X37670075Y-62185147D01*
G75*
G02*
X37634013Y-62122685I13200J49262D01*
G01*
G37*
G36*
G01*
X38022241Y-60673796D02*
X38234473Y-59881737D01*
G75*
G02*
X38296935Y-59845675I49262J-13200D01*
G01*
X39939009Y-60285668D01*
G75*
G02*
X39975071Y-60348130I-13200J-49262D01*
G01*
X39762839Y-61140189D01*
G75*
G02*
X39700377Y-61176251I-49262J13200D01*
G01*
X38058303Y-60736258D01*
G75*
G02*
X38022241Y-60673796I13200J49262D01*
G01*
G37*
G36*
G01*
X68567683Y-39985089D02*
X68686999Y-39539797D01*
G75*
G02*
X68969303Y-39376809I222646J-59658D01*
G01*
X70264609Y-39723885D01*
G75*
G02*
X70427597Y-40006189I-59658J-222646D01*
G01*
X70308281Y-40451481D01*
G75*
G02*
X70025977Y-40614469I-222646J59658D01*
G01*
X68730671Y-40267393D01*
G75*
G02*
X68567683Y-39985089I59658J222646D01*
G01*
G37*
G36*
G01*
X68909453Y-38709583D02*
X69121685Y-37917524D01*
G75*
G02*
X69184147Y-37881462I49262J-13200D01*
G01*
X70826221Y-38321455D01*
G75*
G02*
X70862283Y-38383917I-13200J-49262D01*
G01*
X70650051Y-39175976D01*
G75*
G02*
X70587589Y-39212038I-49262J13200D01*
G01*
X68945515Y-38772045D01*
G75*
G02*
X68909453Y-38709583I13200J49262D01*
G01*
G37*
G36*
G01*
X63595003Y-38838495D02*
X63807235Y-38046436D01*
G75*
G02*
X63869697Y-38010374I49262J-13200D01*
G01*
X65511771Y-38450367D01*
G75*
G02*
X65547833Y-38512829I-13200J-49262D01*
G01*
X65335601Y-39304888D01*
G75*
G02*
X65273139Y-39340950I-49262J13200D01*
G01*
X63631065Y-38900957D01*
G75*
G02*
X63595003Y-38838495I13200J49262D01*
G01*
G37*
G36*
G01*
X63983231Y-37389606D02*
X64195463Y-36597547D01*
G75*
G02*
X64257925Y-36561485I49262J-13200D01*
G01*
X65899999Y-37001478D01*
G75*
G02*
X65936061Y-37063940I-13200J-49262D01*
G01*
X65723829Y-37855999D01*
G75*
G02*
X65661367Y-37892061I-49262J13200D01*
G01*
X64019293Y-37452068D01*
G75*
G02*
X63983231Y-37389606I13200J49262D01*
G01*
G37*
G36*
G01*
X73498185Y-21584203D02*
X73617501Y-21138911D01*
G75*
G02*
X73899805Y-20975923I222646J-59658D01*
G01*
X75195111Y-21322999D01*
G75*
G02*
X75358099Y-21605303I-59658J-222646D01*
G01*
X75238783Y-22050595D01*
G75*
G02*
X74956479Y-22213583I-222646J59658D01*
G01*
X73661173Y-21866507D01*
G75*
G02*
X73498185Y-21584203I59658J222646D01*
G01*
G37*
G36*
G01*
X73839955Y-20308697D02*
X74052187Y-19516638D01*
G75*
G02*
X74114649Y-19480576I49262J-13200D01*
G01*
X75756723Y-19920569D01*
G75*
G02*
X75792785Y-19983031I-13200J-49262D01*
G01*
X75580553Y-20775090D01*
G75*
G02*
X75518091Y-20811152I-49262J13200D01*
G01*
X73876017Y-20371159D01*
G75*
G02*
X73839955Y-20308697I13200J49262D01*
G01*
G37*
G36*
G01*
X68525505Y-20437609D02*
X68737737Y-19645550D01*
G75*
G02*
X68800199Y-19609488I49262J-13200D01*
G01*
X70442273Y-20049481D01*
G75*
G02*
X70478335Y-20111943I-13200J-49262D01*
G01*
X70266103Y-20904002D01*
G75*
G02*
X70203641Y-20940064I-49262J13200D01*
G01*
X68561567Y-20500071D01*
G75*
G02*
X68525505Y-20437609I13200J49262D01*
G01*
G37*
G36*
G01*
X68913733Y-18988720D02*
X69125965Y-18196661D01*
G75*
G02*
X69188427Y-18160599I49262J-13200D01*
G01*
X70830501Y-18600592D01*
G75*
G02*
X70866563Y-18663054I-13200J-49262D01*
G01*
X70654331Y-19455113D01*
G75*
G02*
X70591869Y-19491175I-49262J13200D01*
G01*
X68949795Y-19051182D01*
G75*
G02*
X68913733Y-18988720I13200J49262D01*
G01*
G37*
G36*
G01*
X78428687Y-3183317D02*
X78548003Y-2738025D01*
G75*
G02*
X78830307Y-2575037I222646J-59658D01*
G01*
X80125613Y-2922113D01*
G75*
G02*
X80288601Y-3204417I-59658J-222646D01*
G01*
X80169285Y-3649709D01*
G75*
G02*
X79886981Y-3812697I-222646J59658D01*
G01*
X78591675Y-3465621D01*
G75*
G02*
X78428687Y-3183317I59658J222646D01*
G01*
G37*
G36*
G01*
X78770457Y-1907811D02*
X78982689Y-1115752D01*
G75*
G02*
X79045151Y-1079690I49262J-13200D01*
G01*
X80687225Y-1519683D01*
G75*
G02*
X80723287Y-1582145I-13200J-49262D01*
G01*
X80511055Y-2374204D01*
G75*
G02*
X80448593Y-2410266I-49262J13200D01*
G01*
X78806519Y-1970273D01*
G75*
G02*
X78770457Y-1907811I13200J49262D01*
G01*
G37*
G36*
G01*
X73456007Y-2036723D02*
X73668239Y-1244664D01*
G75*
G02*
X73730701Y-1208602I49262J-13200D01*
G01*
X75372775Y-1648595D01*
G75*
G02*
X75408837Y-1711057I-13200J-49262D01*
G01*
X75196605Y-2503116D01*
G75*
G02*
X75134143Y-2539178I-49262J13200D01*
G01*
X73492069Y-2099185D01*
G75*
G02*
X73456007Y-2036723I13200J49262D01*
G01*
G37*
G36*
G01*
X73844235Y-587834D02*
X74056467Y204225D01*
G75*
G02*
X74118929Y240287I49262J-13200D01*
G01*
X75761003Y-199706D01*
G75*
G02*
X75797065Y-262168I-13200J-49262D01*
G01*
X75584833Y-1054227D01*
G75*
G02*
X75522371Y-1090289I-49262J13200D01*
G01*
X73880297Y-650296D01*
G75*
G02*
X73844235Y-587834I13200J49262D01*
G01*
G37*
G36*
G01*
X58007121Y6948403D02*
X57887805Y6503111D01*
G75*
G02*
X57605501Y6340123I-222646J59658D01*
G01*
X56310195Y6687199D01*
G75*
G02*
X56147207Y6969503I59658J222646D01*
G01*
X56266523Y7414795D01*
G75*
G02*
X56548827Y7577783I222646J-59658D01*
G01*
X57844133Y7230707D01*
G75*
G02*
X58007121Y6948403I-59658J-222646D01*
G01*
G37*
G36*
G01*
X57665351Y5672897D02*
X57453119Y4880838D01*
G75*
G02*
X57390657Y4844776I-49262J13200D01*
G01*
X55748583Y5284769D01*
G75*
G02*
X55712521Y5347231I13200J49262D01*
G01*
X55924753Y6139290D01*
G75*
G02*
X55987215Y6175352I49262J-13200D01*
G01*
X57629289Y5735359D01*
G75*
G02*
X57665351Y5672897I-13200J-49262D01*
G01*
G37*
G36*
G01*
X62979801Y5801809D02*
X62767569Y5009750D01*
G75*
G02*
X62705107Y4973688I-49262J13200D01*
G01*
X61063033Y5413681D01*
G75*
G02*
X61026971Y5476143I13200J49262D01*
G01*
X61239203Y6268202D01*
G75*
G02*
X61301665Y6304264I49262J-13200D01*
G01*
X62943739Y5864271D01*
G75*
G02*
X62979801Y5801809I-13200J-49262D01*
G01*
G37*
G36*
G01*
X62591573Y4352920D02*
X62379341Y3560861D01*
G75*
G02*
X62316879Y3524799I-49262J13200D01*
G01*
X60674805Y3964792D01*
G75*
G02*
X60638743Y4027254I13200J49262D01*
G01*
X60850975Y4819313D01*
G75*
G02*
X60913437Y4855375I49262J-13200D01*
G01*
X62555511Y4415382D01*
G75*
G02*
X62591573Y4352920I-13200J-49262D01*
G01*
G37*
G36*
G01*
X53076619Y-11452483D02*
X52957303Y-11897775D01*
G75*
G02*
X52674999Y-12060763I-222646J59658D01*
G01*
X51379693Y-11713687D01*
G75*
G02*
X51216705Y-11431383I59658J222646D01*
G01*
X51336021Y-10986091D01*
G75*
G02*
X51618325Y-10823103I222646J-59658D01*
G01*
X52913631Y-11170179D01*
G75*
G02*
X53076619Y-11452483I-59658J-222646D01*
G01*
G37*
G36*
G01*
X52734849Y-12727989D02*
X52522617Y-13520048D01*
G75*
G02*
X52460155Y-13556110I-49262J13200D01*
G01*
X50818081Y-13116117D01*
G75*
G02*
X50782019Y-13053655I13200J49262D01*
G01*
X50994251Y-12261596D01*
G75*
G02*
X51056713Y-12225534I49262J-13200D01*
G01*
X52698787Y-12665527D01*
G75*
G02*
X52734849Y-12727989I-13200J-49262D01*
G01*
G37*
G36*
G01*
X58049299Y-12599077D02*
X57837067Y-13391136D01*
G75*
G02*
X57774605Y-13427198I-49262J13200D01*
G01*
X56132531Y-12987205D01*
G75*
G02*
X56096469Y-12924743I13200J49262D01*
G01*
X56308701Y-12132684D01*
G75*
G02*
X56371163Y-12096622I49262J-13200D01*
G01*
X58013237Y-12536615D01*
G75*
G02*
X58049299Y-12599077I-13200J-49262D01*
G01*
G37*
G36*
G01*
X57661071Y-14047966D02*
X57448839Y-14840025D01*
G75*
G02*
X57386377Y-14876087I-49262J13200D01*
G01*
X55744303Y-14436094D01*
G75*
G02*
X55708241Y-14373632I13200J49262D01*
G01*
X55920473Y-13581573D01*
G75*
G02*
X55982935Y-13545511I49262J-13200D01*
G01*
X57625009Y-13985504D01*
G75*
G02*
X57661071Y-14047966I-13200J-49262D01*
G01*
G37*
G36*
G01*
X48146117Y-29853369D02*
X48026801Y-30298661D01*
G75*
G02*
X47744497Y-30461649I-222646J59658D01*
G01*
X46449191Y-30114573D01*
G75*
G02*
X46286203Y-29832269I59658J222646D01*
G01*
X46405519Y-29386977D01*
G75*
G02*
X46687823Y-29223989I222646J-59658D01*
G01*
X47983129Y-29571065D01*
G75*
G02*
X48146117Y-29853369I-59658J-222646D01*
G01*
G37*
G36*
G01*
X47804347Y-31128875D02*
X47592115Y-31920934D01*
G75*
G02*
X47529653Y-31956996I-49262J13200D01*
G01*
X45887579Y-31517003D01*
G75*
G02*
X45851517Y-31454541I13200J49262D01*
G01*
X46063749Y-30662482D01*
G75*
G02*
X46126211Y-30626420I49262J-13200D01*
G01*
X47768285Y-31066413D01*
G75*
G02*
X47804347Y-31128875I-13200J-49262D01*
G01*
G37*
G36*
G01*
X53118797Y-30999963D02*
X52906565Y-31792022D01*
G75*
G02*
X52844103Y-31828084I-49262J13200D01*
G01*
X51202029Y-31388091D01*
G75*
G02*
X51165967Y-31325629I13200J49262D01*
G01*
X51378199Y-30533570D01*
G75*
G02*
X51440661Y-30497508I49262J-13200D01*
G01*
X53082735Y-30937501D01*
G75*
G02*
X53118797Y-30999963I-13200J-49262D01*
G01*
G37*
G36*
G01*
X52730569Y-32448852D02*
X52518337Y-33240911D01*
G75*
G02*
X52455875Y-33276973I-49262J13200D01*
G01*
X50813801Y-32836980D01*
G75*
G02*
X50777739Y-32774518I13200J49262D01*
G01*
X50989971Y-31982459D01*
G75*
G02*
X51052433Y-31946397I49262J-13200D01*
G01*
X52694507Y-32386390D01*
G75*
G02*
X52730569Y-32448852I-13200J-49262D01*
G01*
G37*
G36*
G01*
X33738112Y-22763730D02*
X33857428Y-22318438D01*
G75*
G02*
X34139732Y-22155450I222646J-59658D01*
G01*
X35435038Y-22502526D01*
G75*
G02*
X35598026Y-22784830I-59658J-222646D01*
G01*
X35478710Y-23230122D01*
G75*
G02*
X35196406Y-23393110I-222646J59658D01*
G01*
X33901100Y-23046034D01*
G75*
G02*
X33738112Y-22763730I59658J222646D01*
G01*
G37*
G36*
G01*
X34079882Y-21488224D02*
X34292114Y-20696165D01*
G75*
G02*
X34354576Y-20660103I49262J-13200D01*
G01*
X35996650Y-21100096D01*
G75*
G02*
X36032712Y-21162558I-13200J-49262D01*
G01*
X35820480Y-21954617D01*
G75*
G02*
X35758018Y-21990679I-49262J13200D01*
G01*
X34115944Y-21550686D01*
G75*
G02*
X34079882Y-21488224I13200J49262D01*
G01*
G37*
G36*
G01*
X28765432Y-21617136D02*
X28977664Y-20825077D01*
G75*
G02*
X29040126Y-20789015I49262J-13200D01*
G01*
X30682200Y-21229008D01*
G75*
G02*
X30718262Y-21291470I-13200J-49262D01*
G01*
X30506030Y-22083529D01*
G75*
G02*
X30443568Y-22119591I-49262J13200D01*
G01*
X28801494Y-21679598D01*
G75*
G02*
X28765432Y-21617136I13200J49262D01*
G01*
G37*
G36*
G01*
X29153660Y-20168247D02*
X29365892Y-19376188D01*
G75*
G02*
X29428354Y-19340126I49262J-13200D01*
G01*
X31070428Y-19780119D01*
G75*
G02*
X31106490Y-19842581I-13200J-49262D01*
G01*
X30894258Y-20634640D01*
G75*
G02*
X30831796Y-20670702I-49262J13200D01*
G01*
X29189722Y-20230709D01*
G75*
G02*
X29153660Y-20168247I13200J49262D01*
G01*
G37*
G36*
G01*
X38668614Y-4362844D02*
X38787930Y-3917552D01*
G75*
G02*
X39070234Y-3754564I222646J-59658D01*
G01*
X40365540Y-4101640D01*
G75*
G02*
X40528528Y-4383944I-59658J-222646D01*
G01*
X40409212Y-4829236D01*
G75*
G02*
X40126908Y-4992224I-222646J59658D01*
G01*
X38831602Y-4645148D01*
G75*
G02*
X38668614Y-4362844I59658J222646D01*
G01*
G37*
G36*
G01*
X39010384Y-3087338D02*
X39222616Y-2295279D01*
G75*
G02*
X39285078Y-2259217I49262J-13200D01*
G01*
X40927152Y-2699210D01*
G75*
G02*
X40963214Y-2761672I-13200J-49262D01*
G01*
X40750982Y-3553731D01*
G75*
G02*
X40688520Y-3589793I-49262J13200D01*
G01*
X39046446Y-3149800D01*
G75*
G02*
X39010384Y-3087338I13200J49262D01*
G01*
G37*
G36*
G01*
X33695934Y-3216250D02*
X33908166Y-2424191D01*
G75*
G02*
X33970628Y-2388129I49262J-13200D01*
G01*
X35612702Y-2828122D01*
G75*
G02*
X35648764Y-2890584I-13200J-49262D01*
G01*
X35436532Y-3682643D01*
G75*
G02*
X35374070Y-3718705I-49262J13200D01*
G01*
X33731996Y-3278712D01*
G75*
G02*
X33695934Y-3216250I13200J49262D01*
G01*
G37*
G36*
G01*
X34084162Y-1767361D02*
X34296394Y-975302D01*
G75*
G02*
X34358856Y-939240I49262J-13200D01*
G01*
X36000930Y-1379233D01*
G75*
G02*
X36036992Y-1441695I-13200J-49262D01*
G01*
X35824760Y-2233754D01*
G75*
G02*
X35762298Y-2269816I-49262J13200D01*
G01*
X34120224Y-1829823D01*
G75*
G02*
X34084162Y-1767361I13200J49262D01*
G01*
G37*
G36*
G01*
X43599116Y14038042D02*
X43718432Y14483334D01*
G75*
G02*
X44000736Y14646322I222646J-59658D01*
G01*
X45296042Y14299246D01*
G75*
G02*
X45459030Y14016942I-59658J-222646D01*
G01*
X45339714Y13571650D01*
G75*
G02*
X45057410Y13408662I-222646J59658D01*
G01*
X43762104Y13755738D01*
G75*
G02*
X43599116Y14038042I59658J222646D01*
G01*
G37*
G36*
G01*
X43940886Y15313548D02*
X44153118Y16105607D01*
G75*
G02*
X44215580Y16141669I49262J-13200D01*
G01*
X45857654Y15701676D01*
G75*
G02*
X45893716Y15639214I-13200J-49262D01*
G01*
X45681484Y14847155D01*
G75*
G02*
X45619022Y14811093I-49262J13200D01*
G01*
X43976948Y15251086D01*
G75*
G02*
X43940886Y15313548I13200J49262D01*
G01*
G37*
G36*
G01*
X38626436Y15184636D02*
X38838668Y15976695D01*
G75*
G02*
X38901130Y16012757I49262J-13200D01*
G01*
X40543204Y15572764D01*
G75*
G02*
X40579266Y15510302I-13200J-49262D01*
G01*
X40367034Y14718243D01*
G75*
G02*
X40304572Y14682181I-49262J13200D01*
G01*
X38662498Y15122174D01*
G75*
G02*
X38626436Y15184636I13200J49262D01*
G01*
G37*
G36*
G01*
X39014664Y16633525D02*
X39226896Y17425584D01*
G75*
G02*
X39289358Y17461646I49262J-13200D01*
G01*
X40931432Y17021653D01*
G75*
G02*
X40967494Y16959191I-13200J-49262D01*
G01*
X40755262Y16167132D01*
G75*
G02*
X40692800Y16131070I-49262J13200D01*
G01*
X39050726Y16571063D01*
G75*
G02*
X39014664Y16633525I13200J49262D01*
G01*
G37*
G36*
G01*
X21205349Y16809407D02*
X21086033Y16364115D01*
G75*
G02*
X20803729Y16201127I-222646J59658D01*
G01*
X19508423Y16548203D01*
G75*
G02*
X19345435Y16830507I59658J222646D01*
G01*
X19464751Y17275799D01*
G75*
G02*
X19747055Y17438787I222646J-59658D01*
G01*
X21042361Y17091711D01*
G75*
G02*
X21205349Y16809407I-59658J-222646D01*
G01*
G37*
G36*
G01*
X20863579Y15533901D02*
X20651347Y14741842D01*
G75*
G02*
X20588885Y14705780I-49262J13200D01*
G01*
X18946811Y15145773D01*
G75*
G02*
X18910749Y15208235I13200J49262D01*
G01*
X19122981Y16000294D01*
G75*
G02*
X19185443Y16036356I49262J-13200D01*
G01*
X20827517Y15596363D01*
G75*
G02*
X20863579Y15533901I-13200J-49262D01*
G01*
G37*
G36*
G01*
X26178029Y15662813D02*
X25965797Y14870754D01*
G75*
G02*
X25903335Y14834692I-49262J13200D01*
G01*
X24261261Y15274685D01*
G75*
G02*
X24225199Y15337147I13200J49262D01*
G01*
X24437431Y16129206D01*
G75*
G02*
X24499893Y16165268I49262J-13200D01*
G01*
X26141967Y15725275D01*
G75*
G02*
X26178029Y15662813I-13200J-49262D01*
G01*
G37*
G36*
G01*
X25789801Y14213924D02*
X25577569Y13421865D01*
G75*
G02*
X25515107Y13385803I-49262J13200D01*
G01*
X23873033Y13825796D01*
G75*
G02*
X23836971Y13888258I13200J49262D01*
G01*
X24049203Y14680317D01*
G75*
G02*
X24111665Y14716379I49262J-13200D01*
G01*
X25753739Y14276386D01*
G75*
G02*
X25789801Y14213924I-13200J-49262D01*
G01*
G37*
G36*
G01*
X16274847Y-1591479D02*
X16155531Y-2036771D01*
G75*
G02*
X15873227Y-2199759I-222646J59658D01*
G01*
X14577921Y-1852683D01*
G75*
G02*
X14414933Y-1570379I59658J222646D01*
G01*
X14534249Y-1125087D01*
G75*
G02*
X14816553Y-962099I222646J-59658D01*
G01*
X16111859Y-1309175D01*
G75*
G02*
X16274847Y-1591479I-59658J-222646D01*
G01*
G37*
G36*
G01*
X15933077Y-2866985D02*
X15720845Y-3659044D01*
G75*
G02*
X15658383Y-3695106I-49262J13200D01*
G01*
X14016309Y-3255113D01*
G75*
G02*
X13980247Y-3192651I13200J49262D01*
G01*
X14192479Y-2400592D01*
G75*
G02*
X14254941Y-2364530I49262J-13200D01*
G01*
X15897015Y-2804523D01*
G75*
G02*
X15933077Y-2866985I-13200J-49262D01*
G01*
G37*
G36*
G01*
X21247527Y-2738073D02*
X21035295Y-3530132D01*
G75*
G02*
X20972833Y-3566194I-49262J13200D01*
G01*
X19330759Y-3126201D01*
G75*
G02*
X19294697Y-3063739I13200J49262D01*
G01*
X19506929Y-2271680D01*
G75*
G02*
X19569391Y-2235618I49262J-13200D01*
G01*
X21211465Y-2675611D01*
G75*
G02*
X21247527Y-2738073I-13200J-49262D01*
G01*
G37*
G36*
G01*
X20859299Y-4186962D02*
X20647067Y-4979021D01*
G75*
G02*
X20584605Y-5015083I-49262J13200D01*
G01*
X18942531Y-4575090D01*
G75*
G02*
X18906469Y-4512628I13200J49262D01*
G01*
X19118701Y-3720569D01*
G75*
G02*
X19181163Y-3684507I49262J-13200D01*
G01*
X20823237Y-4124500D01*
G75*
G02*
X20859299Y-4186962I-13200J-49262D01*
G01*
G37*
G36*
G01*
X11344345Y-19992365D02*
X11225029Y-20437657D01*
G75*
G02*
X10942725Y-20600645I-222646J59658D01*
G01*
X9647419Y-20253569D01*
G75*
G02*
X9484431Y-19971265I59658J222646D01*
G01*
X9603747Y-19525973D01*
G75*
G02*
X9886051Y-19362985I222646J-59658D01*
G01*
X11181357Y-19710061D01*
G75*
G02*
X11344345Y-19992365I-59658J-222646D01*
G01*
G37*
G36*
G01*
X11002575Y-21267871D02*
X10790343Y-22059930D01*
G75*
G02*
X10727881Y-22095992I-49262J13200D01*
G01*
X9085807Y-21655999D01*
G75*
G02*
X9049745Y-21593537I13200J49262D01*
G01*
X9261977Y-20801478D01*
G75*
G02*
X9324439Y-20765416I49262J-13200D01*
G01*
X10966513Y-21205409D01*
G75*
G02*
X11002575Y-21267871I-13200J-49262D01*
G01*
G37*
G36*
G01*
X16317025Y-21138959D02*
X16104793Y-21931018D01*
G75*
G02*
X16042331Y-21967080I-49262J13200D01*
G01*
X14400257Y-21527087D01*
G75*
G02*
X14364195Y-21464625I13200J49262D01*
G01*
X14576427Y-20672566D01*
G75*
G02*
X14638889Y-20636504I49262J-13200D01*
G01*
X16280963Y-21076497D01*
G75*
G02*
X16317025Y-21138959I-13200J-49262D01*
G01*
G37*
G36*
G01*
X15928797Y-22587848D02*
X15716565Y-23379907D01*
G75*
G02*
X15654103Y-23415969I-49262J13200D01*
G01*
X14012029Y-22975976D01*
G75*
G02*
X13975967Y-22913514I13200J49262D01*
G01*
X14188199Y-22121455D01*
G75*
G02*
X14250661Y-22085393I49262J-13200D01*
G01*
X15892735Y-22525386D01*
G75*
G02*
X15928797Y-22587848I-13200J-49262D01*
G01*
G37*
G36*
G01*
X-7008061Y-27623435D02*
X-6888745Y-27178143D01*
G75*
G02*
X-6606441Y-27015155I222646J-59658D01*
G01*
X-5311135Y-27362231D01*
G75*
G02*
X-5148147Y-27644535I-59658J-222646D01*
G01*
X-5267463Y-28089827D01*
G75*
G02*
X-5549767Y-28252815I-222646J59658D01*
G01*
X-6845073Y-27905739D01*
G75*
G02*
X-7008061Y-27623435I59658J222646D01*
G01*
G37*
G36*
G01*
X-6666291Y-26347929D02*
X-6454059Y-25555870D01*
G75*
G02*
X-6391597Y-25519808I49262J-13200D01*
G01*
X-4749523Y-25959801D01*
G75*
G02*
X-4713461Y-26022263I-13200J-49262D01*
G01*
X-4925693Y-26814322D01*
G75*
G02*
X-4988155Y-26850384I-49262J13200D01*
G01*
X-6630229Y-26410391D01*
G75*
G02*
X-6666291Y-26347929I13200J49262D01*
G01*
G37*
G36*
G01*
X-11980741Y-26476841D02*
X-11768509Y-25684782D01*
G75*
G02*
X-11706047Y-25648720I49262J-13200D01*
G01*
X-10063973Y-26088713D01*
G75*
G02*
X-10027911Y-26151175I-13200J-49262D01*
G01*
X-10240143Y-26943234D01*
G75*
G02*
X-10302605Y-26979296I-49262J13200D01*
G01*
X-11944679Y-26539303D01*
G75*
G02*
X-11980741Y-26476841I13200J49262D01*
G01*
G37*
G36*
G01*
X-11592513Y-25027952D02*
X-11380281Y-24235893D01*
G75*
G02*
X-11317819Y-24199831I49262J-13200D01*
G01*
X-9675745Y-24639824D01*
G75*
G02*
X-9639683Y-24702286I-13200J-49262D01*
G01*
X-9851915Y-25494345D01*
G75*
G02*
X-9914377Y-25530407I-49262J13200D01*
G01*
X-11556451Y-25090414D01*
G75*
G02*
X-11592513Y-25027952I13200J49262D01*
G01*
G37*
G36*
G01*
X-2077559Y-9222549D02*
X-1958243Y-8777257D01*
G75*
G02*
X-1675939Y-8614269I222646J-59658D01*
G01*
X-380633Y-8961345D01*
G75*
G02*
X-217645Y-9243649I-59658J-222646D01*
G01*
X-336961Y-9688941D01*
G75*
G02*
X-619265Y-9851929I-222646J59658D01*
G01*
X-1914571Y-9504853D01*
G75*
G02*
X-2077559Y-9222549I59658J222646D01*
G01*
G37*
G36*
G01*
X-1735789Y-7947043D02*
X-1523557Y-7154984D01*
G75*
G02*
X-1461095Y-7118922I49262J-13200D01*
G01*
X180979Y-7558915D01*
G75*
G02*
X217041Y-7621377I-13200J-49262D01*
G01*
X4809Y-8413436D01*
G75*
G02*
X-57653Y-8449498I-49262J13200D01*
G01*
X-1699727Y-8009505D01*
G75*
G02*
X-1735789Y-7947043I13200J49262D01*
G01*
G37*
G36*
G01*
X-7050239Y-8075955D02*
X-6838007Y-7283896D01*
G75*
G02*
X-6775545Y-7247834I49262J-13200D01*
G01*
X-5133471Y-7687827D01*
G75*
G02*
X-5097409Y-7750289I-13200J-49262D01*
G01*
X-5309641Y-8542348D01*
G75*
G02*
X-5372103Y-8578410I-49262J13200D01*
G01*
X-7014177Y-8138417D01*
G75*
G02*
X-7050239Y-8075955I13200J49262D01*
G01*
G37*
G36*
G01*
X-6662011Y-6627066D02*
X-6449779Y-5835007D01*
G75*
G02*
X-6387317Y-5798945I49262J-13200D01*
G01*
X-4745243Y-6238938D01*
G75*
G02*
X-4709181Y-6301400I-13200J-49262D01*
G01*
X-4921413Y-7093459D01*
G75*
G02*
X-4983875Y-7129521I-49262J13200D01*
G01*
X-6625949Y-6689528D01*
G75*
G02*
X-6662011Y-6627066I13200J49262D01*
G01*
G37*
G36*
G01*
X2852943Y9178337D02*
X2972259Y9623629D01*
G75*
G02*
X3254563Y9786617I222646J-59658D01*
G01*
X4549869Y9439541D01*
G75*
G02*
X4712857Y9157237I-59658J-222646D01*
G01*
X4593541Y8711945D01*
G75*
G02*
X4311237Y8548957I-222646J59658D01*
G01*
X3015931Y8896033D01*
G75*
G02*
X2852943Y9178337I59658J222646D01*
G01*
G37*
G36*
G01*
X3194713Y10453843D02*
X3406945Y11245902D01*
G75*
G02*
X3469407Y11281964I49262J-13200D01*
G01*
X5111481Y10841971D01*
G75*
G02*
X5147543Y10779509I-13200J-49262D01*
G01*
X4935311Y9987450D01*
G75*
G02*
X4872849Y9951388I-49262J13200D01*
G01*
X3230775Y10391381D01*
G75*
G02*
X3194713Y10453843I13200J49262D01*
G01*
G37*
G36*
G01*
X-2119737Y10324931D02*
X-1907505Y11116990D01*
G75*
G02*
X-1845043Y11153052I49262J-13200D01*
G01*
X-202969Y10713059D01*
G75*
G02*
X-166907Y10650597I-13200J-49262D01*
G01*
X-379139Y9858538D01*
G75*
G02*
X-441601Y9822476I-49262J13200D01*
G01*
X-2083675Y10262469D01*
G75*
G02*
X-2119737Y10324931I13200J49262D01*
G01*
G37*
G36*
G01*
X-1731509Y11773820D02*
X-1519277Y12565879D01*
G75*
G02*
X-1456815Y12601941I49262J-13200D01*
G01*
X185259Y12161948D01*
G75*
G02*
X221321Y12099486I-13200J-49262D01*
G01*
X9089Y11307427D01*
G75*
G02*
X-53373Y11271365I-49262J13200D01*
G01*
X-1695447Y11711358D01*
G75*
G02*
X-1731509Y11773820I13200J49262D01*
G01*
G37*
D14*
X155867408Y-67423505D03*
X166492592Y-64576495D03*
G36*
G01*
X164914879Y-72504994D02*
X164241950Y-69993587D01*
G75*
G02*
X164278012Y-69931125I49262J13200D01*
G01*
X166789419Y-69258196D01*
G75*
G02*
X166851881Y-69294258I13200J-49262D01*
G01*
X167524810Y-71805665D01*
G75*
G02*
X167488748Y-71868127I-49262J-13200D01*
G01*
X164977341Y-72541056D01*
G75*
G02*
X164914879Y-72504994I-13200J49262D01*
G01*
G37*
D15*
X157320942Y-70916317D03*
D16*
X161180000Y-66000000D03*
D15*
X162719973Y-71747259D03*
G36*
G01*
X153189034Y-73369317D02*
X152516105Y-70857910D01*
G75*
G02*
X152552167Y-70795448I49262J13200D01*
G01*
X155063574Y-70122519D01*
G75*
G02*
X155126036Y-70158581I13200J-49262D01*
G01*
X155798965Y-72669988D01*
G75*
G02*
X155762903Y-72732450I-49262J-13200D01*
G01*
X153251496Y-73405379D01*
G75*
G02*
X153189034Y-73369317I-13200J49262D01*
G01*
G37*
D17*
X165135093Y-60592076D03*
D14*
X135748307Y-76743400D03*
X145717693Y-72094600D03*
G36*
G01*
X145540719Y-80176615D02*
X144441911Y-77820215D01*
G75*
G02*
X144466579Y-77752439I46222J21554D01*
G01*
X146822979Y-76653631D01*
G75*
G02*
X146890755Y-76678299I21554J-46222D01*
G01*
X147989563Y-79034699D01*
G75*
G02*
X147964895Y-79102475I-46222J-21554D01*
G01*
X145608495Y-80201283D01*
G75*
G02*
X145540719Y-80176615I-21554J46222D01*
G01*
G37*
D15*
X137786280Y-79930746D03*
D16*
X140733000Y-74419000D03*
D15*
X143247579Y-79811531D03*
G36*
G01*
X134143104Y-83063978D02*
X133044296Y-80707578D01*
G75*
G02*
X133068964Y-80639802I46222J21554D01*
G01*
X135425364Y-79540994D01*
G75*
G02*
X135493140Y-79565662I21554J-46222D01*
G01*
X136591948Y-81922062D01*
G75*
G02*
X136567280Y-81989838I-46222J-21554D01*
G01*
X134210880Y-83088646D01*
G75*
G02*
X134143104Y-83063978I-21554J46222D01*
G01*
G37*
D17*
X143688930Y-68406440D03*
D14*
X117529664Y-88368670D03*
X126540336Y-82059330D03*
G36*
G01*
X127769478Y-90049291D02*
X126278179Y-87919496D01*
G75*
G02*
X126290704Y-87848467I41777J29252D01*
G01*
X128420499Y-86357168D01*
G75*
G02*
X128491528Y-86369693I29252J-41777D01*
G01*
X129982827Y-88499488D01*
G75*
G02*
X129970302Y-88570517I-41777J-29252D01*
G01*
X127840507Y-90061816D01*
G75*
G02*
X127769478Y-90049291I-29252J41777D01*
G01*
G37*
D15*
X120090151Y-91153702D03*
D16*
X122035000Y-85214000D03*
D15*
X125447780Y-90087955D03*
G36*
G01*
X117046403Y-94871964D02*
X115555104Y-92742169D01*
G75*
G02*
X115567629Y-92671140I41777J29252D01*
G01*
X117697424Y-91179841D01*
G75*
G02*
X117768453Y-91192366I29252J-41777D01*
G01*
X119259752Y-93322161D01*
G75*
G02*
X119247227Y-93393190I-41777J-29252D01*
G01*
X117117432Y-94884489D01*
G75*
G02*
X117046403Y-94871964I-29252J41777D01*
G01*
G37*
D17*
X123901953Y-78779492D03*
D14*
X74691017Y-82059032D03*
X83701689Y-88368372D03*
G36*
G01*
X76613972Y-92256115D02*
X78105271Y-90126320D01*
G75*
G02*
X78176300Y-90113795I41777J-29252D01*
G01*
X80306095Y-91605094D01*
G75*
G02*
X80318620Y-91676123I-29252J-41777D01*
G01*
X78827321Y-93805918D01*
G75*
G02*
X78756292Y-93818443I-41777J29252D01*
G01*
X76626497Y-92327144D01*
G75*
G02*
X76613972Y-92256115I29252J41777D01*
G01*
G37*
D15*
X72949681Y-85417640D03*
D16*
X79196353Y-85213702D03*
D15*
X75783573Y-90087657D03*
G36*
G01*
X68414634Y-83829173D02*
X69905933Y-81699378D01*
G75*
G02*
X69976962Y-81686853I41777J-29252D01*
G01*
X72106757Y-83178152D01*
G75*
G02*
X72119282Y-83249181I-29252J-41777D01*
G01*
X70627983Y-85378976D01*
G75*
G02*
X70556954Y-85391501I-41777J29252D01*
G01*
X68427159Y-83900202D01*
G75*
G02*
X68414634Y-83829173I29252J41777D01*
G01*
G37*
D17*
X85881348Y-84767332D03*
D14*
X55514172Y-72094303D03*
X65483558Y-76743103D03*
G36*
G01*
X59178618Y-81802551D02*
X60277426Y-79446151D01*
G75*
G02*
X60345202Y-79421483I46222J-21554D01*
G01*
X62701602Y-80520291D01*
G75*
G02*
X62726270Y-80588067I-21554J-46222D01*
G01*
X61627462Y-82944467D01*
G75*
G02*
X61559686Y-82969135I-46222J21554D01*
G01*
X59203286Y-81870327D01*
G75*
G02*
X59178618Y-81802551I21554J46222D01*
G01*
G37*
D15*
X54382508Y-75704266D03*
D16*
X60498865Y-74418703D03*
D15*
X57984286Y-79811234D03*
G36*
G01*
X49640524Y-74927433D02*
X50739332Y-72571033D01*
G75*
G02*
X50807108Y-72546365I46222J-21554D01*
G01*
X53163508Y-73645173D01*
G75*
G02*
X53188176Y-73712949I-21554J-46222D01*
G01*
X52089368Y-76069349D01*
G75*
G02*
X52021592Y-76094017I-46222J21554D01*
G01*
X49665192Y-74995209D01*
G75*
G02*
X49640524Y-74927433I21554J46222D01*
G01*
G37*
D17*
X67004788Y-72818278D03*
D14*
X34738612Y-65011742D03*
X45363796Y-67858752D03*
G36*
G01*
X40033208Y-73936177D02*
X40706137Y-71424770D01*
G75*
G02*
X40768599Y-71388708I49262J-13200D01*
G01*
X43280006Y-72061637D01*
G75*
G02*
X43316068Y-72124099I-13200J-49262D01*
G01*
X42643139Y-74635506D01*
G75*
G02*
X42580677Y-74671568I-49262J13200D01*
G01*
X40069270Y-73998639D01*
G75*
G02*
X40033208Y-73936177I13200J49262D01*
G01*
G37*
D15*
X34251003Y-68763374D03*
D16*
X40051204Y-66435247D03*
D15*
X38511231Y-72182506D03*
G36*
G01*
X29446166Y-68821780D02*
X30119095Y-66310373D01*
G75*
G02*
X30181557Y-66274311I49262J-13200D01*
G01*
X32692964Y-66947240D01*
G75*
G02*
X32729026Y-67009702I-13200J-49262D01*
G01*
X32056097Y-69521109D01*
G75*
G02*
X31993635Y-69557171I-49262J13200D01*
G01*
X29482228Y-68884242D01*
G75*
G02*
X29446166Y-68821780I13200J49262D01*
G01*
G37*
D17*
X46180377Y-63729394D03*
D14*
X205482554Y-32212907D03*
X216107738Y-29365897D03*
G36*
G01*
X214530025Y-37294396D02*
X213857096Y-34782989D01*
G75*
G02*
X213893158Y-34720527I49262J13200D01*
G01*
X216404565Y-34047598D01*
G75*
G02*
X216467027Y-34083660I13200J-49262D01*
G01*
X217139956Y-36595067D01*
G75*
G02*
X217103894Y-36657529I-49262J-13200D01*
G01*
X214592487Y-37330458D01*
G75*
G02*
X214530025Y-37294396I-13200J49262D01*
G01*
G37*
D15*
X206936088Y-35705719D03*
D16*
X210795146Y-30789402D03*
D15*
X212335119Y-36536661D03*
G36*
G01*
X202804180Y-38158719D02*
X202131251Y-35647312D01*
G75*
G02*
X202167313Y-35584850I49262J13200D01*
G01*
X204678720Y-34911921D01*
G75*
G02*
X204741182Y-34947983I13200J-49262D01*
G01*
X205414111Y-37459390D01*
G75*
G02*
X205378049Y-37521852I-49262J-13200D01*
G01*
X202866642Y-38194781D01*
G75*
G02*
X202804180Y-38158719I-13200J49262D01*
G01*
G37*
D17*
X214750239Y-25381478D03*
D14*
X184452068Y-27329604D03*
X195077252Y-24482594D03*
G36*
G01*
X193499539Y-32411093D02*
X192826610Y-29899686D01*
G75*
G02*
X192862672Y-29837224I49262J13200D01*
G01*
X195374079Y-29164295D01*
G75*
G02*
X195436541Y-29200357I13200J-49262D01*
G01*
X196109470Y-31711764D01*
G75*
G02*
X196073408Y-31774226I-49262J-13200D01*
G01*
X193562001Y-32447155D01*
G75*
G02*
X193499539Y-32411093I-13200J49262D01*
G01*
G37*
D15*
X185905602Y-30822416D03*
D16*
X189764660Y-25906099D03*
D15*
X191304633Y-31653358D03*
G36*
G01*
X181773694Y-33275416D02*
X181100765Y-30764009D01*
G75*
G02*
X181136827Y-30701547I49262J13200D01*
G01*
X183648234Y-30028618D01*
G75*
G02*
X183710696Y-30064680I13200J-49262D01*
G01*
X184383625Y-32576087D01*
G75*
G02*
X184347563Y-32638549I-49262J-13200D01*
G01*
X181836156Y-33311478D01*
G75*
G02*
X181773694Y-33275416I-13200J49262D01*
G01*
G37*
D17*
X193719753Y-20498175D03*
D14*
X164736381Y-27353203D03*
X175361565Y-24506193D03*
G36*
G01*
X173783852Y-32434692D02*
X173110923Y-29923285D01*
G75*
G02*
X173146985Y-29860823I49262J13200D01*
G01*
X175658392Y-29187894D01*
G75*
G02*
X175720854Y-29223956I13200J-49262D01*
G01*
X176393783Y-31735363D01*
G75*
G02*
X176357721Y-31797825I-49262J-13200D01*
G01*
X173846314Y-32470754D01*
G75*
G02*
X173783852Y-32434692I-13200J49262D01*
G01*
G37*
D15*
X166189915Y-30846015D03*
D16*
X170048973Y-25929698D03*
D15*
X171588946Y-31676957D03*
G36*
G01*
X162058007Y-33299015D02*
X161385078Y-30787608D01*
G75*
G02*
X161421140Y-30725146I49262J13200D01*
G01*
X163932547Y-30052217D01*
G75*
G02*
X163995009Y-30088279I13200J-49262D01*
G01*
X164667938Y-32599686D01*
G75*
G02*
X164631876Y-32662148I-49262J-13200D01*
G01*
X162120469Y-33335077D01*
G75*
G02*
X162058007Y-33299015I-13200J49262D01*
G01*
G37*
D17*
X174004066Y-20521774D03*
D14*
X147650296Y-37190608D03*
X158275480Y-34343598D03*
G36*
G01*
X156697767Y-42272097D02*
X156024838Y-39760690D01*
G75*
G02*
X156060900Y-39698228I49262J13200D01*
G01*
X158572307Y-39025299D01*
G75*
G02*
X158634769Y-39061361I13200J-49262D01*
G01*
X159307698Y-41572768D01*
G75*
G02*
X159271636Y-41635230I-49262J-13200D01*
G01*
X156760229Y-42308159D01*
G75*
G02*
X156697767Y-42272097I-13200J49262D01*
G01*
G37*
D15*
X149103830Y-40683420D03*
D16*
X152962888Y-35767103D03*
D15*
X154502861Y-41514362D03*
G36*
G01*
X144971922Y-43136420D02*
X144298993Y-40625013D01*
G75*
G02*
X144335055Y-40562551I49262J13200D01*
G01*
X146846462Y-39889622D01*
G75*
G02*
X146908924Y-39925684I13200J-49262D01*
G01*
X147581853Y-42437091D01*
G75*
G02*
X147545791Y-42499553I-49262J-13200D01*
G01*
X145034384Y-43172482D01*
G75*
G02*
X144971922Y-43136420I-13200J49262D01*
G01*
G37*
D17*
X156917981Y-30359179D03*
D14*
X129906810Y-44574562D03*
X140531994Y-41727552D03*
G36*
G01*
X138954281Y-49656051D02*
X138281352Y-47144644D01*
G75*
G02*
X138317414Y-47082182I49262J13200D01*
G01*
X140828821Y-46409253D01*
G75*
G02*
X140891283Y-46445315I13200J-49262D01*
G01*
X141564212Y-48956722D01*
G75*
G02*
X141528150Y-49019184I-49262J-13200D01*
G01*
X139016743Y-49692113D01*
G75*
G02*
X138954281Y-49656051I-13200J49262D01*
G01*
G37*
D15*
X131360344Y-48067374D03*
D16*
X135219402Y-43151057D03*
D15*
X136759375Y-48898316D03*
G36*
G01*
X127228436Y-50520374D02*
X126555507Y-48008967D01*
G75*
G02*
X126591569Y-47946505I49262J13200D01*
G01*
X129102976Y-47273576D01*
G75*
G02*
X129165438Y-47309638I13200J-49262D01*
G01*
X129838367Y-49821045D01*
G75*
G02*
X129802305Y-49883507I-49262J-13200D01*
G01*
X127290898Y-50556436D01*
G75*
G02*
X127228436Y-50520374I-13200J49262D01*
G01*
G37*
D17*
X139174495Y-37743133D03*
D14*
X200552052Y-13812021D03*
X211177236Y-10965011D03*
G36*
G01*
X209599523Y-18893510D02*
X208926594Y-16382103D01*
G75*
G02*
X208962656Y-16319641I49262J13200D01*
G01*
X211474063Y-15646712D01*
G75*
G02*
X211536525Y-15682774I13200J-49262D01*
G01*
X212209454Y-18194181D01*
G75*
G02*
X212173392Y-18256643I-49262J-13200D01*
G01*
X209661985Y-18929572D01*
G75*
G02*
X209599523Y-18893510I-13200J49262D01*
G01*
G37*
D15*
X202005586Y-17304833D03*
D16*
X205864644Y-12388516D03*
D15*
X207404617Y-18135775D03*
G36*
G01*
X197873678Y-19757833D02*
X197200749Y-17246426D01*
G75*
G02*
X197236811Y-17183964I49262J13200D01*
G01*
X199748218Y-16511035D01*
G75*
G02*
X199810680Y-16547097I13200J-49262D01*
G01*
X200483609Y-19058504D01*
G75*
G02*
X200447547Y-19120966I-49262J-13200D01*
G01*
X197936140Y-19793895D01*
G75*
G02*
X197873678Y-19757833I-13200J49262D01*
G01*
G37*
D17*
X209819737Y-6980592D03*
D14*
X179521566Y-8928718D03*
X190146750Y-6081708D03*
G36*
G01*
X188569037Y-14010207D02*
X187896108Y-11498800D01*
G75*
G02*
X187932170Y-11436338I49262J13200D01*
G01*
X190443577Y-10763409D01*
G75*
G02*
X190506039Y-10799471I13200J-49262D01*
G01*
X191178968Y-13310878D01*
G75*
G02*
X191142906Y-13373340I-49262J-13200D01*
G01*
X188631499Y-14046269D01*
G75*
G02*
X188569037Y-14010207I-13200J49262D01*
G01*
G37*
D15*
X180975100Y-12421530D03*
D16*
X184834158Y-7505213D03*
D15*
X186374131Y-13252472D03*
G36*
G01*
X176843192Y-14874530D02*
X176170263Y-12363123D01*
G75*
G02*
X176206325Y-12300661I49262J13200D01*
G01*
X178717732Y-11627732D01*
G75*
G02*
X178780194Y-11663794I13200J-49262D01*
G01*
X179453123Y-14175201D01*
G75*
G02*
X179417061Y-14237663I-49262J-13200D01*
G01*
X176905654Y-14910592D01*
G75*
G02*
X176843192Y-14874530I-13200J49262D01*
G01*
G37*
D17*
X188789251Y-2097289D03*
D14*
X159805879Y-8952317D03*
X170431063Y-6105307D03*
G36*
G01*
X168853350Y-14033806D02*
X168180421Y-11522399D01*
G75*
G02*
X168216483Y-11459937I49262J13200D01*
G01*
X170727890Y-10787008D01*
G75*
G02*
X170790352Y-10823070I13200J-49262D01*
G01*
X171463281Y-13334477D01*
G75*
G02*
X171427219Y-13396939I-49262J-13200D01*
G01*
X168915812Y-14069868D01*
G75*
G02*
X168853350Y-14033806I-13200J49262D01*
G01*
G37*
D15*
X161259413Y-12445129D03*
D16*
X165118471Y-7528812D03*
D15*
X166658444Y-13276071D03*
G36*
G01*
X157127505Y-14898129D02*
X156454576Y-12386722D01*
G75*
G02*
X156490638Y-12324260I49262J13200D01*
G01*
X159002045Y-11651331D01*
G75*
G02*
X159064507Y-11687393I13200J-49262D01*
G01*
X159737436Y-14198800D01*
G75*
G02*
X159701374Y-14261262I-49262J-13200D01*
G01*
X157189967Y-14934191D01*
G75*
G02*
X157127505Y-14898129I-13200J49262D01*
G01*
G37*
D17*
X169073564Y-2120888D03*
D14*
X142719794Y-18789722D03*
X153344978Y-15942712D03*
G36*
G01*
X151767265Y-23871211D02*
X151094336Y-21359804D01*
G75*
G02*
X151130398Y-21297342I49262J13200D01*
G01*
X153641805Y-20624413D01*
G75*
G02*
X153704267Y-20660475I13200J-49262D01*
G01*
X154377196Y-23171882D01*
G75*
G02*
X154341134Y-23234344I-49262J-13200D01*
G01*
X151829727Y-23907273D01*
G75*
G02*
X151767265Y-23871211I-13200J49262D01*
G01*
G37*
D15*
X144173328Y-22282534D03*
D16*
X148032386Y-17366217D03*
D15*
X149572359Y-23113476D03*
G36*
G01*
X140041420Y-24735534D02*
X139368491Y-22224127D01*
G75*
G02*
X139404553Y-22161665I49262J13200D01*
G01*
X141915960Y-21488736D01*
G75*
G02*
X141978422Y-21524798I13200J-49262D01*
G01*
X142651351Y-24036205D01*
G75*
G02*
X142615289Y-24098667I-49262J-13200D01*
G01*
X140103882Y-24771596D01*
G75*
G02*
X140041420Y-24735534I-13200J49262D01*
G01*
G37*
D17*
X151987479Y-11958293D03*
D14*
X124976308Y-26173676D03*
X135601492Y-23326666D03*
G36*
G01*
X134023779Y-31255165D02*
X133350850Y-28743758D01*
G75*
G02*
X133386912Y-28681296I49262J13200D01*
G01*
X135898319Y-28008367D01*
G75*
G02*
X135960781Y-28044429I13200J-49262D01*
G01*
X136633710Y-30555836D01*
G75*
G02*
X136597648Y-30618298I-49262J-13200D01*
G01*
X134086241Y-31291227D01*
G75*
G02*
X134023779Y-31255165I-13200J49262D01*
G01*
G37*
D15*
X126429842Y-29666488D03*
D16*
X130288900Y-24750171D03*
D15*
X131828873Y-30497430D03*
G36*
G01*
X122297934Y-32119488D02*
X121625005Y-29608081D01*
G75*
G02*
X121661067Y-29545619I49262J13200D01*
G01*
X124172474Y-28872690D01*
G75*
G02*
X124234936Y-28908752I13200J-49262D01*
G01*
X124907865Y-31420159D01*
G75*
G02*
X124871803Y-31482621I-49262J-13200D01*
G01*
X122360396Y-32155550D01*
G75*
G02*
X122297934Y-32119488I-13200J49262D01*
G01*
G37*
D17*
X134243993Y-19342247D03*
D14*
X195621550Y4588865D03*
X206246734Y7435875D03*
G36*
G01*
X204669021Y-492624D02*
X203996092Y2018783D01*
G75*
G02*
X204032154Y2081245I49262J13200D01*
G01*
X206543561Y2754174D01*
G75*
G02*
X206606023Y2718112I13200J-49262D01*
G01*
X207278952Y206705D01*
G75*
G02*
X207242890Y144243I-49262J-13200D01*
G01*
X204731483Y-528686D01*
G75*
G02*
X204669021Y-492624I-13200J49262D01*
G01*
G37*
D15*
X197075084Y1096053D03*
D16*
X200934142Y6012370D03*
D15*
X202474115Y265111D03*
G36*
G01*
X192943176Y-1356947D02*
X192270247Y1154460D01*
G75*
G02*
X192306309Y1216922I49262J13200D01*
G01*
X194817716Y1889851D01*
G75*
G02*
X194880178Y1853789I13200J-49262D01*
G01*
X195553107Y-657618D01*
G75*
G02*
X195517045Y-720080I-49262J-13200D01*
G01*
X193005638Y-1393009D01*
G75*
G02*
X192943176Y-1356947I-13200J49262D01*
G01*
G37*
D17*
X204889235Y11420294D03*
D14*
X174591064Y9472168D03*
X185216248Y12319178D03*
G36*
G01*
X183638535Y4390679D02*
X182965606Y6902086D01*
G75*
G02*
X183001668Y6964548I49262J13200D01*
G01*
X185513075Y7637477D01*
G75*
G02*
X185575537Y7601415I13200J-49262D01*
G01*
X186248466Y5090008D01*
G75*
G02*
X186212404Y5027546I-49262J-13200D01*
G01*
X183700997Y4354617D01*
G75*
G02*
X183638535Y4390679I-13200J49262D01*
G01*
G37*
D15*
X176044598Y5979356D03*
D16*
X179903656Y10895673D03*
D15*
X181443629Y5148414D03*
G36*
G01*
X171912690Y3526356D02*
X171239761Y6037763D01*
G75*
G02*
X171275823Y6100225I49262J13200D01*
G01*
X173787230Y6773154D01*
G75*
G02*
X173849692Y6737092I13200J-49262D01*
G01*
X174522621Y4225685D01*
G75*
G02*
X174486559Y4163223I-49262J-13200D01*
G01*
X171975152Y3490294D01*
G75*
G02*
X171912690Y3526356I-13200J49262D01*
G01*
G37*
D17*
X183858749Y16303597D03*
D14*
X154875377Y9448569D03*
X165500561Y12295579D03*
G36*
G01*
X163922848Y4367080D02*
X163249919Y6878487D01*
G75*
G02*
X163285981Y6940949I49262J13200D01*
G01*
X165797388Y7613878D01*
G75*
G02*
X165859850Y7577816I13200J-49262D01*
G01*
X166532779Y5066409D01*
G75*
G02*
X166496717Y5003947I-49262J-13200D01*
G01*
X163985310Y4331018D01*
G75*
G02*
X163922848Y4367080I-13200J49262D01*
G01*
G37*
D15*
X156328911Y5955757D03*
D16*
X160187969Y10872074D03*
D15*
X161727942Y5124815D03*
G36*
G01*
X152197003Y3502757D02*
X151524074Y6014164D01*
G75*
G02*
X151560136Y6076626I49262J13200D01*
G01*
X154071543Y6749555D01*
G75*
G02*
X154134005Y6713493I13200J-49262D01*
G01*
X154806934Y4202086D01*
G75*
G02*
X154770872Y4139624I-49262J-13200D01*
G01*
X152259465Y3466695D01*
G75*
G02*
X152197003Y3502757I-13200J49262D01*
G01*
G37*
D17*
X164143062Y16279998D03*
D14*
X137789292Y-388836D03*
X148414476Y2458174D03*
G36*
G01*
X146836763Y-5470325D02*
X146163834Y-2958918D01*
G75*
G02*
X146199896Y-2896456I49262J13200D01*
G01*
X148711303Y-2223527D01*
G75*
G02*
X148773765Y-2259589I13200J-49262D01*
G01*
X149446694Y-4770996D01*
G75*
G02*
X149410632Y-4833458I-49262J-13200D01*
G01*
X146899225Y-5506387D01*
G75*
G02*
X146836763Y-5470325I-13200J49262D01*
G01*
G37*
D15*
X139242826Y-3881648D03*
D16*
X143101884Y1034669D03*
D15*
X144641857Y-4712590D03*
G36*
G01*
X135110918Y-6334648D02*
X134437989Y-3823241D01*
G75*
G02*
X134474051Y-3760779I49262J13200D01*
G01*
X136985458Y-3087850D01*
G75*
G02*
X137047920Y-3123912I13200J-49262D01*
G01*
X137720849Y-5635319D01*
G75*
G02*
X137684787Y-5697781I-49262J-13200D01*
G01*
X135173380Y-6370710D01*
G75*
G02*
X135110918Y-6334648I-13200J49262D01*
G01*
G37*
D17*
X147056977Y6442593D03*
D14*
X120045806Y-7772790D03*
X130670990Y-4925780D03*
G36*
G01*
X129093277Y-12854279D02*
X128420348Y-10342872D01*
G75*
G02*
X128456410Y-10280410I49262J13200D01*
G01*
X130967817Y-9607481D01*
G75*
G02*
X131030279Y-9643543I13200J-49262D01*
G01*
X131703208Y-12154950D01*
G75*
G02*
X131667146Y-12217412I-49262J-13200D01*
G01*
X129155739Y-12890341D01*
G75*
G02*
X129093277Y-12854279I-13200J49262D01*
G01*
G37*
D15*
X121499340Y-11265602D03*
D16*
X125358398Y-6349285D03*
D15*
X126898371Y-12096544D03*
G36*
G01*
X117367432Y-13718602D02*
X116694503Y-11207195D01*
G75*
G02*
X116730565Y-11144733I49262J13200D01*
G01*
X119241972Y-10471804D01*
G75*
G02*
X119304434Y-10507866I13200J-49262D01*
G01*
X119977363Y-13019273D01*
G75*
G02*
X119941301Y-13081735I-49262J-13200D01*
G01*
X117429894Y-13754664D01*
G75*
G02*
X117367432Y-13718602I-13200J49262D01*
G01*
G37*
D17*
X129313491Y-941361D03*
D14*
X60699602Y-41727552D03*
X71324786Y-44574562D03*
G36*
G01*
X65994198Y-50651987D02*
X66667127Y-48140580D01*
G75*
G02*
X66729589Y-48104518I49262J-13200D01*
G01*
X69240996Y-48777447D01*
G75*
G02*
X69277058Y-48839909I-13200J-49262D01*
G01*
X68604129Y-51351316D01*
G75*
G02*
X68541667Y-51387378I-49262J13200D01*
G01*
X66030260Y-50714449D01*
G75*
G02*
X65994198Y-50651987I13200J49262D01*
G01*
G37*
D15*
X60211993Y-45479184D03*
D16*
X66012194Y-43151057D03*
D15*
X64472221Y-48898316D03*
G36*
G01*
X55407156Y-45537590D02*
X56080085Y-43026183D01*
G75*
G02*
X56142547Y-42990121I49262J-13200D01*
G01*
X58653954Y-43663050D01*
G75*
G02*
X58690016Y-43725512I-13200J-49262D01*
G01*
X58017087Y-46236919D01*
G75*
G02*
X57954625Y-46272981I-49262J13200D01*
G01*
X55443218Y-45600052D01*
G75*
G02*
X55407156Y-45537590I13200J49262D01*
G01*
G37*
D17*
X72141367Y-40445204D03*
D14*
X42956116Y-34343598D03*
X53581300Y-37190608D03*
G36*
G01*
X48250712Y-43268033D02*
X48923641Y-40756626D01*
G75*
G02*
X48986103Y-40720564I49262J-13200D01*
G01*
X51497510Y-41393493D01*
G75*
G02*
X51533572Y-41455955I-13200J-49262D01*
G01*
X50860643Y-43967362D01*
G75*
G02*
X50798181Y-44003424I-49262J13200D01*
G01*
X48286774Y-43330495D01*
G75*
G02*
X48250712Y-43268033I13200J49262D01*
G01*
G37*
D15*
X42468507Y-38095230D03*
D16*
X48268708Y-35767103D03*
D15*
X46728735Y-41514362D03*
G36*
G01*
X37663670Y-38153636D02*
X38336599Y-35642229D01*
G75*
G02*
X38399061Y-35606167I49262J-13200D01*
G01*
X40910468Y-36279096D01*
G75*
G02*
X40946530Y-36341558I-13200J-49262D01*
G01*
X40273601Y-38852965D01*
G75*
G02*
X40211139Y-38889027I-49262J13200D01*
G01*
X37699732Y-38216098D01*
G75*
G02*
X37663670Y-38153636I13200J49262D01*
G01*
G37*
D17*
X54397881Y-33061250D03*
D14*
X25870031Y-24506193D03*
X36495215Y-27353203D03*
G36*
G01*
X31164627Y-33430628D02*
X31837556Y-30919221D01*
G75*
G02*
X31900018Y-30883159I49262J-13200D01*
G01*
X34411425Y-31556088D01*
G75*
G02*
X34447487Y-31618550I-13200J-49262D01*
G01*
X33774558Y-34129957D01*
G75*
G02*
X33712096Y-34166019I-49262J13200D01*
G01*
X31200689Y-33493090D01*
G75*
G02*
X31164627Y-33430628I13200J49262D01*
G01*
G37*
D15*
X25382422Y-28257825D03*
D16*
X31182623Y-25929698D03*
D15*
X29642650Y-31676957D03*
G36*
G01*
X20577585Y-28316231D02*
X21250514Y-25804824D01*
G75*
G02*
X21312976Y-25768762I49262J-13200D01*
G01*
X23824383Y-26441691D01*
G75*
G02*
X23860445Y-26504153I-13200J-49262D01*
G01*
X23187516Y-29015560D01*
G75*
G02*
X23125054Y-29051622I-49262J13200D01*
G01*
X20613647Y-28378693D01*
G75*
G02*
X20577585Y-28316231I13200J49262D01*
G01*
G37*
D17*
X37311796Y-23223845D03*
D14*
X6154344Y-24482594D03*
X16779528Y-27329604D03*
G36*
G01*
X11448940Y-33407029D02*
X12121869Y-30895622D01*
G75*
G02*
X12184331Y-30859560I49262J-13200D01*
G01*
X14695738Y-31532489D01*
G75*
G02*
X14731800Y-31594951I-13200J-49262D01*
G01*
X14058871Y-34106358D01*
G75*
G02*
X13996409Y-34142420I-49262J13200D01*
G01*
X11485002Y-33469491D01*
G75*
G02*
X11448940Y-33407029I13200J49262D01*
G01*
G37*
D15*
X5666735Y-28234226D03*
D16*
X11466936Y-25906099D03*
D15*
X9926963Y-31653358D03*
G36*
G01*
X861898Y-28292632D02*
X1534827Y-25781225D01*
G75*
G02*
X1597289Y-25745163I49262J-13200D01*
G01*
X4108696Y-26418092D01*
G75*
G02*
X4144758Y-26480554I-13200J-49262D01*
G01*
X3471829Y-28991961D01*
G75*
G02*
X3409367Y-29028023I-49262J13200D01*
G01*
X897960Y-28355094D01*
G75*
G02*
X861898Y-28292632I13200J49262D01*
G01*
G37*
D17*
X17596109Y-23200246D03*
D14*
X-14876142Y-29365898D03*
X-4250958Y-32212908D03*
G36*
G01*
X-9581546Y-38290333D02*
X-8908617Y-35778926D01*
G75*
G02*
X-8846155Y-35742864I49262J-13200D01*
G01*
X-6334748Y-36415793D01*
G75*
G02*
X-6298686Y-36478255I-13200J-49262D01*
G01*
X-6971615Y-38989662D01*
G75*
G02*
X-7034077Y-39025724I-49262J13200D01*
G01*
X-9545484Y-38352795D01*
G75*
G02*
X-9581546Y-38290333I13200J49262D01*
G01*
G37*
D15*
X-15363751Y-33117530D03*
D16*
X-9563550Y-30789403D03*
D15*
X-11103523Y-36536662D03*
G36*
G01*
X-20168588Y-33175936D02*
X-19495659Y-30664529D01*
G75*
G02*
X-19433197Y-30628467I49262J-13200D01*
G01*
X-16921790Y-31301396D01*
G75*
G02*
X-16885728Y-31363858I-13200J-49262D01*
G01*
X-17558657Y-33875265D01*
G75*
G02*
X-17621119Y-33911327I-49262J13200D01*
G01*
X-20132526Y-33238398D01*
G75*
G02*
X-20168588Y-33175936I13200J49262D01*
G01*
G37*
D17*
X-3434377Y-28083550D03*
D14*
X65630104Y-23326666D03*
X76255288Y-26173676D03*
G36*
G01*
X70924700Y-32251101D02*
X71597629Y-29739694D01*
G75*
G02*
X71660091Y-29703632I49262J-13200D01*
G01*
X74171498Y-30376561D01*
G75*
G02*
X74207560Y-30439023I-13200J-49262D01*
G01*
X73534631Y-32950430D01*
G75*
G02*
X73472169Y-32986492I-49262J13200D01*
G01*
X70960762Y-32313563D01*
G75*
G02*
X70924700Y-32251101I13200J49262D01*
G01*
G37*
D15*
X65142495Y-27078298D03*
D16*
X70942696Y-24750171D03*
D15*
X69402723Y-30497430D03*
G36*
G01*
X60337658Y-27136704D02*
X61010587Y-24625297D01*
G75*
G02*
X61073049Y-24589235I49262J-13200D01*
G01*
X63584456Y-25262164D01*
G75*
G02*
X63620518Y-25324626I-13200J-49262D01*
G01*
X62947589Y-27836033D01*
G75*
G02*
X62885127Y-27872095I-49262J13200D01*
G01*
X60373720Y-27199166D01*
G75*
G02*
X60337658Y-27136704I13200J49262D01*
G01*
G37*
D17*
X77071869Y-22044318D03*
D14*
X47886618Y-15942712D03*
X58511802Y-18789722D03*
G36*
G01*
X53181214Y-24867147D02*
X53854143Y-22355740D01*
G75*
G02*
X53916605Y-22319678I49262J-13200D01*
G01*
X56428012Y-22992607D01*
G75*
G02*
X56464074Y-23055069I-13200J-49262D01*
G01*
X55791145Y-25566476D01*
G75*
G02*
X55728683Y-25602538I-49262J13200D01*
G01*
X53217276Y-24929609D01*
G75*
G02*
X53181214Y-24867147I13200J49262D01*
G01*
G37*
D15*
X47399009Y-19694344D03*
D16*
X53199210Y-17366217D03*
D15*
X51659237Y-23113476D03*
G36*
G01*
X42594172Y-19752750D02*
X43267101Y-17241343D01*
G75*
G02*
X43329563Y-17205281I49262J-13200D01*
G01*
X45840970Y-17878210D01*
G75*
G02*
X45877032Y-17940672I-13200J-49262D01*
G01*
X45204103Y-20452079D01*
G75*
G02*
X45141641Y-20488141I-49262J13200D01*
G01*
X42630234Y-19815212D01*
G75*
G02*
X42594172Y-19752750I13200J49262D01*
G01*
G37*
D17*
X59328383Y-14660364D03*
D14*
X30800533Y-6105307D03*
X41425717Y-8952317D03*
G36*
G01*
X36095129Y-15029742D02*
X36768058Y-12518335D01*
G75*
G02*
X36830520Y-12482273I49262J-13200D01*
G01*
X39341927Y-13155202D01*
G75*
G02*
X39377989Y-13217664I-13200J-49262D01*
G01*
X38705060Y-15729071D01*
G75*
G02*
X38642598Y-15765133I-49262J13200D01*
G01*
X36131191Y-15092204D01*
G75*
G02*
X36095129Y-15029742I13200J49262D01*
G01*
G37*
D15*
X30312924Y-9856939D03*
D16*
X36113125Y-7528812D03*
D15*
X34573152Y-13276071D03*
G36*
G01*
X25508087Y-9915345D02*
X26181016Y-7403938D01*
G75*
G02*
X26243478Y-7367876I49262J-13200D01*
G01*
X28754885Y-8040805D01*
G75*
G02*
X28790947Y-8103267I-13200J-49262D01*
G01*
X28118018Y-10614674D01*
G75*
G02*
X28055556Y-10650736I-49262J13200D01*
G01*
X25544149Y-9977807D01*
G75*
G02*
X25508087Y-9915345I13200J49262D01*
G01*
G37*
D17*
X42242298Y-4822959D03*
D14*
X11084846Y-6081708D03*
X21710030Y-8928718D03*
G36*
G01*
X16379442Y-15006143D02*
X17052371Y-12494736D01*
G75*
G02*
X17114833Y-12458674I49262J-13200D01*
G01*
X19626240Y-13131603D01*
G75*
G02*
X19662302Y-13194065I-13200J-49262D01*
G01*
X18989373Y-15705472D01*
G75*
G02*
X18926911Y-15741534I-49262J13200D01*
G01*
X16415504Y-15068605D01*
G75*
G02*
X16379442Y-15006143I13200J49262D01*
G01*
G37*
D15*
X10597237Y-9833340D03*
D16*
X16397438Y-7505213D03*
D15*
X14857465Y-13252472D03*
G36*
G01*
X5792400Y-9891746D02*
X6465329Y-7380339D01*
G75*
G02*
X6527791Y-7344277I49262J-13200D01*
G01*
X9039198Y-8017206D01*
G75*
G02*
X9075260Y-8079668I-13200J-49262D01*
G01*
X8402331Y-10591075D01*
G75*
G02*
X8339869Y-10627137I-49262J13200D01*
G01*
X5828462Y-9954208D01*
G75*
G02*
X5792400Y-9891746I13200J49262D01*
G01*
G37*
D17*
X22526611Y-4799360D03*
D14*
X-9945640Y-10965012D03*
X679544Y-13812022D03*
G36*
G01*
X-4651044Y-19889447D02*
X-3978115Y-17378040D01*
G75*
G02*
X-3915653Y-17341978I49262J-13200D01*
G01*
X-1404246Y-18014907D01*
G75*
G02*
X-1368184Y-18077369I-13200J-49262D01*
G01*
X-2041113Y-20588776D01*
G75*
G02*
X-2103575Y-20624838I-49262J13200D01*
G01*
X-4614982Y-19951909D01*
G75*
G02*
X-4651044Y-19889447I13200J49262D01*
G01*
G37*
D15*
X-10433249Y-14716644D03*
D16*
X-4633048Y-12388517D03*
D15*
X-6173021Y-18135776D03*
G36*
G01*
X-15238086Y-14775050D02*
X-14565157Y-12263643D01*
G75*
G02*
X-14502695Y-12227581I49262J-13200D01*
G01*
X-11991288Y-12900510D01*
G75*
G02*
X-11955226Y-12962972I-13200J-49262D01*
G01*
X-12628155Y-15474379D01*
G75*
G02*
X-12690617Y-15510441I-49262J13200D01*
G01*
X-15202024Y-14837512D01*
G75*
G02*
X-15238086Y-14775050I13200J49262D01*
G01*
G37*
D17*
X1496125Y-9682664D03*
D14*
X70560606Y-4925780D03*
X81185790Y-7772790D03*
G36*
G01*
X75855202Y-13850215D02*
X76528131Y-11338808D01*
G75*
G02*
X76590593Y-11302746I49262J-13200D01*
G01*
X79102000Y-11975675D01*
G75*
G02*
X79138062Y-12038137I-13200J-49262D01*
G01*
X78465133Y-14549544D01*
G75*
G02*
X78402671Y-14585606I-49262J13200D01*
G01*
X75891264Y-13912677D01*
G75*
G02*
X75855202Y-13850215I13200J49262D01*
G01*
G37*
D15*
X70072997Y-8677412D03*
D16*
X75873198Y-6349285D03*
D15*
X74333225Y-12096544D03*
G36*
G01*
X65268160Y-8735818D02*
X65941089Y-6224411D01*
G75*
G02*
X66003551Y-6188349I49262J-13200D01*
G01*
X68514958Y-6861278D01*
G75*
G02*
X68551020Y-6923740I-13200J-49262D01*
G01*
X67878091Y-9435147D01*
G75*
G02*
X67815629Y-9471209I-49262J13200D01*
G01*
X65304222Y-8798280D01*
G75*
G02*
X65268160Y-8735818I13200J49262D01*
G01*
G37*
D17*
X82002371Y-3643432D03*
D14*
X52817120Y2458174D03*
X63442304Y-388836D03*
G36*
G01*
X58111716Y-6466261D02*
X58784645Y-3954854D01*
G75*
G02*
X58847107Y-3918792I49262J-13200D01*
G01*
X61358514Y-4591721D01*
G75*
G02*
X61394576Y-4654183I-13200J-49262D01*
G01*
X60721647Y-7165590D01*
G75*
G02*
X60659185Y-7201652I-49262J13200D01*
G01*
X58147778Y-6528723D01*
G75*
G02*
X58111716Y-6466261I13200J49262D01*
G01*
G37*
D15*
X52329511Y-1293458D03*
D16*
X58129712Y1034669D03*
D15*
X56589739Y-4712590D03*
G36*
G01*
X47524674Y-1351864D02*
X48197603Y1159543D01*
G75*
G02*
X48260065Y1195605I49262J-13200D01*
G01*
X50771472Y522676D01*
G75*
G02*
X50807534Y460214I-13200J-49262D01*
G01*
X50134605Y-2051193D01*
G75*
G02*
X50072143Y-2087255I-49262J13200D01*
G01*
X47560736Y-1414326D01*
G75*
G02*
X47524674Y-1351864I13200J49262D01*
G01*
G37*
D17*
X64258885Y3740522D03*
D14*
X16015348Y12319178D03*
X26640532Y9472168D03*
G36*
G01*
X21309944Y3394743D02*
X21982873Y5906150D01*
G75*
G02*
X22045335Y5942212I49262J-13200D01*
G01*
X24556742Y5269283D01*
G75*
G02*
X24592804Y5206821I-13200J-49262D01*
G01*
X23919875Y2695414D01*
G75*
G02*
X23857413Y2659352I-49262J13200D01*
G01*
X21346006Y3332281D01*
G75*
G02*
X21309944Y3394743I13200J49262D01*
G01*
G37*
D15*
X15527739Y8567546D03*
D16*
X21327940Y10895673D03*
D15*
X19787967Y5148414D03*
G36*
G01*
X10722902Y8509140D02*
X11395831Y11020547D01*
G75*
G02*
X11458293Y11056609I49262J-13200D01*
G01*
X13969700Y10383680D01*
G75*
G02*
X14005762Y10321218I-13200J-49262D01*
G01*
X13332833Y7809811D01*
G75*
G02*
X13270371Y7773749I-49262J13200D01*
G01*
X10758964Y8446678D01*
G75*
G02*
X10722902Y8509140I13200J49262D01*
G01*
G37*
D17*
X27457113Y13601526D03*
D14*
X-5015138Y7435874D03*
X5610046Y4588864D03*
G36*
G01*
X279458Y-1488561D02*
X952387Y1022846D01*
G75*
G02*
X1014849Y1058908I49262J-13200D01*
G01*
X3526256Y385979D01*
G75*
G02*
X3562318Y323517I-13200J-49262D01*
G01*
X2889389Y-2187890D01*
G75*
G02*
X2826927Y-2223952I-49262J13200D01*
G01*
X315520Y-1551023D01*
G75*
G02*
X279458Y-1488561I13200J49262D01*
G01*
G37*
D15*
X-5502747Y3684242D03*
D16*
X297454Y6012369D03*
D15*
X-1242519Y265110D03*
G36*
G01*
X-10307584Y3625836D02*
X-9634655Y6137243D01*
G75*
G02*
X-9572193Y6173305I49262J-13200D01*
G01*
X-7060786Y5500376D01*
G75*
G02*
X-7024724Y5437914I-13200J-49262D01*
G01*
X-7697653Y2926507D01*
G75*
G02*
X-7760115Y2890445I-49262J13200D01*
G01*
X-10271522Y3563374D01*
G75*
G02*
X-10307584Y3625836I13200J49262D01*
G01*
G37*
D17*
X6426627Y8718222D03*
D18*
X78512500Y20155000D03*
X85012500Y20155000D03*
G36*
G01*
X97211000Y-35086298D02*
X97211000Y-34077702D01*
G75*
G02*
X97482702Y-33806000I271702J0D01*
G01*
X98216298Y-33806000D01*
G75*
G02*
X98488000Y-34077702I0J-271702D01*
G01*
X98488000Y-35086298D01*
G75*
G02*
X98216298Y-35358000I-271702J0D01*
G01*
X97482702Y-35358000D01*
G75*
G02*
X97211000Y-35086298I0J271702D01*
G01*
G37*
G36*
G01*
X95136000Y-35086298D02*
X95136000Y-34077702D01*
G75*
G02*
X95407702Y-33806000I271702J0D01*
G01*
X96141298Y-33806000D01*
G75*
G02*
X96413000Y-34077702I0J-271702D01*
G01*
X96413000Y-35086298D01*
G75*
G02*
X96141298Y-35358000I-271702J0D01*
G01*
X95407702Y-35358000D01*
G75*
G02*
X95136000Y-35086298I0J271702D01*
G01*
G37*
G36*
G01*
X96561702Y-14915000D02*
X97570298Y-14915000D01*
G75*
G02*
X97842000Y-15186702I0J-271702D01*
G01*
X97842000Y-15920298D01*
G75*
G02*
X97570298Y-16192000I-271702J0D01*
G01*
X96561702Y-16192000D01*
G75*
G02*
X96290000Y-15920298I0J271702D01*
G01*
X96290000Y-15186702D01*
G75*
G02*
X96561702Y-14915000I271702J0D01*
G01*
G37*
G36*
G01*
X96561702Y-12840000D02*
X97570298Y-12840000D01*
G75*
G02*
X97842000Y-13111702I0J-271702D01*
G01*
X97842000Y-13845298D01*
G75*
G02*
X97570298Y-14117000I-271702J0D01*
G01*
X96561702Y-14117000D01*
G75*
G02*
X96290000Y-13845298I0J271702D01*
G01*
X96290000Y-13111702D01*
G75*
G02*
X96561702Y-12840000I271702J0D01*
G01*
G37*
G36*
G01*
X111794298Y-20975000D02*
X110785702Y-20975000D01*
G75*
G02*
X110514000Y-20703298I0J271702D01*
G01*
X110514000Y-19969702D01*
G75*
G02*
X110785702Y-19698000I271702J0D01*
G01*
X111794298Y-19698000D01*
G75*
G02*
X112066000Y-19969702I0J-271702D01*
G01*
X112066000Y-20703298D01*
G75*
G02*
X111794298Y-20975000I-271702J0D01*
G01*
G37*
G36*
G01*
X111794298Y-23050000D02*
X110785702Y-23050000D01*
G75*
G02*
X110514000Y-22778298I0J271702D01*
G01*
X110514000Y-22044702D01*
G75*
G02*
X110785702Y-21773000I271702J0D01*
G01*
X111794298Y-21773000D01*
G75*
G02*
X112066000Y-22044702I0J-271702D01*
G01*
X112066000Y-22778298D01*
G75*
G02*
X111794298Y-23050000I-271702J0D01*
G01*
G37*
G36*
G01*
X107081000Y-33823702D02*
X107081000Y-34832298D01*
G75*
G02*
X106809298Y-35104000I-271702J0D01*
G01*
X106075702Y-35104000D01*
G75*
G02*
X105804000Y-34832298I0J271702D01*
G01*
X105804000Y-33823702D01*
G75*
G02*
X106075702Y-33552000I271702J0D01*
G01*
X106809298Y-33552000D01*
G75*
G02*
X107081000Y-33823702I0J-271702D01*
G01*
G37*
G36*
G01*
X109156000Y-33823702D02*
X109156000Y-34832298D01*
G75*
G02*
X108884298Y-35104000I-271702J0D01*
G01*
X108150702Y-35104000D01*
G75*
G02*
X107879000Y-34832298I0J271702D01*
G01*
X107879000Y-33823702D01*
G75*
G02*
X108150702Y-33552000I271702J0D01*
G01*
X108884298Y-33552000D01*
G75*
G02*
X109156000Y-33823702I0J-271702D01*
G01*
G37*
G36*
G01*
X106968298Y-14117000D02*
X105959702Y-14117000D01*
G75*
G02*
X105688000Y-13845298I0J271702D01*
G01*
X105688000Y-13111702D01*
G75*
G02*
X105959702Y-12840000I271702J0D01*
G01*
X106968298Y-12840000D01*
G75*
G02*
X107240000Y-13111702I0J-271702D01*
G01*
X107240000Y-13845298D01*
G75*
G02*
X106968298Y-14117000I-271702J0D01*
G01*
G37*
G36*
G01*
X106968298Y-16192000D02*
X105959702Y-16192000D01*
G75*
G02*
X105688000Y-15920298I0J271702D01*
G01*
X105688000Y-15186702D01*
G75*
G02*
X105959702Y-14915000I271702J0D01*
G01*
X106968298Y-14915000D01*
G75*
G02*
X107240000Y-15186702I0J-271702D01*
G01*
X107240000Y-15920298D01*
G75*
G02*
X106968298Y-16192000I-271702J0D01*
G01*
G37*
G36*
G01*
X91220298Y-32405000D02*
X90211702Y-32405000D01*
G75*
G02*
X89940000Y-32133298I0J271702D01*
G01*
X89940000Y-31399702D01*
G75*
G02*
X90211702Y-31128000I271702J0D01*
G01*
X91220298Y-31128000D01*
G75*
G02*
X91492000Y-31399702I0J-271702D01*
G01*
X91492000Y-32133298D01*
G75*
G02*
X91220298Y-32405000I-271702J0D01*
G01*
G37*
G36*
G01*
X91220298Y-34480000D02*
X90211702Y-34480000D01*
G75*
G02*
X89940000Y-34208298I0J271702D01*
G01*
X89940000Y-33474702D01*
G75*
G02*
X90211702Y-33203000I271702J0D01*
G01*
X91220298Y-33203000D01*
G75*
G02*
X91492000Y-33474702I0J-271702D01*
G01*
X91492000Y-34208298D01*
G75*
G02*
X91220298Y-34480000I-271702J0D01*
G01*
G37*
G36*
G01*
X89449702Y-26853000D02*
X90458298Y-26853000D01*
G75*
G02*
X90730000Y-27124702I0J-271702D01*
G01*
X90730000Y-27858298D01*
G75*
G02*
X90458298Y-28130000I-271702J0D01*
G01*
X89449702Y-28130000D01*
G75*
G02*
X89178000Y-27858298I0J271702D01*
G01*
X89178000Y-27124702D01*
G75*
G02*
X89449702Y-26853000I271702J0D01*
G01*
G37*
G36*
G01*
X89449702Y-24778000D02*
X90458298Y-24778000D01*
G75*
G02*
X90730000Y-25049702I0J-271702D01*
G01*
X90730000Y-25783298D01*
G75*
G02*
X90458298Y-26055000I-271702J0D01*
G01*
X89449702Y-26055000D01*
G75*
G02*
X89178000Y-25783298I0J271702D01*
G01*
X89178000Y-25049702D01*
G75*
G02*
X89449702Y-24778000I271702J0D01*
G01*
G37*
G36*
G01*
X-7605767Y10921260D02*
X-6446656Y10610677D01*
G75*
G02*
X-6410594Y10548215I-13200J-49262D01*
G01*
X-6643531Y9678882D01*
G75*
G02*
X-6705993Y9642820I-49262J13200D01*
G01*
X-7865104Y9953403D01*
G75*
G02*
X-7901166Y10015865I13200J49262D01*
G01*
X-7668229Y10885198D01*
G75*
G02*
X-7605767Y10921260I49262J-13200D01*
G01*
G37*
G36*
G01*
X-6751665Y14108816D02*
X-5592554Y13798233D01*
G75*
G02*
X-5556492Y13735771I-13200J-49262D01*
G01*
X-5789429Y12866438D01*
G75*
G02*
X-5851891Y12830376I-49262J13200D01*
G01*
X-7011002Y13140959D01*
G75*
G02*
X-7047064Y13203421I13200J49262D01*
G01*
X-6814127Y14072754D01*
G75*
G02*
X-6751665Y14108816I49262J-13200D01*
G01*
G37*
G36*
G01*
X14410705Y18913759D02*
X15569816Y18603176D01*
G75*
G02*
X15605878Y18540714I-13200J-49262D01*
G01*
X15372941Y17671381D01*
G75*
G02*
X15310479Y17635319I-49262J13200D01*
G01*
X14151368Y17945902D01*
G75*
G02*
X14115306Y18008364I13200J49262D01*
G01*
X14348243Y18877697D01*
G75*
G02*
X14410705Y18913759I49262J-13200D01*
G01*
G37*
G36*
G01*
X13556603Y15726203D02*
X14715714Y15415620D01*
G75*
G02*
X14751776Y15353158I-13200J-49262D01*
G01*
X14518839Y14483825D01*
G75*
G02*
X14456377Y14447763I-49262J13200D01*
G01*
X13297266Y14758346D01*
G75*
G02*
X13261204Y14820808I13200J49262D01*
G01*
X13494141Y15690141D01*
G75*
G02*
X13556603Y15726203I49262J-13200D01*
G01*
G37*
G36*
G01*
X33272290Y15702604D02*
X34431401Y15392021D01*
G75*
G02*
X34467463Y15329559I-13200J-49262D01*
G01*
X34234526Y14460226D01*
G75*
G02*
X34172064Y14424164I-49262J13200D01*
G01*
X33012953Y14734747D01*
G75*
G02*
X32976891Y14797209I13200J49262D01*
G01*
X33209828Y15666542D01*
G75*
G02*
X33272290Y15702604I49262J-13200D01*
G01*
G37*
G36*
G01*
X34126392Y18890160D02*
X35285503Y18579577D01*
G75*
G02*
X35321565Y18517115I-13200J-49262D01*
G01*
X35088628Y17647782D01*
G75*
G02*
X35026166Y17611720I-49262J13200D01*
G01*
X33867055Y17922303D01*
G75*
G02*
X33830993Y17984765I13200J49262D01*
G01*
X34063930Y18854098D01*
G75*
G02*
X34126392Y18890160I49262J-13200D01*
G01*
G37*
G36*
G01*
X51080593Y9131116D02*
X52239704Y8820533D01*
G75*
G02*
X52275766Y8758071I-13200J-49262D01*
G01*
X52042829Y7888738D01*
G75*
G02*
X51980367Y7852676I-49262J13200D01*
G01*
X50821256Y8163259D01*
G75*
G02*
X50785194Y8225721I13200J49262D01*
G01*
X51018131Y9095054D01*
G75*
G02*
X51080593Y9131116I49262J-13200D01*
G01*
G37*
G36*
G01*
X50226491Y5943560D02*
X51385602Y5632977D01*
G75*
G02*
X51421664Y5570515I-13200J-49262D01*
G01*
X51188727Y4701182D01*
G75*
G02*
X51126265Y4665120I-49262J13200D01*
G01*
X49967154Y4975703D01*
G75*
G02*
X49931092Y5038165I13200J49262D01*
G01*
X50164029Y5907498D01*
G75*
G02*
X50226491Y5943560I49262J-13200D01*
G01*
G37*
G36*
G01*
X67969977Y-1440394D02*
X69129088Y-1750977D01*
G75*
G02*
X69165150Y-1813439I-13200J-49262D01*
G01*
X68932213Y-2682772D01*
G75*
G02*
X68869751Y-2718834I-49262J13200D01*
G01*
X67710640Y-2408251D01*
G75*
G02*
X67674578Y-2345789I13200J49262D01*
G01*
X67907515Y-1476456D01*
G75*
G02*
X67969977Y-1440394I49262J-13200D01*
G01*
G37*
G36*
G01*
X68824079Y1747162D02*
X69983190Y1436579D01*
G75*
G02*
X70019252Y1374117I-13200J-49262D01*
G01*
X69786315Y504784D01*
G75*
G02*
X69723853Y468722I-49262J13200D01*
G01*
X68564742Y779305D01*
G75*
G02*
X68528680Y841767I13200J49262D01*
G01*
X68761617Y1711100D01*
G75*
G02*
X68824079Y1747162I49262J-13200D01*
G01*
G37*
G36*
G01*
X-11682167Y-4292070D02*
X-10523056Y-4602653D01*
G75*
G02*
X-10486994Y-4665115I-13200J-49262D01*
G01*
X-10719931Y-5534448D01*
G75*
G02*
X-10782393Y-5570510I-49262J13200D01*
G01*
X-11941504Y-5259927D01*
G75*
G02*
X-11977566Y-5197465I13200J49262D01*
G01*
X-11744629Y-4328132D01*
G75*
G02*
X-11682167Y-4292070I49262J-13200D01*
G01*
G37*
G36*
G01*
X-12536269Y-7479626D02*
X-11377158Y-7790209D01*
G75*
G02*
X-11341096Y-7852671I-13200J-49262D01*
G01*
X-11574033Y-8722004D01*
G75*
G02*
X-11636495Y-8758066I-49262J13200D01*
G01*
X-12795606Y-8447483D01*
G75*
G02*
X-12831668Y-8385021I13200J49262D01*
G01*
X-12598731Y-7515688D01*
G75*
G02*
X-12536269Y-7479626I49262J-13200D01*
G01*
G37*
G36*
G01*
X8626101Y-2674683D02*
X9785212Y-2985266D01*
G75*
G02*
X9821274Y-3047728I-13200J-49262D01*
G01*
X9588337Y-3917061D01*
G75*
G02*
X9525875Y-3953123I-49262J13200D01*
G01*
X8366764Y-3642540D01*
G75*
G02*
X8330702Y-3580078I13200J49262D01*
G01*
X8563639Y-2710745D01*
G75*
G02*
X8626101Y-2674683I49262J-13200D01*
G01*
G37*
G36*
G01*
X9480203Y512873D02*
X10639314Y202290D01*
G75*
G02*
X10675376Y139828I-13200J-49262D01*
G01*
X10442439Y-729505D01*
G75*
G02*
X10379977Y-765567I-49262J13200D01*
G01*
X9220866Y-454984D01*
G75*
G02*
X9184804Y-392522I13200J49262D01*
G01*
X9417741Y476811D01*
G75*
G02*
X9480203Y512873I49262J-13200D01*
G01*
G37*
G36*
G01*
X29195890Y489274D02*
X30355001Y178691D01*
G75*
G02*
X30391063Y116229I-13200J-49262D01*
G01*
X30158126Y-753104D01*
G75*
G02*
X30095664Y-789166I-49262J13200D01*
G01*
X28936553Y-478583D01*
G75*
G02*
X28900491Y-416121I13200J49262D01*
G01*
X29133428Y453212D01*
G75*
G02*
X29195890Y489274I49262J-13200D01*
G01*
G37*
G36*
G01*
X28341788Y-2698282D02*
X29500899Y-3008865D01*
G75*
G02*
X29536961Y-3071327I-13200J-49262D01*
G01*
X29304024Y-3940660D01*
G75*
G02*
X29241562Y-3976722I-49262J13200D01*
G01*
X28082451Y-3666139D01*
G75*
G02*
X28046389Y-3603677I13200J49262D01*
G01*
X28279326Y-2734344D01*
G75*
G02*
X28341788Y-2698282I49262J-13200D01*
G01*
G37*
G36*
G01*
X45427873Y-12535687D02*
X46586984Y-12846270D01*
G75*
G02*
X46623046Y-12908732I-13200J-49262D01*
G01*
X46390109Y-13778065D01*
G75*
G02*
X46327647Y-13814127I-49262J13200D01*
G01*
X45168536Y-13503544D01*
G75*
G02*
X45132474Y-13441082I13200J49262D01*
G01*
X45365411Y-12571749D01*
G75*
G02*
X45427873Y-12535687I49262J-13200D01*
G01*
G37*
G36*
G01*
X46281975Y-9348131D02*
X47441086Y-9658714D01*
G75*
G02*
X47477148Y-9721176I-13200J-49262D01*
G01*
X47244211Y-10590509D01*
G75*
G02*
X47181749Y-10626571I-49262J13200D01*
G01*
X46022638Y-10315988D01*
G75*
G02*
X45986576Y-10253526I13200J49262D01*
G01*
X46219513Y-9384193D01*
G75*
G02*
X46281975Y-9348131I49262J-13200D01*
G01*
G37*
G36*
G01*
X63893577Y-16653724D02*
X65052688Y-16964307D01*
G75*
G02*
X65088750Y-17026769I-13200J-49262D01*
G01*
X64855813Y-17896102D01*
G75*
G02*
X64793351Y-17932164I-49262J13200D01*
G01*
X63634240Y-17621581D01*
G75*
G02*
X63598178Y-17559119I13200J49262D01*
G01*
X63831115Y-16689786D01*
G75*
G02*
X63893577Y-16653724I49262J-13200D01*
G01*
G37*
G36*
G01*
X63039475Y-19841280D02*
X64198586Y-20151863D01*
G75*
G02*
X64234648Y-20214325I-13200J-49262D01*
G01*
X64001711Y-21083658D01*
G75*
G02*
X63939249Y-21119720I-49262J13200D01*
G01*
X62780138Y-20809137D01*
G75*
G02*
X62744076Y-20746675I13200J49262D01*
G01*
X62977013Y-19877342D01*
G75*
G02*
X63039475Y-19841280I49262J-13200D01*
G01*
G37*
G36*
G01*
X-17466771Y-25880512D02*
X-16307660Y-26191095D01*
G75*
G02*
X-16271598Y-26253557I-13200J-49262D01*
G01*
X-16504535Y-27122890D01*
G75*
G02*
X-16566997Y-27158952I-49262J13200D01*
G01*
X-17726108Y-26848369D01*
G75*
G02*
X-17762170Y-26785907I13200J49262D01*
G01*
X-17529233Y-25916574D01*
G75*
G02*
X-17466771Y-25880512I49262J-13200D01*
G01*
G37*
G36*
G01*
X-16612669Y-22692956D02*
X-15453558Y-23003539D01*
G75*
G02*
X-15417496Y-23066001I-13200J-49262D01*
G01*
X-15650433Y-23935334D01*
G75*
G02*
X-15712895Y-23971396I-49262J13200D01*
G01*
X-16872006Y-23660813D01*
G75*
G02*
X-16908068Y-23598351I13200J49262D01*
G01*
X-16675131Y-22729018D01*
G75*
G02*
X-16612669Y-22692956I49262J-13200D01*
G01*
G37*
G36*
G01*
X4549701Y-17888013D02*
X5708812Y-18198596D01*
G75*
G02*
X5744874Y-18261058I-13200J-49262D01*
G01*
X5511937Y-19130391D01*
G75*
G02*
X5449475Y-19166453I-49262J13200D01*
G01*
X4290364Y-18855870D01*
G75*
G02*
X4254302Y-18793408I13200J49262D01*
G01*
X4487239Y-17924075D01*
G75*
G02*
X4549701Y-17888013I49262J-13200D01*
G01*
G37*
G36*
G01*
X3695599Y-21075569D02*
X4854710Y-21386152D01*
G75*
G02*
X4890772Y-21448614I-13200J-49262D01*
G01*
X4657835Y-22317947D01*
G75*
G02*
X4595373Y-22354009I-49262J13200D01*
G01*
X3436262Y-22043426D01*
G75*
G02*
X3400200Y-21980964I13200J49262D01*
G01*
X3633137Y-21111631D01*
G75*
G02*
X3695599Y-21075569I49262J-13200D01*
G01*
G37*
G36*
G01*
X23411286Y-21099168D02*
X24570397Y-21409751D01*
G75*
G02*
X24606459Y-21472213I-13200J-49262D01*
G01*
X24373522Y-22341546D01*
G75*
G02*
X24311060Y-22377608I-49262J13200D01*
G01*
X23151949Y-22067025D01*
G75*
G02*
X23115887Y-22004563I13200J49262D01*
G01*
X23348824Y-21135230D01*
G75*
G02*
X23411286Y-21099168I49262J-13200D01*
G01*
G37*
G36*
G01*
X24265388Y-17911612D02*
X25424499Y-18222195D01*
G75*
G02*
X25460561Y-18284657I-13200J-49262D01*
G01*
X25227624Y-19153990D01*
G75*
G02*
X25165162Y-19190052I-49262J13200D01*
G01*
X24006051Y-18879469D01*
G75*
G02*
X23969989Y-18817007I13200J49262D01*
G01*
X24202926Y-17947674D01*
G75*
G02*
X24265388Y-17911612I49262J-13200D01*
G01*
G37*
G36*
G01*
X41351473Y-27749017D02*
X42510584Y-28059600D01*
G75*
G02*
X42546646Y-28122062I-13200J-49262D01*
G01*
X42313709Y-28991395D01*
G75*
G02*
X42251247Y-29027457I-49262J13200D01*
G01*
X41092136Y-28716874D01*
G75*
G02*
X41056074Y-28654412I13200J49262D01*
G01*
X41289011Y-27785079D01*
G75*
G02*
X41351473Y-27749017I49262J-13200D01*
G01*
G37*
G36*
G01*
X40497371Y-30936573D02*
X41656482Y-31247156D01*
G75*
G02*
X41692544Y-31309618I-13200J-49262D01*
G01*
X41459607Y-32178951D01*
G75*
G02*
X41397145Y-32215013I-49262J13200D01*
G01*
X40238034Y-31904430D01*
G75*
G02*
X40201972Y-31841968I13200J49262D01*
G01*
X40434909Y-30972635D01*
G75*
G02*
X40497371Y-30936573I49262J-13200D01*
G01*
G37*
G36*
G01*
X58108973Y-38242166D02*
X59268084Y-38552749D01*
G75*
G02*
X59304146Y-38615211I-13200J-49262D01*
G01*
X59071209Y-39484544D01*
G75*
G02*
X59008747Y-39520606I-49262J13200D01*
G01*
X57849636Y-39210023D01*
G75*
G02*
X57813574Y-39147561I13200J49262D01*
G01*
X58046511Y-38278228D01*
G75*
G02*
X58108973Y-38242166I49262J-13200D01*
G01*
G37*
G36*
G01*
X58963075Y-35054610D02*
X60122186Y-35365193D01*
G75*
G02*
X60158248Y-35427655I-13200J-49262D01*
G01*
X59925311Y-36296988D01*
G75*
G02*
X59862849Y-36333050I-49262J13200D01*
G01*
X58703738Y-36022467D01*
G75*
G02*
X58667676Y-35960005I13200J49262D01*
G01*
X58900613Y-35090672D01*
G75*
G02*
X58963075Y-35054610I49262J-13200D01*
G01*
G37*
G36*
G01*
X116059289Y-6041513D02*
X117218400Y-5730930D01*
G75*
G02*
X117280862Y-5766992I13200J-49262D01*
G01*
X117513799Y-6636325D01*
G75*
G02*
X117477737Y-6698787I-49262J-13200D01*
G01*
X116318626Y-7009370D01*
G75*
G02*
X116256164Y-6973308I-13200J49262D01*
G01*
X116023227Y-6103975D01*
G75*
G02*
X116059289Y-6041513I49262J13200D01*
G01*
G37*
G36*
G01*
X115205187Y-2853957D02*
X116364298Y-2543374D01*
G75*
G02*
X116426760Y-2579436I13200J-49262D01*
G01*
X116659697Y-3448769D01*
G75*
G02*
X116623635Y-3511231I-49262J-13200D01*
G01*
X115464524Y-3821814D01*
G75*
G02*
X115402062Y-3785752I-13200J49262D01*
G01*
X115169125Y-2916419D01*
G75*
G02*
X115205187Y-2853957I49262J13200D01*
G01*
G37*
G36*
G01*
X132948673Y4529997D02*
X134107784Y4840580D01*
G75*
G02*
X134170246Y4804518I13200J-49262D01*
G01*
X134403183Y3935185D01*
G75*
G02*
X134367121Y3872723I-49262J-13200D01*
G01*
X133208010Y3562140D01*
G75*
G02*
X133145548Y3598202I-13200J49262D01*
G01*
X132912611Y4467535D01*
G75*
G02*
X132948673Y4529997I49262J13200D01*
G01*
G37*
G36*
G01*
X133802775Y1342441D02*
X134961886Y1653024D01*
G75*
G02*
X135024348Y1616962I13200J-49262D01*
G01*
X135257285Y747629D01*
G75*
G02*
X135221223Y685167I-49262J-13200D01*
G01*
X134062112Y374584D01*
G75*
G02*
X133999650Y410646I-13200J49262D01*
G01*
X133766713Y1279979D01*
G75*
G02*
X133802775Y1342441I49262J13200D01*
G01*
G37*
G36*
G01*
X150888860Y11179846D02*
X152047971Y11490429D01*
G75*
G02*
X152110433Y11454367I13200J-49262D01*
G01*
X152343370Y10585034D01*
G75*
G02*
X152307308Y10522572I-49262J-13200D01*
G01*
X151148197Y10211989D01*
G75*
G02*
X151085735Y10248051I-13200J49262D01*
G01*
X150852798Y11117384D01*
G75*
G02*
X150888860Y11179846I49262J13200D01*
G01*
G37*
G36*
G01*
X150034758Y14367402D02*
X151193869Y14677985D01*
G75*
G02*
X151256331Y14641923I13200J-49262D01*
G01*
X151489268Y13772590D01*
G75*
G02*
X151453206Y13710128I-49262J-13200D01*
G01*
X150294095Y13399545D01*
G75*
G02*
X150231633Y13435607I-13200J49262D01*
G01*
X149998696Y14304940D01*
G75*
G02*
X150034758Y14367402I49262J13200D01*
G01*
G37*
G36*
G01*
X169750445Y14391001D02*
X170909556Y14701584D01*
G75*
G02*
X170972018Y14665522I13200J-49262D01*
G01*
X171204955Y13796189D01*
G75*
G02*
X171168893Y13733727I-49262J-13200D01*
G01*
X170009782Y13423144D01*
G75*
G02*
X169947320Y13459206I-13200J49262D01*
G01*
X169714383Y14328539D01*
G75*
G02*
X169750445Y14391001I49262J13200D01*
G01*
G37*
G36*
G01*
X170604547Y11203445D02*
X171763658Y11514028D01*
G75*
G02*
X171826120Y11477966I13200J-49262D01*
G01*
X172059057Y10608633D01*
G75*
G02*
X172022995Y10546171I-49262J-13200D01*
G01*
X170863884Y10235588D01*
G75*
G02*
X170801422Y10271650I-13200J49262D01*
G01*
X170568485Y11140983D01*
G75*
G02*
X170604547Y11203445I49262J13200D01*
G01*
G37*
G36*
G01*
X190780931Y9507698D02*
X191940042Y9818281D01*
G75*
G02*
X192002504Y9782219I13200J-49262D01*
G01*
X192235441Y8912886D01*
G75*
G02*
X192199379Y8850424I-49262J-13200D01*
G01*
X191040268Y8539841D01*
G75*
G02*
X190977806Y8575903I-13200J49262D01*
G01*
X190744869Y9445236D01*
G75*
G02*
X190780931Y9507698I49262J13200D01*
G01*
G37*
G36*
G01*
X191635033Y6320142D02*
X192794144Y6630725D01*
G75*
G02*
X192856606Y6594663I13200J-49262D01*
G01*
X193089543Y5725330D01*
G75*
G02*
X193053481Y5662868I-49262J-13200D01*
G01*
X191894370Y5352285D01*
G75*
G02*
X191831908Y5388347I-13200J49262D01*
G01*
X191598971Y6257680D01*
G75*
G02*
X191635033Y6320142I49262J13200D01*
G01*
G37*
G36*
G01*
X120135689Y-21254843D02*
X121294800Y-20944260D01*
G75*
G02*
X121357262Y-20980322I13200J-49262D01*
G01*
X121590199Y-21849655D01*
G75*
G02*
X121554137Y-21912117I-49262J-13200D01*
G01*
X120395026Y-22222700D01*
G75*
G02*
X120332564Y-22186638I-13200J49262D01*
G01*
X120099627Y-21317305D01*
G75*
G02*
X120135689Y-21254843I49262J13200D01*
G01*
G37*
G36*
G01*
X120989791Y-24442399D02*
X122148902Y-24131816D01*
G75*
G02*
X122211364Y-24167878I13200J-49262D01*
G01*
X122444301Y-25037211D01*
G75*
G02*
X122408239Y-25099673I-49262J-13200D01*
G01*
X121249128Y-25410256D01*
G75*
G02*
X121186666Y-25374194I-13200J49262D01*
G01*
X120953729Y-24504861D01*
G75*
G02*
X120989791Y-24442399I49262J13200D01*
G01*
G37*
G36*
G01*
X138733277Y-17058445D02*
X139892388Y-16747862D01*
G75*
G02*
X139954850Y-16783924I13200J-49262D01*
G01*
X140187787Y-17653257D01*
G75*
G02*
X140151725Y-17715719I-49262J-13200D01*
G01*
X138992614Y-18026302D01*
G75*
G02*
X138930152Y-17990240I-13200J49262D01*
G01*
X138697215Y-17120907D01*
G75*
G02*
X138733277Y-17058445I49262J13200D01*
G01*
G37*
G36*
G01*
X137879175Y-13870889D02*
X139038286Y-13560306D01*
G75*
G02*
X139100748Y-13596368I13200J-49262D01*
G01*
X139333685Y-14465701D01*
G75*
G02*
X139297623Y-14528163I-49262J-13200D01*
G01*
X138138512Y-14838746D01*
G75*
G02*
X138076050Y-14802684I-13200J49262D01*
G01*
X137843113Y-13933351D01*
G75*
G02*
X137879175Y-13870889I49262J13200D01*
G01*
G37*
G36*
G01*
X154965260Y-4033484D02*
X156124371Y-3722901D01*
G75*
G02*
X156186833Y-3758963I13200J-49262D01*
G01*
X156419770Y-4628296D01*
G75*
G02*
X156383708Y-4690758I-49262J-13200D01*
G01*
X155224597Y-5001341D01*
G75*
G02*
X155162135Y-4965279I-13200J49262D01*
G01*
X154929198Y-4095946D01*
G75*
G02*
X154965260Y-4033484I49262J13200D01*
G01*
G37*
G36*
G01*
X155819362Y-7221040D02*
X156978473Y-6910457D01*
G75*
G02*
X157040935Y-6946519I13200J-49262D01*
G01*
X157273872Y-7815852D01*
G75*
G02*
X157237810Y-7878314I-49262J-13200D01*
G01*
X156078699Y-8188897D01*
G75*
G02*
X156016237Y-8152835I-13200J49262D01*
G01*
X155783300Y-7283502D01*
G75*
G02*
X155819362Y-7221040I49262J13200D01*
G01*
G37*
G36*
G01*
X175535049Y-7197441D02*
X176694160Y-6886858D01*
G75*
G02*
X176756622Y-6922920I13200J-49262D01*
G01*
X176989559Y-7792253D01*
G75*
G02*
X176953497Y-7854715I-49262J-13200D01*
G01*
X175794386Y-8165298D01*
G75*
G02*
X175731924Y-8129236I-13200J49262D01*
G01*
X175498987Y-7259903D01*
G75*
G02*
X175535049Y-7197441I49262J13200D01*
G01*
G37*
G36*
G01*
X174680947Y-4009885D02*
X175840058Y-3699302D01*
G75*
G02*
X175902520Y-3735364I13200J-49262D01*
G01*
X176135457Y-4604697D01*
G75*
G02*
X176099395Y-4667159I-49262J-13200D01*
G01*
X174940284Y-4977742D01*
G75*
G02*
X174877822Y-4941680I-13200J49262D01*
G01*
X174644885Y-4072347D01*
G75*
G02*
X174680947Y-4009885I49262J13200D01*
G01*
G37*
G36*
G01*
X196565535Y-12080744D02*
X197724646Y-11770161D01*
G75*
G02*
X197787108Y-11806223I13200J-49262D01*
G01*
X198020045Y-12675556D01*
G75*
G02*
X197983983Y-12738018I-49262J-13200D01*
G01*
X196824872Y-13048601D01*
G75*
G02*
X196762410Y-13012539I-13200J49262D01*
G01*
X196529473Y-12143206D01*
G75*
G02*
X196565535Y-12080744I49262J13200D01*
G01*
G37*
G36*
G01*
X195711433Y-8893188D02*
X196870544Y-8582605D01*
G75*
G02*
X196933006Y-8618667I13200J-49262D01*
G01*
X197165943Y-9488000D01*
G75*
G02*
X197129881Y-9550462I-49262J-13200D01*
G01*
X195970770Y-9861045D01*
G75*
G02*
X195908308Y-9824983I-13200J49262D01*
G01*
X195675371Y-8955650D01*
G75*
G02*
X195711433Y-8893188I49262J13200D01*
G01*
G37*
G36*
G01*
X125920293Y-42843285D02*
X127079404Y-42532702D01*
G75*
G02*
X127141866Y-42568764I13200J-49262D01*
G01*
X127374803Y-43438097D01*
G75*
G02*
X127338741Y-43500559I-49262J-13200D01*
G01*
X126179630Y-43811142D01*
G75*
G02*
X126117168Y-43775080I-13200J49262D01*
G01*
X125884231Y-42905747D01*
G75*
G02*
X125920293Y-42843285I49262J13200D01*
G01*
G37*
G36*
G01*
X125066191Y-39655729D02*
X126225302Y-39345146D01*
G75*
G02*
X126287764Y-39381208I13200J-49262D01*
G01*
X126520701Y-40250541D01*
G75*
G02*
X126484639Y-40313003I-49262J-13200D01*
G01*
X125325528Y-40623586D01*
G75*
G02*
X125263066Y-40587524I-13200J49262D01*
G01*
X125030129Y-39718191D01*
G75*
G02*
X125066191Y-39655729I49262J13200D01*
G01*
G37*
G36*
G01*
X142809677Y-32271775D02*
X143968788Y-31961192D01*
G75*
G02*
X144031250Y-31997254I13200J-49262D01*
G01*
X144264187Y-32866587D01*
G75*
G02*
X144228125Y-32929049I-49262J-13200D01*
G01*
X143069014Y-33239632D01*
G75*
G02*
X143006552Y-33203570I-13200J49262D01*
G01*
X142773615Y-32334237D01*
G75*
G02*
X142809677Y-32271775I49262J13200D01*
G01*
G37*
G36*
G01*
X143663779Y-35459331D02*
X144822890Y-35148748D01*
G75*
G02*
X144885352Y-35184810I13200J-49262D01*
G01*
X145118289Y-36054143D01*
G75*
G02*
X145082227Y-36116605I-49262J-13200D01*
G01*
X143923116Y-36427188D01*
G75*
G02*
X143860654Y-36391126I-13200J49262D01*
G01*
X143627717Y-35521793D01*
G75*
G02*
X143663779Y-35459331I49262J13200D01*
G01*
G37*
G36*
G01*
X160749864Y-25621926D02*
X161908975Y-25311343D01*
G75*
G02*
X161971437Y-25347405I13200J-49262D01*
G01*
X162204374Y-26216738D01*
G75*
G02*
X162168312Y-26279200I-49262J-13200D01*
G01*
X161009201Y-26589783D01*
G75*
G02*
X160946739Y-26553721I-13200J49262D01*
G01*
X160713802Y-25684388D01*
G75*
G02*
X160749864Y-25621926I49262J13200D01*
G01*
G37*
G36*
G01*
X159895762Y-22434370D02*
X161054873Y-22123787D01*
G75*
G02*
X161117335Y-22159849I13200J-49262D01*
G01*
X161350272Y-23029182D01*
G75*
G02*
X161314210Y-23091644I-49262J-13200D01*
G01*
X160155099Y-23402227D01*
G75*
G02*
X160092637Y-23366165I-13200J49262D01*
G01*
X159859700Y-22496832D01*
G75*
G02*
X159895762Y-22434370I49262J13200D01*
G01*
G37*
G36*
G01*
X179611449Y-22410771D02*
X180770560Y-22100188D01*
G75*
G02*
X180833022Y-22136250I13200J-49262D01*
G01*
X181065959Y-23005583D01*
G75*
G02*
X181029897Y-23068045I-49262J-13200D01*
G01*
X179870786Y-23378628D01*
G75*
G02*
X179808324Y-23342566I-13200J49262D01*
G01*
X179575387Y-22473233D01*
G75*
G02*
X179611449Y-22410771I49262J13200D01*
G01*
G37*
G36*
G01*
X180465551Y-25598327D02*
X181624662Y-25287744D01*
G75*
G02*
X181687124Y-25323806I13200J-49262D01*
G01*
X181920061Y-26193139D01*
G75*
G02*
X181883999Y-26255601I-49262J-13200D01*
G01*
X180724888Y-26566184D01*
G75*
G02*
X180662426Y-26530122I-13200J49262D01*
G01*
X180429489Y-25660789D01*
G75*
G02*
X180465551Y-25598327I49262J13200D01*
G01*
G37*
G36*
G01*
X200641935Y-27294074D02*
X201801046Y-26983491D01*
G75*
G02*
X201863508Y-27019553I13200J-49262D01*
G01*
X202096445Y-27888886D01*
G75*
G02*
X202060383Y-27951348I-49262J-13200D01*
G01*
X200901272Y-28261931D01*
G75*
G02*
X200838810Y-28225869I-13200J49262D01*
G01*
X200605873Y-27356536D01*
G75*
G02*
X200641935Y-27294074I49262J13200D01*
G01*
G37*
G36*
G01*
X201496037Y-30481630D02*
X202655148Y-30171047D01*
G75*
G02*
X202717610Y-30207109I13200J-49262D01*
G01*
X202950547Y-31076442D01*
G75*
G02*
X202914485Y-31138904I-49262J-13200D01*
G01*
X201755374Y-31449487D01*
G75*
G02*
X201692912Y-31413425I-13200J49262D01*
G01*
X201459975Y-30544092D01*
G75*
G02*
X201496037Y-30481630I49262J13200D01*
G01*
G37*
G36*
G01*
X32147983Y-61526356D02*
X33307094Y-61836939D01*
G75*
G02*
X33343156Y-61899401I-13200J-49262D01*
G01*
X33110219Y-62768734D01*
G75*
G02*
X33047757Y-62804796I-49262J13200D01*
G01*
X31888646Y-62494213D01*
G75*
G02*
X31852584Y-62431751I13200J49262D01*
G01*
X32085521Y-61562418D01*
G75*
G02*
X32147983Y-61526356I49262J-13200D01*
G01*
G37*
G36*
G01*
X33002085Y-58338800D02*
X34161196Y-58649383D01*
G75*
G02*
X34197258Y-58711845I-13200J-49262D01*
G01*
X33964321Y-59581178D01*
G75*
G02*
X33901859Y-59617240I-49262J13200D01*
G01*
X32742748Y-59306657D01*
G75*
G02*
X32706686Y-59244195I13200J49262D01*
G01*
X32939623Y-58374862D01*
G75*
G02*
X33002085Y-58338800I49262J-13200D01*
G01*
G37*
G36*
G01*
X53573168Y-68205584D02*
X54660737Y-68712725D01*
G75*
G02*
X54685405Y-68780501I-21554J-46222D01*
G01*
X54305048Y-69596178D01*
G75*
G02*
X54237272Y-69620846I-46222J21554D01*
G01*
X53149703Y-69113705D01*
G75*
G02*
X53125035Y-69045929I21554J46222D01*
G01*
X53505392Y-68230252D01*
G75*
G02*
X53573168Y-68205584I46222J-21554D01*
G01*
G37*
G36*
G01*
X54967808Y-65214768D02*
X56055377Y-65721909D01*
G75*
G02*
X56080045Y-65789685I-21554J-46222D01*
G01*
X55699688Y-66605362D01*
G75*
G02*
X55631912Y-66630030I-46222J21554D01*
G01*
X54544343Y-66122889D01*
G75*
G02*
X54519675Y-66055113I21554J46222D01*
G01*
X54900032Y-65239436D01*
G75*
G02*
X54967808Y-65214768I46222J-21554D01*
G01*
G37*
G36*
G01*
X75347571Y-75189137D02*
X76330554Y-75877428D01*
G75*
G02*
X76343079Y-75948457I-29252J-41777D01*
G01*
X75826860Y-76685694D01*
G75*
G02*
X75755831Y-76698219I-41777J29252D01*
G01*
X74772848Y-76009928D01*
G75*
G02*
X74760323Y-75938899I29252J41777D01*
G01*
X75276542Y-75201662D01*
G75*
G02*
X75347571Y-75189137I41777J-29252D01*
G01*
G37*
G36*
G01*
X73454769Y-77892339D02*
X74437752Y-78580630D01*
G75*
G02*
X74450277Y-78651659I-29252J-41777D01*
G01*
X73934058Y-79388896D01*
G75*
G02*
X73863029Y-79401421I-41777J29252D01*
G01*
X72880046Y-78713130D01*
G75*
G02*
X72867521Y-78642101I29252J41777D01*
G01*
X73383740Y-77904864D01*
G75*
G02*
X73454769Y-77892339I41777J-29252D01*
G01*
G37*
G36*
G01*
X111088746Y-85234149D02*
X112071729Y-84545858D01*
G75*
G02*
X112142758Y-84558383I29252J-41777D01*
G01*
X112658977Y-85295620D01*
G75*
G02*
X112646452Y-85366649I-41777J-29252D01*
G01*
X111663469Y-86054940D01*
G75*
G02*
X111592440Y-86042415I-29252J41777D01*
G01*
X111076221Y-85305178D01*
G75*
G02*
X111088746Y-85234149I41777J29252D01*
G01*
G37*
G36*
G01*
X112981548Y-87937351D02*
X113964531Y-87249060D01*
G75*
G02*
X114035560Y-87261585I29252J-41777D01*
G01*
X114551779Y-87998822D01*
G75*
G02*
X114539254Y-88069851I-41777J-29252D01*
G01*
X113556271Y-88758142D01*
G75*
G02*
X113485242Y-88745617I-29252J41777D01*
G01*
X112969023Y-88008380D01*
G75*
G02*
X112981548Y-87937351I41777J29252D01*
G01*
G37*
G36*
G01*
X131297803Y-75500918D02*
X132385372Y-74993777D01*
G75*
G02*
X132453148Y-75018445I21554J-46222D01*
G01*
X132833505Y-75834122D01*
G75*
G02*
X132808837Y-75901898I-46222J-21554D01*
G01*
X131721268Y-76409039D01*
G75*
G02*
X131653492Y-76384371I-21554J46222D01*
G01*
X131273135Y-75568694D01*
G75*
G02*
X131297803Y-75500918I46222J21554D01*
G01*
G37*
G36*
G01*
X129903163Y-72510102D02*
X130990732Y-72002961D01*
G75*
G02*
X131058508Y-72027629I21554J-46222D01*
G01*
X131438865Y-72843306D01*
G75*
G02*
X131414197Y-72911082I-46222J-21554D01*
G01*
X130326628Y-73418223D01*
G75*
G02*
X130258852Y-73393555I-21554J46222D01*
G01*
X129878495Y-72577878D01*
G75*
G02*
X129903163Y-72510102I46222J21554D01*
G01*
G37*
G36*
G01*
X151047725Y-62123585D02*
X152206836Y-61813002D01*
G75*
G02*
X152269298Y-61849064I13200J-49262D01*
G01*
X152502235Y-62718397D01*
G75*
G02*
X152466173Y-62780859I-49262J-13200D01*
G01*
X151307062Y-63091442D01*
G75*
G02*
X151244600Y-63055380I-13200J49262D01*
G01*
X151011663Y-62186047D01*
G75*
G02*
X151047725Y-62123585I49262J13200D01*
G01*
G37*
G36*
G01*
X151901827Y-65311141D02*
X153060938Y-65000558D01*
G75*
G02*
X153123400Y-65036620I13200J-49262D01*
G01*
X153356337Y-65905953D01*
G75*
G02*
X153320275Y-65968415I-49262J-13200D01*
G01*
X152161164Y-66278998D01*
G75*
G02*
X152098702Y-66242936I-13200J49262D01*
G01*
X151865765Y-65373603D01*
G75*
G02*
X151901827Y-65311141I49262J13200D01*
G01*
G37*
D19*
X119972328Y-34711172D03*
X113068000Y-62014000D03*
X129324000Y-62014000D03*
X129324000Y-62014000D03*
X129324000Y-71158000D03*
X110782000Y-83096000D03*
X77000000Y-74460000D03*
X77000000Y-62014000D03*
X203492000Y-45504000D03*
X188760000Y21219500D03*
X115100000Y21806000D03*
X114084000Y-58966000D03*
X115862000Y-79794000D03*
X135279971Y-59106029D03*
X157518000Y-52870000D03*
X135420000Y-68110000D03*
X157010000Y-59220000D03*
X38900000Y-52362000D03*
X62776000Y-58966000D03*
X83350000Y-58966000D03*
X38900000Y-57950000D03*
X61506000Y-66586000D03*
X81826000Y-77762000D03*
X199428000Y-6134000D03*
X189014000Y-3848000D03*
X193840000Y-22136000D03*
X119672000Y-800000D03*
X125260000Y-18834000D03*
X130340000Y-37122000D03*
X146596000Y21806000D03*
X31788000Y21044000D03*
X19088000Y-52362000D03*
X73698000Y17996000D03*
X49822000Y-52362000D03*
X16548000Y-24676000D03*
X21374000Y-6388000D03*
X26200000Y12154000D03*
X20358000Y-20104000D03*
X25184000Y-1562000D03*
X36614000Y15710000D03*
X196126000Y12154000D03*
X183426000Y14440000D03*
X206032000Y-24422000D03*
X160058000Y-1562000D03*
X151422000Y-13754000D03*
X164122000Y-21120000D03*
X156756000Y-32042000D03*
X72682000Y-38000D03*
X67602000Y-18072000D03*
X58204000Y-16040000D03*
X62268000Y-36614000D03*
X53124000Y-34582000D03*
X63030000Y2248000D03*
X153962000Y14948000D03*
X146596000Y4788000D03*
X12738000Y22060000D03*
X292000Y-53378000D03*
X221272000Y-37884000D03*
X199174000Y22822000D03*
X54842000Y22000000D03*
X36106000Y-53378000D03*
X89640000Y22000000D03*
X72936000Y-59982000D03*
X71920000Y-72174000D03*
X147104000Y-59982000D03*
X147104000Y-66586000D03*
X127546000Y22822000D03*
X165900000Y22822000D03*
X179616000Y-54140000D03*
X131102000Y2502000D03*
X136436000Y-16040000D03*
X141516000Y-35852000D03*
X168186000Y13170000D03*
X177838000Y-22898000D03*
X134404000Y-21120000D03*
X139484000Y-39662000D03*
X172758000Y-3848000D03*
X169456000Y-3848000D03*
X174536000Y-22390000D03*
X210858000Y11138000D03*
X210858000Y-8420000D03*
X214922000Y-27216000D03*
X10960000Y14694000D03*
X12230000Y-1816000D03*
X800000Y-11468000D03*
X-4534000Y-29248000D03*
X2578000Y-19850000D03*
X49060000Y9360000D03*
X44742000Y-10960000D03*
X36360000Y-24930000D03*
X44996000Y-28232000D03*
X41186000Y-6388000D03*
X86398000Y-7404000D03*
X79794000Y-24168000D03*
X75476000Y-42964000D03*
X126530000Y-60236000D03*
X126530000Y-78270000D03*
X55918000Y-59982000D03*
X49060000Y-65570000D03*
X89640000Y9674000D03*
X82842000Y-27470000D03*
X87952001Y-15024000D03*
X89640000Y4220000D03*
X107226000Y-51600000D03*
X96304000Y-57696000D03*
X93002000Y-100876000D03*
X138603716Y-33513128D03*
X138151443Y-31870414D03*
X133388000Y-14976526D03*
X133896000Y-13422526D03*
X108003819Y-52377819D03*
X95526181Y-56918181D03*
X93002000Y-99775997D03*
X-47578Y-22050422D03*
X123578Y-19681578D03*
X3086000Y-4117000D03*
X4822578Y-1774578D03*
X156924422Y-24844422D03*
X156502000Y-22898000D03*
X151590422Y-6048422D03*
X151422000Y-3848000D03*
X108781638Y-53155638D03*
X94748362Y-56140362D03*
X93002000Y-98675994D03*
X18834000Y-19327832D03*
X20104000Y-17773832D03*
X24422000Y232831D03*
X25946000Y1786831D03*
X174790000Y-18087000D03*
X174536000Y-16533000D03*
X169964000Y709000D03*
X169710000Y2263000D03*
X109559457Y-53933457D03*
X93970543Y-55362543D03*
X106972000Y-98590000D03*
X39112578Y-19891422D03*
X39576422Y-18157578D03*
X43557578Y-1730422D03*
X44656422Y-631578D03*
X193036578Y-16533000D03*
X187702578Y709000D03*
X187744000Y2263000D03*
X193078000Y-19088000D03*
X110337276Y-54711276D03*
X93192724Y-54584724D03*
X106972000Y-99690003D03*
X57908578Y-30051422D03*
X57991422Y-27936578D03*
X60575578Y-11128422D03*
X61293422Y-9648578D03*
X111115095Y-55489095D03*
X92414905Y-53806905D03*
X106972000Y-100790006D03*
X77762000Y-35613000D03*
X78016000Y-34059000D03*
X81318000Y-17325000D03*
X82080000Y-15771000D03*
X-3518000Y-2563000D03*
X-2756000Y-4117000D03*
X-9360000Y-19835000D03*
X-8852000Y-21389000D03*
X-3533000Y-30772000D03*
X-1979000Y-30772000D03*
X12992000Y-16817000D03*
X11722000Y-15263000D03*
X20104000Y232831D03*
X18580000Y1786831D03*
X36106000Y2263000D03*
X37376000Y709000D03*
X31534000Y-16025000D03*
X32804000Y-17579000D03*
X34401901Y-29829901D03*
X35852000Y-30772000D03*
X52108000Y-27993000D03*
X50584000Y-26439000D03*
X55410000Y-9197000D03*
X54140000Y-7643000D03*
X73444000Y-15771000D03*
X75222000Y-17325000D03*
X94018000Y-24915000D03*
X94018000Y-21628000D03*
X110528000Y-34582000D03*
X113322000Y-22390000D03*
X93932422Y-15363578D03*
X94018000Y-29502000D03*
X94526000Y-546000D03*
X92240000Y-29756000D03*
X95626003Y-546000D03*
X93017000Y-27724000D03*
X66078000Y-32535000D03*
X67602000Y-34089000D03*
X156147422Y-27978000D03*
X157778133Y-27901289D03*
X161836000Y-27978000D03*
X163868000Y-25438000D03*
X164798422Y-18595000D03*
X163868000Y-15278000D03*
X159995934Y-62976D03*
X159042000Y3010000D03*
X178600000Y2502000D03*
X179616000Y-5372000D03*
X183773485Y-16533000D03*
X184442000Y-23660000D03*
X198624578Y-23447422D03*
X200739422Y-23364578D03*
X204254000Y-24141578D03*
X204254000Y-21374000D03*
X199936000Y-4371000D03*
X199936000Y-2817000D03*
X59388421Y-51939577D03*
X50838000Y-63284000D03*
X151106005Y-47474005D03*
X140768313Y-44810531D03*
X139145782Y-44742000D03*
X171234000Y-62268000D03*
X171234000Y-48044000D03*
X155199949Y-47503949D03*
X130086950Y-35559960D03*
X129578000Y-33551000D03*
X124987455Y-17291455D03*
X125006000Y-15263000D03*
X141770000Y-7897000D03*
X142786000Y-15278000D03*
X146596000Y-25692000D03*
X147612000Y-33820000D03*
X108750000Y9614000D03*
X102654000Y9614000D03*
X98082000Y12662000D03*
X103670000Y10391000D03*
X103416000Y20028000D03*
X109844500Y15202000D03*
X102654000Y15202000D03*
X101384000Y19266000D03*
X99352000Y19266000D03*
X100876000Y15202000D03*
X107734000Y16012500D03*
D20*
G36*
X93236538Y-100217434D02*
G01*
X93237303Y-100219282D01*
X93236431Y-100220684D01*
X93231956Y-100223674D01*
X93213241Y-100239033D01*
X93197946Y-100257670D01*
X93186581Y-100278933D01*
X93179581Y-100302008D01*
X93177218Y-100325999D01*
X93179581Y-100349990D01*
X93186581Y-100373065D01*
X93197946Y-100394329D01*
X93213242Y-100412966D01*
X93231957Y-100428324D01*
X93236430Y-100431313D01*
X93237315Y-100433107D01*
X93236204Y-100434770D01*
X93234554Y-100434824D01*
X93146851Y-100398497D01*
X93050908Y-100379412D01*
X92953092Y-100379412D01*
X92857149Y-100398497D01*
X92769446Y-100434824D01*
X92767463Y-100434563D01*
X92766698Y-100432715D01*
X92767570Y-100431313D01*
X92772043Y-100428324D01*
X92790758Y-100412966D01*
X92806054Y-100394329D01*
X92817419Y-100373066D01*
X92824419Y-100349991D01*
X92826782Y-100325999D01*
X92824419Y-100302008D01*
X92817419Y-100278933D01*
X92806054Y-100257670D01*
X92790759Y-100239033D01*
X92772044Y-100223674D01*
X92767569Y-100220684D01*
X92766684Y-100218890D01*
X92767795Y-100217227D01*
X92769445Y-100217173D01*
X92857149Y-100253500D01*
X92953092Y-100272585D01*
X93050908Y-100272585D01*
X93146851Y-100253500D01*
X93234555Y-100217173D01*
X93236538Y-100217434D01*
G37*
G36*
X107206538Y-100131440D02*
G01*
X107207303Y-100133288D01*
X107206431Y-100134690D01*
X107201956Y-100137680D01*
X107183241Y-100153039D01*
X107167946Y-100171676D01*
X107156581Y-100192939D01*
X107149581Y-100216014D01*
X107147218Y-100240005D01*
X107149581Y-100263996D01*
X107156581Y-100287071D01*
X107167946Y-100308335D01*
X107183242Y-100326972D01*
X107201957Y-100342330D01*
X107206430Y-100345319D01*
X107207315Y-100347113D01*
X107206204Y-100348776D01*
X107204554Y-100348830D01*
X107116851Y-100312503D01*
X107020908Y-100293418D01*
X106923092Y-100293418D01*
X106827149Y-100312503D01*
X106739446Y-100348830D01*
X106737463Y-100348569D01*
X106736698Y-100346721D01*
X106737570Y-100345319D01*
X106742043Y-100342330D01*
X106760758Y-100326972D01*
X106776054Y-100308335D01*
X106787419Y-100287072D01*
X106794419Y-100263997D01*
X106796782Y-100240005D01*
X106794419Y-100216014D01*
X106787419Y-100192939D01*
X106776054Y-100171676D01*
X106760759Y-100153039D01*
X106742044Y-100137680D01*
X106737569Y-100134690D01*
X106736684Y-100132896D01*
X106737795Y-100131233D01*
X106739445Y-100131179D01*
X106827149Y-100167506D01*
X106923092Y-100186591D01*
X107020908Y-100186591D01*
X107116851Y-100167506D01*
X107204555Y-100131179D01*
X107206538Y-100131440D01*
G37*
G36*
X93236538Y-99117431D02*
G01*
X93237303Y-99119279D01*
X93236431Y-99120681D01*
X93231956Y-99123671D01*
X93213241Y-99139030D01*
X93197946Y-99157667D01*
X93186581Y-99178930D01*
X93179581Y-99202005D01*
X93177218Y-99225996D01*
X93179581Y-99249987D01*
X93186581Y-99273062D01*
X93197946Y-99294326D01*
X93213242Y-99312963D01*
X93231957Y-99328321D01*
X93236430Y-99331310D01*
X93237315Y-99333104D01*
X93236204Y-99334767D01*
X93234554Y-99334821D01*
X93146851Y-99298494D01*
X93050908Y-99279409D01*
X92953092Y-99279409D01*
X92857149Y-99298494D01*
X92769446Y-99334821D01*
X92767463Y-99334560D01*
X92766698Y-99332712D01*
X92767570Y-99331310D01*
X92772043Y-99328321D01*
X92790758Y-99312963D01*
X92806054Y-99294326D01*
X92817419Y-99273063D01*
X92824419Y-99249988D01*
X92826782Y-99225996D01*
X92824419Y-99202005D01*
X92817419Y-99178930D01*
X92806054Y-99157667D01*
X92790759Y-99139030D01*
X92772044Y-99123671D01*
X92767569Y-99120681D01*
X92766684Y-99118887D01*
X92767795Y-99117224D01*
X92769445Y-99117170D01*
X92857149Y-99153497D01*
X92953092Y-99172582D01*
X93050908Y-99172582D01*
X93146851Y-99153497D01*
X93234555Y-99117170D01*
X93236538Y-99117431D01*
G37*
G36*
X107206538Y-99031437D02*
G01*
X107207303Y-99033285D01*
X107206431Y-99034687D01*
X107201956Y-99037677D01*
X107183241Y-99053036D01*
X107167946Y-99071673D01*
X107156581Y-99092936D01*
X107149581Y-99116011D01*
X107147218Y-99140002D01*
X107149581Y-99163993D01*
X107156581Y-99187068D01*
X107167946Y-99208332D01*
X107183242Y-99226969D01*
X107201957Y-99242327D01*
X107206430Y-99245316D01*
X107207315Y-99247110D01*
X107206204Y-99248773D01*
X107204554Y-99248827D01*
X107116851Y-99212500D01*
X107020908Y-99193415D01*
X106923092Y-99193415D01*
X106827149Y-99212500D01*
X106739446Y-99248827D01*
X106737463Y-99248566D01*
X106736698Y-99246718D01*
X106737570Y-99245316D01*
X106742043Y-99242327D01*
X106760758Y-99226969D01*
X106776054Y-99208332D01*
X106787419Y-99187069D01*
X106794419Y-99163994D01*
X106796782Y-99140002D01*
X106794419Y-99116011D01*
X106787419Y-99092936D01*
X106776054Y-99071673D01*
X106760759Y-99053036D01*
X106742044Y-99037677D01*
X106737569Y-99034687D01*
X106736684Y-99032893D01*
X106737795Y-99031230D01*
X106739445Y-99031176D01*
X106827149Y-99067503D01*
X106923092Y-99086588D01*
X107020908Y-99086588D01*
X107116851Y-99067503D01*
X107204555Y-99031176D01*
X107206538Y-99031437D01*
G37*
G36*
X115527490Y-92699245D02*
G01*
X117076146Y-94910956D01*
X118596979Y-93846058D01*
X118598971Y-93845883D01*
X118600118Y-93847522D01*
X118599273Y-93849334D01*
X117076803Y-94915380D01*
X117074811Y-94915555D01*
X117074018Y-94914889D01*
X115524213Y-92701540D01*
X115524437Y-92698979D01*
X115524438Y-92698978D01*
X115526370Y-92698460D01*
X115527490Y-92699245D01*
G37*
G36*
X80349286Y-91632932D02*
G01*
X80349287Y-91632933D01*
X80349511Y-91635494D01*
X79138438Y-93365084D01*
X79138437Y-93365085D01*
X78799706Y-93848843D01*
X78797894Y-93849688D01*
X78796921Y-93849334D01*
X77158404Y-92702031D01*
X77157559Y-92700219D01*
X77158706Y-92698580D01*
X77160698Y-92698755D01*
X78797578Y-93844910D01*
X79135161Y-93362791D01*
X79135162Y-93362792D01*
X79135162Y-93362790D01*
X80346234Y-91633199D01*
X80348046Y-91632354D01*
X80349286Y-91632932D01*
G37*
G36*
X78027498Y-90239135D02*
G01*
X78027323Y-90241127D01*
X76586358Y-92299039D01*
X76584546Y-92299884D01*
X76583306Y-92299306D01*
X76583305Y-92299305D01*
X76583081Y-92296744D01*
X78024047Y-90238833D01*
X78025859Y-90237988D01*
X78027498Y-90239135D01*
G37*
G36*
X114007945Y-87218660D02*
G01*
X114255603Y-87572353D01*
X114468620Y-87876572D01*
X114530858Y-87965457D01*
X114582669Y-88039451D01*
X114582178Y-88042236D01*
X113515642Y-88789033D01*
X113513650Y-88789208D01*
X113512857Y-88788542D01*
X113340515Y-88542412D01*
X112989944Y-88041745D01*
X112938133Y-87967751D01*
X112938076Y-87967095D01*
X112942556Y-87967095D01*
X112993220Y-88039451D01*
X113343791Y-88540118D01*
X113514986Y-88784609D01*
X114578246Y-88040107D01*
X114527582Y-87967751D01*
X114465344Y-87878866D01*
X114252327Y-87574647D01*
X114005816Y-87222593D01*
X113183713Y-87798235D01*
X113067859Y-87879357D01*
X112942556Y-87967095D01*
X112938076Y-87967095D01*
X112937958Y-87965759D01*
X112938624Y-87964966D01*
X113065565Y-87876081D01*
X113181419Y-87794959D01*
X114005160Y-87218169D01*
X114007152Y-87217994D01*
X114007945Y-87218660D01*
G37*
G36*
X112115143Y-84515458D02*
G01*
X112638056Y-85262255D01*
X112689867Y-85336249D01*
X112689376Y-85339034D01*
X112570330Y-85422391D01*
X111622840Y-86085831D01*
X111620848Y-86086006D01*
X111620055Y-86085340D01*
X111155510Y-85421901D01*
X111155509Y-85421900D01*
X111097142Y-85338543D01*
X111045331Y-85264549D01*
X111045446Y-85263893D01*
X111049754Y-85263893D01*
X111100418Y-85336249D01*
X111158784Y-85419605D01*
X111158786Y-85419607D01*
X111622184Y-86081407D01*
X112568036Y-85419115D01*
X112685444Y-85336905D01*
X112634780Y-85264549D01*
X112113014Y-84519391D01*
X111049754Y-85263893D01*
X111045446Y-85263893D01*
X111045822Y-85261764D01*
X112112358Y-84514967D01*
X112114350Y-84514792D01*
X112115143Y-84515458D01*
G37*
G36*
X73414140Y-77861448D02*
G01*
X74169911Y-78390645D01*
X74480676Y-78608245D01*
X74481167Y-78611030D01*
X74429356Y-78685024D01*
X73909808Y-79427015D01*
X73906443Y-79431821D01*
X73904631Y-79432666D01*
X73903658Y-79432312D01*
X72837122Y-78685515D01*
X72836747Y-78683386D01*
X72841054Y-78683386D01*
X73904314Y-79427888D01*
X73906532Y-79424721D01*
X74426080Y-78682730D01*
X74476744Y-78610374D01*
X74167617Y-78393921D01*
X73413484Y-77865872D01*
X72891718Y-78611030D01*
X72841054Y-78683386D01*
X72836747Y-78683386D01*
X72836631Y-78682730D01*
X72888442Y-78608736D01*
X73411355Y-77861939D01*
X73413167Y-77861094D01*
X73414140Y-77861448D01*
G37*
G36*
X75306942Y-75158246D02*
G01*
X76373478Y-75905043D01*
X76373969Y-75907828D01*
X76322158Y-75981822D01*
X75799245Y-76728619D01*
X75797433Y-76729464D01*
X75796460Y-76729110D01*
X74729924Y-75982313D01*
X74729549Y-75980184D01*
X74733856Y-75980184D01*
X75797116Y-76724686D01*
X76318882Y-75979528D01*
X76369546Y-75907172D01*
X75306286Y-75162670D01*
X74784520Y-75907828D01*
X74733856Y-75980184D01*
X74729549Y-75980184D01*
X74729433Y-75979528D01*
X74781244Y-75905534D01*
X75304157Y-75158737D01*
X75305969Y-75157892D01*
X75306942Y-75158246D01*
G37*
G36*
X96006016Y-57065243D02*
G01*
X96006391Y-57066851D01*
X96005339Y-57072140D01*
X96002966Y-57096225D01*
X96005329Y-57120216D01*
X96012329Y-57143291D01*
X96023694Y-57164555D01*
X96038989Y-57183192D01*
X96057626Y-57198487D01*
X96078890Y-57209852D01*
X96101965Y-57216852D01*
X96125956Y-57219215D01*
X96150041Y-57216842D01*
X96155330Y-57215790D01*
X96157224Y-57216433D01*
X96157614Y-57218395D01*
X96156485Y-57219600D01*
X96068777Y-57255930D01*
X95987443Y-57310276D01*
X95918276Y-57379443D01*
X95863930Y-57460777D01*
X95827600Y-57548485D01*
X95826013Y-57549703D01*
X95824165Y-57548938D01*
X95823790Y-57547330D01*
X95824842Y-57542041D01*
X95827215Y-57517956D01*
X95824852Y-57493965D01*
X95817852Y-57470890D01*
X95806487Y-57449626D01*
X95791192Y-57430989D01*
X95772555Y-57415694D01*
X95751291Y-57404329D01*
X95728216Y-57397329D01*
X95704225Y-57394966D01*
X95680140Y-57397339D01*
X95674851Y-57398391D01*
X95672957Y-57397748D01*
X95672567Y-57395786D01*
X95673696Y-57394581D01*
X95761404Y-57358251D01*
X95842738Y-57303905D01*
X95911905Y-57234738D01*
X95966251Y-57153404D01*
X96002581Y-57065696D01*
X96004168Y-57064478D01*
X96006016Y-57065243D01*
G37*
G36*
X95228197Y-56287424D02*
G01*
X95228572Y-56289032D01*
X95227520Y-56294321D01*
X95225147Y-56318406D01*
X95227510Y-56342397D01*
X95234510Y-56365472D01*
X95245875Y-56386736D01*
X95261170Y-56405373D01*
X95279807Y-56420668D01*
X95301071Y-56432033D01*
X95324146Y-56439033D01*
X95348137Y-56441396D01*
X95372222Y-56439023D01*
X95377511Y-56437971D01*
X95379405Y-56438614D01*
X95379795Y-56440576D01*
X95378666Y-56441781D01*
X95290958Y-56478111D01*
X95209624Y-56532457D01*
X95140457Y-56601624D01*
X95086111Y-56682958D01*
X95049781Y-56770666D01*
X95048194Y-56771884D01*
X95046346Y-56771119D01*
X95045971Y-56769511D01*
X95047023Y-56764222D01*
X95049396Y-56740137D01*
X95047033Y-56716146D01*
X95040033Y-56693071D01*
X95028668Y-56671807D01*
X95013373Y-56653170D01*
X94994736Y-56637875D01*
X94973472Y-56626510D01*
X94950397Y-56619510D01*
X94926406Y-56617147D01*
X94902321Y-56619520D01*
X94897032Y-56620572D01*
X94895138Y-56619929D01*
X94894748Y-56617967D01*
X94895877Y-56616762D01*
X94983585Y-56580432D01*
X95064919Y-56526086D01*
X95134086Y-56456919D01*
X95188432Y-56375585D01*
X95224762Y-56287877D01*
X95226349Y-56286659D01*
X95228197Y-56287424D01*
G37*
G36*
X94450378Y-55509605D02*
G01*
X94450753Y-55511213D01*
X94449701Y-55516502D01*
X94447328Y-55540587D01*
X94449691Y-55564578D01*
X94456691Y-55587653D01*
X94468056Y-55608917D01*
X94483351Y-55627554D01*
X94501988Y-55642849D01*
X94523252Y-55654214D01*
X94546327Y-55661214D01*
X94570318Y-55663577D01*
X94594403Y-55661204D01*
X94599692Y-55660152D01*
X94601586Y-55660795D01*
X94601976Y-55662757D01*
X94600847Y-55663962D01*
X94513139Y-55700292D01*
X94431805Y-55754638D01*
X94362638Y-55823805D01*
X94308292Y-55905139D01*
X94271962Y-55992847D01*
X94270375Y-55994065D01*
X94268527Y-55993300D01*
X94268152Y-55991692D01*
X94269204Y-55986403D01*
X94271577Y-55962318D01*
X94269214Y-55938327D01*
X94262214Y-55915252D01*
X94250849Y-55893988D01*
X94235554Y-55875351D01*
X94216917Y-55860056D01*
X94195653Y-55848691D01*
X94172578Y-55841691D01*
X94148587Y-55839328D01*
X94124502Y-55841701D01*
X94119213Y-55842753D01*
X94117319Y-55842110D01*
X94116929Y-55840148D01*
X94118058Y-55838943D01*
X94205766Y-55802613D01*
X94287100Y-55748267D01*
X94356267Y-55679100D01*
X94410613Y-55597766D01*
X94446943Y-55510058D01*
X94448530Y-55508840D01*
X94450378Y-55509605D01*
G37*
G36*
X110817111Y-54858338D02*
G01*
X110817486Y-54859946D01*
X110816434Y-54865235D01*
X110814061Y-54889320D01*
X110816424Y-54913311D01*
X110823424Y-54936386D01*
X110834789Y-54957650D01*
X110850084Y-54976287D01*
X110868721Y-54991582D01*
X110889985Y-55002947D01*
X110913060Y-55009947D01*
X110937051Y-55012310D01*
X110961136Y-55009937D01*
X110966425Y-55008885D01*
X110968319Y-55009528D01*
X110968709Y-55011490D01*
X110967580Y-55012695D01*
X110879872Y-55049025D01*
X110798538Y-55103371D01*
X110729371Y-55172538D01*
X110675025Y-55253872D01*
X110638695Y-55341580D01*
X110637108Y-55342798D01*
X110635260Y-55342033D01*
X110634885Y-55340425D01*
X110635937Y-55335136D01*
X110638310Y-55311051D01*
X110635947Y-55287060D01*
X110628947Y-55263985D01*
X110617582Y-55242721D01*
X110602287Y-55224084D01*
X110583650Y-55208789D01*
X110562386Y-55197424D01*
X110539311Y-55190424D01*
X110515320Y-55188061D01*
X110491235Y-55190434D01*
X110485946Y-55191486D01*
X110484052Y-55190843D01*
X110483662Y-55188881D01*
X110484791Y-55187676D01*
X110572499Y-55151346D01*
X110653833Y-55097000D01*
X110723000Y-55027833D01*
X110777346Y-54946499D01*
X110813676Y-54858791D01*
X110815263Y-54857573D01*
X110817111Y-54858338D01*
G37*
G36*
X93672559Y-54731786D02*
G01*
X93672934Y-54733394D01*
X93671882Y-54738683D01*
X93669509Y-54762768D01*
X93671872Y-54786759D01*
X93678872Y-54809834D01*
X93690237Y-54831098D01*
X93705532Y-54849735D01*
X93724169Y-54865030D01*
X93745433Y-54876395D01*
X93768508Y-54883395D01*
X93792499Y-54885758D01*
X93816584Y-54883385D01*
X93821873Y-54882333D01*
X93823767Y-54882976D01*
X93824157Y-54884938D01*
X93823028Y-54886143D01*
X93735320Y-54922473D01*
X93653986Y-54976819D01*
X93584819Y-55045986D01*
X93530473Y-55127320D01*
X93494143Y-55215028D01*
X93492556Y-55216246D01*
X93490708Y-55215481D01*
X93490333Y-55213873D01*
X93491385Y-55208584D01*
X93493758Y-55184499D01*
X93491395Y-55160508D01*
X93484395Y-55137433D01*
X93473030Y-55116169D01*
X93457735Y-55097532D01*
X93439098Y-55082237D01*
X93417834Y-55070872D01*
X93394759Y-55063872D01*
X93370768Y-55061509D01*
X93346683Y-55063882D01*
X93341394Y-55064934D01*
X93339500Y-55064291D01*
X93339110Y-55062329D01*
X93340239Y-55061124D01*
X93427947Y-55024794D01*
X93509281Y-54970448D01*
X93578448Y-54901281D01*
X93632794Y-54819947D01*
X93669124Y-54732239D01*
X93670711Y-54731021D01*
X93672559Y-54731786D01*
G37*
G36*
X110039292Y-54080519D02*
G01*
X110039667Y-54082127D01*
X110038615Y-54087416D01*
X110036242Y-54111501D01*
X110038605Y-54135492D01*
X110045605Y-54158567D01*
X110056970Y-54179831D01*
X110072265Y-54198468D01*
X110090902Y-54213763D01*
X110112166Y-54225128D01*
X110135241Y-54232128D01*
X110159232Y-54234491D01*
X110183317Y-54232118D01*
X110188606Y-54231066D01*
X110190500Y-54231709D01*
X110190890Y-54233671D01*
X110189761Y-54234876D01*
X110102053Y-54271206D01*
X110020719Y-54325552D01*
X109951552Y-54394719D01*
X109897206Y-54476053D01*
X109860876Y-54563761D01*
X109859289Y-54564979D01*
X109857441Y-54564214D01*
X109857066Y-54562606D01*
X109858118Y-54557317D01*
X109860491Y-54533232D01*
X109858128Y-54509241D01*
X109851128Y-54486166D01*
X109839763Y-54464902D01*
X109824468Y-54446265D01*
X109805831Y-54430970D01*
X109784567Y-54419605D01*
X109761492Y-54412605D01*
X109737501Y-54410242D01*
X109713416Y-54412615D01*
X109708127Y-54413667D01*
X109706233Y-54413024D01*
X109705843Y-54411062D01*
X109706972Y-54409857D01*
X109794680Y-54373527D01*
X109876014Y-54319181D01*
X109945181Y-54250014D01*
X109999527Y-54168680D01*
X110035857Y-54080972D01*
X110037444Y-54079754D01*
X110039292Y-54080519D01*
G37*
G36*
X92894740Y-53953967D02*
G01*
X92895115Y-53955575D01*
X92894063Y-53960864D01*
X92891690Y-53984949D01*
X92894053Y-54008940D01*
X92901053Y-54032015D01*
X92912418Y-54053279D01*
X92927713Y-54071916D01*
X92946350Y-54087211D01*
X92967614Y-54098576D01*
X92990689Y-54105576D01*
X93014680Y-54107939D01*
X93038765Y-54105566D01*
X93044054Y-54104514D01*
X93045948Y-54105157D01*
X93046338Y-54107119D01*
X93045209Y-54108324D01*
X92957501Y-54144654D01*
X92876167Y-54199000D01*
X92807000Y-54268167D01*
X92752654Y-54349501D01*
X92716324Y-54437209D01*
X92714737Y-54438427D01*
X92712889Y-54437662D01*
X92712514Y-54436054D01*
X92713566Y-54430765D01*
X92715939Y-54406680D01*
X92713576Y-54382689D01*
X92706576Y-54359614D01*
X92695211Y-54338350D01*
X92679916Y-54319713D01*
X92661279Y-54304418D01*
X92640015Y-54293053D01*
X92616940Y-54286053D01*
X92592949Y-54283690D01*
X92568864Y-54286063D01*
X92563575Y-54287115D01*
X92561681Y-54286472D01*
X92561291Y-54284510D01*
X92562420Y-54283305D01*
X92650128Y-54246975D01*
X92731462Y-54192629D01*
X92800629Y-54123462D01*
X92854975Y-54042128D01*
X92891305Y-53954420D01*
X92892892Y-53953202D01*
X92894740Y-53953967D01*
G37*
G36*
X109261473Y-53302700D02*
G01*
X109261848Y-53304308D01*
X109260796Y-53309597D01*
X109258423Y-53333682D01*
X109260786Y-53357673D01*
X109267786Y-53380748D01*
X109279151Y-53402012D01*
X109294446Y-53420649D01*
X109313083Y-53435944D01*
X109334347Y-53447309D01*
X109357422Y-53454309D01*
X109381413Y-53456672D01*
X109405498Y-53454299D01*
X109410787Y-53453247D01*
X109412681Y-53453890D01*
X109413071Y-53455852D01*
X109411942Y-53457057D01*
X109324234Y-53493387D01*
X109242900Y-53547733D01*
X109173733Y-53616900D01*
X109119387Y-53698234D01*
X109083057Y-53785942D01*
X109081470Y-53787160D01*
X109079622Y-53786395D01*
X109079247Y-53784787D01*
X109080299Y-53779498D01*
X109082672Y-53755413D01*
X109080309Y-53731422D01*
X109073309Y-53708347D01*
X109061944Y-53687083D01*
X109046649Y-53668446D01*
X109028012Y-53653151D01*
X109006748Y-53641786D01*
X108983673Y-53634786D01*
X108959682Y-53632423D01*
X108935597Y-53634796D01*
X108930308Y-53635848D01*
X108928414Y-53635205D01*
X108928024Y-53633243D01*
X108929153Y-53632038D01*
X109016861Y-53595708D01*
X109098195Y-53541362D01*
X109167362Y-53472195D01*
X109221708Y-53390861D01*
X109258038Y-53303153D01*
X109259625Y-53301935D01*
X109261473Y-53302700D01*
G37*
G36*
X108483654Y-52524881D02*
G01*
X108484029Y-52526489D01*
X108482977Y-52531778D01*
X108480604Y-52555863D01*
X108482967Y-52579854D01*
X108489967Y-52602929D01*
X108501332Y-52624193D01*
X108516627Y-52642830D01*
X108535264Y-52658125D01*
X108556528Y-52669490D01*
X108579603Y-52676490D01*
X108603594Y-52678853D01*
X108627679Y-52676480D01*
X108632968Y-52675428D01*
X108634862Y-52676071D01*
X108635252Y-52678033D01*
X108634123Y-52679238D01*
X108546415Y-52715568D01*
X108465081Y-52769914D01*
X108395914Y-52839081D01*
X108341568Y-52920415D01*
X108305238Y-53008123D01*
X108303651Y-53009341D01*
X108301803Y-53008576D01*
X108301428Y-53006968D01*
X108302480Y-53001679D01*
X108304853Y-52977594D01*
X108302490Y-52953603D01*
X108295490Y-52930528D01*
X108284125Y-52909264D01*
X108268830Y-52890627D01*
X108250193Y-52875332D01*
X108228929Y-52863967D01*
X108205854Y-52856967D01*
X108181863Y-52854604D01*
X108157778Y-52856977D01*
X108152489Y-52858029D01*
X108150595Y-52857386D01*
X108150205Y-52855424D01*
X108151334Y-52854219D01*
X108239042Y-52817889D01*
X108320376Y-52763543D01*
X108389543Y-52694376D01*
X108443889Y-52613042D01*
X108480219Y-52525334D01*
X108481806Y-52524116D01*
X108483654Y-52524881D01*
G37*
G36*
X107705835Y-51747062D02*
G01*
X107706210Y-51748670D01*
X107705158Y-51753959D01*
X107702785Y-51778044D01*
X107705148Y-51802035D01*
X107712148Y-51825110D01*
X107723513Y-51846374D01*
X107738808Y-51865011D01*
X107757445Y-51880306D01*
X107778709Y-51891671D01*
X107801784Y-51898671D01*
X107825775Y-51901034D01*
X107849860Y-51898661D01*
X107855149Y-51897609D01*
X107857043Y-51898252D01*
X107857433Y-51900214D01*
X107856304Y-51901419D01*
X107768596Y-51937749D01*
X107687262Y-51992095D01*
X107618095Y-52061262D01*
X107563749Y-52142596D01*
X107527419Y-52230304D01*
X107525832Y-52231522D01*
X107523984Y-52230757D01*
X107523609Y-52229149D01*
X107524661Y-52223860D01*
X107527034Y-52199775D01*
X107524671Y-52175784D01*
X107517671Y-52152709D01*
X107506306Y-52131445D01*
X107491011Y-52112808D01*
X107472374Y-52097513D01*
X107451110Y-52086148D01*
X107428035Y-52079148D01*
X107404044Y-52076785D01*
X107379959Y-52079158D01*
X107374670Y-52080210D01*
X107372776Y-52079567D01*
X107372386Y-52077605D01*
X107373515Y-52076400D01*
X107461223Y-52040070D01*
X107542557Y-51985724D01*
X107611724Y-51916557D01*
X107666070Y-51835223D01*
X107702400Y-51747515D01*
X107703987Y-51746297D01*
X107705835Y-51747062D01*
G37*
G36*
X-3862842Y-31144439D02*
G01*
X-3849557Y-31157724D01*
X-3768223Y-31212070D01*
X-3677851Y-31249503D01*
X-3634412Y-31258144D01*
X-3632908Y-31259463D01*
X-3633298Y-31261425D01*
X-3634998Y-31262096D01*
X-3653076Y-31260315D01*
X-3677068Y-31262678D01*
X-3700143Y-31269678D01*
X-3721406Y-31281043D01*
X-3740043Y-31296338D01*
X-3755339Y-31314975D01*
X-3766704Y-31336238D01*
X-3773704Y-31359313D01*
X-3776067Y-31383304D01*
X-3773704Y-31407296D01*
X-3766704Y-31430371D01*
X-3755339Y-31451634D01*
X-3740044Y-31470271D01*
X-3725998Y-31481798D01*
X-3725294Y-31483670D01*
X-3726563Y-31485216D01*
X-3728378Y-31485007D01*
X-3826752Y-31419276D01*
X-3987069Y-31352871D01*
X-3988287Y-31351284D01*
X-3987522Y-31349436D01*
X-3985914Y-31349061D01*
X-3980623Y-31350113D01*
X-3956538Y-31352486D01*
X-3932547Y-31350123D01*
X-3909472Y-31343123D01*
X-3888208Y-31331758D01*
X-3869571Y-31316462D01*
X-3854276Y-31297825D01*
X-3842911Y-31276562D01*
X-3835911Y-31253487D01*
X-3833548Y-31229496D01*
X-3835911Y-31205505D01*
X-3842911Y-31182430D01*
X-3854276Y-31161166D01*
X-3865802Y-31147122D01*
X-3866128Y-31145148D01*
X-3864582Y-31143880D01*
X-3862842Y-31144439D01*
G37*
G36*
X95184773Y-311796D02*
G01*
X95184827Y-313446D01*
X95148500Y-401149D01*
X95129415Y-497092D01*
X95129415Y-594908D01*
X95148500Y-690851D01*
X95184827Y-778554D01*
X95184566Y-780537D01*
X95182718Y-781302D01*
X95181316Y-780430D01*
X95178327Y-775957D01*
X95162969Y-757242D01*
X95144332Y-741946D01*
X95123069Y-730581D01*
X95099994Y-723581D01*
X95076002Y-721218D01*
X95052011Y-723581D01*
X95028936Y-730581D01*
X95007673Y-741946D01*
X94989036Y-757241D01*
X94973677Y-775956D01*
X94970687Y-780431D01*
X94968893Y-781316D01*
X94967230Y-780205D01*
X94967176Y-778555D01*
X95003503Y-690851D01*
X95022588Y-594908D01*
X95022588Y-497092D01*
X95003503Y-401149D01*
X94967176Y-313445D01*
X94967437Y-311462D01*
X94969285Y-310697D01*
X94970687Y-311569D01*
X94973677Y-316044D01*
X94989036Y-334759D01*
X95007673Y-350054D01*
X95028936Y-361419D01*
X95052011Y-368419D01*
X95076002Y-370782D01*
X95099993Y-368419D01*
X95123068Y-361419D01*
X95144332Y-350054D01*
X95162969Y-334758D01*
X95178327Y-316043D01*
X95181316Y-311570D01*
X95183110Y-310685D01*
X95184773Y-311796D01*
G37*
G36*
X108629732Y11890000D02*
G01*
X108630000Y11889000D01*
X108630000Y10727000D01*
X108629000Y10725268D01*
X108628000Y10725000D01*
X108430000Y10725000D01*
X108428268Y10726000D01*
X108428000Y10727000D01*
X108428000Y11889000D01*
X108429000Y11890732D01*
X108430000Y11891000D01*
X108628000Y11891000D01*
X108629732Y11890000D01*
G37*
G36*
X109579732Y11890000D02*
G01*
X109580000Y11889000D01*
X109580000Y10727000D01*
X109579000Y10725268D01*
X109578000Y10725000D01*
X109380000Y10725000D01*
X109378268Y10726000D01*
X109378000Y10727000D01*
X109378000Y11889000D01*
X109379000Y11890732D01*
X109380000Y11891000D01*
X109578000Y11891000D01*
X109579732Y11890000D01*
G37*
G36*
X109579732Y14090000D02*
G01*
X109580000Y14089000D01*
X109580000Y12927000D01*
X109579000Y12925268D01*
X109578000Y12925000D01*
X109380000Y12925000D01*
X109378268Y12926000D01*
X109378000Y12927000D01*
X109378000Y14089000D01*
X109379000Y14090732D01*
X109380000Y14091000D01*
X109578000Y14091000D01*
X109579732Y14090000D01*
G37*
G36*
X108629732Y14090000D02*
G01*
X108630000Y14089000D01*
X108630000Y12927000D01*
X108629000Y12925268D01*
X108628000Y12925000D01*
X108430000Y12925000D01*
X108428268Y12926000D01*
X108428000Y12927000D01*
X108428000Y14089000D01*
X108429000Y14090732D01*
X108430000Y14091000D01*
X108628000Y14091000D01*
X108629732Y14090000D01*
G37*
G36*
X103231732Y17681000D02*
G01*
X103232000Y17680000D01*
X103232000Y16130000D01*
X103231000Y16128268D01*
X103230000Y16128000D01*
X103080000Y16128000D01*
X103078268Y16129000D01*
X103078000Y16130000D01*
X103078000Y17680000D01*
X103079000Y17681732D01*
X103080000Y17682000D01*
X103230000Y17682000D01*
X103231732Y17681000D01*
G37*
G36*
X104006732Y17681000D02*
G01*
X104007000Y17680000D01*
X104007000Y16130000D01*
X104006000Y16128268D01*
X104005000Y16128000D01*
X103930000Y16128000D01*
X103928268Y16129000D01*
X103928000Y16130000D01*
X103928000Y17680000D01*
X103929000Y17681732D01*
X103930000Y17682000D01*
X104005000Y17682000D01*
X104006732Y17681000D01*
G37*
G36*
X99681732Y17681000D02*
G01*
X99682000Y17680000D01*
X99682000Y16130000D01*
X99681000Y16128268D01*
X99680000Y16128000D01*
X99580000Y16128000D01*
X99578268Y16129000D01*
X99578000Y16130000D01*
X99578000Y17680000D01*
X99579000Y17681732D01*
X99580000Y17682000D01*
X99680000Y17682000D01*
X99681732Y17681000D01*
G37*
G36*
X99181732Y17681000D02*
G01*
X99182000Y17680000D01*
X99182000Y16130000D01*
X99181000Y16128268D01*
X99180000Y16128000D01*
X99030000Y16128000D01*
X99028268Y16129000D01*
X99028000Y16130000D01*
X99028000Y17680000D01*
X99029000Y17681732D01*
X99030000Y17682000D01*
X99180000Y17682000D01*
X99181732Y17681000D01*
G37*
G36*
X100681732Y17681000D02*
G01*
X100682000Y17680000D01*
X100682000Y16130000D01*
X100681000Y16128268D01*
X100680000Y16128000D01*
X100580000Y16128000D01*
X100578268Y16129000D01*
X100578000Y16130000D01*
X100578000Y17680000D01*
X100579000Y17681732D01*
X100580000Y17682000D01*
X100680000Y17682000D01*
X100681732Y17681000D01*
G37*
G36*
X101681732Y17681000D02*
G01*
X101682000Y17680000D01*
X101682000Y16130000D01*
X101681000Y16128268D01*
X101680000Y16128000D01*
X101580000Y16128000D01*
X101578268Y16129000D01*
X101578000Y16130000D01*
X101578000Y17680000D01*
X101579000Y17681732D01*
X101580000Y17682000D01*
X101680000Y17682000D01*
X101681732Y17681000D01*
G37*
G36*
X102181732Y17681000D02*
G01*
X102182000Y17680000D01*
X102182000Y16130000D01*
X102181000Y16128268D01*
X102180000Y16128000D01*
X102080000Y16128000D01*
X102078268Y16129000D01*
X102078000Y16130000D01*
X102078000Y17680000D01*
X102079000Y17681732D01*
X102080000Y17682000D01*
X102180000Y17682000D01*
X102181732Y17681000D01*
G37*
G36*
X102681732Y17681000D02*
G01*
X102682000Y17680000D01*
X102682000Y16130000D01*
X102681000Y16128268D01*
X102680000Y16128000D01*
X102580000Y16128000D01*
X102578268Y16129000D01*
X102578000Y16130000D01*
X102578000Y17680000D01*
X102579000Y17681732D01*
X102580000Y17682000D01*
X102680000Y17682000D01*
X102681732Y17681000D01*
G37*
G36*
X98331732Y17681000D02*
G01*
X98332000Y17680000D01*
X98332000Y16130000D01*
X98331000Y16128268D01*
X98330000Y16128000D01*
X98255000Y16128000D01*
X98253268Y16129000D01*
X98253000Y16130000D01*
X98253000Y17680000D01*
X98254000Y17681732D01*
X98255000Y17682000D01*
X98330000Y17682000D01*
X98331732Y17681000D01*
G37*
G36*
X100181732Y17681000D02*
G01*
X100182000Y17680000D01*
X100182000Y16130000D01*
X100181000Y16128268D01*
X100180000Y16128000D01*
X100080000Y16128000D01*
X100078268Y16129000D01*
X100078000Y16130000D01*
X100078000Y17680000D01*
X100079000Y17681732D01*
X100080000Y17682000D01*
X100180000Y17682000D01*
X100181732Y17681000D01*
G37*
G36*
X101181732Y17681000D02*
G01*
X101182000Y17680000D01*
X101182000Y16130000D01*
X101181000Y16128268D01*
X101180000Y16128000D01*
X101080000Y16128000D01*
X101078268Y16129000D01*
X101078000Y16130000D01*
X101078000Y17680000D01*
X101079000Y17681732D01*
X101080000Y17682000D01*
X101180000Y17682000D01*
X101181732Y17681000D01*
G37*
G36*
X104901166Y17806625D02*
G01*
X104902001Y17804999D01*
X104902001Y17270094D01*
X104912539Y17163095D01*
X104942885Y17063059D01*
X104942431Y17061111D01*
X104940517Y17060530D01*
X104939207Y17061535D01*
X104938519Y17062822D01*
X104925070Y17082949D01*
X104908023Y17099996D01*
X104887976Y17113391D01*
X104865702Y17122617D01*
X104842052Y17127321D01*
X104817945Y17127321D01*
X104794295Y17122616D01*
X104772021Y17113390D01*
X104751974Y17099995D01*
X104734927Y17082948D01*
X104721532Y17062901D01*
X104712323Y17040670D01*
X104706978Y17004631D01*
X104705735Y17003064D01*
X104703757Y17003357D01*
X104703000Y17004924D01*
X104703000Y17680000D01*
X104704000Y17681732D01*
X104705000Y17682000D01*
X104774908Y17682000D01*
X104798993Y17684372D01*
X104822068Y17691372D01*
X104843332Y17702737D01*
X104861969Y17718032D01*
X104877264Y17736669D01*
X104888629Y17757933D01*
X104895629Y17781008D01*
X104898011Y17805195D01*
X104899176Y17806821D01*
X104901166Y17806625D01*
G37*
G36*
X97361990Y17805195D02*
G01*
X97364372Y17781008D01*
X97371372Y17757933D01*
X97382737Y17736669D01*
X97398032Y17718032D01*
X97416669Y17702737D01*
X97437933Y17691372D01*
X97461008Y17684372D01*
X97485093Y17682000D01*
X97555000Y17682000D01*
X97556732Y17681000D01*
X97557000Y17680000D01*
X97557000Y17004924D01*
X97556000Y17003192D01*
X97554000Y17003192D01*
X97553010Y17004728D01*
X97550628Y17028913D01*
X97543628Y17051988D01*
X97532263Y17073252D01*
X97516968Y17091889D01*
X97498331Y17107184D01*
X97477067Y17118549D01*
X97453992Y17125549D01*
X97430001Y17127912D01*
X97406010Y17125549D01*
X97382935Y17118549D01*
X97361671Y17107184D01*
X97343070Y17091919D01*
X97321459Y17062779D01*
X97320794Y17061534D01*
X97319096Y17060478D01*
X97317332Y17061421D01*
X97317116Y17063058D01*
X97347462Y17163095D01*
X97358000Y17270094D01*
X97358000Y17804999D01*
X97359000Y17806731D01*
X97361000Y17806731D01*
X97361990Y17805195D01*
G37*
M02*
