G04 #@! TF.GenerationSoftware,KiCad,Pcbnew,(5.1.9)-1*
G04 #@! TF.CreationDate,2021-04-11T17:50:06-07:00*
G04 #@! TF.ProjectId,euclid36,6575636c-6964-4333-962e-6b696361645f,1.2*
G04 #@! TF.SameCoordinates,PX2faf080PY2faf080*
G04 #@! TF.FileFunction,Legend,Bot*
G04 #@! TF.FilePolarity,Positive*
%FSLAX46Y46*%
G04 Gerber Fmt 4.6, Leading zero omitted, Abs format (unit mm)*
G04 Created by KiCad (PCBNEW (5.1.9)-1) date 2021-04-11 17:50:06*
%MOMM*%
%LPD*%
G01*
G04 APERTURE LIST*
%ADD10C,0.120000*%
%ADD11C,0.150000*%
%ADD12C,0.100000*%
G04 APERTURE END LIST*
D10*
X110614000Y13308000D02*
X110614000Y11508000D01*
X107394000Y11508000D02*
X107394000Y13958000D01*
X103135000Y12434936D02*
X103135000Y12889064D01*
X101665000Y12434936D02*
X101665000Y12889064D01*
X105929000Y12434936D02*
X105929000Y12889064D01*
X104459000Y12434936D02*
X104459000Y12889064D01*
X100595000Y12434936D02*
X100595000Y12889064D01*
X99125000Y12434936D02*
X99125000Y12889064D01*
X111009000Y7100936D02*
X111009000Y7555064D01*
X109539000Y7100936D02*
X109539000Y7555064D01*
X107961000Y7100936D02*
X107961000Y7555064D01*
X106491000Y7100936D02*
X106491000Y7555064D01*
X108522936Y19547000D02*
X108977064Y19547000D01*
X108522936Y21017000D02*
X108977064Y21017000D01*
X96057252Y14667000D02*
X95534748Y14667000D01*
X96057252Y13197000D02*
X95534748Y13197000D01*
X93771252Y20763000D02*
X93248748Y20763000D01*
X93771252Y19293000D02*
X93248748Y19293000D01*
D11*
X96463000Y-30292000D02*
X95188000Y-30292000D01*
X106813000Y-30867000D02*
X106138000Y-30867000D01*
X106813000Y-20517000D02*
X106138000Y-20517000D01*
X96463000Y-20517000D02*
X97138000Y-20517000D01*
X96463000Y-30867000D02*
X97138000Y-30867000D01*
X96463000Y-20517000D02*
X96463000Y-21192000D01*
X106813000Y-20517000D02*
X106813000Y-21192000D01*
X106813000Y-30867000D02*
X106813000Y-30192000D01*
X96463000Y-30867000D02*
X96463000Y-30292000D01*
D10*
X103638000Y-16166000D02*
X99638000Y-16166000D01*
X103638000Y-12866000D02*
X103638000Y-16166000D01*
X91705000Y-13780936D02*
X91705000Y-14235064D01*
X90235000Y-13780936D02*
X90235000Y-14235064D01*
X111063000Y-31253064D02*
X111063000Y-30798936D01*
X112533000Y-31253064D02*
X112533000Y-30798936D01*
D11*
X32832760Y7274623D02*
X32677468Y6695067D01*
X41534885Y6909920D02*
X39120071Y7556967D01*
X37472422Y3339711D02*
X37118869Y3952083D01*
X37377688Y4918009D02*
X37118869Y3952083D01*
X32677468Y6695067D02*
X37024134Y5530381D01*
X41888439Y6297547D02*
X41534885Y6909920D01*
X40982572Y2916807D02*
X40370200Y2563254D01*
X40370200Y2563254D02*
X37472422Y3339711D01*
X38059411Y9394085D02*
X38240584Y10070233D01*
X38240584Y10070233D02*
X33893918Y11234919D01*
X33893918Y11234919D02*
X33764508Y10751956D01*
X37024135Y5530382D02*
G75*
G02*
X37377688Y4918009I-129410J-482963D01*
G01*
X39120070Y7556968D02*
G75*
G02*
X38059411Y9394085I388229J1448888D01*
G01*
D12*
G36*
X202784632Y9924618D02*
G01*
X202205076Y9769327D01*
X202360368Y9189771D01*
X202784632Y9924618D01*
G37*
X202784632Y9924618D02*
X202205076Y9769327D01*
X202360368Y9189771D01*
X202784632Y9924618D01*
G36*
X207715134Y-8476268D02*
G01*
X207135578Y-8631559D01*
X207290870Y-9211115D01*
X207715134Y-8476268D01*
G37*
X207715134Y-8476268D02*
X207135578Y-8631559D01*
X207290870Y-9211115D01*
X207715134Y-8476268D01*
G36*
X212645636Y-26877154D02*
G01*
X212066080Y-27032445D01*
X212221372Y-27612001D01*
X212645636Y-26877154D01*
G37*
X212645636Y-26877154D02*
X212066080Y-27032445D01*
X212221372Y-27612001D01*
X212645636Y-26877154D01*
G36*
X185481272Y-20738645D02*
G01*
X186060828Y-20583354D01*
X185905536Y-20003798D01*
X185481272Y-20738645D01*
G37*
X185481272Y-20738645D02*
X186060828Y-20583354D01*
X185905536Y-20003798D01*
X185481272Y-20738645D01*
G36*
X180550770Y-2337759D02*
G01*
X181130326Y-2182468D01*
X180975034Y-1602912D01*
X180550770Y-2337759D01*
G37*
X180550770Y-2337759D02*
X181130326Y-2182468D01*
X180975034Y-1602912D01*
X180550770Y-2337759D01*
G36*
X175620268Y16063127D02*
G01*
X176199824Y16218418D01*
X176044532Y16797974D01*
X175620268Y16063127D01*
G37*
X175620268Y16063127D02*
X176199824Y16218418D01*
X176044532Y16797974D01*
X175620268Y16063127D01*
G36*
X162038459Y14784322D02*
G01*
X161458903Y14629031D01*
X161614195Y14049475D01*
X162038459Y14784322D01*
G37*
X162038459Y14784322D02*
X161458903Y14629031D01*
X161614195Y14049475D01*
X162038459Y14784322D01*
G36*
X166968961Y-3616564D02*
G01*
X166389405Y-3771855D01*
X166544697Y-4351411D01*
X166968961Y-3616564D01*
G37*
X166968961Y-3616564D02*
X166389405Y-3771855D01*
X166544697Y-4351411D01*
X166968961Y-3616564D01*
G36*
X171899463Y-22017450D02*
G01*
X171319907Y-22172741D01*
X171475199Y-22752297D01*
X171899463Y-22017450D01*
G37*
X171899463Y-22017450D02*
X171319907Y-22172741D01*
X171475199Y-22752297D01*
X171899463Y-22017450D01*
G36*
X148679500Y-30599649D02*
G01*
X149259056Y-30444358D01*
X149103764Y-29864802D01*
X148679500Y-30599649D01*
G37*
X148679500Y-30599649D02*
X149259056Y-30444358D01*
X149103764Y-29864802D01*
X148679500Y-30599649D01*
G36*
X143748998Y-12198763D02*
G01*
X144328554Y-12043472D01*
X144173262Y-11463916D01*
X143748998Y-12198763D01*
G37*
X143748998Y-12198763D02*
X144328554Y-12043472D01*
X144173262Y-11463916D01*
X143748998Y-12198763D01*
G36*
X138818496Y6202123D02*
G01*
X139398052Y6357414D01*
X139242760Y6936970D01*
X138818496Y6202123D01*
G37*
X138818496Y6202123D02*
X139398052Y6357414D01*
X139242760Y6936970D01*
X138818496Y6202123D01*
G36*
X127208888Y-2437037D02*
G01*
X126629332Y-2592328D01*
X126784624Y-3171884D01*
X127208888Y-2437037D01*
G37*
X127208888Y-2437037D02*
X126629332Y-2592328D01*
X126784624Y-3171884D01*
X127208888Y-2437037D01*
G36*
X132139390Y-20837923D02*
G01*
X131559834Y-20993214D01*
X131715126Y-21572770D01*
X132139390Y-20837923D01*
G37*
X132139390Y-20837923D02*
X131559834Y-20993214D01*
X131715126Y-21572770D01*
X132139390Y-20837923D01*
G36*
X137069892Y-39238809D02*
G01*
X136490336Y-39394100D01*
X136645628Y-39973656D01*
X137069892Y-39238809D01*
G37*
X137069892Y-39238809D02*
X136490336Y-39394100D01*
X136645628Y-39973656D01*
X137069892Y-39238809D01*
G36*
X163030882Y-62522999D02*
G01*
X162451326Y-62678290D01*
X162606618Y-63257846D01*
X163030882Y-62522999D01*
G37*
X163030882Y-62522999D02*
X162451326Y-62678290D01*
X162606618Y-63257846D01*
X163030882Y-62522999D01*
G36*
X141875753Y-70244557D02*
G01*
X141331969Y-70498128D01*
X141585540Y-71041912D01*
X141875753Y-70244557D01*
G37*
X141875753Y-70244557D02*
X141331969Y-70498128D01*
X141585540Y-71041912D01*
X141875753Y-70244557D01*
G36*
X122436067Y-80904487D02*
G01*
X121944576Y-81248633D01*
X122288721Y-81740124D01*
X122436067Y-80904487D01*
G37*
X122436067Y-80904487D02*
X121944576Y-81248633D01*
X122288721Y-81740124D01*
X122436067Y-80904487D01*
G36*
X83382781Y-84116515D02*
G01*
X82891289Y-83772369D01*
X82547144Y-84263860D01*
X83382781Y-84116515D01*
G37*
X83382781Y-84116515D02*
X82891289Y-83772369D01*
X82547144Y-84263860D01*
X83382781Y-84116515D01*
G36*
X64431166Y-72611219D02*
G01*
X63887382Y-72357648D01*
X63633811Y-72901433D01*
X64431166Y-72611219D01*
G37*
X64431166Y-72611219D02*
X63887382Y-72357648D01*
X63633811Y-72901433D01*
X64431166Y-72611219D01*
G36*
X43609899Y-63972385D02*
G01*
X43030343Y-63817094D01*
X42875052Y-64396650D01*
X43609899Y-63972385D01*
G37*
X43609899Y-63972385D02*
X43030343Y-63817094D01*
X42875052Y-64396650D01*
X43609899Y-63972385D01*
G36*
X69570889Y-40688195D02*
G01*
X68991333Y-40532904D01*
X68836042Y-41112460D01*
X69570889Y-40688195D01*
G37*
X69570889Y-40688195D02*
X68991333Y-40532904D01*
X68836042Y-41112460D01*
X69570889Y-40688195D01*
G36*
X74501391Y-22287309D02*
G01*
X73921835Y-22132018D01*
X73766544Y-22711574D01*
X74501391Y-22287309D01*
G37*
X74501391Y-22287309D02*
X73921835Y-22132018D01*
X73766544Y-22711574D01*
X74501391Y-22287309D01*
G36*
X79431893Y-3886423D02*
G01*
X78852337Y-3731132D01*
X78697046Y-4310688D01*
X79431893Y-3886423D01*
G37*
X79431893Y-3886423D02*
X78852337Y-3731132D01*
X78697046Y-4310688D01*
X79431893Y-3886423D01*
G36*
X57003915Y7651509D02*
G01*
X57583471Y7496218D01*
X57738762Y8075774D01*
X57003915Y7651509D01*
G37*
X57003915Y7651509D02*
X57583471Y7496218D01*
X57738762Y8075774D01*
X57003915Y7651509D01*
G36*
X52073413Y-10749377D02*
G01*
X52652969Y-10904668D01*
X52808260Y-10325112D01*
X52073413Y-10749377D01*
G37*
X52073413Y-10749377D02*
X52652969Y-10904668D01*
X52808260Y-10325112D01*
X52073413Y-10749377D01*
G36*
X47142911Y-29150263D02*
G01*
X47722467Y-29305554D01*
X47877758Y-28725998D01*
X47142911Y-29150263D01*
G37*
X47142911Y-29150263D02*
X47722467Y-29305554D01*
X47877758Y-28725998D01*
X47142911Y-29150263D01*
G36*
X34741318Y-23466836D02*
G01*
X34161762Y-23311545D01*
X34006471Y-23891101D01*
X34741318Y-23466836D01*
G37*
X34741318Y-23466836D02*
X34161762Y-23311545D01*
X34006471Y-23891101D01*
X34741318Y-23466836D01*
G36*
X39671820Y-5065950D02*
G01*
X39092264Y-4910659D01*
X38936973Y-5490215D01*
X39671820Y-5065950D01*
G37*
X39671820Y-5065950D02*
X39092264Y-4910659D01*
X38936973Y-5490215D01*
X39671820Y-5065950D01*
G36*
X44602322Y13334936D02*
G01*
X44022766Y13490227D01*
X43867475Y12910671D01*
X44602322Y13334936D01*
G37*
X44602322Y13334936D02*
X44022766Y13490227D01*
X43867475Y12910671D01*
X44602322Y13334936D01*
G36*
X20202143Y17512513D02*
G01*
X20781699Y17357222D01*
X20936990Y17936778D01*
X20202143Y17512513D01*
G37*
X20202143Y17512513D02*
X20781699Y17357222D01*
X20936990Y17936778D01*
X20202143Y17512513D01*
G36*
X15271641Y-888373D02*
G01*
X15851197Y-1043664D01*
X16006488Y-464108D01*
X15271641Y-888373D01*
G37*
X15271641Y-888373D02*
X15851197Y-1043664D01*
X16006488Y-464108D01*
X15271641Y-888373D01*
G36*
X10341139Y-19289259D02*
G01*
X10920695Y-19444550D01*
X11075986Y-18864994D01*
X10341139Y-19289259D01*
G37*
X10341139Y-19289259D02*
X10920695Y-19444550D01*
X11075986Y-18864994D01*
X10341139Y-19289259D01*
G36*
X-6004855Y-28326541D02*
G01*
X-6584411Y-28171250D01*
X-6739702Y-28750806D01*
X-6004855Y-28326541D01*
G37*
X-6004855Y-28326541D02*
X-6584411Y-28171250D01*
X-6739702Y-28750806D01*
X-6004855Y-28326541D01*
G36*
X-1074353Y-9925655D02*
G01*
X-1653909Y-9770364D01*
X-1809200Y-10349920D01*
X-1074353Y-9925655D01*
G37*
X-1074353Y-9925655D02*
X-1653909Y-9770364D01*
X-1809200Y-10349920D01*
X-1074353Y-9925655D01*
G36*
X3856149Y8475231D02*
G01*
X3276593Y8630522D01*
X3121302Y8050966D01*
X3856149Y8475231D01*
G37*
X3856149Y8475231D02*
X3276593Y8630522D01*
X3121302Y8050966D01*
X3856149Y8475231D01*
D11*
X155867906Y-73220918D02*
X156023197Y-73800473D01*
X163586519Y-69185697D02*
X161171705Y-69832745D01*
X161853427Y-74308820D02*
X161241055Y-73955267D01*
X160982236Y-72989341D02*
X161241055Y-73955267D01*
X156023197Y-73800473D02*
X160369864Y-72635788D01*
X164198892Y-69539250D02*
X163586519Y-69185697D01*
X165104758Y-72919991D02*
X164751205Y-73532363D01*
X164751205Y-73532363D02*
X161853427Y-74308820D01*
X159334587Y-68772084D02*
X159153414Y-68095936D01*
X159153414Y-68095936D02*
X154806748Y-69260622D01*
X154806748Y-69260622D02*
X154936157Y-69743585D01*
X160369863Y-72635788D02*
G75*
G02*
X160982236Y-72989341I129410J-482963D01*
G01*
X161171704Y-69832745D02*
G75*
G02*
X159334587Y-68772084I-388228J1448889D01*
G01*
X136755508Y-82452651D02*
X137009079Y-82996436D01*
X143656149Y-77138411D02*
X141390380Y-78194957D01*
X142839008Y-82484651D02*
X142174545Y-82242806D01*
X141751927Y-81336499D02*
X142174545Y-82242806D01*
X137009079Y-82996436D02*
X141087464Y-81094654D01*
X144320612Y-77380256D02*
X143656149Y-77138411D01*
X145799776Y-80552333D02*
X145557931Y-81216796D01*
X145557931Y-81216796D02*
X142839008Y-82484651D01*
X139396991Y-77469423D02*
X139101158Y-76835007D01*
X139101158Y-76835007D02*
X135022773Y-78736790D01*
X135022773Y-78736790D02*
X135234082Y-79189943D01*
X141087464Y-81094654D02*
G75*
G02*
X141751927Y-81336499I211309J-453154D01*
G01*
X141390380Y-78194956D02*
G75*
G02*
X139396991Y-77469423I-633928J1359461D01*
G01*
X119512964Y-93816287D02*
X119857110Y-94307778D01*
X125385961Y-87384498D02*
X123338081Y-88818439D01*
X125509599Y-92791411D02*
X124813234Y-92668624D01*
X124239658Y-91849472D02*
X124813234Y-92668624D01*
X119857110Y-94307778D02*
X123543294Y-91726684D01*
X126082325Y-87507286D02*
X125385961Y-87384498D01*
X128089843Y-90374318D02*
X127967055Y-91070682D01*
X127967055Y-91070682D02*
X125509599Y-92791411D01*
X121248988Y-88450076D02*
X120847485Y-87876669D01*
X120847485Y-87876669D02*
X117161300Y-90457763D01*
X117161300Y-90457763D02*
X117448089Y-90867339D01*
X123543294Y-91726684D02*
G75*
G02*
X124239658Y-91849472I286788J-409576D01*
G01*
X123338081Y-88818439D02*
G75*
G02*
X121248988Y-88450076I-860365J1228728D01*
G01*
X70250261Y-85785918D02*
X69906115Y-86277410D01*
X78302848Y-89104929D02*
X76254968Y-87670988D01*
X73264298Y-91070384D02*
X73141510Y-90374020D01*
X73715087Y-89554868D02*
X73141510Y-90374020D01*
X69906115Y-86277410D02*
X73592299Y-88858504D01*
X78425636Y-89801293D02*
X78302848Y-89104929D01*
X76418119Y-92668326D02*
X75721754Y-92791113D01*
X75721754Y-92791113D02*
X73264298Y-91070384D01*
X75886605Y-85581895D02*
X76288108Y-85008489D01*
X76288108Y-85008489D02*
X72601924Y-82427395D01*
X72601924Y-82427395D02*
X72315136Y-82836971D01*
X73592299Y-88858504D02*
G75*
G02*
X73715087Y-89554868I-286788J-409576D01*
G01*
X76254968Y-87670988D02*
G75*
G02*
X75886605Y-85581895I860365J1228728D01*
G01*
X51788048Y-76535699D02*
X51534477Y-77079483D01*
X60294639Y-78405969D02*
X58028870Y-77349424D01*
X55673934Y-81216499D02*
X55432089Y-80552036D01*
X55854707Y-79645729D02*
X55432089Y-80552036D01*
X51534477Y-77079483D02*
X55612862Y-78981266D01*
X60536484Y-79070432D02*
X60294639Y-78405969D01*
X59057320Y-82242509D02*
X58392857Y-82484354D01*
X58392857Y-82484354D02*
X55673934Y-81216499D01*
X57303335Y-75356034D02*
X57599168Y-74721619D01*
X57599168Y-74721619D02*
X53520783Y-72819837D01*
X53520783Y-72819837D02*
X53309474Y-73272991D01*
X55612862Y-78981266D02*
G75*
G02*
X55854707Y-79645729I-211309J-453154D01*
G01*
X58028869Y-77349424D02*
G75*
G02*
X57303335Y-75356034I633928J1359462D01*
G01*
X31840337Y-70032698D02*
X31685045Y-70612254D01*
X40542462Y-70397401D02*
X38127648Y-69750354D01*
X36479999Y-73967610D02*
X36126446Y-73355238D01*
X36385265Y-72389312D02*
X36126446Y-73355238D01*
X31685045Y-70612254D02*
X36031711Y-71776940D01*
X40896016Y-71009774D02*
X40542462Y-70397401D01*
X39990149Y-74390514D02*
X39377777Y-74744067D01*
X39377777Y-74744067D02*
X36479999Y-73967610D01*
X37066988Y-67913236D02*
X37248161Y-67237088D01*
X37248161Y-67237088D02*
X32901495Y-66072402D01*
X32901495Y-66072402D02*
X32772085Y-66555365D01*
X36031712Y-71776939D02*
G75*
G02*
X36385265Y-72389312I-129410J-482963D01*
G01*
X38127647Y-69750353D02*
G75*
G02*
X37066988Y-67913236I388229J1448888D01*
G01*
X205483052Y-38010320D02*
X205638343Y-38589875D01*
X213201665Y-33975099D02*
X210786851Y-34622147D01*
X211468573Y-39098222D02*
X210856201Y-38744669D01*
X210597382Y-37778743D02*
X210856201Y-38744669D01*
X205638343Y-38589875D02*
X209985010Y-37425190D01*
X213814038Y-34328652D02*
X213201665Y-33975099D01*
X214719904Y-37709393D02*
X214366351Y-38321765D01*
X214366351Y-38321765D02*
X211468573Y-39098222D01*
X208949733Y-33561486D02*
X208768560Y-32885338D01*
X208768560Y-32885338D02*
X204421894Y-34050024D01*
X204421894Y-34050024D02*
X204551303Y-34532987D01*
X209985009Y-37425190D02*
G75*
G02*
X210597382Y-37778743I129410J-482963D01*
G01*
X210786850Y-34622147D02*
G75*
G02*
X208949733Y-33561486I-388228J1448889D01*
G01*
X184452566Y-33127017D02*
X184607857Y-33706572D01*
X192171179Y-29091796D02*
X189756365Y-29738844D01*
X190438087Y-34214919D02*
X189825715Y-33861366D01*
X189566896Y-32895440D02*
X189825715Y-33861366D01*
X184607857Y-33706572D02*
X188954524Y-32541887D01*
X192783552Y-29445349D02*
X192171179Y-29091796D01*
X193689418Y-32826090D02*
X193335865Y-33438462D01*
X193335865Y-33438462D02*
X190438087Y-34214919D01*
X187919247Y-28678183D02*
X187738074Y-28002035D01*
X187738074Y-28002035D02*
X183391408Y-29166721D01*
X183391408Y-29166721D02*
X183520817Y-29649684D01*
X188954523Y-32541887D02*
G75*
G02*
X189566896Y-32895440I129410J-482963D01*
G01*
X189756364Y-29738844D02*
G75*
G02*
X187919247Y-28678183I-388228J1448889D01*
G01*
X164736879Y-33150616D02*
X164892170Y-33730171D01*
X172455492Y-29115395D02*
X170040678Y-29762443D01*
X170722400Y-34238518D02*
X170110028Y-33884965D01*
X169851209Y-32919039D02*
X170110028Y-33884965D01*
X164892170Y-33730171D02*
X169238837Y-32565486D01*
X173067865Y-29468948D02*
X172455492Y-29115395D01*
X173973731Y-32849689D02*
X173620178Y-33462061D01*
X173620178Y-33462061D02*
X170722400Y-34238518D01*
X168203560Y-28701782D02*
X168022387Y-28025634D01*
X168022387Y-28025634D02*
X163675721Y-29190320D01*
X163675721Y-29190320D02*
X163805130Y-29673283D01*
X169238836Y-32565486D02*
G75*
G02*
X169851209Y-32919039I129410J-482963D01*
G01*
X170040677Y-29762443D02*
G75*
G02*
X168203560Y-28701782I-388228J1448889D01*
G01*
X147650794Y-42988021D02*
X147806085Y-43567576D01*
X155369407Y-38952800D02*
X152954593Y-39599848D01*
X153636315Y-44075923D02*
X153023943Y-43722370D01*
X152765124Y-42756444D02*
X153023943Y-43722370D01*
X147806085Y-43567576D02*
X152152752Y-42402891D01*
X155981780Y-39306353D02*
X155369407Y-38952800D01*
X156887646Y-42687094D02*
X156534093Y-43299466D01*
X156534093Y-43299466D02*
X153636315Y-44075923D01*
X151117475Y-38539187D02*
X150936302Y-37863039D01*
X150936302Y-37863039D02*
X146589636Y-39027725D01*
X146589636Y-39027725D02*
X146719045Y-39510688D01*
X152152751Y-42402891D02*
G75*
G02*
X152765124Y-42756444I129410J-482963D01*
G01*
X152954592Y-39599848D02*
G75*
G02*
X151117475Y-38539187I-388228J1448889D01*
G01*
X129907308Y-50371975D02*
X130062599Y-50951530D01*
X137625921Y-46336754D02*
X135211107Y-46983802D01*
X135892829Y-51459877D02*
X135280457Y-51106324D01*
X135021638Y-50140398D02*
X135280457Y-51106324D01*
X130062599Y-50951530D02*
X134409266Y-49786845D01*
X138238294Y-46690307D02*
X137625921Y-46336754D01*
X139144160Y-50071048D02*
X138790607Y-50683420D01*
X138790607Y-50683420D02*
X135892829Y-51459877D01*
X133373989Y-45923141D02*
X133192816Y-45246993D01*
X133192816Y-45246993D02*
X128846150Y-46411679D01*
X128846150Y-46411679D02*
X128975559Y-46894642D01*
X134409265Y-49786845D02*
G75*
G02*
X135021638Y-50140398I129410J-482963D01*
G01*
X135211106Y-46983802D02*
G75*
G02*
X133373989Y-45923141I-388228J1448889D01*
G01*
X200552550Y-19609434D02*
X200707841Y-20188989D01*
X208271163Y-15574213D02*
X205856349Y-16221261D01*
X206538071Y-20697336D02*
X205925699Y-20343783D01*
X205666880Y-19377857D02*
X205925699Y-20343783D01*
X200707841Y-20188989D02*
X205054508Y-19024304D01*
X208883536Y-15927766D02*
X208271163Y-15574213D01*
X209789402Y-19308507D02*
X209435849Y-19920879D01*
X209435849Y-19920879D02*
X206538071Y-20697336D01*
X204019231Y-15160600D02*
X203838058Y-14484452D01*
X203838058Y-14484452D02*
X199491392Y-15649138D01*
X199491392Y-15649138D02*
X199620801Y-16132101D01*
X205054507Y-19024304D02*
G75*
G02*
X205666880Y-19377857I129410J-482963D01*
G01*
X205856348Y-16221261D02*
G75*
G02*
X204019231Y-15160600I-388228J1448889D01*
G01*
X179522064Y-14726131D02*
X179677355Y-15305686D01*
X187240677Y-10690910D02*
X184825863Y-11337958D01*
X185507585Y-15814033D02*
X184895213Y-15460480D01*
X184636394Y-14494554D02*
X184895213Y-15460480D01*
X179677355Y-15305686D02*
X184024022Y-14141001D01*
X187853050Y-11044463D02*
X187240677Y-10690910D01*
X188758916Y-14425204D02*
X188405363Y-15037576D01*
X188405363Y-15037576D02*
X185507585Y-15814033D01*
X182988745Y-10277297D02*
X182807572Y-9601149D01*
X182807572Y-9601149D02*
X178460906Y-10765835D01*
X178460906Y-10765835D02*
X178590315Y-11248798D01*
X184024021Y-14141001D02*
G75*
G02*
X184636394Y-14494554I129410J-482963D01*
G01*
X184825862Y-11337958D02*
G75*
G02*
X182988745Y-10277297I-388228J1448889D01*
G01*
X159806377Y-14749730D02*
X159961668Y-15329285D01*
X167524990Y-10714509D02*
X165110176Y-11361557D01*
X165791898Y-15837632D02*
X165179526Y-15484079D01*
X164920707Y-14518153D02*
X165179526Y-15484079D01*
X159961668Y-15329285D02*
X164308335Y-14164600D01*
X168137363Y-11068062D02*
X167524990Y-10714509D01*
X169043229Y-14448803D02*
X168689676Y-15061175D01*
X168689676Y-15061175D02*
X165791898Y-15837632D01*
X163273058Y-10300896D02*
X163091885Y-9624748D01*
X163091885Y-9624748D02*
X158745219Y-10789434D01*
X158745219Y-10789434D02*
X158874628Y-11272397D01*
X164308334Y-14164600D02*
G75*
G02*
X164920707Y-14518153I129410J-482963D01*
G01*
X165110175Y-11361557D02*
G75*
G02*
X163273058Y-10300896I-388228J1448889D01*
G01*
X142720292Y-24587135D02*
X142875583Y-25166690D01*
X150438905Y-20551914D02*
X148024091Y-21198962D01*
X148705813Y-25675037D02*
X148093441Y-25321484D01*
X147834622Y-24355558D02*
X148093441Y-25321484D01*
X142875583Y-25166690D02*
X147222250Y-24002005D01*
X151051278Y-20905467D02*
X150438905Y-20551914D01*
X151957144Y-24286208D02*
X151603591Y-24898580D01*
X151603591Y-24898580D02*
X148705813Y-25675037D01*
X146186973Y-20138301D02*
X146005800Y-19462153D01*
X146005800Y-19462153D02*
X141659134Y-20626839D01*
X141659134Y-20626839D02*
X141788543Y-21109802D01*
X147222249Y-24002005D02*
G75*
G02*
X147834622Y-24355558I129410J-482963D01*
G01*
X148024090Y-21198962D02*
G75*
G02*
X146186973Y-20138301I-388228J1448889D01*
G01*
X124976806Y-31971089D02*
X125132097Y-32550644D01*
X132695419Y-27935868D02*
X130280605Y-28582916D01*
X130962327Y-33058991D02*
X130349955Y-32705438D01*
X130091136Y-31739512D02*
X130349955Y-32705438D01*
X125132097Y-32550644D02*
X129478764Y-31385959D01*
X133307792Y-28289421D02*
X132695419Y-27935868D01*
X134213658Y-31670162D02*
X133860105Y-32282534D01*
X133860105Y-32282534D02*
X130962327Y-33058991D01*
X128443487Y-27522255D02*
X128262314Y-26846107D01*
X128262314Y-26846107D02*
X123915648Y-28010793D01*
X123915648Y-28010793D02*
X124045057Y-28493756D01*
X129478763Y-31385959D02*
G75*
G02*
X130091136Y-31739512I129410J-482963D01*
G01*
X130280604Y-28582916D02*
G75*
G02*
X128443487Y-27522255I-388228J1448889D01*
G01*
X195622048Y-1208548D02*
X195777339Y-1788103D01*
X203340661Y2826673D02*
X200925847Y2179625D01*
X201607569Y-2296450D02*
X200995197Y-1942897D01*
X200736378Y-976971D02*
X200995197Y-1942897D01*
X195777339Y-1788103D02*
X200124006Y-623418D01*
X203953034Y2473120D02*
X203340661Y2826673D01*
X204858900Y-907621D02*
X204505347Y-1519993D01*
X204505347Y-1519993D02*
X201607569Y-2296450D01*
X199088729Y3240286D02*
X198907556Y3916434D01*
X198907556Y3916434D02*
X194560890Y2751748D01*
X194560890Y2751748D02*
X194690299Y2268785D01*
X200124005Y-623418D02*
G75*
G02*
X200736378Y-976971I129410J-482963D01*
G01*
X200925846Y2179625D02*
G75*
G02*
X199088729Y3240286I-388228J1448889D01*
G01*
X174591562Y3674755D02*
X174746853Y3095200D01*
X182310175Y7709976D02*
X179895361Y7062928D01*
X180577083Y2586853D02*
X179964711Y2940406D01*
X179705892Y3906332D02*
X179964711Y2940406D01*
X174746853Y3095200D02*
X179093520Y4259885D01*
X182922548Y7356423D02*
X182310175Y7709976D01*
X183828414Y3975682D02*
X183474861Y3363310D01*
X183474861Y3363310D02*
X180577083Y2586853D01*
X178058243Y8123589D02*
X177877070Y8799737D01*
X177877070Y8799737D02*
X173530404Y7635051D01*
X173530404Y7635051D02*
X173659813Y7152088D01*
X179093519Y4259885D02*
G75*
G02*
X179705892Y3906332I129410J-482963D01*
G01*
X179895360Y7062928D02*
G75*
G02*
X178058243Y8123589I-388228J1448889D01*
G01*
X154875875Y3651156D02*
X155031166Y3071601D01*
X162594488Y7686377D02*
X160179674Y7039329D01*
X160861396Y2563254D02*
X160249024Y2916807D01*
X159990205Y3882733D02*
X160249024Y2916807D01*
X155031166Y3071601D02*
X159377833Y4236286D01*
X163206861Y7332824D02*
X162594488Y7686377D01*
X164112727Y3952083D02*
X163759174Y3339711D01*
X163759174Y3339711D02*
X160861396Y2563254D01*
X158342556Y8099990D02*
X158161383Y8776138D01*
X158161383Y8776138D02*
X153814717Y7611452D01*
X153814717Y7611452D02*
X153944126Y7128489D01*
X159377832Y4236286D02*
G75*
G02*
X159990205Y3882733I129410J-482963D01*
G01*
X160179673Y7039329D02*
G75*
G02*
X158342556Y8099990I-388228J1448889D01*
G01*
X137789790Y-6186249D02*
X137945081Y-6765804D01*
X145508403Y-2151028D02*
X143093589Y-2798076D01*
X143775311Y-7274151D02*
X143162939Y-6920598D01*
X142904120Y-5954672D02*
X143162939Y-6920598D01*
X137945081Y-6765804D02*
X142291748Y-5601119D01*
X146120776Y-2504581D02*
X145508403Y-2151028D01*
X147026642Y-5885322D02*
X146673089Y-6497694D01*
X146673089Y-6497694D02*
X143775311Y-7274151D01*
X141256471Y-1737415D02*
X141075298Y-1061267D01*
X141075298Y-1061267D02*
X136728632Y-2225953D01*
X136728632Y-2225953D02*
X136858041Y-2708916D01*
X142291747Y-5601119D02*
G75*
G02*
X142904120Y-5954672I129410J-482963D01*
G01*
X143093588Y-2798076D02*
G75*
G02*
X141256471Y-1737415I-388228J1448889D01*
G01*
X120046304Y-13570203D02*
X120201595Y-14149758D01*
X127764917Y-9534982D02*
X125350103Y-10182030D01*
X126031825Y-14658105D02*
X125419453Y-14304552D01*
X125160634Y-13338626D02*
X125419453Y-14304552D01*
X120201595Y-14149758D02*
X124548262Y-12985073D01*
X128377290Y-9888535D02*
X127764917Y-9534982D01*
X129283156Y-13269276D02*
X128929603Y-13881648D01*
X128929603Y-13881648D02*
X126031825Y-14658105D01*
X123512985Y-9121369D02*
X123331812Y-8445221D01*
X123331812Y-8445221D02*
X118985146Y-9609907D01*
X118985146Y-9609907D02*
X119114555Y-10092870D01*
X124548261Y-12985073D02*
G75*
G02*
X125160634Y-13338626I129410J-482963D01*
G01*
X125350102Y-10182030D02*
G75*
G02*
X123512985Y-9121369I-388228J1448889D01*
G01*
X57801327Y-46748508D02*
X57646035Y-47328064D01*
X66503452Y-47113211D02*
X64088638Y-46466164D01*
X62440989Y-50683420D02*
X62087436Y-50071048D01*
X62346255Y-49105122D02*
X62087436Y-50071048D01*
X57646035Y-47328064D02*
X61992701Y-48492750D01*
X66857006Y-47725584D02*
X66503452Y-47113211D01*
X65951139Y-51106324D02*
X65338767Y-51459877D01*
X65338767Y-51459877D02*
X62440989Y-50683420D01*
X63027978Y-44629046D02*
X63209151Y-43952898D01*
X63209151Y-43952898D02*
X58862485Y-42788212D01*
X58862485Y-42788212D02*
X58733075Y-43271175D01*
X61992702Y-48492749D02*
G75*
G02*
X62346255Y-49105122I-129410J-482963D01*
G01*
X64088637Y-46466163D02*
G75*
G02*
X63027978Y-44629046I388229J1448888D01*
G01*
X40057841Y-39364554D02*
X39902549Y-39944110D01*
X48759966Y-39729257D02*
X46345152Y-39082210D01*
X44697503Y-43299466D02*
X44343950Y-42687094D01*
X44602769Y-41721168D02*
X44343950Y-42687094D01*
X39902549Y-39944110D02*
X44249215Y-41108796D01*
X49113520Y-40341630D02*
X48759966Y-39729257D01*
X48207653Y-43722370D02*
X47595281Y-44075923D01*
X47595281Y-44075923D02*
X44697503Y-43299466D01*
X45284492Y-37245092D02*
X45465665Y-36568944D01*
X45465665Y-36568944D02*
X41118999Y-35404258D01*
X41118999Y-35404258D02*
X40989589Y-35887221D01*
X44249216Y-41108795D02*
G75*
G02*
X44602769Y-41721168I-129410J-482963D01*
G01*
X46345151Y-39082209D02*
G75*
G02*
X45284492Y-37245092I388229J1448888D01*
G01*
X22971756Y-29527149D02*
X22816464Y-30106705D01*
X31673881Y-29891852D02*
X29259067Y-29244805D01*
X27611418Y-33462061D02*
X27257865Y-32849689D01*
X27516684Y-31883763D02*
X27257865Y-32849689D01*
X22816464Y-30106705D02*
X27163130Y-31271391D01*
X32027435Y-30504225D02*
X31673881Y-29891852D01*
X31121568Y-33884965D02*
X30509196Y-34238518D01*
X30509196Y-34238518D02*
X27611418Y-33462061D01*
X28198407Y-27407687D02*
X28379580Y-26731539D01*
X28379580Y-26731539D02*
X24032914Y-25566853D01*
X24032914Y-25566853D02*
X23903504Y-26049816D01*
X27163131Y-31271390D02*
G75*
G02*
X27516684Y-31883763I-129410J-482963D01*
G01*
X29259066Y-29244804D02*
G75*
G02*
X28198407Y-27407687I388229J1448888D01*
G01*
X3256069Y-29503550D02*
X3100777Y-30083106D01*
X11958194Y-29868253D02*
X9543380Y-29221206D01*
X7895731Y-33438462D02*
X7542178Y-32826090D01*
X7800997Y-31860164D02*
X7542178Y-32826090D01*
X3100777Y-30083106D02*
X7447443Y-31247792D01*
X12311748Y-30480626D02*
X11958194Y-29868253D01*
X11405881Y-33861366D02*
X10793509Y-34214919D01*
X10793509Y-34214919D02*
X7895731Y-33438462D01*
X8482720Y-27384088D02*
X8663893Y-26707940D01*
X8663893Y-26707940D02*
X4317227Y-25543254D01*
X4317227Y-25543254D02*
X4187817Y-26026217D01*
X7447444Y-31247791D02*
G75*
G02*
X7800997Y-31860164I-129410J-482963D01*
G01*
X9543379Y-29221205D02*
G75*
G02*
X8482720Y-27384088I388229J1448888D01*
G01*
X-17774417Y-34386854D02*
X-17929709Y-34966410D01*
X-9072292Y-34751557D02*
X-11487106Y-34104510D01*
X-13134755Y-38321766D02*
X-13488308Y-37709394D01*
X-13229489Y-36743468D02*
X-13488308Y-37709394D01*
X-17929709Y-34966410D02*
X-13583043Y-36131096D01*
X-8718738Y-35363930D02*
X-9072292Y-34751557D01*
X-9624605Y-38744670D02*
X-10236977Y-39098223D01*
X-10236977Y-39098223D02*
X-13134755Y-38321766D01*
X-12547766Y-32267392D02*
X-12366593Y-31591244D01*
X-12366593Y-31591244D02*
X-16713259Y-30426558D01*
X-16713259Y-30426558D02*
X-16842669Y-30909521D01*
X-13583042Y-36131095D02*
G75*
G02*
X-13229489Y-36743468I-129410J-482963D01*
G01*
X-11487107Y-34104509D02*
G75*
G02*
X-12547766Y-32267392I388229J1448888D01*
G01*
X62731829Y-28347622D02*
X62576537Y-28927178D01*
X71433954Y-28712325D02*
X69019140Y-28065278D01*
X67371491Y-32282534D02*
X67017938Y-31670162D01*
X67276757Y-30704236D02*
X67017938Y-31670162D01*
X62576537Y-28927178D02*
X66923203Y-30091864D01*
X71787508Y-29324698D02*
X71433954Y-28712325D01*
X70881641Y-32705438D02*
X70269269Y-33058991D01*
X70269269Y-33058991D02*
X67371491Y-32282534D01*
X67958480Y-26228160D02*
X68139653Y-25552012D01*
X68139653Y-25552012D02*
X63792987Y-24387326D01*
X63792987Y-24387326D02*
X63663577Y-24870289D01*
X66923204Y-30091863D02*
G75*
G02*
X67276757Y-30704236I-129410J-482963D01*
G01*
X69019139Y-28065277D02*
G75*
G02*
X67958480Y-26228160I388229J1448888D01*
G01*
X44988343Y-20963668D02*
X44833051Y-21543224D01*
X53690468Y-21328371D02*
X51275654Y-20681324D01*
X49628005Y-24898580D02*
X49274452Y-24286208D01*
X49533271Y-23320282D02*
X49274452Y-24286208D01*
X44833051Y-21543224D02*
X49179717Y-22707910D01*
X54044022Y-21940744D02*
X53690468Y-21328371D01*
X53138155Y-25321484D02*
X52525783Y-25675037D01*
X52525783Y-25675037D02*
X49628005Y-24898580D01*
X50214994Y-18844206D02*
X50396167Y-18168058D01*
X50396167Y-18168058D02*
X46049501Y-17003372D01*
X46049501Y-17003372D02*
X45920091Y-17486335D01*
X49179718Y-22707909D02*
G75*
G02*
X49533271Y-23320282I-129410J-482963D01*
G01*
X51275653Y-20681323D02*
G75*
G02*
X50214994Y-18844206I388229J1448888D01*
G01*
X27902258Y-11126263D02*
X27746966Y-11705819D01*
X36604383Y-11490966D02*
X34189569Y-10843919D01*
X32541920Y-15061175D02*
X32188367Y-14448803D01*
X32447186Y-13482877D02*
X32188367Y-14448803D01*
X27746966Y-11705819D02*
X32093632Y-12870505D01*
X36957937Y-12103339D02*
X36604383Y-11490966D01*
X36052070Y-15484079D02*
X35439698Y-15837632D01*
X35439698Y-15837632D02*
X32541920Y-15061175D01*
X33128909Y-9006801D02*
X33310082Y-8330653D01*
X33310082Y-8330653D02*
X28963416Y-7165967D01*
X28963416Y-7165967D02*
X28834006Y-7648930D01*
X32093633Y-12870504D02*
G75*
G02*
X32447186Y-13482877I-129410J-482963D01*
G01*
X34189568Y-10843918D02*
G75*
G02*
X33128909Y-9006801I388229J1448888D01*
G01*
X8186571Y-11102664D02*
X8031279Y-11682220D01*
X16888696Y-11467367D02*
X14473882Y-10820320D01*
X12826233Y-15037576D02*
X12472680Y-14425204D01*
X12731499Y-13459278D02*
X12472680Y-14425204D01*
X8031279Y-11682220D02*
X12377945Y-12846906D01*
X17242250Y-12079740D02*
X16888696Y-11467367D01*
X16336383Y-15460480D02*
X15724011Y-15814033D01*
X15724011Y-15814033D02*
X12826233Y-15037576D01*
X13413222Y-8983202D02*
X13594395Y-8307054D01*
X13594395Y-8307054D02*
X9247729Y-7142368D01*
X9247729Y-7142368D02*
X9118319Y-7625331D01*
X12377946Y-12846905D02*
G75*
G02*
X12731499Y-13459278I-129410J-482963D01*
G01*
X14473881Y-10820319D02*
G75*
G02*
X13413222Y-8983202I388229J1448888D01*
G01*
X-12843915Y-15985968D02*
X-12999207Y-16565524D01*
X-4141790Y-16350671D02*
X-6556604Y-15703624D01*
X-8204253Y-19920880D02*
X-8557806Y-19308508D01*
X-8298987Y-18342582D02*
X-8557806Y-19308508D01*
X-12999207Y-16565524D02*
X-8652541Y-17730210D01*
X-3788236Y-16963044D02*
X-4141790Y-16350671D01*
X-4694103Y-20343784D02*
X-5306475Y-20697337D01*
X-5306475Y-20697337D02*
X-8204253Y-19920880D01*
X-7617264Y-13866506D02*
X-7436091Y-13190358D01*
X-7436091Y-13190358D02*
X-11782757Y-12025672D01*
X-11782757Y-12025672D02*
X-11912167Y-12508635D01*
X-8652540Y-17730209D02*
G75*
G02*
X-8298987Y-18342582I-129410J-482963D01*
G01*
X-6556605Y-15703623D02*
G75*
G02*
X-7617264Y-13866506I388229J1448888D01*
G01*
X67662331Y-9946736D02*
X67507039Y-10526292D01*
X76364456Y-10311439D02*
X73949642Y-9664392D01*
X72301993Y-13881648D02*
X71948440Y-13269276D01*
X72207259Y-12303350D02*
X71948440Y-13269276D01*
X67507039Y-10526292D02*
X71853705Y-11690978D01*
X76718010Y-10923812D02*
X76364456Y-10311439D01*
X75812143Y-14304552D02*
X75199771Y-14658105D01*
X75199771Y-14658105D02*
X72301993Y-13881648D01*
X72888982Y-7827274D02*
X73070155Y-7151126D01*
X73070155Y-7151126D02*
X68723489Y-5986440D01*
X68723489Y-5986440D02*
X68594079Y-6469403D01*
X71853706Y-11690977D02*
G75*
G02*
X72207259Y-12303350I-129410J-482963D01*
G01*
X73949641Y-9664391D02*
G75*
G02*
X72888982Y-7827274I388229J1448888D01*
G01*
X49918845Y-2562782D02*
X49763553Y-3142338D01*
X58620970Y-2927485D02*
X56206156Y-2280438D01*
X54558507Y-6497694D02*
X54204954Y-5885322D01*
X54463773Y-4919396D02*
X54204954Y-5885322D01*
X49763553Y-3142338D02*
X54110219Y-4307024D01*
X58974524Y-3539858D02*
X58620970Y-2927485D01*
X58068657Y-6920598D02*
X57456285Y-7274151D01*
X57456285Y-7274151D02*
X54558507Y-6497694D01*
X55145496Y-443320D02*
X55326669Y232828D01*
X55326669Y232828D02*
X50980003Y1397514D01*
X50980003Y1397514D02*
X50850593Y914551D01*
X54110220Y-4307023D02*
G75*
G02*
X54463773Y-4919396I-129410J-482963D01*
G01*
X56206155Y-2280437D02*
G75*
G02*
X55145496Y-443320I388229J1448888D01*
G01*
X13117073Y7298222D02*
X12961781Y6718666D01*
X21819198Y6933519D02*
X19404384Y7580566D01*
X17756735Y3363310D02*
X17403182Y3975682D01*
X17662001Y4941608D02*
X17403182Y3975682D01*
X12961781Y6718666D02*
X17308447Y5553980D01*
X22172752Y6321146D02*
X21819198Y6933519D01*
X21266885Y2940406D02*
X20654513Y2586853D01*
X20654513Y2586853D02*
X17756735Y3363310D01*
X18343724Y9417684D02*
X18524897Y10093832D01*
X18524897Y10093832D02*
X14178231Y11258518D01*
X14178231Y11258518D02*
X14048821Y10775555D01*
X17308448Y5553981D02*
G75*
G02*
X17662001Y4941608I-129410J-482963D01*
G01*
X19404383Y7580567D02*
G75*
G02*
X18343724Y9417684I388229J1448888D01*
G01*
X-7913413Y2414918D02*
X-8068705Y1835362D01*
X788712Y2050215D02*
X-1626102Y2697262D01*
X-3273751Y-1519994D02*
X-3627304Y-907622D01*
X-3368485Y58304D02*
X-3627304Y-907622D01*
X-8068705Y1835362D02*
X-3722039Y670676D01*
X1142266Y1437842D02*
X788712Y2050215D01*
X236399Y-1942898D02*
X-375973Y-2296451D01*
X-375973Y-2296451D02*
X-3273751Y-1519994D01*
X-2686762Y4534380D02*
X-2505589Y5210528D01*
X-2505589Y5210528D02*
X-6852255Y6375214D01*
X-6852255Y6375214D02*
X-6981665Y5892251D01*
X-3722038Y670677D02*
G75*
G02*
X-3368485Y58304I-129410J-482963D01*
G01*
X-1626103Y2697263D02*
G75*
G02*
X-2686762Y4534380I388229J1448888D01*
G01*
D10*
X92213000Y5337064D02*
X92213000Y4882936D01*
X90743000Y5337064D02*
X90743000Y4882936D01*
X96550748Y-33847000D02*
X97073252Y-33847000D01*
X96550748Y-35317000D02*
X97073252Y-35317000D01*
X97801000Y-14254748D02*
X97801000Y-14777252D01*
X96331000Y-14254748D02*
X96331000Y-14777252D01*
X91759000Y-19857252D02*
X91759000Y-19334748D01*
X93229000Y-19857252D02*
X93229000Y-19334748D01*
X110555000Y-21635252D02*
X110555000Y-21112748D01*
X112025000Y-21635252D02*
X112025000Y-21112748D01*
X107741252Y-35063000D02*
X107218748Y-35063000D01*
X107741252Y-33593000D02*
X107218748Y-33593000D01*
X105729000Y-14777252D02*
X105729000Y-14254748D01*
X107199000Y-14777252D02*
X107199000Y-14254748D01*
X89981000Y-33065252D02*
X89981000Y-32542748D01*
X91451000Y-33065252D02*
X91451000Y-32542748D01*
X90689000Y-26192748D02*
X90689000Y-26715252D01*
X89219000Y-26192748D02*
X89219000Y-26715252D01*
X-7112412Y14307970D02*
X-5180560Y13790332D01*
X-5180560Y13790332D02*
X-6189955Y10023221D01*
X-7112412Y14307970D02*
X-8121806Y10540859D01*
X14049958Y19112913D02*
X13040564Y15345802D01*
X15981810Y18595275D02*
X14972415Y14828164D01*
X14049958Y19112913D02*
X15981810Y18595275D01*
X33765645Y19089314D02*
X35697497Y18571676D01*
X35697497Y18571676D02*
X34688102Y14804565D01*
X33765645Y19089314D02*
X32756251Y15322203D01*
X50719846Y9330270D02*
X49710452Y5563159D01*
X52651698Y8812632D02*
X51642303Y5045521D01*
X50719846Y9330270D02*
X52651698Y8812632D01*
X68463332Y1946316D02*
X70395184Y1428678D01*
X70395184Y1428678D02*
X69385789Y-2338433D01*
X68463332Y1946316D02*
X67453938Y-1820795D01*
X-12042914Y-4092916D02*
X-13052308Y-7860027D01*
X-10111062Y-4610554D02*
X-11120457Y-8377665D01*
X-12042914Y-4092916D02*
X-10111062Y-4610554D01*
X9119456Y712027D02*
X11051308Y194389D01*
X11051308Y194389D02*
X10041913Y-3572722D01*
X9119456Y712027D02*
X8110062Y-3055084D01*
X28835143Y688428D02*
X27825749Y-3078683D01*
X30766995Y170790D02*
X29757600Y-3596321D01*
X28835143Y688428D02*
X30766995Y170790D01*
X45921228Y-9148977D02*
X47853080Y-9666615D01*
X47853080Y-9666615D02*
X46843685Y-13433726D01*
X45921228Y-9148977D02*
X44911834Y-12916088D01*
X63532830Y-16454570D02*
X62523436Y-20221681D01*
X65464682Y-16972208D02*
X64455287Y-20739319D01*
X63532830Y-16454570D02*
X65464682Y-16972208D01*
X-16973416Y-22493802D02*
X-15041564Y-23011440D01*
X-15041564Y-23011440D02*
X-16050959Y-26778551D01*
X-16973416Y-22493802D02*
X-17982810Y-26260913D01*
X4188954Y-17688859D02*
X3179560Y-21455970D01*
X6120806Y-18206497D02*
X5111411Y-21973608D01*
X4188954Y-17688859D02*
X6120806Y-18206497D01*
X23904641Y-17712458D02*
X25836493Y-18230096D01*
X25836493Y-18230096D02*
X24827098Y-21997207D01*
X23904641Y-17712458D02*
X22895247Y-21479569D01*
X40990726Y-27549863D02*
X39981332Y-31316974D01*
X42922578Y-28067501D02*
X41913183Y-31834612D01*
X40990726Y-27549863D02*
X42922578Y-28067501D01*
X58602328Y-34855456D02*
X60534180Y-35373094D01*
X60534180Y-35373094D02*
X59524785Y-39140205D01*
X58602328Y-34855456D02*
X57592934Y-38622567D01*
X114793193Y-2861858D02*
X116725045Y-2344220D01*
X116725045Y-2344220D02*
X117734439Y-6111331D01*
X114793193Y-2861858D02*
X115802588Y-6628969D01*
X132536679Y4522096D02*
X133546074Y754985D01*
X134468531Y5039734D02*
X135477925Y1272623D01*
X132536679Y4522096D02*
X134468531Y5039734D01*
X149622764Y14359501D02*
X151554616Y14877139D01*
X151554616Y14877139D02*
X152564010Y11110028D01*
X149622764Y14359501D02*
X150632159Y10592390D01*
X169338451Y14383100D02*
X170347846Y10615989D01*
X171270303Y14900738D02*
X172279697Y11133627D01*
X169338451Y14383100D02*
X171270303Y14900738D01*
X190368937Y9499797D02*
X191378332Y5732686D01*
X192300789Y10017435D02*
X193310183Y6250324D01*
X190368937Y9499797D02*
X192300789Y10017435D01*
X119723695Y-21262744D02*
X120733090Y-25029855D01*
X121655547Y-20745106D02*
X122664941Y-24512217D01*
X119723695Y-21262744D02*
X121655547Y-20745106D01*
X137467181Y-13878790D02*
X139399033Y-13361152D01*
X139399033Y-13361152D02*
X140408427Y-17128263D01*
X137467181Y-13878790D02*
X138476576Y-17645901D01*
X154553266Y-4041385D02*
X155562661Y-7808496D01*
X156485118Y-3523747D02*
X157494512Y-7290858D01*
X154553266Y-4041385D02*
X156485118Y-3523747D01*
X174268953Y-4017786D02*
X176200805Y-3500148D01*
X176200805Y-3500148D02*
X177210199Y-7267259D01*
X174268953Y-4017786D02*
X175278348Y-7784897D01*
X195299439Y-8901089D02*
X197231291Y-8383451D01*
X197231291Y-8383451D02*
X198240685Y-12150562D01*
X195299439Y-8901089D02*
X196308834Y-12668200D01*
X124654197Y-39663630D02*
X126586049Y-39145992D01*
X126586049Y-39145992D02*
X127595443Y-42913103D01*
X124654197Y-39663630D02*
X125663592Y-43430741D01*
X142397683Y-32279676D02*
X143407078Y-36046787D01*
X144329535Y-31762038D02*
X145338929Y-35529149D01*
X142397683Y-32279676D02*
X144329535Y-31762038D01*
X159483768Y-22442271D02*
X161415620Y-21924633D01*
X161415620Y-21924633D02*
X162425014Y-25691744D01*
X159483768Y-22442271D02*
X160493163Y-26209382D01*
X179199455Y-22418672D02*
X180208850Y-26185783D01*
X181131307Y-21901034D02*
X182140701Y-25668145D01*
X179199455Y-22418672D02*
X181131307Y-21901034D01*
X200229941Y-27301975D02*
X201239336Y-31069086D01*
X202161793Y-26784337D02*
X203171187Y-30551448D01*
X200229941Y-27301975D02*
X202161793Y-26784337D01*
X32641338Y-58139646D02*
X34573190Y-58657284D01*
X34573190Y-58657284D02*
X33563795Y-62424395D01*
X32641338Y-58139646D02*
X31631944Y-61906757D01*
X54647123Y-64955996D02*
X56459739Y-65801233D01*
X56459739Y-65801233D02*
X54811528Y-69335833D01*
X54647123Y-64955996D02*
X52998912Y-68490597D01*
X75076695Y-74878610D02*
X72839747Y-78073303D01*
X76714999Y-76025763D02*
X74478051Y-79220456D01*
X75076695Y-74878610D02*
X76714999Y-76025763D01*
X110704301Y-85382484D02*
X112941249Y-88577177D01*
X112342605Y-84235331D02*
X114579553Y-87430024D01*
X110704301Y-85382484D02*
X112342605Y-84235331D01*
X129498801Y-72589426D02*
X131311417Y-71744189D01*
X131311417Y-71744189D02*
X132959628Y-75278790D01*
X129498801Y-72589426D02*
X131147012Y-76124026D01*
X150635731Y-62131486D02*
X151645126Y-65898597D01*
X152567583Y-61613848D02*
X153576977Y-65380959D01*
X150635731Y-62131486D02*
X152567583Y-61613848D01*
D11*
X102520476Y15788096D02*
X102520476Y15140477D01*
X102482380Y15064286D01*
X102444285Y15026191D01*
X102368095Y14988096D01*
X102215714Y14988096D01*
X102139523Y15026191D01*
X102101428Y15064286D01*
X102063333Y15140477D01*
X102063333Y15788096D01*
X101720476Y15026191D02*
X101606190Y14988096D01*
X101415714Y14988096D01*
X101339523Y15026191D01*
X101301428Y15064286D01*
X101263333Y15140477D01*
X101263333Y15216667D01*
X101301428Y15292858D01*
X101339523Y15330953D01*
X101415714Y15369048D01*
X101568095Y15407143D01*
X101644285Y15445239D01*
X101682380Y15483334D01*
X101720476Y15559524D01*
X101720476Y15635715D01*
X101682380Y15711905D01*
X101644285Y15750000D01*
X101568095Y15788096D01*
X101377619Y15788096D01*
X101263333Y15750000D01*
X100653809Y15407143D02*
X100539523Y15369048D01*
X100501428Y15330953D01*
X100463333Y15254762D01*
X100463333Y15140477D01*
X100501428Y15064286D01*
X100539523Y15026191D01*
X100615714Y14988096D01*
X100920476Y14988096D01*
X100920476Y15788096D01*
X100653809Y15788096D01*
X100577619Y15750000D01*
X100539523Y15711905D01*
X100501428Y15635715D01*
X100501428Y15559524D01*
X100539523Y15483334D01*
X100577619Y15445239D01*
X100653809Y15407143D01*
X100920476Y15407143D01*
X99701428Y14988096D02*
X100158571Y14988096D01*
X99930000Y14988096D02*
X99930000Y15788096D01*
X100006190Y15673810D01*
X100082380Y15597620D01*
X100158571Y15559524D01*
X105556380Y13169905D02*
X106365904Y13169905D01*
X106461142Y13122286D01*
X106508761Y13074667D01*
X106556380Y12979429D01*
X106556380Y12788953D01*
X106508761Y12693715D01*
X106461142Y12646096D01*
X106365904Y12598477D01*
X105556380Y12598477D01*
X106556380Y11598477D02*
X106556380Y12169905D01*
X106556380Y11884191D02*
X105556380Y11884191D01*
X105699238Y11979429D01*
X105794476Y12074667D01*
X105842095Y12169905D01*
X104502380Y12828667D02*
X104026190Y13162000D01*
X104502380Y13400096D02*
X103502380Y13400096D01*
X103502380Y13019143D01*
X103550000Y12923905D01*
X103597619Y12876286D01*
X103692857Y12828667D01*
X103835714Y12828667D01*
X103930952Y12876286D01*
X103978571Y12923905D01*
X104026190Y13019143D01*
X104026190Y13400096D01*
X103930952Y12257239D02*
X103883333Y12352477D01*
X103835714Y12400096D01*
X103740476Y12447715D01*
X103692857Y12447715D01*
X103597619Y12400096D01*
X103550000Y12352477D01*
X103502380Y12257239D01*
X103502380Y12066762D01*
X103550000Y11971524D01*
X103597619Y11923905D01*
X103692857Y11876286D01*
X103740476Y11876286D01*
X103835714Y11923905D01*
X103883333Y11971524D01*
X103930952Y12066762D01*
X103930952Y12257239D01*
X103978571Y12352477D01*
X104026190Y12400096D01*
X104121428Y12447715D01*
X104311904Y12447715D01*
X104407142Y12400096D01*
X104454761Y12352477D01*
X104502380Y12257239D01*
X104502380Y12066762D01*
X104454761Y11971524D01*
X104407142Y11923905D01*
X104311904Y11876286D01*
X104121428Y11876286D01*
X104026190Y11923905D01*
X103978571Y11971524D01*
X103930952Y12066762D01*
X107296380Y12828667D02*
X106820190Y13162000D01*
X107296380Y13400096D02*
X106296380Y13400096D01*
X106296380Y13019143D01*
X106344000Y12923905D01*
X106391619Y12876286D01*
X106486857Y12828667D01*
X106629714Y12828667D01*
X106724952Y12876286D01*
X106772571Y12923905D01*
X106820190Y13019143D01*
X106820190Y13400096D01*
X106296380Y12495334D02*
X106296380Y11828667D01*
X107296380Y12257239D01*
X101962380Y12828667D02*
X101486190Y13162000D01*
X101962380Y13400096D02*
X100962380Y13400096D01*
X100962380Y13019143D01*
X101010000Y12923905D01*
X101057619Y12876286D01*
X101152857Y12828667D01*
X101295714Y12828667D01*
X101390952Y12876286D01*
X101438571Y12923905D01*
X101486190Y13019143D01*
X101486190Y13400096D01*
X100962380Y11971524D02*
X100962380Y12162000D01*
X101010000Y12257239D01*
X101057619Y12304858D01*
X101200476Y12400096D01*
X101390952Y12447715D01*
X101771904Y12447715D01*
X101867142Y12400096D01*
X101914761Y12352477D01*
X101962380Y12257239D01*
X101962380Y12066762D01*
X101914761Y11971524D01*
X101867142Y11923905D01*
X101771904Y11876286D01*
X101533809Y11876286D01*
X101438571Y11923905D01*
X101390952Y11971524D01*
X101343333Y12066762D01*
X101343333Y12257239D01*
X101390952Y12352477D01*
X101438571Y12400096D01*
X101533809Y12447715D01*
X112376380Y7494667D02*
X111900190Y7828000D01*
X112376380Y8066096D02*
X111376380Y8066096D01*
X111376380Y7685143D01*
X111424000Y7589905D01*
X111471619Y7542286D01*
X111566857Y7494667D01*
X111709714Y7494667D01*
X111804952Y7542286D01*
X111852571Y7589905D01*
X111900190Y7685143D01*
X111900190Y8066096D01*
X111376380Y6589905D02*
X111376380Y7066096D01*
X111852571Y7113715D01*
X111804952Y7066096D01*
X111757333Y6970858D01*
X111757333Y6732762D01*
X111804952Y6637524D01*
X111852571Y6589905D01*
X111947809Y6542286D01*
X112185904Y6542286D01*
X112281142Y6589905D01*
X112328761Y6637524D01*
X112376380Y6732762D01*
X112376380Y6970858D01*
X112328761Y7066096D01*
X112281142Y7113715D01*
X109328380Y7494667D02*
X108852190Y7828000D01*
X109328380Y8066096D02*
X108328380Y8066096D01*
X108328380Y7685143D01*
X108376000Y7589905D01*
X108423619Y7542286D01*
X108518857Y7494667D01*
X108661714Y7494667D01*
X108756952Y7542286D01*
X108804571Y7589905D01*
X108852190Y7685143D01*
X108852190Y8066096D01*
X108661714Y6637524D02*
X109328380Y6637524D01*
X108280761Y6875620D02*
X108995047Y7113715D01*
X108995047Y6494667D01*
X108916666Y18179620D02*
X109250000Y18655810D01*
X109488095Y18179620D02*
X109488095Y19179620D01*
X109107142Y19179620D01*
X109011904Y19132000D01*
X108964285Y19084381D01*
X108916666Y18989143D01*
X108916666Y18846286D01*
X108964285Y18751048D01*
X109011904Y18703429D01*
X109107142Y18655810D01*
X109488095Y18655810D01*
X108583333Y19179620D02*
X107964285Y19179620D01*
X108297619Y18798667D01*
X108154761Y18798667D01*
X108059523Y18751048D01*
X108011904Y18703429D01*
X107964285Y18608191D01*
X107964285Y18370096D01*
X108011904Y18274858D01*
X108059523Y18227239D01*
X108154761Y18179620D01*
X108440476Y18179620D01*
X108535714Y18227239D01*
X108583333Y18274858D01*
X95962666Y15254858D02*
X96010285Y15207239D01*
X96153142Y15159620D01*
X96248380Y15159620D01*
X96391238Y15207239D01*
X96486476Y15302477D01*
X96534095Y15397715D01*
X96581714Y15588191D01*
X96581714Y15731048D01*
X96534095Y15921524D01*
X96486476Y16016762D01*
X96391238Y16112000D01*
X96248380Y16159620D01*
X96153142Y16159620D01*
X96010285Y16112000D01*
X95962666Y16064381D01*
X95486476Y15159620D02*
X95296000Y15159620D01*
X95200761Y15207239D01*
X95153142Y15254858D01*
X95057904Y15397715D01*
X95010285Y15588191D01*
X95010285Y15969143D01*
X95057904Y16064381D01*
X95105523Y16112000D01*
X95200761Y16159620D01*
X95391238Y16159620D01*
X95486476Y16112000D01*
X95534095Y16064381D01*
X95581714Y15969143D01*
X95581714Y15731048D01*
X95534095Y15635810D01*
X95486476Y15588191D01*
X95391238Y15540572D01*
X95200761Y15540572D01*
X95105523Y15588191D01*
X95057904Y15635810D01*
X95010285Y15731048D01*
X93676666Y21350858D02*
X93724285Y21303239D01*
X93867142Y21255620D01*
X93962380Y21255620D01*
X94105238Y21303239D01*
X94200476Y21398477D01*
X94248095Y21493715D01*
X94295714Y21684191D01*
X94295714Y21827048D01*
X94248095Y22017524D01*
X94200476Y22112762D01*
X94105238Y22208000D01*
X93962380Y22255620D01*
X93867142Y22255620D01*
X93724285Y22208000D01*
X93676666Y22160381D01*
X92819523Y22255620D02*
X93010000Y22255620D01*
X93105238Y22208000D01*
X93152857Y22160381D01*
X93248095Y22017524D01*
X93295714Y21827048D01*
X93295714Y21446096D01*
X93248095Y21350858D01*
X93200476Y21303239D01*
X93105238Y21255620D01*
X92914761Y21255620D01*
X92819523Y21303239D01*
X92771904Y21350858D01*
X92724285Y21446096D01*
X92724285Y21684191D01*
X92771904Y21779429D01*
X92819523Y21827048D01*
X92914761Y21874667D01*
X93105238Y21874667D01*
X93200476Y21827048D01*
X93248095Y21779429D01*
X93295714Y21684191D01*
X102399904Y-32594380D02*
X102399904Y-33403904D01*
X102352285Y-33499142D01*
X102304666Y-33546761D01*
X102209428Y-33594380D01*
X102018952Y-33594380D01*
X101923714Y-33546761D01*
X101876095Y-33499142D01*
X101828476Y-33403904D01*
X101828476Y-32594380D01*
X101399904Y-32689619D02*
X101352285Y-32642000D01*
X101257047Y-32594380D01*
X101018952Y-32594380D01*
X100923714Y-32642000D01*
X100876095Y-32689619D01*
X100828476Y-32784857D01*
X100828476Y-32880095D01*
X100876095Y-33022952D01*
X101447523Y-33594380D01*
X100828476Y-33594380D01*
X102114190Y-12042190D02*
X102114190Y-12518380D01*
X102447523Y-11518380D02*
X102114190Y-12042190D01*
X101780857Y-11518380D01*
X100923714Y-12518380D02*
X101495142Y-12518380D01*
X101209428Y-12518380D02*
X101209428Y-11518380D01*
X101304666Y-11661238D01*
X101399904Y-11756476D01*
X101495142Y-11804095D01*
X89772380Y-13841333D02*
X89296190Y-13508000D01*
X89772380Y-13269904D02*
X88772380Y-13269904D01*
X88772380Y-13650857D01*
X88820000Y-13746095D01*
X88867619Y-13793714D01*
X88962857Y-13841333D01*
X89105714Y-13841333D01*
X89200952Y-13793714D01*
X89248571Y-13746095D01*
X89296190Y-13650857D01*
X89296190Y-13269904D01*
X88867619Y-14222285D02*
X88820000Y-14269904D01*
X88772380Y-14365142D01*
X88772380Y-14603238D01*
X88820000Y-14698476D01*
X88867619Y-14746095D01*
X88962857Y-14793714D01*
X89058095Y-14793714D01*
X89200952Y-14746095D01*
X89772380Y-14174666D01*
X89772380Y-14793714D01*
X113900380Y-30859333D02*
X113424190Y-30526000D01*
X113900380Y-30287904D02*
X112900380Y-30287904D01*
X112900380Y-30668857D01*
X112948000Y-30764095D01*
X112995619Y-30811714D01*
X113090857Y-30859333D01*
X113233714Y-30859333D01*
X113328952Y-30811714D01*
X113376571Y-30764095D01*
X113424190Y-30668857D01*
X113424190Y-30287904D01*
X113900380Y-31811714D02*
X113900380Y-31240285D01*
X113900380Y-31526000D02*
X112900380Y-31526000D01*
X113043238Y-31430761D01*
X113138476Y-31335523D01*
X113186095Y-31240285D01*
X37914777Y13361959D02*
X37764462Y13352937D01*
X37534480Y13414561D01*
X37454812Y13485207D01*
X37421140Y13543528D01*
X37399793Y13647845D01*
X37424442Y13739838D01*
X37495088Y13819507D01*
X37553410Y13853178D01*
X37657727Y13874525D01*
X37854038Y13871223D01*
X37958355Y13892570D01*
X38016677Y13926242D01*
X38087323Y14005910D01*
X38111972Y14097903D01*
X38090625Y14202221D01*
X38056953Y14260542D01*
X37977285Y14331188D01*
X37747303Y14392811D01*
X37596989Y14383789D01*
X37287338Y14516058D02*
X36798537Y13611756D01*
X36799421Y14351002D01*
X36430565Y13710354D01*
X36459402Y14737903D01*
X35591189Y14625448D02*
X35418643Y13981498D01*
X35919769Y14931796D02*
X35964880Y14180226D01*
X35366926Y14340447D01*
X199690798Y12391258D02*
X200012774Y12477531D01*
X199831600Y13153679D01*
X199348638Y13024269D02*
X198930070Y12912114D01*
X199224471Y12714925D01*
X199127878Y12689043D01*
X199072110Y12639591D01*
X199048540Y12598766D01*
X199033597Y12525744D01*
X199076734Y12364756D01*
X199126186Y12308988D01*
X199167011Y12285418D01*
X199240033Y12270475D01*
X199433218Y12322239D01*
X199488986Y12371691D01*
X199512556Y12412516D01*
X198350514Y12756823D02*
X198479304Y12791332D01*
X198552327Y12776389D01*
X198593151Y12752819D01*
X198683428Y12673481D01*
X198750135Y12553318D01*
X198819154Y12295738D01*
X198804211Y12222715D01*
X198780640Y12181891D01*
X198724873Y12132439D01*
X198596083Y12097929D01*
X198523060Y12112872D01*
X198482235Y12136442D01*
X198432783Y12192210D01*
X198389647Y12353198D01*
X198404590Y12426220D01*
X198428160Y12467045D01*
X198483928Y12516497D01*
X198612718Y12551006D01*
X198685740Y12536063D01*
X198726565Y12512493D01*
X198776017Y12456725D01*
X204621300Y-6009628D02*
X204943276Y-5923355D01*
X204762102Y-5247207D01*
X204279140Y-5376617D02*
X203860572Y-5488772D01*
X204154973Y-5685961D01*
X204058380Y-5711843D01*
X204002612Y-5761295D01*
X203979042Y-5802120D01*
X203964099Y-5875142D01*
X204007236Y-6036130D01*
X204056688Y-6091898D01*
X204097513Y-6115468D01*
X204170535Y-6130411D01*
X204363720Y-6078647D01*
X204419488Y-6029195D01*
X204443058Y-5988370D01*
X203248819Y-5652691D02*
X203570794Y-5566418D01*
X203689264Y-5879765D01*
X203648440Y-5856195D01*
X203575417Y-5841252D01*
X203414430Y-5884389D01*
X203358662Y-5933841D01*
X203335092Y-5974666D01*
X203320149Y-6047688D01*
X203363285Y-6208676D01*
X203412737Y-6264444D01*
X203453562Y-6288014D01*
X203526585Y-6302957D01*
X203687572Y-6259820D01*
X203743340Y-6210368D01*
X203766910Y-6169543D01*
X209551802Y-24410514D02*
X209873778Y-24324241D01*
X209692604Y-23648093D01*
X209209642Y-23777503D02*
X208791074Y-23889658D01*
X209085475Y-24086847D01*
X208988882Y-24112729D01*
X208933114Y-24162181D01*
X208909544Y-24203006D01*
X208894601Y-24276028D01*
X208937738Y-24437016D01*
X208987190Y-24492784D01*
X209028015Y-24516354D01*
X209101037Y-24531297D01*
X209294222Y-24479533D01*
X209349990Y-24430081D01*
X209373560Y-24389256D01*
X208271909Y-24270332D02*
X208392691Y-24721097D01*
X208363878Y-23969615D02*
X208654276Y-24409442D01*
X208235708Y-24521597D01*
X188575105Y-23205284D02*
X188253129Y-23291557D01*
X188434303Y-23967705D01*
X188917265Y-23838295D02*
X189335833Y-23726140D01*
X189041432Y-23528951D01*
X189138025Y-23503069D01*
X189193793Y-23453617D01*
X189217363Y-23412792D01*
X189232306Y-23339770D01*
X189189169Y-23178782D01*
X189139717Y-23123014D01*
X189098892Y-23099444D01*
X189025870Y-23084501D01*
X188832685Y-23136265D01*
X188776917Y-23185717D01*
X188753347Y-23226542D01*
X189561216Y-23665749D02*
X189979784Y-23553594D01*
X189685383Y-23356405D01*
X189781975Y-23330523D01*
X189837743Y-23281071D01*
X189861313Y-23240246D01*
X189876256Y-23167224D01*
X189833120Y-23006236D01*
X189783668Y-22950468D01*
X189742843Y-22926898D01*
X189669820Y-22911955D01*
X189476635Y-22963719D01*
X189420868Y-23013171D01*
X189397297Y-23053996D01*
X183644603Y-4804398D02*
X183322627Y-4890671D01*
X183503801Y-5566819D01*
X183986763Y-5437409D02*
X184405331Y-5325254D01*
X184110930Y-5128065D01*
X184207523Y-5102183D01*
X184263291Y-5052731D01*
X184286861Y-5011906D01*
X184301804Y-4938884D01*
X184258667Y-4777896D01*
X184209215Y-4722128D01*
X184168390Y-4698558D01*
X184095368Y-4683615D01*
X183902183Y-4735379D01*
X183846415Y-4784831D01*
X183822845Y-4825656D01*
X184645657Y-5191841D02*
X184686482Y-5215411D01*
X184759504Y-5230354D01*
X184920492Y-5187217D01*
X184976260Y-5137765D01*
X184999830Y-5096940D01*
X185014773Y-5023918D01*
X184997518Y-4959523D01*
X184939439Y-4871558D01*
X184449541Y-4588715D01*
X184868109Y-4476560D01*
X178714101Y13596488D02*
X178392125Y13510215D01*
X178573299Y12834067D01*
X179056261Y12963477D02*
X179474829Y13075632D01*
X179180428Y13272821D01*
X179277021Y13298703D01*
X179332789Y13348155D01*
X179356359Y13388980D01*
X179371302Y13462002D01*
X179328165Y13622990D01*
X179278713Y13678758D01*
X179237888Y13702328D01*
X179164866Y13717271D01*
X178971681Y13665507D01*
X178915913Y13616055D01*
X178892343Y13575230D01*
X179937607Y13924326D02*
X179551236Y13820798D01*
X179744421Y13872562D02*
X179925595Y13196414D01*
X179835318Y13275752D01*
X179753668Y13322892D01*
X179680646Y13337835D01*
X158944625Y17250962D02*
X159266601Y17337235D01*
X159085427Y18013383D01*
X158602465Y17883973D02*
X158183897Y17771818D01*
X158478298Y17574629D01*
X158381705Y17548747D01*
X158325937Y17499295D01*
X158302367Y17458470D01*
X158287424Y17385448D01*
X158330561Y17224460D01*
X158380013Y17168692D01*
X158420838Y17145122D01*
X158493860Y17130179D01*
X158687045Y17181943D01*
X158742813Y17231395D01*
X158766383Y17272220D01*
X157765329Y17659663D02*
X157700934Y17642409D01*
X157645166Y17592957D01*
X157621596Y17552132D01*
X157606653Y17479109D01*
X157608965Y17341692D01*
X157652101Y17180704D01*
X157718808Y17060542D01*
X157768260Y17004774D01*
X157809085Y16981204D01*
X157882107Y16966261D01*
X157946502Y16983515D01*
X158002270Y17032967D01*
X158025840Y17073792D01*
X158040783Y17146815D01*
X158038471Y17284232D01*
X157995335Y17445220D01*
X157928628Y17565382D01*
X157879176Y17621150D01*
X157838351Y17644720D01*
X157765329Y17659663D01*
X163875127Y-1149924D02*
X164197103Y-1063651D01*
X164015929Y-387503D01*
X163518024Y-589935D02*
X163477199Y-566365D01*
X163404176Y-551422D01*
X163243189Y-594559D01*
X163187421Y-644011D01*
X163163851Y-684836D01*
X163148908Y-757858D01*
X163166162Y-822253D01*
X163224242Y-910218D01*
X163714140Y-1193061D01*
X163295572Y-1305216D01*
X162973597Y-1391489D02*
X162844807Y-1425998D01*
X162771784Y-1411055D01*
X162730959Y-1387485D01*
X162640682Y-1308147D01*
X162573976Y-1187984D01*
X162504957Y-930404D01*
X162519900Y-857382D01*
X162543470Y-816557D01*
X162599238Y-767105D01*
X162728028Y-732595D01*
X162801051Y-747538D01*
X162841876Y-771109D01*
X162891328Y-826876D01*
X162934464Y-987864D01*
X162919521Y-1060886D01*
X162895951Y-1101711D01*
X162840183Y-1151163D01*
X162711393Y-1185672D01*
X162638371Y-1170730D01*
X162597546Y-1147159D01*
X162548094Y-1091392D01*
X168805629Y-19550810D02*
X169127605Y-19464537D01*
X168946431Y-18788389D01*
X168448526Y-18990821D02*
X168407701Y-18967251D01*
X168334678Y-18952308D01*
X168173691Y-18995445D01*
X168117923Y-19044897D01*
X168094353Y-19085722D01*
X168079410Y-19158744D01*
X168096664Y-19223139D01*
X168154744Y-19311104D01*
X168644642Y-19593947D01*
X168226074Y-19706102D01*
X167736176Y-19423259D02*
X167791944Y-19373807D01*
X167815514Y-19332982D01*
X167830457Y-19259960D01*
X167821830Y-19227762D01*
X167772378Y-19171995D01*
X167731553Y-19148424D01*
X167658530Y-19133481D01*
X167529740Y-19167991D01*
X167473972Y-19217443D01*
X167450402Y-19258268D01*
X167435459Y-19331290D01*
X167444087Y-19363487D01*
X167493539Y-19419255D01*
X167534364Y-19442825D01*
X167607386Y-19457768D01*
X167736176Y-19423259D01*
X167809198Y-19438202D01*
X167850023Y-19461772D01*
X167899475Y-19517540D01*
X167933985Y-19646330D01*
X167919042Y-19719353D01*
X167895471Y-19760177D01*
X167839704Y-19809629D01*
X167710914Y-19844139D01*
X167637891Y-19829196D01*
X167597066Y-19805626D01*
X167547614Y-19749858D01*
X167513105Y-19621068D01*
X167528048Y-19548045D01*
X167551618Y-19507220D01*
X167607386Y-19457768D01*
X151773333Y-33066288D02*
X151451357Y-33152561D01*
X151632531Y-33828709D01*
X152130436Y-33626277D02*
X152171261Y-33649847D01*
X152244284Y-33664790D01*
X152405271Y-33621653D01*
X152461039Y-33572201D01*
X152484609Y-33531376D01*
X152499552Y-33458354D01*
X152482298Y-33393959D01*
X152424218Y-33305994D01*
X151934320Y-33023151D01*
X152352888Y-32910996D01*
X152759444Y-33526753D02*
X153210209Y-33405971D01*
X152739258Y-32807469D01*
X146842831Y-14665402D02*
X146520855Y-14751675D01*
X146702029Y-15427823D01*
X147199934Y-15225391D02*
X147240759Y-15248961D01*
X147313782Y-15263904D01*
X147474769Y-15220767D01*
X147530537Y-15171315D01*
X147554107Y-15130490D01*
X147569050Y-15057468D01*
X147551796Y-14993073D01*
X147493716Y-14905108D01*
X147003818Y-14622265D01*
X147422386Y-14510110D01*
X148183115Y-15030967D02*
X148054325Y-15065476D01*
X147981302Y-15050533D01*
X147940478Y-15026963D01*
X147850201Y-14947625D01*
X147783494Y-14827462D01*
X147714475Y-14569882D01*
X147729418Y-14496859D01*
X147752989Y-14456035D01*
X147808756Y-14406583D01*
X147937546Y-14372073D01*
X148010569Y-14387016D01*
X148051394Y-14410586D01*
X148100846Y-14466354D01*
X148143982Y-14627342D01*
X148129039Y-14700364D01*
X148105469Y-14741189D01*
X148049701Y-14790641D01*
X147920911Y-14825150D01*
X147847889Y-14810207D01*
X147807064Y-14786637D01*
X147757612Y-14730869D01*
X141912329Y3735484D02*
X141590353Y3649211D01*
X141771527Y2973063D01*
X142269432Y3175495D02*
X142310257Y3151925D01*
X142383280Y3136982D01*
X142544267Y3180119D01*
X142600035Y3229571D01*
X142623605Y3270396D01*
X142638548Y3343418D01*
X142621294Y3407813D01*
X142563214Y3495778D01*
X142073316Y3778621D01*
X142491884Y3890776D01*
X143284810Y3378547D02*
X142962835Y3292274D01*
X142844365Y3605621D01*
X142885189Y3582051D01*
X142958212Y3567108D01*
X143119199Y3610245D01*
X143174967Y3659697D01*
X143198537Y3700522D01*
X143213480Y3773544D01*
X143170344Y3934532D01*
X143120892Y3990300D01*
X143080067Y4013870D01*
X143007044Y4028813D01*
X142846057Y3985676D01*
X142790289Y3936224D01*
X142766719Y3895399D01*
X124115054Y29603D02*
X124437030Y115876D01*
X124255856Y792024D01*
X123757951Y589592D02*
X123717126Y613162D01*
X123644103Y628105D01*
X123483116Y584968D01*
X123427348Y535516D01*
X123403778Y494691D01*
X123388835Y421669D01*
X123406089Y357274D01*
X123464169Y269309D01*
X123954067Y-13534D01*
X123535499Y-125689D01*
X122835161Y169785D02*
X122955943Y-280980D01*
X122927130Y470502D02*
X123217528Y30675D01*
X122798960Y-81480D01*
X129045556Y-18371283D02*
X129367532Y-18285010D01*
X129186358Y-17608862D01*
X128688453Y-17811294D02*
X128647628Y-17787724D01*
X128574605Y-17772781D01*
X128413618Y-17815918D01*
X128357850Y-17865370D01*
X128334280Y-17906195D01*
X128319337Y-17979217D01*
X128336591Y-18043612D01*
X128394671Y-18131577D01*
X128884569Y-18414420D01*
X128466001Y-18526575D01*
X128059445Y-17910818D02*
X127640877Y-18022973D01*
X127935278Y-18220162D01*
X127838686Y-18246044D01*
X127782918Y-18295496D01*
X127759348Y-18336321D01*
X127744405Y-18409343D01*
X127787541Y-18570331D01*
X127836993Y-18626099D01*
X127877818Y-18649669D01*
X127950841Y-18664612D01*
X128144026Y-18612848D01*
X128199793Y-18563396D01*
X128223364Y-18522571D01*
X133976058Y-36772169D02*
X134298034Y-36685896D01*
X134116860Y-36009748D01*
X133618955Y-36212180D02*
X133578130Y-36188610D01*
X133505107Y-36173667D01*
X133344120Y-36216804D01*
X133288352Y-36266256D01*
X133264782Y-36307081D01*
X133249839Y-36380103D01*
X133267093Y-36444498D01*
X133325173Y-36532463D01*
X133815071Y-36815306D01*
X133396503Y-36927461D01*
X132975004Y-36384726D02*
X132934179Y-36361156D01*
X132861157Y-36346213D01*
X132700169Y-36389350D01*
X132644401Y-36438802D01*
X132620831Y-36479627D01*
X132605888Y-36552649D01*
X132623143Y-36617044D01*
X132681222Y-36705009D01*
X133171120Y-36987852D01*
X132752552Y-37100007D01*
X159937048Y-60056359D02*
X160259024Y-59970086D01*
X160077850Y-59293938D01*
X159579945Y-59496370D02*
X159539120Y-59472800D01*
X159466097Y-59457857D01*
X159305110Y-59500994D01*
X159249342Y-59550446D01*
X159225772Y-59591271D01*
X159210829Y-59664293D01*
X159228083Y-59728688D01*
X159286163Y-59816653D01*
X159776061Y-60099496D01*
X159357493Y-60211651D01*
X158713542Y-60384197D02*
X159099913Y-60280669D01*
X158906728Y-60332433D02*
X158725554Y-59656285D01*
X158815831Y-59735623D01*
X158897481Y-59782763D01*
X158970503Y-59797706D01*
X138400595Y-68352630D02*
X138702698Y-68211757D01*
X138406865Y-67577342D01*
X137951675Y-67863158D02*
X137907378Y-67847035D01*
X137832870Y-67845000D01*
X137681819Y-67915436D01*
X137635485Y-67973821D01*
X137619362Y-68018118D01*
X137617327Y-68092626D01*
X137645501Y-68153047D01*
X137717973Y-68229590D01*
X138249544Y-68423066D01*
X137856810Y-68606201D01*
X137168244Y-68154920D02*
X137107824Y-68183094D01*
X137061491Y-68241479D01*
X137045368Y-68285777D01*
X137043332Y-68360285D01*
X137069471Y-68495213D01*
X137139907Y-68646264D01*
X137226466Y-68753018D01*
X137284851Y-68799351D01*
X137329149Y-68815474D01*
X137403657Y-68817510D01*
X137464077Y-68789335D01*
X137510410Y-68730950D01*
X137526533Y-68686653D01*
X137528569Y-68612145D01*
X137502430Y-68477217D01*
X137431994Y-68326166D01*
X137345434Y-68219412D01*
X137287050Y-68173079D01*
X137242752Y-68156956D01*
X137168244Y-68154920D01*
X118685174Y-79644756D02*
X118958225Y-79453564D01*
X118556722Y-78880158D01*
X118193683Y-79988902D02*
X118521344Y-79759472D01*
X118357514Y-79874187D02*
X117956010Y-79300780D01*
X118067978Y-79344457D01*
X118160826Y-79360829D01*
X118234556Y-79349896D01*
X117920633Y-80180094D02*
X117811412Y-80256571D01*
X117737683Y-80267504D01*
X117691259Y-80259319D01*
X117579291Y-80215642D01*
X117475509Y-80125541D01*
X117322555Y-79907100D01*
X117311622Y-79833371D01*
X117319808Y-79786947D01*
X117355299Y-79721403D01*
X117464519Y-79644926D01*
X117538248Y-79633993D01*
X117584673Y-79642179D01*
X117650216Y-79677670D01*
X117745812Y-79814195D01*
X117756745Y-79887924D01*
X117748560Y-79934349D01*
X117713069Y-79999892D01*
X117603848Y-80076369D01*
X117530119Y-80087302D01*
X117483695Y-80079117D01*
X117418151Y-80043626D01*
X83283657Y-80160975D02*
X83556708Y-80352167D01*
X83958212Y-79778761D01*
X82792166Y-79816829D02*
X83119827Y-80046260D01*
X82955997Y-79931544D02*
X83357500Y-79358138D01*
X83354753Y-79478292D01*
X83371124Y-79571140D01*
X83406615Y-79636684D01*
X82693936Y-79259738D02*
X82767665Y-79270671D01*
X82814090Y-79262485D01*
X82879633Y-79226994D01*
X82898752Y-79199689D01*
X82909686Y-79125960D01*
X82901500Y-79079536D01*
X82866009Y-79013992D01*
X82756789Y-78937515D01*
X82683059Y-78926582D01*
X82636635Y-78934768D01*
X82571091Y-78970259D01*
X82551972Y-78997564D01*
X82541039Y-79071293D01*
X82549225Y-79117717D01*
X82584716Y-79183261D01*
X82693936Y-79259738D01*
X82729427Y-79325281D01*
X82737613Y-79371706D01*
X82726679Y-79445435D01*
X82650202Y-79554655D01*
X82584659Y-79590146D01*
X82538235Y-79598332D01*
X82464505Y-79587399D01*
X82355285Y-79510922D01*
X82319794Y-79445378D01*
X82311608Y-79398954D01*
X82322542Y-79325225D01*
X82399019Y-79216004D01*
X82464562Y-79180513D01*
X82510986Y-79172328D01*
X82584716Y-79183261D01*
X63646677Y-68732986D02*
X63948779Y-68873859D01*
X64244612Y-68239443D01*
X63102892Y-68479415D02*
X63465415Y-68648463D01*
X63284154Y-68563939D02*
X63579987Y-67929523D01*
X63598145Y-68048329D01*
X63630391Y-68136924D01*
X63676724Y-68195309D01*
X63187253Y-67746389D02*
X62764310Y-67549167D01*
X62740369Y-68310368D01*
X42163880Y-60289297D02*
X42485855Y-60375570D01*
X42667028Y-59699422D01*
X41584324Y-60134005D02*
X41970695Y-60237533D01*
X41777509Y-60185769D02*
X41958683Y-59509621D01*
X41997196Y-59623468D01*
X42044336Y-59705118D01*
X42100104Y-59754570D01*
X41185942Y-59302566D02*
X41314732Y-59337075D01*
X41370500Y-59386527D01*
X41394070Y-59427352D01*
X41432583Y-59541199D01*
X41430272Y-59678616D01*
X41361253Y-59936197D01*
X41311801Y-59991964D01*
X41270976Y-60015535D01*
X41197954Y-60030478D01*
X41069164Y-59995968D01*
X41013396Y-59946516D01*
X40989826Y-59905691D01*
X40974883Y-59832669D01*
X41018019Y-59671681D01*
X41067472Y-59615914D01*
X41108296Y-59592343D01*
X41181319Y-59577400D01*
X41310109Y-59611910D01*
X41365877Y-59661362D01*
X41389447Y-59702187D01*
X41404390Y-59775209D01*
X68124870Y-37005107D02*
X68446845Y-37091380D01*
X68628018Y-36415232D01*
X67545314Y-36849815D02*
X67931685Y-36953343D01*
X67738499Y-36901579D02*
X67919673Y-36225431D01*
X67958186Y-36339278D01*
X68005326Y-36420928D01*
X68061094Y-36470380D01*
X67114735Y-36009748D02*
X67436710Y-36096021D01*
X67382634Y-36426624D01*
X67359064Y-36385799D01*
X67303296Y-36336347D01*
X67142309Y-36293210D01*
X67069286Y-36308153D01*
X67028462Y-36331724D01*
X66979009Y-36387491D01*
X66935873Y-36548479D01*
X66950816Y-36621501D01*
X66974386Y-36662326D01*
X67030154Y-36711778D01*
X67191141Y-36754915D01*
X67264164Y-36739972D01*
X67304989Y-36716402D01*
X73055372Y-18604221D02*
X73377347Y-18690494D01*
X73558520Y-18014346D01*
X72475816Y-18448929D02*
X72862187Y-18552457D01*
X72669001Y-18500693D02*
X72850175Y-17824545D01*
X72888688Y-17938392D01*
X72935828Y-18020042D01*
X72991596Y-18069494D01*
X72017043Y-17842872D02*
X71896261Y-18293638D01*
X72247049Y-17628429D02*
X72278627Y-18154528D01*
X71860059Y-18042373D01*
X77985874Y-203335D02*
X78307849Y-289608D01*
X78489022Y386540D01*
X77406318Y-48043D02*
X77792689Y-151571D01*
X77599503Y-99807D02*
X77780677Y576341D01*
X77819190Y462494D01*
X77866330Y380844D01*
X77922098Y331392D01*
X77362109Y688496D02*
X76943541Y800651D01*
X77099905Y482680D01*
X77003313Y508562D01*
X76930290Y493619D01*
X76889466Y470048D01*
X76840013Y414281D01*
X76796877Y253293D01*
X76811820Y180271D01*
X76835390Y139446D01*
X76891158Y89994D01*
X77084343Y38230D01*
X77157365Y53173D01*
X77198190Y76743D01*
X58449933Y3968422D02*
X58127958Y4054695D01*
X57946785Y3378547D01*
X59029489Y3813130D02*
X58643118Y3916658D01*
X58836304Y3864894D02*
X58655130Y3188746D01*
X58616617Y3302593D01*
X58569477Y3384243D01*
X58513709Y3433695D01*
X59123150Y3132359D02*
X59146720Y3091534D01*
X59202488Y3042082D01*
X59363476Y2998945D01*
X59436498Y3013888D01*
X59477323Y3037458D01*
X59526775Y3093226D01*
X59544030Y3157621D01*
X59537714Y3262841D01*
X59254871Y3752739D01*
X59673439Y3640584D01*
X53519431Y-14432464D02*
X53197456Y-14346191D01*
X53016283Y-15022339D01*
X54098987Y-14587756D02*
X53712616Y-14484228D01*
X53905802Y-14535992D02*
X53724628Y-15212140D01*
X53686115Y-15098293D01*
X53638975Y-15016643D01*
X53583207Y-14967191D01*
X54742937Y-14760302D02*
X54356567Y-14656774D01*
X54549752Y-14708538D02*
X54368579Y-15384686D01*
X54330066Y-15270839D01*
X54282925Y-15189189D01*
X54227157Y-15139737D01*
X48588929Y-32833350D02*
X48266954Y-32747077D01*
X48085781Y-33423225D01*
X49168485Y-32988642D02*
X48782114Y-32885114D01*
X48975300Y-32936878D02*
X48794126Y-33613026D01*
X48755613Y-33499179D01*
X48708473Y-33417529D01*
X48652705Y-33368077D01*
X49405879Y-33776945D02*
X49470274Y-33794199D01*
X49543297Y-33779257D01*
X49584122Y-33755686D01*
X49633574Y-33699919D01*
X49700280Y-33579756D01*
X49743417Y-33418768D01*
X49745729Y-33281351D01*
X49730786Y-33208328D01*
X49707215Y-33167503D01*
X49651448Y-33118051D01*
X49587053Y-33100797D01*
X49514030Y-33115740D01*
X49473205Y-33139310D01*
X49423753Y-33195078D01*
X49357047Y-33315240D01*
X49313910Y-33476228D01*
X49311598Y-33613646D01*
X49326541Y-33686668D01*
X49350112Y-33727493D01*
X49405879Y-33776945D01*
X32973323Y-19697475D02*
X33295299Y-19783748D01*
X33476472Y-19107600D01*
X32715743Y-19628456D02*
X32586953Y-19593947D01*
X32531185Y-19544495D01*
X32507615Y-19503670D01*
X32469102Y-19389823D01*
X32471414Y-19252405D01*
X32540432Y-18994825D01*
X32589884Y-18939057D01*
X32630709Y-18915487D01*
X32703731Y-18900544D01*
X32832522Y-18935053D01*
X32888289Y-18984506D01*
X32911860Y-19025330D01*
X32926802Y-19098353D01*
X32883666Y-19259340D01*
X32834214Y-19315108D01*
X32793389Y-19338678D01*
X32720367Y-19353621D01*
X32591577Y-19319112D01*
X32535809Y-19269660D01*
X32512239Y-19228835D01*
X32497296Y-19155813D01*
X37903825Y-1296589D02*
X38225801Y-1382862D01*
X38406974Y-706714D01*
X37685378Y-823945D02*
X37758400Y-809002D01*
X37799225Y-785432D01*
X37848677Y-729664D01*
X37857304Y-697467D01*
X37842362Y-624444D01*
X37818791Y-583620D01*
X37763024Y-534167D01*
X37634233Y-499658D01*
X37561211Y-514601D01*
X37520386Y-538171D01*
X37470934Y-593939D01*
X37462307Y-626137D01*
X37477250Y-699159D01*
X37500820Y-739984D01*
X37556588Y-789436D01*
X37685378Y-823945D01*
X37741146Y-873397D01*
X37764716Y-914222D01*
X37779659Y-987245D01*
X37745150Y-1116035D01*
X37695697Y-1171802D01*
X37654873Y-1195373D01*
X37581850Y-1210316D01*
X37453060Y-1175806D01*
X37397292Y-1126354D01*
X37373722Y-1085529D01*
X37358779Y-1012507D01*
X37393288Y-883717D01*
X37442741Y-827949D01*
X37483565Y-804379D01*
X37556588Y-789436D01*
X42834327Y17104297D02*
X43156303Y17018024D01*
X43337476Y17694172D01*
X42854513Y17823582D02*
X42403748Y17944364D01*
X42512352Y17190570D01*
X21970137Y13743153D02*
X21648161Y13829426D01*
X21466988Y13153278D01*
X22304124Y12928968D02*
X22175334Y12963477D01*
X22119566Y13012929D01*
X22095996Y13053754D01*
X22057482Y13167601D01*
X22059794Y13305018D01*
X22128812Y13562599D01*
X22178265Y13618366D01*
X22219089Y13641937D01*
X22292112Y13656880D01*
X22420902Y13622370D01*
X22476670Y13572918D01*
X22500240Y13532093D01*
X22515183Y13459071D01*
X22472046Y13298083D01*
X22422594Y13242316D01*
X22381769Y13218745D01*
X22308747Y13203802D01*
X22179957Y13238312D01*
X22124189Y13287764D01*
X22100619Y13328589D01*
X22085676Y13401611D01*
X17039635Y-4657733D02*
X16717659Y-4571460D01*
X16536486Y-5247608D01*
X17405819Y-5480546D02*
X17083844Y-5394273D01*
X17137919Y-5063670D01*
X17161490Y-5104495D01*
X17217257Y-5153947D01*
X17378245Y-5197084D01*
X17451267Y-5182141D01*
X17492092Y-5158570D01*
X17541544Y-5102803D01*
X17584681Y-4941815D01*
X17569738Y-4868793D01*
X17546168Y-4827968D01*
X17490400Y-4778516D01*
X17329412Y-4735379D01*
X17256390Y-4750322D01*
X17215565Y-4773892D01*
X12109133Y-23058619D02*
X11787157Y-22972346D01*
X11605984Y-23648494D01*
X12503511Y-23647422D02*
X12624293Y-23196656D01*
X12273505Y-23861865D02*
X12241927Y-23335766D01*
X12660494Y-23447921D01*
X-7772850Y-24557180D02*
X-7450874Y-24643453D01*
X-7269701Y-23967305D01*
X-7752664Y-23837895D02*
X-8171232Y-23725740D01*
X-8014867Y-24043711D01*
X-8111460Y-24017829D01*
X-8184482Y-24032772D01*
X-8225307Y-24056343D01*
X-8274759Y-24112110D01*
X-8317896Y-24273098D01*
X-8302953Y-24346120D01*
X-8279383Y-24386945D01*
X-8223615Y-24436397D01*
X-8030430Y-24488161D01*
X-7957407Y-24473218D01*
X-7916583Y-24449648D01*
X-2842348Y-6156294D02*
X-2520372Y-6242567D01*
X-2339199Y-5566419D01*
X-2871614Y-5492777D02*
X-2895184Y-5451952D01*
X-2950952Y-5402500D01*
X-3111940Y-5359363D01*
X-3184962Y-5374306D01*
X-3225787Y-5397876D01*
X-3275239Y-5453644D01*
X-3292493Y-5518039D01*
X-3286178Y-5623259D01*
X-3003335Y-6113157D01*
X-3421903Y-6001002D01*
X2088154Y12244592D02*
X2410130Y12158319D01*
X2591303Y12834467D01*
X1508599Y12399884D02*
X1894969Y12296356D01*
X1701784Y12348120D02*
X1882957Y13024268D01*
X1921471Y12910421D01*
X1968611Y12828771D01*
X2024379Y12779319D01*
X157685358Y-65284874D02*
X157559694Y-65367845D01*
X157329711Y-65429468D01*
X157225394Y-65408121D01*
X157167073Y-65374450D01*
X157096427Y-65294781D01*
X157071777Y-65202789D01*
X157093124Y-65098471D01*
X157126796Y-65040150D01*
X157206464Y-64969504D01*
X157378125Y-64874208D01*
X157457794Y-64803563D01*
X157491465Y-64745241D01*
X157512812Y-64640924D01*
X157488163Y-64548931D01*
X157417517Y-64469263D01*
X157359196Y-64435591D01*
X157254878Y-64414244D01*
X157024896Y-64475867D01*
X156899231Y-64558838D01*
X156564931Y-64599115D02*
X156593768Y-65626664D01*
X156224911Y-64986016D01*
X156225796Y-65725262D01*
X155736995Y-64820959D01*
X155041328Y-65352455D02*
X155213874Y-65996405D01*
X155172712Y-64922860D02*
X155587565Y-65551183D01*
X154989611Y-65711404D01*
X154519740Y-65245720D02*
X154461418Y-65212048D01*
X154357101Y-65190701D01*
X154127118Y-65252324D01*
X154047450Y-65322970D01*
X154013778Y-65381292D01*
X153992431Y-65485609D01*
X154017081Y-65577602D01*
X154100051Y-65703267D01*
X154799906Y-66107328D01*
X154201952Y-66267549D01*
X137167270Y-74321577D02*
X137057922Y-74425108D01*
X136842134Y-74525732D01*
X136735695Y-74522823D01*
X136672412Y-74499791D01*
X136589006Y-74433600D01*
X136548756Y-74347285D01*
X136551664Y-74240845D01*
X136574697Y-74177563D01*
X136640888Y-74094156D01*
X136793393Y-73970500D01*
X136859583Y-73887093D01*
X136882616Y-73823811D01*
X136885524Y-73717371D01*
X136845275Y-73631056D01*
X136761868Y-73564866D01*
X136698586Y-73541833D01*
X136592146Y-73538925D01*
X136376359Y-73639548D01*
X136267011Y-73743080D01*
X135944783Y-73840795D02*
X136151614Y-74847726D01*
X135677114Y-74280862D01*
X135806354Y-75008724D01*
X135167948Y-74203039D01*
X134575143Y-74847262D02*
X134856889Y-75451467D01*
X134629933Y-74401378D02*
X135147591Y-74948117D01*
X134586543Y-75209738D01*
X133907423Y-75894210D02*
X134425314Y-75652714D01*
X134166369Y-75773462D02*
X133743750Y-74867154D01*
X133890439Y-74956377D01*
X134017004Y-75002443D01*
X134123443Y-75005351D01*
X118506524Y-85737239D02*
X118416815Y-85858186D01*
X118221779Y-85994751D01*
X118116451Y-86010370D01*
X118050131Y-85998676D01*
X117956497Y-85947975D01*
X117901871Y-85869961D01*
X117886252Y-85764633D01*
X117897946Y-85698313D01*
X117948647Y-85604679D01*
X118077363Y-85456419D01*
X118128064Y-85362786D01*
X118139758Y-85296465D01*
X118124139Y-85191137D01*
X118069513Y-85113123D01*
X117975879Y-85062422D01*
X117909559Y-85050728D01*
X117804231Y-85066347D01*
X117609195Y-85202912D01*
X117519487Y-85323859D01*
X117219123Y-85476044D02*
X117597663Y-86431762D01*
X117031937Y-85955906D01*
X117285605Y-86650267D01*
X116516992Y-85967681D01*
X116045061Y-86705056D02*
X116427446Y-87251157D01*
X116021592Y-86256432D02*
X116626326Y-86704975D01*
X116119232Y-87060046D01*
X115268761Y-86841702D02*
X115190746Y-86896329D01*
X115140045Y-86989962D01*
X115128351Y-87056283D01*
X115143970Y-87161610D01*
X115214215Y-87344952D01*
X115350781Y-87539989D01*
X115499041Y-87668704D01*
X115592675Y-87719406D01*
X115658995Y-87731100D01*
X115764323Y-87715481D01*
X115842337Y-87660854D01*
X115893038Y-87567221D01*
X115904733Y-87500900D01*
X115889113Y-87395573D01*
X115818868Y-87212231D01*
X115682302Y-87017194D01*
X115534042Y-86888479D01*
X115440409Y-86837777D01*
X115374088Y-86826083D01*
X115268761Y-86841702D01*
X77497859Y-82076977D02*
X77353524Y-82034045D01*
X77158488Y-81897479D01*
X77107786Y-81803846D01*
X77096092Y-81737525D01*
X77111711Y-81632198D01*
X77166338Y-81554183D01*
X77259971Y-81503482D01*
X77326292Y-81491788D01*
X77431619Y-81507407D01*
X77614961Y-81577652D01*
X77720289Y-81593271D01*
X77786609Y-81581577D01*
X77880243Y-81530876D01*
X77934869Y-81452861D01*
X77950488Y-81347534D01*
X77938794Y-81281213D01*
X77888093Y-81187580D01*
X77693057Y-81051014D01*
X77548722Y-81008082D01*
X77302984Y-80777882D02*
X76534372Y-81460469D01*
X76788040Y-80766107D01*
X76222314Y-81241963D01*
X76600854Y-80286245D01*
X76366811Y-80122366D02*
X75859717Y-79767295D01*
X75914262Y-80270545D01*
X75797240Y-80188606D01*
X75691913Y-80172987D01*
X75625592Y-80184681D01*
X75531959Y-80235382D01*
X75395393Y-80430418D01*
X75379774Y-80535746D01*
X75391468Y-80602066D01*
X75442169Y-80695700D01*
X75676213Y-80859579D01*
X75781540Y-80875198D01*
X75847861Y-80863504D01*
X74896068Y-80313316D02*
X74740039Y-80204063D01*
X74689337Y-80110429D01*
X74677643Y-80044109D01*
X74681568Y-79872461D01*
X74751814Y-79689119D01*
X74970319Y-79377061D01*
X75063953Y-79326360D01*
X75130273Y-79314666D01*
X75235601Y-79330285D01*
X75391630Y-79439537D01*
X75442331Y-79533171D01*
X75454025Y-79599491D01*
X75438406Y-79704819D01*
X75301840Y-79899855D01*
X75208207Y-79950556D01*
X75141886Y-79962251D01*
X75036559Y-79946631D01*
X74880530Y-79837379D01*
X74829828Y-79743745D01*
X74818134Y-79677425D01*
X74833753Y-79572097D01*
X58281488Y-71624572D02*
X58131891Y-71607356D01*
X57916103Y-71506732D01*
X57849913Y-71423325D01*
X57826880Y-71360043D01*
X57823972Y-71253603D01*
X57864221Y-71167288D01*
X57947628Y-71101098D01*
X58010911Y-71078065D01*
X58117350Y-71075157D01*
X58310105Y-71112498D01*
X58416545Y-71109590D01*
X58479827Y-71086557D01*
X58563234Y-71020367D01*
X58603483Y-70934052D01*
X58600575Y-70827612D01*
X58577542Y-70764330D01*
X58511352Y-70680923D01*
X58295564Y-70580300D01*
X58145967Y-70563083D01*
X57863989Y-70379053D02*
X57225583Y-71184737D01*
X57354823Y-70456876D01*
X56880323Y-71023740D01*
X57087154Y-70016809D01*
X56828209Y-69896061D02*
X56267161Y-69634440D01*
X56408266Y-70120573D01*
X56278794Y-70060199D01*
X56172354Y-70063107D01*
X56109072Y-70086140D01*
X56025665Y-70152330D01*
X55925042Y-70368118D01*
X55927950Y-70474557D01*
X55950983Y-70537840D01*
X56017173Y-70621246D01*
X56276118Y-70741994D01*
X56382558Y-70739086D01*
X56445840Y-70716053D01*
X55568149Y-69781361D02*
X55674588Y-69778453D01*
X55737871Y-69755420D01*
X55821278Y-69689230D01*
X55841402Y-69646072D01*
X55838494Y-69539633D01*
X55815461Y-69476351D01*
X55749271Y-69392944D01*
X55576641Y-69312445D01*
X55470201Y-69315353D01*
X55406919Y-69338386D01*
X55323512Y-69404576D01*
X55303387Y-69447734D01*
X55306296Y-69554174D01*
X55329328Y-69617456D01*
X55395519Y-69700863D01*
X55568149Y-69781361D01*
X55634339Y-69864768D01*
X55657372Y-69928050D01*
X55660280Y-70034490D01*
X55579781Y-70207120D01*
X55496375Y-70273311D01*
X55433092Y-70296343D01*
X55326653Y-70299252D01*
X55154023Y-70218753D01*
X55087832Y-70135346D01*
X55064799Y-70072064D01*
X55061891Y-69965624D01*
X55142390Y-69792994D01*
X55225797Y-69726804D01*
X55289079Y-69703771D01*
X55395519Y-69700863D01*
X37382318Y-64068609D02*
X37232004Y-64077631D01*
X37002022Y-64016007D01*
X36922354Y-63945362D01*
X36888682Y-63887040D01*
X36867335Y-63782723D01*
X36891984Y-63690730D01*
X36962630Y-63611062D01*
X37020951Y-63577390D01*
X37125269Y-63556043D01*
X37321579Y-63559345D01*
X37425897Y-63537998D01*
X37484218Y-63504326D01*
X37554864Y-63424658D01*
X37579514Y-63332665D01*
X37558167Y-63228348D01*
X37524495Y-63170026D01*
X37444827Y-63099380D01*
X37214844Y-63037757D01*
X37064530Y-63046779D01*
X36754880Y-62914510D02*
X36266078Y-63818812D01*
X36266963Y-63079566D01*
X35898107Y-63720214D01*
X35926943Y-62692665D01*
X35650964Y-62618717D02*
X35053010Y-62458495D01*
X35276388Y-62912740D01*
X35138398Y-62875766D01*
X35034081Y-62897113D01*
X34975760Y-62930785D01*
X34905114Y-63010453D01*
X34843490Y-63240435D01*
X34864837Y-63344753D01*
X34898509Y-63403074D01*
X34978177Y-63473720D01*
X35254156Y-63547668D01*
X35358474Y-63526321D01*
X35416795Y-63492649D01*
X34731035Y-62372222D02*
X34087084Y-62199676D01*
X34242234Y-63276524D01*
X207300504Y-30074276D02*
X207174840Y-30157247D01*
X206944857Y-30218870D01*
X206840540Y-30197523D01*
X206782219Y-30163852D01*
X206711573Y-30084183D01*
X206686923Y-29992191D01*
X206708270Y-29887873D01*
X206741942Y-29829552D01*
X206821610Y-29758906D01*
X206993271Y-29663610D01*
X207072940Y-29592965D01*
X207106611Y-29534643D01*
X207127958Y-29430326D01*
X207103309Y-29338333D01*
X207032663Y-29258665D01*
X206974342Y-29224993D01*
X206870024Y-29203646D01*
X206640042Y-29265269D01*
X206514377Y-29348240D01*
X206180077Y-29388517D02*
X206208914Y-30416066D01*
X205840057Y-29775418D01*
X205840942Y-30514664D01*
X205352141Y-29610361D01*
X205076162Y-29684310D02*
X204478208Y-29844531D01*
X204898781Y-30126230D01*
X204760791Y-30163204D01*
X204681123Y-30233850D01*
X204647451Y-30292171D01*
X204626104Y-30396489D01*
X204687728Y-30626471D01*
X204758374Y-30706139D01*
X204816695Y-30739811D01*
X204921013Y-30761158D01*
X205196992Y-30687210D01*
X205276660Y-30616564D01*
X205310332Y-30558243D01*
X203604275Y-30078701D02*
X204064240Y-29955453D01*
X204233483Y-30403093D01*
X204175162Y-30369422D01*
X204070844Y-30348075D01*
X203840862Y-30409698D01*
X203761194Y-30480344D01*
X203727522Y-30538665D01*
X203706175Y-30642983D01*
X203767799Y-30872965D01*
X203838445Y-30952634D01*
X203896766Y-30986305D01*
X204001083Y-31007652D01*
X204231066Y-30946029D01*
X204310734Y-30875383D01*
X204344406Y-30817062D01*
X186270018Y-25190973D02*
X186144354Y-25273944D01*
X185914371Y-25335567D01*
X185810054Y-25314220D01*
X185751733Y-25280549D01*
X185681087Y-25200880D01*
X185656437Y-25108888D01*
X185677784Y-25004570D01*
X185711456Y-24946249D01*
X185791124Y-24875603D01*
X185962785Y-24780307D01*
X186042454Y-24709662D01*
X186076125Y-24651340D01*
X186097472Y-24547023D01*
X186072823Y-24455030D01*
X186002177Y-24375362D01*
X185943856Y-24341690D01*
X185839538Y-24320343D01*
X185609556Y-24381966D01*
X185483891Y-24464937D01*
X185149591Y-24505214D02*
X185178428Y-25532763D01*
X184809571Y-24892115D01*
X184810456Y-25631361D01*
X184321655Y-24727058D01*
X184045676Y-24801007D02*
X183447722Y-24961228D01*
X183868295Y-25242927D01*
X183730305Y-25279901D01*
X183650637Y-25350547D01*
X183616965Y-25408868D01*
X183595618Y-25513186D01*
X183657242Y-25743168D01*
X183727888Y-25822836D01*
X183786209Y-25856508D01*
X183890527Y-25877855D01*
X184166506Y-25803907D01*
X184246174Y-25733261D01*
X184279846Y-25674940D01*
X182706058Y-25505048D02*
X182878604Y-26148999D01*
X182837443Y-25075453D02*
X183252296Y-25703776D01*
X182654342Y-25863998D01*
X166554331Y-25214572D02*
X166428667Y-25297543D01*
X166198684Y-25359166D01*
X166094367Y-25337819D01*
X166036046Y-25304148D01*
X165965400Y-25224479D01*
X165940750Y-25132487D01*
X165962097Y-25028169D01*
X165995769Y-24969848D01*
X166075437Y-24899202D01*
X166247098Y-24803906D01*
X166326767Y-24733261D01*
X166360438Y-24674939D01*
X166381785Y-24570622D01*
X166357136Y-24478629D01*
X166286490Y-24398961D01*
X166228169Y-24365289D01*
X166123851Y-24343942D01*
X165893869Y-24405565D01*
X165768204Y-24488536D01*
X165433904Y-24528813D02*
X165462741Y-25556362D01*
X165093884Y-24915714D01*
X165094769Y-25654960D01*
X164605968Y-24750657D01*
X164329989Y-24824606D02*
X163732035Y-24984827D01*
X164152608Y-25266526D01*
X164014618Y-25303500D01*
X163934950Y-25374146D01*
X163901278Y-25432467D01*
X163879931Y-25536785D01*
X163941555Y-25766767D01*
X164012201Y-25846435D01*
X164070522Y-25880107D01*
X164174840Y-25901454D01*
X164450819Y-25827506D01*
X164530487Y-25756860D01*
X164564159Y-25698539D01*
X163410060Y-25071100D02*
X162812105Y-25231321D01*
X163232678Y-25513020D01*
X163094689Y-25549994D01*
X163015021Y-25620640D01*
X162981349Y-25678961D01*
X162960002Y-25783279D01*
X163021626Y-26013261D01*
X163092272Y-26092930D01*
X163150593Y-26126601D01*
X163254910Y-26147948D01*
X163530889Y-26074000D01*
X163610557Y-26003354D01*
X163644229Y-25945033D01*
X149468246Y-35051977D02*
X149342582Y-35134948D01*
X149112599Y-35196571D01*
X149008282Y-35175224D01*
X148949961Y-35141553D01*
X148879315Y-35061884D01*
X148854665Y-34969892D01*
X148876012Y-34865574D01*
X148909684Y-34807253D01*
X148989352Y-34736607D01*
X149161013Y-34641311D01*
X149240682Y-34570666D01*
X149274353Y-34512344D01*
X149295700Y-34408027D01*
X149271051Y-34316034D01*
X149200405Y-34236366D01*
X149142084Y-34202694D01*
X149037766Y-34181347D01*
X148807784Y-34242970D01*
X148682119Y-34325941D01*
X148347819Y-34366218D02*
X148376656Y-35393767D01*
X148007799Y-34753119D01*
X148008684Y-35492365D01*
X147519883Y-34588062D01*
X147243904Y-34662011D02*
X146645950Y-34822232D01*
X147066523Y-35103931D01*
X146928533Y-35140905D01*
X146848865Y-35211551D01*
X146815193Y-35269872D01*
X146793846Y-35374190D01*
X146855470Y-35604172D01*
X146926116Y-35683840D01*
X146984437Y-35717512D01*
X147088755Y-35738859D01*
X147364734Y-35664911D01*
X147444402Y-35594265D01*
X147478074Y-35535944D01*
X146302628Y-35012823D02*
X146244306Y-34979151D01*
X146139989Y-34957804D01*
X145910006Y-35019427D01*
X145830338Y-35090073D01*
X145796666Y-35148395D01*
X145775319Y-35252712D01*
X145799969Y-35344705D01*
X145882939Y-35470370D01*
X146582794Y-35874431D01*
X145984840Y-36034652D01*
X131724760Y-42435931D02*
X131599096Y-42518902D01*
X131369113Y-42580525D01*
X131264796Y-42559178D01*
X131206475Y-42525507D01*
X131135829Y-42445838D01*
X131111179Y-42353846D01*
X131132526Y-42249528D01*
X131166198Y-42191207D01*
X131245866Y-42120561D01*
X131417527Y-42025265D01*
X131497196Y-41954620D01*
X131530867Y-41896298D01*
X131552214Y-41791981D01*
X131527565Y-41699988D01*
X131456919Y-41620320D01*
X131398598Y-41586648D01*
X131294280Y-41565301D01*
X131064298Y-41626924D01*
X130938633Y-41709895D01*
X130604333Y-41750172D02*
X130633170Y-42777721D01*
X130264313Y-42137073D01*
X130265198Y-42876319D01*
X129776397Y-41972016D01*
X129500418Y-42045965D02*
X128902464Y-42206186D01*
X129323037Y-42487885D01*
X129185047Y-42524859D01*
X129105379Y-42595505D01*
X129071707Y-42653826D01*
X129050360Y-42758144D01*
X129111984Y-42988126D01*
X129182630Y-43067794D01*
X129240951Y-43101466D01*
X129345269Y-43122813D01*
X129621248Y-43048865D01*
X129700916Y-42978219D01*
X129734588Y-42919898D01*
X128241354Y-43418606D02*
X128793311Y-43270710D01*
X128517332Y-43344658D02*
X128258513Y-42378732D01*
X128387480Y-42492072D01*
X128504123Y-42559416D01*
X128608440Y-42580763D01*
X202370002Y-11673390D02*
X202244338Y-11756361D01*
X202014355Y-11817984D01*
X201910038Y-11796637D01*
X201851717Y-11762966D01*
X201781071Y-11683297D01*
X201756421Y-11591305D01*
X201777768Y-11486987D01*
X201811440Y-11428666D01*
X201891108Y-11358020D01*
X202062769Y-11262724D01*
X202142438Y-11192079D01*
X202176109Y-11133757D01*
X202197456Y-11029440D01*
X202172807Y-10937447D01*
X202102161Y-10857779D01*
X202043840Y-10824107D01*
X201939522Y-10802760D01*
X201709540Y-10864383D01*
X201583875Y-10947354D01*
X201249575Y-10987631D02*
X201278412Y-12015180D01*
X200909555Y-11374532D01*
X200910440Y-12113778D01*
X200421639Y-11209475D01*
X200124313Y-11387741D02*
X200065992Y-11354070D01*
X199961674Y-11332723D01*
X199731692Y-11394346D01*
X199652023Y-11464992D01*
X199618352Y-11523313D01*
X199597005Y-11627631D01*
X199621654Y-11719624D01*
X199704625Y-11845289D01*
X200404479Y-12249350D01*
X199806525Y-12409571D01*
X199346560Y-12532818D02*
X199162574Y-12582117D01*
X199058257Y-12560770D01*
X198999935Y-12527098D01*
X198870968Y-12413758D01*
X198775673Y-12242097D01*
X198677075Y-11874125D01*
X198698422Y-11769808D01*
X198732094Y-11711486D01*
X198811762Y-11640840D01*
X198995748Y-11591542D01*
X199100066Y-11612889D01*
X199158387Y-11646560D01*
X199229033Y-11726229D01*
X199290657Y-11956211D01*
X199269310Y-12060529D01*
X199235638Y-12118850D01*
X199155970Y-12189496D01*
X198971984Y-12238795D01*
X198867666Y-12217448D01*
X198809345Y-12183776D01*
X198738699Y-12104108D01*
X181339516Y-6790087D02*
X181213852Y-6873058D01*
X180983869Y-6934681D01*
X180879552Y-6913334D01*
X180821231Y-6879663D01*
X180750585Y-6799994D01*
X180725935Y-6708002D01*
X180747282Y-6603684D01*
X180780954Y-6545363D01*
X180860622Y-6474717D01*
X181032283Y-6379421D01*
X181111952Y-6308776D01*
X181145623Y-6250454D01*
X181166970Y-6146137D01*
X181142321Y-6054144D01*
X181071675Y-5974476D01*
X181013354Y-5940804D01*
X180909036Y-5919457D01*
X180679054Y-5981080D01*
X180553389Y-6064051D01*
X180219089Y-6104328D02*
X180247926Y-7131877D01*
X179879069Y-6491229D01*
X179879954Y-7230475D01*
X179391153Y-6326172D01*
X179093827Y-6504438D02*
X179035506Y-6470767D01*
X178931188Y-6449420D01*
X178701206Y-6511043D01*
X178621537Y-6581689D01*
X178587866Y-6640010D01*
X178566519Y-6744328D01*
X178591168Y-6836321D01*
X178674139Y-6961986D01*
X179373993Y-7366047D01*
X178776039Y-7526268D01*
X178076185Y-7122207D02*
X178155853Y-7051561D01*
X178189525Y-6993240D01*
X178210872Y-6888922D01*
X178198547Y-6842926D01*
X178127901Y-6763257D01*
X178069580Y-6729586D01*
X177965262Y-6708239D01*
X177781276Y-6757537D01*
X177701608Y-6828183D01*
X177667936Y-6886505D01*
X177646589Y-6990822D01*
X177658914Y-7036819D01*
X177729560Y-7116487D01*
X177787881Y-7150159D01*
X177892199Y-7171506D01*
X178076185Y-7122207D01*
X178180502Y-7143554D01*
X178238824Y-7177226D01*
X178309469Y-7256894D01*
X178358768Y-7440880D01*
X178337421Y-7545197D01*
X178303749Y-7603519D01*
X178224081Y-7674164D01*
X178040095Y-7723463D01*
X177935778Y-7702116D01*
X177877457Y-7668445D01*
X177806811Y-7588776D01*
X177757512Y-7404790D01*
X177778859Y-7300473D01*
X177812531Y-7242152D01*
X177892199Y-7171506D01*
X161623829Y-6813686D02*
X161498165Y-6896657D01*
X161268182Y-6958280D01*
X161163865Y-6936933D01*
X161105544Y-6903262D01*
X161034898Y-6823593D01*
X161010248Y-6731601D01*
X161031595Y-6627283D01*
X161065267Y-6568962D01*
X161144935Y-6498316D01*
X161316596Y-6403020D01*
X161396265Y-6332375D01*
X161429936Y-6274053D01*
X161451283Y-6169736D01*
X161426634Y-6077743D01*
X161355988Y-5998075D01*
X161297667Y-5964403D01*
X161193349Y-5943056D01*
X160963367Y-6004679D01*
X160837702Y-6087650D01*
X160503402Y-6127927D02*
X160532239Y-7155476D01*
X160163382Y-6514828D01*
X160164267Y-7254074D01*
X159675466Y-6349771D01*
X159378140Y-6528037D02*
X159319819Y-6494366D01*
X159215501Y-6473019D01*
X158985519Y-6534642D01*
X158905850Y-6605288D01*
X158872179Y-6663609D01*
X158850832Y-6767927D01*
X158875481Y-6859920D01*
X158958452Y-6985585D01*
X159658306Y-7389646D01*
X159060352Y-7549867D01*
X158479558Y-6670214D02*
X157835607Y-6842760D01*
X158508394Y-7697763D01*
X144537744Y-16651091D02*
X144412080Y-16734062D01*
X144182097Y-16795685D01*
X144077780Y-16774338D01*
X144019459Y-16740667D01*
X143948813Y-16660998D01*
X143924163Y-16569006D01*
X143945510Y-16464688D01*
X143979182Y-16406367D01*
X144058850Y-16335721D01*
X144230511Y-16240425D01*
X144310180Y-16169780D01*
X144343851Y-16111458D01*
X144365198Y-16007141D01*
X144340549Y-15915148D01*
X144269903Y-15835480D01*
X144211582Y-15801808D01*
X144107264Y-15780461D01*
X143877282Y-15842084D01*
X143751617Y-15925055D01*
X143417317Y-15965332D02*
X143446154Y-16992881D01*
X143077297Y-16352233D01*
X143078182Y-17091479D01*
X142589381Y-16187176D01*
X142292055Y-16365442D02*
X142233734Y-16331771D01*
X142129416Y-16310424D01*
X141899434Y-16372047D01*
X141819765Y-16442693D01*
X141786094Y-16501014D01*
X141764747Y-16605332D01*
X141789396Y-16697325D01*
X141872367Y-16822990D01*
X142572221Y-17227051D01*
X141974267Y-17387272D01*
X140887511Y-16643191D02*
X141071497Y-16593892D01*
X141175815Y-16615239D01*
X141234136Y-16648911D01*
X141363103Y-16762251D01*
X141458399Y-16933912D01*
X141556996Y-17301884D01*
X141535649Y-17406201D01*
X141501977Y-17464523D01*
X141422309Y-17535168D01*
X141238323Y-17584467D01*
X141134006Y-17563120D01*
X141075685Y-17529449D01*
X141005039Y-17449780D01*
X140943415Y-17219798D01*
X140964762Y-17115480D01*
X140998434Y-17057159D01*
X141078102Y-16986513D01*
X141262088Y-16937214D01*
X141366406Y-16958561D01*
X141424727Y-16992233D01*
X141495373Y-17071901D01*
X126794258Y-24035045D02*
X126668594Y-24118016D01*
X126438611Y-24179639D01*
X126334294Y-24158292D01*
X126275973Y-24124621D01*
X126205327Y-24044952D01*
X126180677Y-23952960D01*
X126202024Y-23848642D01*
X126235696Y-23790321D01*
X126315364Y-23719675D01*
X126487025Y-23624379D01*
X126566694Y-23553734D01*
X126600365Y-23495412D01*
X126621712Y-23391095D01*
X126597063Y-23299102D01*
X126526417Y-23219434D01*
X126468096Y-23185762D01*
X126363778Y-23164415D01*
X126133796Y-23226038D01*
X126008131Y-23309009D01*
X125673831Y-23349286D02*
X125702668Y-24376835D01*
X125333811Y-23736187D01*
X125334696Y-24475433D01*
X124845895Y-23571130D01*
X124548569Y-23749396D02*
X124490248Y-23715725D01*
X124385930Y-23694378D01*
X124155948Y-23756001D01*
X124076279Y-23826647D01*
X124042608Y-23884968D01*
X124021261Y-23989286D01*
X124045910Y-24081279D01*
X124128881Y-24206944D01*
X124828735Y-24611005D01*
X124230781Y-24771226D01*
X123098029Y-24039470D02*
X123557994Y-23916222D01*
X123727237Y-24363862D01*
X123668916Y-24330191D01*
X123564598Y-24308844D01*
X123334616Y-24370467D01*
X123254948Y-24441113D01*
X123221276Y-24499434D01*
X123199929Y-24603752D01*
X123261553Y-24833734D01*
X123332199Y-24913403D01*
X123390520Y-24947074D01*
X123494837Y-24968421D01*
X123724820Y-24906798D01*
X123804488Y-24836152D01*
X123838160Y-24777831D01*
X197439500Y6727496D02*
X197313836Y6644525D01*
X197083853Y6582902D01*
X196979536Y6604249D01*
X196921215Y6637920D01*
X196850569Y6717589D01*
X196825919Y6809581D01*
X196847266Y6913899D01*
X196880938Y6972220D01*
X196960606Y7042866D01*
X197132267Y7138162D01*
X197211936Y7208807D01*
X197245607Y7267129D01*
X197266954Y7371446D01*
X197242305Y7463439D01*
X197171659Y7543107D01*
X197113338Y7576779D01*
X197009020Y7598126D01*
X196779038Y7536503D01*
X196653373Y7453532D01*
X196319073Y7413255D02*
X196347910Y6385706D01*
X195979053Y7026354D01*
X195979938Y6287108D01*
X195491137Y7191411D01*
X195193811Y7013145D02*
X195135490Y7046816D01*
X195031172Y7068163D01*
X194801190Y7006540D01*
X194721521Y6935894D01*
X194687850Y6877573D01*
X194666503Y6773255D01*
X194691152Y6681262D01*
X194774123Y6555597D01*
X195473977Y6151536D01*
X194876023Y5991315D01*
X194295229Y6870968D02*
X193697274Y6710747D01*
X194117847Y6429048D01*
X193979858Y6392074D01*
X193900190Y6321428D01*
X193866518Y6263107D01*
X193845171Y6158789D01*
X193906795Y5928807D01*
X193977441Y5849138D01*
X194035762Y5815467D01*
X194140079Y5794120D01*
X194416058Y5868068D01*
X194495726Y5938714D01*
X194529398Y5997035D01*
X176409014Y11610799D02*
X176283350Y11527828D01*
X176053367Y11466205D01*
X175949050Y11487552D01*
X175890729Y11521223D01*
X175820083Y11600892D01*
X175795433Y11692884D01*
X175816780Y11797202D01*
X175850452Y11855523D01*
X175930120Y11926169D01*
X176101781Y12021465D01*
X176181450Y12092110D01*
X176215121Y12150432D01*
X176236468Y12254749D01*
X176211819Y12346742D01*
X176141173Y12426410D01*
X176082852Y12460082D01*
X175978534Y12481429D01*
X175748552Y12419806D01*
X175622887Y12336835D01*
X175288587Y12296558D02*
X175317424Y11269009D01*
X174948567Y11909657D01*
X174949452Y11170411D01*
X174460651Y12074714D01*
X174163325Y11896448D02*
X174105004Y11930119D01*
X174000686Y11951466D01*
X173770704Y11889843D01*
X173691035Y11819197D01*
X173657364Y11760876D01*
X173636017Y11656558D01*
X173660666Y11564565D01*
X173743637Y11438900D01*
X174443491Y11034839D01*
X173845537Y10874618D01*
X173243396Y11649953D02*
X173185074Y11683625D01*
X173080757Y11704972D01*
X172850774Y11643349D01*
X172771106Y11572703D01*
X172737434Y11514381D01*
X172716087Y11410064D01*
X172740737Y11318071D01*
X172823707Y11192406D01*
X173523562Y10788345D01*
X172925608Y10628124D01*
X156693327Y11587200D02*
X156567663Y11504229D01*
X156337680Y11442606D01*
X156233363Y11463953D01*
X156175042Y11497624D01*
X156104396Y11577293D01*
X156079746Y11669285D01*
X156101093Y11773603D01*
X156134765Y11831924D01*
X156214433Y11902570D01*
X156386094Y11997866D01*
X156465763Y12068511D01*
X156499434Y12126833D01*
X156520781Y12231150D01*
X156496132Y12323143D01*
X156425486Y12402811D01*
X156367165Y12436483D01*
X156262847Y12457830D01*
X156032865Y12396207D01*
X155907200Y12313236D01*
X155572900Y12272959D02*
X155601737Y11245410D01*
X155232880Y11886058D01*
X155233765Y11146812D01*
X154744964Y12051115D01*
X154447638Y11872849D02*
X154389317Y11906520D01*
X154284999Y11927867D01*
X154055017Y11866244D01*
X153975348Y11795598D01*
X153941677Y11737277D01*
X153920330Y11632959D01*
X153944979Y11540966D01*
X154027950Y11415301D01*
X154727804Y11011240D01*
X154129850Y10851019D01*
X153209921Y10604525D02*
X153761878Y10752421D01*
X153485899Y10678473D02*
X153227080Y11644399D01*
X153356047Y11531059D01*
X153472690Y11463715D01*
X153577007Y11442368D01*
X139607242Y1749795D02*
X139481578Y1666824D01*
X139251595Y1605201D01*
X139147278Y1626548D01*
X139088957Y1660219D01*
X139018311Y1739888D01*
X138993661Y1831880D01*
X139015008Y1936198D01*
X139048680Y1994519D01*
X139128348Y2065165D01*
X139300009Y2160461D01*
X139379678Y2231106D01*
X139413349Y2289428D01*
X139434696Y2393745D01*
X139410047Y2485738D01*
X139339401Y2565406D01*
X139281080Y2599078D01*
X139176762Y2620425D01*
X138946780Y2558802D01*
X138821115Y2475831D01*
X138486815Y2435554D02*
X138515652Y1408005D01*
X138146795Y2048653D01*
X138147680Y1309407D01*
X137658879Y2213710D01*
X137361553Y2035444D02*
X137303232Y2069115D01*
X137198914Y2090462D01*
X136968932Y2028839D01*
X136889263Y1958193D01*
X136855592Y1899872D01*
X136834245Y1795554D01*
X136858894Y1703561D01*
X136941865Y1577896D01*
X137641719Y1173835D01*
X137043765Y1013614D01*
X136186992Y1819319D02*
X136094999Y1794669D01*
X136015331Y1724023D01*
X135981659Y1665702D01*
X135960312Y1561385D01*
X135963614Y1365074D01*
X136025238Y1135092D01*
X136120533Y963430D01*
X136191179Y883762D01*
X136249500Y850090D01*
X136353818Y828743D01*
X136445811Y853393D01*
X136525479Y924039D01*
X136559151Y982360D01*
X136580498Y1086678D01*
X136577195Y1282988D01*
X136515572Y1512971D01*
X136420276Y1684632D01*
X136349631Y1764300D01*
X136291309Y1797972D01*
X136186992Y1819319D01*
X121863756Y-5634159D02*
X121738092Y-5717130D01*
X121508109Y-5778753D01*
X121403792Y-5757406D01*
X121345471Y-5723735D01*
X121274825Y-5644066D01*
X121250175Y-5552074D01*
X121271522Y-5447756D01*
X121305194Y-5389435D01*
X121384862Y-5318789D01*
X121556523Y-5223493D01*
X121636192Y-5152848D01*
X121669863Y-5094526D01*
X121691210Y-4990209D01*
X121666561Y-4898216D01*
X121595915Y-4818548D01*
X121537594Y-4784876D01*
X121433276Y-4763529D01*
X121203294Y-4825152D01*
X121077629Y-4908123D01*
X120743329Y-4948400D02*
X120772166Y-5975949D01*
X120403309Y-5335301D01*
X120404194Y-6074547D01*
X119915393Y-5170244D01*
X119300279Y-6370340D02*
X119852236Y-6222443D01*
X119576258Y-6296392D02*
X119317439Y-5330466D01*
X119446406Y-5443806D01*
X119563048Y-5511149D01*
X119667366Y-5532496D01*
X118840314Y-6493587D02*
X118656328Y-6542886D01*
X118552011Y-6521539D01*
X118493689Y-6487867D01*
X118364722Y-6374527D01*
X118269427Y-6202866D01*
X118170829Y-5834894D01*
X118192176Y-5730577D01*
X118225848Y-5672255D01*
X118305516Y-5601609D01*
X118489502Y-5552311D01*
X118593820Y-5573658D01*
X118652141Y-5607329D01*
X118722787Y-5686998D01*
X118784411Y-5916980D01*
X118763064Y-6021298D01*
X118729392Y-6079619D01*
X118649724Y-6150265D01*
X118465738Y-6199564D01*
X118361420Y-6178217D01*
X118303099Y-6144545D01*
X118232453Y-6064877D01*
X63343308Y-40784419D02*
X63192994Y-40793441D01*
X62963012Y-40731817D01*
X62883344Y-40661172D01*
X62849672Y-40602850D01*
X62828325Y-40498533D01*
X62852974Y-40406540D01*
X62923620Y-40326872D01*
X62981941Y-40293200D01*
X63086259Y-40271853D01*
X63282569Y-40275155D01*
X63386887Y-40253808D01*
X63445208Y-40220136D01*
X63515854Y-40140468D01*
X63540504Y-40048475D01*
X63519157Y-39944158D01*
X63485485Y-39885836D01*
X63405817Y-39815190D01*
X63175834Y-39753567D01*
X63025520Y-39762589D01*
X62715870Y-39630320D02*
X62227068Y-40534622D01*
X62227953Y-39795376D01*
X61859097Y-40436024D01*
X61887933Y-39408475D01*
X60755181Y-40140231D02*
X61307139Y-40288128D01*
X61031160Y-40214179D02*
X61289979Y-39248254D01*
X61344998Y-39410892D01*
X61412341Y-39527535D01*
X61492010Y-39598181D01*
X60351120Y-39440377D02*
X60455438Y-39419030D01*
X60513759Y-39385358D01*
X60584405Y-39305690D01*
X60596730Y-39259693D01*
X60575383Y-39155376D01*
X60541711Y-39097055D01*
X60462043Y-39026409D01*
X60278057Y-38977110D01*
X60173739Y-38998457D01*
X60115418Y-39032129D01*
X60044772Y-39111797D01*
X60032447Y-39157793D01*
X60053794Y-39262111D01*
X60087466Y-39320432D01*
X60167134Y-39391078D01*
X60351120Y-39440377D01*
X60430788Y-39511023D01*
X60464460Y-39569344D01*
X60485807Y-39673662D01*
X60436508Y-39857647D01*
X60365862Y-39937316D01*
X60307541Y-39970987D01*
X60203224Y-39992334D01*
X60019238Y-39943036D01*
X59939570Y-39872390D01*
X59905898Y-39814069D01*
X59884551Y-39709751D01*
X59933850Y-39525765D01*
X60004496Y-39446097D01*
X60062817Y-39412425D01*
X60167134Y-39391078D01*
X45599822Y-33400465D02*
X45449508Y-33409487D01*
X45219526Y-33347863D01*
X45139858Y-33277218D01*
X45106186Y-33218896D01*
X45084839Y-33114579D01*
X45109488Y-33022586D01*
X45180134Y-32942918D01*
X45238455Y-32909246D01*
X45342773Y-32887899D01*
X45539083Y-32891201D01*
X45643401Y-32869854D01*
X45701722Y-32836182D01*
X45772368Y-32756514D01*
X45797018Y-32664521D01*
X45775671Y-32560204D01*
X45741999Y-32501882D01*
X45662331Y-32431236D01*
X45432348Y-32369613D01*
X45282034Y-32378635D01*
X44972384Y-32246366D02*
X44483582Y-33150668D01*
X44484467Y-32411422D01*
X44115611Y-33052070D01*
X44144447Y-32024521D01*
X43011695Y-32756277D02*
X43563653Y-32904174D01*
X43287674Y-32830225D02*
X43546493Y-31864300D01*
X43601512Y-32026938D01*
X43668855Y-32143581D01*
X43748524Y-32214227D01*
X42948539Y-31704078D02*
X42304588Y-31531532D01*
X42459738Y-32608380D01*
X28513737Y-23563060D02*
X28363423Y-23572082D01*
X28133441Y-23510458D01*
X28053773Y-23439813D01*
X28020101Y-23381491D01*
X27998754Y-23277174D01*
X28023403Y-23185181D01*
X28094049Y-23105513D01*
X28152370Y-23071841D01*
X28256688Y-23050494D01*
X28452998Y-23053796D01*
X28557316Y-23032449D01*
X28615637Y-22998777D01*
X28686283Y-22919109D01*
X28710933Y-22827116D01*
X28689586Y-22722799D01*
X28655914Y-22664477D01*
X28576246Y-22593831D01*
X28346263Y-22532208D01*
X28195949Y-22541230D01*
X27886299Y-22408961D02*
X27397497Y-23313263D01*
X27398382Y-22574017D01*
X27029526Y-23214665D01*
X27058362Y-22187116D01*
X25925610Y-22918872D02*
X26477568Y-23066769D01*
X26201589Y-22992820D02*
X26460408Y-22026895D01*
X26515427Y-22189533D01*
X26582770Y-22306176D01*
X26662439Y-22376822D01*
X25356493Y-21731101D02*
X25540479Y-21780400D01*
X25620147Y-21851046D01*
X25653819Y-21909367D01*
X25708838Y-22072006D01*
X25705535Y-22268317D01*
X25606937Y-22636288D01*
X25536291Y-22715957D01*
X25477970Y-22749628D01*
X25373653Y-22770975D01*
X25189667Y-22721677D01*
X25109999Y-22651031D01*
X25076327Y-22592710D01*
X25054980Y-22488392D01*
X25116603Y-22258410D01*
X25187249Y-22178741D01*
X25245570Y-22145070D01*
X25349888Y-22123723D01*
X25533874Y-22173021D01*
X25613542Y-22243667D01*
X25647214Y-22301988D01*
X25668561Y-22406306D01*
X8798050Y-23539461D02*
X8647736Y-23548483D01*
X8417754Y-23486859D01*
X8338086Y-23416214D01*
X8304414Y-23357892D01*
X8283067Y-23253575D01*
X8307716Y-23161582D01*
X8378362Y-23081914D01*
X8436683Y-23048242D01*
X8541001Y-23026895D01*
X8737311Y-23030197D01*
X8841629Y-23008850D01*
X8899950Y-22975178D01*
X8970596Y-22895510D01*
X8995246Y-22803517D01*
X8973899Y-22699200D01*
X8940227Y-22640878D01*
X8860559Y-22570232D01*
X8630576Y-22508609D01*
X8480262Y-22517631D01*
X8170612Y-22385362D02*
X7681810Y-23289664D01*
X7682695Y-22550418D01*
X7313839Y-23191066D01*
X7342675Y-22163517D01*
X6209923Y-22895273D02*
X6761881Y-23043170D01*
X6485902Y-22969221D02*
X6744721Y-22003296D01*
X6799740Y-22165934D01*
X6867083Y-22282577D01*
X6946752Y-22353223D01*
X5594809Y-21695178D02*
X6054774Y-21818425D01*
X5977523Y-22290714D01*
X5943852Y-22232393D01*
X5864183Y-22161747D01*
X5634201Y-22100124D01*
X5529883Y-22121471D01*
X5471562Y-22155142D01*
X5400916Y-22234811D01*
X5339293Y-22464793D01*
X5360640Y-22569111D01*
X5394312Y-22627432D01*
X5473980Y-22698078D01*
X5703962Y-22759701D01*
X5808280Y-22738354D01*
X5866601Y-22704682D01*
X-12232436Y-28422765D02*
X-12382750Y-28431787D01*
X-12612732Y-28370163D01*
X-12692400Y-28299518D01*
X-12726072Y-28241196D01*
X-12747419Y-28136879D01*
X-12722770Y-28044886D01*
X-12652124Y-27965218D01*
X-12593803Y-27931546D01*
X-12489485Y-27910199D01*
X-12293175Y-27913501D01*
X-12188857Y-27892154D01*
X-12130536Y-27858482D01*
X-12059890Y-27778814D01*
X-12035240Y-27686821D01*
X-12056587Y-27582504D01*
X-12090259Y-27524182D01*
X-12169927Y-27453536D01*
X-12399910Y-27391913D01*
X-12550224Y-27400935D01*
X-12859874Y-27268666D02*
X-13348676Y-28172968D01*
X-13347791Y-27433722D01*
X-13716647Y-28074370D01*
X-13687811Y-27046821D01*
X-14820563Y-27778577D02*
X-14268605Y-27926474D01*
X-14544584Y-27852525D02*
X-14285765Y-26886600D01*
X-14230746Y-27049238D01*
X-14163403Y-27165881D01*
X-14083734Y-27236527D01*
X-15475953Y-26912782D02*
X-15648499Y-27556732D01*
X-15147373Y-26606433D02*
X-15102261Y-27358004D01*
X-15700216Y-27197783D01*
X68273810Y-22383533D02*
X68123496Y-22392555D01*
X67893514Y-22330931D01*
X67813846Y-22260286D01*
X67780174Y-22201964D01*
X67758827Y-22097647D01*
X67783476Y-22005654D01*
X67854122Y-21925986D01*
X67912443Y-21892314D01*
X68016761Y-21870967D01*
X68213071Y-21874269D01*
X68317389Y-21852922D01*
X68375710Y-21819250D01*
X68446356Y-21739582D01*
X68471006Y-21647589D01*
X68449659Y-21543272D01*
X68415987Y-21484950D01*
X68336319Y-21414304D01*
X68106336Y-21352681D01*
X67956022Y-21361703D01*
X67646372Y-21229434D02*
X67157570Y-22133736D01*
X67158455Y-21394490D01*
X66789599Y-22035138D01*
X66818435Y-21007589D01*
X65685683Y-21739345D02*
X66237641Y-21887242D01*
X65961662Y-21813293D02*
X66220481Y-20847368D01*
X66275500Y-21010006D01*
X66342843Y-21126649D01*
X66422512Y-21197295D01*
X65551881Y-20766814D02*
X65518209Y-20708493D01*
X65438541Y-20637847D01*
X65208559Y-20576224D01*
X65104241Y-20597571D01*
X65045920Y-20631243D01*
X64975274Y-20710911D01*
X64950625Y-20802904D01*
X64959647Y-20953218D01*
X65363708Y-21653072D01*
X64765754Y-21492851D01*
X50530324Y-14999579D02*
X50380010Y-15008601D01*
X50150028Y-14946977D01*
X50070360Y-14876332D01*
X50036688Y-14818010D01*
X50015341Y-14713693D01*
X50039990Y-14621700D01*
X50110636Y-14542032D01*
X50168957Y-14508360D01*
X50273275Y-14487013D01*
X50469585Y-14490315D01*
X50573903Y-14468968D01*
X50632224Y-14435296D01*
X50702870Y-14355628D01*
X50727520Y-14263635D01*
X50706173Y-14159318D01*
X50672501Y-14100996D01*
X50592833Y-14030350D01*
X50362850Y-13968727D01*
X50212536Y-13977749D01*
X49902886Y-13845480D02*
X49414084Y-14749782D01*
X49414969Y-14010536D01*
X49046113Y-14651184D01*
X49074949Y-13623635D01*
X47942197Y-14355391D02*
X48494155Y-14503288D01*
X48218176Y-14429339D02*
X48476995Y-13463414D01*
X48532014Y-13626052D01*
X48599357Y-13742695D01*
X48679026Y-13813341D01*
X47022268Y-14108897D02*
X47574226Y-14256793D01*
X47298247Y-14182845D02*
X47557066Y-13216919D01*
X47612085Y-13379558D01*
X47679428Y-13496200D01*
X47759096Y-13566846D01*
X33444239Y-5162174D02*
X33293925Y-5171196D01*
X33063943Y-5109572D01*
X32984275Y-5038927D01*
X32950603Y-4980605D01*
X32929256Y-4876288D01*
X32953905Y-4784295D01*
X33024551Y-4704627D01*
X33082872Y-4670955D01*
X33187190Y-4649608D01*
X33383500Y-4652910D01*
X33487818Y-4631563D01*
X33546139Y-4597891D01*
X33616785Y-4518223D01*
X33641435Y-4426230D01*
X33620088Y-4321913D01*
X33586416Y-4263591D01*
X33506748Y-4192945D01*
X33276765Y-4131322D01*
X33126451Y-4140344D01*
X32816801Y-4008075D02*
X32327999Y-4912377D01*
X32328884Y-4173131D01*
X31960028Y-4813779D01*
X31988864Y-3786230D01*
X30856112Y-4517986D02*
X31408070Y-4665883D01*
X31132091Y-4591934D02*
X31390910Y-3626009D01*
X31445929Y-3788647D01*
X31513272Y-3905290D01*
X31592941Y-3975936D01*
X30516977Y-3391839D02*
X30424984Y-3367189D01*
X30320667Y-3388537D01*
X30262345Y-3422208D01*
X30191700Y-3501876D01*
X30096404Y-3673538D01*
X30034781Y-3903520D01*
X30031478Y-4099831D01*
X30052825Y-4204148D01*
X30086497Y-4262469D01*
X30166165Y-4333115D01*
X30258158Y-4357765D01*
X30362476Y-4336418D01*
X30420797Y-4302746D01*
X30491443Y-4223078D01*
X30586738Y-4051417D01*
X30648362Y-3821434D01*
X30651664Y-3625124D01*
X30630317Y-3520806D01*
X30596645Y-3462485D01*
X30516977Y-3391839D01*
X13268588Y-5015328D02*
X13118273Y-5024350D01*
X12888291Y-4962726D01*
X12808623Y-4892080D01*
X12774951Y-4833759D01*
X12753604Y-4729442D01*
X12778253Y-4637449D01*
X12848899Y-4557780D01*
X12907221Y-4524109D01*
X13011538Y-4502762D01*
X13207849Y-4506064D01*
X13312166Y-4484717D01*
X13370488Y-4451045D01*
X13441134Y-4371377D01*
X13465783Y-4279384D01*
X13444436Y-4175066D01*
X13410764Y-4116745D01*
X13331096Y-4046099D01*
X13101114Y-3984476D01*
X12950800Y-3993498D01*
X12641149Y-3861229D02*
X12152348Y-4765531D01*
X12153232Y-4026285D01*
X11784376Y-4666933D01*
X11813213Y-3639384D01*
X11140425Y-4494387D02*
X10956439Y-4445088D01*
X10876771Y-4374442D01*
X10843099Y-4316121D01*
X10788081Y-4153482D01*
X10791383Y-3957172D01*
X10889981Y-3589200D01*
X10960627Y-3509532D01*
X11018948Y-3475860D01*
X11123266Y-3454513D01*
X11307251Y-3503812D01*
X11386920Y-3574458D01*
X11420591Y-3632779D01*
X11441938Y-3737097D01*
X11380315Y-3967079D01*
X11309669Y-4046747D01*
X11251348Y-4080419D01*
X11147030Y-4101766D01*
X10963044Y-4052467D01*
X10883376Y-3981821D01*
X10849704Y-3923500D01*
X10828357Y-3819182D01*
X-7761898Y-9898632D02*
X-7912213Y-9907654D01*
X-8142195Y-9846030D01*
X-8221863Y-9775384D01*
X-8255535Y-9717063D01*
X-8276882Y-9612746D01*
X-8252233Y-9520753D01*
X-8181587Y-9441084D01*
X-8123265Y-9407413D01*
X-8018948Y-9386066D01*
X-7822637Y-9389368D01*
X-7718320Y-9368021D01*
X-7659998Y-9334349D01*
X-7589352Y-9254681D01*
X-7564703Y-9162688D01*
X-7586050Y-9058370D01*
X-7619722Y-9000049D01*
X-7699390Y-8929403D01*
X-7929372Y-8867780D01*
X-8079686Y-8876802D01*
X-8389337Y-8744533D02*
X-8878138Y-9648835D01*
X-8877254Y-8909589D01*
X-9246110Y-9550237D01*
X-9217273Y-8522688D01*
X-9834157Y-8801084D02*
X-9729839Y-8779737D01*
X-9671518Y-8746065D01*
X-9600872Y-8666397D01*
X-9588548Y-8620401D01*
X-9609895Y-8516083D01*
X-9643566Y-8457762D01*
X-9723235Y-8387116D01*
X-9907220Y-8337817D01*
X-10011538Y-8359164D01*
X-10069859Y-8392836D01*
X-10140505Y-8472504D01*
X-10152830Y-8518500D01*
X-10131483Y-8622818D01*
X-10097811Y-8681139D01*
X-10018143Y-8751785D01*
X-9834157Y-8801084D01*
X-9754489Y-8871730D01*
X-9720817Y-8930051D01*
X-9699470Y-9034369D01*
X-9748769Y-9218355D01*
X-9819415Y-9298023D01*
X-9877736Y-9331695D01*
X-9982054Y-9353042D01*
X-10166040Y-9303743D01*
X-10245708Y-9233097D01*
X-10279380Y-9174776D01*
X-10300727Y-9070458D01*
X-10251428Y-8886472D01*
X-10180782Y-8806804D01*
X-10122461Y-8773132D01*
X-10018143Y-8751785D01*
X72744348Y-3859400D02*
X72594033Y-3868422D01*
X72364051Y-3806798D01*
X72284383Y-3736152D01*
X72250711Y-3677831D01*
X72229364Y-3573514D01*
X72254013Y-3481521D01*
X72324659Y-3401852D01*
X72382981Y-3368181D01*
X72487298Y-3346834D01*
X72683609Y-3350136D01*
X72787926Y-3328789D01*
X72846248Y-3295117D01*
X72916894Y-3215449D01*
X72941543Y-3123456D01*
X72920196Y-3019138D01*
X72886524Y-2960817D01*
X72806856Y-2890171D01*
X72576874Y-2828548D01*
X72426560Y-2837570D01*
X72116909Y-2705301D02*
X71628108Y-3609603D01*
X71628992Y-2870357D01*
X71260136Y-3511005D01*
X71288973Y-2483456D01*
X70507033Y-2273935D02*
X70691018Y-2323234D01*
X70770687Y-2393880D01*
X70804358Y-2452201D01*
X70859377Y-2614840D01*
X70856075Y-2811151D01*
X70757477Y-3179123D01*
X70686831Y-3258791D01*
X70628510Y-3292463D01*
X70524192Y-3313810D01*
X70340206Y-3264511D01*
X70260538Y-3193865D01*
X70226866Y-3135544D01*
X70205519Y-3031226D01*
X70267143Y-2801244D01*
X70337789Y-2721575D01*
X70396110Y-2687904D01*
X70500428Y-2666557D01*
X70684414Y-2715856D01*
X70764082Y-2786501D01*
X70797754Y-2844823D01*
X70819101Y-2949140D01*
X55000862Y3524554D02*
X54850547Y3515532D01*
X54620565Y3577156D01*
X54540897Y3647802D01*
X54507225Y3706123D01*
X54485878Y3810440D01*
X54510527Y3902433D01*
X54581173Y3982102D01*
X54639495Y4015773D01*
X54743812Y4037120D01*
X54940123Y4033818D01*
X55044440Y4055165D01*
X55102762Y4088837D01*
X55173408Y4168505D01*
X55198057Y4260498D01*
X55176710Y4364816D01*
X55143038Y4423137D01*
X55063370Y4493783D01*
X54833388Y4555406D01*
X54683074Y4546384D01*
X54373423Y4678653D02*
X53884622Y3774351D01*
X53885506Y4513597D01*
X53516650Y3872949D01*
X53545487Y4900498D01*
X52717550Y5122343D02*
X53177515Y4999096D01*
X53100264Y4526807D01*
X53066592Y4585128D01*
X52986924Y4655774D01*
X52756942Y4717397D01*
X52652624Y4696050D01*
X52594303Y4662379D01*
X52523657Y4582710D01*
X52462033Y4352728D01*
X52483380Y4248410D01*
X52517052Y4190089D01*
X52596720Y4119443D01*
X52826703Y4057820D01*
X52931020Y4079167D01*
X52989342Y4112838D01*
X18199090Y13385558D02*
X18048775Y13376536D01*
X17818793Y13438160D01*
X17739125Y13508806D01*
X17705453Y13567127D01*
X17684106Y13671444D01*
X17708755Y13763437D01*
X17779401Y13843106D01*
X17837723Y13876777D01*
X17942040Y13898124D01*
X18138351Y13894822D01*
X18242668Y13916169D01*
X18300990Y13949841D01*
X18371636Y14029509D01*
X18396285Y14121502D01*
X18374938Y14225820D01*
X18341266Y14284141D01*
X18261598Y14354787D01*
X18031616Y14416410D01*
X17881302Y14407388D01*
X17571651Y14539657D02*
X17082850Y13635355D01*
X17083734Y14374601D01*
X16714878Y13733953D01*
X16743715Y14761502D01*
X16467736Y14835451D02*
X15869782Y14995672D01*
X16093159Y14541427D01*
X15955170Y14578401D01*
X15850852Y14557054D01*
X15792531Y14523383D01*
X15721885Y14443714D01*
X15660261Y14213732D01*
X15681608Y14109414D01*
X15715280Y14051093D01*
X15794948Y13980447D01*
X16070927Y13906499D01*
X16175245Y13927846D01*
X16233566Y13961518D01*
X-2831396Y8502254D02*
X-2981711Y8493232D01*
X-3211693Y8554856D01*
X-3291361Y8625502D01*
X-3325033Y8683823D01*
X-3346380Y8788140D01*
X-3321731Y8880133D01*
X-3251085Y8959802D01*
X-3192763Y8993473D01*
X-3088446Y9014820D01*
X-2892135Y9011518D01*
X-2787818Y9032865D01*
X-2729496Y9066537D01*
X-2658850Y9146205D01*
X-2634201Y9238198D01*
X-2655548Y9342516D01*
X-2689220Y9400837D01*
X-2768888Y9471483D01*
X-2998870Y9533106D01*
X-3149184Y9524084D01*
X-3458835Y9656353D02*
X-3947636Y8752051D01*
X-3946752Y9491297D01*
X-4315608Y8850649D01*
X-4286771Y9878198D01*
X-4633396Y9872478D02*
X-4667068Y9930800D01*
X-4746736Y10001445D01*
X-4976718Y10063069D01*
X-5081036Y10041722D01*
X-5139357Y10008050D01*
X-5210003Y9928382D01*
X-5234653Y9836389D01*
X-5225630Y9686075D01*
X-4821569Y8986221D01*
X-5419523Y9146442D01*
X90280380Y5276667D02*
X89804190Y5610000D01*
X90280380Y5848096D02*
X89280380Y5848096D01*
X89280380Y5467143D01*
X89328000Y5371905D01*
X89375619Y5324286D01*
X89470857Y5276667D01*
X89613714Y5276667D01*
X89708952Y5324286D01*
X89756571Y5371905D01*
X89804190Y5467143D01*
X89804190Y5848096D01*
X89375619Y4895715D02*
X89328000Y4848096D01*
X89280380Y4752858D01*
X89280380Y4514762D01*
X89328000Y4419524D01*
X89375619Y4371905D01*
X89470857Y4324286D01*
X89566095Y4324286D01*
X89708952Y4371905D01*
X90280380Y4943334D01*
X90280380Y4324286D01*
X96978666Y-36619142D02*
X97026285Y-36666761D01*
X97169142Y-36714380D01*
X97264380Y-36714380D01*
X97407238Y-36666761D01*
X97502476Y-36571523D01*
X97550095Y-36476285D01*
X97597714Y-36285809D01*
X97597714Y-36142952D01*
X97550095Y-35952476D01*
X97502476Y-35857238D01*
X97407238Y-35762000D01*
X97264380Y-35714380D01*
X97169142Y-35714380D01*
X97026285Y-35762000D01*
X96978666Y-35809619D01*
X96073904Y-35714380D02*
X96550095Y-35714380D01*
X96597714Y-36190571D01*
X96550095Y-36142952D01*
X96454857Y-36095333D01*
X96216761Y-36095333D01*
X96121523Y-36142952D01*
X96073904Y-36190571D01*
X96026285Y-36285809D01*
X96026285Y-36523904D01*
X96073904Y-36619142D01*
X96121523Y-36666761D01*
X96216761Y-36714380D01*
X96454857Y-36714380D01*
X96550095Y-36666761D01*
X96597714Y-36619142D01*
X95743142Y-14349333D02*
X95790761Y-14301714D01*
X95838380Y-14158857D01*
X95838380Y-14063619D01*
X95790761Y-13920761D01*
X95695523Y-13825523D01*
X95600285Y-13777904D01*
X95409809Y-13730285D01*
X95266952Y-13730285D01*
X95076476Y-13777904D01*
X94981238Y-13825523D01*
X94886000Y-13920761D01*
X94838380Y-14063619D01*
X94838380Y-14158857D01*
X94886000Y-14301714D01*
X94933619Y-14349333D01*
X95266952Y-14920761D02*
X95219333Y-14825523D01*
X95171714Y-14777904D01*
X95076476Y-14730285D01*
X95028857Y-14730285D01*
X94933619Y-14777904D01*
X94886000Y-14825523D01*
X94838380Y-14920761D01*
X94838380Y-15111238D01*
X94886000Y-15206476D01*
X94933619Y-15254095D01*
X95028857Y-15301714D01*
X95076476Y-15301714D01*
X95171714Y-15254095D01*
X95219333Y-15206476D01*
X95266952Y-15111238D01*
X95266952Y-14920761D01*
X95314571Y-14825523D01*
X95362190Y-14777904D01*
X95457428Y-14730285D01*
X95647904Y-14730285D01*
X95743142Y-14777904D01*
X95790761Y-14825523D01*
X95838380Y-14920761D01*
X95838380Y-15111238D01*
X95790761Y-15206476D01*
X95743142Y-15254095D01*
X95647904Y-15301714D01*
X95457428Y-15301714D01*
X95362190Y-15254095D01*
X95314571Y-15206476D01*
X95266952Y-15111238D01*
X94531142Y-19429333D02*
X94578761Y-19381714D01*
X94626380Y-19238857D01*
X94626380Y-19143619D01*
X94578761Y-19000761D01*
X94483523Y-18905523D01*
X94388285Y-18857904D01*
X94197809Y-18810285D01*
X94054952Y-18810285D01*
X93864476Y-18857904D01*
X93769238Y-18905523D01*
X93674000Y-19000761D01*
X93626380Y-19143619D01*
X93626380Y-19238857D01*
X93674000Y-19381714D01*
X93721619Y-19429333D01*
X93626380Y-20334095D02*
X93626380Y-19857904D01*
X94102571Y-19810285D01*
X94054952Y-19857904D01*
X94007333Y-19953142D01*
X94007333Y-20191238D01*
X94054952Y-20286476D01*
X94102571Y-20334095D01*
X94197809Y-20381714D01*
X94435904Y-20381714D01*
X94531142Y-20334095D01*
X94578761Y-20286476D01*
X94626380Y-20191238D01*
X94626380Y-19953142D01*
X94578761Y-19857904D01*
X94531142Y-19810285D01*
X113327142Y-21207333D02*
X113374761Y-21159714D01*
X113422380Y-21016857D01*
X113422380Y-20921619D01*
X113374761Y-20778761D01*
X113279523Y-20683523D01*
X113184285Y-20635904D01*
X112993809Y-20588285D01*
X112850952Y-20588285D01*
X112660476Y-20635904D01*
X112565238Y-20683523D01*
X112470000Y-20778761D01*
X112422380Y-20921619D01*
X112422380Y-21016857D01*
X112470000Y-21159714D01*
X112517619Y-21207333D01*
X112755714Y-22064476D02*
X113422380Y-22064476D01*
X112374761Y-21826380D02*
X113089047Y-21588285D01*
X113089047Y-22207333D01*
X107646666Y-33005142D02*
X107694285Y-33052761D01*
X107837142Y-33100380D01*
X107932380Y-33100380D01*
X108075238Y-33052761D01*
X108170476Y-32957523D01*
X108218095Y-32862285D01*
X108265714Y-32671809D01*
X108265714Y-32528952D01*
X108218095Y-32338476D01*
X108170476Y-32243238D01*
X108075238Y-32148000D01*
X107932380Y-32100380D01*
X107837142Y-32100380D01*
X107694285Y-32148000D01*
X107646666Y-32195619D01*
X107313333Y-32100380D02*
X106694285Y-32100380D01*
X107027619Y-32481333D01*
X106884761Y-32481333D01*
X106789523Y-32528952D01*
X106741904Y-32576571D01*
X106694285Y-32671809D01*
X106694285Y-32909904D01*
X106741904Y-33005142D01*
X106789523Y-33052761D01*
X106884761Y-33100380D01*
X107170476Y-33100380D01*
X107265714Y-33052761D01*
X107313333Y-33005142D01*
X108501142Y-14349333D02*
X108548761Y-14301714D01*
X108596380Y-14158857D01*
X108596380Y-14063619D01*
X108548761Y-13920761D01*
X108453523Y-13825523D01*
X108358285Y-13777904D01*
X108167809Y-13730285D01*
X108024952Y-13730285D01*
X107834476Y-13777904D01*
X107739238Y-13825523D01*
X107644000Y-13920761D01*
X107596380Y-14063619D01*
X107596380Y-14158857D01*
X107644000Y-14301714D01*
X107691619Y-14349333D01*
X107596380Y-14682666D02*
X107596380Y-15349333D01*
X108596380Y-14920761D01*
X92753142Y-32637333D02*
X92800761Y-32589714D01*
X92848380Y-32446857D01*
X92848380Y-32351619D01*
X92800761Y-32208761D01*
X92705523Y-32113523D01*
X92610285Y-32065904D01*
X92419809Y-32018285D01*
X92276952Y-32018285D01*
X92086476Y-32065904D01*
X91991238Y-32113523D01*
X91896000Y-32208761D01*
X91848380Y-32351619D01*
X91848380Y-32446857D01*
X91896000Y-32589714D01*
X91943619Y-32637333D01*
X91943619Y-33018285D02*
X91896000Y-33065904D01*
X91848380Y-33161142D01*
X91848380Y-33399238D01*
X91896000Y-33494476D01*
X91943619Y-33542095D01*
X92038857Y-33589714D01*
X92134095Y-33589714D01*
X92276952Y-33542095D01*
X92848380Y-32970666D01*
X92848380Y-33589714D01*
X88631142Y-26287333D02*
X88678761Y-26239714D01*
X88726380Y-26096857D01*
X88726380Y-26001619D01*
X88678761Y-25858761D01*
X88583523Y-25763523D01*
X88488285Y-25715904D01*
X88297809Y-25668285D01*
X88154952Y-25668285D01*
X87964476Y-25715904D01*
X87869238Y-25763523D01*
X87774000Y-25858761D01*
X87726380Y-26001619D01*
X87726380Y-26096857D01*
X87774000Y-26239714D01*
X87821619Y-26287333D01*
X88726380Y-27239714D02*
X88726380Y-26668285D01*
X88726380Y-26954000D02*
X87726380Y-26954000D01*
X87869238Y-26858761D01*
X87964476Y-26763523D01*
X88012095Y-26668285D01*
X-8032682Y12989317D02*
X-8998608Y13248136D01*
X-9060231Y13018154D01*
X-9051209Y12867840D01*
X-8983866Y12751197D01*
X-8904197Y12680551D01*
X-8732536Y12585256D01*
X-8594547Y12548282D01*
X-8398236Y12544979D01*
X-8293919Y12566326D01*
X-8177276Y12633670D01*
X-8094306Y12759335D01*
X-8032682Y12989317D01*
X-9153109Y12303557D02*
X-9211430Y12269885D01*
X-9282076Y12190217D01*
X-9343700Y11960235D01*
X-9322353Y11855917D01*
X-9288681Y11797596D01*
X-9209013Y11726950D01*
X-9117020Y11702301D01*
X-8966706Y11711323D01*
X-8266852Y12115384D01*
X-8427073Y11517430D01*
X13129688Y17794260D02*
X12163762Y18053079D01*
X12102139Y17823097D01*
X12111161Y17672783D01*
X12178504Y17556140D01*
X12258173Y17485494D01*
X12429834Y17390199D01*
X12567823Y17353225D01*
X12764134Y17349922D01*
X12868451Y17371269D01*
X12985094Y17438613D01*
X13068064Y17564278D01*
X13129688Y17794260D01*
X11929593Y17179146D02*
X11769371Y16581192D01*
X12223616Y16804570D01*
X12186642Y16666580D01*
X12207989Y16562263D01*
X12241661Y16503941D01*
X12321329Y16433295D01*
X12551311Y16371672D01*
X12655629Y16393019D01*
X12713950Y16426691D01*
X12784596Y16506359D01*
X12858544Y16782338D01*
X12837197Y16886655D01*
X12803526Y16944976D01*
X32845375Y17770661D02*
X31879449Y18029480D01*
X31817826Y17799498D01*
X31826848Y17649184D01*
X31894191Y17532541D01*
X31973860Y17461895D01*
X32145521Y17366600D01*
X32283510Y17329626D01*
X32479821Y17326323D01*
X32584138Y17347670D01*
X32700781Y17415014D01*
X32783751Y17540679D01*
X32845375Y17770661D01*
X31831683Y16563313D02*
X32475634Y16390767D01*
X31525335Y16891893D02*
X32276905Y16937005D01*
X32116684Y16339051D01*
X49799576Y8011617D02*
X48833650Y8270436D01*
X48772027Y8040454D01*
X48781049Y7890140D01*
X48848392Y7773497D01*
X48928061Y7702851D01*
X49099722Y7607556D01*
X49237711Y7570582D01*
X49434022Y7567279D01*
X49538339Y7588626D01*
X49654982Y7655970D01*
X49737952Y7781635D01*
X49799576Y8011617D01*
X48451584Y6844545D02*
X48574831Y7304510D01*
X49047121Y7227259D01*
X48988799Y7193588D01*
X48918153Y7113919D01*
X48856530Y6883937D01*
X48877877Y6779620D01*
X48911549Y6721298D01*
X48991217Y6650652D01*
X49221199Y6589029D01*
X49325517Y6610376D01*
X49383838Y6644048D01*
X49454484Y6723716D01*
X49516108Y6953698D01*
X49494761Y7058016D01*
X49461089Y7116337D01*
X67543062Y627663D02*
X66577136Y886482D01*
X66515513Y656500D01*
X66524535Y506186D01*
X66591878Y389543D01*
X66671547Y318897D01*
X66843208Y223602D01*
X66981197Y186628D01*
X67177508Y183325D01*
X67281825Y204672D01*
X67398468Y272016D01*
X67481438Y397681D01*
X67543062Y627663D01*
X66207395Y-493412D02*
X66256694Y-309426D01*
X66327339Y-229758D01*
X66385661Y-196086D01*
X66548300Y-141067D01*
X66744610Y-144370D01*
X67112582Y-242968D01*
X67192250Y-313613D01*
X67225922Y-371935D01*
X67247269Y-476252D01*
X67197970Y-660238D01*
X67127324Y-739906D01*
X67069003Y-773578D01*
X66964685Y-794925D01*
X66734703Y-733302D01*
X66655035Y-662656D01*
X66621363Y-604334D01*
X66600016Y-500017D01*
X66649315Y-316031D01*
X66719961Y-236363D01*
X66778282Y-202691D01*
X66882600Y-181344D01*
X-12963184Y-5411569D02*
X-13929110Y-5152750D01*
X-13990733Y-5382732D01*
X-13981711Y-5533046D01*
X-13914368Y-5649689D01*
X-13834699Y-5720335D01*
X-13663038Y-5815630D01*
X-13525049Y-5852604D01*
X-13328738Y-5855907D01*
X-13224421Y-5834560D01*
X-13107778Y-5767216D01*
X-13024808Y-5641551D01*
X-12963184Y-5411569D01*
X-13810935Y-6367588D02*
X-13832282Y-6263270D01*
X-13865954Y-6204949D01*
X-13945622Y-6134303D01*
X-13991618Y-6121978D01*
X-14095936Y-6143325D01*
X-14154257Y-6176997D01*
X-14224903Y-6256665D01*
X-14274202Y-6440651D01*
X-14252855Y-6544969D01*
X-14219183Y-6603290D01*
X-14139515Y-6673936D01*
X-14093518Y-6686261D01*
X-13989201Y-6664914D01*
X-13930880Y-6631242D01*
X-13860234Y-6551574D01*
X-13810935Y-6367588D01*
X-13740289Y-6287919D01*
X-13681968Y-6254248D01*
X-13577650Y-6232901D01*
X-13393664Y-6282200D01*
X-13313996Y-6352845D01*
X-13280324Y-6411167D01*
X-13258977Y-6515484D01*
X-13308276Y-6699470D01*
X-13378922Y-6779138D01*
X-13437243Y-6812810D01*
X-13541561Y-6834157D01*
X-13725547Y-6784858D01*
X-13805215Y-6714212D01*
X-13838887Y-6655891D01*
X-13860234Y-6551574D01*
X8199186Y-606626D02*
X7233260Y-347807D01*
X7171637Y-577789D01*
X7180659Y-728103D01*
X7248002Y-844746D01*
X7327671Y-915392D01*
X7499332Y-1010687D01*
X7637321Y-1047661D01*
X7833632Y-1050964D01*
X7937949Y-1029617D01*
X8054592Y-962273D01*
X8137562Y-836608D01*
X8199186Y-606626D01*
X7928042Y-1618548D02*
X7878743Y-1802534D01*
X7808098Y-1882202D01*
X7749776Y-1915874D01*
X7587138Y-1970893D01*
X7390827Y-1967591D01*
X7022855Y-1868993D01*
X6943187Y-1798347D01*
X6909515Y-1740026D01*
X6888168Y-1635708D01*
X6937467Y-1451722D01*
X7008113Y-1372054D01*
X7066434Y-1338382D01*
X7170752Y-1317035D01*
X7400734Y-1378659D01*
X7480402Y-1449305D01*
X7514074Y-1507626D01*
X7535421Y-1611944D01*
X7486122Y-1795929D01*
X7415476Y-1875598D01*
X7357155Y-1909269D01*
X7252838Y-1930616D01*
X28038120Y-170260D02*
X27072194Y88559D01*
X27010571Y-141424D01*
X27019593Y-291738D01*
X27086937Y-408380D01*
X27166605Y-479026D01*
X27338266Y-574321D01*
X27476255Y-611296D01*
X27672566Y-614598D01*
X27776884Y-593251D01*
X27893526Y-525907D01*
X27976497Y-400243D01*
X28038120Y-170260D01*
X27643729Y-1642147D02*
X27791626Y-1090190D01*
X27717678Y-1366169D02*
X26751752Y-1107349D01*
X26914391Y-1052331D01*
X27031033Y-984987D01*
X27101679Y-905319D01*
X26517582Y-1981282D02*
X26492933Y-2073275D01*
X26514280Y-2177593D01*
X26547952Y-2235914D01*
X26627620Y-2306560D01*
X26799281Y-2401855D01*
X27029263Y-2463479D01*
X27225574Y-2466781D01*
X27329891Y-2445434D01*
X27388213Y-2411763D01*
X27458859Y-2332094D01*
X27483508Y-2240101D01*
X27462161Y-2135784D01*
X27428489Y-2077463D01*
X27348821Y-2006817D01*
X27177160Y-1911521D01*
X26947177Y-1849898D01*
X26750867Y-1846595D01*
X26646549Y-1867942D01*
X26588228Y-1901614D01*
X26517582Y-1981282D01*
X45124205Y-10007665D02*
X44158279Y-9748846D01*
X44096656Y-9978829D01*
X44105678Y-10129143D01*
X44173022Y-10245785D01*
X44252690Y-10316431D01*
X44424351Y-10411726D01*
X44562340Y-10448701D01*
X44758651Y-10452003D01*
X44862969Y-10430656D01*
X44979611Y-10363312D01*
X45062582Y-10237648D01*
X45124205Y-10007665D01*
X44729814Y-11479552D02*
X44877711Y-10927595D01*
X44803763Y-11203574D02*
X43837837Y-10944754D01*
X44000476Y-10889736D01*
X44117118Y-10822392D01*
X44187764Y-10742724D01*
X44483320Y-12399482D02*
X44631217Y-11847524D01*
X44557268Y-12123503D02*
X43591342Y-11864684D01*
X43753981Y-11809665D01*
X43870624Y-11742322D01*
X43941270Y-11662653D01*
X62735807Y-17313258D02*
X61769881Y-17054439D01*
X61708258Y-17284422D01*
X61717280Y-17434736D01*
X61784624Y-17551378D01*
X61864292Y-17622024D01*
X62035953Y-17717319D01*
X62173942Y-17754294D01*
X62370253Y-17757596D01*
X62474571Y-17736249D01*
X62591213Y-17668905D01*
X62674184Y-17543241D01*
X62735807Y-17313258D01*
X62341416Y-18785145D02*
X62489313Y-18233188D01*
X62415365Y-18509167D02*
X61449439Y-18250347D01*
X61612078Y-18195329D01*
X61728720Y-18127985D01*
X61799366Y-18048317D01*
X61368886Y-18918947D02*
X61310564Y-18952619D01*
X61239919Y-19032287D01*
X61178295Y-19262270D01*
X61199642Y-19366587D01*
X61233314Y-19424909D01*
X61312982Y-19495555D01*
X61404975Y-19520204D01*
X61555289Y-19511182D01*
X62255143Y-19107121D01*
X62094922Y-19705075D01*
X-17770439Y-23352490D02*
X-18736365Y-23093671D01*
X-18797988Y-23323654D01*
X-18788966Y-23473968D01*
X-18721622Y-23590610D01*
X-18641954Y-23661256D01*
X-18470293Y-23756551D01*
X-18332304Y-23793526D01*
X-18135993Y-23796828D01*
X-18031675Y-23775481D01*
X-17915033Y-23708137D01*
X-17832062Y-23582473D01*
X-17770439Y-23352490D01*
X-18164830Y-24824377D02*
X-18016933Y-24272420D01*
X-18090881Y-24548399D02*
X-19056807Y-24289579D01*
X-18894168Y-24234561D01*
X-18777526Y-24167217D01*
X-18706880Y-24087549D01*
X-19030625Y-25479768D02*
X-18386675Y-25652314D01*
X-19336973Y-25151188D02*
X-18585403Y-25106076D01*
X-18745624Y-25704030D01*
X3391931Y-18547547D02*
X2426005Y-18288728D01*
X2364382Y-18518711D01*
X2373404Y-18669025D01*
X2440748Y-18785667D01*
X2520416Y-18856313D01*
X2692077Y-18951608D01*
X2830066Y-18988583D01*
X3026377Y-18991885D01*
X3130695Y-18970538D01*
X3247337Y-18903194D01*
X3330308Y-18777530D01*
X3391931Y-18547547D01*
X2997540Y-20019434D02*
X3145437Y-19467477D01*
X3071489Y-19743456D02*
X2105563Y-19484636D01*
X2268202Y-19429618D01*
X2384844Y-19362274D01*
X2455490Y-19282606D01*
X1797445Y-20634548D02*
X1920692Y-20174584D01*
X2392981Y-20251834D01*
X2334660Y-20285506D01*
X2264014Y-20365174D01*
X2202391Y-20595157D01*
X2223738Y-20699474D01*
X2257410Y-20757795D01*
X2337078Y-20828441D01*
X2567060Y-20890065D01*
X2671378Y-20868718D01*
X2729699Y-20835046D01*
X2800345Y-20755378D01*
X2861968Y-20525395D01*
X2840621Y-20421078D01*
X2806950Y-20362757D01*
X23107618Y-18571146D02*
X22141692Y-18312327D01*
X22080069Y-18542310D01*
X22089091Y-18692624D01*
X22156435Y-18809266D01*
X22236103Y-18879912D01*
X22407764Y-18975207D01*
X22545753Y-19012182D01*
X22742064Y-19015484D01*
X22846382Y-18994137D01*
X22963024Y-18926793D01*
X23045995Y-18801129D01*
X23107618Y-18571146D01*
X22713227Y-20043033D02*
X22861124Y-19491076D01*
X22787176Y-19767055D02*
X21821250Y-19508235D01*
X21983889Y-19453217D01*
X22100531Y-19385873D01*
X22171177Y-19306205D01*
X21525457Y-20612151D02*
X21574755Y-20428165D01*
X21645401Y-20348497D01*
X21703723Y-20314825D01*
X21866361Y-20259806D01*
X22062672Y-20263108D01*
X22430644Y-20361706D01*
X22510312Y-20432352D01*
X22543984Y-20490673D01*
X22565331Y-20594991D01*
X22516032Y-20778977D01*
X22445386Y-20858645D01*
X22387065Y-20892317D01*
X22282747Y-20913664D01*
X22052765Y-20852040D01*
X21973097Y-20781394D01*
X21939425Y-20723073D01*
X21918078Y-20618756D01*
X21967377Y-20434770D01*
X22038023Y-20355101D01*
X22096344Y-20321430D01*
X22200661Y-20300083D01*
X40193703Y-28408551D02*
X39227777Y-28149732D01*
X39166154Y-28379715D01*
X39175176Y-28530029D01*
X39242520Y-28646671D01*
X39322188Y-28717317D01*
X39493849Y-28812612D01*
X39631838Y-28849587D01*
X39828149Y-28852889D01*
X39932467Y-28831542D01*
X40049109Y-28764198D01*
X40132080Y-28638534D01*
X40193703Y-28408551D01*
X39799312Y-29880438D02*
X39947209Y-29328481D01*
X39873261Y-29604460D02*
X38907335Y-29345640D01*
X39069974Y-29290622D01*
X39186616Y-29223278D01*
X39257262Y-29143610D01*
X38747113Y-29943595D02*
X38574567Y-30587545D01*
X39651416Y-30432396D01*
X57805305Y-35714144D02*
X56839379Y-35455325D01*
X56777756Y-35685308D01*
X56786778Y-35835622D01*
X56854122Y-35952264D01*
X56933790Y-36022910D01*
X57105451Y-36118205D01*
X57243440Y-36155180D01*
X57439751Y-36158482D01*
X57544069Y-36137135D01*
X57660711Y-36069791D01*
X57743682Y-35944127D01*
X57805305Y-35714144D01*
X57410914Y-37186031D02*
X57558811Y-36634074D01*
X57484863Y-36910053D02*
X56518937Y-36651233D01*
X56681576Y-36596215D01*
X56798218Y-36528871D01*
X56868864Y-36449203D01*
X56711060Y-37590092D02*
X56689713Y-37485775D01*
X56656041Y-37427454D01*
X56576373Y-37356808D01*
X56530377Y-37344483D01*
X56426059Y-37365830D01*
X56367738Y-37399502D01*
X56297092Y-37479170D01*
X56247793Y-37663156D01*
X56269140Y-37767473D01*
X56302812Y-37825795D01*
X56382480Y-37896441D01*
X56428476Y-37908765D01*
X56532794Y-37887418D01*
X56591115Y-37853746D01*
X56661761Y-37774078D01*
X56711060Y-37590092D01*
X56781706Y-37510424D01*
X56840027Y-37476752D01*
X56944345Y-37455405D01*
X57128331Y-37504704D01*
X57207999Y-37575350D01*
X57241671Y-37633671D01*
X57263018Y-37737989D01*
X57213719Y-37921975D01*
X57143073Y-38001643D01*
X57084752Y-38035315D01*
X56980434Y-38056662D01*
X56796448Y-38007363D01*
X56716780Y-37936717D01*
X56683108Y-37878396D01*
X56661761Y-37774078D01*
X114286923Y-6584004D02*
X115252849Y-6325185D01*
X115191226Y-6095203D01*
X115108255Y-5969538D01*
X114991613Y-5902195D01*
X114887295Y-5880848D01*
X114690984Y-5884150D01*
X114552995Y-5921124D01*
X114381334Y-6016420D01*
X114301666Y-6087065D01*
X114234322Y-6203708D01*
X114225300Y-6354022D01*
X114286923Y-6584004D01*
X113892532Y-5112117D02*
X114040429Y-5664075D01*
X113966481Y-5388096D02*
X114932407Y-5129277D01*
X114819067Y-5258244D01*
X114751723Y-5374886D01*
X114730376Y-5479204D01*
X113769285Y-4652153D02*
X113719986Y-4468167D01*
X113741333Y-4363849D01*
X113775005Y-4305528D01*
X113888345Y-4176561D01*
X114060006Y-4081265D01*
X114427978Y-3982668D01*
X114532296Y-4004015D01*
X114590617Y-4037687D01*
X114661263Y-4117355D01*
X114710562Y-4301341D01*
X114689215Y-4405658D01*
X114655543Y-4463979D01*
X114575875Y-4534625D01*
X114345892Y-4596249D01*
X114241575Y-4574902D01*
X114183253Y-4541230D01*
X114112608Y-4461562D01*
X114063309Y-4277576D01*
X114084656Y-4173258D01*
X114118327Y-4114937D01*
X114197996Y-4044291D01*
X132030409Y799950D02*
X132996335Y1058769D01*
X132934712Y1288751D01*
X132851741Y1414416D01*
X132735099Y1481759D01*
X132630781Y1503106D01*
X132434470Y1499804D01*
X132296481Y1462830D01*
X132124820Y1367534D01*
X132045152Y1296889D01*
X131977808Y1180246D01*
X131968786Y1029932D01*
X132030409Y799950D01*
X132657848Y1954049D02*
X132691520Y2012370D01*
X132712867Y2116688D01*
X132651243Y2346670D01*
X132580597Y2426338D01*
X132522276Y2460010D01*
X132417958Y2481357D01*
X132325965Y2456707D01*
X132200301Y2373737D01*
X131796240Y1673883D01*
X131636018Y2271837D01*
X132441723Y3128610D02*
X132417073Y3220603D01*
X132346428Y3300271D01*
X132288106Y3333943D01*
X132183789Y3355290D01*
X131987478Y3351987D01*
X131757496Y3290364D01*
X131585835Y3195068D01*
X131506166Y3124423D01*
X131472495Y3066101D01*
X131451148Y2961784D01*
X131475797Y2869791D01*
X131546443Y2790123D01*
X131604764Y2756451D01*
X131709082Y2735104D01*
X131905392Y2738406D01*
X132135375Y2800030D01*
X132307036Y2895325D01*
X132386704Y2965971D01*
X132420376Y3024292D01*
X132441723Y3128610D01*
X149116494Y10637355D02*
X150082420Y10896174D01*
X150020797Y11126156D01*
X149937826Y11251821D01*
X149821184Y11319164D01*
X149716866Y11340511D01*
X149520555Y11337209D01*
X149382566Y11300235D01*
X149210905Y11204939D01*
X149131237Y11134294D01*
X149063893Y11017651D01*
X149054871Y10867337D01*
X149116494Y10637355D01*
X149743933Y11791454D02*
X149777605Y11849775D01*
X149798952Y11954093D01*
X149737328Y12184075D01*
X149666682Y12263743D01*
X149608361Y12297415D01*
X149504043Y12318762D01*
X149412050Y12294112D01*
X149286386Y12211142D01*
X148882325Y11511288D01*
X148722103Y12109242D01*
X148475609Y13029171D02*
X148623506Y12477213D01*
X148549557Y12753192D02*
X149515483Y13012011D01*
X149402143Y12883044D01*
X149334800Y12766402D01*
X149313453Y12662084D01*
X168832181Y10660954D02*
X169798107Y10919773D01*
X169736484Y11149755D01*
X169653513Y11275420D01*
X169536871Y11342763D01*
X169432553Y11364110D01*
X169236242Y11360808D01*
X169098253Y11323834D01*
X168926592Y11228538D01*
X168846924Y11157893D01*
X168779580Y11041250D01*
X168770558Y10890936D01*
X168832181Y10660954D01*
X169459620Y11815053D02*
X169493292Y11873374D01*
X169514639Y11977692D01*
X169453015Y12207674D01*
X169382369Y12287342D01*
X169324048Y12321014D01*
X169219730Y12342361D01*
X169127737Y12317711D01*
X169002073Y12234741D01*
X168598012Y11534887D01*
X168437790Y12132841D01*
X169213126Y12734982D02*
X169246797Y12793303D01*
X169268144Y12897621D01*
X169206521Y13127603D01*
X169135875Y13207271D01*
X169077554Y13240943D01*
X168973236Y13262290D01*
X168881243Y13237641D01*
X168755578Y13154670D01*
X168351517Y12454816D01*
X168191296Y13052770D01*
X189862667Y5777651D02*
X190828593Y6036470D01*
X190766970Y6266452D01*
X190683999Y6392117D01*
X190567357Y6459460D01*
X190463039Y6480807D01*
X190266728Y6477505D01*
X190128739Y6440531D01*
X189957078Y6345235D01*
X189877410Y6274590D01*
X189810066Y6157947D01*
X189801044Y6007633D01*
X189862667Y5777651D01*
X190490106Y6931750D02*
X190523778Y6990071D01*
X190545125Y7094389D01*
X190483501Y7324371D01*
X190412855Y7404039D01*
X190354534Y7437711D01*
X190250216Y7459058D01*
X190158223Y7434408D01*
X190032559Y7351438D01*
X189628498Y6651584D01*
X189468276Y7249538D01*
X190347929Y7830332D02*
X190187708Y8428286D01*
X189906009Y8007713D01*
X189869035Y8145703D01*
X189798389Y8225371D01*
X189740068Y8259043D01*
X189635750Y8280390D01*
X189405768Y8218766D01*
X189326100Y8148120D01*
X189292428Y8089799D01*
X189271081Y7985481D01*
X189345029Y7709502D01*
X189415675Y7629834D01*
X189473996Y7596162D01*
X119217425Y-24984890D02*
X120183351Y-24726071D01*
X120121728Y-24496089D01*
X120038757Y-24370424D01*
X119922115Y-24303081D01*
X119817797Y-24281734D01*
X119621486Y-24285036D01*
X119483497Y-24322010D01*
X119311836Y-24417306D01*
X119232168Y-24487951D01*
X119164824Y-24604594D01*
X119155802Y-24754908D01*
X119217425Y-24984890D01*
X119844864Y-23830791D02*
X119878536Y-23772470D01*
X119899883Y-23668152D01*
X119838259Y-23438170D01*
X119767613Y-23358502D01*
X119709292Y-23324830D01*
X119604974Y-23303483D01*
X119512981Y-23328133D01*
X119387317Y-23411103D01*
X118983256Y-24110957D01*
X118823034Y-23513003D01*
X119554791Y-22380251D02*
X119678038Y-22840216D01*
X119230398Y-23009460D01*
X119264070Y-22951138D01*
X119285417Y-22846821D01*
X119223793Y-22616838D01*
X119153147Y-22537170D01*
X119094826Y-22503498D01*
X118990508Y-22482151D01*
X118760526Y-22543775D01*
X118680858Y-22614421D01*
X118647186Y-22672742D01*
X118625839Y-22777060D01*
X118687463Y-23007042D01*
X118758108Y-23086710D01*
X118816430Y-23120382D01*
X136960911Y-17600936D02*
X137926837Y-17342117D01*
X137865214Y-17112135D01*
X137782243Y-16986470D01*
X137665601Y-16919127D01*
X137561283Y-16897780D01*
X137364972Y-16901082D01*
X137226983Y-16938056D01*
X137055322Y-17033352D01*
X136975654Y-17103997D01*
X136908310Y-17220640D01*
X136899288Y-17370954D01*
X136960911Y-17600936D01*
X137588350Y-16446837D02*
X137622022Y-16388516D01*
X137643369Y-16284198D01*
X137581745Y-16054216D01*
X137511099Y-15974548D01*
X137452778Y-15940876D01*
X137348460Y-15919529D01*
X137256467Y-15944179D01*
X137130803Y-16027149D01*
X136726742Y-16727003D01*
X136566520Y-16129049D01*
X137310601Y-15042294D02*
X137359900Y-15226280D01*
X137338553Y-15330597D01*
X137304881Y-15388919D01*
X137191541Y-15517886D01*
X137019880Y-15613181D01*
X136651909Y-15711779D01*
X136547591Y-15690432D01*
X136489270Y-15656760D01*
X136418624Y-15577092D01*
X136369325Y-15393106D01*
X136390672Y-15288788D01*
X136424344Y-15230467D01*
X136504012Y-15159821D01*
X136733994Y-15098197D01*
X136838312Y-15119544D01*
X136896633Y-15153216D01*
X136967279Y-15232884D01*
X137016578Y-15416870D01*
X136995231Y-15521188D01*
X136961559Y-15579509D01*
X136881891Y-15650155D01*
X154046996Y-7763531D02*
X155012922Y-7504712D01*
X154951299Y-7274730D01*
X154868328Y-7149065D01*
X154751686Y-7081722D01*
X154647368Y-7060375D01*
X154451057Y-7063677D01*
X154313068Y-7100651D01*
X154141407Y-7195947D01*
X154061739Y-7266592D01*
X153994395Y-7383235D01*
X153985373Y-7533549D01*
X154046996Y-7763531D01*
X154674435Y-6609432D02*
X154708107Y-6551111D01*
X154729454Y-6446793D01*
X154667830Y-6216811D01*
X154597184Y-6137143D01*
X154538863Y-6103471D01*
X154434545Y-6082124D01*
X154342552Y-6106774D01*
X154216888Y-6189744D01*
X153812827Y-6889598D01*
X153652605Y-6291644D01*
X154532258Y-5710850D02*
X154359712Y-5066899D01*
X153504709Y-5739687D01*
X173762683Y-7739932D02*
X174728609Y-7481113D01*
X174666986Y-7251131D01*
X174584015Y-7125466D01*
X174467373Y-7058123D01*
X174363055Y-7036776D01*
X174166744Y-7040078D01*
X174028755Y-7077052D01*
X173857094Y-7172348D01*
X173777426Y-7242993D01*
X173710082Y-7359636D01*
X173701060Y-7509950D01*
X173762683Y-7739932D01*
X174390122Y-6585833D02*
X174423794Y-6527512D01*
X174445141Y-6423194D01*
X174383517Y-6193212D01*
X174312871Y-6113544D01*
X174254550Y-6079872D01*
X174150232Y-6058525D01*
X174058239Y-6083175D01*
X173932575Y-6166145D01*
X173528514Y-6865999D01*
X173368292Y-6268045D01*
X173772353Y-5568191D02*
X173842999Y-5647859D01*
X173901321Y-5681531D01*
X174005638Y-5702878D01*
X174051635Y-5690553D01*
X174131303Y-5619907D01*
X174164975Y-5561586D01*
X174186322Y-5457269D01*
X174137023Y-5273283D01*
X174066377Y-5193615D01*
X174008056Y-5159943D01*
X173903738Y-5138596D01*
X173857742Y-5150920D01*
X173778073Y-5221566D01*
X173744402Y-5279888D01*
X173723055Y-5384205D01*
X173772353Y-5568191D01*
X173751006Y-5672509D01*
X173717335Y-5730830D01*
X173637666Y-5801476D01*
X173453681Y-5850775D01*
X173349363Y-5829428D01*
X173291042Y-5795756D01*
X173220396Y-5716088D01*
X173171097Y-5532102D01*
X173192444Y-5427784D01*
X173226116Y-5369463D01*
X173305784Y-5298817D01*
X173489770Y-5249518D01*
X173594087Y-5270865D01*
X173652409Y-5304537D01*
X173723055Y-5384205D01*
X194793169Y-12623235D02*
X195759095Y-12364416D01*
X195697472Y-12134434D01*
X195614501Y-12008769D01*
X195497859Y-11941426D01*
X195393541Y-11920079D01*
X195197230Y-11923381D01*
X195059241Y-11960355D01*
X194887580Y-12055651D01*
X194807912Y-12126296D01*
X194740568Y-12242939D01*
X194731546Y-12393253D01*
X194793169Y-12623235D01*
X195420608Y-11469136D02*
X195454280Y-11410815D01*
X195475627Y-11306497D01*
X195414003Y-11076515D01*
X195343357Y-10996847D01*
X195285036Y-10963175D01*
X195180718Y-10941828D01*
X195088725Y-10966478D01*
X194963061Y-11049448D01*
X194559000Y-11749302D01*
X194398778Y-11151348D01*
X194275531Y-10691384D02*
X194226232Y-10507398D01*
X194247579Y-10403080D01*
X194281251Y-10344759D01*
X194394591Y-10215792D01*
X194566252Y-10120496D01*
X194934224Y-10021899D01*
X195038542Y-10043246D01*
X195096863Y-10076918D01*
X195167509Y-10156586D01*
X195216808Y-10340572D01*
X195195461Y-10444889D01*
X195161789Y-10503210D01*
X195082121Y-10573856D01*
X194852138Y-10635480D01*
X194747821Y-10614133D01*
X194689499Y-10580461D01*
X194618854Y-10500793D01*
X194569555Y-10316807D01*
X194590902Y-10212489D01*
X194624573Y-10154168D01*
X194704242Y-10083522D01*
X124147927Y-43385776D02*
X125113853Y-43126957D01*
X125052230Y-42896975D01*
X124969259Y-42771310D01*
X124852617Y-42703967D01*
X124748299Y-42682620D01*
X124551988Y-42685922D01*
X124413999Y-42722896D01*
X124242338Y-42818192D01*
X124162670Y-42888837D01*
X124095326Y-43005480D01*
X124086304Y-43155794D01*
X124147927Y-43385776D01*
X124879684Y-42253024D02*
X124719462Y-41655070D01*
X124437763Y-42075643D01*
X124400789Y-41937654D01*
X124330143Y-41857986D01*
X124271822Y-41824314D01*
X124167505Y-41802967D01*
X123937522Y-41864590D01*
X123857854Y-41935236D01*
X123824182Y-41993557D01*
X123802835Y-42097875D01*
X123876784Y-42373854D01*
X123947429Y-42453522D01*
X124005751Y-42487194D01*
X123507042Y-40993960D02*
X123654939Y-41545918D01*
X123580990Y-41269939D02*
X124546916Y-41011120D01*
X124433576Y-41140087D01*
X124366233Y-41256729D01*
X124344886Y-41361047D01*
X141891413Y-36001822D02*
X142857339Y-35743003D01*
X142795716Y-35513021D01*
X142712745Y-35387356D01*
X142596103Y-35320013D01*
X142491785Y-35298666D01*
X142295474Y-35301968D01*
X142157485Y-35338942D01*
X141985824Y-35434238D01*
X141906156Y-35504883D01*
X141838812Y-35621526D01*
X141829790Y-35771840D01*
X141891413Y-36001822D01*
X142623170Y-34869070D02*
X142462948Y-34271116D01*
X142181249Y-34691689D01*
X142144275Y-34553700D01*
X142073629Y-34474032D01*
X142015308Y-34440360D01*
X141910991Y-34419013D01*
X141681008Y-34480636D01*
X141601340Y-34551282D01*
X141567668Y-34609603D01*
X141546321Y-34713921D01*
X141620270Y-34989900D01*
X141690915Y-35069568D01*
X141749237Y-35103240D01*
X142272358Y-33927794D02*
X142306029Y-33869473D01*
X142327376Y-33765155D01*
X142265753Y-33535173D01*
X142195107Y-33455505D01*
X142136786Y-33421833D01*
X142032468Y-33400486D01*
X141940475Y-33425135D01*
X141814810Y-33508106D01*
X141410749Y-34207960D01*
X141250528Y-33610006D01*
X158977498Y-26164417D02*
X159943424Y-25905598D01*
X159881801Y-25675616D01*
X159798830Y-25549951D01*
X159682188Y-25482608D01*
X159577870Y-25461261D01*
X159381559Y-25464563D01*
X159243570Y-25501537D01*
X159071909Y-25596833D01*
X158992241Y-25667478D01*
X158924897Y-25784121D01*
X158915875Y-25934435D01*
X158977498Y-26164417D01*
X159709255Y-25031665D02*
X159549033Y-24433711D01*
X159267334Y-24854284D01*
X159230360Y-24716295D01*
X159159714Y-24636627D01*
X159101393Y-24602955D01*
X158997076Y-24581608D01*
X158767093Y-24643231D01*
X158687425Y-24713877D01*
X158653753Y-24772198D01*
X158632406Y-24876516D01*
X158706355Y-25152495D01*
X158777000Y-25232163D01*
X158835322Y-25265835D01*
X159462760Y-24111736D02*
X159302539Y-23513782D01*
X159020840Y-23934355D01*
X158983866Y-23796365D01*
X158913220Y-23716697D01*
X158854899Y-23683025D01*
X158750581Y-23661678D01*
X158520599Y-23723302D01*
X158440931Y-23793948D01*
X158407259Y-23852269D01*
X158385912Y-23956587D01*
X158459860Y-24232566D01*
X158530506Y-24312234D01*
X158588827Y-24345906D01*
X178693185Y-26140818D02*
X179659111Y-25881999D01*
X179597488Y-25652017D01*
X179514517Y-25526352D01*
X179397875Y-25459009D01*
X179293557Y-25437662D01*
X179097246Y-25440964D01*
X178959257Y-25477938D01*
X178787596Y-25573234D01*
X178707928Y-25643879D01*
X178640584Y-25760522D01*
X178631562Y-25910836D01*
X178693185Y-26140818D01*
X179424942Y-25008066D02*
X179264720Y-24410112D01*
X178983021Y-24830685D01*
X178946047Y-24692696D01*
X178875401Y-24613028D01*
X178817080Y-24579356D01*
X178712763Y-24558009D01*
X178482780Y-24619632D01*
X178403112Y-24690278D01*
X178369440Y-24748599D01*
X178348093Y-24852917D01*
X178422042Y-25128896D01*
X178492687Y-25208564D01*
X178551009Y-25242236D01*
X178720900Y-23668449D02*
X178076950Y-23840995D01*
X179150495Y-23799833D02*
X178522172Y-24214687D01*
X178361951Y-23616732D01*
X199723671Y-31024121D02*
X200689597Y-30765302D01*
X200627974Y-30535320D01*
X200545003Y-30409655D01*
X200428361Y-30342312D01*
X200324043Y-30320965D01*
X200127732Y-30324267D01*
X199989743Y-30361241D01*
X199818082Y-30456537D01*
X199738414Y-30527182D01*
X199671070Y-30643825D01*
X199662048Y-30794139D01*
X199723671Y-31024121D01*
X200455428Y-29891369D02*
X200295206Y-29293415D01*
X200013507Y-29713988D01*
X199976533Y-29575999D01*
X199905887Y-29496331D01*
X199847566Y-29462659D01*
X199743249Y-29441312D01*
X199513266Y-29502935D01*
X199433598Y-29573581D01*
X199399926Y-29631902D01*
X199378579Y-29736220D01*
X199452528Y-30012199D01*
X199523173Y-30091867D01*
X199581495Y-30125539D01*
X200061037Y-28419482D02*
X200184284Y-28879447D01*
X199736644Y-29048691D01*
X199770316Y-28990369D01*
X199791663Y-28886052D01*
X199730039Y-28656069D01*
X199659393Y-28576401D01*
X199601072Y-28542729D01*
X199496754Y-28521382D01*
X199266772Y-28583006D01*
X199187104Y-28653652D01*
X199153432Y-28711973D01*
X199132085Y-28816291D01*
X199193709Y-29046273D01*
X199264354Y-29125941D01*
X199322676Y-29159613D01*
X31844315Y-58998334D02*
X30878389Y-58739515D01*
X30816766Y-58969498D01*
X30825788Y-59119812D01*
X30893132Y-59236454D01*
X30972800Y-59307100D01*
X31144461Y-59402395D01*
X31282450Y-59439370D01*
X31478761Y-59442672D01*
X31583079Y-59421325D01*
X31699721Y-59353981D01*
X31782692Y-59228317D01*
X31844315Y-58998334D01*
X30644220Y-59613448D02*
X30483998Y-60211402D01*
X30938243Y-59988025D01*
X30901269Y-60126014D01*
X30922616Y-60230332D01*
X30956288Y-60288653D01*
X31035956Y-60359299D01*
X31265938Y-60420922D01*
X31370256Y-60399575D01*
X31428577Y-60365904D01*
X31499223Y-60286235D01*
X31573171Y-60010257D01*
X31551824Y-59905939D01*
X31518153Y-59847618D01*
X30397725Y-60533378D02*
X30225179Y-61177328D01*
X31302028Y-61022179D01*
X53713099Y-65663237D02*
X52806791Y-65240619D01*
X52706168Y-65456407D01*
X52688951Y-65606004D01*
X52735017Y-65732568D01*
X52801208Y-65815975D01*
X52953713Y-65939631D01*
X53083185Y-66000005D01*
X53275940Y-66037347D01*
X53382380Y-66034438D01*
X53508944Y-65988373D01*
X53612476Y-65879025D01*
X53713099Y-65663237D01*
X52424423Y-66060612D02*
X52162802Y-66621660D01*
X52648935Y-66480554D01*
X52588561Y-66610027D01*
X52591469Y-66716467D01*
X52614501Y-66779749D01*
X52680692Y-66863156D01*
X52896479Y-66963779D01*
X53002919Y-66960871D01*
X53066201Y-66937838D01*
X53149608Y-66871648D01*
X53270356Y-66612703D01*
X53267448Y-66506263D01*
X53244415Y-66442981D01*
X52309723Y-67320672D02*
X52306815Y-67214232D01*
X52283782Y-67150950D01*
X52217592Y-67067543D01*
X52174434Y-67047418D01*
X52067995Y-67050327D01*
X52004712Y-67073359D01*
X51921306Y-67139550D01*
X51840807Y-67312180D01*
X51843715Y-67418619D01*
X51866748Y-67481902D01*
X51932938Y-67565309D01*
X51976096Y-67585433D01*
X52082535Y-67582525D01*
X52145818Y-67559492D01*
X52229224Y-67493302D01*
X52309723Y-67320672D01*
X52393130Y-67254481D01*
X52456412Y-67231449D01*
X52562852Y-67228540D01*
X52735482Y-67309039D01*
X52801672Y-67392446D01*
X52824705Y-67455728D01*
X52827613Y-67562168D01*
X52747115Y-67734798D01*
X52663708Y-67800988D01*
X52600426Y-67824021D01*
X52493986Y-67826929D01*
X52321356Y-67746431D01*
X52255165Y-67663024D01*
X52232133Y-67599742D01*
X52229224Y-67493302D01*
X74034050Y-75412916D02*
X73214898Y-74839339D01*
X73078332Y-75034376D01*
X73035400Y-75178711D01*
X73058788Y-75311351D01*
X73109489Y-75404985D01*
X73238205Y-75553245D01*
X73355227Y-75635184D01*
X73538569Y-75705430D01*
X73643897Y-75721049D01*
X73776537Y-75697661D01*
X73897484Y-75607952D01*
X74034050Y-75412916D01*
X72695948Y-75580477D02*
X72340877Y-76087571D01*
X72844127Y-76033026D01*
X72762187Y-76150048D01*
X72746568Y-76255375D01*
X72758262Y-76321696D01*
X72808964Y-76415329D01*
X73004000Y-76551895D01*
X73109327Y-76567514D01*
X73175648Y-76555820D01*
X73269281Y-76505119D01*
X73433160Y-76271075D01*
X73448779Y-76165748D01*
X73437085Y-76099427D01*
X72886897Y-77051220D02*
X72777644Y-77207249D01*
X72684011Y-77257950D01*
X72617690Y-77269644D01*
X72446042Y-77265719D01*
X72262700Y-77195474D01*
X71950642Y-76976969D01*
X71899941Y-76883335D01*
X71888247Y-76817015D01*
X71903866Y-76711687D01*
X72013119Y-76555658D01*
X72106752Y-76504957D01*
X72173073Y-76493263D01*
X72278400Y-76508882D01*
X72473437Y-76645448D01*
X72524138Y-76739081D01*
X72535832Y-76805402D01*
X72520213Y-76910729D01*
X72410960Y-77066758D01*
X72317327Y-77117459D01*
X72251006Y-77129154D01*
X72145679Y-77113534D01*
X111501611Y-89053312D02*
X112320763Y-88479736D01*
X112184198Y-88284700D01*
X112063251Y-88194991D01*
X111930610Y-88171603D01*
X111825282Y-88187222D01*
X111641940Y-88257467D01*
X111524919Y-88339407D01*
X111396203Y-88487667D01*
X111345501Y-88581300D01*
X111322113Y-88713941D01*
X111365046Y-88858276D01*
X111501611Y-89053312D01*
X111228318Y-87500711D02*
X110682216Y-87883095D01*
X111676942Y-87477242D02*
X111228399Y-88081975D01*
X110873328Y-87574881D01*
X111091671Y-86724410D02*
X111037045Y-86646395D01*
X110943411Y-86595694D01*
X110877091Y-86584000D01*
X110771763Y-86599619D01*
X110588421Y-86669865D01*
X110393385Y-86806430D01*
X110264669Y-86954690D01*
X110213968Y-87048324D01*
X110202274Y-87114644D01*
X110217893Y-87219972D01*
X110272519Y-87297986D01*
X110366153Y-87348688D01*
X110432473Y-87360382D01*
X110537801Y-87344763D01*
X110721143Y-87274517D01*
X110916179Y-87137951D01*
X111044895Y-86989692D01*
X111095596Y-86896058D01*
X111107290Y-86829738D01*
X111091671Y-86724410D01*
X129646566Y-76342938D02*
X130552874Y-75920319D01*
X130452251Y-75704532D01*
X130348719Y-75595184D01*
X130222155Y-75549118D01*
X130115715Y-75546210D01*
X129922960Y-75583551D01*
X129793488Y-75643925D01*
X129640983Y-75767582D01*
X129574792Y-75850988D01*
X129528727Y-75977553D01*
X129545943Y-76127150D01*
X129646566Y-76342938D01*
X129647031Y-74766467D02*
X129042826Y-75048212D01*
X130092915Y-74821257D02*
X129546175Y-75338915D01*
X129284555Y-74777867D01*
X128600083Y-74098747D02*
X128841579Y-74616637D01*
X128720831Y-74357692D02*
X129627139Y-73935074D01*
X129537916Y-74081763D01*
X129491850Y-74208327D01*
X129488942Y-74314767D01*
X150129461Y-65853632D02*
X151095387Y-65594813D01*
X151033764Y-65364831D01*
X150950793Y-65239166D01*
X150834151Y-65171823D01*
X150729833Y-65150476D01*
X150533522Y-65153778D01*
X150395533Y-65190752D01*
X150223872Y-65286048D01*
X150144204Y-65356693D01*
X150076860Y-65473336D01*
X150067838Y-65623650D01*
X150129461Y-65853632D01*
X150403670Y-64301192D02*
X149759720Y-64473738D01*
X150833266Y-64432577D02*
X150204942Y-64847430D01*
X150044721Y-64249476D01*
X150510406Y-63779604D02*
X150544077Y-63721283D01*
X150565424Y-63616965D01*
X150503801Y-63386983D01*
X150433155Y-63307315D01*
X150374834Y-63273643D01*
X150270516Y-63252296D01*
X150178523Y-63276945D01*
X150052858Y-63359916D01*
X149648797Y-64059770D01*
X149488576Y-63461816D01*
M02*
