G04 #@! TF.GenerationSoftware,KiCad,Pcbnew,(5.1.9)-1*
G04 #@! TF.CreationDate,2021-04-12T00:24:37-07:00*
G04 #@! TF.ProjectId,euclid36,6575636c-6964-4333-962e-6b696361645f,1.2*
G04 #@! TF.SameCoordinates,PX2faf080PY2faf080*
G04 #@! TF.FileFunction,Soldermask,Top*
G04 #@! TF.FilePolarity,Negative*
%FSLAX46Y46*%
G04 Gerber Fmt 4.6, Leading zero omitted, Abs format (unit mm)*
G04 Created by KiCad (PCBNEW (5.1.9)-1) date 2021-04-12 00:24:37*
%MOMM*%
%LPD*%
G01*
G04 APERTURE LIST*
%ADD10C,4.502000*%
%ADD11C,0.750000*%
%ADD12O,1.100000X2.200000*%
%ADD13O,1.100000X1.700000*%
%ADD14C,1.803800*%
%ADD15C,3.102000*%
%ADD16C,3.531000*%
%ADD17C,1.092600*%
%ADD18C,1.002000*%
%ADD19C,0.100000*%
G04 APERTURE END LIST*
D10*
X179650000Y-18830000D03*
X24840000Y-14210000D03*
X178040000Y-61730000D03*
X5010000Y-39850000D03*
X195700000Y-45200000D03*
X118890000Y-50790000D03*
X83710000Y-50160000D03*
X101650000Y-89500000D03*
X19390000Y-59340000D03*
X2980000Y18740000D03*
X195770000Y18060000D03*
X64080000Y16870000D03*
X135160000Y16400000D03*
X102020000Y-4230000D03*
D11*
X104020000Y18350000D03*
X98240000Y18350000D03*
D12*
X96810000Y17820000D03*
X105450000Y17820000D03*
D13*
X96810000Y22000000D03*
X105450000Y22000000D03*
D14*
X35731035Y12295579D03*
X46356219Y9448569D03*
D15*
X35243426Y8543947D03*
D16*
X41043627Y10872074D03*
D15*
X39503654Y5124815D03*
D17*
X47172800Y13577927D03*
D14*
X155867408Y-67423505D03*
X166492592Y-64576495D03*
D15*
X157320942Y-70916317D03*
D16*
X161180000Y-66000000D03*
D15*
X162719973Y-71747259D03*
D17*
X165135093Y-60592076D03*
D14*
X135748307Y-76743400D03*
X145717693Y-72094600D03*
D15*
X137786280Y-79930746D03*
D16*
X140733000Y-74419000D03*
D15*
X143247579Y-79811531D03*
D17*
X143688930Y-68406440D03*
D14*
X117529664Y-88368670D03*
X126540336Y-82059330D03*
D15*
X120090151Y-91153702D03*
D16*
X122035000Y-85214000D03*
D15*
X125447780Y-90087955D03*
D17*
X123901953Y-78779492D03*
D14*
X74691017Y-82059032D03*
X83701689Y-88368372D03*
D15*
X72949681Y-85417640D03*
D16*
X79196353Y-85213702D03*
D15*
X75783573Y-90087657D03*
D17*
X85881348Y-84767332D03*
D14*
X55514172Y-72094303D03*
X65483558Y-76743103D03*
D15*
X54382508Y-75704266D03*
D16*
X60498865Y-74418703D03*
D15*
X57984286Y-79811234D03*
D17*
X67004788Y-72818278D03*
D14*
X34738612Y-65011742D03*
X45363796Y-67858752D03*
D15*
X34251003Y-68763374D03*
D16*
X40051204Y-66435247D03*
D15*
X38511231Y-72182506D03*
D17*
X46180377Y-63729394D03*
D14*
X205482554Y-32212907D03*
X216107738Y-29365897D03*
D15*
X206936088Y-35705719D03*
D16*
X210795146Y-30789402D03*
D15*
X212335119Y-36536661D03*
D17*
X214750239Y-25381478D03*
D14*
X184452068Y-27329604D03*
X195077252Y-24482594D03*
D15*
X185905602Y-30822416D03*
D16*
X189764660Y-25906099D03*
D15*
X191304633Y-31653358D03*
D17*
X193719753Y-20498175D03*
D14*
X164736381Y-27353203D03*
X175361565Y-24506193D03*
D15*
X166189915Y-30846015D03*
D16*
X170048973Y-25929698D03*
D15*
X171588946Y-31676957D03*
D17*
X174004066Y-20521774D03*
D14*
X147650296Y-37190608D03*
X158275480Y-34343598D03*
D15*
X149103830Y-40683420D03*
D16*
X152962888Y-35767103D03*
D15*
X154502861Y-41514362D03*
D17*
X156917981Y-30359179D03*
D14*
X129906810Y-44574562D03*
X140531994Y-41727552D03*
D15*
X131360344Y-48067374D03*
D16*
X135219402Y-43151057D03*
D15*
X136759375Y-48898316D03*
D17*
X139174495Y-37743133D03*
D14*
X200552052Y-13812021D03*
X211177236Y-10965011D03*
D15*
X202005586Y-17304833D03*
D16*
X205864644Y-12388516D03*
D15*
X207404617Y-18135775D03*
D17*
X209819737Y-6980592D03*
D14*
X179521566Y-8928718D03*
X190146750Y-6081708D03*
D15*
X180975100Y-12421530D03*
D16*
X184834158Y-7505213D03*
D15*
X186374131Y-13252472D03*
D17*
X188789251Y-2097289D03*
D14*
X159805879Y-8952317D03*
X170431063Y-6105307D03*
D15*
X161259413Y-12445129D03*
D16*
X165118471Y-7528812D03*
D15*
X166658444Y-13276071D03*
D17*
X169073564Y-2120888D03*
D14*
X142719794Y-18789722D03*
X153344978Y-15942712D03*
D15*
X144173328Y-22282534D03*
D16*
X148032386Y-17366217D03*
D15*
X149572359Y-23113476D03*
D17*
X151987479Y-11958293D03*
D14*
X124976308Y-26173676D03*
X135601492Y-23326666D03*
D15*
X126429842Y-29666488D03*
D16*
X130288900Y-24750171D03*
D15*
X131828873Y-30497430D03*
D17*
X134243993Y-19342247D03*
D14*
X195621550Y4588865D03*
X206246734Y7435875D03*
D15*
X197075084Y1096053D03*
D16*
X200934142Y6012370D03*
D15*
X202474115Y265111D03*
D17*
X204889235Y11420294D03*
D14*
X174591064Y9472168D03*
X185216248Y12319178D03*
D15*
X176044598Y5979356D03*
D16*
X179903656Y10895673D03*
D15*
X181443629Y5148414D03*
D17*
X183858749Y16303597D03*
D14*
X154875377Y9448569D03*
X165500561Y12295579D03*
D15*
X156328911Y5955757D03*
D16*
X160187969Y10872074D03*
D15*
X161727942Y5124815D03*
D17*
X164143062Y16279998D03*
D14*
X137789292Y-388836D03*
X148414476Y2458174D03*
D15*
X139242826Y-3881648D03*
D16*
X143101884Y1034669D03*
D15*
X144641857Y-4712590D03*
D17*
X147056977Y6442593D03*
D14*
X120045806Y-7772790D03*
X130670990Y-4925780D03*
D15*
X121499340Y-11265602D03*
D16*
X125358398Y-6349285D03*
D15*
X126898371Y-12096544D03*
D17*
X129313491Y-941361D03*
D14*
X60699602Y-41727552D03*
X71324786Y-44574562D03*
D15*
X60211993Y-45479184D03*
D16*
X66012194Y-43151057D03*
D15*
X64472221Y-48898316D03*
D17*
X72141367Y-40445204D03*
D14*
X42956116Y-34343598D03*
X53581300Y-37190608D03*
D15*
X42468507Y-38095230D03*
D16*
X48268708Y-35767103D03*
D15*
X46728735Y-41514362D03*
D17*
X54397881Y-33061250D03*
D14*
X25870031Y-24506193D03*
X36495215Y-27353203D03*
D15*
X25382422Y-28257825D03*
D16*
X31182623Y-25929698D03*
D15*
X29642650Y-31676957D03*
D17*
X37311796Y-23223845D03*
D14*
X6154344Y-24482594D03*
X16779528Y-27329604D03*
D15*
X5666735Y-28234226D03*
D16*
X11466936Y-25906099D03*
D15*
X9926963Y-31653358D03*
D17*
X17596109Y-23200246D03*
D14*
X-14876142Y-29365898D03*
X-4250958Y-32212908D03*
D15*
X-15363751Y-33117530D03*
D16*
X-9563550Y-30789403D03*
D15*
X-11103523Y-36536662D03*
D17*
X-3434377Y-28083550D03*
D14*
X65630104Y-23326666D03*
X76255288Y-26173676D03*
D15*
X65142495Y-27078298D03*
D16*
X70942696Y-24750171D03*
D15*
X69402723Y-30497430D03*
D17*
X77071869Y-22044318D03*
D14*
X47886618Y-15942712D03*
X58511802Y-18789722D03*
D15*
X47399009Y-19694344D03*
D16*
X53199210Y-17366217D03*
D15*
X51659237Y-23113476D03*
D17*
X59328383Y-14660364D03*
D14*
X30800533Y-6105307D03*
X41425717Y-8952317D03*
D15*
X30312924Y-9856939D03*
D16*
X36113125Y-7528812D03*
D15*
X34573152Y-13276071D03*
D17*
X42242298Y-4822959D03*
D14*
X11084846Y-6081708D03*
X21710030Y-8928718D03*
D15*
X10597237Y-9833340D03*
D16*
X16397438Y-7505213D03*
D15*
X14857465Y-13252472D03*
D17*
X22526611Y-4799360D03*
D14*
X-9945640Y-10965012D03*
X679544Y-13812022D03*
D15*
X-10433249Y-14716644D03*
D16*
X-4633048Y-12388517D03*
D15*
X-6173021Y-18135776D03*
D17*
X1496125Y-9682664D03*
D14*
X70560606Y-4925780D03*
X81185790Y-7772790D03*
D15*
X70072997Y-8677412D03*
D16*
X75873198Y-6349285D03*
D15*
X74333225Y-12096544D03*
D17*
X82002371Y-3643432D03*
D14*
X52817120Y2458174D03*
X63442304Y-388836D03*
D15*
X52329511Y-1293458D03*
D16*
X58129712Y1034669D03*
D15*
X56589739Y-4712590D03*
D17*
X64258885Y3740522D03*
D14*
X16015348Y12319178D03*
X26640532Y9472168D03*
D15*
X15527739Y8567546D03*
D16*
X21327940Y10895673D03*
D15*
X19787967Y5148414D03*
D17*
X27457113Y13601526D03*
D14*
X-5015138Y7435874D03*
X5610046Y4588864D03*
D15*
X-5502747Y3684242D03*
D16*
X297454Y6012369D03*
D15*
X-1242519Y265110D03*
D17*
X6426627Y8718222D03*
D18*
X119972328Y-34711172D03*
X113068000Y-62014000D03*
X129324000Y-62014000D03*
X129324000Y-62014000D03*
X129324000Y-71158000D03*
X110782000Y-83096000D03*
X77000000Y-74460000D03*
X77000000Y-62014000D03*
X203492000Y-45504000D03*
X188760000Y21219500D03*
X115100000Y21806000D03*
X114084000Y-58966000D03*
X115862000Y-79794000D03*
X135279971Y-59106029D03*
X157518000Y-52870000D03*
X135420000Y-68110000D03*
X157010000Y-59220000D03*
X38900000Y-52362000D03*
X62776000Y-58966000D03*
X83350000Y-58966000D03*
X38900000Y-57950000D03*
X61506000Y-66586000D03*
X81826000Y-77762000D03*
X199428000Y-6134000D03*
X189014000Y-3848000D03*
X193840000Y-22136000D03*
X119672000Y-800000D03*
X125260000Y-18834000D03*
X130340000Y-37122000D03*
X146596000Y21806000D03*
X31788000Y21044000D03*
X19088000Y-52362000D03*
X73698000Y17996000D03*
X49822000Y-52362000D03*
X16548000Y-24676000D03*
X21374000Y-6388000D03*
X26200000Y12154000D03*
X20358000Y-20104000D03*
X25184000Y-1562000D03*
X36614000Y15710000D03*
X196126000Y12154000D03*
X183426000Y14440000D03*
X206032000Y-24422000D03*
X160058000Y-1562000D03*
X151422000Y-13754000D03*
X164122000Y-21120000D03*
X156756000Y-32042000D03*
X72682000Y-38000D03*
X67602000Y-18072000D03*
X58204000Y-16040000D03*
X62268000Y-36614000D03*
X53124000Y-34582000D03*
X63030000Y2248000D03*
X153962000Y14948000D03*
X146596000Y4788000D03*
X12738000Y22060000D03*
X292000Y-53378000D03*
X221272000Y-37884000D03*
X199174000Y22822000D03*
X54842000Y22000000D03*
X36106000Y-53378000D03*
X89640000Y22000000D03*
X72936000Y-59982000D03*
X71920000Y-72174000D03*
X147104000Y-59982000D03*
X147104000Y-66586000D03*
X127546000Y22822000D03*
X165900000Y22822000D03*
X179616000Y-54140000D03*
X131102000Y2502000D03*
X136436000Y-16040000D03*
X141516000Y-35852000D03*
X168186000Y13170000D03*
X177838000Y-22898000D03*
X134404000Y-21120000D03*
X139484000Y-39662000D03*
X172758000Y-3848000D03*
X169456000Y-3848000D03*
X174536000Y-22390000D03*
X210858000Y11138000D03*
X210858000Y-8420000D03*
X214922000Y-27216000D03*
X10960000Y14694000D03*
X12230000Y-1816000D03*
X800000Y-11468000D03*
X-4534000Y-29248000D03*
X2578000Y-19850000D03*
X49060000Y9360000D03*
X44742000Y-10960000D03*
X36360000Y-24930000D03*
X44996000Y-28232000D03*
X41186000Y-6388000D03*
X86398000Y-7404000D03*
X79794000Y-24168000D03*
X75476000Y-42964000D03*
X126530000Y-60236000D03*
X126530000Y-78270000D03*
X55918000Y-59982000D03*
X49060000Y-65570000D03*
X89640000Y9674000D03*
X82842000Y-27470000D03*
X87952001Y-15024000D03*
X89640000Y4220000D03*
X107226000Y-51600000D03*
X96304000Y-57696000D03*
X93002000Y-100876000D03*
X138603716Y-33513128D03*
X138151443Y-31870414D03*
X133388000Y-14976526D03*
X133896000Y-13422526D03*
X108003819Y-52377819D03*
X95526181Y-56918181D03*
X93002000Y-99775997D03*
X-47578Y-22050422D03*
X123578Y-19681578D03*
X3086000Y-4117000D03*
X4822578Y-1774578D03*
X156924422Y-24844422D03*
X156502000Y-22898000D03*
X151590422Y-6048422D03*
X151422000Y-3848000D03*
X108781638Y-53155638D03*
X94748362Y-56140362D03*
X93002000Y-98675994D03*
X18834000Y-19327832D03*
X20104000Y-17773832D03*
X24422000Y232831D03*
X25946000Y1786831D03*
X174790000Y-18087000D03*
X174536000Y-16533000D03*
X169964000Y709000D03*
X169710000Y2263000D03*
X109559457Y-53933457D03*
X93970543Y-55362543D03*
X106972000Y-98590000D03*
X39112578Y-19891422D03*
X39576422Y-18157578D03*
X43557578Y-1730422D03*
X44656422Y-631578D03*
X193036578Y-16533000D03*
X187702578Y709000D03*
X187744000Y2263000D03*
X193078000Y-19088000D03*
X110337276Y-54711276D03*
X93192724Y-54584724D03*
X106972000Y-99690003D03*
X57908578Y-30051422D03*
X57991422Y-27936578D03*
X60575578Y-11128422D03*
X61293422Y-9648578D03*
X111115095Y-55489095D03*
X92414905Y-53806905D03*
X106972000Y-100790006D03*
X77762000Y-35613000D03*
X78016000Y-34059000D03*
X81318000Y-17325000D03*
X82080000Y-15771000D03*
X-3518000Y-2563000D03*
X-2756000Y-4117000D03*
X-9360000Y-19835000D03*
X-8852000Y-21389000D03*
X-3533000Y-30772000D03*
X-1979000Y-30772000D03*
X12992000Y-16817000D03*
X11722000Y-15263000D03*
X20104000Y232831D03*
X18580000Y1786831D03*
X36106000Y2263000D03*
X37376000Y709000D03*
X31534000Y-16025000D03*
X32804000Y-17579000D03*
X34401901Y-29829901D03*
X35852000Y-30772000D03*
X52108000Y-27993000D03*
X50584000Y-26439000D03*
X55410000Y-9197000D03*
X54140000Y-7643000D03*
X73444000Y-15771000D03*
X75222000Y-17325000D03*
X94018000Y-24915000D03*
X94018000Y-21628000D03*
X110528000Y-34582000D03*
X113322000Y-22390000D03*
X93932422Y-15363578D03*
X94018000Y-29502000D03*
X94526000Y-546000D03*
X92240000Y-29756000D03*
X95626003Y-546000D03*
X93017000Y-27724000D03*
X66078000Y-32535000D03*
X67602000Y-34089000D03*
X156147422Y-27978000D03*
X157778133Y-27901289D03*
X161836000Y-27978000D03*
X163868000Y-25438000D03*
X164798422Y-18595000D03*
X163868000Y-15278000D03*
X159995934Y-62976D03*
X159042000Y3010000D03*
X178600000Y2502000D03*
X179616000Y-5372000D03*
X183773485Y-16533000D03*
X184442000Y-23660000D03*
X198624578Y-23447422D03*
X200739422Y-23364578D03*
X204254000Y-24141578D03*
X204254000Y-21374000D03*
X199936000Y-4371000D03*
X199936000Y-2817000D03*
X59388421Y-51939577D03*
X50838000Y-63284000D03*
X151106005Y-47474005D03*
X140768313Y-44810531D03*
X139145782Y-44742000D03*
X171234000Y-62268000D03*
X171234000Y-48044000D03*
X155199949Y-47503949D03*
X130086950Y-35559960D03*
X129578000Y-33551000D03*
X124987455Y-17291455D03*
X125006000Y-15263000D03*
X141770000Y-7897000D03*
X142786000Y-15278000D03*
X146596000Y-25692000D03*
X147612000Y-33820000D03*
X108750000Y9614000D03*
X102654000Y9614000D03*
X98082000Y12662000D03*
X103670000Y10391000D03*
X103416000Y20028000D03*
X109844500Y15202000D03*
X102654000Y15202000D03*
X101384000Y19266000D03*
X99352000Y19266000D03*
X100876000Y15202000D03*
X107734000Y16012500D03*
D19*
G36*
X93236538Y-100217434D02*
G01*
X93237303Y-100219282D01*
X93236431Y-100220684D01*
X93231956Y-100223674D01*
X93213241Y-100239033D01*
X93197946Y-100257670D01*
X93186581Y-100278933D01*
X93179581Y-100302008D01*
X93177218Y-100325999D01*
X93179581Y-100349990D01*
X93186581Y-100373065D01*
X93197946Y-100394329D01*
X93213242Y-100412966D01*
X93231957Y-100428324D01*
X93236430Y-100431313D01*
X93237315Y-100433107D01*
X93236204Y-100434770D01*
X93234554Y-100434824D01*
X93146851Y-100398497D01*
X93050908Y-100379412D01*
X92953092Y-100379412D01*
X92857149Y-100398497D01*
X92769446Y-100434824D01*
X92767463Y-100434563D01*
X92766698Y-100432715D01*
X92767570Y-100431313D01*
X92772043Y-100428324D01*
X92790758Y-100412966D01*
X92806054Y-100394329D01*
X92817419Y-100373066D01*
X92824419Y-100349991D01*
X92826782Y-100325999D01*
X92824419Y-100302008D01*
X92817419Y-100278933D01*
X92806054Y-100257670D01*
X92790759Y-100239033D01*
X92772044Y-100223674D01*
X92767569Y-100220684D01*
X92766684Y-100218890D01*
X92767795Y-100217227D01*
X92769445Y-100217173D01*
X92857149Y-100253500D01*
X92953092Y-100272585D01*
X93050908Y-100272585D01*
X93146851Y-100253500D01*
X93234555Y-100217173D01*
X93236538Y-100217434D01*
G37*
G36*
X107206538Y-100131440D02*
G01*
X107207303Y-100133288D01*
X107206431Y-100134690D01*
X107201956Y-100137680D01*
X107183241Y-100153039D01*
X107167946Y-100171676D01*
X107156581Y-100192939D01*
X107149581Y-100216014D01*
X107147218Y-100240005D01*
X107149581Y-100263996D01*
X107156581Y-100287071D01*
X107167946Y-100308335D01*
X107183242Y-100326972D01*
X107201957Y-100342330D01*
X107206430Y-100345319D01*
X107207315Y-100347113D01*
X107206204Y-100348776D01*
X107204554Y-100348830D01*
X107116851Y-100312503D01*
X107020908Y-100293418D01*
X106923092Y-100293418D01*
X106827149Y-100312503D01*
X106739446Y-100348830D01*
X106737463Y-100348569D01*
X106736698Y-100346721D01*
X106737570Y-100345319D01*
X106742043Y-100342330D01*
X106760758Y-100326972D01*
X106776054Y-100308335D01*
X106787419Y-100287072D01*
X106794419Y-100263997D01*
X106796782Y-100240005D01*
X106794419Y-100216014D01*
X106787419Y-100192939D01*
X106776054Y-100171676D01*
X106760759Y-100153039D01*
X106742044Y-100137680D01*
X106737569Y-100134690D01*
X106736684Y-100132896D01*
X106737795Y-100131233D01*
X106739445Y-100131179D01*
X106827149Y-100167506D01*
X106923092Y-100186591D01*
X107020908Y-100186591D01*
X107116851Y-100167506D01*
X107204555Y-100131179D01*
X107206538Y-100131440D01*
G37*
G36*
X93236538Y-99117431D02*
G01*
X93237303Y-99119279D01*
X93236431Y-99120681D01*
X93231956Y-99123671D01*
X93213241Y-99139030D01*
X93197946Y-99157667D01*
X93186581Y-99178930D01*
X93179581Y-99202005D01*
X93177218Y-99225996D01*
X93179581Y-99249987D01*
X93186581Y-99273062D01*
X93197946Y-99294326D01*
X93213242Y-99312963D01*
X93231957Y-99328321D01*
X93236430Y-99331310D01*
X93237315Y-99333104D01*
X93236204Y-99334767D01*
X93234554Y-99334821D01*
X93146851Y-99298494D01*
X93050908Y-99279409D01*
X92953092Y-99279409D01*
X92857149Y-99298494D01*
X92769446Y-99334821D01*
X92767463Y-99334560D01*
X92766698Y-99332712D01*
X92767570Y-99331310D01*
X92772043Y-99328321D01*
X92790758Y-99312963D01*
X92806054Y-99294326D01*
X92817419Y-99273063D01*
X92824419Y-99249988D01*
X92826782Y-99225996D01*
X92824419Y-99202005D01*
X92817419Y-99178930D01*
X92806054Y-99157667D01*
X92790759Y-99139030D01*
X92772044Y-99123671D01*
X92767569Y-99120681D01*
X92766684Y-99118887D01*
X92767795Y-99117224D01*
X92769445Y-99117170D01*
X92857149Y-99153497D01*
X92953092Y-99172582D01*
X93050908Y-99172582D01*
X93146851Y-99153497D01*
X93234555Y-99117170D01*
X93236538Y-99117431D01*
G37*
G36*
X107206538Y-99031437D02*
G01*
X107207303Y-99033285D01*
X107206431Y-99034687D01*
X107201956Y-99037677D01*
X107183241Y-99053036D01*
X107167946Y-99071673D01*
X107156581Y-99092936D01*
X107149581Y-99116011D01*
X107147218Y-99140002D01*
X107149581Y-99163993D01*
X107156581Y-99187068D01*
X107167946Y-99208332D01*
X107183242Y-99226969D01*
X107201957Y-99242327D01*
X107206430Y-99245316D01*
X107207315Y-99247110D01*
X107206204Y-99248773D01*
X107204554Y-99248827D01*
X107116851Y-99212500D01*
X107020908Y-99193415D01*
X106923092Y-99193415D01*
X106827149Y-99212500D01*
X106739446Y-99248827D01*
X106737463Y-99248566D01*
X106736698Y-99246718D01*
X106737570Y-99245316D01*
X106742043Y-99242327D01*
X106760758Y-99226969D01*
X106776054Y-99208332D01*
X106787419Y-99187069D01*
X106794419Y-99163994D01*
X106796782Y-99140002D01*
X106794419Y-99116011D01*
X106787419Y-99092936D01*
X106776054Y-99071673D01*
X106760759Y-99053036D01*
X106742044Y-99037677D01*
X106737569Y-99034687D01*
X106736684Y-99032893D01*
X106737795Y-99031230D01*
X106739445Y-99031176D01*
X106827149Y-99067503D01*
X106923092Y-99086588D01*
X107020908Y-99086588D01*
X107116851Y-99067503D01*
X107204555Y-99031176D01*
X107206538Y-99031437D01*
G37*
G36*
X96006016Y-57065243D02*
G01*
X96006391Y-57066851D01*
X96005339Y-57072140D01*
X96002966Y-57096225D01*
X96005329Y-57120216D01*
X96012329Y-57143291D01*
X96023694Y-57164555D01*
X96038989Y-57183192D01*
X96057626Y-57198487D01*
X96078890Y-57209852D01*
X96101965Y-57216852D01*
X96125956Y-57219215D01*
X96150041Y-57216842D01*
X96155330Y-57215790D01*
X96157224Y-57216433D01*
X96157614Y-57218395D01*
X96156485Y-57219600D01*
X96068777Y-57255930D01*
X95987443Y-57310276D01*
X95918276Y-57379443D01*
X95863930Y-57460777D01*
X95827600Y-57548485D01*
X95826013Y-57549703D01*
X95824165Y-57548938D01*
X95823790Y-57547330D01*
X95824842Y-57542041D01*
X95827215Y-57517956D01*
X95824852Y-57493965D01*
X95817852Y-57470890D01*
X95806487Y-57449626D01*
X95791192Y-57430989D01*
X95772555Y-57415694D01*
X95751291Y-57404329D01*
X95728216Y-57397329D01*
X95704225Y-57394966D01*
X95680140Y-57397339D01*
X95674851Y-57398391D01*
X95672957Y-57397748D01*
X95672567Y-57395786D01*
X95673696Y-57394581D01*
X95761404Y-57358251D01*
X95842738Y-57303905D01*
X95911905Y-57234738D01*
X95966251Y-57153404D01*
X96002581Y-57065696D01*
X96004168Y-57064478D01*
X96006016Y-57065243D01*
G37*
G36*
X95228197Y-56287424D02*
G01*
X95228572Y-56289032D01*
X95227520Y-56294321D01*
X95225147Y-56318406D01*
X95227510Y-56342397D01*
X95234510Y-56365472D01*
X95245875Y-56386736D01*
X95261170Y-56405373D01*
X95279807Y-56420668D01*
X95301071Y-56432033D01*
X95324146Y-56439033D01*
X95348137Y-56441396D01*
X95372222Y-56439023D01*
X95377511Y-56437971D01*
X95379405Y-56438614D01*
X95379795Y-56440576D01*
X95378666Y-56441781D01*
X95290958Y-56478111D01*
X95209624Y-56532457D01*
X95140457Y-56601624D01*
X95086111Y-56682958D01*
X95049781Y-56770666D01*
X95048194Y-56771884D01*
X95046346Y-56771119D01*
X95045971Y-56769511D01*
X95047023Y-56764222D01*
X95049396Y-56740137D01*
X95047033Y-56716146D01*
X95040033Y-56693071D01*
X95028668Y-56671807D01*
X95013373Y-56653170D01*
X94994736Y-56637875D01*
X94973472Y-56626510D01*
X94950397Y-56619510D01*
X94926406Y-56617147D01*
X94902321Y-56619520D01*
X94897032Y-56620572D01*
X94895138Y-56619929D01*
X94894748Y-56617967D01*
X94895877Y-56616762D01*
X94983585Y-56580432D01*
X95064919Y-56526086D01*
X95134086Y-56456919D01*
X95188432Y-56375585D01*
X95224762Y-56287877D01*
X95226349Y-56286659D01*
X95228197Y-56287424D01*
G37*
G36*
X94450378Y-55509605D02*
G01*
X94450753Y-55511213D01*
X94449701Y-55516502D01*
X94447328Y-55540587D01*
X94449691Y-55564578D01*
X94456691Y-55587653D01*
X94468056Y-55608917D01*
X94483351Y-55627554D01*
X94501988Y-55642849D01*
X94523252Y-55654214D01*
X94546327Y-55661214D01*
X94570318Y-55663577D01*
X94594403Y-55661204D01*
X94599692Y-55660152D01*
X94601586Y-55660795D01*
X94601976Y-55662757D01*
X94600847Y-55663962D01*
X94513139Y-55700292D01*
X94431805Y-55754638D01*
X94362638Y-55823805D01*
X94308292Y-55905139D01*
X94271962Y-55992847D01*
X94270375Y-55994065D01*
X94268527Y-55993300D01*
X94268152Y-55991692D01*
X94269204Y-55986403D01*
X94271577Y-55962318D01*
X94269214Y-55938327D01*
X94262214Y-55915252D01*
X94250849Y-55893988D01*
X94235554Y-55875351D01*
X94216917Y-55860056D01*
X94195653Y-55848691D01*
X94172578Y-55841691D01*
X94148587Y-55839328D01*
X94124502Y-55841701D01*
X94119213Y-55842753D01*
X94117319Y-55842110D01*
X94116929Y-55840148D01*
X94118058Y-55838943D01*
X94205766Y-55802613D01*
X94287100Y-55748267D01*
X94356267Y-55679100D01*
X94410613Y-55597766D01*
X94446943Y-55510058D01*
X94448530Y-55508840D01*
X94450378Y-55509605D01*
G37*
G36*
X110817111Y-54858338D02*
G01*
X110817486Y-54859946D01*
X110816434Y-54865235D01*
X110814061Y-54889320D01*
X110816424Y-54913311D01*
X110823424Y-54936386D01*
X110834789Y-54957650D01*
X110850084Y-54976287D01*
X110868721Y-54991582D01*
X110889985Y-55002947D01*
X110913060Y-55009947D01*
X110937051Y-55012310D01*
X110961136Y-55009937D01*
X110966425Y-55008885D01*
X110968319Y-55009528D01*
X110968709Y-55011490D01*
X110967580Y-55012695D01*
X110879872Y-55049025D01*
X110798538Y-55103371D01*
X110729371Y-55172538D01*
X110675025Y-55253872D01*
X110638695Y-55341580D01*
X110637108Y-55342798D01*
X110635260Y-55342033D01*
X110634885Y-55340425D01*
X110635937Y-55335136D01*
X110638310Y-55311051D01*
X110635947Y-55287060D01*
X110628947Y-55263985D01*
X110617582Y-55242721D01*
X110602287Y-55224084D01*
X110583650Y-55208789D01*
X110562386Y-55197424D01*
X110539311Y-55190424D01*
X110515320Y-55188061D01*
X110491235Y-55190434D01*
X110485946Y-55191486D01*
X110484052Y-55190843D01*
X110483662Y-55188881D01*
X110484791Y-55187676D01*
X110572499Y-55151346D01*
X110653833Y-55097000D01*
X110723000Y-55027833D01*
X110777346Y-54946499D01*
X110813676Y-54858791D01*
X110815263Y-54857573D01*
X110817111Y-54858338D01*
G37*
G36*
X93672559Y-54731786D02*
G01*
X93672934Y-54733394D01*
X93671882Y-54738683D01*
X93669509Y-54762768D01*
X93671872Y-54786759D01*
X93678872Y-54809834D01*
X93690237Y-54831098D01*
X93705532Y-54849735D01*
X93724169Y-54865030D01*
X93745433Y-54876395D01*
X93768508Y-54883395D01*
X93792499Y-54885758D01*
X93816584Y-54883385D01*
X93821873Y-54882333D01*
X93823767Y-54882976D01*
X93824157Y-54884938D01*
X93823028Y-54886143D01*
X93735320Y-54922473D01*
X93653986Y-54976819D01*
X93584819Y-55045986D01*
X93530473Y-55127320D01*
X93494143Y-55215028D01*
X93492556Y-55216246D01*
X93490708Y-55215481D01*
X93490333Y-55213873D01*
X93491385Y-55208584D01*
X93493758Y-55184499D01*
X93491395Y-55160508D01*
X93484395Y-55137433D01*
X93473030Y-55116169D01*
X93457735Y-55097532D01*
X93439098Y-55082237D01*
X93417834Y-55070872D01*
X93394759Y-55063872D01*
X93370768Y-55061509D01*
X93346683Y-55063882D01*
X93341394Y-55064934D01*
X93339500Y-55064291D01*
X93339110Y-55062329D01*
X93340239Y-55061124D01*
X93427947Y-55024794D01*
X93509281Y-54970448D01*
X93578448Y-54901281D01*
X93632794Y-54819947D01*
X93669124Y-54732239D01*
X93670711Y-54731021D01*
X93672559Y-54731786D01*
G37*
G36*
X110039292Y-54080519D02*
G01*
X110039667Y-54082127D01*
X110038615Y-54087416D01*
X110036242Y-54111501D01*
X110038605Y-54135492D01*
X110045605Y-54158567D01*
X110056970Y-54179831D01*
X110072265Y-54198468D01*
X110090902Y-54213763D01*
X110112166Y-54225128D01*
X110135241Y-54232128D01*
X110159232Y-54234491D01*
X110183317Y-54232118D01*
X110188606Y-54231066D01*
X110190500Y-54231709D01*
X110190890Y-54233671D01*
X110189761Y-54234876D01*
X110102053Y-54271206D01*
X110020719Y-54325552D01*
X109951552Y-54394719D01*
X109897206Y-54476053D01*
X109860876Y-54563761D01*
X109859289Y-54564979D01*
X109857441Y-54564214D01*
X109857066Y-54562606D01*
X109858118Y-54557317D01*
X109860491Y-54533232D01*
X109858128Y-54509241D01*
X109851128Y-54486166D01*
X109839763Y-54464902D01*
X109824468Y-54446265D01*
X109805831Y-54430970D01*
X109784567Y-54419605D01*
X109761492Y-54412605D01*
X109737501Y-54410242D01*
X109713416Y-54412615D01*
X109708127Y-54413667D01*
X109706233Y-54413024D01*
X109705843Y-54411062D01*
X109706972Y-54409857D01*
X109794680Y-54373527D01*
X109876014Y-54319181D01*
X109945181Y-54250014D01*
X109999527Y-54168680D01*
X110035857Y-54080972D01*
X110037444Y-54079754D01*
X110039292Y-54080519D01*
G37*
G36*
X92894740Y-53953967D02*
G01*
X92895115Y-53955575D01*
X92894063Y-53960864D01*
X92891690Y-53984949D01*
X92894053Y-54008940D01*
X92901053Y-54032015D01*
X92912418Y-54053279D01*
X92927713Y-54071916D01*
X92946350Y-54087211D01*
X92967614Y-54098576D01*
X92990689Y-54105576D01*
X93014680Y-54107939D01*
X93038765Y-54105566D01*
X93044054Y-54104514D01*
X93045948Y-54105157D01*
X93046338Y-54107119D01*
X93045209Y-54108324D01*
X92957501Y-54144654D01*
X92876167Y-54199000D01*
X92807000Y-54268167D01*
X92752654Y-54349501D01*
X92716324Y-54437209D01*
X92714737Y-54438427D01*
X92712889Y-54437662D01*
X92712514Y-54436054D01*
X92713566Y-54430765D01*
X92715939Y-54406680D01*
X92713576Y-54382689D01*
X92706576Y-54359614D01*
X92695211Y-54338350D01*
X92679916Y-54319713D01*
X92661279Y-54304418D01*
X92640015Y-54293053D01*
X92616940Y-54286053D01*
X92592949Y-54283690D01*
X92568864Y-54286063D01*
X92563575Y-54287115D01*
X92561681Y-54286472D01*
X92561291Y-54284510D01*
X92562420Y-54283305D01*
X92650128Y-54246975D01*
X92731462Y-54192629D01*
X92800629Y-54123462D01*
X92854975Y-54042128D01*
X92891305Y-53954420D01*
X92892892Y-53953202D01*
X92894740Y-53953967D01*
G37*
G36*
X109261473Y-53302700D02*
G01*
X109261848Y-53304308D01*
X109260796Y-53309597D01*
X109258423Y-53333682D01*
X109260786Y-53357673D01*
X109267786Y-53380748D01*
X109279151Y-53402012D01*
X109294446Y-53420649D01*
X109313083Y-53435944D01*
X109334347Y-53447309D01*
X109357422Y-53454309D01*
X109381413Y-53456672D01*
X109405498Y-53454299D01*
X109410787Y-53453247D01*
X109412681Y-53453890D01*
X109413071Y-53455852D01*
X109411942Y-53457057D01*
X109324234Y-53493387D01*
X109242900Y-53547733D01*
X109173733Y-53616900D01*
X109119387Y-53698234D01*
X109083057Y-53785942D01*
X109081470Y-53787160D01*
X109079622Y-53786395D01*
X109079247Y-53784787D01*
X109080299Y-53779498D01*
X109082672Y-53755413D01*
X109080309Y-53731422D01*
X109073309Y-53708347D01*
X109061944Y-53687083D01*
X109046649Y-53668446D01*
X109028012Y-53653151D01*
X109006748Y-53641786D01*
X108983673Y-53634786D01*
X108959682Y-53632423D01*
X108935597Y-53634796D01*
X108930308Y-53635848D01*
X108928414Y-53635205D01*
X108928024Y-53633243D01*
X108929153Y-53632038D01*
X109016861Y-53595708D01*
X109098195Y-53541362D01*
X109167362Y-53472195D01*
X109221708Y-53390861D01*
X109258038Y-53303153D01*
X109259625Y-53301935D01*
X109261473Y-53302700D01*
G37*
G36*
X108483654Y-52524881D02*
G01*
X108484029Y-52526489D01*
X108482977Y-52531778D01*
X108480604Y-52555863D01*
X108482967Y-52579854D01*
X108489967Y-52602929D01*
X108501332Y-52624193D01*
X108516627Y-52642830D01*
X108535264Y-52658125D01*
X108556528Y-52669490D01*
X108579603Y-52676490D01*
X108603594Y-52678853D01*
X108627679Y-52676480D01*
X108632968Y-52675428D01*
X108634862Y-52676071D01*
X108635252Y-52678033D01*
X108634123Y-52679238D01*
X108546415Y-52715568D01*
X108465081Y-52769914D01*
X108395914Y-52839081D01*
X108341568Y-52920415D01*
X108305238Y-53008123D01*
X108303651Y-53009341D01*
X108301803Y-53008576D01*
X108301428Y-53006968D01*
X108302480Y-53001679D01*
X108304853Y-52977594D01*
X108302490Y-52953603D01*
X108295490Y-52930528D01*
X108284125Y-52909264D01*
X108268830Y-52890627D01*
X108250193Y-52875332D01*
X108228929Y-52863967D01*
X108205854Y-52856967D01*
X108181863Y-52854604D01*
X108157778Y-52856977D01*
X108152489Y-52858029D01*
X108150595Y-52857386D01*
X108150205Y-52855424D01*
X108151334Y-52854219D01*
X108239042Y-52817889D01*
X108320376Y-52763543D01*
X108389543Y-52694376D01*
X108443889Y-52613042D01*
X108480219Y-52525334D01*
X108481806Y-52524116D01*
X108483654Y-52524881D01*
G37*
G36*
X107705835Y-51747062D02*
G01*
X107706210Y-51748670D01*
X107705158Y-51753959D01*
X107702785Y-51778044D01*
X107705148Y-51802035D01*
X107712148Y-51825110D01*
X107723513Y-51846374D01*
X107738808Y-51865011D01*
X107757445Y-51880306D01*
X107778709Y-51891671D01*
X107801784Y-51898671D01*
X107825775Y-51901034D01*
X107849860Y-51898661D01*
X107855149Y-51897609D01*
X107857043Y-51898252D01*
X107857433Y-51900214D01*
X107856304Y-51901419D01*
X107768596Y-51937749D01*
X107687262Y-51992095D01*
X107618095Y-52061262D01*
X107563749Y-52142596D01*
X107527419Y-52230304D01*
X107525832Y-52231522D01*
X107523984Y-52230757D01*
X107523609Y-52229149D01*
X107524661Y-52223860D01*
X107527034Y-52199775D01*
X107524671Y-52175784D01*
X107517671Y-52152709D01*
X107506306Y-52131445D01*
X107491011Y-52112808D01*
X107472374Y-52097513D01*
X107451110Y-52086148D01*
X107428035Y-52079148D01*
X107404044Y-52076785D01*
X107379959Y-52079158D01*
X107374670Y-52080210D01*
X107372776Y-52079567D01*
X107372386Y-52077605D01*
X107373515Y-52076400D01*
X107461223Y-52040070D01*
X107542557Y-51985724D01*
X107611724Y-51916557D01*
X107666070Y-51835223D01*
X107702400Y-51747515D01*
X107703987Y-51746297D01*
X107705835Y-51747062D01*
G37*
G36*
X-3862842Y-31144439D02*
G01*
X-3849557Y-31157724D01*
X-3768223Y-31212070D01*
X-3677851Y-31249503D01*
X-3634412Y-31258144D01*
X-3632908Y-31259463D01*
X-3633298Y-31261425D01*
X-3634998Y-31262096D01*
X-3653076Y-31260315D01*
X-3677068Y-31262678D01*
X-3700143Y-31269678D01*
X-3721406Y-31281043D01*
X-3740043Y-31296338D01*
X-3755339Y-31314975D01*
X-3766704Y-31336238D01*
X-3773704Y-31359313D01*
X-3776067Y-31383304D01*
X-3773704Y-31407296D01*
X-3766704Y-31430371D01*
X-3755339Y-31451634D01*
X-3740044Y-31470271D01*
X-3725998Y-31481798D01*
X-3725294Y-31483670D01*
X-3726563Y-31485216D01*
X-3728378Y-31485007D01*
X-3826752Y-31419276D01*
X-3987069Y-31352871D01*
X-3988287Y-31351284D01*
X-3987522Y-31349436D01*
X-3985914Y-31349061D01*
X-3980623Y-31350113D01*
X-3956538Y-31352486D01*
X-3932547Y-31350123D01*
X-3909472Y-31343123D01*
X-3888208Y-31331758D01*
X-3869571Y-31316462D01*
X-3854276Y-31297825D01*
X-3842911Y-31276562D01*
X-3835911Y-31253487D01*
X-3833548Y-31229496D01*
X-3835911Y-31205505D01*
X-3842911Y-31182430D01*
X-3854276Y-31161166D01*
X-3865802Y-31147122D01*
X-3866128Y-31145148D01*
X-3864582Y-31143880D01*
X-3862842Y-31144439D01*
G37*
G36*
X95184773Y-311796D02*
G01*
X95184827Y-313446D01*
X95148500Y-401149D01*
X95129415Y-497092D01*
X95129415Y-594908D01*
X95148500Y-690851D01*
X95184827Y-778554D01*
X95184566Y-780537D01*
X95182718Y-781302D01*
X95181316Y-780430D01*
X95178327Y-775957D01*
X95162969Y-757242D01*
X95144332Y-741946D01*
X95123069Y-730581D01*
X95099994Y-723581D01*
X95076002Y-721218D01*
X95052011Y-723581D01*
X95028936Y-730581D01*
X95007673Y-741946D01*
X94989036Y-757241D01*
X94973677Y-775956D01*
X94970687Y-780431D01*
X94968893Y-781316D01*
X94967230Y-780205D01*
X94967176Y-778555D01*
X95003503Y-690851D01*
X95022588Y-594908D01*
X95022588Y-497092D01*
X95003503Y-401149D01*
X94967176Y-313445D01*
X94967437Y-311462D01*
X94969285Y-310697D01*
X94970687Y-311569D01*
X94973677Y-316044D01*
X94989036Y-334759D01*
X95007673Y-350054D01*
X95028936Y-361419D01*
X95052011Y-368419D01*
X95076002Y-370782D01*
X95099993Y-368419D01*
X95123068Y-361419D01*
X95144332Y-350054D01*
X95162969Y-334758D01*
X95178327Y-316043D01*
X95181316Y-311570D01*
X95183110Y-310685D01*
X95184773Y-311796D01*
G37*
M02*
