<?xml version="1.0" encoding="utf-8"?>
<!-- Generator: Fusion 360, Shaper Origin Export Add-In, Version 1.5.0  -->
<svg enable-background="new 0 0 24.8163687 12.6995873" height="12.6995873cm" shaper:fusionaddin="version:1.5.0" version="1.1" viewBox="0 0 24.8163687 12.6995873" width="24.8163687cm" x="0cm" xml:space="preserve" xmlns="http://www.w3.org/2000/svg" xmlns:shaper="http://www.shapertools.com/namespaces/shaper" xmlns:xlink="http://www.w3.org/1999/xlink" y="0cm"><path d="M21.0881813,0 A0.407,0.407 269.997283 0,1 21.4860153,0.3210203 L22.9304598,5.8749127 A0.7768615,0.7768615 346.3724656 0,1 22.7738464,6.5533855 L17.8466631,10.1591537 12.3857835,12.6994127 8.7027835,12.6995873 3.2416631,10.1598463 -1.6855078,6.5550799 A0.7768615,0.7768615 140.3709334 0,1 -1.8421856,5.8766221 L-0.3978035,0.3210581 A0.407,0.407 192.190314 0,1 0,0 L21.0881813,0z" fill="rgb(0,0,0)" shaper:cutDepth="0.0016" shaper:pathType="exterior" transform="matrix(1,0,0,-1,1.8640386,12.6995873)" vector-effect="non-scaling-stroke" /><path d="M0.9062123,0.6539518 a0.11,0.11 0 1,1 0.22,0 a0.11,0.11 0 1,1 -0.22,0z" fill="rgb(255,255,255)" shaper:cutDepth="0.0016" shaper:pathType="interior" stroke="rgb(0,0,0)" transform="matrix(1,0,0,-1,1.8640386,12.6995873)" vector-effect="non-scaling-stroke" /><path d="M2.5183872,4.3428754 a0.11,0.11 0 1,1 0.22,0 a0.11,0.11 0 1,1 -0.22,0z" fill="rgb(255,255,255)" shaper:cutDepth="0.0016" shaper:pathType="interior" stroke="rgb(0,0,0)" transform="matrix(1,0,0,-1,1.8640386,12.6995873)" vector-effect="non-scaling-stroke" /><path d="M12.1125358,7.4754204 a0.11,0.11 0 1,1 0.22,0 a0.11,0.11 0 1,1 -0.22,0z" fill="rgb(255,255,255)" shaper:cutDepth="0.0016" shaper:pathType="interior" stroke="rgb(0,0,0)" transform="matrix(1,0,0,-1,1.8640386,12.6995873)" vector-effect="non-scaling-stroke" /><path d="M8.5945388,7.5385872 a0.11,0.11 0 1,1 0.22,0 a0.11,0.11 0 1,1 -0.22,0z" fill="rgb(255,255,255)" shaper:cutDepth="0.0016" shaper:pathType="interior" stroke="rgb(0,0,0)" transform="matrix(1,0,0,-1,1.8640386,12.6995873)" vector-effect="non-scaling-stroke" /><path d="M2.6795907,8.6328677 a0.11,0.11 0 1,1 0.22,0 a0.11,0.11 0 1,1 -0.22,0z" fill="rgb(255,255,255)" shaper:cutDepth="0.0016" shaper:pathType="interior" stroke="rgb(0,0,0)" transform="matrix(1,0,0,-1,1.8640386,12.6995873)" vector-effect="non-scaling-stroke" /><path d="M17.9993653,3.8801413 a0.11,0.11 0 1,1 0.22,0 a0.11,0.11 0 1,1 -0.22,0z" fill="rgb(255,255,255)" shaper:cutDepth="0.0016" shaper:pathType="interior" stroke="rgb(0,0,0)" transform="matrix(1,0,0,-1,1.8640386,12.6995873)" vector-effect="non-scaling-stroke" /><path d="M10.281318,2.8825072 a0.11,0.11 0 1,1 0.22,0 a0.11,0.11 0 1,1 -0.22,0z" fill="rgb(255,255,255)" shaper:cutDepth="0.0016" shaper:pathType="interior" stroke="rgb(0,0,0)" transform="matrix(1,0,0,-1,1.8640386,12.6995873)" vector-effect="non-scaling-stroke" /><path d="M14.0752179,0.7723273 a0.11,0.11 0 1,1 0.22,0 a0.11,0.11 0 1,1 -0.22,0z" fill="rgb(255,255,255)" shaper:cutDepth="0.0016" shaper:pathType="interior" stroke="rgb(0,0,0)" transform="matrix(1,0,0,-1,1.8640386,12.6995873)" vector-effect="non-scaling-stroke" /><path d="M6.9672202,0.8196644 a0.11,0.11 0 1,1 0.22,0 a0.11,0.11 0 1,1 -0.22,0z" fill="rgb(255,255,255)" shaper:cutDepth="0.0016" shaper:pathType="interior" stroke="rgb(0,0,0)" transform="matrix(1,0,0,-1,1.8640386,12.6995873)" vector-effect="non-scaling-stroke" /><path d="M20.1852091,0.5850376 a0.11,0.11 0 1,1 0.22,0 a0.11,0.11 0 1,1 -0.22,0z" fill="rgb(255,255,255)" shaper:cutDepth="0.0016" shaper:pathType="interior" stroke="rgb(0,0,0)" transform="matrix(1,0,0,-1,1.8640386,12.6995873)" vector-effect="non-scaling-stroke" /><path d="M10.3187223,11.4095055 a0.11,0.11 0 1,1 0.22,0 a0.11,0.11 0 1,1 -0.22,0z" fill="rgb(255,255,255)" shaper:cutDepth="0.0016" shaper:pathType="interior" stroke="rgb(0,0,0)" transform="matrix(1,0,0,-1,1.8640386,12.6995873)" vector-effect="non-scaling-stroke" /><path d="M19.9824869,6.4440472 a0.11,0.11 0 1,1 0.22,0 a0.11,0.11 0 1,1 -0.22,0z" fill="rgb(255,255,255)" shaper:cutDepth="0.0016" shaper:pathType="interior" stroke="rgb(0,0,0)" transform="matrix(1,0,0,-1,1.8640386,12.6995873)" vector-effect="non-scaling-stroke" /><path d="M18.5445793,8.3931154 a0.11,0.11 0 1,1 0.22,0 a0.11,0.11 0 1,1 -0.22,0z" fill="rgb(255,255,255)" shaper:cutDepth="0.0016" shaper:pathType="interior" stroke="rgb(0,0,0)" transform="matrix(1,0,0,-1,1.8640386,12.6995873)" vector-effect="non-scaling-stroke" /><path d="M0.9135123,6.9799515 a0.11,0.11 0 1,1 0.22,0 a0.11,0.11 0 1,1 -0.22,0z" fill="rgb(255,255,255)" shaper:cutDepth="0.0016" shaper:pathType="interior" stroke="rgb(0,0,0)" transform="matrix(1,0,0,-1,1.8640386,12.6995873)" vector-effect="non-scaling-stroke" /></svg>