<?xml version="1.0" encoding="utf-8"?>
<!-- Generator: Fusion 360, Shaper Origin Export Add-In, Version 1.5.0  -->
<svg enable-background="new 0 0 24.8163687 12.6995873" height="12.6995873cm" shaper:fusionaddin="version:1.5.0" version="1.1" viewBox="0 0 24.8163687 12.6995873" width="24.8163687cm" x="0cm" xml:space="preserve" xmlns="http://www.w3.org/2000/svg" xmlns:shaper="http://www.shapertools.com/namespaces/shaper" xmlns:xlink="http://www.w3.org/1999/xlink" y="0cm"><path d="M22.9304598,5.8749127 A0.7768615,0.7768615 346.3724656 0,1 22.7738464,6.5533855 L17.8466631,10.1591537 12.3857835,12.6994127 8.7027835,12.6995873 3.2416631,10.1598463 -1.6855078,6.5550799 A0.7768615,0.7768615 140.3709334 0,1 -1.8421856,5.8766221 L-0.3978035,0.3210581 A0.407,0.407 192.190314 0,1 0,0 L21.0881813,0 A0.407,0.407 269.997283 0,1 21.4860153,0.3210203 L22.9304598,5.8749127z" fill="rgb(0,0,0)" shaper:cutDepth="0.0016" shaper:pathType="exterior" transform="matrix(1,0,0,-1,1.8640386,12.6995873)" vector-effect="non-scaling-stroke" /><path d="M9.3008047,8.7472552 L9.3008237,9.1472552 8.9008237,9.1472742 8.9008047,8.7472742 9.3008047,8.7472552z" fill="rgb(255,255,255)" shaper:cutDepth="0.0016" shaper:pathType="interior" stroke="rgb(0,0,0)" transform="matrix(1,0,0,-1,1.8640386,12.6995873)" vector-effect="non-scaling-stroke" /><path d="M12.2378047,8.7471159 L12.2378237,9.1471159 11.8378237,9.1471349 11.8378047,8.7471349 12.2378047,8.7471159z" fill="rgb(255,255,255)" shaper:cutDepth="0.0016" shaper:pathType="interior" stroke="rgb(0,0,0)" transform="matrix(1,0,0,-1,1.8640386,12.6995873)" vector-effect="non-scaling-stroke" /><path d="M10.3548047,3.352598 L10.7548047,3.3525791 10.7548237,3.7525791 10.3548237,3.752598 10.3548047,3.352598z" fill="rgb(255,255,255)" shaper:cutDepth="0.0016" shaper:pathType="interior" stroke="rgb(0,0,0)" transform="matrix(1,0,0,-1,1.8640386,12.6995873)" vector-effect="non-scaling-stroke" /><path d="M3.1414961,6.6598469 a0.1,0.1 0 1,1 0.2,0 a0.1,0.1 0 1,1 -0.2,0z" fill="rgb(255,255,255)" shaper:cutDepth="0.0016" shaper:pathType="interior" stroke="rgb(0,0,0)" transform="matrix(1,0,0,-1,1.8640386,12.6995873)" vector-effect="non-scaling-stroke" /><path d="M12.308238,1.2004117 a0.1,0.1 0 1,1 0.2,0 a0.1,0.1 0 1,1 -0.2,0z" fill="rgb(255,255,255)" shaper:cutDepth="0.0016" shaper:pathType="interior" stroke="rgb(0,0,0)" transform="matrix(1,0,0,-1,1.8640386,12.6995873)" vector-effect="non-scaling-stroke" /><path d="M0.8000764,0.4499574 a0.1,0.1 0 1,1 0.2,0 a0.1,0.1 0 1,1 -0.2,0z" fill="rgb(255,255,255)" shaper:cutDepth="0.0016" shaper:pathType="interior" stroke="rgb(0,0,0)" transform="matrix(1,0,0,-1,1.8640386,12.6995873)" vector-effect="non-scaling-stroke" /><path d="M10.443689,10.6994997 a0.1,0.1 0 1,1 0.2,0 a0.1,0.1 0 1,1 -0.2,0z" fill="rgb(255,255,255)" shaper:cutDepth="0.0016" shaper:pathType="interior" stroke="rgb(0,0,0)" transform="matrix(1,0,0,-1,1.8640386,12.6995873)" vector-effect="non-scaling-stroke" /><path d="M20.6882001,0.4000143 a0.1,0.1 0 1,1 0.2,0 a0.1,0.1 0 1,1 -0.2,0z" fill="rgb(255,255,255)" shaper:cutDepth="0.0016" shaper:pathType="interior" stroke="rgb(0,0,0)" transform="matrix(1,0,0,-1,1.8640386,12.6995873)" vector-effect="non-scaling-stroke" /><path d="M8.3101404,1.7996013 a0.1,0.1 0 1,1 0.2,0 a0.1,0.1 0 1,1 -0.2,0z" fill="rgb(255,255,255)" shaper:cutDepth="0.0016" shaper:pathType="interior" stroke="rgb(0,0,0)" transform="matrix(1,0,0,-1,1.8640386,12.6995873)" vector-effect="non-scaling-stroke" /><path d="M17.7464967,6.6591543 a0.1,0.1 0 1,1 0.2,0 a0.1,0.1 0 1,1 -0.2,0z" fill="rgb(255,255,255)" shaper:cutDepth="0.0016" shaper:pathType="interior" stroke="rgb(0,0,0)" transform="matrix(1,0,0,-1,1.8640386,12.6995873)" vector-effect="non-scaling-stroke" /><path d="M9.6641038,4.459238 L9.6641228,4.859238 9.2371179,4.8592582 9.2370989,4.4592582 9.6641038,4.459238z" fill="rgb(255,255,255)" shaper:cutDepth="0.0016" shaper:pathType="interior" stroke="rgb(0,0,0)" transform="matrix(1,0,0,-1,1.8640386,12.6995873)" vector-effect="non-scaling-stroke" /><path d="M8.9006466,5.4123282 L9.3006466,5.4123092 9.3006655,5.8123092 8.9006655,5.8123282 8.9006466,5.4123282z" fill="rgb(255,255,255)" shaper:cutDepth="0.0016" shaper:pathType="interior" stroke="rgb(0,0,0)" transform="matrix(1,0,0,-1,1.8640386,12.6995873)" vector-effect="non-scaling-stroke" /><path d="M12.2376888,6.3016699 L12.2377077,6.7016699 11.8377077,6.7016889 11.8376888,6.3016889 12.2376888,6.3016699z" fill="rgb(255,255,255)" shaper:cutDepth="0.0016" shaper:pathType="interior" stroke="rgb(0,0,0)" transform="matrix(1,0,0,-1,1.8640386,12.6995873)" vector-effect="non-scaling-stroke" /><path d="M11.8377526,7.6471349 L11.8377668,7.9471349 11.5377668,7.9471491 11.5377526,7.6471491 11.8377526,7.6471349z" fill="rgb(255,255,255)" shaper:cutDepth="0.0016" shaper:pathType="interior" stroke="rgb(0,0,0)" transform="matrix(1,0,0,-1,1.8640386,12.6995873)" vector-effect="non-scaling-stroke" /><path d="M10.0439366,6.257024 L9.6439366,6.2570429 9.6439177,5.8570429 10.0439177,5.857024 10.0439366,6.257024z" fill="rgb(255,255,255)" shaper:cutDepth="0.0016" shaper:pathType="interior" stroke="rgb(0,0,0)" transform="matrix(1,0,0,-1,1.8640386,12.6995873)" vector-effect="non-scaling-stroke" /><path d="M9.6068778,6.9410817 L9.6068926,7.2533997 9.2945751,7.2534145 9.2945603,6.9410965 9.6068778,6.9410817z" fill="rgb(255,255,255)" shaper:cutDepth="0.0016" shaper:pathType="interior" stroke="rgb(0,0,0)" transform="matrix(1,0,0,-1,1.8640386,12.6995873)" vector-effect="non-scaling-stroke" /><path d="M9.6107731,7.6411967 L9.6107879,7.9532843 9.2907462,7.9532994 9.2907314,7.6412119 9.6107731,7.6411967z" fill="rgb(255,255,255)" shaper:cutDepth="0.0016" shaper:pathType="interior" stroke="rgb(0,0,0)" transform="matrix(1,0,0,-1,1.8640386,12.6995873)" vector-effect="non-scaling-stroke" /><path d="M9.3006888,6.3018092 L9.3007077,6.7018092 8.9007077,6.7018282 8.9006888,6.3018282 9.3006888,6.3018092z" fill="rgb(255,255,255)" shaper:cutDepth="0.0016" shaper:pathType="interior" stroke="rgb(0,0,0)" transform="matrix(1,0,0,-1,1.8640386,12.6995873)" vector-effect="non-scaling-stroke" /><path d="M11.8377194,6.9471349 L11.8377336,7.2471349 11.5377336,7.2471491 11.5377194,6.9471491 11.8377194,6.9471349z" fill="rgb(255,255,255)" shaper:cutDepth="0.0016" shaper:pathType="interior" stroke="rgb(0,0,0)" transform="matrix(1,0,0,-1,1.8640386,12.6995873)" vector-effect="non-scaling-stroke" /><path d="M12.5377526,7.6471017 L12.5377668,7.9471017 12.2377668,7.9471159 12.2377526,7.6471159 12.5377526,7.6471017z" fill="rgb(255,255,255)" shaper:cutDepth="0.0016" shaper:pathType="interior" stroke="rgb(0,0,0)" transform="matrix(1,0,0,-1,1.8640386,12.6995873)" vector-effect="non-scaling-stroke" /><path d="M10.7871466,5.4122387 L10.7871655,5.8122387 10.3871655,5.8122577 10.3871466,5.4122577 10.7871466,5.4122387z" fill="rgb(255,255,255)" shaper:cutDepth="0.0016" shaper:pathType="interior" stroke="rgb(0,0,0)" transform="matrix(1,0,0,-1,1.8640386,12.6995873)" vector-effect="non-scaling-stroke" /><path d="M11.8876015,4.4619865 L11.8876205,4.8619865 11.4876205,4.8620055 11.4876015,4.4620055 11.8876015,4.4619865z" fill="rgb(255,255,255)" shaper:cutDepth="0.0016" shaper:pathType="interior" stroke="rgb(0,0,0)" transform="matrix(1,0,0,-1,1.8640386,12.6995873)" vector-effect="non-scaling-stroke" /><path d="M10.3548431,4.1620592 L10.3548573,4.4620592 10.0548573,4.4620734 10.0548431,4.1620734 10.3548431,4.1620592z" fill="rgb(255,255,255)" shaper:cutDepth="0.0016" shaper:pathType="interior" stroke="rgb(0,0,0)" transform="matrix(1,0,0,-1,1.8640386,12.6995873)" vector-effect="non-scaling-stroke" /><path d="M10.3548763,4.8620592 L10.3548905,5.1620592 10.0548905,5.1620734 10.0548763,4.8620734 10.3548763,4.8620592z" fill="rgb(255,255,255)" shaper:cutDepth="0.0016" shaper:pathType="interior" stroke="rgb(0,0,0)" transform="matrix(1,0,0,-1,1.8640386,12.6995873)" vector-effect="non-scaling-stroke" /><path d="M11.5304178,5.8594534 L11.5304365,6.2544536 11.1304365,6.2544725 11.1304178,5.8594723 11.5304178,5.8594534z" fill="rgb(255,255,255)" shaper:cutDepth="0.0016" shaper:pathType="interior" stroke="rgb(0,0,0)" transform="matrix(1,0,0,-1,1.8640386,12.6995873)" vector-effect="non-scaling-stroke" /><path d="M10.7748387,8.1017393 L10.7748577,8.5017393 10.3748577,8.5017583 10.3748387,8.1017583 10.7748387,8.1017393z" fill="rgb(255,255,255)" shaper:cutDepth="0.0016" shaper:pathType="interior" stroke="rgb(0,0,0)" transform="matrix(1,0,0,-1,1.8640386,12.6995873)" vector-effect="non-scaling-stroke" /><path d="M10.7871888,6.3017387 L10.7872077,6.7017387 10.3872077,6.7017577 10.3871888,6.3017577 10.7871888,6.3017387z" fill="rgb(255,255,255)" shaper:cutDepth="0.0016" shaper:pathType="interior" stroke="rgb(0,0,0)" transform="matrix(1,0,0,-1,1.8640386,12.6995873)" vector-effect="non-scaling-stroke" /><path d="M8.9106247,6.9411147 L8.9106395,7.2534327 8.5908283,7.2534479 8.5908135,6.9411299 8.9106247,6.9411147z" fill="rgb(255,255,255)" shaper:cutDepth="0.0016" shaper:pathType="interior" stroke="rgb(0,0,0)" transform="matrix(1,0,0,-1,1.8640386,12.6995873)" vector-effect="non-scaling-stroke" /><path d="M10.3507336,7.2472054 L10.3507526,7.6472054 9.9507526,7.6472244 9.9507336,7.2472244 10.3507336,7.2472054z" fill="rgb(255,255,255)" shaper:cutDepth="0.0016" shaper:pathType="interior" stroke="rgb(0,0,0)" transform="matrix(1,0,0,-1,1.8640386,12.6995873)" vector-effect="non-scaling-stroke" /><path d="M8.9067959,7.6412303 L8.9068107,7.9533175 8.5947235,7.9533323 8.5947087,7.6412451 8.9067959,7.6412303z" fill="rgb(255,255,255)" shaper:cutDepth="0.0016" shaper:pathType="interior" stroke="rgb(0,0,0)" transform="matrix(1,0,0,-1,1.8640386,12.6995873)" vector-effect="non-scaling-stroke" /><path d="M11.1877526,7.6471657 L10.7877526,7.6471847 10.7877336,7.2471847 11.1877336,7.2471657 11.1877526,7.6471657z" fill="rgb(255,255,255)" shaper:cutDepth="0.0016" shaper:pathType="interior" stroke="rgb(0,0,0)" transform="matrix(1,0,0,-1,1.8640386,12.6995873)" vector-effect="non-scaling-stroke" /><path d="M12.5377189,6.9471017 L12.5377331,7.2471017 12.2377341,7.2471159 12.2377198,6.9471159 12.5377189,6.9471017z" fill="rgb(255,255,255)" shaper:cutDepth="0.0016" shaper:pathType="interior" stroke="rgb(0,0,0)" transform="matrix(1,0,0,-1,1.8640386,12.6995873)" vector-effect="non-scaling-stroke" /><path d="M12.2376466,5.4121699 L12.2376655,5.8121699 11.8376655,5.8121889 11.8376466,5.4121889 12.2376466,5.4121699z" fill="rgb(255,255,255)" shaper:cutDepth="0.0016" shaper:pathType="interior" stroke="rgb(0,0,0)" transform="matrix(1,0,0,-1,1.8640386,12.6995873)" vector-effect="non-scaling-stroke" /><path d="M11.0548763,4.862026 L11.0548905,5.162026 10.7548905,5.1620402 10.7548763,4.8620402 11.0548763,4.862026z" fill="rgb(255,255,255)" shaper:cutDepth="0.0016" shaper:pathType="interior" stroke="rgb(0,0,0)" transform="matrix(1,0,0,-1,1.8640386,12.6995873)" vector-effect="non-scaling-stroke" /><path d="M11.0548431,4.162026 L11.0548573,4.462026 10.7548573,4.4620402 10.7548431,4.1620402 11.0548431,4.162026z" fill="rgb(255,255,255)" shaper:cutDepth="0.0016" shaper:pathType="interior" stroke="rgb(0,0,0)" transform="matrix(1,0,0,-1,1.8640386,12.6995873)" vector-effect="non-scaling-stroke" /><path d="M8.5621269,11.9558741 L7.4152759,11.1529215 8.2182286,10.0060706 9.3650795,10.8090232 8.5621269,11.9558741z" fill="rgb(255,255,255)" shaper:cutDepth="0.0016" shaper:pathType="interior" stroke="rgb(0,0,0)" transform="matrix(1,0,0,-1,1.8640386,12.6995873)" vector-effect="non-scaling-stroke" /><path d="M0.9948706,2.7160372 L-0.3574427,2.3537547 0.0048398,1.0014414 1.3571532,1.3637239 0.9948706,2.7160372z" fill="rgb(255,255,255)" shaper:cutDepth="0.0016" shaper:pathType="interior" stroke="rgb(0,0,0)" transform="matrix(1,0,0,-1,1.8640386,12.6995873)" vector-effect="non-scaling-stroke" /><path d="M4.083539,5.9100976 L2.7312257,5.547815 3.0935082,4.1955017 4.4458215,4.5577842 4.083539,5.9100976z" fill="rgb(255,255,255)" shaper:cutDepth="0.0016" shaper:pathType="interior" stroke="rgb(0,0,0)" transform="matrix(1,0,0,-1,1.8640386,12.6995873)" vector-effect="non-scaling-stroke" /><path d="M6.2851571,5.0536451 L4.9328438,4.6913625 5.2951263,3.3390492 6.6474396,3.7013317 6.2851571,5.0536451z" fill="rgb(255,255,255)" shaper:cutDepth="0.0016" shaper:pathType="interior" stroke="rgb(0,0,0)" transform="matrix(1,0,0,-1,1.8640386,12.6995873)" vector-effect="non-scaling-stroke" /><path d="M8.5525037,3.9518444 L7.2001903,3.5895618 7.5624729,2.2372485 8.9147862,2.599531 8.5525037,3.9518444z" fill="rgb(255,255,255)" shaper:cutDepth="0.0016" shaper:pathType="interior" stroke="rgb(0,0,0)" transform="matrix(1,0,0,-1,1.8640386,12.6995873)" vector-effect="non-scaling-stroke" /><path d="M21.4208689,2.3527221 L20.0685899,2.7151329 19.7061791,1.3628539 21.0584581,1.0004431 21.4208689,2.3527221z" fill="rgb(255,255,255)" shaper:cutDepth="0.0016" shaper:pathType="interior" stroke="rgb(0,0,0)" transform="matrix(1,0,0,-1,1.8640386,12.6995873)" vector-effect="non-scaling-stroke" /><path d="M17.839366,3.70701 L16.487087,4.0694208 16.1246763,2.7171418 17.4769552,2.354731 17.839366,3.70701z" fill="rgb(255,255,255)" shaper:cutDepth="0.0016" shaper:pathType="interior" stroke="rgb(0,0,0)" transform="matrix(1,0,0,-1,1.8640386,12.6995873)" vector-effect="non-scaling-stroke" /><path d="M16.6239416,6.5308967 L15.2716627,6.8933075 14.9092519,5.5410286 16.2615308,5.1786178 16.6239416,6.5308967z" fill="rgb(255,255,255)" shaper:cutDepth="0.0016" shaper:pathType="interior" stroke="rgb(0,0,0)" transform="matrix(1,0,0,-1,1.8640386,12.6995873)" vector-effect="non-scaling-stroke" /><path d="M13.8633531,3.5892459 L12.5110742,3.9516566 12.1486634,2.5993777 13.5009423,2.2369669 13.8633531,3.5892459z" fill="rgb(255,255,255)" shaper:cutDepth="0.0016" shaper:pathType="interior" stroke="rgb(0,0,0)" transform="matrix(1,0,0,-1,1.8640386,12.6995873)" vector-effect="non-scaling-stroke" /><path d="M16.1308042,4.6908315 L14.7785252,5.0532423 14.4161144,3.7009633 15.7683934,3.3385526 16.1308042,4.6908315z" fill="rgb(255,255,255)" shaper:cutDepth="0.0016" shaper:pathType="interior" stroke="rgb(0,0,0)" transform="matrix(1,0,0,-1,1.8640386,12.6995873)" vector-effect="non-scaling-stroke" /><path d="M18.3325035,5.5470752 L16.9802245,5.909486 16.6178137,4.557207 17.9700927,4.1947963 18.3325035,5.5470752z" fill="rgb(255,255,255)" shaper:cutDepth="0.0016" shaper:pathType="interior" stroke="rgb(0,0,0)" transform="matrix(1,0,0,-1,1.8640386,12.6995873)" vector-effect="non-scaling-stroke" /><path d="M21.9140064,4.1927873 L20.5617274,4.5551981 20.1993166,3.2029191 21.5515956,2.8405083 21.9140064,4.1927873z" fill="rgb(255,255,255)" shaper:cutDepth="0.0016" shaper:pathType="interior" stroke="rgb(0,0,0)" transform="matrix(1,0,0,-1,1.8640386,12.6995873)" vector-effect="non-scaling-stroke" /><path d="M8.0595407,5.7919563 L6.7072274,5.4296738 7.0695099,4.0773605 8.4218232,4.439643 8.0595407,5.7919563z" fill="rgb(255,255,255)" shaper:cutDepth="0.0016" shaper:pathType="interior" stroke="rgb(0,0,0)" transform="matrix(1,0,0,-1,1.8640386,12.6995873)" vector-effect="non-scaling-stroke" /><path d="M6.77812,3.2135331 L5.4258067,2.8512506 5.7880892,1.4989372 7.1404026,1.8612198 6.77812,3.2135331z" fill="rgb(255,255,255)" shaper:cutDepth="0.0016" shaper:pathType="interior" stroke="rgb(0,0,0)" transform="matrix(1,0,0,-1,1.8640386,12.6995873)" vector-effect="non-scaling-stroke" /><path d="M2.1119702,5.9078312 L0.7596569,5.5455486 1.1219394,4.1932353 2.4742527,4.5555178 2.1119702,5.9078312z" fill="rgb(255,255,255)" shaper:cutDepth="0.0016" shaper:pathType="interior" stroke="rgb(0,0,0)" transform="matrix(1,0,0,-1,1.8640386,12.6995873)" vector-effect="non-scaling-stroke" /><path d="M0.5019077,4.5561492 L-0.8504056,4.1938667 -0.4881231,2.8415533 0.8641902,3.2038359 0.5019077,4.5561492z" fill="rgb(255,255,255)" shaper:cutDepth="0.0016" shaper:pathType="interior" stroke="rgb(0,0,0)" transform="matrix(1,0,0,-1,1.8640386,12.6995873)" vector-effect="non-scaling-stroke" /><path d="M6.8590045,10.8317933 L5.5901456,10.2401879 6.181751,8.9713289 7.4506099,9.5629343 6.8590045,10.8317933z" fill="rgb(255,255,255)" shaper:cutDepth="0.0016" shaper:pathType="interior" stroke="rgb(0,0,0)" transform="matrix(1,0,0,-1,1.8640386,12.6995873)" vector-effect="non-scaling-stroke" /><path d="M17.4458303,9.5976845 L16.0935461,9.9600758 15.7311548,8.6077916 17.083439,8.2454003 17.4458303,9.5976845z" fill="rgb(255,255,255)" shaper:cutDepth="0.0016" shaper:pathType="interior" stroke="rgb(0,0,0)" transform="matrix(1,0,0,-1,1.8640386,12.6995873)" vector-effect="non-scaling-stroke" /><path d="M3.0978961,2.2276072 L1.7455827,1.8653247 2.1078653,0.5130113 3.4601786,0.8752939 3.0978961,2.2276072z" fill="rgb(255,255,255)" shaper:cutDepth="0.0016" shaper:pathType="interior" stroke="rgb(0,0,0)" transform="matrix(1,0,0,-1,1.8640386,12.6995873)" vector-effect="non-scaling-stroke" /><path d="M4.576502,4.0699856 L3.2241886,3.7077031 3.5864711,2.3553897 4.9387845,2.7176723 4.576502,4.0699856z" fill="rgb(255,255,255)" shaper:cutDepth="0.0016" shaper:pathType="interior" stroke="rgb(0,0,0)" transform="matrix(1,0,0,-1,1.8640386,12.6995873)" vector-effect="non-scaling-stroke" /><path d="M5.7921942,6.8937571 L4.4398808,6.5314745 4.8021634,5.1791612 6.1544767,5.5414437 5.7921942,6.8937571z" fill="rgb(255,255,255)" shaper:cutDepth="0.0016" shaper:pathType="interior" stroke="rgb(0,0,0)" transform="matrix(1,0,0,-1,1.8640386,12.6995873)" vector-effect="non-scaling-stroke" /><path d="M20.3040721,5.5446218 L18.9517931,5.9070326 18.5893823,4.5547537 19.9416613,4.1923429 20.3040721,5.5446218z" fill="rgb(255,255,255)" shaper:cutDepth="0.0016" shaper:pathType="interior" stroke="rgb(0,0,0)" transform="matrix(1,0,0,-1,1.8640386,12.6995873)" vector-effect="non-scaling-stroke" /><path d="M19.3177971,1.8644914 L17.9655182,2.2269022 17.6031074,0.8746232 18.9553864,0.5122124 19.3177971,1.8644914z" fill="rgb(255,255,255)" shaper:cutDepth="0.0016" shaper:pathType="interior" stroke="rgb(0,0,0)" transform="matrix(1,0,0,-1,1.8640386,12.6995873)" vector-effect="non-scaling-stroke" /><path d="M17.3462286,1.8669448 L15.9939496,2.2293556 15.6315388,0.8770766 16.9838178,0.5146658 17.3462286,1.8669448z" fill="rgb(255,255,255)" shaper:cutDepth="0.0016" shaper:pathType="interior" stroke="rgb(0,0,0)" transform="matrix(1,0,0,-1,1.8640386,12.6995873)" vector-effect="non-scaling-stroke" /><path d="M14.849628,7.2693763 L13.4973491,7.6317871 13.1349383,6.2795081 14.4872173,5.9170973 14.849628,7.2693763z" fill="rgb(255,255,255)" shaper:cutDepth="0.0016" shaper:pathType="interior" stroke="rgb(0,0,0)" transform="matrix(1,0,0,-1,1.8640386,12.6995873)" vector-effect="non-scaling-stroke" /><path d="M14.3564906,5.4293111 L13.0042116,5.7917219 12.6418008,4.4394429 13.9940798,4.0770321 14.3564906,5.4293111z" fill="rgb(255,255,255)" shaper:cutDepth="0.0016" shaper:pathType="interior" stroke="rgb(0,0,0)" transform="matrix(1,0,0,-1,1.8640386,12.6995873)" vector-effect="non-scaling-stroke" /><path d="M15.6376667,2.8507663 L14.2853877,3.2131771 13.9229769,1.8608981 15.2752559,1.4984873 15.6376667,2.8507663z" fill="rgb(255,255,255)" shaper:cutDepth="0.0016" shaper:pathType="interior" stroke="rgb(0,0,0)" transform="matrix(1,0,0,-1,1.8640386,12.6995873)" vector-effect="non-scaling-stroke" /><path d="M19.8109346,3.7045566 L18.4586556,4.0669674 18.0962448,2.7146884 19.4485238,2.3522776 19.8109346,3.7045566z" fill="rgb(255,255,255)" shaper:cutDepth="0.0016" shaper:pathType="interior" stroke="rgb(0,0,0)" transform="matrix(1,0,0,-1,1.8640386,12.6995873)" vector-effect="non-scaling-stroke" /><path d="M22.4071438,6.0328525 L21.0548648,6.3952633 20.6924541,5.0429843 22.044733,4.6805735 22.4071438,6.0328525z" fill="rgb(255,255,255)" shaper:cutDepth="0.0016" shaper:pathType="interior" stroke="rgb(0,0,0)" transform="matrix(1,0,0,-1,1.8640386,12.6995873)" vector-effect="non-scaling-stroke" /><path d="M7.5665778,7.6320683 L6.2142644,7.2697858 6.576547,5.9174724 7.9288603,6.279755 7.5665778,7.6320683z" fill="rgb(255,255,255)" shaper:cutDepth="0.0016" shaper:pathType="interior" stroke="rgb(0,0,0)" transform="matrix(1,0,0,-1,1.8640386,12.6995873)" vector-effect="non-scaling-stroke" /><path d="M5.0694649,2.2298736 L3.7171516,1.8675911 4.0794341,0.5152777 5.4317474,0.8775603 5.0694649,2.2298736z" fill="rgb(255,255,255)" shaper:cutDepth="0.0016" shaper:pathType="interior" stroke="rgb(0,0,0)" transform="matrix(1,0,0,-1,1.8640386,12.6995873)" vector-effect="non-scaling-stroke" /><path d="M2.6049331,4.0677192 L1.2526198,3.7054367 1.6149023,2.3531233 2.9672157,2.7154059 2.6049331,4.0677192z" fill="rgb(255,255,255)" shaper:cutDepth="0.0016" shaper:pathType="interior" stroke="rgb(0,0,0)" transform="matrix(1,0,0,-1,1.8640386,12.6995873)" vector-effect="non-scaling-stroke" /><path d="M0.0089448,6.3962612 L-1.3433686,6.0339787 -0.981086,4.6816653 0.3712273,5.0439479 0.0089448,6.3962612z" fill="rgb(255,255,255)" shaper:cutDepth="0.0016" shaper:pathType="interior" stroke="rgb(0,0,0)" transform="matrix(1,0,0,-1,1.8640386,12.6995873)" vector-effect="non-scaling-stroke" /><path d="M5.3328717,8.6082971 L4.9705892,9.9606104 3.6182758,9.5983279 3.9805584,8.2460145 5.3328717,8.6082971z" fill="rgb(255,255,255)" shaper:cutDepth="0.0016" shaper:pathType="interior" stroke="rgb(0,0,0)" transform="matrix(1,0,0,-1,1.8640386,12.6995873)" vector-effect="non-scaling-stroke" /><path d="M14.2075433,10.832285 L13.6126599,9.5649596 14.8799854,8.9700762 15.4748687,10.2374017 14.2075433,10.832285z" fill="rgb(255,255,255)" shaper:cutDepth="0.0016" shaper:pathType="interior" stroke="rgb(0,0,0)" transform="matrix(1,0,0,-1,1.8640386,12.6995873)" vector-effect="non-scaling-stroke" /><path d="M13.6489812,11.1526461 L12.5021898,11.9556837 11.6991522,10.8088923 12.8459436,10.0058547 13.6489812,11.1526461z" fill="rgb(255,255,255)" shaper:cutDepth="0.0016" shaper:pathType="interior" stroke="rgb(0,0,0)" transform="matrix(1,0,0,-1,1.8640386,12.6995873)" vector-effect="non-scaling-stroke" /><path d="M12.2824159,0.4394111 a0.1345362,0.1345362 0 1,1 0.2690725,0 a0.1345362,0.1345362 0 1,1 -0.2690725,0z" fill="rgb(255,255,255)" shaper:cutDepth="0.0016" shaper:pathType="interior" stroke="rgb(0,0,0)" transform="matrix(1,0,0,-1,1.8640386,12.6995873)" vector-effect="non-scaling-stroke" /></svg>