<?xml version="1.0" encoding="utf-8"?>
<!-- Generator: Fusion 360, Shaper Origin Export Add-In, Version 1.5.0  -->
<svg enable-background="new 0 0 24.8163687 12.6995873" height="12.6995873cm" shaper:fusionaddin="version:1.5.0" version="1.1" viewBox="0 0 24.8163687 12.6995873" width="24.8163687cm" x="0cm" xml:space="preserve" xmlns="http://www.w3.org/2000/svg" xmlns:shaper="http://www.shapertools.com/namespaces/shaper" xmlns:xlink="http://www.w3.org/1999/xlink" y="0cm"><path d="M21.0881813,0 A0.407,0.407 269.997283 0,1 21.4860153,0.3210203 L22.9304598,5.8749127 A0.7768615,0.7768615 346.3724656 0,1 22.7738464,6.5533855 L17.8466631,10.1591537 12.3857835,12.6994127 8.7027835,12.6995873 3.2416631,10.1598463 -1.6855078,6.5550799 A0.7768615,0.7768615 140.3709334 0,1 -1.8421856,5.8766221 L-0.3978035,0.3210581 A0.407,0.407 192.190314 0,1 -0,0 L21.0881813,0z" fill="rgb(0,0,0)" shaper:cutDepth="0.001" shaper:pathType="exterior" transform="matrix(1,0,0,-1,1.8640386,12.6995873)" vector-effect="non-scaling-stroke" /><path d="M12.3169524,0.4439112 a0.1,0.1 0 1,1 0.2,0 a0.1,0.1 0 1,1 -0.2,0z" fill="rgb(255,255,255)" shaper:cutDepth="0.001" shaper:pathType="interior" stroke="rgb(0,0,0)" transform="matrix(1,0,0,-1,1.8640386,12.6995873)" vector-effect="non-scaling-stroke" /><path d="M-0.981086,4.6816653 L0.3712273,5.0439479 0.0089448,6.3962612 -1.3433686,6.0339787 -0.981086,4.6816653z" fill="rgb(255,255,255)" shaper:cutDepth="0.001" shaper:pathType="interior" stroke="rgb(0,0,0)" transform="matrix(1,0,0,-1,1.8640386,12.6995873)" vector-effect="non-scaling-stroke" /><path d="M4.0794341,0.5152777 L5.4317474,0.8775603 5.0694649,2.2298736 3.7171516,1.8675911 4.0794341,0.5152777z" fill="rgb(255,255,255)" shaper:cutDepth="0.001" shaper:pathType="interior" stroke="rgb(0,0,0)" transform="matrix(1,0,0,-1,1.8640386,12.6995873)" vector-effect="non-scaling-stroke" /><path d="M5.2951263,3.3390492 L6.6474396,3.7013317 6.2851571,5.0536451 4.9328438,4.6913625 5.2951263,3.3390492z" fill="rgb(255,255,255)" shaper:cutDepth="0.001" shaper:pathType="interior" stroke="rgb(0,0,0)" transform="matrix(1,0,0,-1,1.8640386,12.6995873)" vector-effect="non-scaling-stroke" /><path d="M6.576547,5.9174724 L7.9288603,6.279755 7.5665778,7.6320683 6.2142644,7.2697858 6.576547,5.9174724z" fill="rgb(255,255,255)" shaper:cutDepth="0.001" shaper:pathType="interior" stroke="rgb(0,0,0)" transform="matrix(1,0,0,-1,1.8640386,12.6995873)" vector-effect="non-scaling-stroke" /><path d="M13.6135,9.5626421 L14.8823029,8.9709164 15.4740286,10.2397192 14.2052258,10.8314449 13.6135,9.5626421z" fill="rgb(255,255,255)" shaper:cutDepth="0.001" shaper:pathType="interior" stroke="rgb(0,0,0)" transform="matrix(1,0,0,-1,1.8640386,12.6995873)" vector-effect="non-scaling-stroke" /><path d="M20.6924541,5.0429843 L22.044733,4.6805735 22.4071438,6.0328525 21.0548648,6.3952633 20.6924541,5.0429843z" fill="rgb(255,255,255)" shaper:cutDepth="0.001" shaper:pathType="interior" stroke="rgb(0,0,0)" transform="matrix(1,0,0,-1,1.8640386,12.6995873)" vector-effect="non-scaling-stroke" /><path d="M16.6178137,4.557207 L17.9700927,4.1947963 18.3325035,5.5470752 16.9802245,5.909486 16.6178137,4.557207z" fill="rgb(255,255,255)" shaper:cutDepth="0.001" shaper:pathType="interior" stroke="rgb(0,0,0)" transform="matrix(1,0,0,-1,1.8640386,12.6995873)" vector-effect="non-scaling-stroke" /><path d="M16.1246763,2.7171418 L17.4769552,2.354731 17.839366,3.70701 16.487087,4.0694208 16.1246763,2.7171418z" fill="rgb(255,255,255)" shaper:cutDepth="0.001" shaper:pathType="interior" stroke="rgb(0,0,0)" transform="matrix(1,0,0,-1,1.8640386,12.6995873)" vector-effect="non-scaling-stroke" /><path d="M12.6418008,4.4394429 L13.9940798,4.0770321 14.3564906,5.4293111 13.0042116,5.7917219 12.6418008,4.4394429z" fill="rgb(255,255,255)" shaper:cutDepth="0.001" shaper:pathType="interior" stroke="rgb(0,0,0)" transform="matrix(1,0,0,-1,1.8640386,12.6995873)" vector-effect="non-scaling-stroke" /><path d="M12.1486634,2.5993777 L13.5009423,2.2369669 13.8633531,3.5892459 12.5110742,3.9516566 12.1486634,2.5993777z" fill="rgb(255,255,255)" shaper:cutDepth="0.001" shaper:pathType="interior" stroke="rgb(0,0,0)" transform="matrix(1,0,0,-1,1.8640386,12.6995873)" vector-effect="non-scaling-stroke" /><path d="M15.6315388,0.8770766 L16.9838178,0.5146658 17.3462286,1.8669448 15.9939496,2.2293556 15.6315388,0.8770766z" fill="rgb(255,255,255)" shaper:cutDepth="0.001" shaper:pathType="interior" stroke="rgb(0,0,0)" transform="matrix(1,0,0,-1,1.8640386,12.6995873)" vector-effect="non-scaling-stroke" /><path d="M18.5893823,4.5547537 L19.9416613,4.1923429 20.3040721,5.5446218 18.9517931,5.9070326 18.5893823,4.5547537z" fill="rgb(255,255,255)" shaper:cutDepth="0.001" shaper:pathType="interior" stroke="rgb(0,0,0)" transform="matrix(1,0,0,-1,1.8640386,12.6995873)" vector-effect="non-scaling-stroke" /><path d="M15.7311477,8.607804 L17.0834267,8.2453932 17.4458375,9.5976722 16.0935585,9.960083 15.7311477,8.607804z" fill="rgb(255,255,255)" shaper:cutDepth="0.001" shaper:pathType="interior" stroke="rgb(0,0,0)" transform="matrix(1,0,0,-1,1.8640386,12.6995873)" vector-effect="non-scaling-stroke" /><path d="M8.2182529,10.0061004 L9.3651038,10.809053 8.5621512,11.9559039 7.4153002,11.1529513 8.2182529,10.0061004z" fill="rgb(255,255,255)" shaper:cutDepth="0.001" shaper:pathType="interior" stroke="rgb(0,0,0)" transform="matrix(1,0,0,-1,1.8640386,12.6995873)" vector-effect="non-scaling-stroke" /><path d="M7.0695099,4.0773605 L8.4218232,4.439643 8.0595407,5.7919563 6.7072274,5.4296738 7.0695099,4.0773605z" fill="rgb(255,255,255)" shaper:cutDepth="0.001" shaper:pathType="interior" stroke="rgb(0,0,0)" transform="matrix(1,0,0,-1,1.8640386,12.6995873)" vector-effect="non-scaling-stroke" /><path d="M4.8021634,5.1791612 L6.1544767,5.5414437 5.7921942,6.8937571 4.4398808,6.5314745 4.8021634,5.1791612z" fill="rgb(255,255,255)" shaper:cutDepth="0.001" shaper:pathType="interior" stroke="rgb(0,0,0)" transform="matrix(1,0,0,-1,1.8640386,12.6995873)" vector-effect="non-scaling-stroke" /><path d="M3.0978961,2.2276072 L1.7455827,1.8653247 2.1078653,0.5130113 3.4601786,0.8752939 3.0978961,2.2276072z" fill="rgb(255,255,255)" shaper:cutDepth="0.001" shaper:pathType="interior" stroke="rgb(0,0,0)" transform="matrix(1,0,0,-1,1.8640386,12.6995873)" vector-effect="non-scaling-stroke" /><path d="M-0.4881231,2.8415533 L0.8641902,3.2038359 0.5019077,4.5561492 -0.8504056,4.1938667 -0.4881231,2.8415533z" fill="rgb(255,255,255)" shaper:cutDepth="0.001" shaper:pathType="interior" stroke="rgb(0,0,0)" transform="matrix(1,0,0,-1,1.8640386,12.6995873)" vector-effect="non-scaling-stroke" /><path d="M1.1219394,4.1932353 L2.4742527,4.5555178 2.1119702,5.9078312 0.7596569,5.5455486 1.1219394,4.1932353z" fill="rgb(255,255,255)" shaper:cutDepth="0.001" shaper:pathType="interior" stroke="rgb(0,0,0)" transform="matrix(1,0,0,-1,1.8640386,12.6995873)" vector-effect="non-scaling-stroke" /><path d="M3.5864711,2.3553897 L4.9387845,2.7176723 4.576502,4.0699856 3.2241886,3.7077031 3.5864711,2.3553897z" fill="rgb(255,255,255)" shaper:cutDepth="0.001" shaper:pathType="interior" stroke="rgb(0,0,0)" transform="matrix(1,0,0,-1,1.8640386,12.6995873)" vector-effect="non-scaling-stroke" /><path d="M5.7880892,1.4989372 L7.1404026,1.8612198 6.77812,3.2135331 5.4258067,2.8512506 5.7880892,1.4989372z" fill="rgb(255,255,255)" shaper:cutDepth="0.001" shaper:pathType="interior" stroke="rgb(0,0,0)" transform="matrix(1,0,0,-1,1.8640386,12.6995873)" vector-effect="non-scaling-stroke" /><path d="M3.9805955,8.2024898 L5.3329089,8.5647724 4.9706263,9.9170857 3.618313,9.5548032 3.9805955,8.2024898z" fill="rgb(255,255,255)" shaper:cutDepth="0.001" shaper:pathType="interior" stroke="rgb(0,0,0)" transform="matrix(1,0,0,-1,1.8640386,12.6995873)" vector-effect="non-scaling-stroke" /><path d="M11.6991486,10.8089125 L12.8459234,10.0058511 13.6489848,11.1526259 12.50221,11.9556873 11.6991486,10.8089125z" fill="rgb(255,255,255)" shaper:cutDepth="0.001" shaper:pathType="interior" stroke="rgb(0,0,0)" transform="matrix(1,0,0,-1,1.8640386,12.6995873)" vector-effect="non-scaling-stroke" /><path d="M21.9140064,4.1927873 L20.5617274,4.5551981 20.1993166,3.2029191 21.5515956,2.8405083 21.9140064,4.1927873z" fill="rgb(255,255,255)" shaper:cutDepth="0.001" shaper:pathType="interior" stroke="rgb(0,0,0)" transform="matrix(1,0,0,-1,1.8640386,12.6995873)" vector-effect="non-scaling-stroke" /><path d="M18.0962448,2.7146884 L19.4485238,2.3522776 19.8109346,3.7045566 18.4586556,4.0669674 18.0962448,2.7146884z" fill="rgb(255,255,255)" shaper:cutDepth="0.001" shaper:pathType="interior" stroke="rgb(0,0,0)" transform="matrix(1,0,0,-1,1.8640386,12.6995873)" vector-effect="non-scaling-stroke" /><path d="M14.4161144,3.7009633 L15.7683934,3.3385526 16.1308042,4.6908315 14.7785252,5.0532423 14.4161144,3.7009633z" fill="rgb(255,255,255)" shaper:cutDepth="0.001" shaper:pathType="interior" stroke="rgb(0,0,0)" transform="matrix(1,0,0,-1,1.8640386,12.6995873)" vector-effect="non-scaling-stroke" /><path d="M13.1349383,6.2795081 L14.4872173,5.9170973 14.849628,7.2693763 13.4973491,7.6317871 13.1349383,6.2795081z" fill="rgb(255,255,255)" shaper:cutDepth="0.001" shaper:pathType="interior" stroke="rgb(0,0,0)" transform="matrix(1,0,0,-1,1.8640386,12.6995873)" vector-effect="non-scaling-stroke" /><path d="M13.9229769,1.8608981 L15.2752559,1.4984873 15.6376667,2.8507663 14.2853877,3.2131771 13.9229769,1.8608981z" fill="rgb(255,255,255)" shaper:cutDepth="0.001" shaper:pathType="interior" stroke="rgb(0,0,0)" transform="matrix(1,0,0,-1,1.8640386,12.6995873)" vector-effect="non-scaling-stroke" /><path d="M17.6031074,0.8746232 L18.9553864,0.5122124 19.3177971,1.8644914 17.9655182,2.2269022 17.6031074,0.8746232z" fill="rgb(255,255,255)" shaper:cutDepth="0.001" shaper:pathType="interior" stroke="rgb(0,0,0)" transform="matrix(1,0,0,-1,1.8640386,12.6995873)" vector-effect="non-scaling-stroke" /><path d="M19.7061791,1.3628539 L21.0584581,1.0004431 21.4208689,2.3527221 20.0685899,2.7151329 19.7061791,1.3628539z" fill="rgb(255,255,255)" shaper:cutDepth="0.001" shaper:pathType="interior" stroke="rgb(0,0,0)" transform="matrix(1,0,0,-1,1.8640386,12.6995873)" vector-effect="non-scaling-stroke" /><path d="M14.9092519,5.5410286 L16.2615308,5.1786178 16.6239416,6.5308967 15.2716627,6.8933075 14.9092519,5.5410286z" fill="rgb(255,255,255)" shaper:cutDepth="0.001" shaper:pathType="interior" stroke="rgb(0,0,0)" transform="matrix(1,0,0,-1,1.8640386,12.6995873)" vector-effect="non-scaling-stroke" /><path d="M6.1817241,8.9713586 L7.450583,9.562964 6.8589776,10.831823 5.5901187,10.2402176 6.1817241,8.9713586z" fill="rgb(255,255,255)" shaper:cutDepth="0.001" shaper:pathType="interior" stroke="rgb(0,0,0)" transform="matrix(1,0,0,-1,1.8640386,12.6995873)" vector-effect="non-scaling-stroke" /><path d="M7.5624729,2.2372485 L8.9147862,2.599531 8.5525037,3.9518444 7.2001903,3.5895618 7.5624729,2.2372485z" fill="rgb(255,255,255)" shaper:cutDepth="0.001" shaper:pathType="interior" stroke="rgb(0,0,0)" transform="matrix(1,0,0,-1,1.8640386,12.6995873)" vector-effect="non-scaling-stroke" /><path d="M3.0935082,4.1955017 L4.4458215,4.5577842 4.083539,5.9100976 2.7312257,5.547815 3.0935082,4.1955017z" fill="rgb(255,255,255)" shaper:cutDepth="0.001" shaper:pathType="interior" stroke="rgb(0,0,0)" transform="matrix(1,0,0,-1,1.8640386,12.6995873)" vector-effect="non-scaling-stroke" /><path d="M1.6149023,2.3531233 L2.9672157,2.7154059 2.6049331,4.0677192 1.2526198,3.7054367 1.6149023,2.3531233z" fill="rgb(255,255,255)" shaper:cutDepth="0.001" shaper:pathType="interior" stroke="rgb(0,0,0)" transform="matrix(1,0,0,-1,1.8640386,12.6995873)" vector-effect="non-scaling-stroke" /><path d="M0.0048398,1.0014414 L1.3571532,1.3637239 0.9948706,2.7160372 -0.3574427,2.3537547 0.0048398,1.0014414z" fill="rgb(255,255,255)" shaper:cutDepth="0.001" shaper:pathType="interior" stroke="rgb(0,0,0)" transform="matrix(1,0,0,-1,1.8640386,12.6995873)" vector-effect="non-scaling-stroke" /><path d="M0.9062123,0.6539518 a0.11,0.11 0 1,1 0.22,0 a0.11,0.11 0 1,1 -0.22,0z" fill="rgb(255,255,255)" shaper:cutDepth="0.001" shaper:pathType="interior" stroke="rgb(0,0,0)" transform="matrix(1,0,0,-1,1.8640386,12.6995873)" vector-effect="non-scaling-stroke" /><path d="M12.1125358,7.4754204 a0.11,0.11 0 1,1 0.22,0 a0.11,0.11 0 1,1 -0.22,0z" fill="rgb(255,255,255)" shaper:cutDepth="0.001" shaper:pathType="interior" stroke="rgb(0,0,0)" transform="matrix(1,0,0,-1,1.8640386,12.6995873)" vector-effect="non-scaling-stroke" /><path d="M8.5945388,7.5385872 a0.11,0.11 0 1,1 0.22,0 a0.11,0.11 0 1,1 -0.22,0z" fill="rgb(255,255,255)" shaper:cutDepth="0.001" shaper:pathType="interior" stroke="rgb(0,0,0)" transform="matrix(1,0,0,-1,1.8640386,12.6995873)" vector-effect="non-scaling-stroke" /><path d="M2.6795907,8.6328677 a0.11,0.11 0 1,1 0.22,0 a0.11,0.11 0 1,1 -0.22,0z" fill="rgb(255,255,255)" shaper:cutDepth="0.001" shaper:pathType="interior" stroke="rgb(0,0,0)" transform="matrix(1,0,0,-1,1.8640386,12.6995873)" vector-effect="non-scaling-stroke" /><path d="M0.9135123,6.9799515 a0.11,0.11 0 1,1 0.22,0 a0.11,0.11 0 1,1 -0.22,0z" fill="rgb(255,255,255)" shaper:cutDepth="0.001" shaper:pathType="interior" stroke="rgb(0,0,0)" transform="matrix(1,0,0,-1,1.8640386,12.6995873)" vector-effect="non-scaling-stroke" /><path d="M17.9993653,3.8801413 a0.11,0.11 0 1,1 0.22,0 a0.11,0.11 0 1,1 -0.22,0z" fill="rgb(255,255,255)" shaper:cutDepth="0.001" shaper:pathType="interior" stroke="rgb(0,0,0)" transform="matrix(1,0,0,-1,1.8640386,12.6995873)" vector-effect="non-scaling-stroke" /><path d="M2.5183872,4.3428754 a0.11,0.11 0 1,1 0.22,0 a0.11,0.11 0 1,1 -0.22,0z" fill="rgb(255,255,255)" shaper:cutDepth="0.001" shaper:pathType="interior" stroke="rgb(0,0,0)" transform="matrix(1,0,0,-1,1.8640386,12.6995873)" vector-effect="non-scaling-stroke" /><path d="M10.281318,2.8825072 a0.11,0.11 0 1,1 0.22,0 a0.11,0.11 0 1,1 -0.22,0z" fill="rgb(255,255,255)" shaper:cutDepth="0.001" shaper:pathType="interior" stroke="rgb(0,0,0)" transform="matrix(1,0,0,-1,1.8640386,12.6995873)" vector-effect="non-scaling-stroke" /><path d="M18.5445793,8.3931154 a0.11,0.11 0 1,1 0.22,0 a0.11,0.11 0 1,1 -0.22,0z" fill="rgb(255,255,255)" shaper:cutDepth="0.001" shaper:pathType="interior" stroke="rgb(0,0,0)" transform="matrix(1,0,0,-1,1.8640386,12.6995873)" vector-effect="non-scaling-stroke" /><path d="M6.9672202,0.8196644 a0.11,0.11 0 1,1 0.22,0 a0.11,0.11 0 1,1 -0.22,0z" fill="rgb(255,255,255)" shaper:cutDepth="0.001" shaper:pathType="interior" stroke="rgb(0,0,0)" transform="matrix(1,0,0,-1,1.8640386,12.6995873)" vector-effect="non-scaling-stroke" /><path d="M19.9824869,6.4440472 a0.11,0.11 0 1,1 0.22,0 a0.11,0.11 0 1,1 -0.22,0z" fill="rgb(255,255,255)" shaper:cutDepth="0.001" shaper:pathType="interior" stroke="rgb(0,0,0)" transform="matrix(1,0,0,-1,1.8640386,12.6995873)" vector-effect="non-scaling-stroke" /><path d="M10.3187223,11.4095055 a0.11,0.11 0 1,1 0.22,0 a0.11,0.11 0 1,1 -0.22,0z" fill="rgb(255,255,255)" shaper:cutDepth="0.001" shaper:pathType="interior" stroke="rgb(0,0,0)" transform="matrix(1,0,0,-1,1.8640386,12.6995873)" vector-effect="non-scaling-stroke" /><path d="M20.1852091,0.5850376 a0.11,0.11 0 1,1 0.22,0 a0.11,0.11 0 1,1 -0.22,0z" fill="rgb(255,255,255)" shaper:cutDepth="0.001" shaper:pathType="interior" stroke="rgb(0,0,0)" transform="matrix(1,0,0,-1,1.8640386,12.6995873)" vector-effect="non-scaling-stroke" /><path d="M14.0752179,0.7723273 a0.11,0.11 0 1,1 0.22,0 a0.11,0.11 0 1,1 -0.22,0z" fill="rgb(255,255,255)" shaper:cutDepth="0.001" shaper:pathType="interior" stroke="rgb(0,0,0)" transform="matrix(1,0,0,-1,1.8640386,12.6995873)" vector-effect="non-scaling-stroke" /></svg>