<?xml version="1.0" encoding="utf-8"?>
<!-- Generator: Fusion 360, Shaper Origin Export Add-In, Version 1.5.0  -->
<svg enable-background="new 0 0 24.8163687 12.6995873" height="12.6995873cm" shaper:fusionaddin="version:1.5.0" version="1.1" viewBox="0 0 24.8163687 12.6995873" width="24.8163687cm" x="0cm" xml:space="preserve" xmlns="http://www.w3.org/2000/svg" xmlns:shaper="http://www.shapertools.com/namespaces/shaper" xmlns:xlink="http://www.w3.org/1999/xlink" y="0cm"><path d="M-1.8422785,5.8749127 L-0.3978339,0.3210203 A0.407,0.407 192.1957514 0,1 -0,-0 L21.0881813,0 A0.407,0.407 270.002717 0,1 21.4859848,0.3210581 L22.930367,5.8766221 A0.7768615,0.7768615 346.3778996 0,1 22.7736892,6.5550799 L17.8465182,10.1598463 12.3853978,12.6995873 8.7023978,12.6994127 3.2415183,10.1591537 -1.685665,6.5533855 A0.7768615,0.7768615 140.376366 0,1 -1.8422785,5.8749127z" fill="rgb(0,0,0)" shaper:cutDepth="0.0016" shaper:pathType="exterior" transform="matrix(1,0,0,-1,1.8641488,12.6995873)" vector-effect="non-scaling-stroke" /><path d="M8.2226171,9.8944319 L7.3277773,11.1722667 8.6056121,12.0671065 9.5004519,10.7892717 8.2226171,9.8944319z" fill="rgb(137,137,137)" fill-rule="nonzero" shaper:cutDepth="0.0006" shaper:pathType="hogging" transform="matrix(1,0,0,-1,1.8641488,12.6995873)" vector-effect="non-scaling-stroke" /><path d="M10.7197057,6.1995127 a0.1,0.1 0 1,1 0.2,0 a0.1,0.1 0 1,1 -0.2,0z" fill="rgb(255,255,255)" shaper:cutDepth="0.0016" shaper:pathType="interior" stroke="rgb(0,0,0)" transform="matrix(1,0,0,-1,1.8641488,12.6995873)" vector-effect="non-scaling-stroke" /><path d="M12.1873766,8.7472742 L12.1873576,9.1472742 11.7873576,9.1472552 11.7873766,8.7472552 12.1873766,8.7472742z" fill="rgb(255,255,255)" shaper:cutDepth="0.0016" shaper:pathType="interior" stroke="rgb(0,0,0)" transform="matrix(1,0,0,-1,1.8641488,12.6995873)" vector-effect="non-scaling-stroke" /><path d="M9.2503766,8.7471349 L9.2503576,9.1471349 8.8503576,9.1471159 8.8503766,8.7471159 9.2503766,8.7471349z" fill="rgb(255,255,255)" shaper:cutDepth="0.0016" shaper:pathType="interior" stroke="rgb(0,0,0)" transform="matrix(1,0,0,-1,1.8641488,12.6995873)" vector-effect="non-scaling-stroke" /><path d="M10.7333576,3.752598 L10.3333576,3.7525791 10.3333766,3.3525791 10.7333766,3.352598 10.7333576,3.752598z" fill="rgb(255,255,255)" shaper:cutDepth="0.0016" shaper:pathType="interior" stroke="rgb(0,0,0)" transform="matrix(1,0,0,-1,1.8641488,12.6995873)" vector-effect="non-scaling-stroke" /><path d="M17.7466853,6.6598469 a0.1,0.1 0 1,1 0.2,0 a0.1,0.1 0 1,1 -0.2,0z" fill="rgb(255,255,255)" shaper:cutDepth="0.0016" shaper:pathType="interior" stroke="rgb(0,0,0)" transform="matrix(1,0,0,-1,1.8641488,12.6995873)" vector-effect="non-scaling-stroke" /><path d="M8.5799433,1.2004117 a0.1,0.1 0 1,1 0.2,0 a0.1,0.1 0 1,1 -0.2,0z" fill="rgb(255,255,255)" shaper:cutDepth="0.0016" shaper:pathType="interior" stroke="rgb(0,0,0)" transform="matrix(1,0,0,-1,1.8641488,12.6995873)" vector-effect="non-scaling-stroke" /><path d="M20.0881049,0.4499574 a0.1,0.1 0 1,1 0.2,0 a0.1,0.1 0 1,1 -0.2,0z" fill="rgb(255,255,255)" shaper:cutDepth="0.0016" shaper:pathType="interior" stroke="rgb(0,0,0)" transform="matrix(1,0,0,-1,1.8641488,12.6995873)" vector-effect="non-scaling-stroke" /><path d="M10.4444923,10.6994997 a0.1,0.1 0 1,1 0.2,0 a0.1,0.1 0 1,1 -0.2,0z" fill="rgb(255,255,255)" shaper:cutDepth="0.0016" shaper:pathType="interior" stroke="rgb(0,0,0)" transform="matrix(1,0,0,-1,1.8641488,12.6995873)" vector-effect="non-scaling-stroke" /><path d="M0.1999812,0.4000143 a0.1,0.1 0 1,1 0.2,0 a0.1,0.1 0 1,1 -0.2,0z" fill="rgb(255,255,255)" shaper:cutDepth="0.0016" shaper:pathType="interior" stroke="rgb(0,0,0)" transform="matrix(1,0,0,-1,1.8641488,12.6995873)" vector-effect="non-scaling-stroke" /><path d="M12.5780409,1.7996013 a0.1,0.1 0 1,1 0.2,0 a0.1,0.1 0 1,1 -0.2,0z" fill="rgb(255,255,255)" shaper:cutDepth="0.0016" shaper:pathType="interior" stroke="rgb(0,0,0)" transform="matrix(1,0,0,-1,1.8641488,12.6995873)" vector-effect="non-scaling-stroke" /><path d="M3.1416846,6.6591543 a0.1,0.1 0 1,1 0.2,0 a0.1,0.1 0 1,1 -0.2,0z" fill="rgb(255,255,255)" shaper:cutDepth="0.0016" shaper:pathType="interior" stroke="rgb(0,0,0)" transform="matrix(1,0,0,-1,1.8641488,12.6995873)" vector-effect="non-scaling-stroke" /><path d="M11.8510824,4.4592582 L11.8510634,4.8592582 11.4240585,4.859238 11.4240775,4.459238 11.8510824,4.4592582z" fill="rgb(255,255,255)" shaper:cutDepth="0.0016" shaper:pathType="interior" stroke="rgb(0,0,0)" transform="matrix(1,0,0,-1,1.8641488,12.6995873)" vector-effect="non-scaling-stroke" /><path d="M12.1875158,5.8123282 L11.7875158,5.8123092 11.7875347,5.4123092 12.1875347,5.4123282 12.1875158,5.8123282z" fill="rgb(255,255,255)" shaper:cutDepth="0.0016" shaper:pathType="interior" stroke="rgb(0,0,0)" transform="matrix(1,0,0,-1,1.8641488,12.6995873)" vector-effect="non-scaling-stroke" /><path d="M9.2504926,6.3016889 L9.2504736,6.7016889 8.8504736,6.7016699 8.8504926,6.3016699 9.2504926,6.3016889z" fill="rgb(255,255,255)" shaper:cutDepth="0.0016" shaper:pathType="interior" stroke="rgb(0,0,0)" transform="matrix(1,0,0,-1,1.8641488,12.6995873)" vector-effect="non-scaling-stroke" /><path d="M9.5504288,7.6471491 L9.5504145,7.9471491 9.2504145,7.9471349 9.2504288,7.6471349 9.5504288,7.6471491z" fill="rgb(255,255,255)" shaper:cutDepth="0.0016" shaper:pathType="interior" stroke="rgb(0,0,0)" transform="matrix(1,0,0,-1,1.8641488,12.6995873)" vector-effect="non-scaling-stroke" /><path d="M11.0442637,5.857024 L11.4442637,5.8570429 11.4442447,6.2570429 11.0442447,6.257024 11.0442637,5.857024z" fill="rgb(255,255,255)" shaper:cutDepth="0.0016" shaper:pathType="interior" stroke="rgb(0,0,0)" transform="matrix(1,0,0,-1,1.8641488,12.6995873)" vector-effect="non-scaling-stroke" /><path d="M11.793621,6.9410965 L11.7936062,7.2534145 11.4812887,7.2533997 11.4813035,6.9410817 11.793621,6.9410965z" fill="rgb(255,255,255)" shaper:cutDepth="0.0016" shaper:pathType="interior" stroke="rgb(0,0,0)" transform="matrix(1,0,0,-1,1.8641488,12.6995873)" vector-effect="non-scaling-stroke" /><path d="M11.7974499,7.6412119 L11.7974351,7.9532994 11.4773934,7.9532843 11.4774082,7.6411967 11.7974499,7.6412119z" fill="rgb(255,255,255)" shaper:cutDepth="0.0016" shaper:pathType="interior" stroke="rgb(0,0,0)" transform="matrix(1,0,0,-1,1.8641488,12.6995873)" vector-effect="non-scaling-stroke" /><path d="M12.1874926,6.3018282 L12.1874736,6.7018282 11.7874736,6.7018092 11.7874926,6.3018092 12.1874926,6.3018282z" fill="rgb(255,255,255)" shaper:cutDepth="0.0016" shaper:pathType="interior" stroke="rgb(0,0,0)" transform="matrix(1,0,0,-1,1.8641488,12.6995873)" vector-effect="non-scaling-stroke" /><path d="M9.550462,6.9471491 L9.5504477,7.2471491 9.2504477,7.2471349 9.250462,6.9471349 9.550462,6.9471491z" fill="rgb(255,255,255)" shaper:cutDepth="0.0016" shaper:pathType="interior" stroke="rgb(0,0,0)" transform="matrix(1,0,0,-1,1.8641488,12.6995873)" vector-effect="non-scaling-stroke" /><path d="M8.8504288,7.6471159 L8.8504145,7.9471159 8.5504145,7.9471017 8.5504288,7.6471017 8.8504288,7.6471159z" fill="rgb(255,255,255)" shaper:cutDepth="0.0016" shaper:pathType="interior" stroke="rgb(0,0,0)" transform="matrix(1,0,0,-1,1.8641488,12.6995873)" vector-effect="non-scaling-stroke" /><path d="M10.7010347,5.4122577 L10.7010158,5.8122577 10.3010158,5.8122387 10.3010348,5.4122387 10.7010347,5.4122577z" fill="rgb(255,255,255)" shaper:cutDepth="0.0016" shaper:pathType="interior" stroke="rgb(0,0,0)" transform="matrix(1,0,0,-1,1.8641488,12.6995873)" vector-effect="non-scaling-stroke" /><path d="M9.6005798,4.4620055 L9.6005608,4.8620055 9.2005608,4.8619865 9.2005798,4.4619865 9.6005798,4.4620055z" fill="rgb(255,255,255)" shaper:cutDepth="0.0016" shaper:pathType="interior" stroke="rgb(0,0,0)" transform="matrix(1,0,0,-1,1.8641488,12.6995873)" vector-effect="non-scaling-stroke" /><path d="M11.0333382,4.1620734 L11.033324,4.4620734 10.733324,4.4620592 10.7333382,4.1620592 11.0333382,4.1620734z" fill="rgb(255,255,255)" shaper:cutDepth="0.0016" shaper:pathType="interior" stroke="rgb(0,0,0)" transform="matrix(1,0,0,-1,1.8641488,12.6995873)" vector-effect="non-scaling-stroke" /><path d="M11.033305,4.8620734 L11.0332908,5.1620734 10.7332908,5.1620592 10.733305,4.8620592 11.033305,4.8620734z" fill="rgb(255,255,255)" shaper:cutDepth="0.0016" shaper:pathType="interior" stroke="rgb(0,0,0)" transform="matrix(1,0,0,-1,1.8641488,12.6995873)" vector-effect="non-scaling-stroke" /><path d="M9.9577635,5.8594723 L9.9577448,6.2544725 9.5577448,6.2544536 9.5577635,5.8594534 9.9577635,5.8594723z" fill="rgb(255,255,255)" shaper:cutDepth="0.0016" shaper:pathType="interior" stroke="rgb(0,0,0)" transform="matrix(1,0,0,-1,1.8641488,12.6995873)" vector-effect="non-scaling-stroke" /><path d="M10.7133426,8.1017583 L10.7133236,8.5017583 10.3133236,8.5017393 10.3133426,8.1017393 10.7133426,8.1017583z" fill="rgb(255,255,255)" shaper:cutDepth="0.0016" shaper:pathType="interior" stroke="rgb(0,0,0)" transform="matrix(1,0,0,-1,1.8641488,12.6995873)" vector-effect="non-scaling-stroke" /><path d="M10.7009926,6.3017577 L10.7009736,6.7017577 10.3009736,6.7017387 10.3009926,6.3017387 10.7009926,6.3017577z" fill="rgb(255,255,255)" shaper:cutDepth="0.0016" shaper:pathType="interior" stroke="rgb(0,0,0)" transform="matrix(1,0,0,-1,1.8641488,12.6995873)" vector-effect="non-scaling-stroke" /><path d="M12.4973679,6.9411299 L12.4973531,7.2534479 12.1775418,7.2534327 12.1775566,6.9411147 12.4973679,6.9411299z" fill="rgb(255,255,255)" shaper:cutDepth="0.0016" shaper:pathType="interior" stroke="rgb(0,0,0)" transform="matrix(1,0,0,-1,1.8641488,12.6995873)" vector-effect="non-scaling-stroke" /><path d="M11.1374477,7.2472244 L11.1374288,7.6472244 10.7374288,7.6472054 10.7374477,7.2472054 11.1374477,7.2472244z" fill="rgb(255,255,255)" shaper:cutDepth="0.0016" shaper:pathType="interior" stroke="rgb(0,0,0)" transform="matrix(1,0,0,-1,1.8641488,12.6995873)" vector-effect="non-scaling-stroke" /><path d="M12.4934726,7.6412451 L12.4934578,7.9533323 12.1813707,7.9533175 12.1813855,7.6412303 12.4934726,7.6412451z" fill="rgb(255,255,255)" shaper:cutDepth="0.0016" shaper:pathType="interior" stroke="rgb(0,0,0)" transform="matrix(1,0,0,-1,1.8641488,12.6995873)" vector-effect="non-scaling-stroke" /><path d="M9.9004477,7.2471657 L10.3004477,7.2471847 10.3004288,7.6471847 9.9004288,7.6471657 9.9004477,7.2471657z" fill="rgb(255,255,255)" shaper:cutDepth="0.0016" shaper:pathType="interior" stroke="rgb(0,0,0)" transform="matrix(1,0,0,-1,1.8641488,12.6995873)" vector-effect="non-scaling-stroke" /><path d="M8.8504615,6.9471159 L8.8504473,7.2471159 8.5504482,7.2471017 8.5504624,6.9471017 8.8504615,6.9471159z" fill="rgb(255,255,255)" shaper:cutDepth="0.0016" shaper:pathType="interior" stroke="rgb(0,0,0)" transform="matrix(1,0,0,-1,1.8641488,12.6995873)" vector-effect="non-scaling-stroke" /><path d="M9.2505348,5.4121889 L9.2505158,5.8121889 8.8505158,5.8121699 8.8505348,5.4121699 9.2505348,5.4121889z" fill="rgb(255,255,255)" shaper:cutDepth="0.0016" shaper:pathType="interior" stroke="rgb(0,0,0)" transform="matrix(1,0,0,-1,1.8641488,12.6995873)" vector-effect="non-scaling-stroke" /><path d="M10.333305,4.8620402 L10.3332908,5.1620402 10.0332908,5.162026 10.033305,4.862026 10.333305,4.8620402z" fill="rgb(255,255,255)" shaper:cutDepth="0.0016" shaper:pathType="interior" stroke="rgb(0,0,0)" transform="matrix(1,0,0,-1,1.8641488,12.6995873)" vector-effect="non-scaling-stroke" /><path d="M10.3333382,4.1620402 L10.333324,4.4620402 10.033324,4.462026 10.0333382,4.162026 10.3333382,4.1620402z" fill="rgb(255,255,255)" shaper:cutDepth="0.0016" shaper:pathType="interior" stroke="rgb(0,0,0)" transform="matrix(1,0,0,-1,1.8641488,12.6995873)" vector-effect="non-scaling-stroke" /><path d="M11.7231018,10.8090232 L12.8699528,10.0060706 13.6729054,11.1529215 12.5260544,11.9558741 11.7231018,10.8090232z" fill="rgb(255,255,255)" shaper:cutDepth="0.0016" shaper:pathType="interior" stroke="rgb(0,0,0)" transform="matrix(1,0,0,-1,1.8641488,12.6995873)" vector-effect="non-scaling-stroke" /><path d="M19.7310281,1.3637239 L21.0833415,1.0014414 21.445624,2.3537547 20.0933107,2.7160372 19.7310281,1.3637239z" fill="rgb(255,255,255)" shaper:cutDepth="0.0016" shaper:pathType="interior" stroke="rgb(0,0,0)" transform="matrix(1,0,0,-1,1.8641488,12.6995873)" vector-effect="non-scaling-stroke" /><path d="M16.6423598,4.5577842 L17.9946731,4.1955017 18.3569557,5.547815 17.0046423,5.9100976 16.6423598,4.5577842z" fill="rgb(255,255,255)" shaper:cutDepth="0.0016" shaper:pathType="interior" stroke="rgb(0,0,0)" transform="matrix(1,0,0,-1,1.8641488,12.6995873)" vector-effect="non-scaling-stroke" /><path d="M14.4407417,3.7013317 L15.793055,3.3390492 16.1553376,4.6913625 14.8030242,5.0536451 14.4407417,3.7013317z" fill="rgb(255,255,255)" shaper:cutDepth="0.0016" shaper:pathType="interior" stroke="rgb(0,0,0)" transform="matrix(1,0,0,-1,1.8641488,12.6995873)" vector-effect="non-scaling-stroke" /><path d="M12.1733951,2.599531 L13.5257085,2.2372485 13.887991,3.5895618 12.5356777,3.9518444 12.1733951,2.599531z" fill="rgb(255,255,255)" shaper:cutDepth="0.0016" shaper:pathType="interior" stroke="rgb(0,0,0)" transform="matrix(1,0,0,-1,1.8641488,12.6995873)" vector-effect="non-scaling-stroke" /><path d="M0.0297232,1.0004431 L1.3820022,1.3628539 1.0195914,2.7151329 -0.3326876,2.3527221 0.0297232,1.0004431z" fill="rgb(255,255,255)" shaper:cutDepth="0.0016" shaper:pathType="interior" stroke="rgb(0,0,0)" transform="matrix(1,0,0,-1,1.8641488,12.6995873)" vector-effect="non-scaling-stroke" /><path d="M3.6112261,2.354731 L4.9635051,2.7171418 4.6010943,4.0694208 3.2488153,3.70701 3.6112261,2.354731z" fill="rgb(255,255,255)" shaper:cutDepth="0.0016" shaper:pathType="interior" stroke="rgb(0,0,0)" transform="matrix(1,0,0,-1,1.8641488,12.6995873)" vector-effect="non-scaling-stroke" /><path d="M4.8266505,5.1786178 L6.1789295,5.5410286 5.8165187,6.8933075 4.4642397,6.5308967 4.8266505,5.1786178z" fill="rgb(255,255,255)" shaper:cutDepth="0.0016" shaper:pathType="interior" stroke="rgb(0,0,0)" transform="matrix(1,0,0,-1,1.8641488,12.6995873)" vector-effect="non-scaling-stroke" /><path d="M7.587239,2.2369669 L8.939518,2.5993777 8.5771072,3.9516566 7.2248282,3.5892459 7.587239,2.2369669z" fill="rgb(255,255,255)" shaper:cutDepth="0.0016" shaper:pathType="interior" stroke="rgb(0,0,0)" transform="matrix(1,0,0,-1,1.8641488,12.6995873)" vector-effect="non-scaling-stroke" /><path d="M5.3197879,3.3385526 L6.6720669,3.7009633 6.3096561,5.0532423 4.9573772,4.6908315 5.3197879,3.3385526z" fill="rgb(255,255,255)" shaper:cutDepth="0.0016" shaper:pathType="interior" stroke="rgb(0,0,0)" transform="matrix(1,0,0,-1,1.8641488,12.6995873)" vector-effect="non-scaling-stroke" /><path d="M3.1180886,4.1947963 L4.4703676,4.557207 4.1079568,5.909486 2.7556779,5.5470752 3.1180886,4.1947963z" fill="rgb(255,255,255)" shaper:cutDepth="0.0016" shaper:pathType="interior" stroke="rgb(0,0,0)" transform="matrix(1,0,0,-1,1.8641488,12.6995873)" vector-effect="non-scaling-stroke" /><path d="M-0.4634142,2.8405083 L0.8888647,3.2029191 0.5264539,4.5551981 -0.825825,4.1927873 -0.4634142,2.8405083z" fill="rgb(255,255,255)" shaper:cutDepth="0.0016" shaper:pathType="interior" stroke="rgb(0,0,0)" transform="matrix(1,0,0,-1,1.8641488,12.6995873)" vector-effect="non-scaling-stroke" /><path d="M12.6663581,4.439643 L14.0186714,4.0773605 14.380954,5.4296738 13.0286406,5.7919563 12.6663581,4.439643z" fill="rgb(255,255,255)" shaper:cutDepth="0.0016" shaper:pathType="interior" stroke="rgb(0,0,0)" transform="matrix(1,0,0,-1,1.8641488,12.6995873)" vector-effect="non-scaling-stroke" /><path d="M13.9477787,1.8612198 L15.3000921,1.4989372 15.6623746,2.8512506 14.3100613,3.2135331 13.9477787,1.8612198z" fill="rgb(255,255,255)" shaper:cutDepth="0.0016" shaper:pathType="interior" stroke="rgb(0,0,0)" transform="matrix(1,0,0,-1,1.8641488,12.6995873)" vector-effect="non-scaling-stroke" /><path d="M18.6139286,4.5555178 L19.9662419,4.1932353 20.3285245,5.5455486 18.9762111,5.9078312 18.6139286,4.5555178z" fill="rgb(255,255,255)" shaper:cutDepth="0.0016" shaper:pathType="interior" stroke="rgb(0,0,0)" transform="matrix(1,0,0,-1,1.8641488,12.6995873)" vector-effect="non-scaling-stroke" /><path d="M20.2239911,3.2038359 L21.5763044,2.8415533 21.938587,4.1938667 20.5862736,4.5561492 20.2239911,3.2038359z" fill="rgb(255,255,255)" shaper:cutDepth="0.0016" shaper:pathType="interior" stroke="rgb(0,0,0)" transform="matrix(1,0,0,-1,1.8641488,12.6995873)" vector-effect="non-scaling-stroke" /><path d="M13.6375714,9.5629343 L14.9064304,8.9713289 15.4980358,10.2401879 14.2291768,10.8317933 13.6375714,9.5629343z" fill="rgb(255,255,255)" shaper:cutDepth="0.0016" shaper:pathType="interior" stroke="rgb(0,0,0)" transform="matrix(1,0,0,-1,1.8641488,12.6995873)" vector-effect="non-scaling-stroke" /><path d="M4.0047423,8.2454003 L5.3570265,8.6077916 4.9946352,9.9600758 3.642351,9.5976845 4.0047423,8.2454003z" fill="rgb(255,255,255)" shaper:cutDepth="0.0016" shaper:pathType="interior" stroke="rgb(0,0,0)" transform="matrix(1,0,0,-1,1.8641488,12.6995873)" vector-effect="non-scaling-stroke" /><path d="M17.6280027,0.8752939 L18.980316,0.5130113 19.3425986,1.8653247 17.9902852,2.2276072 17.6280027,0.8752939z" fill="rgb(255,255,255)" shaper:cutDepth="0.0016" shaper:pathType="interior" stroke="rgb(0,0,0)" transform="matrix(1,0,0,-1,1.8641488,12.6995873)" vector-effect="non-scaling-stroke" /><path d="M16.1493968,2.7176723 L17.5017102,2.3553897 17.8639927,3.7077031 16.5116794,4.0699856 16.1493968,2.7176723z" fill="rgb(255,255,255)" shaper:cutDepth="0.0016" shaper:pathType="interior" stroke="rgb(0,0,0)" transform="matrix(1,0,0,-1,1.8641488,12.6995873)" vector-effect="non-scaling-stroke" /><path d="M14.9337046,5.5414437 L16.286018,5.1791612 16.6483005,6.5314745 15.2959872,6.8937571 14.9337046,5.5414437z" fill="rgb(255,255,255)" shaper:cutDepth="0.0016" shaper:pathType="interior" stroke="rgb(0,0,0)" transform="matrix(1,0,0,-1,1.8641488,12.6995873)" vector-effect="non-scaling-stroke" /><path d="M1.1465201,4.1923429 L2.498799,4.5547537 2.1363882,5.9070326 0.7841093,5.5446218 1.1465201,4.1923429z" fill="rgb(255,255,255)" shaper:cutDepth="0.0016" shaper:pathType="interior" stroke="rgb(0,0,0)" transform="matrix(1,0,0,-1,1.8641488,12.6995873)" vector-effect="non-scaling-stroke" /><path d="M2.132795,0.5122124 L3.4850739,0.8746232 3.1226632,2.2269022 1.7703842,1.8644914 2.132795,0.5122124z" fill="rgb(255,255,255)" shaper:cutDepth="0.0016" shaper:pathType="interior" stroke="rgb(0,0,0)" transform="matrix(1,0,0,-1,1.8641488,12.6995873)" vector-effect="non-scaling-stroke" /><path d="M4.1043636,0.5146658 L5.4566425,0.8770766 5.0942317,2.2293556 3.7419528,1.8669448 4.1043636,0.5146658z" fill="rgb(255,255,255)" shaper:cutDepth="0.0016" shaper:pathType="interior" stroke="rgb(0,0,0)" transform="matrix(1,0,0,-1,1.8641488,12.6995873)" vector-effect="non-scaling-stroke" /><path d="M6.6009641,5.9170973 L7.953243,6.2795081 7.5908323,7.6317871 6.2385533,7.2693763 6.6009641,5.9170973z" fill="rgb(255,255,255)" shaper:cutDepth="0.0016" shaper:pathType="interior" stroke="rgb(0,0,0)" transform="matrix(1,0,0,-1,1.8641488,12.6995873)" vector-effect="non-scaling-stroke" /><path d="M7.0941015,4.0770321 L8.4463805,4.4394429 8.0839697,5.7917219 6.7316907,5.4293111 7.0941015,4.0770321z" fill="rgb(255,255,255)" shaper:cutDepth="0.0016" shaper:pathType="interior" stroke="rgb(0,0,0)" transform="matrix(1,0,0,-1,1.8641488,12.6995873)" vector-effect="non-scaling-stroke" /><path d="M5.8129254,1.4984873 L7.1652044,1.8608981 6.8027936,3.2131771 5.4505146,2.8507663 5.8129254,1.4984873z" fill="rgb(255,255,255)" shaper:cutDepth="0.0016" shaper:pathType="interior" stroke="rgb(0,0,0)" transform="matrix(1,0,0,-1,1.8641488,12.6995873)" vector-effect="non-scaling-stroke" /><path d="M1.6396575,2.3522776 L2.9919365,2.7146884 2.6295257,4.0669674 1.2772467,3.7045566 1.6396575,2.3522776z" fill="rgb(255,255,255)" shaper:cutDepth="0.0016" shaper:pathType="interior" stroke="rgb(0,0,0)" transform="matrix(1,0,0,-1,1.8641488,12.6995873)" vector-effect="non-scaling-stroke" /><path d="M-0.9565517,4.6805735 L0.3957273,5.0429843 0.0333165,6.3952633 -1.3189625,6.0328525 -0.9565517,4.6805735z" fill="rgb(255,255,255)" shaper:cutDepth="0.0016" shaper:pathType="interior" stroke="rgb(0,0,0)" transform="matrix(1,0,0,-1,1.8641488,12.6995873)" vector-effect="non-scaling-stroke" /><path d="M13.159321,6.279755 L14.5116344,5.9174724 14.8739169,7.2697858 13.5216036,7.6320683 13.159321,6.279755z" fill="rgb(255,255,255)" shaper:cutDepth="0.0016" shaper:pathType="interior" stroke="rgb(0,0,0)" transform="matrix(1,0,0,-1,1.8641488,12.6995873)" vector-effect="non-scaling-stroke" /><path d="M15.6564339,0.8775603 L17.0087472,0.5152777 17.3710298,1.8675911 16.0187164,2.2298736 15.6564339,0.8775603z" fill="rgb(255,255,255)" shaper:cutDepth="0.0016" shaper:pathType="interior" stroke="rgb(0,0,0)" transform="matrix(1,0,0,-1,1.8641488,12.6995873)" vector-effect="non-scaling-stroke" /><path d="M18.1209656,2.7154059 L19.473279,2.3531233 19.8355615,3.7054367 18.4832482,4.0677192 18.1209656,2.7154059z" fill="rgb(255,255,255)" shaper:cutDepth="0.0016" shaper:pathType="interior" stroke="rgb(0,0,0)" transform="matrix(1,0,0,-1,1.8641488,12.6995873)" vector-effect="non-scaling-stroke" /><path d="M20.716954,5.0439479 L22.0692674,4.6816653 22.4315499,6.0339787 21.0792366,6.3962612 20.716954,5.0439479z" fill="rgb(255,255,255)" shaper:cutDepth="0.0016" shaper:pathType="interior" stroke="rgb(0,0,0)" transform="matrix(1,0,0,-1,1.8641488,12.6995873)" vector-effect="non-scaling-stroke" /><path d="M17.1076229,8.2460145 L17.4699055,9.5983279 16.1175921,9.9606104 15.7553096,8.6082971 17.1076229,8.2460145z" fill="rgb(255,255,255)" shaper:cutDepth="0.0016" shaper:pathType="interior" stroke="rgb(0,0,0)" transform="matrix(1,0,0,-1,1.8641488,12.6995873)" vector-effect="non-scaling-stroke" /><path d="M5.6133126,10.2374017 L6.2081959,8.9700762 7.4755214,9.5649596 6.880638,10.832285 5.6133126,10.2374017z" fill="rgb(255,255,255)" shaper:cutDepth="0.0016" shaper:pathType="interior" stroke="rgb(0,0,0)" transform="matrix(1,0,0,-1,1.8641488,12.6995873)" vector-effect="non-scaling-stroke" /><path d="M8.2422377,10.0058547 L9.3890291,10.8088923 8.5859915,11.9556837 7.4392001,11.1526461 8.2422377,10.0058547z" fill="rgb(255,255,255)" shaper:cutDepth="0.0016" shaper:pathType="interior" stroke="rgb(0,0,0)" transform="matrix(1,0,0,-1,1.8641488,12.6995873)" vector-effect="non-scaling-stroke" /><path d="M8.5366929,0.4394111 a0.1345362,0.1345362 0 1,1 0.2690725,0 a0.1345362,0.1345362 0 1,1 -0.2690725,0z" fill="rgb(255,255,255)" shaper:cutDepth="0.0016" shaper:pathType="interior" stroke="rgb(0,0,0)" transform="matrix(1,0,0,-1,1.8641488,12.6995873)" vector-effect="non-scaling-stroke" /></svg>