  0
SECTION
  2
HEADER
  9
$ACADVER
  1
AC1006
  9
$EXTMIN
 10
0.000000
 20
0.000000
 30
0.000000
  9
$EXTMAX
 10
245.000000
 20
224.000000
 30
0.000000
  0
ENDSEC
  0
SECTION
  2
ENTITIES
  0
POLYLINE
  8
0
 66
1
 70
1
  0
VERTEX
  8
0
 10
69.895761
 20
214.500000
 42
0.138171
  0
VERTEX
  8
0
 10
69.508403
 20
212.873804
 42
0.013108
  0
VERTEX
  8
0
 10
69.784877
 20
208.752057
 42
0.008816
  0
VERTEX
  8
0
 10
70.252583
 20
204.549056
 42
0.377071
  0
VERTEX
  8
0
 10
70.877120
 20
204.000000
 42
0.365102
  0
VERTEX
  8
0
 10
71.126119
 20
204.209785
 42
0.022306
  0
VERTEX
  8
0
 10
71.257615
 20
205.248437
 42
0.024807
  0
VERTEX
  8
0
 10
71.301157
 20
206.620526
 42
0.014865
  0
VERTEX
  8
0
 10
71.223523
 20
208.250000
 42
0.003297
  0
VERTEX
  8
0
 10
70.877347
 20
212.364980
 42
0.029711
  0
VERTEX
  8
0
 10
70.607413
 20
214.151921
 42
0.210602
  0
VERTEX
  8
0
 10
70.281037
 20
214.604797
 42
0.420893
  0
SEQEND
  0
POLYLINE
  8
0
 66
1
 70
1
  0
VERTEX
  8
0
 10
188.345077
 20
212.456872
 42
0.036107
  0
VERTEX
  8
0
 10
188.155034
 20
211.829710
 42
0.043827
  0
VERTEX
  8
0
 10
188.072725
 20
211.221181
 42
0.049528
  0
VERTEX
  8
0
 10
188.099170
 20
210.714357
 42
0.159916
  0
VERTEX
  8
0
 10
188.249458
 20
210.417209
 42
0.354513
  0
VERTEX
  8
0
 10
188.481100
 20
210.393026
 42
0.101575
  0
VERTEX
  8
0
 10
188.756817
 20
210.665682
 42
0.055867
  0
VERTEX
  8
0
 10
189.039435
 20
211.212661
 42
0.027385
  0
VERTEX
  8
0
 10
189.279377
 20
211.960337
 42
0.022817
  0
VERTEX
  8
0
 10
189.602861
 20
213.476903
 42
0.322211
  0
VERTEX
  8
0
 10
189.370312
 20
213.947587
 42
0.420372
  0
VERTEX
  8
0
 10
188.945646
 20
213.812772
 42
0.025281
  0
SEQEND
  0
POLYLINE
  8
0
 66
1
 70
1
  0
VERTEX
  8
0
 10
179.556704
 20
210.777494
 42
0.035229
  0
VERTEX
  8
0
 10
178.446095
 20
208.927167
 42
0.109676
  0
VERTEX
  8
0
 10
178.086145
 20
207.527277
 42
0.120150
  0
VERTEX
  8
0
 10
178.367213
 20
206.181951
 42
0.046598
  0
VERTEX
  8
0
 10
179.349464
 20
204.536757
 42
0.011061
  0
VERTEX
  8
0
 10
180.166975
 20
203.469136
 42
0.488707
  0
VERTEX
  8
0
 10
180.411749
 20
203.472555
 42
0.196374
  0
VERTEX
  8
0
 10
180.511901
 20
203.849226
 42
0.004447
  0
VERTEX
  8
0
 10
180.252820
 20
205.730787
 42
-0.039635
  0
VERTEX
  8
0
 10
180.164992
 20
207.049552
 42
-0.029892
  0
VERTEX
  8
0
 10
180.270230
 20
208.498691
 42
-0.030570
  0
VERTEX
  8
0
 10
180.536185
 20
209.856800
 42
-0.059294
  0
VERTEX
  8
0
 10
180.938539
 20
210.885160
 42
0.019196
  0
VERTEX
  8
0
 10
181.777367
 20
212.608403
 42
0.566991
  0
VERTEX
  8
0
 10
181.547173
 20
212.932922
 42
0.210366
  0
VERTEX
  8
0
 10
180.892577
 20
212.581711
 42
0.013164
  0
SEQEND
  0
POLYLINE
  8
0
 66
1
 70
1
  0
VERTEX
  8
0
 10
108.919393
 20
211.054756
 42
0.053326
  0
VERTEX
  8
0
 10
85.135204
 20
204.008427
 42
0.059836
  0
VERTEX
  8
0
 10
64.358262
 20
192.274496
 42
0.060649
  0
VERTEX
  8
0
 10
47.175196
 20
176.112704
 42
0.057299
  0
VERTEX
  8
0
 10
33.989582
 20
156.004485
 42
0.057883
  0
VERTEX
  8
0
 10
25.985271
 20
134.095991
 42
0.058787
  0
VERTEX
  8
0
 10
23.271835
 20
111.051893
 42
0.058571
  0
VERTEX
  8
0
 10
25.994771
 20
87.932477
 42
0.056692
  0
VERTEX
  8
0
 10
34.010240
 20
65.802888
 42
0.014454
  0
VERTEX
  8
0
 10
37.709549
 20
58.861978
 42
0.023187
  0
VERTEX
  8
0
 10
41.301374
 20
53.195414
 42
0.022757
  0
VERTEX
  8
0
 10
45.451906
 20
47.812244
 42
0.013288
  0
VERTEX
  8
0
 10
50.879844
 20
41.733508
 42
0.020401
  0
VERTEX
  8
0
 10
57.712943
 20
35.047405
 42
0.024959
  0
VERTEX
  8
0
 10
64.640312
 20
29.401593
 42
0.024976
  0
VERTEX
  8
0
 10
72.091843
 20
24.477170
 42
0.020476
  0
VERTEX
  8
0
 10
80.500000
 20
19.958978
 42
0.020488
  0
VERTEX
  8
0
 10
91.720688
 20
15.066510
 42
0.040576
  0
VERTEX
  8
0
 10
101.022063
 20
12.300060
 42
0.037542
  0
VERTEX
  8
0
 10
111.106377
 20
10.951531
 42
0.015141
  0
VERTEX
  8
0
 10
125.000000
 20
10.567853
 42
0.003965
  0
VERTEX
  8
0
 10
135.501489
 20
10.679189
 42
0.021494
  0
VERTEX
  8
0
 10
141.187287
 20
11.029376
 42
0.031723
  0
VERTEX
  8
0
 10
145.792181
 20
11.809972
 42
0.015855
  0
VERTEX
  8
0
 10
151.500000
 20
13.347039
 42
0.063439
  0
VERTEX
  8
0
 10
177.669202
 20
25.079580
 42
0.070161
  0
VERTEX
  8
0
 10
199.076923
 20
42.685913
 42
0.070272
  0
VERTEX
  8
0
 10
214.755688
 20
65.499459
 42
0.063940
  0
VERTEX
  8
0
 10
224.128009
 20
92.500000
 42
0.039434
  0
VERTEX
  8
0
 10
225.070072
 20
99.844534
 42
0.012187
  0
VERTEX
  8
0
 10
225.342006
 20
111.000000
 42
0.012187
  0
VERTEX
  8
0
 10
225.070072
 20
122.155466
 42
0.039434
  0
VERTEX
  8
0
 10
224.128009
 20
129.500000
 42
0.065402
  0
VERTEX
  8
0
 10
214.590347
 20
156.720742
 42
0.070367
  0
VERTEX
  8
0
 10
198.514335
 20
179.813572
 42
0.070801
  0
VERTEX
  8
0
 10
176.761712
 20
197.432580
 42
0.067481
  0
VERTEX
  8
0
 10
150.607545
 20
208.634586
 42
0.015933
  0
VERTEX
  8
0
 10
145.382538
 20
209.902424
 42
0.020441
  0
VERTEX
  8
0
 10
140.503249
 20
210.716431
 42
0.017160
  0
VERTEX
  8
0
 10
134.949918
 20
211.218217
 42
0.007335
  0
VERTEX
  8
0
 10
127.500000
 20
211.524778
 42
0.006195
  0
VERTEX
  8
0
 10
121.804203
 20
211.604908
 42
0.006742
  0
VERTEX
  8
0
 10
116.266947
 20
211.539531
 42
0.006371
  0
VERTEX
  8
0
 10
111.530146
 20
211.359294
 42
0.032686
  0
SEQEND
  0
POLYLINE
  8
0
 66
1
 70
1
  0
VERTEX
  8
0
 10
138.549466
 20
209.929837
 42
-0.011205
  0
VERTEX
  8
0
 10
141.977540
 20
209.374475
 42
-0.007187
  0
VERTEX
  8
0
 10
145.930510
 20
208.583902
 42
-0.007222
  0
VERTEX
  8
0
 10
149.780792
 20
207.697774
 42
-0.013411
  0
VERTEX
  8
0
 10
152.871825
 20
206.850713
 42
-0.018098
  0
VERTEX
  8
0
 10
158.797542
 20
204.817798
 42
-0.010916
  0
VERTEX
  8
0
 10
165.671163
 20
202.004355
 42
-0.003645
  0
VERTEX
  8
0
 10
172.405240
 20
199.016240
 42
-0.294572
  0
VERTEX
  8
0
 10
173.000000
 20
198.094308
 42
-0.195552
  0
VERTEX
  8
0
 10
172.828918
 20
197.673602
 42
-0.000211
  0
VERTEX
  8
0
 10
165.866974
 20
190.535197
 42
-0.001925
  0
VERTEX
  8
0
 10
158.027433
 20
182.565356
 42
-0.001176
  0
VERTEX
  8
0
 10
148.717357
 20
173.217221
 42
0.000000
  0
VERTEX
  8
0
 10
124.434715
 20
148.949751
 42
0.000000
  0
VERTEX
  8
0
 10
100.210725
 20
172.724875
 42
-0.002181
  0
VERTEX
  8
0
 10
90.924496
 20
181.918912
 42
-0.003516
  0
VERTEX
  8
0
 10
83.104480
 20
189.839758
 42
-0.000692
  0
VERTEX
  8
0
 10
76.292342
 20
196.856863
 42
-0.196267
  0
VERTEX
  8
0
 10
75.993367
 20
197.601962
 42
-0.283095
  0
VERTEX
  8
0
 10
76.810073
 20
198.911103
 42
-0.008489
  0
VERTEX
  8
0
 10
82.876266
 20
201.798852
 42
-0.016312
  0
VERTEX
  8
0
 10
89.720434
 20
204.649850
 42
-0.018139
  0
VERTEX
  8
0
 10
96.500000
 20
206.940283
 42
-0.028488
  0
VERTEX
  8
0
 10
106.570047
 20
209.325433
 42
-0.026164
  0
VERTEX
  8
0
 10
117.136413
 20
210.634837
 42
-0.025891
  0
VERTEX
  8
0
 10
127.897384
 20
210.841547
 42
-0.026416
  0
SEQEND
  0
POLYLINE
  8
0
 66
1
 70
1
  0
VERTEX
  8
0
 10
107.087807
 20
158.912410
 42
0.012767
  0
VERTEX
  8
0
 10
106.294204
 20
157.532574
 42
0.015844
  0
VERTEX
  8
0
 10
105.630458
 20
156.208645
 42
0.014204
  0
VERTEX
  8
0
 10
105.145675
 20
155.076675
 42
0.104544
  0
VERTEX
  8
0
 10
105.047934
 20
154.500000
 42
0.628810
  0
VERTEX
  8
0
 10
105.223698
 20
154.424089
 42
0.055619
  0
VERTEX
  8
0
 10
105.658043
 20
154.895312
 42
0.025875
  0
VERTEX
  8
0
 10
106.304130
 20
155.877518
 42
0.011091
  0
VERTEX
  8
0
 10
107.068086
 20
157.250000
 42
-0.014699
  0
VERTEX
  8
0
 10
107.881417
 20
158.686699
 42
-0.021394
  0
VERTEX
  8
0
 10
108.688025
 20
159.898438
 42
-0.017834
  0
VERTEX
  8
0
 10
109.409883
 20
160.817575
 42
-0.220833
  0
VERTEX
  8
0
 10
109.802778
 20
161.000000
 42
-0.181474
  0
VERTEX
  8
0
 10
110.284940
 20
160.819041
 42
-0.003918
  0
VERTEX
  8
0
 10
112.200197
 20
159.119080
 42
-0.008474
  0
VERTEX
  8
0
 10
114.417204
 20
157.050830
 42
-0.005554
  0
VERTEX
  8
0
 10
116.903992
 20
154.596869
 42
0.000000
  0
VERTEX
  8
0
 10
123.250207
 20
148.193738
 42
0.000000
  0
VERTEX
  8
0
 10
117.375104
 20
147.033532
 42
0.003594
  0
VERTEX
  8
0
 10
115.052029
 20
146.557398
 42
0.004677
  0
VERTEX
  8
0
 10
112.932062
 20
146.086224
 42
0.003525
  0
VERTEX
  8
0
 10
111.164514
 20
145.662838
 42
0.042157
  0
VERTEX
  8
0
 10
110.500000
 20
145.437881
 42
0.852008
  0
VERTEX
  8
0
 10
110.566587
 20
145.178411
 42
0.007831
  0
VERTEX
  8
0
 10
114.420242
 20
145.593844
 42
0.007207
  0
VERTEX
  8
0
 10
118.725083
 20
146.189350
 42
0.045228
  0
VERTEX
  8
0
 10
120.877849
 20
146.721346
 42
-0.695665
  0
VERTEX
  8
0
 10
121.066993
 20
146.491162
 42
-0.033500
  0
VERTEX
  8
0
 10
120.270189
 20
145.313279
 42
-0.018914
  0
VERTEX
  8
0
 10
118.712323
 20
143.462061
 42
-0.008449
  0
VERTEX
  8
0
 10
116.531303
 20
141.140901
 42
-0.005921
  0
VERTEX
  8
0
 10
114.189061
 20
138.787495
 42
-0.008997
  0
VERTEX
  8
0
 10
112.093421
 20
136.803890
 42
-0.004354
  0
VERTEX
  8
0
 10
110.284690
 20
135.181178
 42
-0.182624
  0
VERTEX
  8
0
 10
109.805193
 20
135.000000
 42
-0.220637
  0
VERTEX
  8
0
 10
109.411203
 20
135.182754
 42
-0.017916
  0
VERTEX
  8
0
 10
108.688735
 20
136.101562
 42
-0.021453
  0
VERTEX
  8
0
 10
107.881592
 20
137.313305
 42
-0.014746
  0
VERTEX
  8
0
 10
107.068086
 20
138.750000
 42
0.011091
  0
VERTEX
  8
0
 10
106.304130
 20
140.122482
 42
0.025875
  0
VERTEX
  8
0
 10
105.658043
 20
141.104688
 42
0.055619
  0
VERTEX
  8
0
 10
105.223698
 20
141.575911
 42
0.628810
  0
VERTEX
  8
0
 10
105.047934
 20
141.500000
 42
0.103973
  0
VERTEX
  8
0
 10
105.144714
 20
140.925051
 42
0.014427
  0
VERTEX
  8
0
 10
105.621592
 20
139.805933
 42
0.016006
  0
VERTEX
  8
0
 10
106.275589
 20
138.498048
 42
0.012951
  0
VERTEX
  8
0
 10
107.057625
 20
137.137220
 42
-0.015944
  0
VERTEX
  8
0
 10
107.807982
 20
135.813239
 42
-0.024538
  0
VERTEX
  8
0
 10
108.362382
 20
134.619096
 42
-0.021529
  0
VERTEX
  8
0
 10
108.709378
 20
133.646007
 42
-0.278073
  0
VERTEX
  8
0
 10
108.620418
 20
133.287085
 42
-0.312296
  0
VERTEX
  8
0
 10
107.731670
 20
133.125359
 42
-0.100436
  0
VERTEX
  8
0
 10
106.585939
 20
133.953030
 42
-0.056098
  0
VERTEX
  8
0
 10
105.274799
 20
135.740313
 42
-0.024230
  0
VERTEX
  8
0
 10
103.929368
 20
138.373371
 42
0.000000
  0
VERTEX
  8
0
 10
102.066990
 20
142.500000
 42
0.000000
  0
VERTEX
  8
0
 10
105.783495
 20
143.673148
 42
0.008491
  0
VERTEX
  8
0
 10
107.439174
 20
144.226865
 42
0.087024
  0
VERTEX
  8
0
 10
108.066039
 20
144.580254
 42
0.604360
  0
VERTEX
  8
0
 10
108.018630
 20
144.810132
 42
0.061361
  0
VERTEX
  8
0
 10
107.307498
 20
144.923148
 42
-0.087267
  0
VERTEX
  8
0
 10
106.161631
 20
145.166340
 42
-0.164125
  0
VERTEX
  8
0
 10
105.451180
 20
145.775233
 42
-0.094282
  0
VERTEX
  8
0
 10
105.021025
 20
146.957813
 42
-0.017759
  0
VERTEX
  8
0
 10
104.732205
 20
149.250000
 42
0.000000
  0
VERTEX
  8
0
 10
104.349414
 20
153.500000
 42
0.000000
  0
VERTEX
  8
0
 10
104.174707
 20
148.952212
 42
0.000000
  0
VERTEX
  8
0
 10
104.000000
 20
144.404423
 42
0.000000
  0
VERTEX
  8
0
 10
86.409470
 20
140.982388
 42
0.002845
  0
VERTEX
  8
0
 10
79.735259
 20
139.644543
 42
0.005158
  0
VERTEX
  8
0
 10
74.294023
 20
138.462955
 42
0.002180
  0
VERTEX
  8
0
 10
69.876982
 20
137.435665
 42
0.755077
  0
VERTEX
  8
0
 10
69.866991
 20
137.211003
 42
0.125765
  0
VERTEX
  8
0
 10
71.159038
 20
137.118420
 42
0.000735
  0
VERTEX
  8
0
 10
83.093282
 20
139.291973
 42
0.002795
  0
VERTEX
  8
0
 10
93.993566
 20
141.356822
 42
0.021234
  0
VERTEX
  8
0
 10
99.076725
 20
142.575270
 42
-0.218673
  0
VERTEX
  8
0
 10
99.972831
 20
142.437231
 42
-0.071197
  0
VERTEX
  8
0
 10
100.999346
 20
141.526752
 42
-0.042858
  0
VERTEX
  8
0
 10
102.206178
 20
139.827016
 42
-0.013898
  0
VERTEX
  8
0
 10
103.696251
 20
137.124912
 42
0.000000
  0
VERTEX
  8
0
 10
106.739052
 20
131.225039
 42
0.000000
  0
VERTEX
  8
0
 10
80.619526
 20
105.258174
 42
0.000000
  0
VERTEX
  8
0
 10
54.500000
 20
79.291309
 42
0.000000
  0
VERTEX
  8
0
 10
49.418325
 20
82.422112
 42
0.000000
  0
VERTEX
  8
0
 10
44.336650
 20
85.552916
 42
0.000000
  0
VERTEX
  8
0
 10
49.156376
 20
103.526458
 42
0.002530
  0
VERTEX
  8
0
 10
50.983309
 20
110.479824
 42
0.003962
  0
VERTEX
  8
0
 10
52.476990
 20
116.480753
 42
0.001155
  0
VERTEX
  8
0
 10
53.719352
 20
121.699261
 42
0.136076
  0
VERTEX
  8
0
 10
53.692470
 20
122.386743
 42
0.740525
  0
VERTEX
  8
0
 10
53.479626
 20
122.383849
 42
0.000633
  0
VERTEX
  8
0
 10
51.352173
 20
115.016312
 42
0.002916
  0
VERTEX
  8
0
 10
48.938347
 20
106.428773
 42
0.001675
  0
VERTEX
  8
0
 10
46.123795
 20
96.050701
 42
0.001904
  0
VERTEX
  8
0
 10
43.364338
 20
85.579631
 42
0.003119
  0
VERTEX
  8
0
 10
41.116189
 20
76.687153
 42
0.000453
  0
VERTEX
  8
0
 10
39.182735
 20
68.802831
 42
0.262003
  0
VERTEX
  8
0
 10
39.306686
 20
68.359981
 42
0.527306
  0
VERTEX
  8
0
 10
39.546130
 20
68.404817
 42
0.015993
  0
VERTEX
  8
0
 10
39.993316
 20
69.514108
 42
0.018735
  0
VERTEX
  8
0
 10
40.488506
 20
71.040265
 42
0.010210
  0
VERTEX
  8
0
 10
40.987051
 20
72.946023
 42
-0.007885
  0
VERTEX
  8
0
 10
41.484279
 20
74.883487
 42
-0.012697
  0
VERTEX
  8
0
 10
41.975494
 20
76.515394
 42
-0.006436
  0
VERTEX
  8
0
 10
42.432683
 20
77.847355
 42
-0.316825
  0
VERTEX
  8
0
 10
42.649401
 20
78.000000
 42
-0.121752
  0
VERTEX
  8
0
 10
43.833629
 20
77.707298
 42
-0.013935
  0
VERTEX
  8
0
 10
46.247886
 20
76.348957
 42
-0.009888
  0
VERTEX
  8
0
 10
48.646179
 20
74.844899
 42
-0.252916
  0
VERTEX
  8
0
 10
49.000000
 20
74.190160
 42
-0.178091
  0
VERTEX
  8
0
 10
48.824936
 20
73.714246
 42
-0.005224
  0
VERTEX
  8
0
 10
47.399098
 20
72.073467
 42
-0.009871
  0
VERTEX
  8
0
 10
45.638566
 20
70.166957
 42
-0.006574
  0
VERTEX
  8
0
 10
43.550120
 20
68.049498
 42
-0.004980
  0
VERTEX
  8
0
 10
40.540578
 20
65.135980
 42
-0.055397
  0
VERTEX
  8
0
 10
39.210464
 20
64.127868
 42
-0.430109
  0
VERTEX
  8
0
 10
38.696155
 20
64.272709
 42
-0.171460
  0
VERTEX
  8
0
 10
38.578328
 20
65.083658
 42
0.000000
  0
VERTEX
  8
0
 10
39.056416
 20
67.500000
 42
0.000000
  0
VERTEX
  8
0
 10
37.905101
 20
65.000000
 42
-0.075455
  0
VERTEX
  8
0
 10
37.127691
 20
63.819091
 42
-0.430834
  0
VERTEX
  8
0
 10
36.457176
 20
63.802748
 42
-0.081433
  0
VERTEX
  8
0
 10
35.621539
 20
64.975600
 42
-0.003587
  0
VERTEX
  8
0
 10
33.439503
 20
69.500000
 42
-0.024055
  0
VERTEX
  8
0
 10
30.526233
 20
76.505519
 42
-0.019790
  0
VERTEX
  8
0
 10
28.083251
 20
84.226982
 42
-0.019173
  0
VERTEX
  8
0
 10
26.184667
 20
92.390472
 42
-0.018838
  0
VERTEX
  8
0
 10
24.904004
 20
100.723371
 42
-0.023923
  0
VERTEX
  8
0
 10
24.424454
 20
107.871697
 42
-0.015077
  0
VERTEX
  8
0
 10
24.516530
 20
116.238992
 42
-0.010863
  0
VERTEX
  8
0
 10
25.005962
 20
124.012268
 42
-0.117783
  0
VERTEX
  8
0
 10
25.985060
 20
126.975827
 42
-0.200396
  0
VERTEX
  8
0
 10
27.444426
 20
128.021363
 42
-0.001813
  0
VERTEX
  8
0
 10
40.823010
 20
131.048085
 42
-0.001550
  0
VERTEX
  8
0
 10
54.330975
 20
134.008720
 42
-0.254826
  0
VERTEX
  8
0
 10
55.739312
 20
133.594021
 42
-0.226017
  0
VERTEX
  8
0
 10
55.854448
 20
133.269398
 42
-0.012630
  0
VERTEX
  8
0
 10
55.712863
 20
132.177838
 42
-0.017438
  0
VERTEX
  8
0
 10
55.457957
 20
130.846096
 42
-0.011715
  0
VERTEX
  8
0
 10
55.078472
 20
129.343771
 42
0.003009
  0
VERTEX
  8
0
 10
53.919345
 20
125.069753
 42
0.373048
  0
VERTEX
  8
0
 10
54.147356
 20
124.604054
 42
0.440759
  0
VERTEX
  8
0
 10
54.568124
 20
124.796470
 42
0.003052
  0
VERTEX
  8
0
 10
55.893173
 20
128.997997
 42
-0.015114
  0
VERTEX
  8
0
 10
56.931786
 20
132.033972
 42
-0.072422
  0
VERTEX
  8
0
 10
57.813785
 20
133.631565
 42
-0.113145
  0
VERTEX
  8
0
 10
58.911819
 20
134.549752
 42
-0.065053
  0
VERTEX
  8
0
 10
60.545134
 20
135.129682
 42
0.000000
  0
VERTEX
  8
0
 10
63.500000
 20
135.763370
 42
0.000000
  0
VERTEX
  8
0
 10
60.682612
 20
135.881685
 42
-0.028123
  0
VERTEX
  8
0
 10
59.290060
 20
136.018877
 42
-0.132029
  0
VERTEX
  8
0
 10
58.561080
 20
136.341777
 42
-0.210231
  0
VERTEX
  8
0
 10
58.276049
 20
136.893498
 42
-0.086015
  0
VERTEX
  8
0
 10
58.369933
 20
137.750000
 42
0.005841
  0
VERTEX
  8
0
 10
60.511276
 20
145.514308
 42
0.004229
  0
VERTEX
  8
0
 10
62.722287
 20
154.210920
 42
0.000614
  0
VERTEX
  8
0
 10
64.876498
 20
163.041403
 42
0.261596
  0
VERTEX
  8
0
 10
64.714365
 20
163.618968
 42
0.565520
  0
VERTEX
  8
0
 10
64.480415
 20
163.560733
 42
0.001484
  0
VERTEX
  8
0
 10
63.306172
 20
159.689481
 42
0.005648
  0
VERTEX
  8
0
 10
61.995586
 20
155.135904
 42
0.003284
  0
VERTEX
  8
0
 10
60.520177
 20
149.642329
 42
0.000000
  0
VERTEX
  8
0
 10
56.753021
 20
135.238658
 42
0.000000
  0
VERTEX
  8
0
 10
41.626511
 20
132.212245
 42
-0.002325
  0
VERTEX
  8
0
 10
35.803187
 20
131.075283
 42
-0.003777
  0
VERTEX
  8
0
 10
30.845453
 20
130.169985
 42
-0.000696
  0
VERTEX
  8
0
 10
26.479026
 20
129.412965
 42
-0.239714
  0
VERTEX
  8
0
 10
26.166521
 20
129.509728
 42
-0.283071
  0
VERTEX
  8
0
 10
25.805813
 20
130.932663
 42
-0.004313
  0
VERTEX
  8
0
 10
28.529315
 20
139.374816
 42
-0.011829
  0
VERTEX
  8
0
 10
31.541827
 20
147.774713
 42
-0.021149
  0
VERTEX
  8
0
 10
34.467212
 20
154.500000
 42
-0.030220
  0
VERTEX
  8
0
 10
40.267536
 20
164.796765
 42
-0.029955
  0
VERTEX
  8
0
 10
47.282411
 20
174.351008
 42
-0.029488
  0
VERTEX
  8
0
 10
55.501500
 20
183.135220
 42
-0.027331
  0
VERTEX
  8
0
 10
64.899131
 20
191.131642
 42
-0.008014
  0
VERTEX
  8
0
 10
69.266562
 20
194.345127
 42
-0.052731
  0
VERTEX
  8
0
 10
71.629200
 20
195.675854
 42
-0.342726
  0
VERTEX
  8
0
 10
72.481135
 20
195.455801
 42
-0.261762
  0
VERTEX
  8
0
 10
72.626035
 20
194.467846
 42
0.026063
  0
VERTEX
  8
0
 10
71.606060
 20
191.330110
 42
0.007414
  0
VERTEX
  8
0
 10
70.350451
 20
186.357818
 42
0.002015
  0
VERTEX
  8
0
 10
69.106916
 20
181.010552
 42
0.257970
  0
VERTEX
  8
0
 10
69.289316
 20
180.377350
 42
0.554834
  0
VERTEX
  8
0
 10
69.506918
 20
180.427772
 42
0.003758
  0
VERTEX
  8
0
 10
70.242705
 20
182.629698
 42
0.009019
  0
VERTEX
  8
0
 10
71.067770
 20
185.326130
 42
0.005157
  0
VERTEX
  8
0
 10
71.971224
 20
188.608589
 42
0.000000
  0
VERTEX
  8
0
 10
74.251728
 20
197.241230
 42
0.000000
  0
VERTEX
  8
0
 10
91.709933
 20
179.783025
 42
0.000000
  0
VERTEX
  8
0
 10
109.168138
 20
162.324820
 42
0.000000
  0
SEQEND
  0
POLYLINE
  8
0
 66
1
 70
1
  0
VERTEX
  8
0
 10
176.489976
 20
193.250000
 42
-0.068074
  0
VERTEX
  8
0
 10
176.383164
 20
195.234116
 42
-0.432723
  0
VERTEX
  8
0
 10
177.088493
 20
195.795045
 42
-0.115713
  0
VERTEX
  8
0
 10
178.707603
 20
195.157087
 42
-0.008535
  0
VERTEX
  8
0
 10
182.606198
 20
192.357277
 42
-0.028897
  0
VERTEX
  8
0
 10
190.851702
 20
185.445160
 42
-0.018091
  0
VERTEX
  8
0
 10
199.703248
 20
176.482926
 42
-0.009035
  0
VERTEX
  8
0
 10
207.630228
 20
167.534378
 42
-0.388441
  0
VERTEX
  8
0
 10
207.550607
 20
165.203002
 42
-0.110682
  0
VERTEX
  8
0
 10
207.035140
 20
164.868819
 42
-0.009506
  0
VERTEX
  8
0
 10
205.542291
 20
164.347939
 42
-0.012182
  0
VERTEX
  8
0
 10
203.715502
 20
163.798156
 42
-0.009146
  0
VERTEX
  8
0
 10
201.680939
 20
163.279345
 42
0.000000
  0
VERTEX
  8
0
 10
196.500000
 20
162.058690
 42
0.000000
  0
VERTEX
  8
0
 10
201.000000
 20
162.577162
 42
0.005614
  0
VERTEX
  8
0
 10
202.882964
 20
162.815560
 42
0.005116
  0
VERTEX
  8
0
 10
204.819420
 20
163.103076
 42
0.005123
  0
VERTEX
  8
0
 10
206.544915
 20
163.395500
 42
0.016502
  0
VERTEX
  8
0
 10
207.683131
 20
163.639442
 42
-0.174671
  0
VERTEX
  8
0
 10
209.042353
 20
163.500696
 42
-0.119115
  0
VERTEX
  8
0
 10
210.257175
 20
162.508858
 42
-0.044632
  0
VERTEX
  8
0
 10
211.717071
 20
160.179193
 42
-0.005613
  0
VERTEX
  8
0
 10
214.357303
 20
154.841625
 42
-0.054252
  0
VERTEX
  8
0
 10
221.782860
 20
133.832294
 42
-0.054364
  0
VERTEX
  8
0
 10
224.508642
 20
111.732277
 42
-0.055130
  0
VERTEX
  8
0
 10
222.400825
 20
89.854793
 42
-0.059069
  0
VERTEX
  8
0
 10
215.560497
 20
69.500000
 42
-0.003587
  0
VERTEX
  8
0
 10
213.378461
 20
64.975600
 42
-0.081433
  0
VERTEX
  8
0
 10
212.542824
 20
63.802748
 42
-0.430834
  0
VERTEX
  8
0
 10
211.872309
 20
63.819091
 42
-0.075455
  0
VERTEX
  8
0
 10
211.094899
 20
65.000000
 42
0.000000
  0
VERTEX
  8
0
 10
209.943584
 20
67.500000
 42
0.000000
  0
VERTEX
  8
0
 10
210.421672
 20
65.083658
 42
-0.171460
  0
VERTEX
  8
0
 10
210.303845
 20
64.272709
 42
-0.430109
  0
VERTEX
  8
0
 10
209.789536
 20
64.127868
 42
-0.055397
  0
VERTEX
  8
0
 10
208.459422
 20
65.135980
 42
-0.004980
  0
VERTEX
  8
0
 10
205.449880
 20
68.049498
 42
-0.006574
  0
VERTEX
  8
0
 10
203.361434
 20
70.166957
 42
-0.009871
  0
VERTEX
  8
0
 10
201.600902
 20
72.073467
 42
-0.005224
  0
VERTEX
  8
0
 10
200.175064
 20
73.714246
 42
-0.178091
  0
VERTEX
  8
0
 10
200.000000
 20
74.190160
 42
-0.252916
  0
VERTEX
  8
0
 10
200.353821
 20
74.844899
 42
-0.009888
  0
VERTEX
  8
0
 10
202.752114
 20
76.348957
 42
-0.013935
  0
VERTEX
  8
0
 10
205.166371
 20
77.707298
 42
-0.121752
  0
VERTEX
  8
0
 10
206.350599
 20
78.000000
 42
-0.316825
  0
VERTEX
  8
0
 10
206.567317
 20
77.847355
 42
-0.006436
  0
VERTEX
  8
0
 10
207.024506
 20
76.515394
 42
-0.012697
  0
VERTEX
  8
0
 10
207.515721
 20
74.883487
 42
-0.007885
  0
VERTEX
  8
0
 10
208.012949
 20
72.946023
 42
0.009800
  0
VERTEX
  8
0
 10
208.510160
 20
71.038983
 42
0.017920
  0
VERTEX
  8
0
 10
209.001191
 20
69.508615
 42
0.014677
  0
VERTEX
  8
0
 10
209.444083
 20
68.385665
 42
0.530557
  0
VERTEX
  8
0
 10
209.674617
 20
68.341284
 42
0.253896
  0
VERTEX
  8
0
 10
209.795988
 20
68.750821
 42
0.001993
  0
VERTEX
  8
0
 10
209.045831
 20
72.216665
 42
0.006580
  0
VERTEX
  8
0
 10
208.105478
 20
76.227383
 42
0.004104
  0
VERTEX
  8
0
 10
206.903226
 20
80.903226
 42
0.003793
  0
VERTEX
  8
0
 10
205.638322
 20
85.519212
 42
0.006551
  0
VERTEX
  8
0
 10
204.506987
 20
89.336154
 42
0.001990
  0
VERTEX
  8
0
 10
203.495437
 20
92.546636
 42
0.561653
  0
VERTEX
  8
0
 10
203.268403
 20
92.601736
 42
0.216854
  0
VERTEX
  8
0
 10
203.148503
 20
92.281550
 42
0.016017
  0
VERTEX
  8
0
 10
203.245071
 20
91.326979
 42
0.019965
  0
VERTEX
  8
0
 10
203.449607
 20
90.154956
 42
0.013700
  0
VERTEX
  8
0
 10
203.770611
 20
88.843771
 42
-0.040012
  0
VERTEX
  8
0
 10
204.170137
 20
86.738149
 42
-0.176445
  0
VERTEX
  8
0
 10
203.872589
 20
85.531471
 42
-0.102413
  0
VERTEX
  8
0
 10
202.765420
 20
84.445733
 42
-0.009217
  0
VERTEX
  8
0
 10
199.442457
 20
82.394302
 42
0.000000
  0
VERTEX
  8
0
 10
194.197901
 20
79.288604
 42
0.000000
  0
VERTEX
  8
0
 10
167.016099
 20
106.483893
 42
0.000000
  0
VERTEX
  8
0
 10
139.834296
 20
133.679182
 42
0.000000
  0
VERTEX
  8
0
 10
141.913410
 20
137.089591
 42
0.012775
  0
VERTEX
  8
0
 10
142.706547
 20
138.468661
 42
0.015850
  0
VERTEX
  8
0
 10
143.369900
 20
139.791942
 42
0.014213
  0
VERTEX
  8
0
 10
143.854363
 20
140.923394
 42
0.104521
  0
VERTEX
  8
0
 10
143.952066
 20
141.500000
 42
0.633460
  0
VERTEX
  8
0
 10
143.775584
 20
141.574832
 42
0.053111
  0
VERTEX
  8
0
 10
143.332258
 20
141.085781
 42
0.025286
  0
VERTEX
  8
0
 10
142.675504
 20
140.082730
 42
0.010904
  0
VERTEX
  8
0
 10
141.898894
 20
138.685637
 42
-0.020774
  0
VERTEX
  8
0
 10
141.061524
 20
137.246852
 42
-0.031875
  0
VERTEX
  8
0
 10
140.209548
 20
136.084087
 42
-0.033083
  0
VERTEX
  8
0
 10
139.445446
 20
135.283712
 42
-0.275256
  0
VERTEX
  8
0
 10
138.974292
 20
135.185637
 42
-0.095985
  0
VERTEX
  8
0
 10
138.398585
 20
135.517841
 42
-0.003614
  0
VERTEX
  8
0
 10
136.522168
 20
137.170156
 42
-0.006405
  0
VERTEX
  8
0
 10
134.331684
 20
139.178360
 42
-0.004452
  0
VERTEX
  8
0
 10
131.907158
 20
141.500000
 42
0.000000
  0
VERTEX
  8
0
 10
125.751911
 20
147.500000
 42
0.000000
  0
VERTEX
  8
0
 10
131.125955
 20
148.701186
 42
-0.002963
  0
VERTEX
  8
0
 10
133.453434
 20
149.206952
 42
-0.002266
  0
VERTEX
  8
0
 10
136.004934
 20
149.733517
 42
-0.002291
  0
VERTEX
  8
0
 10
138.398780
 20
150.204844
 42
-0.005406
  0
VERTEX
  8
0
 10
140.188713
 20
150.528730
 42
0.000000
  0
VERTEX
  8
0
 10
143.877426
 20
151.155087
 42
0.000000
  0
VERTEX
  8
0
 10
144.264006
 20
146.827543
 42
0.000000
  0
VERTEX
  8
0
 10
144.650586
 20
142.500000
 42
0.000000
  0
VERTEX
  8
0
 10
144.825293
 20
147.250000
 42
-0.011905
  0
VERTEX
  8
0
 10
145.001032
 20
150.147713
 42
-0.116694
  0
VERTEX
  8
0
 10
145.379924
 20
151.303736
 42
-0.205595
  0
VERTEX
  8
0
 10
146.155380
 20
151.852903
 42
-0.049942
  0
VERTEX
  8
0
 10
147.750000
 20
152.030409
 42
0.007178
  0
VERTEX
  8
0
 10
149.321460
 20
152.070352
 42
0.194880
  0
VERTEX
  8
0
 10
149.692679
 20
152.238226
 42
0.461747
  0
VERTEX
  8
0
 10
149.665308
 20
152.500460
 42
0.018559
  0
VERTEX
  8
0
 10
148.750000
 20
153.080099
 42
-0.050865
  0
VERTEX
  8
0
 10
148.080593
 20
153.567206
 42
-0.049019
  0
VERTEX
  8
0
 10
147.514062
 20
154.185003
 42
-0.053003
  0
VERTEX
  8
0
 10
147.126514
 20
154.834073
 42
-0.108514
  0
VERTEX
  8
0
 10
147.000000
 20
155.410143
 42
0.100694
  0
VERTEX
  8
0
 10
146.851748
 20
156.138829
 42
0.016469
  0
VERTEX
  8
0
 10
146.242534
 20
157.452059
 42
0.017558
  0
VERTEX
  8
0
 10
145.408639
 20
158.969805
 42
0.014680
  0
VERTEX
  8
0
 10
144.421391
 20
160.520699
 42
0.000000
  0
VERTEX
  8
0
 10
141.842782
 20
164.320491
 42
0.000000
  0
VERTEX
  8
0
 10
158.164752
 20
180.664979
 42
0.000000
  0
VERTEX
  8
0
 10
174.486722
 20
197.009467
 42
0.000000
  0
VERTEX
  8
0
 10
175.752389
 20
193.754734
 42
0.001342
  0
VERTEX
  8
0
 10
176.527636
 20
191.776872
 42
0.149714
  0
VERTEX
  8
0
 10
176.701849
 20
191.558534
 42
0.665936
  0
VERTEX
  8
0
 10
176.794292
 20
191.618426
 42
0.002661
  0
SEQEND
  0
POLYLINE
  8
0
 66
1
 70
1
  0
VERTEX
  8
0
 10
143.412088
 20
160.493827
 42
-0.015166
  0
VERTEX
  8
0
 10
144.108159
 20
159.357768
 42
-0.009972
  0
VERTEX
  8
0
 10
144.842686
 20
158.011429
 42
-0.010036
  0
VERTEX
  8
0
 10
145.505716
 20
156.671245
 42
-0.019010
  0
VERTEX
  8
0
 10
145.976268
 20
155.562419
 42
-0.079946
  0
VERTEX
  8
0
 10
146.275967
 20
154.112056
 42
-0.260867
  0
VERTEX
  8
0
 10
145.850924
 20
153.267246
 42
-0.088626
  0
VERTEX
  8
0
 10
144.465517
 20
152.652704
 42
-0.005860
  0
VERTEX
  8
0
 10
140.199170
 20
151.658299
 42
-0.001037
  0
VERTEX
  8
0
 10
137.377681
 20
151.041573
 42
-0.000921
  0
VERTEX
  8
0
 10
134.439756
 20
150.411445
 42
-0.000924
  0
VERTEX
  8
0
 10
131.793734
 20
149.854134
 42
-0.002843
  0
VERTEX
  8
0
 10
130.000000
 20
149.490425
 42
0.000000
  0
VERTEX
  8
0
 10
126.500000
 20
148.801438
 42
0.000000
  0
VERTEX
  8
0
 10
132.468697
 20
154.900719
 42
-0.005294
  0
VERTEX
  8
0
 10
134.805191
 20
157.238299
 42
-0.008119
  0
VERTEX
  8
0
 10
136.882899
 20
159.208336
 42
-0.003589
  0
VERTEX
  8
0
 10
138.680790
 20
160.834831
 42
-0.184091
  0
VERTEX
  8
0
 10
139.114194
 20
161.000000
 42
-0.239203
  0
VERTEX
  8
0
 10
139.471436
 20
160.818720
 42
-0.013071
  0
VERTEX
  8
0
 10
140.210150
 20
159.751563
 42
-0.017978
  0
VERTEX
  8
0
 10
141.039514
 20
158.378575
 42
-0.011954
  0
VERTEX
  8
0
 10
141.894709
 20
156.750000
 42
0.012947
  0
VERTEX
  8
0
 10
142.704636
 20
155.215043
 42
0.035247
  0
VERTEX
  8
0
 10
143.379590
 20
154.189063
 42
0.123987
  0
VERTEX
  8
0
 10
143.786935
 20
153.865191
 42
0.545582
  0
VERTEX
  8
0
 10
143.995473
 20
154.000000
 42
0.079371
  0
VERTEX
  8
0
 10
143.868090
 20
154.787459
 42
0.019449
  0
VERTEX
  8
0
 10
143.406988
 20
156.021162
 42
0.019433
  0
VERTEX
  8
0
 10
142.760606
 20
157.410606
 42
0.018310
  0
VERTEX
  8
0
 10
141.996262
 20
158.774170
 42
-0.006438
  0
VERTEX
  8
0
 10
140.564910
 20
161.191276
 42
-0.066252
  0
VERTEX
  8
0
 10
140.125340
 20
162.262290
 42
-0.285007
  0
VERTEX
  8
0
 10
140.282645
 20
162.774182
 42
-0.181289
  0
VERTEX
  8
0
 10
140.884990
 20
163.000000
 42
-0.166816
  0
VERTEX
  8
0
 10
141.327953
 20
162.847984
 42
-0.030026
  0
VERTEX
  8
0
 10
141.992384
 20
162.263812
 42
-0.029481
  0
VERTEX
  8
0
 10
142.718518
 20
161.453410
 42
-0.022911
  0
SEQEND
  0
POLYLINE
  8
0
 66
1
 70
1
  0
VERTEX
  8
0
 10
206.491439
 20
53.435799
 42
-0.050082
  0
VERTEX
  8
0
 10
193.047821
 20
38.103760
 42
-0.049978
  0
VERTEX
  8
0
 10
176.815380
 20
25.738777
 42
-0.050187
  0
VERTEX
  8
0
 10
158.519750
 20
16.882621
 42
-0.051379
  0
VERTEX
  8
0
 10
138.969433
 20
11.935203
 42
-0.030897
  0
VERTEX
  8
0
 10
129.978310
 20
11.183450
 42
-0.017749
  0
VERTEX
  8
0
 10
119.099587
 20
11.334140
 42
-0.017772
  0
VERTEX
  8
0
 10
108.364385
 20
12.247590
 42
-0.033811
  0
VERTEX
  8
0
 10
99.853583
 20
13.866926
 42
-0.044346
  0
VERTEX
  8
0
 10
83.278709
 20
19.809464
 42
-0.042650
  0
VERTEX
  8
0
 10
67.780517
 20
28.644776
 42
-0.042664
  0
VERTEX
  8
0
 10
54.010689
 20
39.978505
 42
-0.044438
  0
VERTEX
  8
0
 10
42.569613
 20
53.342164
 42
0.000000
  0
VERTEX
  8
0
 10
37.692911
 20
60.184327
 42
0.000000
  0
VERTEX
  8
0
 10
81.093586
 20
103.593605
 42
0.000000
  0
VERTEX
  8
0
 10
124.494261
 20
147.002882
 42
0.000000
  0
VERTEX
  8
0
 10
167.901867
 20
103.595276
 42
0.000000
  0
VERTEX
  8
0
 10
211.309474
 20
60.187669
 42
0.000000
  0
SEQEND
  0
POLYLINE
  8
0
 66
1
 70
1
  0
VERTEX
  8
0
 10
50.674522
 20
80.727543
 42
-0.023005
  0
VERTEX
  8
0
 10
51.855307
 20
79.840920
 42
-0.036227
  0
VERTEX
  8
0
 10
52.771638
 20
78.965644
 42
-0.040917
  0
VERTEX
  8
0
 10
53.351657
 20
78.209121
 42
-0.289147
  0
VERTEX
  8
0
 10
53.355802
 20
77.766682
 42
-0.388967
  0
VERTEX
  8
0
 10
52.366296
 20
77.487170
 42
-0.014941
  0
VERTEX
  8
0
 10
48.718691
 20
79.463286
 42
-0.018831
  0
VERTEX
  8
0
 10
45.217141
 20
81.678289
 42
-0.163267
  0
VERTEX
  8
0
 10
44.122821
 20
83.131536
 42
-0.458826
  0
VERTEX
  8
0
 10
44.458128
 20
83.692706
 42
-0.131638
  0
VERTEX
  8
0
 10
45.611945
 20
83.588695
 42
-0.045238
  0
VERTEX
  8
0
 10
47.787113
 20
82.559115
 42
-0.016391
  0
SEQEND
  0
POLYLINE
  8
0
 66
1
 70
1
  0
VERTEX
  8
0
 10
204.824062
 20
82.972186
 42
-0.168437
  0
VERTEX
  8
0
 10
203.707197
 20
81.519651
 42
-0.020617
  0
VERTEX
  8
0
 10
200.216047
 20
79.425371
 42
-0.016892
  0
VERTEX
  8
0
 10
196.589020
 20
77.604255
 42
-0.378906
  0
VERTEX
  8
0
 10
195.551193
 20
77.917168
 42
-0.312654
  0
VERTEX
  8
0
 10
195.578569
 20
78.438390
 42
-0.037824
  0
VERTEX
  8
0
 10
196.390742
 20
79.338411
 42
-0.034167
  0
VERTEX
  8
0
 10
197.639153
 20
80.374539
 42
-0.021130
  0
VERTEX
  8
0
 10
199.232473
 20
81.423408
 42
-0.010029
  0
VERTEX
  8
0
 10
202.247872
 20
83.149399
 42
-0.057465
  0
VERTEX
  8
0
 10
203.952854
 20
83.840320
 42
-0.267371
  0
VERTEX
  8
0
 10
204.658217
 20
83.658475
 42
-0.286937
  0
SEQEND
  0
POLYLINE
  8
0
 66
1
 70
1
  0
VERTEX
  8
0
 10
47.750000
 20
79.010960
 42
-0.038017
  0
VERTEX
  8
0
 10
49.532428
 20
77.728954
 42
-0.065250
  0
VERTEX
  8
0
 10
50.765940
 20
76.380623
 42
-0.167223
  0
VERTEX
  8
0
 10
51.032468
 20
75.451159
 42
-0.399029
  0
VERTEX
  8
0
 10
50.557160
 20
75.000000
 42
-0.138140
  0
VERTEX
  8
0
 10
49.288457
 20
75.357337
 42
-0.011114
  0
VERTEX
  8
0
 10
46.339386
 20
77.253066
 42
-0.008330
  0
VERTEX
  8
0
 10
43.405406
 20
79.304554
 42
-0.240464
  0
VERTEX
  8
0
 10
43.000000
 20
80.098776
 42
-0.236702
  0
VERTEX
  8
0
 10
43.318096
 20
80.733064
 42
-0.220008
  0
VERTEX
  8
0
 10
44.033053
 20
80.883945
 42
-0.068410
  0
VERTEX
  8
0
 10
45.394746
 20
80.368694
 42
-0.012296
  0
SEQEND
  0
POLYLINE
  8
0
 66
1
 70
1
  0
VERTEX
  8
0
 10
206.000000
 20
80.098776
 42
-0.240464
  0
VERTEX
  8
0
 10
205.594594
 20
79.304554
 42
-0.008330
  0
VERTEX
  8
0
 10
202.660614
 20
77.253066
 42
-0.011114
  0
VERTEX
  8
0
 10
199.711543
 20
75.357337
 42
-0.138140
  0
VERTEX
  8
0
 10
198.442840
 20
75.000000
 42
-0.399029
  0
VERTEX
  8
0
 10
197.967532
 20
75.451159
 42
-0.167223
  0
VERTEX
  8
0
 10
198.234060
 20
76.380623
 42
-0.065250
  0
VERTEX
  8
0
 10
199.467572
 20
77.728954
 42
-0.038017
  0
VERTEX
  8
0
 10
201.250000
 20
79.010960
 42
-0.012296
  0
VERTEX
  8
0
 10
203.605254
 20
80.368694
 42
-0.068410
  0
VERTEX
  8
0
 10
204.966947
 20
80.883945
 42
-0.220008
  0
VERTEX
  8
0
 10
205.681904
 20
80.733064
 42
-0.236702
  0
SEQEND
  0
POLYLINE
  8
0
 66
1
 70
1
  0
VERTEX
  8
0
 10
63.500000
 20
205.000000
 42
0.082592
  0
VERTEX
  8
0
 10
63.343488
 20
204.617900
 42
0.161196
  0
VERTEX
  8
0
 10
63.374600
 20
204.293750
 42
0.182303
  0
VERTEX
  8
0
 10
63.586039
 20
204.078288
 42
0.108972
  0
VERTEX
  8
0
 10
63.940983
 20
204.000000
 42
0.093332
  0
VERTEX
  8
0
 10
64.345238
 20
204.076123
 42
0.096420
  0
VERTEX
  8
0
 10
64.688914
 20
204.293750
 42
0.099167
  0
VERTEX
  8
0
 10
64.918938
 20
204.618444
 42
0.105053
  0
VERTEX
  8
0
 10
65.000000
 20
205.000000
 42
0.042167
  0
VERTEX
  8
0
 10
64.967655
 20
205.382849
 42
0.061769
  0
VERTEX
  8
0
 10
64.870461
 20
205.706250
 42
0.081139
  0
VERTEX
  8
0
 10
64.727648
 20
205.925540
 42
0.210953
  0
VERTEX
  8
0
 10
64.559017
 20
206.000000
 42
0.151918
  0
VERTEX
  8
0
 10
64.348290
 20
205.934461
 42
0.038439
  0
VERTEX
  8
0
 10
64.066025
 20
205.706250
 42
0.035638
  0
VERTEX
  8
0
 10
63.768994
 20
205.382774
 42
0.029505
  0
SEQEND
  0
POLYLINE
  8
0
 66
1
 70
1
  0
VERTEX
  8
0
 10
218.072580
 20
173.365141
 42
0.028649
  0
VERTEX
  8
0
 10
217.279355
 20
172.228356
 42
0.027448
  0
VERTEX
  8
0
 10
216.608820
 20
170.992355
 42
0.028540
  0
VERTEX
  8
0
 10
216.140668
 20
169.837464
 42
0.082199
  0
VERTEX
  8
0
 10
216.000000
 20
168.987586
 42
0.125851
  0
VERTEX
  8
0
 10
216.374702
 20
167.522497
 42
0.073362
  0
VERTEX
  8
0
 10
217.474860
 20
166.066971
 42
0.088413
  0
VERTEX
  8
0
 10
218.758567
 20
165.187358
 42
0.312013
  0
VERTEX
  8
0
 10
219.690833
 20
165.357499
 42
0.117684
  0
VERTEX
  8
0
 10
219.840858
 20
165.601589
 42
0.255643
  0
VERTEX
  8
0
 10
219.801890
 20
165.811265
 42
0.167549
  0
VERTEX
  8
0
 10
219.569834
 20
165.954971
 42
0.055671
  0
VERTEX
  8
0
 10
219.166667
 20
166.000000
 42
-0.359127
  0
VERTEX
  8
0
 10
218.208191
 20
166.790365
 42
-0.062922
  0
VERTEX
  8
0
 10
218.042107
 20
169.303600
 42
-0.056080
  0
VERTEX
  8
0
 10
218.540529
 20
172.177328
 42
-0.113430
  0
VERTEX
  8
0
 10
219.654988
 20
174.171259
 42
0.016504
  0
VERTEX
  8
0
 10
220.249659
 20
174.873623
 42
0.034791
  0
VERTEX
  8
0
 10
220.652740
 20
175.462807
 42
0.059659
  0
VERTEX
  8
0
 10
220.828076
 20
175.864825
 42
0.502596
  0
VERTEX
  8
0
 10
220.727568
 20
176.000000
 42
0.183171
  0
VERTEX
  8
0
 10
220.401019
 20
175.876218
 42
0.014237
  0
VERTEX
  8
0
 10
219.707422
 20
175.226010
 42
0.017965
  0
VERTEX
  8
0
 10
218.908929
 20
174.374500
 42
0.012710
  0
SEQEND
  0
POLYLINE
  8
0
 66
1
 70
1
  0
VERTEX
  8
0
 10
225.400000
 20
172.485148
 42
-0.043521
  0
VERTEX
  8
0
 10
225.274937
 20
171.051054
 42
-0.034612
  0
VERTEX
  8
0
 10
224.900625
 20
169.542214
 42
-0.035712
  0
VERTEX
  8
0
 10
224.352094
 20
168.183720
 42
-0.070218
  0
VERTEX
  8
0
 10
223.700000
 20
167.220998
 42
0.068960
  0
VERTEX
  8
0
 10
222.608701
 20
165.618506
 42
0.079112
  0
VERTEX
  8
0
 10
222.057870
 20
163.851984
 42
0.123291
  0
VERTEX
  8
0
 10
222.192242
 20
162.525806
 42
0.316053
  0
VERTEX
  8
0
 10
222.940983
 20
162.000000
 42
0.138294
  0
VERTEX
  8
0
 10
223.870844
 20
162.262203
 42
0.170974
  0
VERTEX
  8
0
 10
224.435099
 20
162.956508
 42
0.211045
  0
VERTEX
  8
0
 10
224.378429
 20
163.739737
 42
0.187102
  0
VERTEX
  8
0
 10
223.756231
 20
164.277413
 42
-0.205218
  0
VERTEX
  8
0
 10
223.359433
 20
164.645251
 42
-0.189364
  0
VERTEX
  8
0
 10
223.334812
 20
165.202642
 42
-0.082202
  0
VERTEX
  8
0
 10
223.776429
 20
166.022304
 42
-0.021082
  0
VERTEX
  8
0
 10
224.750000
 20
167.177274
 42
0.080088
  0
VERTEX
  8
0
 10
226.106166
 20
169.235060
 42
0.062037
  0
VERTEX
  8
0
 10
226.897808
 20
171.803734
 42
0.069192
  0
VERTEX
  8
0
 10
226.983431
 20
174.124733
 42
0.233071
  0
VERTEX
  8
0
 10
226.200000
 20
175.376393
 42
0.407724
  0
VERTEX
  8
0
 10
225.894577
 20
175.307864
 42
0.076609
  0
VERTEX
  8
0
 10
225.635000
 20
174.731041
 42
0.045122
  0
VERTEX
  8
0
 10
225.456677
 20
173.749744
 42
0.022398
  0
SEQEND
  0
POLYLINE
  8
0
 66
1
 70
1
  0
VERTEX
  8
0
 10
10.798278
 20
126.500000
 42
0.006840
  0
VERTEX
  8
0
 10
9.986045
 20
123.419279
 42
0.056288
  0
VERTEX
  8
0
 10
9.795895
 20
121.983221
 42
0.188106
  0
VERTEX
  8
0
 10
10.051503
 20
121.288763
 42
0.214777
  0
VERTEX
  8
0
 10
10.692733
 20
121.000000
 42
0.063467
  0
VERTEX
  8
0
 10
11.198763
 20
121.064492
 42
0.134422
  0
VERTEX
  8
0
 10
11.538912
 20
121.259597
 42
0.191565
  0
VERTEX
  8
0
 10
11.662472
 20
121.548423
 42
0.145838
  0
VERTEX
  8
0
 10
11.571857
 20
121.883733
 42
-0.160143
  0
VERTEX
  8
0
 10
11.430686
 20
122.470807
 42
-0.017628
  0
VERTEX
  8
0
 10
11.594224
 20
123.863898
 42
-0.020097
  0
VERTEX
  8
0
 10
11.922756
 20
125.551237
 42
-0.014963
  0
VERTEX
  8
0
 10
12.414972
 20
127.383733
 42
0.013792
  0
VERTEX
  8
0
 10
12.894990
 20
129.154266
 42
0.024234
  0
VERTEX
  8
0
 10
13.179499
 20
130.643972
 42
0.022713
  0
VERTEX
  8
0
 10
13.286515
 20
131.769039
 42
0.428763
  0
VERTEX
  8
0
 10
13.066695
 20
132.000000
 42
0.289796
  0
VERTEX
  8
0
 10
12.712172
 20
131.775683
 42
0.012834
  0
VERTEX
  8
0
 10
12.096100
 20
130.384375
 42
0.018274
  0
VERTEX
  8
0
 10
11.438333
 20
128.608042
 42
0.011658
  0
SEQEND
  0
POLYLINE
  8
0
 66
1
 70
1
  0
VERTEX
  8
0
 10
17.500000
 20
129.500000
 42
0.031081
  0
VERTEX
  8
0
 10
17.553110
 20
128.646454
 42
0.065524
  0
VERTEX
  8
0
 10
17.720312
 20
128.005417
 42
0.125974
  0
VERTEX
  8
0
 10
17.966091
 20
127.672983
 42
0.319530
  0
VERTEX
  8
0
 10
18.250000
 20
127.654508
 42
0.107182
  0
VERTEX
  8
0
 10
18.537543
 20
127.931730
 42
0.051073
  0
VERTEX
  8
0
 10
18.779688
 20
128.387826
 42
0.047331
  0
VERTEX
  8
0
 10
18.944413
 20
128.936991
 42
0.049246
  0
VERTEX
  8
0
 10
19.000000
 20
129.500000
 42
0.049246
  0
VERTEX
  8
0
 10
18.944413
 20
130.063009
 42
0.047331
  0
VERTEX
  8
0
 10
18.779688
 20
130.612174
 42
0.051073
  0
VERTEX
  8
0
 10
18.537543
 20
131.068270
 42
0.107182
  0
VERTEX
  8
0
 10
18.250000
 20
131.345492
 42
0.319530
  0
VERTEX
  8
0
 10
17.966091
 20
131.327017
 42
0.125974
  0
VERTEX
  8
0
 10
17.720312
 20
130.994583
 42
0.065524
  0
VERTEX
  8
0
 10
17.553110
 20
130.353546
 42
0.031081
  0
SEQEND
  0
POLYLINE
  8
0
 66
1
 70
1
  0
VERTEX
  8
0
 10
22.226925
 20
59.439742
 42
-0.219363
  0
VERTEX
  8
0
 10
22.389796
 20
58.998373
 42
-0.013969
  0
VERTEX
  8
0
 10
22.239828
 20
57.593010
 42
-0.018412
  0
VERTEX
  8
0
 10
21.942705
 20
55.873082
 42
-0.012510
  0
VERTEX
  8
0
 10
21.484104
 20
53.939742
 42
0.016225
  0
VERTEX
  8
0
 10
21.049565
 20
52.045278
 42
0.028387
  0
VERTEX
  8
0
 10
20.830966
 20
50.451049
 42
0.029768
  0
VERTEX
  8
0
 10
20.807394
 20
49.272143
 42
0.402683
  0
VERTEX
  8
0
 10
21.090512
 20
49.000000
 42
0.182593
  0
VERTEX
  8
0
 10
21.441167
 20
49.132471
 42
0.087610
  0
VERTEX
  8
0
 10
21.745732
 20
49.514063
 42
0.068719
  0
VERTEX
  8
0
 10
21.959933
 20
50.080369
 42
0.049869
  0
VERTEX
  8
0
 10
22.043893
 20
50.750000
 42
-0.043399
  0
VERTEX
  8
0
 10
22.146923
 20
51.667544
 42
-0.011910
  0
VERTEX
  8
0
 10
22.468009
 20
53.087500
 42
-0.011945
  0
VERTEX
  8
0
 10
22.910545
 20
54.685928
 42
-0.012201
  0
VERTEX
  8
0
 10
23.426055
 20
56.250000
 42
0.009209
  0
VERTEX
  8
0
 10
24.152996
 20
58.411956
 42
0.090758
  0
VERTEX
  8
0
 10
24.272145
 20
59.360717
 42
0.270084
  0
VERTEX
  8
0
 10
23.965859
 20
59.824487
 42
0.115395
  0
VERTEX
  8
0
 10
23.215495
 20
60.000000
 42
0.034507
  0
VERTEX
  8
0
 10
22.658152
 20
59.961490
 42
0.094688
  0
VERTEX
  8
0
 10
22.286211
 20
59.835424
 42
0.229205
  0
VERTEX
  8
0
 10
22.158200
 20
59.650132
 42
0.239249
  0
SEQEND
  0
POLYLINE
  8
0
 66
1
 70
1
  0
VERTEX
  8
0
 10
27.750000
 20
58.859246
 42
-0.129490
  0
VERTEX
  8
0
 10
28.702665
 20
57.211344
 42
-0.080561
  0
VERTEX
  8
0
 10
28.939916
 20
54.978207
 42
-0.076458
  0
VERTEX
  8
0
 10
28.452811
 20
52.665078
 42
-0.094125
  0
VERTEX
  8
0
 10
27.306067
 20
50.785706
 42
0.005976
  0
VERTEX
  8
0
 10
26.365704
 20
49.721322
 42
0.152598
  0
VERTEX
  8
0
 10
26.213899
 20
49.370900
 42
0.531960
  0
VERTEX
  8
0
 10
26.366044
 20
49.243019
 42
0.021903
  0
VERTEX
  8
0
 10
27.170617
 20
49.511977
 42
0.139346
  0
VERTEX
  8
0
 10
28.621667
 20
50.599844
 42
0.058593
  0
VERTEX
  8
0
 10
29.873292
 20
52.718888
 42
0.058243
  0
VERTEX
  8
0
 10
30.611514
 20
55.104403
 42
0.123393
  0
VERTEX
  8
0
 10
30.492850
 20
57.022528
 42
0.065370
  0
VERTEX
  8
0
 10
30.149136
 20
57.756644
 42
0.045628
  0
VERTEX
  8
0
 10
29.588125
 20
58.480045
 42
0.045820
  0
VERTEX
  8
0
 10
28.909069
 20
59.085781
 42
0.068385
  0
VERTEX
  8
0
 10
28.211933
 20
59.466865
 42
0.008694
  0
VERTEX
  8
0
 10
27.291797
 20
59.798904
 42
0.323005
  0
VERTEX
  8
0
 10
27.090500
 20
59.737534
 42
0.363128
  0
VERTEX
  8
0
 10
27.099716
 20
59.540026
 42
0.009611
  0
SEQEND
  0
POLYLINE
  8
0
 66
1
 70
1
  0
VERTEX
  8
0
 10
218.629970
 20
52.087420
 42
-0.007861
  0
VERTEX
  8
0
 10
218.345724
 20
50.473059
 42
-0.007710
  0
VERTEX
  8
0
 10
218.009169
 20
48.857856
 42
-0.007624
  0
VERTEX
  8
0
 10
217.670624
 20
47.450665
 42
-0.028774
  0
VERTEX
  8
0
 10
217.395173
 20
46.587420
 42
0.053167
  0
VERTEX
  8
0
 10
217.233324
 20
45.979439
 42
0.096031
  0
VERTEX
  8
0
 10
217.252595
 20
45.466305
 42
0.144578
  0
VERTEX
  8
0
 10
217.443516
 20
45.129878
 42
0.194253
  0
VERTEX
  8
0
 10
217.765203
 20
45.000000
 42
0.263527
  0
VERTEX
  8
0
 10
218.183014
 20
45.236644
 42
0.037737
  0
VERTEX
  8
0
 10
218.640533
 20
46.149320
 42
0.034737
  0
VERTEX
  8
0
 10
219.059196
 20
47.413534
 42
0.022951
  0
VERTEX
  8
0
 10
219.370030
 20
48.912580
 42
-0.007861
  0
VERTEX
  8
0
 10
219.654276
 20
50.526941
 42
-0.007710
  0
VERTEX
  8
0
 10
219.990831
 20
52.142144
 42
-0.007624
  0
VERTEX
  8
0
 10
220.329376
 20
53.549335
 42
-0.028774
  0
VERTEX
  8
0
 10
220.604827
 20
54.412580
 42
0.053167
  0
VERTEX
  8
0
 10
220.766676
 20
55.020561
 42
0.096031
  0
VERTEX
  8
0
 10
220.747405
 20
55.533695
 42
0.144578
  0
VERTEX
  8
0
 10
220.556484
 20
55.870122
 42
0.194253
  0
VERTEX
  8
0
 10
220.234797
 20
56.000000
 42
0.263527
  0
VERTEX
  8
0
 10
219.816986
 20
55.763356
 42
0.037737
  0
VERTEX
  8
0
 10
219.359467
 20
54.850680
 42
0.034737
  0
VERTEX
  8
0
 10
218.940804
 20
53.586466
 42
0.022951
  0
SEQEND
  0
POLYLINE
  8
0
 66
1
 70
1
  0
VERTEX
  8
0
 10
224.680738
 20
54.112859
 42
-0.053607
  0
VERTEX
  8
0
 10
224.795668
 20
53.345489
 42
-0.059764
  0
VERTEX
  8
0
 10
224.737507
 20
52.599746
 42
-0.068242
  0
VERTEX
  8
0
 10
224.524805
 20
51.985763
 42
-0.137726
  0
VERTEX
  8
0
 10
224.180998
 20
51.611863
 42
0.149651
  0
VERTEX
  8
0
 10
223.840514
 20
51.223753
 42
0.065353
  0
VERTEX
  8
0
 10
223.640945
 20
50.561053
 42
0.056357
  0
VERTEX
  8
0
 10
223.600655
 20
49.745999
 42
0.048181
  0
VERTEX
  8
0
 10
223.737279
 20
48.896646
 42
-0.063321
  0
VERTEX
  8
0
 10
223.854514
 20
47.995050
 42
-0.067769
  0
VERTEX
  8
0
 10
223.737128
 20
47.114289
 42
-0.073394
  0
VERTEX
  8
0
 10
223.404769
 20
46.358613
 42
-0.100326
  0
VERTEX
  8
0
 10
222.893399
 20
45.821511
 42
0.004088
  0
VERTEX
  8
0
 10
222.087260
 20
45.248278
 42
0.256462
  0
VERTEX
  8
0
 10
222.015058
 20
45.095857
 42
0.467596
  0
VERTEX
  8
0
 10
222.112283
 20
45.024026
 42
0.006300
  0
VERTEX
  8
0
 10
222.928557
 20
45.233388
 42
0.119317
  0
VERTEX
  8
0
 10
224.389519
 20
46.033760
 42
0.091889
  0
VERTEX
  8
0
 10
225.491579
 20
47.486944
 42
0.127633
  0
VERTEX
  8
0
 10
225.796123
 20
48.904066
 42
0.304116
  0
VERTEX
  8
0
 10
225.188869
 20
49.732280
 42
-0.100078
  0
VERTEX
  8
0
 10
224.645271
 20
50.063443
 42
-0.248364
  0
VERTEX
  8
0
 10
224.495698
 20
50.489983
 42
-0.125313
  0
VERTEX
  8
0
 10
224.748117
 20
51.088786
 42
-0.021829
  0
VERTEX
  8
0
 10
225.536830
 20
52.040697
 42
0.045593
  0
VERTEX
  8
0
 10
226.123003
 20
52.820733
 42
0.055108
  0
VERTEX
  8
0
 10
226.515577
 20
53.647709
 42
0.064585
  0
VERTEX
  8
0
 10
226.670663
 20
54.396922
 42
0.158482
  0
VERTEX
  8
0
 10
226.538944
 20
54.936987
 42
0.082856
  0
VERTEX
  8
0
 10
225.745900
 20
55.843181
 42
0.283228
  0
VERTEX
  8
0
 10
225.002592
 20
55.943806
 42
0.277940
  0
VERTEX
  8
0
 10
224.567403
 20
55.322681
 42
0.081365
  0
SEQEND
  0
POLYLINE
  8
0
 66
1
 70
1
  0
VERTEX
  8
0
 10
120.964816
 20
167.065741
 42
-0.049120
  0
VERTEX
  8
0
 10
121.362412
 20
166.107317
 42
-0.022735
  0
VERTEX
  8
0
 10
121.695915
 20
164.799110
 42
-0.022262
  0
VERTEX
  8
0
 10
121.924198
 20
163.381246
 42
-0.028787
  0
VERTEX
  8
0
 10
122.000000
 20
162.065741
 42
0.026567
  0
VERTEX
  8
0
 10
122.062464
 20
160.891001
 42
0.041936
  0
VERTEX
  8
0
 10
122.253015
 20
159.900562
 42
0.051209
  0
VERTEX
  8
0
 10
122.528973
 20
159.202000
 42
0.280057
  0
VERTEX
  8
0
 10
122.861328
 20
159.000000
 42
0.378053
  0
VERTEX
  8
0
 10
123.309904
 20
159.395729
 42
0.045498
  0
VERTEX
  8
0
 10
123.358707
 20
160.826970
 42
0.028165
  0
VERTEX
  8
0
 10
123.094510
 20
163.151637
 42
0.007874
  0
VERTEX
  8
0
 10
122.420272
 20
166.750000
 42
0.040949
  0
VERTEX
  8
0
 10
122.170011
 20
167.611145
 42
0.053912
  0
VERTEX
  8
0
 10
121.798055
 20
168.339063
 42
0.065270
  0
VERTEX
  8
0
 10
121.368334
 20
168.838534
 42
0.184545
  0
VERTEX
  8
0
 10
120.945764
 20
169.000000
 42
0.188774
  0
VERTEX
  8
0
 10
120.585838
 20
168.859089
 42
0.211662
  0
VERTEX
  8
0
 10
120.439291
 20
168.519425
 42
0.094874
  0
VERTEX
  8
0
 10
120.558204
 20
167.929875
 42
0.025801
  0
SEQEND
  0
POLYLINE
  8
0
 66
1
 70
1
  0
VERTEX
  8
0
 10
128.583948
 20
164.799614
 42
-0.018212
  0
VERTEX
  8
0
 10
128.247546
 20
163.096248
 42
-0.019175
  0
VERTEX
  8
0
 10
127.792748
 20
161.451330
 42
-0.019210
  0
VERTEX
  8
0
 10
127.293559
 20
160.068834
 42
-0.077102
  0
VERTEX
  8
0
 10
126.833695
 20
159.299614
 42
0.032460
  0
VERTEX
  8
0
 10
126.371047
 20
158.662176
 42
0.221719
  0
VERTEX
  8
0
 10
126.323309
 20
158.286971
 42
0.275456
  0
VERTEX
  8
0
 10
126.577326
 20
158.062652
 42
0.046486
  0
VERTEX
  8
0
 10
127.249747
 20
158.000000
 42
0.190929
  0
VERTEX
  8
0
 10
127.938447
 20
158.272935
 42
0.085206
  0
VERTEX
  8
0
 10
128.535737
 20
159.064923
 42
0.055772
  0
VERTEX
  8
0
 10
129.033289
 20
160.368054
 42
0.023689
  0
VERTEX
  8
0
 10
129.416052
 20
162.200386
 42
-0.018212
  0
VERTEX
  8
0
 10
129.752454
 20
163.903752
 42
-0.019175
  0
VERTEX
  8
0
 10
130.207252
 20
165.548670
 42
-0.019210
  0
VERTEX
  8
0
 10
130.706441
 20
166.931166
 42
-0.077102
  0
VERTEX
  8
0
 10
131.166305
 20
167.700386
 42
0.032460
  0
VERTEX
  8
0
 10
131.628953
 20
168.337824
 42
0.221719
  0
VERTEX
  8
0
 10
131.676691
 20
168.713029
 42
0.275456
  0
VERTEX
  8
0
 10
131.422674
 20
168.937348
 42
0.046486
  0
VERTEX
  8
0
 10
130.750253
 20
169.000000
 42
0.190929
  0
VERTEX
  8
0
 10
130.061553
 20
168.727065
 42
0.085206
  0
VERTEX
  8
0
 10
129.464263
 20
167.935077
 42
0.055772
  0
VERTEX
  8
0
 10
128.966711
 20
166.631946
 42
0.023689
  0
SEQEND
  0
POLYLINE
  8
0
 66
1
 70
1
  0
VERTEX
  8
0
 10
117.500000
 20
159.000000
 42
0.146489
  0
VERTEX
  8
0
 10
117.397987
 20
158.620597
 42
0.191582
  0
VERTEX
  8
0
 10
117.538811
 20
158.293750
 42
0.134005
  0
VERTEX
  8
0
 10
117.925364
 20
158.072951
 42
0.063222
  0
VERTEX
  8
0
 10
118.500000
 20
158.000000
 42
0.063222
  0
VERTEX
  8
0
 10
119.074636
 20
158.072951
 42
0.134005
  0
VERTEX
  8
0
 10
119.461189
 20
158.293750
 42
0.191582
  0
VERTEX
  8
0
 10
119.602013
 20
158.620597
 42
0.146489
  0
VERTEX
  8
0
 10
119.500000
 20
159.000000
 42
0.025622
  0
VERTEX
  8
0
 10
119.235369
 20
159.382847
 42
0.032351
  0
VERTEX
  8
0
 10
118.951311
 20
159.706250
 42
0.033983
  0
VERTEX
  8
0
 10
118.686704
 20
159.937141
 42
0.163822
  0
VERTEX
  8
0
 10
118.500000
 20
160.000000
 42
0.163822
  0
VERTEX
  8
0
 10
118.313296
 20
159.937141
 42
0.033983
  0
VERTEX
  8
0
 10
118.048689
 20
159.706250
 42
0.032351
  0
VERTEX
  8
0
 10
117.764631
 20
159.382847
 42
0.025622
  0
SEQEND
  0
POLYLINE
  8
0
 66
1
 70
1
  0
VERTEX
  8
0
 10
66.588235
 20
172.411765
 42
0.006804
  0
VERTEX
  8
0
 10
65.976751
 20
169.829209
 42
0.010600
  0
VERTEX
  8
0
 10
65.527623
 20
167.586961
 42
0.005075
  0
VERTEX
  8
0
 10
65.210452
 20
165.697782
 42
0.239843
  0
VERTEX
  8
0
 10
65.326982
 20
165.339684
 42
0.548535
  0
VERTEX
  8
0
 10
65.544978
 20
165.387983
 42
0.006823
  0
VERTEX
  8
0
 10
66.109240
 20
167.005343
 42
0.012149
  0
VERTEX
  8
0
 10
66.740554
 20
169.062728
 42
0.006834
  0
VERTEX
  8
0
 10
67.411765
 20
171.588235
 42
0.006804
  0
VERTEX
  8
0
 10
68.023249
 20
174.170791
 42
0.010600
  0
VERTEX
  8
0
 10
68.472377
 20
176.413039
 42
0.005075
  0
VERTEX
  8
0
 10
68.789548
 20
178.302218
 42
0.239843
  0
VERTEX
  8
0
 10
68.673018
 20
178.660316
 42
0.548535
  0
VERTEX
  8
0
 10
68.455022
 20
178.612017
 42
0.006823
  0
VERTEX
  8
0
 10
67.890760
 20
176.994657
 42
0.012149
  0
VERTEX
  8
0
 10
67.259446
 20
174.937272
 42
0.006834
  0
SEQEND
  0
POLYLINE
  8
0
 66
1
 70
1
  0
VERTEX
  8
0
 10
44.957005
 20
144.109079
 42
-0.014050
  0
VERTEX
  8
0
 10
45.651501
 20
142.190831
 42
-0.020988
  0
VERTEX
  8
0
 10
46.139611
 20
140.475950
 42
-0.016910
  0
VERTEX
  8
0
 10
46.425257
 20
139.077674
 42
-0.242887
  0
VERTEX
  8
0
 10
46.275746
 20
138.609079
 42
0.392806
  0
VERTEX
  8
0
 10
46.267585
 20
138.387518
 42
0.144431
  0
VERTEX
  8
0
 10
46.555480
 20
138.202108
 42
0.056600
  0
VERTEX
  8
0
 10
47.196091
 20
138.090689
 42
0.022949
  0
VERTEX
  8
0
 10
48.083333
 20
138.078947
 42
0.019615
  0
VERTEX
  8
0
 10
48.942211
 20
138.140791
 42
0.088364
  0
VERTEX
  8
0
 10
49.422917
 20
138.282867
 42
0.434439
  0
VERTEX
  8
0
 10
49.477226
 20
138.466554
 42
0.165246
  0
VERTEX
  8
0
 10
49.250000
 20
138.662281
 42
-0.057867
  0
VERTEX
  8
0
 10
48.771987
 20
138.922882
 42
-0.058119
  0
VERTEX
  8
0
 10
48.367188
 20
139.285759
 42
-0.063834
  0
VERTEX
  8
0
 10
48.092030
 20
139.691122
 42
-0.117754
  0
VERTEX
  8
0
 10
48.000000
 20
140.076473
 42
0.097652
  0
VERTEX
  8
0
 10
47.663338
 20
141.783828
 42
0.013123
  0
VERTEX
  8
0
 10
46.178237
 20
145.148931
 42
0.007852
  0
VERTEX
  8
0
 10
44.498669
 20
148.559801
 42
0.281482
  0
VERTEX
  8
0
 10
43.778692
 20
149.000000
 42
0.460624
  0
VERTEX
  8
0
 10
43.577061
 20
148.764222
 42
0.020151
  0
VERTEX
  8
0
 10
43.815649
 20
147.563292
 42
0.022285
  0
VERTEX
  8
0
 10
44.271103
 20
145.985200
 42
0.012483
  0
SEQEND
  0
POLYLINE
  8
0
 66
1
 70
1
  0
VERTEX
  8
0
 10
40.000000
 20
139.000000
 42
0.011213
  0
VERTEX
  8
0
 10
39.169589
 20
138.436556
 42
0.309569
  0
VERTEX
  8
0
 10
39.083458
 20
138.201904
 42
0.327416
  0
VERTEX
  8
0
 10
39.271084
 20
138.047261
 42
0.011938
  0
VERTEX
  8
0
 10
40.250000
 20
138.015313
 42
0.055234
  0
VERTEX
  8
0
 10
40.919445
 20
138.083567
 42
0.075283
  0
VERTEX
  8
0
 10
41.485937
 20
138.298248
 42
0.095191
  0
VERTEX
  8
0
 10
41.865757
 20
138.619685
 42
0.171310
  0
VERTEX
  8
0
 10
42.000000
 20
139.000000
 42
0.042895
  0
VERTEX
  8
0
 10
41.938046
 20
139.720828
 42
0.364836
  0
VERTEX
  8
0
 10
41.707705
 20
139.914708
 42
0.137048
  0
VERTEX
  8
0
 10
41.262820
 20
139.790433
 42
0.007234
  0
SEQEND
  0
POLYLINE
  8
0
 66
1
 70
1
  0
VERTEX
  8
0
 10
64.750000
 20
136.337719
 42
0.057986
  0
VERTEX
  8
0
 10
65.320008
 20
136.181385
 42
0.037979
  0
VERTEX
  8
0
 10
66.000000
 20
136.129660
 42
0.037979
  0
VERTEX
  8
0
 10
66.679992
 20
136.181385
 42
0.057986
  0
VERTEX
  8
0
 10
67.250000
 20
136.337719
 42
0.174857
  0
VERTEX
  8
0
 10
67.459382
 20
136.525001
 42
0.447206
  0
VERTEX
  8
0
 10
67.398438
 20
136.693942
 42
0.078554
  0
VERTEX
  8
0
 10
66.891440
 20
136.810911
 42
0.017491
  0
VERTEX
  8
0
 10
66.000000
 20
136.842105
 42
0.017491
  0
VERTEX
  8
0
 10
65.108560
 20
136.810911
 42
0.078554
  0
VERTEX
  8
0
 10
64.601562
 20
136.693942
 42
0.447206
  0
VERTEX
  8
0
 10
64.540618
 20
136.525001
 42
0.174857
  0
SEQEND
  0
POLYLINE
  8
0
 66
1
 70
1
  0
VERTEX
  8
0
 10
177.662631
 20
187.021503
 42
0.013670
  0
VERTEX
  8
0
 10
177.986299
 20
185.401604
 42
0.006956
  0
VERTEX
  8
0
 10
178.476869
 20
183.383498
 42
0.006905
  0
VERTEX
  8
0
 10
179.040926
 20
181.314710
 42
0.010265
  0
VERTEX
  8
0
 10
179.596652
 20
179.521503
 42
0.000535
  0
VERTEX
  8
0
 10
180.517958
 20
176.760980
 42
0.154978
  0
VERTEX
  8
0
 10
180.658478
 20
176.568537
 42
0.673007
  0
VERTEX
  8
0
 10
180.737814
 20
176.617416
 42
0.000935
  0
VERTEX
  8
0
 10
180.337369
 20
178.978497
 42
0.013670
  0
VERTEX
  8
0
 10
180.013701
 20
180.598396
 42
0.006956
  0
VERTEX
  8
0
 10
179.523131
 20
182.616502
 42
0.006905
  0
VERTEX
  8
0
 10
178.959074
 20
184.685290
 42
0.010265
  0
VERTEX
  8
0
 10
178.403348
 20
186.478497
 42
0.000535
  0
VERTEX
  8
0
 10
177.482042
 20
189.239020
 42
0.154978
  0
VERTEX
  8
0
 10
177.341522
 20
189.431463
 42
0.673007
  0
VERTEX
  8
0
 10
177.262186
 20
189.382584
 42
0.000935
  0
SEQEND
  0
POLYLINE
  8
0
 66
1
 70
1
  0
VERTEX
  8
0
 10
188.498611
 20
172.657566
 42
-0.032774
  0
VERTEX
  8
0
 10
188.991609
 20
171.219460
 42
-0.028642
  0
VERTEX
  8
0
 10
189.319192
 20
169.663187
 42
-0.029716
  0
VERTEX
  8
0
 10
189.450612
 20
168.219498
 42
-0.071909
  0
VERTEX
  8
0
 10
189.330953
 20
167.157566
 42
0.041478
  0
VERTEX
  8
0
 10
189.173410
 20
166.255325
 42
0.096736
  0
VERTEX
  8
0
 10
189.243560
 20
165.576061
 42
0.153040
  0
VERTEX
  8
0
 10
189.528183
 20
165.159586
 42
0.168459
  0
VERTEX
  8
0
 10
189.988404
 20
165.000000
 42
0.310455
  0
VERTEX
  8
0
 10
190.612514
 20
165.428850
 42
0.095541
  0
VERTEX
  8
0
 10
190.823580
 20
166.614231
 42
0.029572
  0
VERTEX
  8
0
 10
190.644003
 20
169.055703
 42
0.003082
  0
VERTEX
  8
0
 10
189.849037
 20
174.750000
 42
0.095937
  0
VERTEX
  8
0
 10
189.682242
 20
175.227340
 42
0.084415
  0
VERTEX
  8
0
 10
189.343560
 20
175.632812
 42
0.083924
  0
VERTEX
  8
0
 10
188.887872
 20
175.905363
 42
0.093161
  0
VERTEX
  8
0
 10
188.384360
 20
176.000000
 42
0.179544
  0
VERTEX
  8
0
 10
187.850736
 20
175.802000
 42
0.227392
  0
VERTEX
  8
0
 10
187.642180
 20
175.326081
 42
0.078283
  0
VERTEX
  8
0
 10
187.821023
 20
174.398236
 42
0.012280
  0
SEQEND
  0
POLYLINE
  8
0
 66
1
 70
1
  0
VERTEX
  8
0
 10
195.000000
 20
174.940983
 42
0.108972
  0
VERTEX
  8
0
 10
195.078288
 20
174.586039
 42
0.182303
  0
VERTEX
  8
0
 10
195.293750
 20
174.374600
 42
0.161196
  0
VERTEX
  8
0
 10
195.617900
 20
174.343488
 42
0.082592
  0
VERTEX
  8
0
 10
196.000000
 20
174.500000
 42
0.029505
  0
VERTEX
  8
0
 10
196.382774
 20
174.768994
 42
0.035638
  0
VERTEX
  8
0
 10
196.706250
 20
175.066025
 42
0.038439
  0
VERTEX
  8
0
 10
196.934461
 20
175.348290
 42
0.151918
  0
VERTEX
  8
0
 10
197.000000
 20
175.559017
 42
0.210953
  0
VERTEX
  8
0
 10
196.925540
 20
175.727648
 42
0.081139
  0
VERTEX
  8
0
 10
196.706250
 20
175.870461
 42
0.061769
  0
VERTEX
  8
0
 10
196.382849
 20
175.967655
 42
0.042167
  0
VERTEX
  8
0
 10
196.000000
 20
176.000000
 42
0.105053
  0
VERTEX
  8
0
 10
195.618444
 20
175.918938
 42
0.099167
  0
VERTEX
  8
0
 10
195.293750
 20
175.688914
 42
0.096420
  0
VERTEX
  8
0
 10
195.076123
 20
175.345238
 42
0.093332
  0
SEQEND
  0
POLYLINE
  8
0
 66
1
 70
1
  0
VERTEX
  8
0
 10
181.000000
 20
174.228358
 42
0.058722
  0
VERTEX
  8
0
 10
181.063049
 20
173.693367
 42
0.002218
  0
VERTEX
  8
0
 10
181.540736
 20
171.733322
 42
0.003970
  0
VERTEX
  8
0
 10
182.135552
 20
169.417639
 42
0.002782
  0
VERTEX
  8
0
 10
182.840805
 20
166.818201
 42
0.000000
  0
VERTEX
  8
0
 10
184.681610
 20
160.179687
 42
0.000000
  0
VERTEX
  8
0
 10
170.257970
 20
157.367455
 42
0.003447
  0
VERTEX
  8
0
 10
164.797390
 20
156.263656
 42
0.006363
  0
VERTEX
  8
0
 10
160.376879
 20
155.279448
 42
0.003319
  0
VERTEX
  8
0
 10
156.883195
 20
154.430267
 42
0.750297
  0
VERTEX
  8
0
 10
156.874687
 20
154.208438
 42
0.118691
  0
VERTEX
  8
0
 10
157.652270
 20
154.141813
 42
0.002538
  0
VERTEX
  8
0
 10
161.466593
 20
154.741247
 42
0.005704
  0
VERTEX
  8
0
 10
165.938522
 20
155.519761
 42
0.003799
  0
VERTEX
  8
0
 10
171.045783
 20
156.509231
 42
-0.003565
  0
VERTEX
  8
0
 10
176.110759
 20
157.492967
 42
-0.005719
  0
VERTEX
  8
0
 10
180.446614
 20
158.251838
 42
-0.001567
  0
VERTEX
  8
0
 10
184.209400
 20
158.854035
 42
-0.239677
  0
VERTEX
  8
0
 10
184.609699
 20
158.723634
 42
-0.098222
  0
VERTEX
  8
0
 10
184.838007
 20
158.382341
 42
-0.004891
  0
VERTEX
  8
0
 10
185.345374
 20
157.126605
 42
-0.007725
  0
VERTEX
  8
0
 10
185.913874
 20
155.610517
 42
-0.005497
  0
VERTEX
  8
0
 10
186.505833
 20
153.895229
 42
0.020274
  0
VERTEX
  8
0
 10
187.248866
 20
151.932262
 42
0.827951
  0
VERTEX
  8
0
 10
187.488319
 20
151.984480
 42
0.047576
  0
VERTEX
  8
0
 10
187.281947
 20
153.666244
 42
0.005330
  0
VERTEX
  8
0
 10
186.410432
 20
157.424935
 42
-0.042269
  0
VERTEX
  8
0
 10
186.204596
 20
158.750841
 42
-0.186567
  0
VERTEX
  8
0
 10
186.433533
 20
159.492592
 42
-0.160462
  0
VERTEX
  8
0
 10
187.129732
 20
159.953035
 42
-0.029375
  0
VERTEX
  8
0
 10
188.660432
 20
160.275103
 42
0.000000
  0
VERTEX
  8
0
 10
191.500000
 20
160.700336
 42
0.000000
  0
VERTEX
  8
0
 10
188.357719
 20
160.850168
 42
-0.060527
  0
VERTEX
  8
0
 10
186.471158
 20
161.171198
 42
-0.172831
  0
VERTEX
  8
0
 10
185.412469
 20
161.945926
 42
-0.081863
  0
VERTEX
  8
0
 10
184.648950
 20
163.595842
 42
-0.007432
  0
VERTEX
  8
0
 10
183.500000
 20
168.000000
 42
0.006562
  0
VERTEX
  8
0
 10
182.462336
 20
172.006106
 42
0.028790
  0
VERTEX
  8
0
 10
181.684242
 20
174.321932
 42
0.341478
  0
VERTEX
  8
0
 10
181.287471
 20
174.554922
 42
0.377441
  0
SEQEND
  0
POLYLINE
  8
0
 66
1
 70
1
  0
VERTEX
  8
0
 10
192.750000
 20
161.337719
 42
0.057986
  0
VERTEX
  8
0
 10
193.320008
 20
161.181385
 42
0.037979
  0
VERTEX
  8
0
 10
194.000000
 20
161.129660
 42
0.037979
  0
VERTEX
  8
0
 10
194.679992
 20
161.181385
 42
0.057986
  0
VERTEX
  8
0
 10
195.250000
 20
161.337719
 42
0.174857
  0
VERTEX
  8
0
 10
195.459382
 20
161.525001
 42
0.447206
  0
VERTEX
  8
0
 10
195.398438
 20
161.693942
 42
0.078554
  0
VERTEX
  8
0
 10
194.891440
 20
161.810911
 42
0.017491
  0
VERTEX
  8
0
 10
194.000000
 20
161.842105
 42
0.017491
  0
VERTEX
  8
0
 10
193.108560
 20
161.810911
 42
0.078554
  0
VERTEX
  8
0
 10
192.601562
 20
161.693942
 42
0.447206
  0
VERTEX
  8
0
 10
192.540618
 20
161.525001
 42
0.174857
  0
SEQEND
  0
POLYLINE
  8
0
 66
1
 70
1
  0
VERTEX
  8
0
 10
151.750000
 20
153.337719
 42
0.057986
  0
VERTEX
  8
0
 10
152.320008
 20
153.181385
 42
0.037979
  0
VERTEX
  8
0
 10
153.000000
 20
153.129660
 42
0.037979
  0
VERTEX
  8
0
 10
153.679992
 20
153.181385
 42
0.057986
  0
VERTEX
  8
0
 10
154.250000
 20
153.337719
 42
0.174857
  0
VERTEX
  8
0
 10
154.459382
 20
153.525001
 42
0.447206
  0
VERTEX
  8
0
 10
154.398438
 20
153.693942
 42
0.078554
  0
VERTEX
  8
0
 10
153.891440
 20
153.810911
 42
0.017491
  0
VERTEX
  8
0
 10
153.000000
 20
153.842105
 42
0.017491
  0
VERTEX
  8
0
 10
152.108560
 20
153.810911
 42
0.078554
  0
VERTEX
  8
0
 10
151.601562
 20
153.693942
 42
0.447206
  0
VERTEX
  8
0
 10
151.540618
 20
153.525001
 42
0.174857
  0
SEQEND
  0
POLYLINE
  8
0
 66
1
 70
1
  0
VERTEX
  8
0
 10
188.000000
 20
148.581712
 42
0.066006
  0
VERTEX
  8
0
 10
188.307120
 20
146.265382
 42
0.001093
  0
VERTEX
  8
0
 10
191.728369
 20
133.699793
 42
0.000347
  0
VERTEX
  8
0
 10
195.362094
 20
120.503885
 42
0.574819
  0
VERTEX
  8
0
 10
195.738020
 20
120.404686
 42
0.256622
  0
VERTEX
  8
0
 10
195.848525
 20
120.784692
 42
0.001305
  0
VERTEX
  8
0
 10
194.950902
 20
124.761053
 42
0.005309
  0
VERTEX
  8
0
 10
193.857843
 20
129.321476
 42
0.003285
  0
VERTEX
  8
0
 10
192.481413
 20
134.657811
 42
0.002014
  0
VERTEX
  8
0
 10
190.294178
 20
142.780651
 42
0.011081
  0
VERTEX
  8
0
 10
189.000364
 20
147.128676
 42
0.049871
  0
VERTEX
  8
0
 10
188.329536
 20
148.667737
 42
0.772463
  0
SEQEND
  0
POLYLINE
  8
0
 66
1
 70
1
  0
VERTEX
  8
0
 10
196.624801
 20
116.000000
 42
0.012166
  0
VERTEX
  8
0
 10
196.931902
 20
114.513402
 42
0.009969
  0
VERTEX
  8
0
 10
197.330120
 20
112.940625
 42
0.010102
  0
VERTEX
  8
0
 10
197.754457
 20
111.508842
 42
0.026048
  0
VERTEX
  8
0
 10
198.134660
 20
110.500000
 42
0.030687
  0
VERTEX
  8
0
 10
198.491030
 20
109.805073
 42
0.701671
  0
VERTEX
  8
0
 10
198.643617
 20
109.834118
 42
0.079071
  0
VERTEX
  8
0
 10
198.644307
 20
110.413284
 42
0.005690
  0
VERTEX
  8
0
 10
198.375199
 20
112.000000
 42
0.012166
  0
VERTEX
  8
0
 10
198.068098
 20
113.486598
 42
0.009969
  0
VERTEX
  8
0
 10
197.669880
 20
115.059375
 42
0.010102
  0
VERTEX
  8
0
 10
197.245543
 20
116.491158
 42
0.026048
  0
VERTEX
  8
0
 10
196.865340
 20
117.500000
 42
0.030687
  0
VERTEX
  8
0
 10
196.508970
 20
118.194927
 42
0.701671
  0
VERTEX
  8
0
 10
196.356383
 20
118.165882
 42
0.079071
  0
VERTEX
  8
0
 10
196.355693
 20
117.586716
 42
0.005690
  0
SEQEND
  0
POLYLINE
  8
0
 66
1
 70
1
  0
VERTEX
  8
0
 10
199.662631
 20
105.021503
 42
0.013670
  0
VERTEX
  8
0
 10
199.986299
 20
103.401604
 42
0.006956
  0
VERTEX
  8
0
 10
200.476869
 20
101.383498
 42
0.006905
  0
VERTEX
  8
0
 10
201.040926
 20
99.314710
 42
0.010265
  0
VERTEX
  8
0
 10
201.596652
 20
97.521503
 42
0.000535
  0
VERTEX
  8
0
 10
202.517958
 20
94.760980
 42
0.154978
  0
VERTEX
  8
0
 10
202.658478
 20
94.568537
 42
0.673007
  0
VERTEX
  8
0
 10
202.737814
 20
94.617416
 42
0.000935
  0
VERTEX
  8
0
 10
202.337369
 20
96.978497
 42
0.013670
  0
VERTEX
  8
0
 10
202.013701
 20
98.598396
 42
0.006956
  0
VERTEX
  8
0
 10
201.523131
 20
100.616502
 42
0.006905
  0
VERTEX
  8
0
 10
200.959074
 20
102.685290
 42
0.010265
  0
VERTEX
  8
0
 10
200.403348
 20
104.478497
 42
0.000535
  0
VERTEX
  8
0
 10
199.482042
 20
107.239020
 42
0.154978
  0
VERTEX
  8
0
 10
199.341522
 20
107.431463
 42
0.673007
  0
VERTEX
  8
0
 10
199.262186
 20
107.382584
 42
0.000935
  0
SEQEND
  0
ENDSEC
  0
EOF
