<?xml version="1.0" encoding="utf-8"?>
<!-- Generator: Fusion 360, Shaper Origin Export Add-In, Version 1.5.0  -->
<svg enable-background="new 0 0 24.8163687 12.6995873" height="12.6995873cm" shaper:fusionaddin="version:1.5.0" version="1.1" viewBox="0 0 24.8163687 12.6995873" width="24.8163687cm" x="0cm" xml:space="preserve" xmlns="http://www.w3.org/2000/svg" xmlns:shaper="http://www.shapertools.com/namespaces/shaper" xmlns:xlink="http://www.w3.org/1999/xlink" y="0cm"><path d="M-0.2499995,0.01 L-0.249853,3.1000119 0.000147,3.1 -0,0 9.658,0 A0.407,0.407 269.997283 0,1 10.0558339,0.3210203 L11.5002785,5.8749127 A0.7768615,0.7768615 346.3724656 0,1 11.343665,6.5533855 L6.4164817,10.1591537 0.9556022,12.6994127 -2.7273978,12.6995873 -8.1885183,10.1598463 -13.1156892,6.5550799 A0.7768615,0.7768615 140.3709334 0,1 -13.272367,5.8766221 L-11.8279848,0.3210581 A0.407,0.407 192.190314 0,1 -11.4301813,-0 L-1.7731776,0 -1.7731776,0.0000119 -1.7731776,0.0000119 -1.7730343,3.1000119 -1.5230343,3.1 -1.5231813,0 -0.250008,0 -0.250008,0.01 -0.250008,0.01z" fill="rgb(0,0,0)" shaper:cutDepth="0.002" shaper:pathType="exterior" transform="matrix(1,0,0,-1,13.2942199,12.6995873)" vector-effect="non-scaling-stroke" /><path d="M-8.2365707,9.0598487 L-9.7189858,8.473992 -9.7042457,7.508558 -8.2810787,7.8879969 -8.2365707,9.0598487z" fill="rgb(255,255,255)" shaper:cutDepth="0.002" shaper:pathType="interior" stroke="rgb(0,0,0)" transform="matrix(1,0,0,-1,13.2942199,12.6995873)" vector-effect="non-scaling-stroke" /><path d="M-13.0976831,6.0699654 L-11.8277413,0.9600189 -10.9369549,0.9599767 -9.8369454,1.1599245 -9.5369833,0.3599103 -7.6369643,0.7598202 -7.3369833,0.3598059 -3.6181388,1.2346421 -3.7723097,1.967126 -2.0916782,2.3624846 -3.4258165,8.0337786 -5.7059204,7.4973977 -5.5733344,6.9337873 -7.1669294,6.5589035 -7.0402737,6.0205025 -9.0576269,5.5459321 -9.1842826,6.0843331 -11.0364541,5.6486207 -11.258467,6.5923765 -13.0976831,6.0699654z" fill="rgb(255,255,255)" shaper:cutDepth="0.002" shaper:pathType="interior" stroke="rgb(0,0,0)" transform="matrix(1,0,0,-1,13.2942199,12.6995873)" vector-effect="non-scaling-stroke" /><path d="M6.1718509,9.6927312 L4.3634863,10.2592513 0.5635764,12.1594315 -0.136509,10.3594647 1.0634531,9.5594077 1.0634152,8.7594077 2.4634152,8.7593413 2.4634341,9.1593414 4.163401,8.4592607 5.763382,8.0591848 6.1718509,9.6927312z" fill="rgb(255,255,255)" shaper:cutDepth="0.002" shaper:pathType="interior" stroke="rgb(0,0,0)" transform="matrix(1,0,0,-1,13.2942199,12.6995873)" vector-effect="non-scaling-stroke" /><path d="M-4.0952754,9.3044226 L-2.9150445,9.2595964 -2.9150088,10.0125064 -1.8364948,10.6595453 -2.7364237,12.159588 -4.5364806,10.9596733 -5.961403,10.2864368 -7.9365375,9.7598345 -7.6366182,8.0598203 -6.1365992,8.4597492 -4.0952754,9.3044226z" fill="rgb(255,255,255)" shaper:cutDepth="0.002" shaper:pathType="interior" stroke="rgb(0,0,0)" transform="matrix(1,0,0,-1,13.2942199,12.6995873)" vector-effect="non-scaling-stroke" /><path d="M11.2632873,6.058924 L9.4436522,6.7354505 9.1960024,5.8724024 7.3214394,6.4103043 7.1632777,5.8591184 5.5526638,6.2724802 5.6615332,6.651885 3.6937027,7.2165499 3.7633535,7.4592797 1.733941,8.0416154 0.3631211,2.5594408 2.3249597,2.0688824 2.1013879,1.1747753 5.7630121,0.2591847 6.0630311,0.6591705 7.6630122,0.2590946 8.0630501,1.0590757 9.7630359,0.7589951 11.2632873,6.058924z" fill="rgb(255,255,255)" shaper:cutDepth="0.002" shaper:pathType="interior" stroke="rgb(0,0,0)" transform="matrix(1,0,0,-1,13.2942199,12.6995873)" vector-effect="non-scaling-stroke" /><path d="M6.3917007,7.9020735 L7.7809788,7.2175339 7.9684296,8.4805395 6.5634295,9.0591469 6.3917007,7.9020735z" fill="rgb(255,255,255)" shaper:cutDepth="0.002" shaper:pathType="interior" stroke="rgb(0,0,0)" transform="matrix(1,0,0,-1,13.2942199,12.6995873)" vector-effect="non-scaling-stroke" /></svg>